<?xml version="1.0" encoding="UTF-8" standalone="no"?>
<!DOCTYPE svg PUBLIC "-//W3C//DTD SVG 1.1//EN"
 "http://www.w3.org/Graphics/SVG/1.1/DTD/svg11.dtd">
<!-- Generated by graphviz version 2.43.0 (0)
 -->
<!-- Title: src/bishop.cpp Pages: 1 -->
<svg width="158pt" height="252pt"
 viewBox="0.00 0.00 157.50 252.00" xmlns="http://www.w3.org/2000/svg" xmlns:xlink="http://www.w3.org/1999/xlink">
<g id="graph0" class="graph" transform="scale(1 1) rotate(0) translate(4 248)">
<title>src/bishop.cpp</title>
<polygon fill="white" stroke="transparent" points="-4,4 -4,-248 153.5,-248 153.5,4 -4,4"/>
<!-- Node1 -->
<g id="node1" class="node">
<title>Node1</title>
<g id="a_node1"><a xlink:title=" ">
<polygon fill="#bfbfbf" stroke="black" points="0,-224.5 0,-243.5 86,-243.5 86,-224.5 0,-224.5"/>
<text text-anchor="middle" x="43" y="-231.5" font-family="Helvetica,sans-Serif" font-size="10.00">src/bishop.cpp</text>
</a>
</g>
</g>
<!-- Node2 -->
<g id="node2" class="node">
<title>Node2</title>
<g id="a_node2"><a xlink:href="bishop_8h.html" target="_top" xlink:title=" ">
<polygon fill="white" stroke="black" points="14,-168.5 14,-187.5 72,-187.5 72,-168.5 14,-168.5"/>
<text text-anchor="middle" x="43" y="-175.5" font-family="Helvetica,sans-Serif" font-size="10.00">bishop.h</text>
</a>
</g>
</g>
<!-- Node1&#45;&gt;Node2 -->
<g id="edge1" class="edge">
<title>Node1&#45;&gt;Node2</title>
<path fill="none" stroke="midnightblue" d="M43,-224.08C43,-217.01 43,-206.86 43,-197.99"/>
<polygon fill="midnightblue" stroke="midnightblue" points="46.5,-197.75 43,-187.75 39.5,-197.75 46.5,-197.75"/>
</g>
<!-- Node3 -->
<g id="node3" class="node">
<title>Node3</title>
<g id="a_node3"><a xlink:href="piece_8h.html" target="_top" xlink:title=" ">
<polygon fill="white" stroke="black" points="17,-112.5 17,-131.5 69,-131.5 69,-112.5 17,-112.5"/>
<text text-anchor="middle" x="43" y="-119.5" font-family="Helvetica,sans-Serif" font-size="10.00">piece.h</text>
</a>
</g>
</g>
<!-- Node2&#45;&gt;Node3 -->
<g id="edge2" class="edge">
<title>Node2&#45;&gt;Node3</title>
<path fill="none" stroke="midnightblue" d="M43,-168.08C43,-161.01 43,-150.86 43,-141.99"/>
<polygon fill="midnightblue" stroke="midnightblue" points="46.5,-141.75 43,-131.75 39.5,-141.75 46.5,-141.75"/>
</g>
<!-- Node4 -->
<g id="node4" class="node">
<title>Node4</title>
<g id="a_node4"><a xlink:title=" ">
<polygon fill="white" stroke="#bfbfbf" points="24,-0.5 24,-19.5 84,-19.5 84,-0.5 24,-0.5"/>
<text text-anchor="middle" x="54" y="-7.5" font-family="Helvetica,sans-Serif" font-size="10.00">iostream</text>
</a>
</g>
</g>
<!-- Node3&#45;&gt;Node4 -->
<g id="edge3" class="edge">
<title>Node3&#45;&gt;Node4</title>
<path fill="none" stroke="midnightblue" d="M33.31,-112.38C20.77,-100.14 1.5,-76.86 10,-56 14.8,-44.23 24.33,-33.86 33.29,-26.05"/>
<polygon fill="midnightblue" stroke="midnightblue" points="35.65,-28.64 41.22,-19.63 31.25,-23.2 35.65,-28.64"/>
</g>
<!-- Node5 -->
<g id="node5" class="node">
<title>Node5</title>
<g id="a_node5"><a xlink:title=" ">
<polygon fill="white" stroke="#bfbfbf" points="19.5,-56.5 19.5,-75.5 66.5,-75.5 66.5,-56.5 19.5,-56.5"/>
<text text-anchor="middle" x="43" y="-63.5" font-family="Helvetica,sans-Serif" font-size="10.00">vector</text>
</a>
</g>
</g>
<!-- Node3&#45;&gt;Node5 -->
<g id="edge4" class="edge">
<title>Node3&#45;&gt;Node5</title>
<path fill="none" stroke="midnightblue" d="M43,-112.08C43,-105.01 43,-94.86 43,-85.99"/>
<polygon fill="midnightblue" stroke="midnightblue" points="46.5,-85.75 43,-75.75 39.5,-85.75 46.5,-85.75"/>
</g>
<!-- Node6 -->
<g id="node6" class="node">
<title>Node6</title>
<g id="a_node6"><a xlink:href="position_8h.html" target="_top" xlink:title=" ">
<polygon fill="white" stroke="black" points="84.5,-56.5 84.5,-75.5 149.5,-75.5 149.5,-56.5 84.5,-56.5"/>
<text text-anchor="middle" x="117" y="-63.5" font-family="Helvetica,sans-Serif" font-size="10.00">position.h</text>
</a>
</g>
</g>
<!-- Node3&#45;&gt;Node6 -->
<g id="edge5" class="edge">
<title>Node3&#45;&gt;Node6</title>
<path fill="none" stroke="midnightblue" d="M54.89,-112.32C66.15,-104.11 83.29,-91.6 96.71,-81.81"/>
<polygon fill="midnightblue" stroke="midnightblue" points="98.88,-84.56 104.89,-75.83 94.75,-78.9 98.88,-84.56"/>
</g>
<!-- Node6&#45;&gt;Node4 -->
<g id="edge6" class="edge">
<title>Node6&#45;&gt;Node4</title>
<path fill="none" stroke="midnightblue" d="M106.88,-56.32C97.47,-48.26 83.26,-36.08 71.93,-26.37"/>
<polygon fill="midnightblue" stroke="midnightblue" points="74.18,-23.68 64.31,-19.83 69.62,-29 74.18,-23.68"/>
</g>
</g>
</svg>
