<?xml version="1.0" encoding="UTF-8" standalone="no"?>
<!DOCTYPE svg PUBLIC "-//W3C//DTD SVG 1.1//EN"
 "http://www.w3.org/Graphics/SVG/1.1/DTD/svg11.dtd">
<!-- Generated by graphviz version 2.43.0 (0)
 -->
<!-- Title: Board::init_board Pages: 1 -->
<svg width="442pt" height="66pt"
 viewBox="0.00 0.00 442.00 66.00" xmlns="http://www.w3.org/2000/svg" xmlns:xlink="http://www.w3.org/1999/xlink">
<g id="graph0" class="graph" transform="scale(1 1) rotate(0) translate(4 62)">
<title>Board::init_board</title>
<polygon fill="white" stroke="transparent" points="-4,4 -4,-62 438,-62 438,4 -4,4"/>
<!-- Node1 -->
<g id="node1" class="node">
<title>Node1</title>
<g id="a_node1"><a xlink:title=" ">
<polygon fill="#bfbfbf" stroke="black" points="334,-19.5 334,-38.5 434,-38.5 434,-19.5 334,-19.5"/>
<text text-anchor="middle" x="384" y="-26.5" font-family="Helvetica,sans-Serif" font-size="10.00">Board::init_board</text>
</a>
</g>
</g>
<!-- Node2 -->
<g id="node2" class="node">
<title>Node2</title>
<g id="a_node2"><a xlink:href="classMenu.html#a196d4b882280b81c81409beb8a1a6780" target="_top" xlink:title="Starts game with AI.">
<polygon fill="white" stroke="black" points="178,-38.5 178,-57.5 298,-57.5 298,-38.5 178,-38.5"/>
<text text-anchor="middle" x="238" y="-45.5" font-family="Helvetica,sans-Serif" font-size="10.00">Menu::start_AI_game</text>
</a>
</g>
</g>
<!-- Node1&#45;&gt;Node2 -->
<g id="edge1" class="edge">
<title>Node1&#45;&gt;Node2</title>
<path fill="none" stroke="midnightblue" d="M323.7,-36.82C315.26,-37.94 306.57,-39.08 298.13,-40.2"/>
<polygon fill="midnightblue" stroke="midnightblue" points="324.39,-40.26 333.85,-35.49 323.47,-33.32 324.39,-40.26"/>
</g>
<!-- Node5 -->
<g id="node5" class="node">
<title>Node5</title>
<g id="a_node5"><a xlink:href="classMenu.html#a4e25526f20b92932d0adf9a489356dac" target="_top" xlink:title="Starts game with 2 human players.">
<polygon fill="white" stroke="black" points="185.5,-0.5 185.5,-19.5 290.5,-19.5 290.5,-0.5 185.5,-0.5"/>
<text text-anchor="middle" x="238" y="-7.5" font-family="Helvetica,sans-Serif" font-size="10.00">Menu::start_game</text>
</a>
</g>
</g>
<!-- Node1&#45;&gt;Node5 -->
<g id="edge4" class="edge">
<title>Node1&#45;&gt;Node5</title>
<path fill="none" stroke="midnightblue" d="M323.93,-21.21C312.97,-19.76 301.6,-18.26 290.88,-16.85"/>
<polygon fill="midnightblue" stroke="midnightblue" points="323.47,-24.68 333.85,-22.51 324.39,-17.74 323.47,-24.68"/>
</g>
<!-- Node3 -->
<g id="node3" class="node">
<title>Node3</title>
<g id="a_node3"><a xlink:href="classMenu.html#a35656cd130e24d69383a5c9d0a73a38c" target="_top" xlink:title="Runs menu.">
<polygon fill="white" stroke="black" points="77,-19.5 77,-38.5 142,-38.5 142,-19.5 77,-19.5"/>
<text text-anchor="middle" x="109.5" y="-26.5" font-family="Helvetica,sans-Serif" font-size="10.00">Menu::run</text>
</a>
</g>
</g>
<!-- Node2&#45;&gt;Node3 -->
<g id="edge2" class="edge">
<title>Node2&#45;&gt;Node3</title>
<path fill="none" stroke="midnightblue" d="M167.69,-37.59C158.74,-36.25 149.95,-34.93 142.05,-33.74"/>
<polygon fill="midnightblue" stroke="midnightblue" points="167.42,-41.09 177.82,-39.11 168.45,-34.17 167.42,-41.09"/>
</g>
<!-- Node4 -->
<g id="node4" class="node">
<title>Node4</title>
<g id="a_node4"><a xlink:href="main_8cpp.html#ae66f6b31b5ad750f1fe042a706a4e3d4" target="_top" xlink:title=" ">
<polygon fill="white" stroke="black" points="0,-19.5 0,-38.5 41,-38.5 41,-19.5 0,-19.5"/>
<text text-anchor="middle" x="20.5" y="-26.5" font-family="Helvetica,sans-Serif" font-size="10.00">main</text>
</a>
</g>
</g>
<!-- Node3&#45;&gt;Node4 -->
<g id="edge3" class="edge">
<title>Node3&#45;&gt;Node4</title>
<path fill="none" stroke="midnightblue" d="M66.32,-29C57.47,-29 48.54,-29 41,-29"/>
<polygon fill="midnightblue" stroke="midnightblue" points="66.6,-32.5 76.6,-29 66.6,-25.5 66.6,-32.5"/>
</g>
<!-- Node5&#45;&gt;Node3 -->
<g id="edge5" class="edge">
<title>Node5&#45;&gt;Node3</title>
<path fill="none" stroke="midnightblue" d="M175.17,-19.29C163.71,-21.01 152.19,-22.74 142.11,-24.25"/>
<polygon fill="midnightblue" stroke="midnightblue" points="175.81,-22.73 185.18,-17.78 174.77,-15.81 175.81,-22.73"/>
</g>
</g>
</svg>
