<?xml version="1.0" encoding="UTF-8" standalone="no"?>
<!DOCTYPE svg PUBLIC "-//W3C//DTD SVG 1.1//EN"
 "http://www.w3.org/Graphics/SVG/1.1/DTD/svg11.dtd">
<!-- Generated by graphviz version 2.43.0 (0)
 -->
<!-- Title: Minimax::minimax_algorithm Pages: 1 -->
<svg width="709pt" height="422pt"
 viewBox="0.00 0.00 709.00 421.88" xmlns="http://www.w3.org/2000/svg" xmlns:xlink="http://www.w3.org/1999/xlink">
<g id="graph0" class="graph" transform="scale(1 1) rotate(0) translate(4 417.88)">
<title>Minimax::minimax_algorithm</title>
<polygon fill="white" stroke="transparent" points="-4,4 -4,-417.88 705,-417.88 705,4 -4,4"/>
<!-- Node1 -->
<g id="node1" class="node">
<title>Node1</title>
<g id="a_node1"><a xlink:title="Minimax algorithm.">
<polygon fill="#bfbfbf" stroke="black" points="0,-233.38 0,-252.38 161,-252.38 161,-233.38 0,-233.38"/>
<text text-anchor="middle" x="80.5" y="-240.38" font-family="Helvetica,sans-Serif" font-size="10.00">Minimax::minimax_algorithm</text>
</a>
</g>
</g>
<!-- Node2 -->
<g id="node2" class="node">
<title>Node2</title>
<g id="a_node2"><a xlink:href="classRules.html#abd9b013ebba58f9757336a20b2c6bf8e" target="_top" xlink:title="Checks if king is in check.">
<polygon fill="white" stroke="black" points="223,-356.38 223,-375.38 312,-375.38 312,-356.38 223,-356.38"/>
<text text-anchor="middle" x="267.5" y="-363.38" font-family="Helvetica,sans-Serif" font-size="10.00">Rules::checked</text>
</a>
</g>
</g>
<!-- Node1&#45;&gt;Node2 -->
<g id="edge1" class="edge">
<title>Node1&#45;&gt;Node2</title>
<path fill="none" stroke="midnightblue" d="M92.06,-252.41C111.72,-269.83 155.67,-307.39 197,-332.88 208.57,-340.01 221.93,-346.69 233.82,-352.15"/>
<polygon fill="midnightblue" stroke="midnightblue" points="232.43,-355.36 242.99,-356.25 235.29,-348.97 232.43,-355.36"/>
</g>
<!-- Node5 -->
<g id="node5" class="node">
<title>Node5</title>
<g id="a_node5"><a xlink:href="classValidate.html#a50364e1735875d1d74e7eb251b3fd7e5" target="_top" xlink:title="Validates position.">
<polygon fill="white" stroke="black" points="388,-328.38 388,-347.38 519,-347.38 519,-328.38 388,-328.38"/>
<text text-anchor="middle" x="453.5" y="-335.38" font-family="Helvetica,sans-Serif" font-size="10.00">Validate::valid_position</text>
</a>
</g>
</g>
<!-- Node1&#45;&gt;Node5 -->
<g id="edge18" class="edge">
<title>Node1&#45;&gt;Node5</title>
<path fill="none" stroke="midnightblue" d="M107.88,-252.38C131.15,-260.56 166.06,-272.36 197,-280.88 263.55,-299.2 341.06,-315.84 393.11,-326.35"/>
<polygon fill="midnightblue" stroke="midnightblue" points="392.67,-329.83 403.17,-328.37 394.05,-322.97 392.67,-329.83"/>
</g>
<!-- Node6 -->
<g id="node6" class="node">
<title>Node6</title>
<g id="a_node6"><a xlink:href="classMinimax.html#a5778877ae8f440f49730b743e1b4ce2a" target="_top" xlink:title="Evaluates chess board.">
<polygon fill="white" stroke="black" points="197,-211.38 197,-230.38 338,-230.38 338,-211.38 197,-211.38"/>
<text text-anchor="middle" x="267.5" y="-218.38" font-family="Helvetica,sans-Serif" font-size="10.00">Minimax::evaluate_board</text>
</a>
</g>
</g>
<!-- Node1&#45;&gt;Node6 -->
<g id="edge5" class="edge">
<title>Node1&#45;&gt;Node6</title>
<path fill="none" stroke="midnightblue" d="M161.03,-233.42C169.62,-232.4 178.36,-231.36 186.95,-230.34"/>
<polygon fill="midnightblue" stroke="midnightblue" points="187.42,-233.8 196.94,-229.15 186.59,-226.85 187.42,-233.8"/>
</g>
<!-- Node8 -->
<g id="node8" class="node">
<title>Node8</title>
<g id="a_node8"><a xlink:href="classMove.html#a3765dcce8a7c18e0c2f7ce42c98fa2ba" target="_top" xlink:title="Makes move with piece.">
<polygon fill="white" stroke="black" points="212.5,-107.38 212.5,-126.38 322.5,-126.38 322.5,-107.38 212.5,-107.38"/>
<text text-anchor="middle" x="267.5" y="-114.38" font-family="Helvetica,sans-Serif" font-size="10.00">Move::make_move</text>
</a>
</g>
</g>
<!-- Node1&#45;&gt;Node8 -->
<g id="edge7" class="edge">
<title>Node1&#45;&gt;Node8</title>
<path fill="none" stroke="midnightblue" d="M95.71,-233.2C127.67,-211.43 205.43,-158.47 244.01,-132.19"/>
<polygon fill="midnightblue" stroke="midnightblue" points="246.2,-134.94 252.5,-126.41 242.26,-129.15 246.2,-134.94"/>
</g>
<!-- Node14 -->
<g id="node14" class="node">
<title>Node14</title>
<g id="a_node14"><a xlink:href="classMove.html#afbed08d3294e3c7913dd27c3d6afd283" target="_top" xlink:title="Undo move.">
<polygon fill="white" stroke="black" points="214,-12.38 214,-31.38 321,-31.38 321,-12.38 214,-12.38"/>
<text text-anchor="middle" x="267.5" y="-19.38" font-family="Helvetica,sans-Serif" font-size="10.00">Move::undo_move</text>
</a>
</g>
</g>
<!-- Node1&#45;&gt;Node14 -->
<g id="edge16" class="edge">
<title>Node1&#45;&gt;Node14</title>
<path fill="none" stroke="midnightblue" d="M88.85,-233.19C106.81,-209.62 154.58,-147.56 197,-97.88 214.63,-77.22 235.8,-54.33 250.11,-39.12"/>
<polygon fill="midnightblue" stroke="midnightblue" points="252.96,-41.19 257.29,-31.52 247.87,-36.39 252.96,-41.19"/>
</g>
<!-- Node15 -->
<g id="node15" class="node">
<title>Node15</title>
<g id="a_node15"><a xlink:href="classValidate.html#afe077c5b0107ffc1c42670e233257b9c" target="_top" xlink:title="Validates move.">
<polygon fill="white" stroke="black" points="200,-252.38 200,-271.38 335,-271.38 335,-252.38 200,-252.38"/>
<text text-anchor="middle" x="267.5" y="-259.38" font-family="Helvetica,sans-Serif" font-size="10.00">Validate::validate_move</text>
</a>
</g>
</g>
<!-- Node1&#45;&gt;Node15 -->
<g id="edge19" class="edge">
<title>Node1&#45;&gt;Node15</title>
<path fill="none" stroke="midnightblue" d="M161.03,-251.04C170.52,-252.02 180.2,-253.01 189.66,-253.98"/>
<polygon fill="midnightblue" stroke="midnightblue" points="189.5,-257.49 199.81,-255.03 190.22,-250.52 189.5,-257.49"/>
</g>
<!-- Node3 -->
<g id="node3" class="node">
<title>Node3</title>
<g id="a_node3"><a xlink:href="classValidate.html#a3e4b7f61bff7ee9d7d839ead34d2d61f" target="_top" xlink:title="Checks if square is empty.">
<polygon fill="white" stroke="black" points="581.5,-394.38 581.5,-413.38 688.5,-413.38 688.5,-394.38 581.5,-394.38"/>
<text text-anchor="middle" x="635" y="-401.38" font-family="Helvetica,sans-Serif" font-size="10.00">Validate::is_empty</text>
</a>
</g>
</g>
<!-- Node2&#45;&gt;Node3 -->
<g id="edge2" class="edge">
<title>Node2&#45;&gt;Node3</title>
<path fill="none" stroke="midnightblue" d="M312.22,-370.42C376.65,-377.12 497.41,-389.67 571.27,-397.35"/>
<polygon fill="midnightblue" stroke="midnightblue" points="571.07,-400.85 581.37,-398.4 571.79,-393.89 571.07,-400.85"/>
</g>
<!-- Node4 -->
<g id="node4" class="node">
<title>Node4</title>
<g id="a_node4"><a xlink:href="classValidate.html#ab5ba0f592c1cd28a57deab9ef608f2df" target="_top" xlink:title="Checks if piece is same color as player.">
<polygon fill="white" stroke="black" points="569,-347.38 569,-366.38 701,-366.38 701,-347.38 569,-347.38"/>
<text text-anchor="middle" x="635" y="-354.38" font-family="Helvetica,sans-Serif" font-size="10.00">Validate::is_same_color</text>
</a>
</g>
</g>
<!-- Node2&#45;&gt;Node4 -->
<g id="edge3" class="edge">
<title>Node2&#45;&gt;Node4</title>
<path fill="none" stroke="midnightblue" d="M312.22,-364.8C373.12,-363.3 484.35,-360.56 558.73,-358.73"/>
<polygon fill="midnightblue" stroke="midnightblue" points="559.06,-362.22 568.97,-358.48 558.89,-355.22 559.06,-362.22"/>
</g>
<!-- Node2&#45;&gt;Node5 -->
<g id="edge4" class="edge">
<title>Node2&#45;&gt;Node5</title>
<path fill="none" stroke="midnightblue" d="M312.11,-359.24C332.38,-356.16 357.04,-352.4 379.99,-348.91"/>
<polygon fill="midnightblue" stroke="midnightblue" points="380.7,-352.34 390.06,-347.38 379.64,-345.42 380.7,-352.34"/>
</g>
<!-- Node7 -->
<g id="node7" class="node">
<title>Node7</title>
<g id="a_node7"><a xlink:href="classMinimax.html#a9af2102658fb3a93929462c13c7bfd90" target="_top" xlink:title="Gets piece&#39;s value.">
<polygon fill="white" stroke="black" points="397,-202.88 397,-232.88 510,-232.88 510,-202.88 397,-202.88"/>
<text text-anchor="start" x="405" y="-220.88" font-family="Helvetica,sans-Serif" font-size="10.00">Minimax::get_piece</text>
<text text-anchor="middle" x="453.5" y="-209.88" font-family="Helvetica,sans-Serif" font-size="10.00">_value</text>
</a>
</g>
</g>
<!-- Node6&#45;&gt;Node7 -->
<g id="edge6" class="edge">
<title>Node6&#45;&gt;Node7</title>
<path fill="none" stroke="midnightblue" d="M338.06,-219.74C354.01,-219.48 370.91,-219.21 386.69,-218.95"/>
<polygon fill="midnightblue" stroke="midnightblue" points="386.94,-222.45 396.88,-218.78 386.82,-215.45 386.94,-222.45"/>
</g>
<!-- Node9 -->
<g id="node9" class="node">
<title>Node9</title>
<g id="a_node9"><a xlink:href="classPlayer.html#a42e54e616455af5d9d4b6dea514ba7a0" target="_top" xlink:title="Checks player&#39;s pawn promotion.">
<polygon fill="white" stroke="black" points="391,-126.38 391,-145.38 516,-145.38 516,-126.38 391,-126.38"/>
<text text-anchor="middle" x="453.5" y="-133.38" font-family="Helvetica,sans-Serif" font-size="10.00">Player::get_promotion</text>
</a>
</g>
</g>
<!-- Node8&#45;&gt;Node9 -->
<g id="edge8" class="edge">
<title>Node8&#45;&gt;Node9</title>
<path fill="none" stroke="midnightblue" d="M322.71,-122.47C340.95,-124.36 361.58,-126.49 380.94,-128.49"/>
<polygon fill="midnightblue" stroke="midnightblue" points="380.62,-131.97 390.93,-129.52 381.34,-125.01 380.62,-131.97"/>
</g>
<!-- Node10 -->
<g id="node10" class="node">
<title>Node10</title>
<g id="a_node10"><a xlink:href="classMove.html#a5472b83ec6bcde0fd8c16c4508896ccd" target="_top" xlink:title="Handles casting.">
<polygon fill="white" stroke="black" points="390.5,-50.38 390.5,-69.38 516.5,-69.38 516.5,-50.38 390.5,-50.38"/>
<text text-anchor="middle" x="453.5" y="-57.38" font-family="Helvetica,sans-Serif" font-size="10.00">Move::handle_castling</text>
</a>
</g>
</g>
<!-- Node8&#45;&gt;Node10 -->
<g id="edge9" class="edge">
<title>Node8&#45;&gt;Node10</title>
<path fill="none" stroke="midnightblue" d="M292.56,-107.37C313.78,-99.18 345.66,-87.38 374,-78.88 382.2,-76.41 390.96,-74.04 399.55,-71.86"/>
<polygon fill="midnightblue" stroke="midnightblue" points="400.63,-75.2 409.5,-69.4 398.95,-68.41 400.63,-75.2"/>
</g>
<!-- Node11 -->
<g id="node11" class="node">
<title>Node11</title>
<g id="a_node11"><a xlink:href="classMove.html#a5a18864c15112c49e5a93dbee3f83d1c" target="_top" xlink:title="Moves piece from start to end.">
<polygon fill="white" stroke="black" points="580.5,-40.38 580.5,-59.38 689.5,-59.38 689.5,-40.38 580.5,-40.38"/>
<text text-anchor="middle" x="635" y="-47.38" font-family="Helvetica,sans-Serif" font-size="10.00">Move::move_piece</text>
</a>
</g>
</g>
<!-- Node8&#45;&gt;Node11 -->
<g id="edge11" class="edge">
<title>Node8&#45;&gt;Node11</title>
<path fill="none" stroke="midnightblue" d="M277.51,-107.23C294.44,-89.91 332.97,-54.12 374,-40.88 444.46,-18.14 531.3,-28.21 584.65,-38.4"/>
<polygon fill="midnightblue" stroke="midnightblue" points="584.04,-41.85 594.53,-40.36 585.4,-34.98 584.04,-41.85"/>
</g>
<!-- Node12 -->
<g id="node12" class="node">
<title>Node12</title>
<g id="a_node12"><a xlink:href="classMove.html#a9a242db5d52827dd11f81a6aa46e339e" target="_top" xlink:title="Handles pawn promotion.">
<polygon fill="white" stroke="black" points="403.5,-88.38 403.5,-107.38 503.5,-107.38 503.5,-88.38 403.5,-88.38"/>
<text text-anchor="middle" x="453.5" y="-95.38" font-family="Helvetica,sans-Serif" font-size="10.00">Move::promotion</text>
</a>
</g>
</g>
<!-- Node8&#45;&gt;Node12 -->
<g id="edge12" class="edge">
<title>Node8&#45;&gt;Node12</title>
<path fill="none" stroke="midnightblue" d="M322.71,-111.28C344.87,-108.99 370.56,-106.34 393.21,-104"/>
<polygon fill="midnightblue" stroke="midnightblue" points="393.79,-107.46 403.38,-102.95 393.07,-100.49 393.79,-107.46"/>
</g>
<!-- Node13 -->
<g id="node13" class="node">
<title>Node13</title>
<g id="a_node13"><a xlink:href="classPlayer.html#a620bf4cb1907eafdbcd9252a750ffa8f" target="_top" xlink:title="Update piece&#39;s position on chess board.">
<polygon fill="white" stroke="black" points="573,-97.38 573,-116.38 697,-116.38 697,-97.38 573,-97.38"/>
<text text-anchor="middle" x="635" y="-104.38" font-family="Helvetica,sans-Serif" font-size="10.00">Player::update_pieces</text>
</a>
</g>
</g>
<!-- Node8&#45;&gt;Node13 -->
<g id="edge15" class="edge">
<title>Node8&#45;&gt;Node13</title>
<path fill="none" stroke="midnightblue" d="M288.55,-126.46C309.36,-135.84 343.12,-149.48 374,-154.88 443.61,-167.03 464.06,-170.42 533,-154.88 561.28,-148.5 590.94,-133.22 610.74,-121.61"/>
<polygon fill="midnightblue" stroke="midnightblue" points="612.61,-124.57 619.37,-116.41 608.99,-118.57 612.61,-124.57"/>
</g>
<!-- Node10&#45;&gt;Node11 -->
<g id="edge10" class="edge">
<title>Node10&#45;&gt;Node11</title>
<path fill="none" stroke="midnightblue" d="M516.53,-56.42C533.89,-55.45 552.79,-54.4 570.26,-53.43"/>
<polygon fill="midnightblue" stroke="midnightblue" points="570.56,-56.92 580.35,-52.86 570.17,-49.93 570.56,-56.92"/>
</g>
<!-- Node12&#45;&gt;Node11 -->
<g id="edge13" class="edge">
<title>Node12&#45;&gt;Node11</title>
<path fill="none" stroke="midnightblue" d="M495.33,-88.34C507.48,-85.41 520.8,-82.1 533,-78.88 552.49,-73.72 573.98,-67.61 592.11,-62.33"/>
<polygon fill="midnightblue" stroke="midnightblue" points="593.19,-65.66 601.8,-59.5 591.22,-58.95 593.19,-65.66"/>
</g>
<!-- Node12&#45;&gt;Node13 -->
<g id="edge14" class="edge">
<title>Node12&#45;&gt;Node13</title>
<path fill="none" stroke="midnightblue" d="M503.55,-100.33C521.76,-101.25 542.8,-102.3 562.6,-103.3"/>
<polygon fill="midnightblue" stroke="midnightblue" points="562.66,-106.8 572.82,-103.81 563.01,-99.81 562.66,-106.8"/>
</g>
<!-- Node14&#45;&gt;Node11 -->
<g id="edge17" class="edge">
<title>Node14&#45;&gt;Node11</title>
<path fill="none" stroke="midnightblue" d="M315.83,-12.36C369.15,-3.25 458.14,7.07 533,-7.88 559.57,-13.18 587.89,-25.61 607.76,-35.59"/>
<polygon fill="midnightblue" stroke="midnightblue" points="606.3,-38.77 616.79,-40.24 609.51,-32.55 606.3,-38.77"/>
</g>
<!-- Node16 -->
<g id="node16" class="node">
<title>Node16</title>
<g id="a_node16"><a xlink:href="classValidate.html#ac11fdbf661a340f903a8a8b581710c34" target="_top" xlink:title="Finds all possible moves for piece.">
<polygon fill="white" stroke="black" points="374,-290.38 374,-309.38 533,-309.38 533,-290.38 374,-290.38"/>
<text text-anchor="middle" x="453.5" y="-297.38" font-family="Helvetica,sans-Serif" font-size="10.00">Validate::find_possible_move</text>
</a>
</g>
</g>
<!-- Node15&#45;&gt;Node16 -->
<g id="edge20" class="edge">
<title>Node15&#45;&gt;Node16</title>
<path fill="none" stroke="midnightblue" d="M314.93,-271.46C339.65,-276.57 370.24,-282.89 396.29,-288.27"/>
<polygon fill="midnightblue" stroke="midnightblue" points="395.9,-291.76 406.4,-290.36 397.32,-284.91 395.9,-291.76"/>
</g>
<!-- Node18 -->
<g id="node18" class="node">
<title>Node18</title>
<g id="a_node18"><a xlink:href="classValidate.html#a6c88b44fd5d40b6aba0812e2d23d8f04" target="_top" xlink:title="Checks if castling is valid.">
<polygon fill="white" stroke="black" points="388.5,-252.38 388.5,-271.38 518.5,-271.38 518.5,-252.38 388.5,-252.38"/>
<text text-anchor="middle" x="453.5" y="-259.38" font-family="Helvetica,sans-Serif" font-size="10.00">Validate::valid_castling</text>
</a>
</g>
</g>
<!-- Node15&#45;&gt;Node18 -->
<g id="edge24" class="edge">
<title>Node15&#45;&gt;Node18</title>
<path fill="none" stroke="midnightblue" d="M335.19,-261.88C349.17,-261.88 364.01,-261.88 378.25,-261.88"/>
<polygon fill="midnightblue" stroke="midnightblue" points="378.5,-265.38 388.5,-261.88 378.5,-258.38 378.5,-265.38"/>
</g>
<!-- Node16&#45;&gt;Node3 -->
<g id="edge22" class="edge">
<title>Node16&#45;&gt;Node3</title>
<path fill="none" stroke="midnightblue" d="M515.33,-309.51C521.61,-311.96 527.65,-315.03 533,-318.88 557.34,-336.35 546.22,-356.41 569,-375.88 575.79,-381.68 583.96,-386.44 592.18,-390.29"/>
<polygon fill="midnightblue" stroke="midnightblue" points="590.84,-393.52 601.41,-394.25 593.6,-387.09 590.84,-393.52"/>
</g>
<!-- Node16&#45;&gt;Node4 -->
<g id="edge23" class="edge">
<title>Node16&#45;&gt;Node4</title>
<path fill="none" stroke="midnightblue" d="M497.95,-309.39C509.42,-312.17 521.74,-315.41 533,-318.88 556.28,-326.04 581.97,-335.73 601.61,-343.53"/>
<polygon fill="midnightblue" stroke="midnightblue" points="600.43,-346.83 611.01,-347.31 603.03,-340.33 600.43,-346.83"/>
</g>
<!-- Node17 -->
<g id="node17" class="node">
<title>Node17</title>
<g id="a_node17"><a xlink:href="classValidate.html#aa7766a323b9443c69e62a05d04f0b217" target="_top" xlink:title="Finds if move is legit.">
<polygon fill="white" stroke="black" points="578.5,-290.38 578.5,-309.38 691.5,-309.38 691.5,-290.38 578.5,-290.38"/>
<text text-anchor="middle" x="635" y="-297.38" font-family="Helvetica,sans-Serif" font-size="10.00">Validate::find_move</text>
</a>
</g>
</g>
<!-- Node16&#45;&gt;Node17 -->
<g id="edge21" class="edge">
<title>Node16&#45;&gt;Node17</title>
<path fill="none" stroke="midnightblue" d="M533.23,-299.88C544.84,-299.88 556.7,-299.88 568.02,-299.88"/>
<polygon fill="midnightblue" stroke="midnightblue" points="568.24,-303.38 578.24,-299.88 568.24,-296.38 568.24,-303.38"/>
</g>
</g>
</svg>
