<?xml version="1.0" encoding="UTF-8" standalone="no"?>
<!DOCTYPE svg PUBLIC "-//W3C//DTD SVG 1.1//EN"
 "http://www.w3.org/Graphics/SVG/1.1/DTD/svg11.dtd">
<!-- Generated by graphviz version 2.43.0 (0)
 -->
<!-- Title: Custom_AI2::possible_pieces_and_moves Pages: 1 -->
<svg width="664pt" height="384pt"
 viewBox="0.00 0.00 664.00 383.75" xmlns="http://www.w3.org/2000/svg" xmlns:xlink="http://www.w3.org/1999/xlink">
<g id="graph0" class="graph" transform="scale(1 1) rotate(0) translate(4 379.75)">
<title>Custom_AI2::possible_pieces_and_moves</title>
<polygon fill="white" stroke="transparent" points="-4,4 -4,-379.75 660,-379.75 660,4 -4,4"/>
<!-- Node1 -->
<g id="node1" class="node">
<title>Node1</title>
<g id="a_node1"><a xlink:title="Counts all moves for all pieces.">
<polygon fill="#bfbfbf" stroke="black" points="0,-198.75 0,-228.75 122,-228.75 122,-198.75 0,-198.75"/>
<text text-anchor="start" x="8" y="-216.75" font-family="Helvetica,sans-Serif" font-size="10.00">Custom_AI2::possible</text>
<text text-anchor="middle" x="61" y="-205.75" font-family="Helvetica,sans-Serif" font-size="10.00">_pieces_and_moves</text>
</a>
</g>
</g>
<!-- Node2 -->
<g id="node2" class="node">
<title>Node2</title>
<g id="a_node2"><a xlink:href="classRules.html#abd9b013ebba58f9757336a20b2c6bf8e" target="_top" xlink:title="Checks if king is in check.">
<polygon fill="white" stroke="black" points="181,-242.25 181,-261.25 270,-261.25 270,-242.25 181,-242.25"/>
<text text-anchor="middle" x="225.5" y="-249.25" font-family="Helvetica,sans-Serif" font-size="10.00">Rules::checked</text>
</a>
</g>
</g>
<!-- Node1&#45;&gt;Node2 -->
<g id="edge1" class="edge">
<title>Node1&#45;&gt;Node2</title>
<path fill="none" stroke="midnightblue" d="M122.05,-227.79C138.97,-231.74 157.21,-236.01 173.54,-239.83"/>
<polygon fill="midnightblue" stroke="midnightblue" points="172.9,-243.27 183.44,-242.14 174.5,-236.46 172.9,-243.27"/>
</g>
<!-- Node5 -->
<g id="node5" class="node">
<title>Node5</title>
<g id="a_node5"><a xlink:href="classValidate.html#a50364e1735875d1d74e7eb251b3fd7e5" target="_top" xlink:title="Validates position.">
<polygon fill="white" stroke="black" points="343,-204.25 343,-223.25 474,-223.25 474,-204.25 343,-204.25"/>
<text text-anchor="middle" x="408.5" y="-211.25" font-family="Helvetica,sans-Serif" font-size="10.00">Validate::valid_position</text>
</a>
</g>
</g>
<!-- Node1&#45;&gt;Node5 -->
<g id="edge16" class="edge">
<title>Node1&#45;&gt;Node5</title>
<path fill="none" stroke="midnightblue" d="M122.18,-213.75C180.6,-213.75 269.45,-213.75 332.46,-213.75"/>
<polygon fill="midnightblue" stroke="midnightblue" points="332.73,-217.25 342.73,-213.75 332.73,-210.25 332.73,-217.25"/>
</g>
<!-- Node6 -->
<g id="node6" class="node">
<title>Node6</title>
<g id="a_node6"><a xlink:href="classMove.html#a3765dcce8a7c18e0c2f7ce42c98fa2ba" target="_top" xlink:title="Makes move with piece.">
<polygon fill="white" stroke="black" points="170.5,-109.25 170.5,-128.25 280.5,-128.25 280.5,-109.25 170.5,-109.25"/>
<text text-anchor="middle" x="225.5" y="-116.25" font-family="Helvetica,sans-Serif" font-size="10.00">Move::make_move</text>
</a>
</g>
</g>
<!-- Node1&#45;&gt;Node6 -->
<g id="edge5" class="edge">
<title>Node1&#45;&gt;Node6</title>
<path fill="none" stroke="midnightblue" d="M87.75,-198.69C118.24,-180.87 168.72,-151.36 199.07,-133.61"/>
<polygon fill="midnightblue" stroke="midnightblue" points="200.94,-136.58 207.8,-128.51 197.4,-130.53 200.94,-136.58"/>
</g>
<!-- Node12 -->
<g id="node12" class="node">
<title>Node12</title>
<g id="a_node12"><a xlink:href="classMove.html#afbed08d3294e3c7913dd27c3d6afd283" target="_top" xlink:title="Undo move.">
<polygon fill="white" stroke="black" points="172,-14.25 172,-33.25 279,-33.25 279,-14.25 172,-14.25"/>
<text text-anchor="middle" x="225.5" y="-21.25" font-family="Helvetica,sans-Serif" font-size="10.00">Move::undo_move</text>
</a>
</g>
</g>
<!-- Node1&#45;&gt;Node12 -->
<g id="edge14" class="edge">
<title>Node1&#45;&gt;Node12</title>
<path fill="none" stroke="midnightblue" d="M74.64,-198.55C92.92,-176.62 127.83,-134.89 158,-99.75 175.34,-79.54 195.51,-56.56 209.05,-41.21"/>
<polygon fill="midnightblue" stroke="midnightblue" points="211.84,-43.34 215.83,-33.53 206.59,-38.71 211.84,-43.34"/>
</g>
<!-- Node13 -->
<g id="node13" class="node">
<title>Node13</title>
<g id="a_node13"><a xlink:href="classValidate.html#afe077c5b0107ffc1c42670e233257b9c" target="_top" xlink:title="Validates move.">
<polygon fill="white" stroke="black" points="158,-318.25 158,-337.25 293,-337.25 293,-318.25 158,-318.25"/>
<text text-anchor="middle" x="225.5" y="-325.25" font-family="Helvetica,sans-Serif" font-size="10.00">Validate::validate_move</text>
</a>
</g>
</g>
<!-- Node1&#45;&gt;Node13 -->
<g id="edge17" class="edge">
<title>Node1&#45;&gt;Node13</title>
<path fill="none" stroke="midnightblue" d="M83.58,-228.88C114.54,-250.6 171.26,-290.4 202.47,-312.29"/>
<polygon fill="midnightblue" stroke="midnightblue" points="200.72,-315.34 210.92,-318.22 204.74,-309.61 200.72,-315.34"/>
</g>
<!-- Node3 -->
<g id="node3" class="node">
<title>Node3</title>
<g id="a_node3"><a xlink:href="classValidate.html#a3e4b7f61bff7ee9d7d839ead34d2d61f" target="_top" xlink:title="Checks if square is empty.">
<polygon fill="white" stroke="black" points="536.5,-242.25 536.5,-261.25 643.5,-261.25 643.5,-242.25 536.5,-242.25"/>
<text text-anchor="middle" x="590" y="-249.25" font-family="Helvetica,sans-Serif" font-size="10.00">Validate::is_empty</text>
</a>
</g>
</g>
<!-- Node2&#45;&gt;Node3 -->
<g id="edge2" class="edge">
<title>Node2&#45;&gt;Node3</title>
<path fill="none" stroke="midnightblue" d="M270.23,-251.75C334.07,-251.75 453.15,-251.75 526.31,-251.75"/>
<polygon fill="midnightblue" stroke="midnightblue" points="526.32,-255.25 536.32,-251.75 526.32,-248.25 526.32,-255.25"/>
</g>
<!-- Node4 -->
<g id="node4" class="node">
<title>Node4</title>
<g id="a_node4"><a xlink:href="classValidate.html#ab5ba0f592c1cd28a57deab9ef608f2df" target="_top" xlink:title="Checks if piece is same color as player.">
<polygon fill="white" stroke="black" points="524,-280.25 524,-299.25 656,-299.25 656,-280.25 524,-280.25"/>
<text text-anchor="middle" x="590" y="-287.25" font-family="Helvetica,sans-Serif" font-size="10.00">Validate::is_same_color</text>
</a>
</g>
</g>
<!-- Node2&#45;&gt;Node4 -->
<g id="edge3" class="edge">
<title>Node2&#45;&gt;Node4</title>
<path fill="none" stroke="midnightblue" d="M270.09,-258.13C288.28,-260.68 309.64,-263.53 329,-265.75 391.07,-272.85 461.66,-279.26 513.61,-283.66"/>
<polygon fill="midnightblue" stroke="midnightblue" points="513.48,-287.16 523.74,-284.52 514.07,-280.19 513.48,-287.16"/>
</g>
<!-- Node2&#45;&gt;Node5 -->
<g id="edge4" class="edge">
<title>Node2&#45;&gt;Node5</title>
<path fill="none" stroke="midnightblue" d="M270.32,-242.55C294.99,-237.37 326.05,-230.85 352.37,-225.32"/>
<polygon fill="midnightblue" stroke="midnightblue" points="353.13,-228.74 362.2,-223.26 351.69,-221.89 353.13,-228.74"/>
</g>
<!-- Node7 -->
<g id="node7" class="node">
<title>Node7</title>
<g id="a_node7"><a xlink:href="classPlayer.html#a42e54e616455af5d9d4b6dea514ba7a0" target="_top" xlink:title="Checks player&#39;s pawn promotion.">
<polygon fill="white" stroke="black" points="346,-52.25 346,-71.25 471,-71.25 471,-52.25 346,-52.25"/>
<text text-anchor="middle" x="408.5" y="-59.25" font-family="Helvetica,sans-Serif" font-size="10.00">Player::get_promotion</text>
</a>
</g>
</g>
<!-- Node6&#45;&gt;Node7 -->
<g id="edge6" class="edge">
<title>Node6&#45;&gt;Node7</title>
<path fill="none" stroke="midnightblue" d="M249.84,-109.2C270.45,-100.98 301.41,-89.17 329,-80.75 337.1,-78.27 345.74,-75.91 354.22,-73.74"/>
<polygon fill="midnightblue" stroke="midnightblue" points="355.21,-77.11 364.06,-71.29 353.52,-70.31 355.21,-77.11"/>
</g>
<!-- Node8 -->
<g id="node8" class="node">
<title>Node8</title>
<g id="a_node8"><a xlink:href="classMove.html#a5472b83ec6bcde0fd8c16c4508896ccd" target="_top" xlink:title="Handles casting.">
<polygon fill="white" stroke="black" points="345.5,-90.25 345.5,-109.25 471.5,-109.25 471.5,-90.25 345.5,-90.25"/>
<text text-anchor="middle" x="408.5" y="-97.25" font-family="Helvetica,sans-Serif" font-size="10.00">Move::handle_castling</text>
</a>
</g>
</g>
<!-- Node6&#45;&gt;Node8 -->
<g id="edge7" class="edge">
<title>Node6&#45;&gt;Node8</title>
<path fill="none" stroke="midnightblue" d="M280.81,-113.05C297.94,-111.25 317.14,-109.23 335.32,-107.32"/>
<polygon fill="midnightblue" stroke="midnightblue" points="335.71,-110.8 345.29,-106.28 334.98,-103.84 335.71,-110.8"/>
</g>
<!-- Node9 -->
<g id="node9" class="node">
<title>Node9</title>
<g id="a_node9"><a xlink:href="classMove.html#a5a18864c15112c49e5a93dbee3f83d1c" target="_top" xlink:title="Moves piece from start to end.">
<polygon fill="white" stroke="black" points="535.5,-52.25 535.5,-71.25 644.5,-71.25 644.5,-52.25 535.5,-52.25"/>
<text text-anchor="middle" x="590" y="-59.25" font-family="Helvetica,sans-Serif" font-size="10.00">Move::move_piece</text>
</a>
</g>
</g>
<!-- Node6&#45;&gt;Node9 -->
<g id="edge9" class="edge">
<title>Node6&#45;&gt;Node9</title>
<path fill="none" stroke="midnightblue" d="M235.2,-109.1C251.54,-91.79 288.82,-56.02 329,-42.75 403.74,-18.06 496.92,-35.68 548.99,-49.52"/>
<polygon fill="midnightblue" stroke="midnightblue" points="548.27,-52.95 558.84,-52.23 550.13,-46.2 548.27,-52.95"/>
</g>
<!-- Node10 -->
<g id="node10" class="node">
<title>Node10</title>
<g id="a_node10"><a xlink:href="classMove.html#a9a242db5d52827dd11f81a6aa46e339e" target="_top" xlink:title="Handles pawn promotion.">
<polygon fill="white" stroke="black" points="358.5,-128.25 358.5,-147.25 458.5,-147.25 458.5,-128.25 358.5,-128.25"/>
<text text-anchor="middle" x="408.5" y="-135.25" font-family="Helvetica,sans-Serif" font-size="10.00">Move::promotion</text>
</a>
</g>
</g>
<!-- Node6&#45;&gt;Node10 -->
<g id="edge10" class="edge">
<title>Node6&#45;&gt;Node10</title>
<path fill="none" stroke="midnightblue" d="M280.81,-124.45C302.11,-126.68 326.62,-129.26 348.37,-131.54"/>
<polygon fill="midnightblue" stroke="midnightblue" points="348.16,-135.04 358.47,-132.6 348.89,-128.07 348.16,-135.04"/>
</g>
<!-- Node11 -->
<g id="node11" class="node">
<title>Node11</title>
<g id="a_node11"><a xlink:href="classPlayer.html#a620bf4cb1907eafdbcd9252a750ffa8f" target="_top" xlink:title="Update piece&#39;s position on chess board.">
<polygon fill="white" stroke="black" points="528,-147.25 528,-166.25 652,-166.25 652,-147.25 528,-147.25"/>
<text text-anchor="middle" x="590" y="-154.25" font-family="Helvetica,sans-Serif" font-size="10.00">Player::update_pieces</text>
</a>
</g>
</g>
<!-- Node6&#45;&gt;Node11 -->
<g id="edge13" class="edge">
<title>Node6&#45;&gt;Node11</title>
<path fill="none" stroke="midnightblue" d="M245.94,-128.33C266.14,-137.71 298.92,-151.35 329,-156.75 392,-168.05 464.98,-166.83 517.55,-163.49"/>
<polygon fill="midnightblue" stroke="midnightblue" points="518.04,-166.97 527.78,-162.8 517.57,-159.98 518.04,-166.97"/>
</g>
<!-- Node8&#45;&gt;Node9 -->
<g id="edge8" class="edge">
<title>Node8&#45;&gt;Node9</title>
<path fill="none" stroke="midnightblue" d="M454.8,-90.16C478.91,-85.05 508.75,-78.73 534.17,-73.35"/>
<polygon fill="midnightblue" stroke="midnightblue" points="534.97,-76.76 544.03,-71.27 533.52,-69.91 534.97,-76.76"/>
</g>
<!-- Node10&#45;&gt;Node9 -->
<g id="edge11" class="edge">
<title>Node10&#45;&gt;Node9</title>
<path fill="none" stroke="midnightblue" d="M458.31,-128.15C468.29,-125.57 478.61,-122.45 488,-118.75 516.3,-107.59 546.37,-89.75 566.27,-77"/>
<polygon fill="midnightblue" stroke="midnightblue" points="568.44,-79.76 574.91,-71.37 564.62,-73.9 568.44,-79.76"/>
</g>
<!-- Node10&#45;&gt;Node11 -->
<g id="edge12" class="edge">
<title>Node10&#45;&gt;Node11</title>
<path fill="none" stroke="midnightblue" d="M458.55,-142.94C476.84,-144.87 498,-147.11 517.88,-149.22"/>
<polygon fill="midnightblue" stroke="midnightblue" points="517.51,-152.7 527.82,-150.27 518.25,-145.74 517.51,-152.7"/>
</g>
<!-- Node12&#45;&gt;Node9 -->
<g id="edge15" class="edge">
<title>Node12&#45;&gt;Node9</title>
<path fill="none" stroke="midnightblue" d="M268.4,-14.18C320.61,-3.91 412.22,8.62 488,-9.75 517.12,-16.8 547.25,-33.8 566.94,-46.45"/>
<polygon fill="midnightblue" stroke="midnightblue" points="565.18,-49.49 575.46,-52.08 569.04,-43.65 565.18,-49.49"/>
</g>
<!-- Node14 -->
<g id="node14" class="node">
<title>Node14</title>
<g id="a_node14"><a xlink:href="classValidate.html#ac11fdbf661a340f903a8a8b581710c34" target="_top" xlink:title="Finds all possible moves for piece.">
<polygon fill="white" stroke="black" points="329,-318.25 329,-337.25 488,-337.25 488,-318.25 329,-318.25"/>
<text text-anchor="middle" x="408.5" y="-325.25" font-family="Helvetica,sans-Serif" font-size="10.00">Validate::find_possible_move</text>
</a>
</g>
</g>
<!-- Node13&#45;&gt;Node14 -->
<g id="edge18" class="edge">
<title>Node13&#45;&gt;Node14</title>
<path fill="none" stroke="midnightblue" d="M293.13,-327.75C301.46,-327.75 310.08,-327.75 318.68,-327.75"/>
<polygon fill="midnightblue" stroke="midnightblue" points="318.75,-331.25 328.75,-327.75 318.75,-324.25 318.75,-331.25"/>
</g>
<!-- Node16 -->
<g id="node16" class="node">
<title>Node16</title>
<g id="a_node16"><a xlink:href="classValidate.html#a6c88b44fd5d40b6aba0812e2d23d8f04" target="_top" xlink:title="Checks if castling is valid.">
<polygon fill="white" stroke="black" points="343.5,-356.25 343.5,-375.25 473.5,-375.25 473.5,-356.25 343.5,-356.25"/>
<text text-anchor="middle" x="408.5" y="-363.25" font-family="Helvetica,sans-Serif" font-size="10.00">Validate::valid_castling</text>
</a>
</g>
</g>
<!-- Node13&#45;&gt;Node16 -->
<g id="edge22" class="edge">
<title>Node13&#45;&gt;Node16</title>
<path fill="none" stroke="midnightblue" d="M272.17,-337.33C296.49,-342.44 326.58,-348.76 352.21,-354.14"/>
<polygon fill="midnightblue" stroke="midnightblue" points="351.65,-357.6 362.15,-356.23 353.09,-350.75 351.65,-357.6"/>
</g>
<!-- Node14&#45;&gt;Node3 -->
<g id="edge20" class="edge">
<title>Node14&#45;&gt;Node3</title>
<path fill="none" stroke="midnightblue" d="M426.52,-318.07C448.51,-305.86 488.23,-284.75 524,-270.75 529.89,-268.44 536.18,-266.26 542.43,-264.26"/>
<polygon fill="midnightblue" stroke="midnightblue" points="543.64,-267.55 552.18,-261.28 541.59,-260.86 543.64,-267.55"/>
</g>
<!-- Node14&#45;&gt;Node4 -->
<g id="edge21" class="edge">
<title>Node14&#45;&gt;Node4</title>
<path fill="none" stroke="midnightblue" d="M454.8,-318.16C478.91,-313.05 508.75,-306.73 534.17,-301.35"/>
<polygon fill="midnightblue" stroke="midnightblue" points="534.97,-304.76 544.03,-299.27 533.52,-297.91 534.97,-304.76"/>
</g>
<!-- Node15 -->
<g id="node15" class="node">
<title>Node15</title>
<g id="a_node15"><a xlink:href="classValidate.html#aa7766a323b9443c69e62a05d04f0b217" target="_top" xlink:title="Finds if move is legit.">
<polygon fill="white" stroke="black" points="533.5,-318.25 533.5,-337.25 646.5,-337.25 646.5,-318.25 533.5,-318.25"/>
<text text-anchor="middle" x="590" y="-325.25" font-family="Helvetica,sans-Serif" font-size="10.00">Validate::find_move</text>
</a>
</g>
</g>
<!-- Node14&#45;&gt;Node15 -->
<g id="edge19" class="edge">
<title>Node14&#45;&gt;Node15</title>
<path fill="none" stroke="midnightblue" d="M488.23,-327.75C499.84,-327.75 511.7,-327.75 523.02,-327.75"/>
<polygon fill="midnightblue" stroke="midnightblue" points="523.24,-331.25 533.24,-327.75 523.24,-324.25 523.24,-331.25"/>
</g>
</g>
</svg>
