<?xml version="1.0" encoding="UTF-8" standalone="no"?>
<!DOCTYPE svg PUBLIC "-//W3C//DTD SVG 1.1//EN"
 "http://www.w3.org/Graphics/SVG/1.1/DTD/svg11.dtd">
<!-- Generated by graphviz version 2.43.0 (0)
 -->
<!-- Title: Minimax::get_move Pages: 1 -->
<svg width="859pt" height="422pt"
 viewBox="0.00 0.00 859.00 421.88" xmlns="http://www.w3.org/2000/svg" xmlns:xlink="http://www.w3.org/1999/xlink">
<g id="graph0" class="graph" transform="scale(1 1) rotate(0) translate(4 417.88)">
<title>Minimax::get_move</title>
<polygon fill="white" stroke="transparent" points="-4,4 -4,-417.88 855,-417.88 855,4 -4,4"/>
<!-- Node1 -->
<g id="node1" class="node">
<title>Node1</title>
<g id="a_node1"><a xlink:title="Gets player&#39;s move.">
<polygon fill="#bfbfbf" stroke="black" points="0,-233.38 0,-252.38 114,-252.38 114,-233.38 0,-233.38"/>
<text text-anchor="middle" x="57" y="-240.38" font-family="Helvetica,sans-Serif" font-size="10.00">Minimax::get_move</text>
</a>
</g>
</g>
<!-- Node2 -->
<g id="node2" class="node">
<title>Node2</title>
<g id="a_node2"><a xlink:href="classMinimax.html#ad75b36d8718f9ad30bb921a483413b1f" target="_top" xlink:title="Minimax algorithm.">
<polygon fill="white" stroke="black" points="150,-233.38 150,-252.38 311,-252.38 311,-233.38 150,-233.38"/>
<text text-anchor="middle" x="230.5" y="-240.38" font-family="Helvetica,sans-Serif" font-size="10.00">Minimax::minimax_algorithm</text>
</a>
</g>
</g>
<!-- Node1&#45;&gt;Node2 -->
<g id="edge1" class="edge">
<title>Node1&#45;&gt;Node2</title>
<path fill="none" stroke="midnightblue" d="M114.16,-242.88C122.37,-242.88 131,-242.88 139.68,-242.88"/>
<polygon fill="midnightblue" stroke="midnightblue" points="139.88,-246.38 149.88,-242.88 139.88,-239.38 139.88,-246.38"/>
</g>
<!-- Node3 -->
<g id="node3" class="node">
<title>Node3</title>
<g id="a_node3"><a xlink:href="classRules.html#abd9b013ebba58f9757336a20b2c6bf8e" target="_top" xlink:title="Checks if king is in check.">
<polygon fill="white" stroke="black" points="373,-356.38 373,-375.38 462,-375.38 462,-356.38 373,-356.38"/>
<text text-anchor="middle" x="417.5" y="-363.38" font-family="Helvetica,sans-Serif" font-size="10.00">Rules::checked</text>
</a>
</g>
</g>
<!-- Node2&#45;&gt;Node3 -->
<g id="edge2" class="edge">
<title>Node2&#45;&gt;Node3</title>
<path fill="none" stroke="midnightblue" d="M242.06,-252.41C261.72,-269.83 305.67,-307.39 347,-332.88 358.57,-340.01 371.93,-346.69 383.82,-352.15"/>
<polygon fill="midnightblue" stroke="midnightblue" points="382.43,-355.36 392.99,-356.25 385.29,-348.97 382.43,-355.36"/>
</g>
<!-- Node6 -->
<g id="node6" class="node">
<title>Node6</title>
<g id="a_node6"><a xlink:href="classValidate.html#a50364e1735875d1d74e7eb251b3fd7e5" target="_top" xlink:title="Validates position.">
<polygon fill="white" stroke="black" points="538,-328.38 538,-347.38 669,-347.38 669,-328.38 538,-328.38"/>
<text text-anchor="middle" x="603.5" y="-335.38" font-family="Helvetica,sans-Serif" font-size="10.00">Validate::valid_position</text>
</a>
</g>
</g>
<!-- Node2&#45;&gt;Node6 -->
<g id="edge19" class="edge">
<title>Node2&#45;&gt;Node6</title>
<path fill="none" stroke="midnightblue" d="M257.88,-252.38C281.15,-260.56 316.06,-272.36 347,-280.88 413.55,-299.2 491.06,-315.84 543.11,-326.35"/>
<polygon fill="midnightblue" stroke="midnightblue" points="542.67,-329.83 553.17,-328.37 544.05,-322.97 542.67,-329.83"/>
</g>
<!-- Node7 -->
<g id="node7" class="node">
<title>Node7</title>
<g id="a_node7"><a xlink:href="classMinimax.html#a5778877ae8f440f49730b743e1b4ce2a" target="_top" xlink:title="Evaluates chess board.">
<polygon fill="white" stroke="black" points="347,-211.38 347,-230.38 488,-230.38 488,-211.38 347,-211.38"/>
<text text-anchor="middle" x="417.5" y="-218.38" font-family="Helvetica,sans-Serif" font-size="10.00">Minimax::evaluate_board</text>
</a>
</g>
</g>
<!-- Node2&#45;&gt;Node7 -->
<g id="edge6" class="edge">
<title>Node2&#45;&gt;Node7</title>
<path fill="none" stroke="midnightblue" d="M311.03,-233.42C319.62,-232.4 328.36,-231.36 336.95,-230.34"/>
<polygon fill="midnightblue" stroke="midnightblue" points="337.42,-233.8 346.94,-229.15 336.59,-226.85 337.42,-233.8"/>
</g>
<!-- Node9 -->
<g id="node9" class="node">
<title>Node9</title>
<g id="a_node9"><a xlink:href="classMove.html#a3765dcce8a7c18e0c2f7ce42c98fa2ba" target="_top" xlink:title="Makes move with piece.">
<polygon fill="white" stroke="black" points="362.5,-107.38 362.5,-126.38 472.5,-126.38 472.5,-107.38 362.5,-107.38"/>
<text text-anchor="middle" x="417.5" y="-114.38" font-family="Helvetica,sans-Serif" font-size="10.00">Move::make_move</text>
</a>
</g>
</g>
<!-- Node2&#45;&gt;Node9 -->
<g id="edge8" class="edge">
<title>Node2&#45;&gt;Node9</title>
<path fill="none" stroke="midnightblue" d="M245.71,-233.2C277.67,-211.43 355.43,-158.47 394.01,-132.19"/>
<polygon fill="midnightblue" stroke="midnightblue" points="396.2,-134.94 402.5,-126.41 392.26,-129.15 396.2,-134.94"/>
</g>
<!-- Node15 -->
<g id="node15" class="node">
<title>Node15</title>
<g id="a_node15"><a xlink:href="classMove.html#afbed08d3294e3c7913dd27c3d6afd283" target="_top" xlink:title="Undo move.">
<polygon fill="white" stroke="black" points="364,-12.38 364,-31.38 471,-31.38 471,-12.38 364,-12.38"/>
<text text-anchor="middle" x="417.5" y="-19.38" font-family="Helvetica,sans-Serif" font-size="10.00">Move::undo_move</text>
</a>
</g>
</g>
<!-- Node2&#45;&gt;Node15 -->
<g id="edge17" class="edge">
<title>Node2&#45;&gt;Node15</title>
<path fill="none" stroke="midnightblue" d="M238.85,-233.19C256.81,-209.62 304.58,-147.56 347,-97.88 364.63,-77.22 385.8,-54.33 400.11,-39.12"/>
<polygon fill="midnightblue" stroke="midnightblue" points="402.96,-41.19 407.29,-31.52 397.87,-36.39 402.96,-41.19"/>
</g>
<!-- Node16 -->
<g id="node16" class="node">
<title>Node16</title>
<g id="a_node16"><a xlink:href="classValidate.html#afe077c5b0107ffc1c42670e233257b9c" target="_top" xlink:title="Validates move.">
<polygon fill="white" stroke="black" points="350,-252.38 350,-271.38 485,-271.38 485,-252.38 350,-252.38"/>
<text text-anchor="middle" x="417.5" y="-259.38" font-family="Helvetica,sans-Serif" font-size="10.00">Validate::validate_move</text>
</a>
</g>
</g>
<!-- Node2&#45;&gt;Node16 -->
<g id="edge20" class="edge">
<title>Node2&#45;&gt;Node16</title>
<path fill="none" stroke="midnightblue" d="M311.03,-251.04C320.52,-252.02 330.2,-253.01 339.66,-253.98"/>
<polygon fill="midnightblue" stroke="midnightblue" points="339.5,-257.49 349.81,-255.03 340.22,-250.52 339.5,-257.49"/>
</g>
<!-- Node4 -->
<g id="node4" class="node">
<title>Node4</title>
<g id="a_node4"><a xlink:href="classValidate.html#a3e4b7f61bff7ee9d7d839ead34d2d61f" target="_top" xlink:title="Checks if square is empty.">
<polygon fill="white" stroke="black" points="731.5,-394.38 731.5,-413.38 838.5,-413.38 838.5,-394.38 731.5,-394.38"/>
<text text-anchor="middle" x="785" y="-401.38" font-family="Helvetica,sans-Serif" font-size="10.00">Validate::is_empty</text>
</a>
</g>
</g>
<!-- Node3&#45;&gt;Node4 -->
<g id="edge3" class="edge">
<title>Node3&#45;&gt;Node4</title>
<path fill="none" stroke="midnightblue" d="M462.22,-370.42C526.65,-377.12 647.41,-389.67 721.27,-397.35"/>
<polygon fill="midnightblue" stroke="midnightblue" points="721.07,-400.85 731.37,-398.4 721.79,-393.89 721.07,-400.85"/>
</g>
<!-- Node5 -->
<g id="node5" class="node">
<title>Node5</title>
<g id="a_node5"><a xlink:href="classValidate.html#ab5ba0f592c1cd28a57deab9ef608f2df" target="_top" xlink:title="Checks if piece is same color as player.">
<polygon fill="white" stroke="black" points="719,-347.38 719,-366.38 851,-366.38 851,-347.38 719,-347.38"/>
<text text-anchor="middle" x="785" y="-354.38" font-family="Helvetica,sans-Serif" font-size="10.00">Validate::is_same_color</text>
</a>
</g>
</g>
<!-- Node3&#45;&gt;Node5 -->
<g id="edge4" class="edge">
<title>Node3&#45;&gt;Node5</title>
<path fill="none" stroke="midnightblue" d="M462.22,-364.8C523.12,-363.3 634.35,-360.56 708.73,-358.73"/>
<polygon fill="midnightblue" stroke="midnightblue" points="709.06,-362.22 718.97,-358.48 708.89,-355.22 709.06,-362.22"/>
</g>
<!-- Node3&#45;&gt;Node6 -->
<g id="edge5" class="edge">
<title>Node3&#45;&gt;Node6</title>
<path fill="none" stroke="midnightblue" d="M462.11,-359.24C482.38,-356.16 507.04,-352.4 529.99,-348.91"/>
<polygon fill="midnightblue" stroke="midnightblue" points="530.7,-352.34 540.06,-347.38 529.64,-345.42 530.7,-352.34"/>
</g>
<!-- Node8 -->
<g id="node8" class="node">
<title>Node8</title>
<g id="a_node8"><a xlink:href="classMinimax.html#a9af2102658fb3a93929462c13c7bfd90" target="_top" xlink:title="Gets piece&#39;s value.">
<polygon fill="white" stroke="black" points="547,-202.88 547,-232.88 660,-232.88 660,-202.88 547,-202.88"/>
<text text-anchor="start" x="555" y="-220.88" font-family="Helvetica,sans-Serif" font-size="10.00">Minimax::get_piece</text>
<text text-anchor="middle" x="603.5" y="-209.88" font-family="Helvetica,sans-Serif" font-size="10.00">_value</text>
</a>
</g>
</g>
<!-- Node7&#45;&gt;Node8 -->
<g id="edge7" class="edge">
<title>Node7&#45;&gt;Node8</title>
<path fill="none" stroke="midnightblue" d="M488.06,-219.74C504.01,-219.48 520.91,-219.21 536.69,-218.95"/>
<polygon fill="midnightblue" stroke="midnightblue" points="536.94,-222.45 546.88,-218.78 536.82,-215.45 536.94,-222.45"/>
</g>
<!-- Node10 -->
<g id="node10" class="node">
<title>Node10</title>
<g id="a_node10"><a xlink:href="classPlayer.html#a42e54e616455af5d9d4b6dea514ba7a0" target="_top" xlink:title="Checks player&#39;s pawn promotion.">
<polygon fill="white" stroke="black" points="541,-126.38 541,-145.38 666,-145.38 666,-126.38 541,-126.38"/>
<text text-anchor="middle" x="603.5" y="-133.38" font-family="Helvetica,sans-Serif" font-size="10.00">Player::get_promotion</text>
</a>
</g>
</g>
<!-- Node9&#45;&gt;Node10 -->
<g id="edge9" class="edge">
<title>Node9&#45;&gt;Node10</title>
<path fill="none" stroke="midnightblue" d="M472.71,-122.47C490.95,-124.36 511.58,-126.49 530.94,-128.49"/>
<polygon fill="midnightblue" stroke="midnightblue" points="530.62,-131.97 540.93,-129.52 531.34,-125.01 530.62,-131.97"/>
</g>
<!-- Node11 -->
<g id="node11" class="node">
<title>Node11</title>
<g id="a_node11"><a xlink:href="classMove.html#a5472b83ec6bcde0fd8c16c4508896ccd" target="_top" xlink:title="Handles casting.">
<polygon fill="white" stroke="black" points="540.5,-50.38 540.5,-69.38 666.5,-69.38 666.5,-50.38 540.5,-50.38"/>
<text text-anchor="middle" x="603.5" y="-57.38" font-family="Helvetica,sans-Serif" font-size="10.00">Move::handle_castling</text>
</a>
</g>
</g>
<!-- Node9&#45;&gt;Node11 -->
<g id="edge10" class="edge">
<title>Node9&#45;&gt;Node11</title>
<path fill="none" stroke="midnightblue" d="M442.56,-107.37C463.78,-99.18 495.66,-87.38 524,-78.88 532.2,-76.41 540.96,-74.04 549.55,-71.86"/>
<polygon fill="midnightblue" stroke="midnightblue" points="550.63,-75.2 559.5,-69.4 548.95,-68.41 550.63,-75.2"/>
</g>
<!-- Node12 -->
<g id="node12" class="node">
<title>Node12</title>
<g id="a_node12"><a xlink:href="classMove.html#a5a18864c15112c49e5a93dbee3f83d1c" target="_top" xlink:title="Moves piece from start to end.">
<polygon fill="white" stroke="black" points="730.5,-40.38 730.5,-59.38 839.5,-59.38 839.5,-40.38 730.5,-40.38"/>
<text text-anchor="middle" x="785" y="-47.38" font-family="Helvetica,sans-Serif" font-size="10.00">Move::move_piece</text>
</a>
</g>
</g>
<!-- Node9&#45;&gt;Node12 -->
<g id="edge12" class="edge">
<title>Node9&#45;&gt;Node12</title>
<path fill="none" stroke="midnightblue" d="M427.51,-107.23C444.44,-89.91 482.97,-54.12 524,-40.88 594.46,-18.14 681.3,-28.21 734.65,-38.4"/>
<polygon fill="midnightblue" stroke="midnightblue" points="734.04,-41.85 744.53,-40.36 735.4,-34.98 734.04,-41.85"/>
</g>
<!-- Node13 -->
<g id="node13" class="node">
<title>Node13</title>
<g id="a_node13"><a xlink:href="classMove.html#a9a242db5d52827dd11f81a6aa46e339e" target="_top" xlink:title="Handles pawn promotion.">
<polygon fill="white" stroke="black" points="553.5,-88.38 553.5,-107.38 653.5,-107.38 653.5,-88.38 553.5,-88.38"/>
<text text-anchor="middle" x="603.5" y="-95.38" font-family="Helvetica,sans-Serif" font-size="10.00">Move::promotion</text>
</a>
</g>
</g>
<!-- Node9&#45;&gt;Node13 -->
<g id="edge13" class="edge">
<title>Node9&#45;&gt;Node13</title>
<path fill="none" stroke="midnightblue" d="M472.71,-111.28C494.87,-108.99 520.56,-106.34 543.21,-104"/>
<polygon fill="midnightblue" stroke="midnightblue" points="543.79,-107.46 553.38,-102.95 543.07,-100.49 543.79,-107.46"/>
</g>
<!-- Node14 -->
<g id="node14" class="node">
<title>Node14</title>
<g id="a_node14"><a xlink:href="classPlayer.html#a620bf4cb1907eafdbcd9252a750ffa8f" target="_top" xlink:title="Update piece&#39;s position on chess board.">
<polygon fill="white" stroke="black" points="723,-97.38 723,-116.38 847,-116.38 847,-97.38 723,-97.38"/>
<text text-anchor="middle" x="785" y="-104.38" font-family="Helvetica,sans-Serif" font-size="10.00">Player::update_pieces</text>
</a>
</g>
</g>
<!-- Node9&#45;&gt;Node14 -->
<g id="edge16" class="edge">
<title>Node9&#45;&gt;Node14</title>
<path fill="none" stroke="midnightblue" d="M438.55,-126.46C459.36,-135.84 493.12,-149.48 524,-154.88 593.61,-167.03 614.06,-170.42 683,-154.88 711.28,-148.5 740.94,-133.22 760.74,-121.61"/>
<polygon fill="midnightblue" stroke="midnightblue" points="762.61,-124.57 769.37,-116.41 758.99,-118.57 762.61,-124.57"/>
</g>
<!-- Node11&#45;&gt;Node12 -->
<g id="edge11" class="edge">
<title>Node11&#45;&gt;Node12</title>
<path fill="none" stroke="midnightblue" d="M666.53,-56.42C683.89,-55.45 702.79,-54.4 720.26,-53.43"/>
<polygon fill="midnightblue" stroke="midnightblue" points="720.56,-56.92 730.35,-52.86 720.17,-49.93 720.56,-56.92"/>
</g>
<!-- Node13&#45;&gt;Node12 -->
<g id="edge14" class="edge">
<title>Node13&#45;&gt;Node12</title>
<path fill="none" stroke="midnightblue" d="M645.33,-88.34C657.48,-85.41 670.8,-82.1 683,-78.88 702.49,-73.72 723.98,-67.61 742.11,-62.33"/>
<polygon fill="midnightblue" stroke="midnightblue" points="743.19,-65.66 751.8,-59.5 741.22,-58.95 743.19,-65.66"/>
</g>
<!-- Node13&#45;&gt;Node14 -->
<g id="edge15" class="edge">
<title>Node13&#45;&gt;Node14</title>
<path fill="none" stroke="midnightblue" d="M653.55,-100.33C671.76,-101.25 692.8,-102.3 712.6,-103.3"/>
<polygon fill="midnightblue" stroke="midnightblue" points="712.66,-106.8 722.82,-103.81 713.01,-99.81 712.66,-106.8"/>
</g>
<!-- Node15&#45;&gt;Node12 -->
<g id="edge18" class="edge">
<title>Node15&#45;&gt;Node12</title>
<path fill="none" stroke="midnightblue" d="M465.83,-12.36C519.15,-3.25 608.14,7.07 683,-7.88 709.57,-13.18 737.89,-25.61 757.76,-35.59"/>
<polygon fill="midnightblue" stroke="midnightblue" points="756.3,-38.77 766.79,-40.24 759.51,-32.55 756.3,-38.77"/>
</g>
<!-- Node17 -->
<g id="node17" class="node">
<title>Node17</title>
<g id="a_node17"><a xlink:href="classValidate.html#ac11fdbf661a340f903a8a8b581710c34" target="_top" xlink:title="Finds all possible moves for piece.">
<polygon fill="white" stroke="black" points="524,-290.38 524,-309.38 683,-309.38 683,-290.38 524,-290.38"/>
<text text-anchor="middle" x="603.5" y="-297.38" font-family="Helvetica,sans-Serif" font-size="10.00">Validate::find_possible_move</text>
</a>
</g>
</g>
<!-- Node16&#45;&gt;Node17 -->
<g id="edge21" class="edge">
<title>Node16&#45;&gt;Node17</title>
<path fill="none" stroke="midnightblue" d="M464.93,-271.46C489.65,-276.57 520.24,-282.89 546.29,-288.27"/>
<polygon fill="midnightblue" stroke="midnightblue" points="545.9,-291.76 556.4,-290.36 547.32,-284.91 545.9,-291.76"/>
</g>
<!-- Node19 -->
<g id="node19" class="node">
<title>Node19</title>
<g id="a_node19"><a xlink:href="classValidate.html#a6c88b44fd5d40b6aba0812e2d23d8f04" target="_top" xlink:title="Checks if castling is valid.">
<polygon fill="white" stroke="black" points="538.5,-252.38 538.5,-271.38 668.5,-271.38 668.5,-252.38 538.5,-252.38"/>
<text text-anchor="middle" x="603.5" y="-259.38" font-family="Helvetica,sans-Serif" font-size="10.00">Validate::valid_castling</text>
</a>
</g>
</g>
<!-- Node16&#45;&gt;Node19 -->
<g id="edge25" class="edge">
<title>Node16&#45;&gt;Node19</title>
<path fill="none" stroke="midnightblue" d="M485.19,-261.88C499.17,-261.88 514.01,-261.88 528.25,-261.88"/>
<polygon fill="midnightblue" stroke="midnightblue" points="528.5,-265.38 538.5,-261.88 528.5,-258.38 528.5,-265.38"/>
</g>
<!-- Node17&#45;&gt;Node4 -->
<g id="edge23" class="edge">
<title>Node17&#45;&gt;Node4</title>
<path fill="none" stroke="midnightblue" d="M665.33,-309.51C671.61,-311.96 677.65,-315.03 683,-318.88 707.34,-336.35 696.22,-356.41 719,-375.88 725.79,-381.68 733.96,-386.44 742.18,-390.29"/>
<polygon fill="midnightblue" stroke="midnightblue" points="740.84,-393.52 751.41,-394.25 743.6,-387.09 740.84,-393.52"/>
</g>
<!-- Node17&#45;&gt;Node5 -->
<g id="edge24" class="edge">
<title>Node17&#45;&gt;Node5</title>
<path fill="none" stroke="midnightblue" d="M647.95,-309.39C659.42,-312.17 671.74,-315.41 683,-318.88 706.28,-326.04 731.97,-335.73 751.61,-343.53"/>
<polygon fill="midnightblue" stroke="midnightblue" points="750.43,-346.83 761.01,-347.31 753.03,-340.33 750.43,-346.83"/>
</g>
<!-- Node18 -->
<g id="node18" class="node">
<title>Node18</title>
<g id="a_node18"><a xlink:href="classValidate.html#aa7766a323b9443c69e62a05d04f0b217" target="_top" xlink:title="Finds if move is legit.">
<polygon fill="white" stroke="black" points="728.5,-290.38 728.5,-309.38 841.5,-309.38 841.5,-290.38 728.5,-290.38"/>
<text text-anchor="middle" x="785" y="-297.38" font-family="Helvetica,sans-Serif" font-size="10.00">Validate::find_move</text>
</a>
</g>
</g>
<!-- Node17&#45;&gt;Node18 -->
<g id="edge22" class="edge">
<title>Node17&#45;&gt;Node18</title>
<path fill="none" stroke="midnightblue" d="M683.23,-299.88C694.84,-299.88 706.7,-299.88 718.02,-299.88"/>
<polygon fill="midnightblue" stroke="midnightblue" points="718.24,-303.38 728.24,-299.88 718.24,-296.38 718.24,-303.38"/>
</g>
</g>
</svg>
