<?xml version="1.0" encoding="UTF-8" standalone="no"?>
<!DOCTYPE svg PUBLIC "-//W3C//DTD SVG 1.1//EN"
 "http://www.w3.org/Graphics/SVG/1.1/DTD/svg11.dtd">
<!-- Generated by graphviz version 2.43.0 (0)
 -->
<!-- Title: Move::make_move Pages: 1 -->
<svg width="1158pt" height="241pt"
 viewBox="0.00 0.00 1158.00 240.50" xmlns="http://www.w3.org/2000/svg" xmlns:xlink="http://www.w3.org/1999/xlink">
<g id="graph0" class="graph" transform="scale(1 1) rotate(0) translate(4 236.5)">
<title>Move::make_move</title>
<polygon fill="white" stroke="transparent" points="-4,4 -4,-236.5 1154,-236.5 1154,4 -4,4"/>
<!-- Node1 -->
<g id="node1" class="node">
<title>Node1</title>
<g id="a_node1"><a xlink:title="Makes move with piece.">
<polygon fill="#bfbfbf" stroke="black" points="1040,-99 1040,-118 1150,-118 1150,-99 1040,-99"/>
<text text-anchor="middle" x="1095" y="-106" font-family="Helvetica,sans-Serif" font-size="10.00">Move::make_move</text>
</a>
</g>
</g>
<!-- Node2 -->
<g id="node2" class="node">
<title>Node2</title>
<g id="a_node2"><a xlink:href="classRules.html#a4ec21c1bd51c73135ed26eafa0da58d3" target="_top" xlink:title="Checks if king is in checkmate.">
<polygon fill="white" stroke="black" points="871.5,-175 871.5,-194 975.5,-194 975.5,-175 871.5,-175"/>
<text text-anchor="middle" x="923.5" y="-182" font-family="Helvetica,sans-Serif" font-size="10.00">Rules::checkmate</text>
</a>
</g>
</g>
<!-- Node1&#45;&gt;Node2 -->
<g id="edge1" class="edge">
<title>Node1&#45;&gt;Node2</title>
<path fill="none" stroke="midnightblue" d="M1071.37,-123.54C1053.61,-134.85 1027.97,-150.12 1004,-160.5 990.9,-166.17 976.04,-171.04 962.75,-174.89"/>
<polygon fill="midnightblue" stroke="midnightblue" points="1073.39,-126.41 1079.88,-118.04 1069.59,-120.53 1073.39,-126.41"/>
</g>
<!-- Node3 -->
<g id="node3" class="node">
<title>Node3</title>
<g id="a_node3"><a xlink:href="classApplication.html#a162a3f466352b474a10516c7f0b0ae9a" target="_top" xlink:title=" ">
<polygon fill="white" stroke="black" points="676,-156 676,-175 807,-175 807,-156 676,-156"/>
<text text-anchor="middle" x="741.5" y="-163" font-family="Helvetica,sans-Serif" font-size="10.00">Application::play_move</text>
</a>
</g>
</g>
<!-- Node1&#45;&gt;Node3 -->
<g id="edge16" class="edge">
<title>Node1&#45;&gt;Node3</title>
<path fill="none" stroke="midnightblue" d="M1041.45,-120.18C1029.19,-122.74 1016.16,-125.34 1004,-127.5 937.15,-139.4 860.2,-150.24 807.16,-157.27"/>
<polygon fill="midnightblue" stroke="midnightblue" points="1042.47,-123.54 1051.53,-118.05 1041.02,-116.69 1042.47,-123.54"/>
</g>
<!-- Node13 -->
<g id="node13" class="node">
<title>Node13</title>
<g id="a_node13"><a xlink:href="classMinimax.html#ad75b36d8718f9ad30bb921a483413b1f" target="_top" xlink:title="Minimax algorithm.">
<polygon fill="white" stroke="black" points="843,-99 843,-118 1004,-118 1004,-99 843,-99"/>
<text text-anchor="middle" x="923.5" y="-106" font-family="Helvetica,sans-Serif" font-size="10.00">Minimax::minimax_algorithm</text>
</a>
</g>
</g>
<!-- Node1&#45;&gt;Node13 -->
<g id="edge14" class="edge">
<title>Node1&#45;&gt;Node13</title>
<path fill="none" stroke="midnightblue" d="M1029.8,-108.5C1021.38,-108.5 1012.67,-108.5 1004.03,-108.5"/>
<polygon fill="midnightblue" stroke="midnightblue" points="1029.9,-112 1039.9,-108.5 1029.9,-105 1029.9,-112"/>
</g>
<!-- Node15 -->
<g id="node15" class="node">
<title>Node15</title>
<g id="a_node15"><a xlink:href="classCustom__AI.html#a6d5240fd3f5919086dc0bb74aa02329a" target="_top" xlink:title="Counts all moves for all pieces.">
<polygon fill="white" stroke="black" points="865.5,-49.5 865.5,-79.5 981.5,-79.5 981.5,-49.5 865.5,-49.5"/>
<text text-anchor="start" x="873.5" y="-67.5" font-family="Helvetica,sans-Serif" font-size="10.00">Custom_AI::possible</text>
<text text-anchor="middle" x="923.5" y="-56.5" font-family="Helvetica,sans-Serif" font-size="10.00">_pieces_and_moves</text>
</a>
</g>
</g>
<!-- Node1&#45;&gt;Node15 -->
<g id="edge17" class="edge">
<title>Node1&#45;&gt;Node15</title>
<path fill="none" stroke="midnightblue" d="M1047.54,-96.44C1027.15,-91.15 1003.01,-84.88 981.54,-79.31"/>
<polygon fill="midnightblue" stroke="midnightblue" points="1046.66,-99.83 1057.22,-98.95 1048.42,-93.05 1046.66,-99.83"/>
</g>
<!-- Node17 -->
<g id="node17" class="node">
<title>Node17</title>
<g id="a_node17"><a xlink:href="classCustom__AI2.html#a7a3ac6cf87a8dd5c0ebabd4281bb6615" target="_top" xlink:title="Counts all moves for all pieces.">
<polygon fill="white" stroke="black" points="862.5,-0.5 862.5,-30.5 984.5,-30.5 984.5,-0.5 862.5,-0.5"/>
<text text-anchor="start" x="870.5" y="-18.5" font-family="Helvetica,sans-Serif" font-size="10.00">Custom_AI2::possible</text>
<text text-anchor="middle" x="923.5" y="-7.5" font-family="Helvetica,sans-Serif" font-size="10.00">_pieces_and_moves</text>
</a>
</g>
</g>
<!-- Node1&#45;&gt;Node17 -->
<g id="edge19" class="edge">
<title>Node1&#45;&gt;Node17</title>
<path fill="none" stroke="midnightblue" d="M1076.1,-92C1058.78,-76.8 1031.23,-54.53 1004,-40.5 996.8,-36.79 988.94,-33.5 981.06,-30.64"/>
<polygon fill="midnightblue" stroke="midnightblue" points="1073.94,-94.77 1083.73,-98.83 1078.61,-89.56 1073.94,-94.77"/>
</g>
<!-- Node2&#45;&gt;Node3 -->
<g id="edge2" class="edge">
<title>Node2&#45;&gt;Node3</title>
<path fill="none" stroke="midnightblue" d="M861.35,-178.04C843.91,-176.2 824.87,-174.19 807.23,-172.33"/>
<polygon fill="midnightblue" stroke="midnightblue" points="861.09,-181.54 871.4,-179.11 861.82,-174.58 861.09,-181.54"/>
</g>
<!-- Node4 -->
<g id="node4" class="node">
<title>Node4</title>
<g id="a_node4"><a xlink:href="classApplication.html#a50559888cd4196c7cda01e0a432d609f" target="_top" xlink:title="Changes turn of game.">
<polygon fill="white" stroke="black" points="527,-150.5 527,-180.5 640,-180.5 640,-150.5 527,-150.5"/>
<text text-anchor="start" x="535" y="-168.5" font-family="Helvetica,sans-Serif" font-size="10.00">Application::change</text>
<text text-anchor="middle" x="583.5" y="-157.5" font-family="Helvetica,sans-Serif" font-size="10.00">_turns</text>
</a>
</g>
</g>
<!-- Node3&#45;&gt;Node4 -->
<g id="edge3" class="edge">
<title>Node3&#45;&gt;Node4</title>
<path fill="none" stroke="midnightblue" d="M665.46,-165.5C657.02,-165.5 648.54,-165.5 640.41,-165.5"/>
<polygon fill="midnightblue" stroke="midnightblue" points="665.7,-169 675.7,-165.5 665.7,-162 665.7,-169"/>
</g>
<!-- Node5 -->
<g id="node5" class="node">
<title>Node5</title>
<g id="a_node5"><a xlink:href="classApplication.html#aa0cd4150071d630bd7b1f067878f00cd" target="_top" xlink:title="Starts and handles game.">
<polygon fill="white" stroke="black" points="386,-156 386,-175 491,-175 491,-156 386,-156"/>
<text text-anchor="middle" x="438.5" y="-163" font-family="Helvetica,sans-Serif" font-size="10.00">Application::game</text>
</a>
</g>
</g>
<!-- Node4&#45;&gt;Node5 -->
<g id="edge4" class="edge">
<title>Node4&#45;&gt;Node5</title>
<path fill="none" stroke="midnightblue" d="M516.77,-165.5C508.15,-165.5 499.41,-165.5 491.07,-165.5"/>
<polygon fill="midnightblue" stroke="midnightblue" points="516.8,-169 526.8,-165.5 516.8,-162 516.8,-169"/>
</g>
<!-- Node6 -->
<g id="node6" class="node">
<title>Node6</title>
<g id="a_node6"><a xlink:href="classMenu.html#ac90e451d94eb82769cf58eea174667be" target="_top" xlink:title="Load game.">
<polygon fill="white" stroke="black" points="237,-213 237,-232 341,-232 341,-213 237,-213"/>
<text text-anchor="middle" x="289" y="-220" font-family="Helvetica,sans-Serif" font-size="10.00">Menu::load_game</text>
</a>
</g>
</g>
<!-- Node5&#45;&gt;Node6 -->
<g id="edge5" class="edge">
<title>Node5&#45;&gt;Node6</title>
<path fill="none" stroke="midnightblue" d="M407.93,-179.24C391.12,-186.83 369.58,-196.17 350,-203.5 341.1,-206.83 331.32,-210.09 322.28,-212.95"/>
<polygon fill="midnightblue" stroke="midnightblue" points="409.58,-182.34 417.24,-175.01 406.68,-175.97 409.58,-182.34"/>
</g>
<!-- Node9 -->
<g id="node9" class="node">
<title>Node9</title>
<g id="a_node9"><a xlink:href="classMenu.html#a196d4b882280b81c81409beb8a1a6780" target="_top" xlink:title="Starts game with AI.">
<polygon fill="white" stroke="black" points="229,-175 229,-194 349,-194 349,-175 229,-175"/>
<text text-anchor="middle" x="289" y="-182" font-family="Helvetica,sans-Serif" font-size="10.00">Menu::start_AI_game</text>
</a>
</g>
</g>
<!-- Node5&#45;&gt;Node9 -->
<g id="edge8" class="edge">
<title>Node5&#45;&gt;Node9</title>
<path fill="none" stroke="midnightblue" d="M375.72,-173.46C366.92,-174.59 357.88,-175.76 349.13,-176.88"/>
<polygon fill="midnightblue" stroke="midnightblue" points="376.44,-176.89 385.91,-172.15 375.55,-169.95 376.44,-176.89"/>
</g>
<!-- Node10 -->
<g id="node10" class="node">
<title>Node10</title>
<g id="a_node10"><a xlink:href="classMenu.html#a4e25526f20b92932d0adf9a489356dac" target="_top" xlink:title="Starts game with 2 human players.">
<polygon fill="white" stroke="black" points="236.5,-137 236.5,-156 341.5,-156 341.5,-137 236.5,-137"/>
<text text-anchor="middle" x="289" y="-144" font-family="Helvetica,sans-Serif" font-size="10.00">Menu::start_game</text>
</a>
</g>
</g>
<!-- Node5&#45;&gt;Node10 -->
<g id="edge10" class="edge">
<title>Node5&#45;&gt;Node10</title>
<path fill="none" stroke="midnightblue" d="M375.69,-157.54C364.42,-156.09 352.76,-154.58 341.81,-153.17"/>
<polygon fill="midnightblue" stroke="midnightblue" points="375.55,-161.05 385.91,-158.85 376.44,-154.11 375.55,-161.05"/>
</g>
<!-- Node11 -->
<g id="node11" class="node">
<title>Node11</title>
<g id="a_node11"><a xlink:href="classTutorial.html#ad4a5c074281c25791323e984dba390f2" target="_top" xlink:title="Start tutorial.">
<polygon fill="white" stroke="black" points="228,-99 228,-118 350,-118 350,-99 228,-99"/>
<text text-anchor="middle" x="289" y="-106" font-family="Helvetica,sans-Serif" font-size="10.00">Tutorial::start_tutorial</text>
</a>
</g>
</g>
<!-- Node5&#45;&gt;Node11 -->
<g id="edge12" class="edge">
<title>Node5&#45;&gt;Node11</title>
<path fill="none" stroke="midnightblue" d="M407.93,-151.76C391.12,-144.17 369.58,-134.83 350,-127.5 341.1,-124.17 331.32,-120.91 322.28,-118.05"/>
<polygon fill="midnightblue" stroke="midnightblue" points="406.68,-155.03 417.24,-155.99 409.58,-148.66 406.68,-155.03"/>
</g>
<!-- Node7 -->
<g id="node7" class="node">
<title>Node7</title>
<g id="a_node7"><a xlink:href="classMenu.html#a35656cd130e24d69383a5c9d0a73a38c" target="_top" xlink:title="Runs menu.">
<polygon fill="white" stroke="black" points="102,-175 102,-194 167,-194 167,-175 102,-175"/>
<text text-anchor="middle" x="134.5" y="-182" font-family="Helvetica,sans-Serif" font-size="10.00">Menu::run</text>
</a>
</g>
</g>
<!-- Node6&#45;&gt;Node7 -->
<g id="edge6" class="edge">
<title>Node6&#45;&gt;Node7</title>
<path fill="none" stroke="midnightblue" d="M239.67,-210.46C216.02,-204.56 188.22,-197.64 167.28,-192.42"/>
<polygon fill="midnightblue" stroke="midnightblue" points="238.97,-213.89 249.52,-212.91 240.66,-207.1 238.97,-213.89"/>
</g>
<!-- Node8 -->
<g id="node8" class="node">
<title>Node8</title>
<g id="a_node8"><a xlink:href="main_8cpp.html#ae66f6b31b5ad750f1fe042a706a4e3d4" target="_top" xlink:title=" ">
<polygon fill="white" stroke="black" points="0,-175 0,-194 41,-194 41,-175 0,-175"/>
<text text-anchor="middle" x="20.5" y="-182" font-family="Helvetica,sans-Serif" font-size="10.00">main</text>
</a>
</g>
</g>
<!-- Node7&#45;&gt;Node8 -->
<g id="edge7" class="edge">
<title>Node7&#45;&gt;Node8</title>
<path fill="none" stroke="midnightblue" d="M91.27,-184.5C74.01,-184.5 54.9,-184.5 41.05,-184.5"/>
<polygon fill="midnightblue" stroke="midnightblue" points="91.7,-188 101.7,-184.5 91.7,-181 91.7,-188"/>
</g>
<!-- Node9&#45;&gt;Node7 -->
<g id="edge9" class="edge">
<title>Node9&#45;&gt;Node7</title>
<path fill="none" stroke="midnightblue" d="M218.2,-184.5C200.38,-184.5 182.1,-184.5 167.26,-184.5"/>
<polygon fill="midnightblue" stroke="midnightblue" points="218.6,-188 228.6,-184.5 218.6,-181 218.6,-188"/>
</g>
<!-- Node10&#45;&gt;Node7 -->
<g id="edge11" class="edge">
<title>Node10&#45;&gt;Node7</title>
<path fill="none" stroke="midnightblue" d="M239.67,-158.54C216.02,-164.44 188.22,-171.36 167.28,-176.58"/>
<polygon fill="midnightblue" stroke="midnightblue" points="240.66,-161.9 249.52,-156.09 238.97,-155.11 240.66,-161.9"/>
</g>
<!-- Node12 -->
<g id="node12" class="node">
<title>Node12</title>
<g id="a_node12"><a xlink:href="classTutorial.html#a42acfd364d5d606318eda4b733c973da" target="_top" xlink:title="Runs tutorial.">
<polygon fill="white" stroke="black" points="77,-99 77,-118 192,-118 192,-99 77,-99"/>
<text text-anchor="middle" x="134.5" y="-106" font-family="Helvetica,sans-Serif" font-size="10.00">Tutorial::run_tutorial</text>
</a>
</g>
</g>
<!-- Node11&#45;&gt;Node12 -->
<g id="edge13" class="edge">
<title>Node11&#45;&gt;Node12</title>
<path fill="none" stroke="midnightblue" d="M217.52,-108.5C209.09,-108.5 200.56,-108.5 192.35,-108.5"/>
<polygon fill="midnightblue" stroke="midnightblue" points="217.73,-112 227.73,-108.5 217.73,-105 217.73,-112"/>
</g>
<!-- Node14 -->
<g id="node14" class="node">
<title>Node14</title>
<g id="a_node14"><a xlink:href="classMinimax.html#af45948f65043449d3c4cfb6c4bbf8251" target="_top" xlink:title="Gets player&#39;s move.">
<polygon fill="white" stroke="black" points="684.5,-99 684.5,-118 798.5,-118 798.5,-99 684.5,-99"/>
<text text-anchor="middle" x="741.5" y="-106" font-family="Helvetica,sans-Serif" font-size="10.00">Minimax::get_move</text>
</a>
</g>
</g>
<!-- Node13&#45;&gt;Node14 -->
<g id="edge15" class="edge">
<title>Node13&#45;&gt;Node14</title>
<path fill="none" stroke="midnightblue" d="M832.63,-108.5C821.07,-108.5 809.51,-108.5 798.7,-108.5"/>
<polygon fill="midnightblue" stroke="midnightblue" points="832.76,-112 842.76,-108.5 832.76,-105 832.76,-112"/>
</g>
<!-- Node16 -->
<g id="node16" class="node">
<title>Node16</title>
<g id="a_node16"><a xlink:href="classCustom__AI.html#a29f2c8e38303a9c721307e87d3f385ff" target="_top" xlink:title="Gets player&#39;s move.">
<polygon fill="white" stroke="black" points="679.5,-55 679.5,-74 803.5,-74 803.5,-55 679.5,-55"/>
<text text-anchor="middle" x="741.5" y="-62" font-family="Helvetica,sans-Serif" font-size="10.00">Custom_AI::get_move</text>
</a>
</g>
</g>
<!-- Node15&#45;&gt;Node16 -->
<g id="edge18" class="edge">
<title>Node15&#45;&gt;Node16</title>
<path fill="none" stroke="midnightblue" d="M854.78,-64.5C838.03,-64.5 820.18,-64.5 803.75,-64.5"/>
<polygon fill="midnightblue" stroke="midnightblue" points="855.05,-68 865.05,-64.5 855.05,-61 855.05,-68"/>
</g>
<!-- Node18 -->
<g id="node18" class="node">
<title>Node18</title>
<g id="a_node18"><a xlink:href="classCustom__AI2.html#ac5acf2591290121ce91b25c97a6ff96c" target="_top" xlink:title="Gets player&#39;s move.">
<polygon fill="white" stroke="black" points="676.5,-6 676.5,-25 806.5,-25 806.5,-6 676.5,-6"/>
<text text-anchor="middle" x="741.5" y="-13" font-family="Helvetica,sans-Serif" font-size="10.00">Custom_AI2::get_move</text>
</a>
</g>
</g>
<!-- Node17&#45;&gt;Node18 -->
<g id="edge20" class="edge">
<title>Node17&#45;&gt;Node18</title>
<path fill="none" stroke="midnightblue" d="M852.09,-15.5C837.11,-15.5 821.37,-15.5 806.64,-15.5"/>
<polygon fill="midnightblue" stroke="midnightblue" points="852.31,-19 862.31,-15.5 852.31,-12 852.31,-19"/>
</g>
</g>
</svg>
