<?xml version="1.0" encoding="UTF-8" standalone="no"?>
<!DOCTYPE svg PUBLIC "-//W3C//DTD SVG 1.1//EN"
 "http://www.w3.org/Graphics/SVG/1.1/DTD/svg11.dtd">
<!-- Generated by graphviz version 2.43.0 (0)
 -->
<!-- Title: HumanPlayer::get_move Pages: 1 -->
<svg width="487pt" height="78pt"
 viewBox="0.00 0.00 487.00 77.50" xmlns="http://www.w3.org/2000/svg" xmlns:xlink="http://www.w3.org/1999/xlink">
<g id="graph0" class="graph" transform="scale(1 1) rotate(0) translate(4 73.5)">
<title>HumanPlayer::get_move</title>
<polygon fill="white" stroke="transparent" points="-4,4 -4,-73.5 483,-73.5 483,4 -4,4"/>
<!-- Node1 -->
<g id="node1" class="node">
<title>Node1</title>
<g id="a_node1"><a xlink:title="Gets player&#39;s move.">
<polygon fill="#bfbfbf" stroke="black" points="0,-28 0,-47 137,-47 137,-28 0,-28"/>
<text text-anchor="middle" x="68.5" y="-35" font-family="Helvetica,sans-Serif" font-size="10.00">HumanPlayer::get_move</text>
</a>
</g>
</g>
<!-- Node2 -->
<g id="node2" class="node">
<title>Node2</title>
<g id="a_node2"><a xlink:href="classInput__handler.html#a7752e2dfcba0db40b9bca5398c3d0d43" target="_top" xlink:title="Extract input.">
<polygon fill="white" stroke="black" points="173,-22.5 173,-52.5 297,-52.5 297,-22.5 173,-22.5"/>
<text text-anchor="start" x="181" y="-40.5" font-family="Helvetica,sans-Serif" font-size="10.00">Input_handler::extract</text>
<text text-anchor="middle" x="235" y="-29.5" font-family="Helvetica,sans-Serif" font-size="10.00">_input</text>
</a>
</g>
</g>
<!-- Node1&#45;&gt;Node2 -->
<g id="edge1" class="edge">
<title>Node1&#45;&gt;Node2</title>
<path fill="none" stroke="midnightblue" d="M137.36,-37.5C145.73,-37.5 154.3,-37.5 162.72,-37.5"/>
<polygon fill="midnightblue" stroke="midnightblue" points="162.88,-41 172.88,-37.5 162.88,-34 162.88,-41"/>
</g>
<!-- Node3 -->
<g id="node3" class="node">
<title>Node3</title>
<g id="a_node3"><a xlink:href="classInput__handler.html#aeee21ed8a9cdd37b4f39c530e7d2ca15" target="_top" xlink:title="Checks if char is &lt;0, 8&gt;">
<polygon fill="white" stroke="black" points="337.5,-50 337.5,-69 474.5,-69 474.5,-50 337.5,-50"/>
<text text-anchor="middle" x="406" y="-57" font-family="Helvetica,sans-Serif" font-size="10.00">Input_handler::check_col</text>
</a>
</g>
</g>
<!-- Node2&#45;&gt;Node3 -->
<g id="edge2" class="edge">
<title>Node2&#45;&gt;Node3</title>
<path fill="none" stroke="midnightblue" d="M297.01,-45.44C306.87,-46.73 317.19,-48.07 327.37,-49.39"/>
<polygon fill="midnightblue" stroke="midnightblue" points="327.13,-52.89 337.49,-50.71 328.03,-45.95 327.13,-52.89"/>
</g>
<!-- Node4 -->
<g id="node4" class="node">
<title>Node4</title>
<g id="a_node4"><a xlink:href="classInput__handler.html#ae6cc6114be79e000f8a6f7156198e0f4" target="_top" xlink:title="Converts char to int.">
<polygon fill="white" stroke="black" points="333,-0.5 333,-30.5 479,-30.5 479,-0.5 333,-0.5"/>
<text text-anchor="start" x="341" y="-18.5" font-family="Helvetica,sans-Serif" font-size="10.00">Input_handler::coordinates</text>
<text text-anchor="middle" x="406" y="-7.5" font-family="Helvetica,sans-Serif" font-size="10.00">_to_int</text>
</a>
</g>
</g>
<!-- Node2&#45;&gt;Node4 -->
<g id="edge3" class="edge">
<title>Node2&#45;&gt;Node4</title>
<path fill="none" stroke="midnightblue" d="M297.01,-29.56C305.37,-28.47 314.06,-27.34 322.72,-26.21"/>
<polygon fill="midnightblue" stroke="midnightblue" points="323.39,-29.65 332.85,-24.89 322.49,-22.71 323.39,-29.65"/>
</g>
</g>
</svg>
