<?xml version="1.0" encoding="UTF-8" standalone="no"?>
<!DOCTYPE svg PUBLIC "-//W3C//DTD SVG 1.1//EN"
 "http://www.w3.org/Graphics/SVG/1.1/DTD/svg11.dtd">
<!-- Generated by graphviz version 2.43.0 (0)
 -->
<!-- Title: File_manager::list_directory Pages: 1 -->
<svg width="807pt" height="142pt"
 viewBox="0.00 0.00 807.00 142.00" xmlns="http://www.w3.org/2000/svg" xmlns:xlink="http://www.w3.org/1999/xlink">
<g id="graph0" class="graph" transform="scale(1 1) rotate(0) translate(4 138)">
<title>File_manager::list_directory</title>
<polygon fill="white" stroke="transparent" points="-4,4 -4,-138 803,-138 803,4 -4,4"/>
<!-- Node1 -->
<g id="node1" class="node">
<title>Node1</title>
<g id="a_node1"><a xlink:title="List all files in directory.">
<polygon fill="#bfbfbf" stroke="black" points="695,-90 695,-120 799,-120 799,-90 695,-90"/>
<text text-anchor="start" x="703" y="-108" font-family="Helvetica,sans-Serif" font-size="10.00">File_manager::list</text>
<text text-anchor="middle" x="747" y="-97" font-family="Helvetica,sans-Serif" font-size="10.00">_directory</text>
</a>
</g>
</g>
<!-- Node2 -->
<g id="node2" class="node">
<title>Node2</title>
<g id="a_node2"><a xlink:href="classMenu.html#ac90e451d94eb82769cf58eea174667be" target="_top" xlink:title="Load game.">
<polygon fill="white" stroke="black" points="237,-114.5 237,-133.5 341,-133.5 341,-114.5 237,-114.5"/>
<text text-anchor="middle" x="289" y="-121.5" font-family="Helvetica,sans-Serif" font-size="10.00">Menu::load_game</text>
</a>
</g>
</g>
<!-- Node1&#45;&gt;Node2 -->
<g id="edge1" class="edge">
<title>Node1&#45;&gt;Node2</title>
<path fill="none" stroke="midnightblue" d="M684.44,-107.57C593.69,-111.35 425.66,-118.35 341.23,-121.87"/>
<polygon fill="midnightblue" stroke="midnightblue" points="684.73,-111.06 694.58,-107.14 684.44,-104.06 684.73,-111.06"/>
</g>
<!-- Node5 -->
<g id="node5" class="node">
<title>Node5</title>
<g id="a_node5"><a xlink:href="classFile__manager.html#a0b0b101cb1941cba0e51a2c6dea0919b" target="_top" xlink:title="Saves file.">
<polygon fill="white" stroke="black" points="527,-76.5 527,-95.5 659,-95.5 659,-76.5 527,-76.5"/>
<text text-anchor="middle" x="593" y="-83.5" font-family="Helvetica,sans-Serif" font-size="10.00">File_manager::save_file</text>
</a>
</g>
</g>
<!-- Node1&#45;&gt;Node5 -->
<g id="edge4" class="edge">
<title>Node1&#45;&gt;Node5</title>
<path fill="none" stroke="midnightblue" d="M684.83,-97.35C676.4,-96.3 667.71,-95.21 659.21,-94.15"/>
<polygon fill="midnightblue" stroke="midnightblue" points="684.61,-100.85 694.96,-98.62 685.47,-93.91 684.61,-100.85"/>
</g>
<!-- Node3 -->
<g id="node3" class="node">
<title>Node3</title>
<g id="a_node3"><a xlink:href="classMenu.html#a35656cd130e24d69383a5c9d0a73a38c" target="_top" xlink:title="Runs menu.">
<polygon fill="white" stroke="black" points="102,-76.5 102,-95.5 167,-95.5 167,-76.5 102,-76.5"/>
<text text-anchor="middle" x="134.5" y="-83.5" font-family="Helvetica,sans-Serif" font-size="10.00">Menu::run</text>
</a>
</g>
</g>
<!-- Node2&#45;&gt;Node3 -->
<g id="edge2" class="edge">
<title>Node2&#45;&gt;Node3</title>
<path fill="none" stroke="midnightblue" d="M239.67,-111.96C216.02,-106.06 188.22,-99.14 167.28,-93.92"/>
<polygon fill="midnightblue" stroke="midnightblue" points="238.97,-115.39 249.52,-114.41 240.66,-108.6 238.97,-115.39"/>
</g>
<!-- Node4 -->
<g id="node4" class="node">
<title>Node4</title>
<g id="a_node4"><a xlink:href="main_8cpp.html#ae66f6b31b5ad750f1fe042a706a4e3d4" target="_top" xlink:title=" ">
<polygon fill="white" stroke="black" points="0,-76.5 0,-95.5 41,-95.5 41,-76.5 0,-76.5"/>
<text text-anchor="middle" x="20.5" y="-83.5" font-family="Helvetica,sans-Serif" font-size="10.00">main</text>
</a>
</g>
</g>
<!-- Node3&#45;&gt;Node4 -->
<g id="edge3" class="edge">
<title>Node3&#45;&gt;Node4</title>
<path fill="none" stroke="midnightblue" d="M91.27,-86C74.01,-86 54.9,-86 41.05,-86"/>
<polygon fill="midnightblue" stroke="midnightblue" points="91.7,-89.5 101.7,-86 91.7,-82.5 91.7,-89.5"/>
</g>
<!-- Node6 -->
<g id="node6" class="node">
<title>Node6</title>
<g id="a_node6"><a xlink:href="classApplication.html#aa0cd4150071d630bd7b1f067878f00cd" target="_top" xlink:title="Starts and handles game.">
<polygon fill="white" stroke="black" points="386,-76.5 386,-95.5 491,-95.5 491,-76.5 386,-76.5"/>
<text text-anchor="middle" x="438.5" y="-83.5" font-family="Helvetica,sans-Serif" font-size="10.00">Application::game</text>
</a>
</g>
</g>
<!-- Node5&#45;&gt;Node6 -->
<g id="edge5" class="edge">
<title>Node5&#45;&gt;Node6</title>
<path fill="none" stroke="midnightblue" d="M516.71,-86C508.02,-86 499.31,-86 491.03,-86"/>
<polygon fill="midnightblue" stroke="midnightblue" points="516.88,-89.5 526.88,-86 516.88,-82.5 516.88,-89.5"/>
</g>
<!-- Node6&#45;&gt;Node2 -->
<g id="edge6" class="edge">
<title>Node6&#45;&gt;Node2</title>
<path fill="none" stroke="midnightblue" d="M390.49,-98.11C369.94,-103.4 346.2,-109.52 326.95,-114.48"/>
<polygon fill="midnightblue" stroke="midnightblue" points="391.47,-101.47 400.28,-95.59 389.72,-94.69 391.47,-101.47"/>
</g>
<!-- Node7 -->
<g id="node7" class="node">
<title>Node7</title>
<g id="a_node7"><a xlink:href="classMenu.html#a196d4b882280b81c81409beb8a1a6780" target="_top" xlink:title="Starts game with AI.">
<polygon fill="white" stroke="black" points="229,-76.5 229,-95.5 349,-95.5 349,-76.5 229,-76.5"/>
<text text-anchor="middle" x="289" y="-83.5" font-family="Helvetica,sans-Serif" font-size="10.00">Menu::start_AI_game</text>
</a>
</g>
</g>
<!-- Node6&#45;&gt;Node7 -->
<g id="edge7" class="edge">
<title>Node6&#45;&gt;Node7</title>
<path fill="none" stroke="midnightblue" d="M375.72,-86C366.92,-86 357.88,-86 349.13,-86"/>
<polygon fill="midnightblue" stroke="midnightblue" points="375.91,-89.5 385.91,-86 375.91,-82.5 375.91,-89.5"/>
</g>
<!-- Node8 -->
<g id="node8" class="node">
<title>Node8</title>
<g id="a_node8"><a xlink:href="classMenu.html#a4e25526f20b92932d0adf9a489356dac" target="_top" xlink:title="Starts game with 2 human players.">
<polygon fill="white" stroke="black" points="236.5,-38.5 236.5,-57.5 341.5,-57.5 341.5,-38.5 236.5,-38.5"/>
<text text-anchor="middle" x="289" y="-45.5" font-family="Helvetica,sans-Serif" font-size="10.00">Menu::start_game</text>
</a>
</g>
</g>
<!-- Node6&#45;&gt;Node8 -->
<g id="edge9" class="edge">
<title>Node6&#45;&gt;Node8</title>
<path fill="none" stroke="midnightblue" d="M390.49,-73.89C369.94,-68.6 346.2,-62.48 326.95,-57.52"/>
<polygon fill="midnightblue" stroke="midnightblue" points="389.72,-77.31 400.28,-76.41 391.47,-70.53 389.72,-77.31"/>
</g>
<!-- Node9 -->
<g id="node9" class="node">
<title>Node9</title>
<g id="a_node9"><a xlink:href="classTutorial.html#ad4a5c074281c25791323e984dba390f2" target="_top" xlink:title="Start tutorial.">
<polygon fill="white" stroke="black" points="228,-0.5 228,-19.5 350,-19.5 350,-0.5 228,-0.5"/>
<text text-anchor="middle" x="289" y="-7.5" font-family="Helvetica,sans-Serif" font-size="10.00">Tutorial::start_tutorial</text>
</a>
</g>
</g>
<!-- Node6&#45;&gt;Node9 -->
<g id="edge11" class="edge">
<title>Node6&#45;&gt;Node9</title>
<path fill="none" stroke="midnightblue" d="M416.93,-70.3C399.77,-57.78 374.28,-40.49 350,-29 342.4,-25.4 333.94,-22.25 325.83,-19.6"/>
<polygon fill="midnightblue" stroke="midnightblue" points="414.98,-73.21 425.1,-76.36 419.15,-67.59 414.98,-73.21"/>
</g>
<!-- Node7&#45;&gt;Node3 -->
<g id="edge8" class="edge">
<title>Node7&#45;&gt;Node3</title>
<path fill="none" stroke="midnightblue" d="M218.2,-86C200.38,-86 182.1,-86 167.26,-86"/>
<polygon fill="midnightblue" stroke="midnightblue" points="218.6,-89.5 228.6,-86 218.6,-82.5 218.6,-89.5"/>
</g>
<!-- Node8&#45;&gt;Node3 -->
<g id="edge10" class="edge">
<title>Node8&#45;&gt;Node3</title>
<path fill="none" stroke="midnightblue" d="M239.67,-60.04C216.02,-65.94 188.22,-72.86 167.28,-78.08"/>
<polygon fill="midnightblue" stroke="midnightblue" points="240.66,-63.4 249.52,-57.59 238.97,-56.61 240.66,-63.4"/>
</g>
<!-- Node10 -->
<g id="node10" class="node">
<title>Node10</title>
<g id="a_node10"><a xlink:href="classTutorial.html#a42acfd364d5d606318eda4b733c973da" target="_top" xlink:title="Runs tutorial.">
<polygon fill="white" stroke="black" points="77,-0.5 77,-19.5 192,-19.5 192,-0.5 77,-0.5"/>
<text text-anchor="middle" x="134.5" y="-7.5" font-family="Helvetica,sans-Serif" font-size="10.00">Tutorial::run_tutorial</text>
</a>
</g>
</g>
<!-- Node9&#45;&gt;Node10 -->
<g id="edge12" class="edge">
<title>Node9&#45;&gt;Node10</title>
<path fill="none" stroke="midnightblue" d="M217.52,-10C209.09,-10 200.56,-10 192.35,-10"/>
<polygon fill="midnightblue" stroke="midnightblue" points="217.73,-13.5 227.73,-10 217.73,-6.5 217.73,-13.5"/>
</g>
</g>
</svg>
