<?xml version="1.0" encoding="UTF-8" standalone="no"?>
<!DOCTYPE svg PUBLIC "-//W3C//DTD SVG 1.1//EN"
 "http://www.w3.org/Graphics/SVG/1.1/DTD/svg11.dtd">
<!-- Generated by graphviz version 2.43.0 (0)
 -->
<!-- Title: src/game_rules.h Pages: 1 -->
<svg width="322pt" height="252pt"
 viewBox="0.00 0.00 321.50 252.00" xmlns="http://www.w3.org/2000/svg" xmlns:xlink="http://www.w3.org/1999/xlink">
<g id="graph0" class="graph" transform="scale(1 1) rotate(0) translate(4 248)">
<title>src/game_rules.h</title>
<polygon fill="white" stroke="transparent" points="-4,4 -4,-248 317.5,-248 317.5,4 -4,4"/>
<!-- Node1 -->
<g id="node1" class="node">
<title>Node1</title>
<g id="a_node1"><a xlink:title=" ">
<polygon fill="#bfbfbf" stroke="black" points="147,-224.5 147,-243.5 247,-243.5 247,-224.5 147,-224.5"/>
<text text-anchor="middle" x="197" y="-231.5" font-family="Helvetica,sans-Serif" font-size="10.00">src/game_rules.h</text>
</a>
</g>
</g>
<!-- Node2 -->
<g id="node2" class="node">
<title>Node2</title>
<g id="a_node2"><a xlink:href="application_8h.html" target="_top" xlink:title=" ">
<polygon fill="white" stroke="black" points="87.5,-168.5 87.5,-187.5 184.5,-187.5 184.5,-168.5 87.5,-168.5"/>
<text text-anchor="middle" x="136" y="-175.5" font-family="Helvetica,sans-Serif" font-size="10.00">src/application.h</text>
</a>
</g>
</g>
<!-- Node1&#45;&gt;Node2 -->
<g id="edge1" class="edge">
<title>Node1&#45;&gt;Node2</title>
<path fill="none" stroke="midnightblue" d="M179.53,-217.54C168.66,-207.91 155.06,-195.87 145.98,-187.83"/>
<polygon fill="midnightblue" stroke="midnightblue" points="177.39,-220.32 187.2,-224.32 182.03,-215.07 177.39,-220.32"/>
</g>
<!-- Node9 -->
<g id="node9" class="node">
<title>Node9</title>
<g id="a_node9"><a xlink:href="game__rules_8cpp.html" target="_top" xlink:title=" ">
<polygon fill="white" stroke="black" points="202.5,-168.5 202.5,-187.5 313.5,-187.5 313.5,-168.5 202.5,-168.5"/>
<text text-anchor="middle" x="258" y="-175.5" font-family="Helvetica,sans-Serif" font-size="10.00">src/game_rules.cpp</text>
</a>
</g>
</g>
<!-- Node1&#45;&gt;Node9 -->
<g id="edge9" class="edge">
<title>Node1&#45;&gt;Node9</title>
<path fill="none" stroke="midnightblue" d="M214.47,-217.54C225.34,-207.91 238.94,-195.87 248.02,-187.83"/>
<polygon fill="midnightblue" stroke="midnightblue" points="211.97,-215.07 206.8,-224.32 216.61,-220.32 211.97,-215.07"/>
</g>
<!-- Node3 -->
<g id="node3" class="node">
<title>Node3</title>
<g id="a_node3"><a xlink:href="application_8cpp.html" target="_top" xlink:title=" ">
<polygon fill="white" stroke="black" points="0,-112.5 0,-131.5 108,-131.5 108,-112.5 0,-112.5"/>
<text text-anchor="middle" x="54" y="-119.5" font-family="Helvetica,sans-Serif" font-size="10.00">src/application.cpp</text>
</a>
</g>
</g>
<!-- Node2&#45;&gt;Node3 -->
<g id="edge2" class="edge">
<title>Node2&#45;&gt;Node3</title>
<path fill="none" stroke="midnightblue" d="M114.17,-162.62C99.19,-152.76 79.8,-139.99 67.14,-131.65"/>
<polygon fill="midnightblue" stroke="midnightblue" points="112.55,-165.75 122.83,-168.32 116.4,-159.9 112.55,-165.75"/>
</g>
<!-- Node4 -->
<g id="node4" class="node">
<title>Node4</title>
<g id="a_node4"><a xlink:href="menu_8h.html" target="_top" xlink:title=" ">
<polygon fill="white" stroke="black" points="100.5,-56.5 100.5,-75.5 171.5,-75.5 171.5,-56.5 100.5,-56.5"/>
<text text-anchor="middle" x="136" y="-63.5" font-family="Helvetica,sans-Serif" font-size="10.00">src/menu.h</text>
</a>
</g>
</g>
<!-- Node2&#45;&gt;Node4 -->
<g id="edge3" class="edge">
<title>Node2&#45;&gt;Node4</title>
<path fill="none" stroke="midnightblue" d="M136,-158.35C136,-134.25 136,-93.31 136,-75.59"/>
<polygon fill="midnightblue" stroke="midnightblue" points="132.5,-158.37 136,-168.37 139.5,-158.37 132.5,-158.37"/>
</g>
<!-- Node7 -->
<g id="node7" class="node">
<title>Node7</title>
<g id="a_node7"><a xlink:href="tutorial_8h.html" target="_top" xlink:title=" ">
<polygon fill="white" stroke="black" points="164,-112.5 164,-131.5 242,-131.5 242,-112.5 164,-112.5"/>
<text text-anchor="middle" x="203" y="-119.5" font-family="Helvetica,sans-Serif" font-size="10.00">src/tutorial.h</text>
</a>
</g>
</g>
<!-- Node2&#45;&gt;Node7 -->
<g id="edge6" class="edge">
<title>Node2&#45;&gt;Node7</title>
<path fill="none" stroke="midnightblue" d="M154.83,-161.82C166.84,-152.15 181.97,-139.95 192.04,-131.83"/>
<polygon fill="midnightblue" stroke="midnightblue" points="152.35,-159.32 146.76,-168.32 156.75,-164.77 152.35,-159.32"/>
</g>
<!-- Node5 -->
<g id="node5" class="node">
<title>Node5</title>
<g id="a_node5"><a xlink:href="main_8cpp.html" target="_top" xlink:title=" ">
<polygon fill="white" stroke="black" points="47.5,-0.5 47.5,-19.5 126.5,-19.5 126.5,-0.5 47.5,-0.5"/>
<text text-anchor="middle" x="87" y="-7.5" font-family="Helvetica,sans-Serif" font-size="10.00">src/main.cpp</text>
</a>
</g>
</g>
<!-- Node4&#45;&gt;Node5 -->
<g id="edge4" class="edge">
<title>Node4&#45;&gt;Node5</title>
<path fill="none" stroke="midnightblue" d="M120.97,-48.43C112.38,-38.97 101.96,-27.48 94.94,-19.75"/>
<polygon fill="midnightblue" stroke="midnightblue" points="118.6,-51.03 127.91,-56.08 123.78,-46.33 118.6,-51.03"/>
</g>
<!-- Node6 -->
<g id="node6" class="node">
<title>Node6</title>
<g id="a_node6"><a xlink:href="menu_8cpp.html" target="_top" xlink:title=" ">
<polygon fill="white" stroke="black" points="145,-0.5 145,-19.5 227,-19.5 227,-0.5 145,-0.5"/>
<text text-anchor="middle" x="186" y="-7.5" font-family="Helvetica,sans-Serif" font-size="10.00">src/menu.cpp</text>
</a>
</g>
</g>
<!-- Node4&#45;&gt;Node6 -->
<g id="edge5" class="edge">
<title>Node4&#45;&gt;Node6</title>
<path fill="none" stroke="midnightblue" d="M151.08,-48.72C159.89,-39.2 170.67,-27.56 177.9,-19.75"/>
<polygon fill="midnightblue" stroke="midnightblue" points="148.48,-46.37 144.26,-56.08 153.62,-51.12 148.48,-46.37"/>
</g>
<!-- Node7&#45;&gt;Node4 -->
<g id="edge7" class="edge">
<title>Node7&#45;&gt;Node4</title>
<path fill="none" stroke="midnightblue" d="M184.17,-105.82C172.16,-96.15 157.03,-83.95 146.96,-75.83"/>
<polygon fill="midnightblue" stroke="midnightblue" points="182.25,-108.77 192.24,-112.32 186.65,-103.32 182.25,-108.77"/>
</g>
<!-- Node8 -->
<g id="node8" class="node">
<title>Node8</title>
<g id="a_node8"><a xlink:href="tutorial_8cpp.html" target="_top" xlink:title=" ">
<polygon fill="white" stroke="black" points="189.5,-56.5 189.5,-75.5 278.5,-75.5 278.5,-56.5 189.5,-56.5"/>
<text text-anchor="middle" x="234" y="-63.5" font-family="Helvetica,sans-Serif" font-size="10.00">src/tutorial.cpp</text>
</a>
</g>
</g>
<!-- Node7&#45;&gt;Node8 -->
<g id="edge8" class="edge">
<title>Node7&#45;&gt;Node8</title>
<path fill="none" stroke="midnightblue" d="M213.18,-103.27C218.47,-94.05 224.72,-83.17 228.98,-75.75"/>
<polygon fill="midnightblue" stroke="midnightblue" points="210.06,-101.67 208.12,-112.08 216.13,-105.15 210.06,-101.67"/>
</g>
</g>
</svg>
