<?xml version="1.0" encoding="UTF-8" standalone="no"?>
<!DOCTYPE svg PUBLIC "-//W3C//DTD SVG 1.1//EN"
 "http://www.w3.org/Graphics/SVG/1.1/DTD/svg11.dtd">
<!-- Generated by graphviz version 2.43.0 (0)
 -->
<!-- Title: Graphical Class Hierarchy Pages: 1 -->
<svg width="174pt" height="142pt"
 viewBox="0.00 0.00 174.00 142.00" xmlns="http://www.w3.org/2000/svg" xmlns:xlink="http://www.w3.org/1999/xlink">
<g id="graph0" class="graph" transform="scale(1 1) rotate(0) translate(4 138)">
<title>Graphical Class Hierarchy</title>
<polygon fill="white" stroke="transparent" points="-4,4 -4,-138 170,-138 170,4 -4,4"/>
<!-- Node0 -->
<g id="node1" class="node">
<title>Node0</title>
<g id="a_node1"><a xlink:href="classPlayer.html" target="_top" xlink:title="Abstract class for player.">
<polygon fill="white" stroke="black" points="0,-57.5 0,-76.5 47,-76.5 47,-57.5 0,-57.5"/>
<text text-anchor="middle" x="23.5" y="-64.5" font-family="Helvetica,sans-Serif" font-size="10.00">Player</text>
</a>
</g>
</g>
<!-- Node1 -->
<g id="node2" class="node">
<title>Node1</title>
<g id="a_node2"><a xlink:href="classCustom__AI.html" target="_top" xlink:title="Represents Custom AI.">
<polygon fill="white" stroke="black" points="90,-114.5 90,-133.5 159,-133.5 159,-114.5 90,-114.5"/>
<text text-anchor="middle" x="124.5" y="-121.5" font-family="Helvetica,sans-Serif" font-size="10.00">Custom_AI</text>
</a>
</g>
</g>
<!-- Node0&#45;&gt;Node1 -->
<g id="edge1" class="edge">
<title>Node0&#45;&gt;Node1</title>
<path fill="none" stroke="midnightblue" d="M46.51,-82.32C57.29,-89.56 70.6,-98.1 83,-105 88.97,-108.32 95.63,-111.6 101.78,-114.48"/>
<polygon fill="midnightblue" stroke="midnightblue" points="48.35,-79.34 38.12,-76.61 44.41,-85.13 48.35,-79.34"/>
</g>
<!-- Node2 -->
<g id="node3" class="node">
<title>Node2</title>
<g id="a_node3"><a xlink:href="classCustom__AI2.html" target="_top" xlink:title="Represents Custom AI2.">
<polygon fill="white" stroke="black" points="87,-76.5 87,-95.5 162,-95.5 162,-76.5 87,-76.5"/>
<text text-anchor="middle" x="124.5" y="-83.5" font-family="Helvetica,sans-Serif" font-size="10.00">Custom_AI2</text>
</a>
</g>
</g>
<!-- Node0&#45;&gt;Node2 -->
<g id="edge2" class="edge">
<title>Node0&#45;&gt;Node2</title>
<path fill="none" stroke="midnightblue" d="M57.56,-73.35C66.91,-75.14 77.15,-77.1 86.71,-78.94"/>
<polygon fill="midnightblue" stroke="midnightblue" points="57.94,-69.85 47.46,-71.41 56.62,-76.73 57.94,-69.85"/>
</g>
<!-- Node3 -->
<g id="node4" class="node">
<title>Node3</title>
<g id="a_node4"><a xlink:href="classHumanPlayer.html" target="_top" xlink:title="Represents human player.">
<polygon fill="white" stroke="black" points="83,-38.5 83,-57.5 166,-57.5 166,-38.5 83,-38.5"/>
<text text-anchor="middle" x="124.5" y="-45.5" font-family="Helvetica,sans-Serif" font-size="10.00">HumanPlayer</text>
</a>
</g>
</g>
<!-- Node0&#45;&gt;Node3 -->
<g id="edge3" class="edge">
<title>Node0&#45;&gt;Node3</title>
<path fill="none" stroke="midnightblue" d="M57.34,-60.7C65.49,-59.13 74.33,-57.44 82.8,-55.81"/>
<polygon fill="midnightblue" stroke="midnightblue" points="56.62,-57.27 47.46,-62.59 57.94,-64.15 56.62,-57.27"/>
</g>
<!-- Node4 -->
<g id="node5" class="node">
<title>Node4</title>
<g id="a_node5"><a xlink:href="classMinimax.html" target="_top" xlink:title="Represents MINIMAX.">
<polygon fill="white" stroke="black" points="95,-0.5 95,-19.5 154,-19.5 154,-0.5 95,-0.5"/>
<text text-anchor="middle" x="124.5" y="-7.5" font-family="Helvetica,sans-Serif" font-size="10.00">Minimax</text>
</a>
</g>
</g>
<!-- Node0&#45;&gt;Node4 -->
<g id="edge4" class="edge">
<title>Node0&#45;&gt;Node4</title>
<path fill="none" stroke="midnightblue" d="M46.51,-51.68C57.29,-44.44 70.6,-35.9 83,-29 88.97,-25.68 95.63,-22.4 101.78,-19.52"/>
<polygon fill="midnightblue" stroke="midnightblue" points="44.41,-48.87 38.12,-57.39 48.35,-54.66 44.41,-48.87"/>
</g>
</g>
</svg>
