<?xml version="1.0" encoding="UTF-8" standalone="no"?>
<!DOCTYPE svg PUBLIC "-//W3C//DTD SVG 1.1//EN"
 "http://www.w3.org/Graphics/SVG/1.1/DTD/svg11.dtd">
<!-- Generated by graphviz version 2.43.0 (0)
 -->
<!-- Title: src/king.cpp Pages: 1 -->
<svg width="604pt" height="308pt"
 viewBox="0.00 0.00 604.08 308.00" xmlns="http://www.w3.org/2000/svg" xmlns:xlink="http://www.w3.org/1999/xlink">
<g id="graph0" class="graph" transform="scale(1 1) rotate(0) translate(4 304)">
<title>src/king.cpp</title>
<polygon fill="white" stroke="transparent" points="-4,4 -4,-304 600.08,-304 600.08,4 -4,4"/>
<!-- Node1 -->
<g id="node1" class="node">
<title>Node1</title>
<g id="a_node1"><a xlink:title=" ">
<polygon fill="#bfbfbf" stroke="black" points="316.08,-280.5 316.08,-299.5 391.08,-299.5 391.08,-280.5 316.08,-280.5"/>
<text text-anchor="middle" x="353.58" y="-287.5" font-family="Helvetica,sans-Serif" font-size="10.00">src/king.cpp</text>
</a>
</g>
</g>
<!-- Node2 -->
<g id="node2" class="node">
<title>Node2</title>
<g id="a_node2"><a xlink:href="king_8h.html" target="_top" xlink:title=" ">
<polygon fill="white" stroke="black" points="549.08,-168.5 549.08,-187.5 596.08,-187.5 596.08,-168.5 549.08,-168.5"/>
<text text-anchor="middle" x="572.58" y="-175.5" font-family="Helvetica,sans-Serif" font-size="10.00">king.h</text>
</a>
</g>
</g>
<!-- Node1&#45;&gt;Node2 -->
<g id="edge1" class="edge">
<title>Node1&#45;&gt;Node2</title>
<path fill="none" stroke="midnightblue" d="M370.77,-280.37C408.91,-261.21 500.84,-215.04 546.27,-192.22"/>
<polygon fill="midnightblue" stroke="midnightblue" points="548.11,-195.21 555.48,-187.59 544.97,-188.95 548.11,-195.21"/>
</g>
<!-- Node7 -->
<g id="node7" class="node">
<title>Node7</title>
<g id="a_node7"><a xlink:href="board_8h.html" target="_top" xlink:title=" ">
<polygon fill="white" stroke="black" points="300.08,-224.5 300.08,-243.5 353.08,-243.5 353.08,-224.5 300.08,-224.5"/>
<text text-anchor="middle" x="326.58" y="-231.5" font-family="Helvetica,sans-Serif" font-size="10.00">board.h</text>
</a>
</g>
</g>
<!-- Node1&#45;&gt;Node7 -->
<g id="edge7" class="edge">
<title>Node1&#45;&gt;Node7</title>
<path fill="none" stroke="midnightblue" d="M349.12,-280.08C345.43,-272.69 340.06,-261.95 335.49,-252.81"/>
<polygon fill="midnightblue" stroke="midnightblue" points="338.56,-251.13 330.96,-243.75 332.3,-254.26 338.56,-251.13"/>
</g>
<!-- Node3 -->
<g id="node3" class="node">
<title>Node3</title>
<g id="a_node3"><a xlink:href="piece_8h.html" target="_top" xlink:title=" ">
<polygon fill="white" stroke="black" points="264.58,-112.5 264.58,-131.5 316.58,-131.5 316.58,-112.5 264.58,-112.5"/>
<text text-anchor="middle" x="290.58" y="-119.5" font-family="Helvetica,sans-Serif" font-size="10.00">piece.h</text>
</a>
</g>
</g>
<!-- Node2&#45;&gt;Node3 -->
<g id="edge2" class="edge">
<title>Node2&#45;&gt;Node3</title>
<path fill="none" stroke="midnightblue" d="M549.03,-172.49C499.7,-163.04 385.28,-141.13 326.64,-129.91"/>
<polygon fill="midnightblue" stroke="midnightblue" points="327.19,-126.45 316.71,-128 325.87,-133.32 327.19,-126.45"/>
</g>
<!-- Node4 -->
<g id="node4" class="node">
<title>Node4</title>
<g id="a_node4"><a xlink:title=" ">
<polygon fill="white" stroke="#bfbfbf" points="56.58,-0.5 56.58,-19.5 116.58,-19.5 116.58,-0.5 56.58,-0.5"/>
<text text-anchor="middle" x="86.58" y="-7.5" font-family="Helvetica,sans-Serif" font-size="10.00">iostream</text>
</a>
</g>
</g>
<!-- Node3&#45;&gt;Node4 -->
<g id="edge3" class="edge">
<title>Node3&#45;&gt;Node4</title>
<path fill="none" stroke="midnightblue" d="M274.58,-112.37C239.12,-93.25 153.77,-47.23 111.36,-24.36"/>
<polygon fill="midnightblue" stroke="midnightblue" points="112.98,-21.26 102.52,-19.59 109.66,-27.42 112.98,-21.26"/>
</g>
<!-- Node5 -->
<g id="node5" class="node">
<title>Node5</title>
<g id="a_node5"><a xlink:title=" ">
<polygon fill="white" stroke="#bfbfbf" points="293.08,-56.5 293.08,-75.5 340.08,-75.5 340.08,-56.5 293.08,-56.5"/>
<text text-anchor="middle" x="316.58" y="-63.5" font-family="Helvetica,sans-Serif" font-size="10.00">vector</text>
</a>
</g>
</g>
<!-- Node3&#45;&gt;Node5 -->
<g id="edge4" class="edge">
<title>Node3&#45;&gt;Node5</title>
<path fill="none" stroke="midnightblue" d="M294.88,-112.08C298.44,-104.69 303.61,-93.95 308.01,-84.81"/>
<polygon fill="midnightblue" stroke="midnightblue" points="311.19,-86.28 312.37,-75.75 304.88,-83.24 311.19,-86.28"/>
</g>
<!-- Node6 -->
<g id="node6" class="node">
<title>Node6</title>
<g id="a_node6"><a xlink:href="position_8h.html" target="_top" xlink:title=" ">
<polygon fill="white" stroke="black" points="24.08,-56.5 24.08,-75.5 89.08,-75.5 89.08,-56.5 24.08,-56.5"/>
<text text-anchor="middle" x="56.58" y="-63.5" font-family="Helvetica,sans-Serif" font-size="10.00">position.h</text>
</a>
</g>
</g>
<!-- Node3&#45;&gt;Node6 -->
<g id="edge5" class="edge">
<title>Node3&#45;&gt;Node6</title>
<path fill="none" stroke="midnightblue" d="M264.2,-114.91C224.02,-105.64 147.13,-87.9 99.04,-76.8"/>
<polygon fill="midnightblue" stroke="midnightblue" points="99.77,-73.37 89.24,-74.54 98.19,-80.19 99.77,-73.37"/>
</g>
<!-- Node6&#45;&gt;Node4 -->
<g id="edge6" class="edge">
<title>Node6&#45;&gt;Node4</title>
<path fill="none" stroke="midnightblue" d="M61.54,-56.08C65.69,-48.61 71.74,-37.72 76.85,-28.52"/>
<polygon fill="midnightblue" stroke="midnightblue" points="79.92,-30.19 81.72,-19.75 73.81,-26.79 79.92,-30.19"/>
</g>
<!-- Node7&#45;&gt;Node2 -->
<g id="edge19" class="edge">
<title>Node7&#45;&gt;Node2</title>
<path fill="none" stroke="midnightblue" d="M353.22,-227.41C392.82,-219.06 469.54,-202.74 534.58,-188 536.03,-187.67 537.51,-187.33 539,-186.99"/>
<polygon fill="midnightblue" stroke="midnightblue" points="539.94,-190.37 548.88,-184.69 538.35,-183.55 539.94,-190.37"/>
</g>
<!-- Node7&#45;&gt;Node4 -->
<g id="edge8" class="edge">
<title>Node7&#45;&gt;Node4</title>
<path fill="none" stroke="midnightblue" d="M299.66,-232.18C237.36,-229.73 85.76,-220.5 48.58,-188 2.97,-148.13 -14.78,-108.99 14.58,-56 22.67,-41.41 37.69,-30.92 51.92,-23.76"/>
<polygon fill="midnightblue" stroke="midnightblue" points="53.47,-26.9 61.08,-19.53 50.53,-20.55 53.47,-26.9"/>
</g>
<!-- Node7&#45;&gt;Node5 -->
<g id="edge9" class="edge">
<title>Node7&#45;&gt;Node5</title>
<path fill="none" stroke="midnightblue" d="M353.24,-230.09C397.61,-224.65 483.51,-211.3 501.58,-188 547.68,-128.55 414.73,-89.2 349.89,-74.03"/>
<polygon fill="midnightblue" stroke="midnightblue" points="350.63,-70.61 340.11,-71.8 349.08,-77.43 350.63,-70.61"/>
</g>
<!-- Node7&#45;&gt;Node6 -->
<g id="edge14" class="edge">
<title>Node7&#45;&gt;Node6</title>
<path fill="none" stroke="midnightblue" d="M299.68,-232.47C239.05,-230.65 94.61,-222.71 63.58,-188 38.43,-159.86 45.09,-111.75 51.33,-85.47"/>
<polygon fill="midnightblue" stroke="midnightblue" points="54.75,-86.22 53.88,-75.66 47.97,-84.46 54.75,-86.22"/>
</g>
<!-- Node8 -->
<g id="node8" class="node">
<title>Node8</title>
<g id="a_node8"><a xlink:href="square_8h.html" target="_top" xlink:title=" ">
<polygon fill="white" stroke="black" points="73.08,-168.5 73.08,-187.5 132.08,-187.5 132.08,-168.5 73.08,-168.5"/>
<text text-anchor="middle" x="102.58" y="-175.5" font-family="Helvetica,sans-Serif" font-size="10.00">square.h</text>
</a>
</g>
</g>
<!-- Node7&#45;&gt;Node8 -->
<g id="edge10" class="edge">
<title>Node7&#45;&gt;Node8</title>
<path fill="none" stroke="midnightblue" d="M300.01,-226.59C260.9,-217.17 187.57,-199.49 142.13,-188.53"/>
<polygon fill="midnightblue" stroke="midnightblue" points="142.87,-185.11 132.32,-186.17 141.22,-191.92 142.87,-185.11"/>
</g>
<!-- Node10 -->
<g id="node10" class="node">
<title>Node10</title>
<g id="a_node10"><a xlink:href="pawn_8h.html" target="_top" xlink:title=" ">
<polygon fill="white" stroke="black" points="300.58,-168.5 300.58,-187.5 352.58,-187.5 352.58,-168.5 300.58,-168.5"/>
<text text-anchor="middle" x="326.58" y="-175.5" font-family="Helvetica,sans-Serif" font-size="10.00">pawn.h</text>
</a>
</g>
</g>
<!-- Node7&#45;&gt;Node10 -->
<g id="edge15" class="edge">
<title>Node7&#45;&gt;Node10</title>
<path fill="none" stroke="midnightblue" d="M326.58,-224.08C326.58,-217.01 326.58,-206.86 326.58,-197.99"/>
<polygon fill="midnightblue" stroke="midnightblue" points="330.08,-197.75 326.58,-187.75 323.08,-197.75 330.08,-197.75"/>
</g>
<!-- Node11 -->
<g id="node11" class="node">
<title>Node11</title>
<g id="a_node11"><a xlink:href="queen_8h.html" target="_top" xlink:title=" ">
<polygon fill="white" stroke="black" points="370.58,-168.5 370.58,-187.5 426.58,-187.5 426.58,-168.5 370.58,-168.5"/>
<text text-anchor="middle" x="398.58" y="-175.5" font-family="Helvetica,sans-Serif" font-size="10.00">queen.h</text>
</a>
</g>
</g>
<!-- Node7&#45;&gt;Node11 -->
<g id="edge17" class="edge">
<title>Node7&#45;&gt;Node11</title>
<path fill="none" stroke="midnightblue" d="M338.15,-224.32C349,-216.18 365.46,-203.84 378.47,-194.09"/>
<polygon fill="midnightblue" stroke="midnightblue" points="380.9,-196.63 386.8,-187.83 376.7,-191.03 380.9,-196.63"/>
</g>
<!-- Node12 -->
<g id="node12" class="node">
<title>Node12</title>
<g id="a_node12"><a xlink:href="rook_8h.html" target="_top" xlink:title=" ">
<polygon fill="white" stroke="black" points="445.08,-168.5 445.08,-187.5 492.08,-187.5 492.08,-168.5 445.08,-168.5"/>
<text text-anchor="middle" x="468.58" y="-175.5" font-family="Helvetica,sans-Serif" font-size="10.00">rook.h</text>
</a>
</g>
</g>
<!-- Node7&#45;&gt;Node12 -->
<g id="edge20" class="edge">
<title>Node7&#45;&gt;Node12</title>
<path fill="none" stroke="midnightblue" d="M349.08,-224.44C372.66,-215.48 409.91,-201.31 436.55,-191.18"/>
<polygon fill="midnightblue" stroke="midnightblue" points="438.09,-194.34 446.19,-187.52 435.6,-187.8 438.09,-194.34"/>
</g>
<!-- Node13 -->
<g id="node13" class="node">
<title>Node13</title>
<g id="a_node13"><a xlink:href="bishop_8h.html" target="_top" xlink:title=" ">
<polygon fill="white" stroke="black" points="150.58,-168.5 150.58,-187.5 208.58,-187.5 208.58,-168.5 150.58,-168.5"/>
<text text-anchor="middle" x="179.58" y="-175.5" font-family="Helvetica,sans-Serif" font-size="10.00">bishop.h</text>
</a>
</g>
</g>
<!-- Node7&#45;&gt;Node13 -->
<g id="edge22" class="edge">
<title>Node7&#45;&gt;Node13</title>
<path fill="none" stroke="midnightblue" d="M303.29,-224.44C278.78,-215.44 239.99,-201.19 212.38,-191.05"/>
<polygon fill="midnightblue" stroke="midnightblue" points="213.36,-187.68 202.77,-187.52 210.95,-194.25 213.36,-187.68"/>
</g>
<!-- Node14 -->
<g id="node14" class="node">
<title>Node14</title>
<g id="a_node14"><a xlink:href="knight_8h.html" target="_top" xlink:title=" ">
<polygon fill="white" stroke="black" points="226.58,-168.5 226.58,-187.5 282.58,-187.5 282.58,-168.5 226.58,-168.5"/>
<text text-anchor="middle" x="254.58" y="-175.5" font-family="Helvetica,sans-Serif" font-size="10.00">knight.h</text>
</a>
</g>
</g>
<!-- Node7&#45;&gt;Node14 -->
<g id="edge24" class="edge">
<title>Node7&#45;&gt;Node14</title>
<path fill="none" stroke="midnightblue" d="M315.02,-224.32C304.16,-216.18 287.7,-203.84 274.7,-194.09"/>
<polygon fill="midnightblue" stroke="midnightblue" points="276.46,-191.03 266.36,-187.83 272.26,-196.63 276.46,-191.03"/>
</g>
<!-- Node8&#45;&gt;Node3 -->
<g id="edge13" class="edge">
<title>Node8&#45;&gt;Node3</title>
<path fill="none" stroke="midnightblue" d="M132.37,-168.44C165.54,-158.92 219.15,-143.52 254.63,-133.33"/>
<polygon fill="midnightblue" stroke="midnightblue" points="255.92,-136.6 264.57,-130.47 253.99,-129.87 255.92,-136.6"/>
</g>
<!-- Node8&#45;&gt;Node4 -->
<g id="edge11" class="edge">
<title>Node8&#45;&gt;Node4</title>
<path fill="none" stroke="midnightblue" d="M102.81,-168.44C103.21,-148.57 103.5,-97.84 97.58,-56 96.33,-47.13 94.08,-37.46 91.95,-29.37"/>
<polygon fill="midnightblue" stroke="midnightblue" points="95.26,-28.22 89.21,-19.53 88.52,-30.1 95.26,-28.22"/>
</g>
<!-- Node9 -->
<g id="node9" class="node">
<title>Node9</title>
<g id="a_node9"><a xlink:title=" ">
<polygon fill="white" stroke="#bfbfbf" points="145.58,-112.5 145.58,-131.5 203.58,-131.5 203.58,-112.5 145.58,-112.5"/>
<text text-anchor="middle" x="174.58" y="-119.5" font-family="Helvetica,sans-Serif" font-size="10.00">memory</text>
</a>
</g>
</g>
<!-- Node8&#45;&gt;Node9 -->
<g id="edge12" class="edge">
<title>Node8&#45;&gt;Node9</title>
<path fill="none" stroke="midnightblue" d="M114.15,-168.32C125,-160.18 141.46,-147.84 154.47,-138.09"/>
<polygon fill="midnightblue" stroke="midnightblue" points="156.9,-140.63 162.8,-131.83 152.7,-135.03 156.9,-140.63"/>
</g>
<!-- Node10&#45;&gt;Node3 -->
<g id="edge16" class="edge">
<title>Node10&#45;&gt;Node3</title>
<path fill="none" stroke="midnightblue" d="M320.64,-168.08C315.61,-160.53 308.25,-149.49 302.07,-140.23"/>
<polygon fill="midnightblue" stroke="midnightblue" points="304.88,-138.13 296.42,-131.75 299.05,-142.01 304.88,-138.13"/>
</g>
<!-- Node11&#45;&gt;Node3 -->
<g id="edge18" class="edge">
<title>Node11&#45;&gt;Node3</title>
<path fill="none" stroke="midnightblue" d="M381.23,-168.32C363.91,-159.66 337.07,-146.24 317.08,-136.25"/>
<polygon fill="midnightblue" stroke="midnightblue" points="318.4,-133 307.89,-131.65 315.27,-139.26 318.4,-133"/>
</g>
<!-- Node12&#45;&gt;Node3 -->
<g id="edge21" class="edge">
<title>Node12&#45;&gt;Node3</title>
<path fill="none" stroke="midnightblue" d="M444.95,-169.83C414.65,-160.64 361.83,-144.61 326.53,-133.91"/>
<polygon fill="midnightblue" stroke="midnightblue" points="327.22,-130.46 316.63,-130.9 325.19,-137.16 327.22,-130.46"/>
</g>
<!-- Node13&#45;&gt;Node3 -->
<g id="edge23" class="edge">
<title>Node13&#45;&gt;Node3</title>
<path fill="none" stroke="midnightblue" d="M197.42,-168.32C215.3,-159.62 243.06,-146.12 263.63,-136.11"/>
<polygon fill="midnightblue" stroke="midnightblue" points="265.33,-139.18 272.79,-131.65 262.27,-132.88 265.33,-139.18"/>
</g>
<!-- Node14&#45;&gt;Node3 -->
<g id="edge25" class="edge">
<title>Node14&#45;&gt;Node3</title>
<path fill="none" stroke="midnightblue" d="M260.53,-168.08C265.56,-160.53 272.92,-149.49 279.1,-140.23"/>
<polygon fill="midnightblue" stroke="midnightblue" points="282.11,-142.01 284.75,-131.75 276.29,-138.13 282.11,-142.01"/>
</g>
</g>
</svg>
