<?xml version="1.0" encoding="UTF-8" standalone="no"?>
<!DOCTYPE svg PUBLIC "-//W3C//DTD SVG 1.1//EN"
 "http://www.w3.org/Graphics/SVG/1.1/DTD/svg11.dtd">
<!-- Generated by graphviz version 2.43.0 (0)
 -->
<!-- Title: src/king.h Pages: 1 -->
<svg width="1280pt" height="476pt"
 viewBox="0.00 0.00 1279.50 476.00" xmlns="http://www.w3.org/2000/svg" xmlns:xlink="http://www.w3.org/1999/xlink">
<g id="graph0" class="graph" transform="scale(1 1) rotate(0) translate(4 472)">
<title>src/king.h</title>
<polygon fill="white" stroke="transparent" points="-4,4 -4,-472 1275.5,-472 1275.5,4 -4,4"/>
<!-- Node1 -->
<g id="node1" class="node">
<title>Node1</title>
<g id="a_node1"><a xlink:title=" ">
<polygon fill="#bfbfbf" stroke="black" points="723,-448.5 723,-467.5 787,-467.5 787,-448.5 723,-448.5"/>
<text text-anchor="middle" x="755" y="-455.5" font-family="Helvetica,sans-Serif" font-size="10.00">src/king.h</text>
</a>
</g>
</g>
<!-- Node2 -->
<g id="node2" class="node">
<title>Node2</title>
<g id="a_node2"><a xlink:href="board_8h.html" target="_top" xlink:title=" ">
<polygon fill="white" stroke="black" points="687.5,-392.5 687.5,-411.5 758.5,-411.5 758.5,-392.5 687.5,-392.5"/>
<text text-anchor="middle" x="723" y="-399.5" font-family="Helvetica,sans-Serif" font-size="10.00">src/board.h</text>
</a>
</g>
</g>
<!-- Node1&#45;&gt;Node2 -->
<g id="edge1" class="edge">
<title>Node1&#45;&gt;Node2</title>
<path fill="none" stroke="midnightblue" d="M744.5,-439.27C739.03,-430.05 732.58,-419.17 728.19,-411.75"/>
<polygon fill="midnightblue" stroke="midnightblue" points="741.61,-441.26 749.72,-448.08 747.63,-437.7 741.61,-441.26"/>
</g>
<!-- Node17 -->
<g id="node17" class="node">
<title>Node17</title>
<g id="a_node17"><a xlink:href="king_8cpp.html" target="_top" xlink:title=" ">
<polygon fill="white" stroke="black" points="1005.5,-336.5 1005.5,-355.5 1080.5,-355.5 1080.5,-336.5 1005.5,-336.5"/>
<text text-anchor="middle" x="1043" y="-343.5" font-family="Helvetica,sans-Serif" font-size="10.00">src/king.cpp</text>
</a>
</g>
</g>
<!-- Node1&#45;&gt;Node17 -->
<g id="edge64" class="edge">
<title>Node1&#45;&gt;Node17</title>
<path fill="none" stroke="midnightblue" d="M787.14,-444.73C845.99,-422.25 969.71,-374.99 1020.51,-355.59"/>
<polygon fill="midnightblue" stroke="midnightblue" points="785.69,-441.53 777.6,-448.37 788.19,-448.07 785.69,-441.53"/>
</g>
<!-- Node3 -->
<g id="node3" class="node">
<title>Node3</title>
<g id="a_node3"><a xlink:href="board_8cpp.html" target="_top" xlink:title=" ">
<polygon fill="white" stroke="black" points="905,-336.5 905,-355.5 987,-355.5 987,-336.5 905,-336.5"/>
<text text-anchor="middle" x="946" y="-343.5" font-family="Helvetica,sans-Serif" font-size="10.00">src/board.cpp</text>
</a>
</g>
</g>
<!-- Node2&#45;&gt;Node3 -->
<g id="edge2" class="edge">
<title>Node2&#45;&gt;Node3</title>
<path fill="none" stroke="midnightblue" d="M768.06,-390.09C810.19,-379.89 872.24,-364.86 910.83,-355.52"/>
<polygon fill="midnightblue" stroke="midnightblue" points="767.23,-386.69 758.34,-392.44 768.88,-393.49 767.23,-386.69"/>
</g>
<!-- Node4 -->
<g id="node4" class="node">
<title>Node4</title>
<g id="a_node4"><a xlink:href="fen_8h.html" target="_top" xlink:title=" ">
<polygon fill="white" stroke="black" points="129.5,-280.5 129.5,-299.5 188.5,-299.5 188.5,-280.5 129.5,-280.5"/>
<text text-anchor="middle" x="159" y="-287.5" font-family="Helvetica,sans-Serif" font-size="10.00">src/fen.h</text>
</a>
</g>
</g>
<!-- Node2&#45;&gt;Node4 -->
<g id="edge3" class="edge">
<title>Node2&#45;&gt;Node4</title>
<path fill="none" stroke="midnightblue" d="M677.16,-397.4C610.53,-391.63 483.3,-378.61 377,-356 305.34,-340.76 223.07,-313.48 183.19,-299.61"/>
<polygon fill="midnightblue" stroke="midnightblue" points="677.06,-400.9 687.32,-398.26 677.65,-393.93 677.06,-400.9"/>
</g>
<!-- Node7 -->
<g id="node7" class="node">
<title>Node7</title>
<g id="a_node7"><a xlink:href="file__manager_8h.html" target="_top" xlink:title=" ">
<polygon fill="white" stroke="black" points="219,-280.5 219,-299.5 325,-299.5 325,-280.5 219,-280.5"/>
<text text-anchor="middle" x="272" y="-287.5" font-family="Helvetica,sans-Serif" font-size="10.00">src/file_manager.h</text>
</a>
</g>
</g>
<!-- Node2&#45;&gt;Node7 -->
<g id="edge6" class="edge">
<title>Node2&#45;&gt;Node7</title>
<path fill="none" stroke="midnightblue" d="M677.49,-396.63C621.41,-390.59 523.54,-377.87 442,-356 385.23,-340.78 321.21,-313.36 290.45,-299.51"/>
<polygon fill="midnightblue" stroke="midnightblue" points="677.15,-400.12 687.46,-397.69 677.89,-393.16 677.15,-400.12"/>
</g>
<!-- Node14 -->
<g id="node14" class="node">
<title>Node14</title>
<g id="a_node14"><a xlink:href="game__rules_8h.html" target="_top" xlink:title=" ">
<polygon fill="white" stroke="black" points="358,-280.5 358,-299.5 458,-299.5 458,-280.5 358,-280.5"/>
<text text-anchor="middle" x="408" y="-287.5" font-family="Helvetica,sans-Serif" font-size="10.00">src/game_rules.h</text>
</a>
</g>
</g>
<!-- Node2&#45;&gt;Node14 -->
<g id="edge14" class="edge">
<title>Node2&#45;&gt;Node14</title>
<path fill="none" stroke="midnightblue" d="M677.12,-400.98C624.64,-399.16 537.53,-390.56 472,-356 445.94,-342.26 423.97,-314.17 413.89,-299.84"/>
<polygon fill="midnightblue" stroke="midnightblue" points="677.04,-404.48 687.14,-401.26 677.24,-397.48 677.04,-404.48"/>
</g>
<!-- Node2&#45;&gt;Node17 -->
<g id="edge20" class="edge">
<title>Node2&#45;&gt;Node17</title>
<path fill="none" stroke="midnightblue" d="M768.82,-393.82C823.11,-385.22 916.25,-370.21 996,-356 999.03,-355.46 1002.16,-354.89 1005.31,-354.31"/>
<polygon fill="midnightblue" stroke="midnightblue" points="768.16,-390.38 758.82,-395.4 769.25,-397.29 768.16,-390.38"/>
</g>
<!-- Node18 -->
<g id="node18" class="node">
<title>Node18</title>
<g id="a_node18"><a xlink:href="move_8h.html" target="_top" xlink:title=" ">
<polygon fill="white" stroke="black" points="720.5,-280.5 720.5,-299.5 791.5,-299.5 791.5,-280.5 720.5,-280.5"/>
<text text-anchor="middle" x="756" y="-287.5" font-family="Helvetica,sans-Serif" font-size="10.00">src/move.h</text>
</a>
</g>
</g>
<!-- Node2&#45;&gt;Node18 -->
<g id="edge21" class="edge">
<title>Node2&#45;&gt;Node18</title>
<path fill="none" stroke="midnightblue" d="M728.5,-382.67C735.71,-358.62 748.08,-317.39 753.42,-299.59"/>
<polygon fill="midnightblue" stroke="midnightblue" points="725.11,-381.78 725.59,-392.37 731.82,-383.8 725.11,-381.78"/>
</g>
<!-- Node26 -->
<g id="node26" class="node">
<title>Node26</title>
<g id="a_node26"><a xlink:href="rules_8h.html" target="_top" xlink:title=" ">
<polygon fill="white" stroke="black" points="452.5,-224.5 452.5,-243.5 519.5,-243.5 519.5,-224.5 452.5,-224.5"/>
<text text-anchor="middle" x="486" y="-231.5" font-family="Helvetica,sans-Serif" font-size="10.00">src/rules.h</text>
</a>
</g>
</g>
<!-- Node2&#45;&gt;Node26 -->
<g id="edge62" class="edge">
<title>Node2&#45;&gt;Node26</title>
<path fill="none" stroke="midnightblue" d="M680.15,-389.52C634.3,-375.29 561.99,-346.99 516,-300 500,-283.66 491.5,-257.23 487.99,-243.65"/>
<polygon fill="midnightblue" stroke="midnightblue" points="679.21,-392.89 689.79,-392.42 681.23,-386.18 679.21,-392.89"/>
</g>
<!-- Node28 -->
<g id="node28" class="node">
<title>Node28</title>
<g id="a_node28"><a xlink:href="player_8h.html" target="_top" xlink:title=" ">
<polygon fill="white" stroke="black" points="654.5,-336.5 654.5,-355.5 727.5,-355.5 727.5,-336.5 654.5,-336.5"/>
<text text-anchor="middle" x="691" y="-343.5" font-family="Helvetica,sans-Serif" font-size="10.00">src/player.h</text>
</a>
</g>
</g>
<!-- Node2&#45;&gt;Node28 -->
<g id="edge42" class="edge">
<title>Node2&#45;&gt;Node28</title>
<path fill="none" stroke="midnightblue" d="M712.5,-383.27C707.03,-374.05 700.58,-363.17 696.19,-355.75"/>
<polygon fill="midnightblue" stroke="midnightblue" points="709.61,-385.26 717.72,-392.08 715.63,-381.7 709.61,-385.26"/>
</g>
<!-- Node32 -->
<g id="node32" class="node">
<title>Node32</title>
<g id="a_node32"><a xlink:href="validate_8h.html" target="_top" xlink:title=" ">
<polygon fill="white" stroke="black" points="928.5,-224.5 928.5,-243.5 1011.5,-243.5 1011.5,-224.5 928.5,-224.5"/>
<text text-anchor="middle" x="970" y="-231.5" font-family="Helvetica,sans-Serif" font-size="10.00">src/validate.h</text>
</a>
</g>
</g>
<!-- Node2&#45;&gt;Node32 -->
<g id="edge63" class="edge">
<title>Node2&#45;&gt;Node32</title>
<path fill="none" stroke="midnightblue" d="M768.76,-390.08C817.16,-376.41 893.02,-348.67 941,-300 956.96,-283.81 964.96,-257.31 968.2,-243.69"/>
<polygon fill="midnightblue" stroke="midnightblue" points="767.59,-386.77 758.87,-392.78 769.43,-393.52 767.59,-386.77"/>
</g>
<!-- Node5 -->
<g id="node5" class="node">
<title>Node5</title>
<g id="a_node5"><a xlink:href="fen_8cpp.html" target="_top" xlink:title=" ">
<polygon fill="white" stroke="black" points="0,-224.5 0,-243.5 70,-243.5 70,-224.5 0,-224.5"/>
<text text-anchor="middle" x="35" y="-231.5" font-family="Helvetica,sans-Serif" font-size="10.00">src/fen.cpp</text>
</a>
</g>
</g>
<!-- Node4&#45;&gt;Node5 -->
<g id="edge4" class="edge">
<title>Node4&#45;&gt;Node5</title>
<path fill="none" stroke="midnightblue" d="M129.99,-276.37C106.77,-266.26 74.84,-252.35 54.56,-243.52"/>
<polygon fill="midnightblue" stroke="midnightblue" points="128.79,-279.66 139.35,-280.44 131.58,-273.24 128.79,-279.66"/>
</g>
<!-- Node6 -->
<g id="node6" class="node">
<title>Node6</title>
<g id="a_node6"><a xlink:href="file__manager_8cpp.html" target="_top" xlink:title=" ">
<polygon fill="white" stroke="black" points="88.5,-224.5 88.5,-243.5 205.5,-243.5 205.5,-224.5 88.5,-224.5"/>
<text text-anchor="middle" x="147" y="-231.5" font-family="Helvetica,sans-Serif" font-size="10.00">src/file_manager.cpp</text>
</a>
</g>
</g>
<!-- Node4&#45;&gt;Node6 -->
<g id="edge5" class="edge">
<title>Node4&#45;&gt;Node6</title>
<path fill="none" stroke="midnightblue" d="M154.8,-270.1C152.81,-261.14 150.52,-250.86 148.94,-243.75"/>
<polygon fill="midnightblue" stroke="midnightblue" points="151.43,-271.08 157.02,-280.08 158.27,-269.56 151.43,-271.08"/>
</g>
<!-- Node7&#45;&gt;Node6 -->
<g id="edge8" class="edge">
<title>Node7&#45;&gt;Node6</title>
<path fill="none" stroke="midnightblue" d="M242.76,-276.37C219.35,-266.26 187.16,-252.35 166.71,-243.52"/>
<polygon fill="midnightblue" stroke="midnightblue" points="241.63,-279.69 252.19,-280.44 244.4,-273.26 241.63,-279.69"/>
</g>
<!-- Node8 -->
<g id="node8" class="node">
<title>Node8</title>
<g id="a_node8"><a xlink:href="application_8cpp.html" target="_top" xlink:title=" ">
<polygon fill="white" stroke="black" points="331,-112.5 331,-131.5 439,-131.5 439,-112.5 331,-112.5"/>
<text text-anchor="middle" x="385" y="-119.5" font-family="Helvetica,sans-Serif" font-size="10.00">src/application.cpp</text>
</a>
</g>
</g>
<!-- Node7&#45;&gt;Node8 -->
<g id="edge7" class="edge">
<title>Node7&#45;&gt;Node8</title>
<path fill="none" stroke="midnightblue" d="M277.69,-270.7C286.09,-245.69 303.6,-200.26 329,-168 340.88,-152.91 358.73,-139.69 371.07,-131.55"/>
<polygon fill="midnightblue" stroke="midnightblue" points="274.32,-269.76 274.57,-280.35 280.98,-271.92 274.32,-269.76"/>
</g>
<!-- Node9 -->
<g id="node9" class="node">
<title>Node9</title>
<g id="a_node9"><a xlink:href="tutorial_8h.html" target="_top" xlink:title=" ">
<polygon fill="white" stroke="black" points="234,-112.5 234,-131.5 312,-131.5 312,-112.5 234,-112.5"/>
<text text-anchor="middle" x="273" y="-119.5" font-family="Helvetica,sans-Serif" font-size="10.00">src/tutorial.h</text>
</a>
</g>
</g>
<!-- Node7&#45;&gt;Node9 -->
<g id="edge9" class="edge">
<title>Node7&#45;&gt;Node9</title>
<path fill="none" stroke="midnightblue" d="M264.95,-270.74C262.19,-262.67 259.37,-253 258,-244 252.93,-210.61 252.59,-201.34 258,-168 260.11,-154.99 265.44,-140.67 269.14,-131.75"/>
<polygon fill="midnightblue" stroke="midnightblue" points="261.69,-272.02 268.4,-280.22 268.27,-269.63 261.69,-272.02"/>
</g>
<!-- Node10 -->
<g id="node10" class="node">
<title>Node10</title>
<g id="a_node10"><a xlink:href="menu_8h.html" target="_top" xlink:title=" ">
<polygon fill="white" stroke="black" points="431.5,-56.5 431.5,-75.5 502.5,-75.5 502.5,-56.5 431.5,-56.5"/>
<text text-anchor="middle" x="467" y="-63.5" font-family="Helvetica,sans-Serif" font-size="10.00">src/menu.h</text>
</a>
</g>
</g>
<!-- Node9&#45;&gt;Node10 -->
<g id="edge10" class="edge">
<title>Node9&#45;&gt;Node10</title>
<path fill="none" stroke="midnightblue" d="M313.6,-109.7C350.22,-99.51 403.26,-84.74 436.4,-75.52"/>
<polygon fill="midnightblue" stroke="midnightblue" points="312.44,-106.39 303.74,-112.44 314.31,-113.13 312.44,-106.39"/>
</g>
<!-- Node13 -->
<g id="node13" class="node">
<title>Node13</title>
<g id="a_node13"><a xlink:href="tutorial_8cpp.html" target="_top" xlink:title=" ">
<polygon fill="white" stroke="black" points="228.5,-56.5 228.5,-75.5 317.5,-75.5 317.5,-56.5 228.5,-56.5"/>
<text text-anchor="middle" x="273" y="-63.5" font-family="Helvetica,sans-Serif" font-size="10.00">src/tutorial.cpp</text>
</a>
</g>
</g>
<!-- Node9&#45;&gt;Node13 -->
<g id="edge13" class="edge">
<title>Node9&#45;&gt;Node13</title>
<path fill="none" stroke="midnightblue" d="M273,-101.8C273,-92.91 273,-82.78 273,-75.75"/>
<polygon fill="midnightblue" stroke="midnightblue" points="269.5,-102.08 273,-112.08 276.5,-102.08 269.5,-102.08"/>
</g>
<!-- Node11 -->
<g id="node11" class="node">
<title>Node11</title>
<g id="a_node11"><a xlink:href="main_8cpp.html" target="_top" xlink:title=" ">
<polygon fill="white" stroke="black" points="427.5,-0.5 427.5,-19.5 506.5,-19.5 506.5,-0.5 427.5,-0.5"/>
<text text-anchor="middle" x="467" y="-7.5" font-family="Helvetica,sans-Serif" font-size="10.00">src/main.cpp</text>
</a>
</g>
</g>
<!-- Node10&#45;&gt;Node11 -->
<g id="edge11" class="edge">
<title>Node10&#45;&gt;Node11</title>
<path fill="none" stroke="midnightblue" d="M467,-45.8C467,-36.91 467,-26.78 467,-19.75"/>
<polygon fill="midnightblue" stroke="midnightblue" points="463.5,-46.08 467,-56.08 470.5,-46.08 463.5,-46.08"/>
</g>
<!-- Node12 -->
<g id="node12" class="node">
<title>Node12</title>
<g id="a_node12"><a xlink:href="menu_8cpp.html" target="_top" xlink:title=" ">
<polygon fill="white" stroke="black" points="877,-0.5 877,-19.5 959,-19.5 959,-0.5 877,-0.5"/>
<text text-anchor="middle" x="918" y="-7.5" font-family="Helvetica,sans-Serif" font-size="10.00">src/menu.cpp</text>
</a>
</g>
</g>
<!-- Node10&#45;&gt;Node12 -->
<g id="edge12" class="edge">
<title>Node10&#45;&gt;Node12</title>
<path fill="none" stroke="midnightblue" d="M512.72,-59.53C600.72,-48.99 792.4,-26.04 876.75,-15.94"/>
<polygon fill="midnightblue" stroke="midnightblue" points="512.28,-56.05 502.77,-60.72 513.11,-63 512.28,-56.05"/>
</g>
<!-- Node15 -->
<g id="node15" class="node">
<title>Node15</title>
<g id="a_node15"><a xlink:href="application_8h.html" target="_top" xlink:title=" ">
<polygon fill="white" stroke="black" points="338.5,-168.5 338.5,-187.5 435.5,-187.5 435.5,-168.5 338.5,-168.5"/>
<text text-anchor="middle" x="387" y="-175.5" font-family="Helvetica,sans-Serif" font-size="10.00">src/application.h</text>
</a>
</g>
</g>
<!-- Node14&#45;&gt;Node15 -->
<g id="edge15" class="edge">
<title>Node14&#45;&gt;Node15</title>
<path fill="none" stroke="midnightblue" d="M390.6,-272.82C383.37,-264.92 375.79,-254.79 372,-244 365.1,-224.33 375.32,-200.19 381.99,-187.58"/>
<polygon fill="midnightblue" stroke="midnightblue" points="388.33,-275.51 397.84,-280.19 393.33,-270.6 388.33,-275.51"/>
</g>
<!-- Node16 -->
<g id="node16" class="node">
<title>Node16</title>
<g id="a_node16"><a xlink:href="game__rules_8cpp.html" target="_top" xlink:title=" ">
<polygon fill="white" stroke="black" points="453.5,-168.5 453.5,-187.5 564.5,-187.5 564.5,-168.5 453.5,-168.5"/>
<text text-anchor="middle" x="509" y="-175.5" font-family="Helvetica,sans-Serif" font-size="10.00">src/game_rules.cpp</text>
</a>
</g>
</g>
<!-- Node14&#45;&gt;Node16 -->
<g id="edge19" class="edge">
<title>Node14&#45;&gt;Node16</title>
<path fill="none" stroke="midnightblue" d="M415.02,-270.73C420.98,-256.84 430.56,-237.81 443,-224 457.01,-208.44 477.46,-195.58 491.87,-187.65"/>
<polygon fill="midnightblue" stroke="midnightblue" points="411.69,-269.61 411.17,-280.19 418.18,-272.25 411.69,-269.61"/>
</g>
<!-- Node15&#45;&gt;Node8 -->
<g id="edge16" class="edge">
<title>Node15&#45;&gt;Node8</title>
<path fill="none" stroke="midnightblue" d="M386.29,-157.8C385.96,-148.91 385.58,-138.78 385.32,-131.75"/>
<polygon fill="midnightblue" stroke="midnightblue" points="382.8,-158.22 386.67,-168.08 389.8,-157.96 382.8,-158.22"/>
</g>
<!-- Node15&#45;&gt;Node9 -->
<g id="edge18" class="edge">
<title>Node15&#45;&gt;Node9</title>
<path fill="none" stroke="midnightblue" d="M359.76,-164.1C338.46,-154.01 309.46,-140.27 290.98,-131.52"/>
<polygon fill="midnightblue" stroke="midnightblue" points="358.4,-167.33 368.94,-168.44 361.4,-161 358.4,-167.33"/>
</g>
<!-- Node15&#45;&gt;Node10 -->
<g id="edge17" class="edge">
<title>Node15&#45;&gt;Node10</title>
<path fill="none" stroke="midnightblue" d="M413.09,-163.11C425.28,-155.42 439.05,-144.81 448,-132 460.25,-114.46 464.69,-89.01 466.23,-75.76"/>
<polygon fill="midnightblue" stroke="midnightblue" points="410.98,-160.29 404.18,-168.41 414.56,-166.31 410.98,-160.29"/>
</g>
<!-- Node18&#45;&gt;Node15 -->
<g id="edge22" class="edge">
<title>Node18&#45;&gt;Node15</title>
<path fill="none" stroke="midnightblue" d="M710.2,-283.27C626.11,-272.64 454.6,-250.35 443,-244 418.7,-230.69 400.15,-202.41 391.82,-187.94"/>
<polygon fill="midnightblue" stroke="midnightblue" points="709.88,-286.76 720.24,-284.54 710.76,-279.82 709.88,-286.76"/>
</g>
<!-- Node19 -->
<g id="node19" class="node">
<title>Node19</title>
<g id="a_node19"><a xlink:href="custom__ai_8cpp.html" target="_top" xlink:title=" ">
<polygon fill="white" stroke="black" points="621,-168.5 621,-187.5 725,-187.5 725,-168.5 621,-168.5"/>
<text text-anchor="middle" x="673" y="-175.5" font-family="Helvetica,sans-Serif" font-size="10.00">src/custom_ai.cpp</text>
</a>
</g>
</g>
<!-- Node18&#45;&gt;Node19 -->
<g id="edge23" class="edge">
<title>Node18&#45;&gt;Node19</title>
<path fill="none" stroke="midnightblue" d="M770.21,-272.33C780.12,-258.58 789.94,-238.96 780,-224 767.29,-204.86 744.68,-193.85 723.51,-187.51"/>
<polygon fill="midnightblue" stroke="midnightblue" points="767.29,-270.38 763.89,-280.42 772.81,-274.69 767.29,-270.38"/>
</g>
<!-- Node20 -->
<g id="node20" class="node">
<title>Node20</title>
<g id="a_node20"><a xlink:href="custom__ai_8h.html" target="_top" xlink:title=" ">
<polygon fill="white" stroke="black" points="678.5,-224.5 678.5,-243.5 771.5,-243.5 771.5,-224.5 678.5,-224.5"/>
<text text-anchor="middle" x="725" y="-231.5" font-family="Helvetica,sans-Serif" font-size="10.00">src/custom_ai.h</text>
</a>
</g>
</g>
<!-- Node18&#45;&gt;Node20 -->
<g id="edge24" class="edge">
<title>Node18&#45;&gt;Node20</title>
<path fill="none" stroke="midnightblue" d="M745.82,-271.27C740.53,-262.05 734.28,-251.17 730.02,-243.75"/>
<polygon fill="midnightblue" stroke="midnightblue" points="742.87,-273.15 750.88,-280.08 748.94,-269.67 742.87,-273.15"/>
</g>
<!-- Node21 -->
<g id="node21" class="node">
<title>Node21</title>
<g id="a_node21"><a xlink:href="custom__ai2_8cpp.html" target="_top" xlink:title=" ">
<polygon fill="white" stroke="black" points="1105,-168.5 1105,-187.5 1215,-187.5 1215,-168.5 1105,-168.5"/>
<text text-anchor="middle" x="1160" y="-175.5" font-family="Helvetica,sans-Serif" font-size="10.00">src/custom_ai2.cpp</text>
</a>
</g>
</g>
<!-- Node18&#45;&gt;Node21 -->
<g id="edge27" class="edge">
<title>Node18&#45;&gt;Node21</title>
<path fill="none" stroke="midnightblue" d="M801.81,-283C866.52,-274.22 981.24,-257.45 1021,-244 1039.08,-237.88 1041.83,-232.33 1059,-224 1086.63,-210.59 1119.18,-196.36 1139.7,-187.58"/>
<polygon fill="midnightblue" stroke="midnightblue" points="801.32,-279.53 791.88,-284.34 802.25,-286.47 801.32,-279.53"/>
</g>
<!-- Node22 -->
<g id="node22" class="node">
<title>Node22</title>
<g id="a_node22"><a xlink:href="custom__ai2_8h.html" target="_top" xlink:title=" ">
<polygon fill="white" stroke="black" points="1172.5,-224.5 1172.5,-243.5 1271.5,-243.5 1271.5,-224.5 1172.5,-224.5"/>
<text text-anchor="middle" x="1222" y="-231.5" font-family="Helvetica,sans-Serif" font-size="10.00">src/custom_ai2.h</text>
</a>
</g>
</g>
<!-- Node18&#45;&gt;Node22 -->
<g id="edge28" class="edge">
<title>Node18&#45;&gt;Node22</title>
<path fill="none" stroke="midnightblue" d="M801.69,-284C904.26,-272.77 1145.28,-246.33 1163,-244 1166.08,-243.59 1169.25,-243.16 1172.45,-242.71"/>
<polygon fill="midnightblue" stroke="midnightblue" points="801.19,-280.53 791.63,-285.1 801.95,-287.49 801.19,-280.53"/>
</g>
<!-- Node23 -->
<g id="node23" class="node">
<title>Node23</title>
<g id="a_node23"><a xlink:href="minimax_8h.html" target="_top" xlink:title=" ">
<polygon fill="white" stroke="black" points="1068,-224.5 1068,-243.5 1154,-243.5 1154,-224.5 1068,-224.5"/>
<text text-anchor="middle" x="1111" y="-231.5" font-family="Helvetica,sans-Serif" font-size="10.00">src/minimax.h</text>
</a>
</g>
</g>
<!-- Node18&#45;&gt;Node23 -->
<g id="edge31" class="edge">
<title>Node18&#45;&gt;Node23</title>
<path fill="none" stroke="midnightblue" d="M801.82,-282.18C860.34,-273.44 964.73,-257.79 1054,-244 1058.46,-243.31 1063.11,-242.59 1067.74,-241.86"/>
<polygon fill="midnightblue" stroke="midnightblue" points="801.17,-278.74 791.79,-283.67 802.2,-285.66 801.17,-278.74"/>
</g>
<!-- Node25 -->
<g id="node25" class="node">
<title>Node25</title>
<g id="a_node25"><a xlink:href="move_8cpp.html" target="_top" xlink:title=" ">
<polygon fill="white" stroke="black" points="828,-224.5 828,-243.5 910,-243.5 910,-224.5 828,-224.5"/>
<text text-anchor="middle" x="869" y="-231.5" font-family="Helvetica,sans-Serif" font-size="10.00">src/move.cpp</text>
</a>
</g>
</g>
<!-- Node18&#45;&gt;Node25 -->
<g id="edge34" class="edge">
<title>Node18&#45;&gt;Node25</title>
<path fill="none" stroke="midnightblue" d="M783,-276.1C804.11,-266.01 832.86,-252.27 851.18,-243.52"/>
<polygon fill="midnightblue" stroke="midnightblue" points="781.42,-272.97 773.91,-280.44 784.44,-279.29 781.42,-272.97"/>
</g>
<!-- Node18&#45;&gt;Node26 -->
<g id="edge35" class="edge">
<title>Node18&#45;&gt;Node26</title>
<path fill="none" stroke="midnightblue" d="M710.45,-280.24C664.4,-271.32 591.19,-257.01 528,-244 525.37,-243.46 522.65,-242.89 519.92,-242.32"/>
<polygon fill="midnightblue" stroke="midnightblue" points="709.94,-283.7 720.42,-282.16 711.27,-276.83 709.94,-283.7"/>
</g>
<!-- Node20&#45;&gt;Node12 -->
<g id="edge26" class="edge">
<title>Node20&#45;&gt;Node12</title>
<path fill="none" stroke="midnightblue" d="M668.22,-222.25C632.15,-212.57 595.18,-195.54 612,-168 670.44,-72.33 807.75,-32.54 876.81,-18.13"/>
<polygon fill="midnightblue" stroke="midnightblue" points="667.77,-225.74 678.32,-224.79 669.47,-218.95 667.77,-225.74"/>
</g>
<!-- Node20&#45;&gt;Node19 -->
<g id="edge25" class="edge">
<title>Node20&#45;&gt;Node19</title>
<path fill="none" stroke="midnightblue" d="M709.32,-216.72C700.16,-207.2 688.95,-195.56 681.43,-187.75"/>
<polygon fill="midnightblue" stroke="midnightblue" points="706.96,-219.31 716.41,-224.08 712,-214.45 706.96,-219.31"/>
</g>
<!-- Node22&#45;&gt;Node12 -->
<g id="edge30" class="edge">
<title>Node22&#45;&gt;Node12</title>
<path fill="none" stroke="midnightblue" d="M1232.57,-215.19C1238.99,-202.06 1245.07,-183.82 1240,-168 1230.67,-138.87 1222.09,-133.16 1200,-112 1167.06,-80.45 1155.99,-73.82 1114,-56 1062.9,-34.31 999.67,-22.2 959.09,-16.14"/>
<polygon fill="midnightblue" stroke="midnightblue" points="1229.43,-213.64 1227.77,-224.1 1235.59,-216.96 1229.43,-213.64"/>
</g>
<!-- Node22&#45;&gt;Node21 -->
<g id="edge29" class="edge">
<title>Node22&#45;&gt;Node21</title>
<path fill="none" stroke="midnightblue" d="M1204.25,-217.54C1193.19,-207.91 1179.37,-195.87 1170.14,-187.83"/>
<polygon fill="midnightblue" stroke="midnightblue" points="1202.2,-220.4 1212.04,-224.32 1206.8,-215.12 1202.2,-220.4"/>
</g>
<!-- Node23&#45;&gt;Node12 -->
<g id="edge32" class="edge">
<title>Node23&#45;&gt;Node12</title>
<path fill="none" stroke="midnightblue" d="M1164.19,-223.19C1201.33,-213.69 1241.38,-196.46 1224,-168 1165.56,-72.33 1028.25,-32.54 959.19,-18.13"/>
<polygon fill="midnightblue" stroke="midnightblue" points="1163.26,-219.81 1154.35,-225.55 1164.89,-226.62 1163.26,-219.81"/>
</g>
<!-- Node24 -->
<g id="node24" class="node">
<title>Node24</title>
<g id="a_node24"><a xlink:href="minimax_8cpp.html" target="_top" xlink:title=" ">
<polygon fill="white" stroke="black" points="839,-168.5 839,-187.5 937,-187.5 937,-168.5 839,-168.5"/>
<text text-anchor="middle" x="888" y="-175.5" font-family="Helvetica,sans-Serif" font-size="10.00">src/minimax.cpp</text>
</a>
</g>
</g>
<!-- Node23&#45;&gt;Node24 -->
<g id="edge33" class="edge">
<title>Node23&#45;&gt;Node24</title>
<path fill="none" stroke="midnightblue" d="M1065.94,-222.09C1023.81,-211.89 961.76,-196.86 923.17,-187.52"/>
<polygon fill="midnightblue" stroke="midnightblue" points="1065.12,-225.49 1075.66,-224.44 1066.77,-218.69 1065.12,-225.49"/>
</g>
<!-- Node26&#45;&gt;Node15 -->
<g id="edge36" class="edge">
<title>Node26&#45;&gt;Node15</title>
<path fill="none" stroke="midnightblue" d="M461.16,-219.45C442.89,-209.48 418.58,-196.23 402.87,-187.65"/>
<polygon fill="midnightblue" stroke="midnightblue" points="459.64,-222.61 470.09,-224.32 462.99,-216.46 459.64,-222.61"/>
</g>
<!-- Node26&#45;&gt;Node16 -->
<g id="edge39" class="edge">
<title>Node26&#45;&gt;Node16</title>
<path fill="none" stroke="midnightblue" d="M493.8,-214.69C497.68,-205.59 502.18,-195.01 505.27,-187.75"/>
<polygon fill="midnightblue" stroke="midnightblue" points="490.5,-213.51 489.8,-224.08 496.94,-216.25 490.5,-213.51"/>
</g>
<!-- Node26&#45;&gt;Node19 -->
<g id="edge37" class="edge">
<title>Node26&#45;&gt;Node19</title>
<path fill="none" stroke="midnightblue" d="M525.59,-221.57C560.87,-211.38 611.69,-196.7 643.51,-187.52"/>
<polygon fill="midnightblue" stroke="midnightblue" points="524.27,-218.31 515.63,-224.44 526.21,-225.03 524.27,-218.31"/>
</g>
<!-- Node26&#45;&gt;Node21 -->
<g id="edge38" class="edge">
<title>Node26&#45;&gt;Node21</title>
<path fill="none" stroke="midnightblue" d="M529.98,-223.91C780.34,-190.04 847.67,-213.29 1096,-188 1098.9,-187.7 1101.88,-187.38 1104.87,-187.02"/>
<polygon fill="midnightblue" stroke="midnightblue" points="529.28,-220.47 519.85,-225.3 530.23,-227.41 529.28,-220.47"/>
</g>
<!-- Node26&#45;&gt;Node24 -->
<g id="edge40" class="edge">
<title>Node26&#45;&gt;Node24</title>
<path fill="none" stroke="midnightblue" d="M530.05,-223.78C663.1,-202.02 699.35,-205.92 830,-188 832.93,-187.6 835.94,-187.17 838.97,-186.73"/>
<polygon fill="midnightblue" stroke="midnightblue" points="529.17,-220.38 519.87,-225.46 530.31,-227.28 529.17,-220.38"/>
</g>
<!-- Node27 -->
<g id="node27" class="node">
<title>Node27</title>
<g id="a_node27"><a xlink:href="rules_8cpp.html" target="_top" xlink:title=" ">
<polygon fill="white" stroke="black" points="743,-168.5 743,-187.5 821,-187.5 821,-168.5 743,-168.5"/>
<text text-anchor="middle" x="782" y="-175.5" font-family="Helvetica,sans-Serif" font-size="10.00">src/rules.cpp</text>
</a>
</g>
</g>
<!-- Node26&#45;&gt;Node27 -->
<g id="edge41" class="edge">
<title>Node26&#45;&gt;Node27</title>
<path fill="none" stroke="midnightblue" d="M529.83,-223.69C620.91,-206.13 645.67,-204 734,-188 736.92,-187.47 739.94,-186.92 742.97,-186.36"/>
<polygon fill="midnightblue" stroke="midnightblue" points="529.05,-220.28 519.9,-225.62 530.39,-227.15 529.05,-220.28"/>
</g>
<!-- Node28&#45;&gt;Node4 -->
<g id="edge45" class="edge">
<title>Node28&#45;&gt;Node4</title>
<path fill="none" stroke="midnightblue" d="M644.14,-341.89C557.96,-335.88 368.59,-321.38 210,-300 203.05,-299.06 195.6,-297.86 188.6,-296.64"/>
<polygon fill="midnightblue" stroke="midnightblue" points="644.16,-345.4 654.38,-342.6 644.64,-338.42 644.16,-345.4"/>
</g>
<!-- Node28&#45;&gt;Node7 -->
<g id="edge46" class="edge">
<title>Node28&#45;&gt;Node7</title>
<path fill="none" stroke="midnightblue" d="M644.09,-338.95C565.47,-328.82 407.65,-308.48 325.09,-297.84"/>
<polygon fill="midnightblue" stroke="midnightblue" points="643.82,-342.45 654.18,-340.26 644.71,-335.51 643.82,-342.45"/>
</g>
<!-- Node28&#45;&gt;Node14 -->
<g id="edge47" class="edge">
<title>Node28&#45;&gt;Node14</title>
<path fill="none" stroke="midnightblue" d="M644.44,-336.12C591.27,-325.97 504.89,-309.49 452.56,-299.5"/>
<polygon fill="midnightblue" stroke="midnightblue" points="643.81,-339.56 654.29,-338 645.13,-332.68 643.81,-339.56"/>
</g>
<!-- Node28&#45;&gt;Node18 -->
<g id="edge52" class="edge">
<title>Node28&#45;&gt;Node18</title>
<path fill="none" stroke="midnightblue" d="M709.27,-329.82C720.92,-320.15 735.6,-307.95 745.37,-299.83"/>
<polygon fill="midnightblue" stroke="midnightblue" points="706.9,-327.24 701.44,-336.32 711.37,-332.63 706.9,-327.24"/>
</g>
<!-- Node28&#45;&gt;Node20 -->
<g id="edge43" class="edge">
<title>Node28&#45;&gt;Node20</title>
<path fill="none" stroke="midnightblue" d="M696.67,-326.52C700.66,-313.51 706.15,-295.69 711,-280 714.92,-267.34 719.48,-252.68 722.31,-243.62"/>
<polygon fill="midnightblue" stroke="midnightblue" points="693.3,-325.58 693.71,-336.17 699.99,-327.63 693.3,-325.58"/>
</g>
<!-- Node28&#45;&gt;Node22 -->
<g id="edge44" class="edge">
<title>Node28&#45;&gt;Node22</title>
<path fill="none" stroke="midnightblue" d="M737.6,-339.46C795.48,-332.21 897.09,-318.24 983,-300 1060.61,-283.52 1150.49,-257.03 1194.64,-243.52"/>
<polygon fill="midnightblue" stroke="midnightblue" points="737.15,-335.99 727.66,-340.7 738.01,-342.94 737.15,-335.99"/>
</g>
<!-- Node28&#45;&gt;Node23 -->
<g id="edge51" class="edge">
<title>Node28&#45;&gt;Node23</title>
<path fill="none" stroke="midnightblue" d="M737.92,-339.23C788.61,-332.37 871.45,-319.37 941,-300 997.31,-284.32 1061.02,-257.35 1092.02,-243.61"/>
<polygon fill="midnightblue" stroke="midnightblue" points="737.37,-335.77 727.92,-340.55 738.29,-342.71 737.37,-335.77"/>
</g>
<!-- Node28&#45;&gt;Node26 -->
<g id="edge54" class="edge">
<title>Node28&#45;&gt;Node26</title>
<path fill="none" stroke="midnightblue" d="M644.24,-337.68C613.61,-331.28 573.72,-319.82 543,-300 519.54,-284.86 500.08,-257.41 491.19,-243.53"/>
<polygon fill="midnightblue" stroke="midnightblue" points="643.75,-341.15 654.24,-339.65 645.11,-334.28 643.75,-341.15"/>
</g>
<!-- Node29 -->
<g id="node29" class="node">
<title>Node29</title>
<g id="a_node29"><a xlink:href="human__player_8h.html" target="_top" xlink:title=" ">
<polygon fill="white" stroke="black" points="552,-280.5 552,-299.5 664,-299.5 664,-280.5 552,-280.5"/>
<text text-anchor="middle" x="608" y="-287.5" font-family="Helvetica,sans-Serif" font-size="10.00">src/human_player.h</text>
</a>
</g>
</g>
<!-- Node28&#45;&gt;Node29 -->
<g id="edge48" class="edge">
<title>Node28&#45;&gt;Node29</title>
<path fill="none" stroke="midnightblue" d="M668.9,-330.62C653.74,-320.76 634.12,-307.99 621.3,-299.65"/>
<polygon fill="midnightblue" stroke="midnightblue" points="667.37,-333.8 677.66,-336.32 671.19,-327.94 667.37,-333.8"/>
</g>
<!-- Node31 -->
<g id="node31" class="node">
<title>Node31</title>
<g id="a_node31"><a xlink:href="player_8cpp.html" target="_top" xlink:title=" ">
<polygon fill="white" stroke="black" points="848,-280.5 848,-299.5 932,-299.5 932,-280.5 848,-280.5"/>
<text text-anchor="middle" x="890" y="-287.5" font-family="Helvetica,sans-Serif" font-size="10.00">src/player.cpp</text>
</a>
</g>
</g>
<!-- Node28&#45;&gt;Node31 -->
<g id="edge53" class="edge">
<title>Node28&#45;&gt;Node31</title>
<path fill="none" stroke="midnightblue" d="M732.65,-333.7C770.21,-323.51 824.61,-308.74 858.62,-299.52"/>
<polygon fill="midnightblue" stroke="midnightblue" points="731.27,-330.45 722.53,-336.44 733.1,-337.2 731.27,-330.45"/>
</g>
<!-- Node28&#45;&gt;Node32 -->
<g id="edge55" class="edge">
<title>Node28&#45;&gt;Node32</title>
<path fill="none" stroke="midnightblue" d="M722.83,-332.66C744.73,-323.98 774.37,-311.84 800,-300 817.68,-291.83 821.08,-287.63 839,-280 873.52,-265.31 914.61,-251.81 941.45,-243.51"/>
<polygon fill="midnightblue" stroke="midnightblue" points="721.38,-329.47 713.36,-336.39 723.95,-335.98 721.38,-329.47"/>
</g>
<!-- Node29&#45;&gt;Node9 -->
<g id="edge50" class="edge">
<title>Node29&#45;&gt;Node9</title>
<path fill="none" stroke="midnightblue" d="M541.9,-279.27C504.04,-272.29 456.22,-261.05 416,-244 373.66,-226.05 363.7,-218.18 329,-188 308.54,-170.21 288.87,-144.86 279.2,-131.69"/>
<polygon fill="midnightblue" stroke="midnightblue" points="541.34,-282.72 551.8,-281.04 542.57,-275.83 541.34,-282.72"/>
</g>
<!-- Node30 -->
<g id="node30" class="node">
<title>Node30</title>
<g id="a_node30"><a xlink:href="human__player_8cpp.html" target="_top" xlink:title=" ">
<polygon fill="white" stroke="black" points="537.5,-224.5 537.5,-243.5 660.5,-243.5 660.5,-224.5 537.5,-224.5"/>
<text text-anchor="middle" x="599" y="-231.5" font-family="Helvetica,sans-Serif" font-size="10.00">src/human_player.cpp</text>
</a>
</g>
</g>
<!-- Node29&#45;&gt;Node30 -->
<g id="edge49" class="edge">
<title>Node29&#45;&gt;Node30</title>
<path fill="none" stroke="midnightblue" d="M604.85,-270.1C603.36,-261.14 601.64,-250.86 600.46,-243.75"/>
<polygon fill="midnightblue" stroke="midnightblue" points="601.42,-270.79 606.51,-280.08 608.32,-269.64 601.42,-270.79"/>
</g>
<!-- Node32&#45;&gt;Node8 -->
<g id="edge56" class="edge">
<title>Node32&#45;&gt;Node8</title>
<path fill="none" stroke="midnightblue" d="M968.38,-213.86C966.01,-198.86 960.21,-178.77 946,-168 906.19,-137.83 571.99,-127.14 439.14,-124.07"/>
<polygon fill="midnightblue" stroke="midnightblue" points="964.94,-214.59 969.6,-224.11 971.89,-213.77 964.94,-214.59"/>
</g>
<!-- Node32&#45;&gt;Node19 -->
<g id="edge57" class="edge">
<title>Node32&#45;&gt;Node19</title>
<path fill="none" stroke="midnightblue" d="M918.34,-223.61C862.41,-213.44 773.98,-197.36 719.96,-187.54"/>
<polygon fill="midnightblue" stroke="midnightblue" points="917.93,-227.09 928.39,-225.43 919.18,-220.2 917.93,-227.09"/>
</g>
<!-- Node32&#45;&gt;Node21 -->
<g id="edge58" class="edge">
<title>Node32&#45;&gt;Node21</title>
<path fill="none" stroke="midnightblue" d="M1009.76,-221.7C1045.62,-211.51 1097.57,-196.74 1130.03,-187.52"/>
<polygon fill="midnightblue" stroke="midnightblue" points="1008.77,-218.34 1000.11,-224.44 1010.68,-225.08 1008.77,-218.34"/>
</g>
<!-- Node32&#45;&gt;Node24 -->
<g id="edge59" class="edge">
<title>Node32&#45;&gt;Node24</title>
<path fill="none" stroke="midnightblue" d="M948.17,-218.62C933.19,-208.76 913.8,-195.99 901.14,-187.65"/>
<polygon fill="midnightblue" stroke="midnightblue" points="946.55,-221.75 956.83,-224.32 950.4,-215.9 946.55,-221.75"/>
</g>
<!-- Node32&#45;&gt;Node27 -->
<g id="edge60" class="edge">
<title>Node32&#45;&gt;Node27</title>
<path fill="none" stroke="midnightblue" d="M930.2,-221.57C894.73,-211.38 843.63,-196.7 811.65,-187.52"/>
<polygon fill="midnightblue" stroke="midnightblue" points="929.63,-225.05 940.21,-224.44 931.57,-218.32 929.63,-225.05"/>
</g>
<!-- Node33 -->
<g id="node33" class="node">
<title>Node33</title>
<g id="a_node33"><a xlink:href="validate_8cpp.html" target="_top" xlink:title=" ">
<polygon fill="white" stroke="black" points="993,-168.5 993,-187.5 1087,-187.5 1087,-168.5 993,-168.5"/>
<text text-anchor="middle" x="1040" y="-175.5" font-family="Helvetica,sans-Serif" font-size="10.00">src/validate.cpp</text>
</a>
</g>
</g>
<!-- Node32&#45;&gt;Node33 -->
<g id="edge61" class="edge">
<title>Node32&#45;&gt;Node33</title>
<path fill="none" stroke="midnightblue" d="M989.31,-218.1C1001.91,-208.38 1017.93,-196.03 1028.55,-187.83"/>
<polygon fill="midnightblue" stroke="midnightblue" points="987.03,-215.44 981.25,-224.32 991.3,-220.99 987.03,-215.44"/>
</g>
</g>
</svg>
