<?xml version="1.0" encoding="UTF-8" standalone="no"?>
<!DOCTYPE svg PUBLIC "-//W3C//DTD SVG 1.1//EN"
 "http://www.w3.org/Graphics/SVG/1.1/DTD/svg11.dtd">
<!-- Generated by graphviz version 2.43.0 (0)
 -->
<!-- Title: src/menu.h Pages: 1 -->
<svg width="1091pt" height="588pt"
 viewBox="0.00 0.00 1091.00 588.00" xmlns="http://www.w3.org/2000/svg" xmlns:xlink="http://www.w3.org/1999/xlink">
<g id="graph0" class="graph" transform="scale(1 1) rotate(0) translate(4 584)">
<title>src/menu.h</title>
<polygon fill="white" stroke="transparent" points="-4,4 -4,-584 1087,-584 1087,4 -4,4"/>
<!-- Node1 -->
<g id="node1" class="node">
<title>Node1</title>
<g id="a_node1"><a xlink:title=" ">
<polygon fill="#bfbfbf" stroke="black" points="933.5,-560.5 933.5,-579.5 1004.5,-579.5 1004.5,-560.5 933.5,-560.5"/>
<text text-anchor="middle" x="969" y="-567.5" font-family="Helvetica,sans-Serif" font-size="10.00">src/menu.h</text>
</a>
</g>
</g>
<!-- Node2 -->
<g id="node2" class="node">
<title>Node2</title>
<g id="a_node2"><a xlink:title=" ">
<polygon fill="white" stroke="#bfbfbf" points="594,-0.5 594,-19.5 654,-19.5 654,-0.5 594,-0.5"/>
<text text-anchor="middle" x="624" y="-7.5" font-family="Helvetica,sans-Serif" font-size="10.00">iostream</text>
</a>
</g>
</g>
<!-- Node1&#45;&gt;Node2 -->
<g id="edge1" class="edge">
<title>Node1&#45;&gt;Node2</title>
<path fill="none" stroke="midnightblue" d="M989.64,-560.42C1022.5,-545.23 1083,-510.29 1083,-459 1083,-459 1083,-459 1083,-121 1083,-35.27 776.34,-16.19 664.33,-12.09"/>
<polygon fill="midnightblue" stroke="midnightblue" points="664.23,-8.58 654.12,-11.74 663.99,-15.58 664.23,-8.58"/>
</g>
<!-- Node3 -->
<g id="node3" class="node">
<title>Node3</title>
<g id="a_node3"><a xlink:href="application_8h.html" target="_top" xlink:title=" ">
<polygon fill="white" stroke="black" points="745,-448.5 745,-467.5 825,-467.5 825,-448.5 745,-448.5"/>
<text text-anchor="middle" x="785" y="-455.5" font-family="Helvetica,sans-Serif" font-size="10.00">application.h</text>
</a>
</g>
</g>
<!-- Node1&#45;&gt;Node3 -->
<g id="edge2" class="edge">
<title>Node1&#45;&gt;Node3</title>
<path fill="none" stroke="midnightblue" d="M954.56,-560.37C922.85,-541.41 846.89,-496 808.32,-472.94"/>
<polygon fill="midnightblue" stroke="midnightblue" points="809.75,-469.72 799.37,-467.59 806.16,-475.73 809.75,-469.72"/>
</g>
<!-- Node20 -->
<g id="node20" class="node">
<title>Node20</title>
<g id="a_node20"><a xlink:href="tutorial_8h.html" target="_top" xlink:title=" ">
<polygon fill="white" stroke="black" points="938.5,-504.5 938.5,-523.5 999.5,-523.5 999.5,-504.5 938.5,-504.5"/>
<text text-anchor="middle" x="969" y="-511.5" font-family="Helvetica,sans-Serif" font-size="10.00">tutorial.h</text>
</a>
</g>
</g>
<!-- Node1&#45;&gt;Node20 -->
<g id="edge44" class="edge">
<title>Node1&#45;&gt;Node20</title>
<path fill="none" stroke="midnightblue" d="M969,-560.08C969,-553.01 969,-542.86 969,-533.99"/>
<polygon fill="midnightblue" stroke="midnightblue" points="972.5,-533.75 969,-523.75 965.5,-533.75 972.5,-533.75"/>
</g>
<!-- Node3&#45;&gt;Node2 -->
<g id="edge3" class="edge">
<title>Node3&#45;&gt;Node2</title>
<path fill="none" stroke="midnightblue" d="M793.6,-448.47C810.19,-431.04 845,-389.42 845,-347 845,-347 845,-347 845,-121 845,-41.23 728.16,-19.3 664.39,-13.28"/>
<polygon fill="midnightblue" stroke="midnightblue" points="664.53,-9.78 654.27,-12.42 663.93,-16.76 664.53,-9.78"/>
</g>
<!-- Node4 -->
<g id="node4" class="node">
<title>Node4</title>
<g id="a_node4"><a xlink:href="rules_8h.html" target="_top" xlink:title=" ">
<polygon fill="white" stroke="black" points="544,-392.5 544,-411.5 594,-411.5 594,-392.5 544,-392.5"/>
<text text-anchor="middle" x="569" y="-399.5" font-family="Helvetica,sans-Serif" font-size="10.00">rules.h</text>
</a>
</g>
</g>
<!-- Node3&#45;&gt;Node4 -->
<g id="edge4" class="edge">
<title>Node3&#45;&gt;Node4</title>
<path fill="none" stroke="midnightblue" d="M750.77,-448.44C710.64,-438.41 644.46,-421.87 603.99,-411.75"/>
<polygon fill="midnightblue" stroke="midnightblue" points="604.84,-408.35 594.29,-409.32 603.14,-415.14 604.84,-408.35"/>
</g>
<!-- Node18 -->
<g id="node18" class="node">
<title>Node18</title>
<g id="a_node18"><a xlink:href="move_8h.html" target="_top" xlink:title=" ">
<polygon fill="white" stroke="black" points="487.5,-336.5 487.5,-355.5 540.5,-355.5 540.5,-336.5 487.5,-336.5"/>
<text text-anchor="middle" x="514" y="-343.5" font-family="Helvetica,sans-Serif" font-size="10.00">move.h</text>
</a>
</g>
</g>
<!-- Node3&#45;&gt;Node18 -->
<g id="edge38" class="edge">
<title>Node3&#45;&gt;Node18</title>
<path fill="none" stroke="midnightblue" d="M744.81,-454.71C682.28,-450.36 565.68,-438.81 535,-412 521.76,-400.43 516.82,-380.47 514.99,-365.71"/>
<polygon fill="midnightblue" stroke="midnightblue" points="518.47,-365.33 514.13,-355.67 511.5,-365.93 518.47,-365.33"/>
</g>
<!-- Node19 -->
<g id="node19" class="node">
<title>Node19</title>
<g id="a_node19"><a xlink:href="game__rules_8h.html" target="_top" xlink:title=" ">
<polygon fill="white" stroke="black" points="601.5,-336.5 601.5,-355.5 684.5,-355.5 684.5,-336.5 601.5,-336.5"/>
<text text-anchor="middle" x="643" y="-343.5" font-family="Helvetica,sans-Serif" font-size="10.00">game_rules.h</text>
</a>
</g>
</g>
<!-- Node3&#45;&gt;Node19 -->
<g id="edge39" class="edge">
<title>Node3&#45;&gt;Node19</title>
<path fill="none" stroke="midnightblue" d="M773.86,-448.37C749.7,-429.65 692.25,-385.15 662.15,-361.83"/>
<polygon fill="midnightblue" stroke="midnightblue" points="664.14,-358.95 654.09,-355.59 659.85,-364.48 664.14,-358.95"/>
</g>
<!-- Node4&#45;&gt;Node2 -->
<g id="edge5" class="edge">
<title>Node4&#45;&gt;Node2</title>
<path fill="none" stroke="midnightblue" d="M543.82,-401.57C433.7,-403.39 0,-403.44 0,-291 0,-291 0,-291 0,-121 0,-81.08 25.96,-73.17 62,-56 154.35,-12.02 470.52,-9.86 583.48,-10.55"/>
<polygon fill="midnightblue" stroke="midnightblue" points="583.74,-14.05 593.76,-10.62 583.79,-7.05 583.74,-14.05"/>
</g>
<!-- Node5 -->
<g id="node5" class="node">
<title>Node5</title>
<g id="a_node5"><a xlink:href="board_8h.html" target="_top" xlink:title=" ">
<polygon fill="white" stroke="black" points="538.5,-224.5 538.5,-243.5 591.5,-243.5 591.5,-224.5 538.5,-224.5"/>
<text text-anchor="middle" x="565" y="-231.5" font-family="Helvetica,sans-Serif" font-size="10.00">board.h</text>
</a>
</g>
</g>
<!-- Node4&#45;&gt;Node5 -->
<g id="edge6" class="edge">
<title>Node4&#45;&gt;Node5</title>
<path fill="none" stroke="midnightblue" d="M568.78,-392.08C568.16,-365.95 566.31,-289.21 565.45,-253.58"/>
<polygon fill="midnightblue" stroke="midnightblue" points="568.95,-253.48 565.21,-243.57 561.95,-253.65 568.95,-253.48"/>
</g>
<!-- Node17 -->
<g id="node17" class="node">
<title>Node17</title>
<g id="a_node17"><a xlink:href="player_8h.html" target="_top" xlink:title=" ">
<polygon fill="white" stroke="black" points="685,-280.5 685,-299.5 741,-299.5 741,-280.5 685,-280.5"/>
<text text-anchor="middle" x="713" y="-287.5" font-family="Helvetica,sans-Serif" font-size="10.00">player.h</text>
</a>
</g>
</g>
<!-- Node4&#45;&gt;Node17 -->
<g id="edge30" class="edge">
<title>Node4&#45;&gt;Node17</title>
<path fill="none" stroke="midnightblue" d="M594.23,-398.47C622.17,-394.35 666.71,-383.62 693,-356 704.82,-343.58 709.66,-324.34 711.64,-310.01"/>
<polygon fill="midnightblue" stroke="midnightblue" points="715.15,-310.1 712.7,-299.8 708.19,-309.39 715.15,-310.1"/>
</g>
<!-- Node4&#45;&gt;Node18 -->
<g id="edge34" class="edge">
<title>Node4&#45;&gt;Node18</title>
<path fill="none" stroke="midnightblue" d="M559.92,-392.08C551.83,-384.14 539.8,-372.34 530.09,-362.8"/>
<polygon fill="midnightblue" stroke="midnightblue" points="532.5,-360.26 522.91,-355.75 527.6,-365.25 532.5,-360.26"/>
</g>
<!-- Node5&#45;&gt;Node2 -->
<g id="edge7" class="edge">
<title>Node5&#45;&gt;Node2</title>
<path fill="none" stroke="midnightblue" d="M578.47,-224.35C589.8,-216.34 605.48,-203.35 614,-188 642.83,-136.06 642.1,-114.98 635,-56 633.93,-47.11 631.71,-37.43 629.54,-29.34"/>
<polygon fill="midnightblue" stroke="midnightblue" points="632.84,-28.17 626.73,-19.51 626.11,-30.09 632.84,-28.17"/>
</g>
<!-- Node6 -->
<g id="node6" class="node">
<title>Node6</title>
<g id="a_node6"><a xlink:title=" ">
<polygon fill="white" stroke="#bfbfbf" points="695.5,-56.5 695.5,-75.5 742.5,-75.5 742.5,-56.5 695.5,-56.5"/>
<text text-anchor="middle" x="719" y="-63.5" font-family="Helvetica,sans-Serif" font-size="10.00">vector</text>
</a>
</g>
</g>
<!-- Node5&#45;&gt;Node6 -->
<g id="edge8" class="edge">
<title>Node5&#45;&gt;Node6</title>
<path fill="none" stroke="midnightblue" d="M591.71,-227.43C614.87,-221.34 647.89,-209.46 669,-188 697.46,-159.06 710.55,-111.62 715.86,-85.57"/>
<polygon fill="midnightblue" stroke="midnightblue" points="719.33,-86.01 717.73,-75.54 712.45,-84.73 719.33,-86.01"/>
</g>
<!-- Node7 -->
<g id="node7" class="node">
<title>Node7</title>
<g id="a_node7"><a xlink:href="square_8h.html" target="_top" xlink:title=" ">
<polygon fill="white" stroke="black" points="104.5,-168.5 104.5,-187.5 163.5,-187.5 163.5,-168.5 104.5,-168.5"/>
<text text-anchor="middle" x="134" y="-175.5" font-family="Helvetica,sans-Serif" font-size="10.00">square.h</text>
</a>
</g>
</g>
<!-- Node5&#45;&gt;Node7 -->
<g id="edge9" class="edge">
<title>Node5&#45;&gt;Node7</title>
<path fill="none" stroke="midnightblue" d="M538.16,-231.03C475.83,-226.22 316.36,-212.58 174.02,-188.19"/>
<polygon fill="midnightblue" stroke="midnightblue" points="174.25,-184.67 163.8,-186.41 173.05,-191.57 174.25,-184.67"/>
</g>
<!-- Node10 -->
<g id="node10" class="node">
<title>Node10</title>
<g id="a_node10"><a xlink:href="position_8h.html" target="_top" xlink:title=" ">
<polygon fill="white" stroke="black" points="561.5,-56.5 561.5,-75.5 626.5,-75.5 626.5,-56.5 561.5,-56.5"/>
<text text-anchor="middle" x="594" y="-63.5" font-family="Helvetica,sans-Serif" font-size="10.00">position.h</text>
</a>
</g>
</g>
<!-- Node5&#45;&gt;Node10 -->
<g id="edge17" class="edge">
<title>Node5&#45;&gt;Node10</title>
<path fill="none" stroke="midnightblue" d="M573.75,-224.29C581.56,-215.84 592.45,-202.25 597,-188 608.09,-153.27 602.77,-110.03 598.19,-85.77"/>
<polygon fill="midnightblue" stroke="midnightblue" points="601.58,-84.87 596.13,-75.78 594.72,-86.28 601.58,-84.87"/>
</g>
<!-- Node11 -->
<g id="node11" class="node">
<title>Node11</title>
<g id="a_node11"><a xlink:href="pawn_8h.html" target="_top" xlink:title=" ">
<polygon fill="white" stroke="black" points="397,-168.5 397,-187.5 449,-187.5 449,-168.5 397,-168.5"/>
<text text-anchor="middle" x="423" y="-175.5" font-family="Helvetica,sans-Serif" font-size="10.00">pawn.h</text>
</a>
</g>
</g>
<!-- Node5&#45;&gt;Node11 -->
<g id="edge18" class="edge">
<title>Node5&#45;&gt;Node11</title>
<path fill="none" stroke="midnightblue" d="M542.5,-224.44C518.92,-215.48 481.68,-201.31 455.04,-191.18"/>
<polygon fill="midnightblue" stroke="midnightblue" points="455.99,-187.8 445.4,-187.52 453.5,-194.34 455.99,-187.8"/>
</g>
<!-- Node12 -->
<g id="node12" class="node">
<title>Node12</title>
<g id="a_node12"><a xlink:href="queen_8h.html" target="_top" xlink:title=" ">
<polygon fill="white" stroke="black" points="467,-168.5 467,-187.5 523,-187.5 523,-168.5 467,-168.5"/>
<text text-anchor="middle" x="495" y="-175.5" font-family="Helvetica,sans-Serif" font-size="10.00">queen.h</text>
</a>
</g>
</g>
<!-- Node5&#45;&gt;Node12 -->
<g id="edge20" class="edge">
<title>Node5&#45;&gt;Node12</title>
<path fill="none" stroke="midnightblue" d="M553.75,-224.32C543.2,-216.18 527.2,-203.84 514.56,-194.09"/>
<polygon fill="midnightblue" stroke="midnightblue" points="516.51,-191.17 506.45,-187.83 512.23,-196.71 516.51,-191.17"/>
</g>
<!-- Node13 -->
<g id="node13" class="node">
<title>Node13</title>
<g id="a_node13"><a xlink:href="king_8h.html" target="_top" xlink:title=" ">
<polygon fill="white" stroke="black" points="541.5,-168.5 541.5,-187.5 588.5,-187.5 588.5,-168.5 541.5,-168.5"/>
<text text-anchor="middle" x="565" y="-175.5" font-family="Helvetica,sans-Serif" font-size="10.00">king.h</text>
</a>
</g>
</g>
<!-- Node5&#45;&gt;Node13 -->
<g id="edge22" class="edge">
<title>Node5&#45;&gt;Node13</title>
<path fill="none" stroke="midnightblue" d="M565,-224.08C565,-217.01 565,-206.86 565,-197.99"/>
<polygon fill="midnightblue" stroke="midnightblue" points="568.5,-197.75 565,-187.75 561.5,-197.75 568.5,-197.75"/>
</g>
<!-- Node14 -->
<g id="node14" class="node">
<title>Node14</title>
<g id="a_node14"><a xlink:href="rook_8h.html" target="_top" xlink:title=" ">
<polygon fill="white" stroke="black" points="181.5,-168.5 181.5,-187.5 228.5,-187.5 228.5,-168.5 181.5,-168.5"/>
<text text-anchor="middle" x="205" y="-175.5" font-family="Helvetica,sans-Serif" font-size="10.00">rook.h</text>
</a>
</g>
</g>
<!-- Node5&#45;&gt;Node14 -->
<g id="edge24" class="edge">
<title>Node5&#45;&gt;Node14</title>
<path fill="none" stroke="midnightblue" d="M538.1,-230.49C483.48,-225.14 355.58,-211.32 238.55,-187.86"/>
<polygon fill="midnightblue" stroke="midnightblue" points="239.2,-184.42 228.7,-185.86 237.81,-191.28 239.2,-184.42"/>
</g>
<!-- Node15 -->
<g id="node15" class="node">
<title>Node15</title>
<g id="a_node15"><a xlink:href="bishop_8h.html" target="_top" xlink:title=" ">
<polygon fill="white" stroke="black" points="247,-168.5 247,-187.5 305,-187.5 305,-168.5 247,-168.5"/>
<text text-anchor="middle" x="276" y="-175.5" font-family="Helvetica,sans-Serif" font-size="10.00">bishop.h</text>
</a>
</g>
</g>
<!-- Node5&#45;&gt;Node15 -->
<g id="edge26" class="edge">
<title>Node5&#45;&gt;Node15</title>
<path fill="none" stroke="midnightblue" d="M538.16,-228.69C493.8,-221.45 402.2,-206.06 314.82,-188.08"/>
<polygon fill="midnightblue" stroke="midnightblue" points="315.51,-184.65 305.01,-186.04 314.09,-191.5 315.51,-184.65"/>
</g>
<!-- Node16 -->
<g id="node16" class="node">
<title>Node16</title>
<g id="a_node16"><a xlink:href="knight_8h.html" target="_top" xlink:title=" ">
<polygon fill="white" stroke="black" points="323,-168.5 323,-187.5 379,-187.5 379,-168.5 323,-168.5"/>
<text text-anchor="middle" x="351" y="-175.5" font-family="Helvetica,sans-Serif" font-size="10.00">knight.h</text>
</a>
</g>
</g>
<!-- Node5&#45;&gt;Node16 -->
<g id="edge28" class="edge">
<title>Node5&#45;&gt;Node16</title>
<path fill="none" stroke="midnightblue" d="M538.33,-226.27C500.68,-216.77 431.75,-199.38 388.82,-188.54"/>
<polygon fill="midnightblue" stroke="midnightblue" points="389.58,-185.13 379.03,-186.07 387.87,-191.91 389.58,-185.13"/>
</g>
<!-- Node7&#45;&gt;Node2 -->
<g id="edge10" class="edge">
<title>Node7&#45;&gt;Node2</title>
<path fill="none" stroke="midnightblue" d="M133.89,-168.42C134.21,-154.45 136.98,-126.89 153,-112 215.94,-53.51 481.28,-23.84 583.56,-14.41"/>
<polygon fill="midnightblue" stroke="midnightblue" points="584.15,-17.88 593.79,-13.49 583.52,-10.9 584.15,-17.88"/>
</g>
<!-- Node8 -->
<g id="node8" class="node">
<title>Node8</title>
<g id="a_node8"><a xlink:title=" ">
<polygon fill="white" stroke="#bfbfbf" points="162,-112.5 162,-131.5 220,-131.5 220,-112.5 162,-112.5"/>
<text text-anchor="middle" x="191" y="-119.5" font-family="Helvetica,sans-Serif" font-size="10.00">memory</text>
</a>
</g>
</g>
<!-- Node7&#45;&gt;Node8 -->
<g id="edge11" class="edge">
<title>Node7&#45;&gt;Node8</title>
<path fill="none" stroke="midnightblue" d="M143.16,-168.32C151.5,-160.42 164.03,-148.55 174.18,-138.94"/>
<polygon fill="midnightblue" stroke="midnightblue" points="176.82,-141.25 181.68,-131.83 172.01,-136.17 176.82,-141.25"/>
</g>
<!-- Node9 -->
<g id="node9" class="node">
<title>Node9</title>
<g id="a_node9"><a xlink:href="piece_8h.html" target="_top" xlink:title=" ">
<polygon fill="white" stroke="black" points="433,-112.5 433,-131.5 485,-131.5 485,-112.5 433,-112.5"/>
<text text-anchor="middle" x="459" y="-119.5" font-family="Helvetica,sans-Serif" font-size="10.00">piece.h</text>
</a>
</g>
</g>
<!-- Node7&#45;&gt;Node9 -->
<g id="edge12" class="edge">
<title>Node7&#45;&gt;Node9</title>
<path fill="none" stroke="midnightblue" d="M163.82,-169.71C166.58,-169.1 169.34,-168.52 172,-168 261.54,-150.4 367.88,-135.2 422.54,-127.8"/>
<polygon fill="midnightblue" stroke="midnightblue" points="423.32,-131.23 432.76,-126.42 422.39,-124.29 423.32,-131.23"/>
</g>
<!-- Node9&#45;&gt;Node2 -->
<g id="edge13" class="edge">
<title>Node9&#45;&gt;Node2</title>
<path fill="none" stroke="midnightblue" d="M470.9,-112.39C488.46,-99.75 522.43,-75.56 552,-56 568.24,-45.26 586.88,-33.63 601.13,-24.88"/>
<polygon fill="midnightblue" stroke="midnightblue" points="603.09,-27.79 609.79,-19.58 599.43,-21.81 603.09,-27.79"/>
</g>
<!-- Node9&#45;&gt;Node6 -->
<g id="edge14" class="edge">
<title>Node9&#45;&gt;Node6</title>
<path fill="none" stroke="midnightblue" d="M485.36,-115.53C532.93,-105.65 633.02,-84.86 685.41,-73.98"/>
<polygon fill="midnightblue" stroke="midnightblue" points="686.15,-77.4 695.23,-71.94 684.72,-70.54 686.15,-77.4"/>
</g>
<!-- Node9&#45;&gt;Node10 -->
<g id="edge15" class="edge">
<title>Node9&#45;&gt;Node10</title>
<path fill="none" stroke="midnightblue" d="M480.39,-112.44C502.71,-103.52 537.9,-89.44 563.21,-79.32"/>
<polygon fill="midnightblue" stroke="midnightblue" points="564.72,-82.48 572.71,-75.52 562.12,-75.98 564.72,-82.48"/>
</g>
<!-- Node10&#45;&gt;Node2 -->
<g id="edge16" class="edge">
<title>Node10&#45;&gt;Node2</title>
<path fill="none" stroke="midnightblue" d="M598.95,-56.08C603.1,-48.61 609.15,-37.72 614.27,-28.52"/>
<polygon fill="midnightblue" stroke="midnightblue" points="617.34,-30.19 619.14,-19.75 611.22,-26.79 617.34,-30.19"/>
</g>
<!-- Node11&#45;&gt;Node9 -->
<g id="edge19" class="edge">
<title>Node11&#45;&gt;Node9</title>
<path fill="none" stroke="midnightblue" d="M428.94,-168.08C433.98,-160.53 441.34,-149.49 447.51,-140.23"/>
<polygon fill="midnightblue" stroke="midnightblue" points="450.53,-142.01 453.17,-131.75 444.71,-138.13 450.53,-142.01"/>
</g>
<!-- Node12&#45;&gt;Node9 -->
<g id="edge21" class="edge">
<title>Node12&#45;&gt;Node9</title>
<path fill="none" stroke="midnightblue" d="M489.06,-168.08C484.02,-160.53 476.66,-149.49 470.49,-140.23"/>
<polygon fill="midnightblue" stroke="midnightblue" points="473.29,-138.13 464.83,-131.75 467.47,-142.01 473.29,-138.13"/>
</g>
<!-- Node13&#45;&gt;Node9 -->
<g id="edge23" class="edge">
<title>Node13&#45;&gt;Node9</title>
<path fill="none" stroke="midnightblue" d="M547.97,-168.32C530.97,-159.66 504.62,-146.24 485.01,-136.25"/>
<polygon fill="midnightblue" stroke="midnightblue" points="486.49,-133.08 475.99,-131.65 483.31,-139.31 486.49,-133.08"/>
</g>
<!-- Node14&#45;&gt;Node9 -->
<g id="edge25" class="edge">
<title>Node14&#45;&gt;Node9</title>
<path fill="none" stroke="midnightblue" d="M228.75,-170.32C231.85,-169.51 235,-168.71 238,-168 302.71,-152.6 378.86,-137.83 422.77,-129.62"/>
<polygon fill="midnightblue" stroke="midnightblue" points="423.49,-133.05 432.68,-127.78 422.21,-126.17 423.49,-133.05"/>
</g>
<!-- Node15&#45;&gt;Node9 -->
<g id="edge27" class="edge">
<title>Node15&#45;&gt;Node9</title>
<path fill="none" stroke="midnightblue" d="M305,-168.44C337.01,-159 388.58,-143.78 423.11,-133.59"/>
<polygon fill="midnightblue" stroke="midnightblue" points="424.21,-136.92 432.81,-130.73 422.23,-130.2 424.21,-136.92"/>
</g>
<!-- Node16&#45;&gt;Node9 -->
<g id="edge29" class="edge">
<title>Node16&#45;&gt;Node9</title>
<path fill="none" stroke="midnightblue" d="M368.35,-168.32C385.67,-159.66 412.52,-146.24 432.5,-136.25"/>
<polygon fill="midnightblue" stroke="midnightblue" points="434.31,-139.26 441.69,-131.65 431.18,-133 434.31,-139.26"/>
</g>
<!-- Node17&#45;&gt;Node2 -->
<g id="edge31" class="edge">
<title>Node17&#45;&gt;Node2</title>
<path fill="none" stroke="midnightblue" d="M718.4,-280.4C738.16,-247.71 802.8,-129.31 751,-56 731.5,-28.4 693.56,-17.62 664.21,-13.47"/>
<polygon fill="midnightblue" stroke="midnightblue" points="664.58,-9.99 654.23,-12.26 663.73,-16.93 664.58,-9.99"/>
</g>
<!-- Node17&#45;&gt;Node5 -->
<g id="edge33" class="edge">
<title>Node17&#45;&gt;Node5</title>
<path fill="none" stroke="midnightblue" d="M689.55,-280.44C664.87,-271.44 625.81,-257.19 598.02,-247.05"/>
<polygon fill="midnightblue" stroke="midnightblue" points="598.94,-243.66 588.34,-243.52 596.54,-250.23 598.94,-243.66"/>
</g>
<!-- Node17&#45;&gt;Node6 -->
<g id="edge32" class="edge">
<title>Node17&#45;&gt;Node6</title>
<path fill="none" stroke="midnightblue" d="M713.24,-280.3C714.12,-247.63 717.25,-131.87 718.49,-85.96"/>
<polygon fill="midnightblue" stroke="midnightblue" points="721.99,-85.97 718.76,-75.88 714.99,-85.79 721.99,-85.97"/>
</g>
<!-- Node18&#45;&gt;Node2 -->
<g id="edge35" class="edge">
<title>Node18&#45;&gt;Node2</title>
<path fill="none" stroke="midnightblue" d="M487.39,-344.6C387.15,-342.38 38,-327.98 38,-235 38,-235 38,-235 38,-121 38,-76.89 72.39,-73.22 113,-56 197.72,-20.08 478.65,-12.83 583.8,-11.37"/>
<polygon fill="midnightblue" stroke="midnightblue" points="584.05,-14.87 594,-11.24 583.96,-7.87 584.05,-14.87"/>
</g>
<!-- Node18&#45;&gt;Node5 -->
<g id="edge36" class="edge">
<title>Node18&#45;&gt;Node5</title>
<path fill="none" stroke="midnightblue" d="M518,-336.37C526.31,-318.46 545.56,-276.92 556.68,-252.95"/>
<polygon fill="midnightblue" stroke="midnightblue" points="559.99,-254.14 561.02,-243.59 553.64,-251.19 559.99,-254.14"/>
</g>
<!-- Node18&#45;&gt;Node17 -->
<g id="edge37" class="edge">
<title>Node18&#45;&gt;Node17</title>
<path fill="none" stroke="midnightblue" d="M540.84,-337.72C575.48,-328.32 635.97,-311.9 675.25,-301.24"/>
<polygon fill="midnightblue" stroke="midnightblue" points="676.25,-304.6 684.99,-298.6 674.42,-297.84 676.25,-304.6"/>
</g>
<!-- Node19&#45;&gt;Node2 -->
<g id="edge40" class="edge">
<title>Node19&#45;&gt;Node2</title>
<path fill="none" stroke="midnightblue" d="M601.08,-339.48C483.89,-323.09 157.32,-270.69 95,-188 -31.96,-19.56 440.01,-9.61 583.7,-10.4"/>
<polygon fill="midnightblue" stroke="midnightblue" points="583.83,-13.9 593.85,-10.47 583.88,-6.9 583.83,-13.9"/>
</g>
<!-- Node19&#45;&gt;Node5 -->
<g id="edge42" class="edge">
<title>Node19&#45;&gt;Node5</title>
<path fill="none" stroke="midnightblue" d="M636.88,-336.37C624.01,-318.22 593.93,-275.8 577.05,-251.99"/>
<polygon fill="midnightblue" stroke="midnightblue" points="579.73,-249.72 571.09,-243.59 574.02,-253.77 579.73,-249.72"/>
</g>
<!-- Node19&#45;&gt;Node6 -->
<g id="edge41" class="edge">
<title>Node19&#45;&gt;Node6</title>
<path fill="none" stroke="midnightblue" d="M684.71,-338.89C708.14,-333.09 735.5,-321.82 750,-300 795.68,-231.23 749.8,-125.63 728.54,-84.37"/>
<polygon fill="midnightblue" stroke="midnightblue" points="731.63,-82.72 723.85,-75.53 725.45,-86 731.63,-82.72"/>
</g>
<!-- Node19&#45;&gt;Node17 -->
<g id="edge43" class="edge">
<title>Node19&#45;&gt;Node17</title>
<path fill="none" stroke="midnightblue" d="M654.25,-336.32C664.8,-328.18 680.8,-315.84 693.44,-306.09"/>
<polygon fill="midnightblue" stroke="midnightblue" points="695.77,-308.71 701.55,-299.83 691.49,-303.17 695.77,-308.71"/>
</g>
<!-- Node20&#45;&gt;Node2 -->
<g id="edge45" class="edge">
<title>Node20&#45;&gt;Node2</title>
<path fill="none" stroke="midnightblue" d="M980.54,-504.43C1001.8,-487.57 1045,-447.8 1045,-403 1045,-403 1045,-403 1045,-121 1045,-42.85 770.02,-19.17 664.53,-12.96"/>
<polygon fill="midnightblue" stroke="midnightblue" points="664.46,-9.45 654.28,-12.38 664.06,-16.44 664.46,-9.45"/>
</g>
<!-- Node20&#45;&gt;Node3 -->
<g id="edge54" class="edge">
<title>Node20&#45;&gt;Node3</title>
<path fill="none" stroke="midnightblue" d="M939.84,-504.44C908.49,-495.24 858.47,-480.56 823.8,-470.39"/>
<polygon fill="midnightblue" stroke="midnightblue" points="824.6,-466.97 814.02,-467.52 822.63,-473.69 824.6,-466.97"/>
</g>
<!-- Node21 -->
<g id="node21" class="node">
<title>Node21</title>
<g id="a_node21"><a xlink:href="file__manager_8h.html" target="_top" xlink:title=" ">
<polygon fill="white" stroke="black" points="884.5,-336.5 884.5,-355.5 973.5,-355.5 973.5,-336.5 884.5,-336.5"/>
<text text-anchor="middle" x="929" y="-343.5" font-family="Helvetica,sans-Serif" font-size="10.00">file_manager.h</text>
</a>
</g>
</g>
<!-- Node20&#45;&gt;Node21 -->
<g id="edge46" class="edge">
<title>Node20&#45;&gt;Node21</title>
<path fill="none" stroke="midnightblue" d="M972.17,-504.33C979.15,-483.8 993.91,-431.02 977,-392 971.73,-379.84 961.38,-369.46 951.64,-361.74"/>
<polygon fill="midnightblue" stroke="midnightblue" points="953.5,-358.77 943.37,-355.67 949.36,-364.41 953.5,-358.77"/>
</g>
<!-- Node24 -->
<g id="node24" class="node">
<title>Node24</title>
<g id="a_node24"><a xlink:href="human__player_8h.html" target="_top" xlink:title=" ">
<polygon fill="white" stroke="black" points="873.5,-392.5 873.5,-411.5 968.5,-411.5 968.5,-392.5 873.5,-392.5"/>
<text text-anchor="middle" x="921" y="-399.5" font-family="Helvetica,sans-Serif" font-size="10.00">human_player.h</text>
</a>
</g>
</g>
<!-- Node20&#45;&gt;Node24 -->
<g id="edge52" class="edge">
<title>Node20&#45;&gt;Node24</title>
<path fill="none" stroke="midnightblue" d="M965.23,-504.37C957.42,-486.46 939.29,-444.92 928.83,-420.95"/>
<polygon fill="midnightblue" stroke="midnightblue" points="931.96,-419.36 924.75,-411.59 925.54,-422.16 931.96,-419.36"/>
</g>
<!-- Node21&#45;&gt;Node2 -->
<g id="edge47" class="edge">
<title>Node21&#45;&gt;Node2</title>
<path fill="none" stroke="midnightblue" d="M922.6,-336.39C909.96,-318.5 883,-275.57 883,-235 883,-235 883,-235 883,-121 883,-90.2 882.49,-75.91 859,-56 830.15,-31.55 723.47,-19.12 664.26,-13.97"/>
<polygon fill="midnightblue" stroke="midnightblue" points="664.39,-10.47 654.14,-13.13 663.81,-17.45 664.39,-10.47"/>
</g>
<!-- Node21&#45;&gt;Node5 -->
<g id="edge50" class="edge">
<title>Node21&#45;&gt;Node5</title>
<path fill="none" stroke="midnightblue" d="M907.76,-336.43C874.5,-323.2 807.92,-297.5 750,-280 699.1,-264.62 639.11,-250.8 601.56,-242.65"/>
<polygon fill="midnightblue" stroke="midnightblue" points="602.1,-239.19 591.59,-240.51 600.63,-246.03 602.1,-239.19"/>
</g>
<!-- Node21&#45;&gt;Node17 -->
<g id="edge51" class="edge">
<title>Node21&#45;&gt;Node17</title>
<path fill="none" stroke="midnightblue" d="M894.77,-336.44C855.62,-326.66 791.7,-310.67 751.03,-300.51"/>
<polygon fill="midnightblue" stroke="midnightblue" points="751.77,-297.08 741.21,-298.05 750.07,-303.87 751.77,-297.08"/>
</g>
<!-- Node22 -->
<g id="node22" class="node">
<title>Node22</title>
<g id="a_node22"><a xlink:title=" ">
<polygon fill="white" stroke="#bfbfbf" points="911.5,-280.5 911.5,-299.5 966.5,-299.5 966.5,-280.5 911.5,-280.5"/>
<text text-anchor="middle" x="939" y="-287.5" font-family="Helvetica,sans-Serif" font-size="10.00">fstream</text>
</a>
</g>
</g>
<!-- Node21&#45;&gt;Node22 -->
<g id="edge48" class="edge">
<title>Node21&#45;&gt;Node22</title>
<path fill="none" stroke="midnightblue" d="M930.65,-336.08C931.98,-328.93 933.88,-318.64 935.54,-309.69"/>
<polygon fill="midnightblue" stroke="midnightblue" points="939,-310.22 937.38,-299.75 932.12,-308.95 939,-310.22"/>
</g>
<!-- Node23 -->
<g id="node23" class="node">
<title>Node23</title>
<g id="a_node23"><a xlink:title=" ">
<polygon fill="white" stroke="#bfbfbf" points="985,-280.5 985,-299.5 1017,-299.5 1017,-280.5 985,-280.5"/>
<text text-anchor="middle" x="1001" y="-287.5" font-family="Helvetica,sans-Serif" font-size="10.00">set</text>
</a>
</g>
</g>
<!-- Node21&#45;&gt;Node23 -->
<g id="edge49" class="edge">
<title>Node21&#45;&gt;Node23</title>
<path fill="none" stroke="midnightblue" d="M940.57,-336.32C951.42,-328.18 967.88,-315.84 980.88,-306.09"/>
<polygon fill="midnightblue" stroke="midnightblue" points="983.32,-308.63 989.22,-299.83 979.12,-303.03 983.32,-308.63"/>
</g>
<!-- Node24&#45;&gt;Node17 -->
<g id="edge53" class="edge">
<title>Node24&#45;&gt;Node17</title>
<path fill="none" stroke="midnightblue" d="M904.68,-392.37C868.53,-373.25 781.51,-327.23 738.26,-304.36"/>
<polygon fill="midnightblue" stroke="midnightblue" points="739.72,-301.17 729.25,-299.59 736.45,-307.36 739.72,-301.17"/>
</g>
</g>
</svg>
