<?xml version="1.0" encoding="UTF-8" standalone="no"?>
<!DOCTYPE svg PUBLIC "-//W3C//DTD SVG 1.1//EN"
 "http://www.w3.org/Graphics/SVG/1.1/DTD/svg11.dtd">
<!-- Generated by graphviz version 2.43.0 (0)
 -->
<!-- Title: src/pawn.cpp Pages: 1 -->
<svg width="155pt" height="252pt"
 viewBox="0.00 0.00 154.50 252.00" xmlns="http://www.w3.org/2000/svg" xmlns:xlink="http://www.w3.org/1999/xlink">
<g id="graph0" class="graph" transform="scale(1 1) rotate(0) translate(4 248)">
<title>src/pawn.cpp</title>
<polygon fill="white" stroke="transparent" points="-4,4 -4,-248 150.5,-248 150.5,4 -4,4"/>
<!-- Node1 -->
<g id="node1" class="node">
<title>Node1</title>
<g id="a_node1"><a xlink:title=" ">
<polygon fill="#bfbfbf" stroke="black" points="0,-224.5 0,-243.5 80,-243.5 80,-224.5 0,-224.5"/>
<text text-anchor="middle" x="40" y="-231.5" font-family="Helvetica,sans-Serif" font-size="10.00">src/pawn.cpp</text>
</a>
</g>
</g>
<!-- Node2 -->
<g id="node2" class="node">
<title>Node2</title>
<g id="a_node2"><a xlink:href="pawn_8h.html" target="_top" xlink:title=" ">
<polygon fill="white" stroke="black" points="14,-168.5 14,-187.5 66,-187.5 66,-168.5 14,-168.5"/>
<text text-anchor="middle" x="40" y="-175.5" font-family="Helvetica,sans-Serif" font-size="10.00">pawn.h</text>
</a>
</g>
</g>
<!-- Node1&#45;&gt;Node2 -->
<g id="edge1" class="edge">
<title>Node1&#45;&gt;Node2</title>
<path fill="none" stroke="midnightblue" d="M40,-224.08C40,-217.01 40,-206.86 40,-197.99"/>
<polygon fill="midnightblue" stroke="midnightblue" points="43.5,-197.75 40,-187.75 36.5,-197.75 43.5,-197.75"/>
</g>
<!-- Node3 -->
<g id="node3" class="node">
<title>Node3</title>
<g id="a_node3"><a xlink:href="piece_8h.html" target="_top" xlink:title=" ">
<polygon fill="white" stroke="black" points="14,-112.5 14,-131.5 66,-131.5 66,-112.5 14,-112.5"/>
<text text-anchor="middle" x="40" y="-119.5" font-family="Helvetica,sans-Serif" font-size="10.00">piece.h</text>
</a>
</g>
</g>
<!-- Node2&#45;&gt;Node3 -->
<g id="edge2" class="edge">
<title>Node2&#45;&gt;Node3</title>
<path fill="none" stroke="midnightblue" d="M40,-168.08C40,-161.01 40,-150.86 40,-141.99"/>
<polygon fill="midnightblue" stroke="midnightblue" points="43.5,-141.75 40,-131.75 36.5,-141.75 43.5,-141.75"/>
</g>
<!-- Node4 -->
<g id="node4" class="node">
<title>Node4</title>
<g id="a_node4"><a xlink:title=" ">
<polygon fill="white" stroke="#bfbfbf" points="21,-0.5 21,-19.5 81,-19.5 81,-0.5 21,-0.5"/>
<text text-anchor="middle" x="51" y="-7.5" font-family="Helvetica,sans-Serif" font-size="10.00">iostream</text>
</a>
</g>
</g>
<!-- Node3&#45;&gt;Node4 -->
<g id="edge3" class="edge">
<title>Node3&#45;&gt;Node4</title>
<path fill="none" stroke="midnightblue" d="M30.31,-112.38C17.77,-100.14 -1.5,-76.86 7,-56 11.8,-44.23 21.33,-33.86 30.29,-26.05"/>
<polygon fill="midnightblue" stroke="midnightblue" points="32.65,-28.64 38.22,-19.63 28.25,-23.2 32.65,-28.64"/>
</g>
<!-- Node5 -->
<g id="node5" class="node">
<title>Node5</title>
<g id="a_node5"><a xlink:title=" ">
<polygon fill="white" stroke="#bfbfbf" points="16.5,-56.5 16.5,-75.5 63.5,-75.5 63.5,-56.5 16.5,-56.5"/>
<text text-anchor="middle" x="40" y="-63.5" font-family="Helvetica,sans-Serif" font-size="10.00">vector</text>
</a>
</g>
</g>
<!-- Node3&#45;&gt;Node5 -->
<g id="edge4" class="edge">
<title>Node3&#45;&gt;Node5</title>
<path fill="none" stroke="midnightblue" d="M40,-112.08C40,-105.01 40,-94.86 40,-85.99"/>
<polygon fill="midnightblue" stroke="midnightblue" points="43.5,-85.75 40,-75.75 36.5,-85.75 43.5,-85.75"/>
</g>
<!-- Node6 -->
<g id="node6" class="node">
<title>Node6</title>
<g id="a_node6"><a xlink:href="position_8h.html" target="_top" xlink:title=" ">
<polygon fill="white" stroke="black" points="81.5,-56.5 81.5,-75.5 146.5,-75.5 146.5,-56.5 81.5,-56.5"/>
<text text-anchor="middle" x="114" y="-63.5" font-family="Helvetica,sans-Serif" font-size="10.00">position.h</text>
</a>
</g>
</g>
<!-- Node3&#45;&gt;Node6 -->
<g id="edge5" class="edge">
<title>Node3&#45;&gt;Node6</title>
<path fill="none" stroke="midnightblue" d="M51.89,-112.32C63.15,-104.11 80.29,-91.6 93.71,-81.81"/>
<polygon fill="midnightblue" stroke="midnightblue" points="95.88,-84.56 101.89,-75.83 91.75,-78.9 95.88,-84.56"/>
</g>
<!-- Node6&#45;&gt;Node4 -->
<g id="edge6" class="edge">
<title>Node6&#45;&gt;Node4</title>
<path fill="none" stroke="midnightblue" d="M103.88,-56.32C94.47,-48.26 80.26,-36.08 68.93,-26.37"/>
<polygon fill="midnightblue" stroke="midnightblue" points="71.18,-23.68 61.31,-19.83 66.62,-29 71.18,-23.68"/>
</g>
</g>
</svg>
