<?xml version="1.0" encoding="UTF-8" standalone="no"?>
<!DOCTYPE svg PUBLIC "-//W3C//DTD SVG 1.1//EN"
 "http://www.w3.org/Graphics/SVG/1.1/DTD/svg11.dtd">
<!-- Generated by graphviz version 2.43.0 (0)
 -->
<!-- Title: src/piece.h Pages: 1 -->
<svg width="1280pt" height="532pt"
 viewBox="0.00 0.00 1279.50 532.00" xmlns="http://www.w3.org/2000/svg" xmlns:xlink="http://www.w3.org/1999/xlink">
<g id="graph0" class="graph" transform="scale(1 1) rotate(0) translate(4 528)">
<title>src/piece.h</title>
<polygon fill="white" stroke="transparent" points="-4,4 -4,-528 1275.5,-528 1275.5,4 -4,4"/>
<!-- Node1 -->
<g id="node1" class="node">
<title>Node1</title>
<g id="a_node1"><a xlink:title=" ">
<polygon fill="#bfbfbf" stroke="black" points="500.5,-504.5 500.5,-523.5 569.5,-523.5 569.5,-504.5 500.5,-504.5"/>
<text text-anchor="middle" x="535" y="-511.5" font-family="Helvetica,sans-Serif" font-size="10.00">src/piece.h</text>
</a>
</g>
</g>
<!-- Node2 -->
<g id="node2" class="node">
<title>Node2</title>
<g id="a_node2"><a xlink:href="bishop_8h.html" target="_top" xlink:title=" ">
<polygon fill="white" stroke="black" points="186.5,-448.5 186.5,-467.5 261.5,-467.5 261.5,-448.5 186.5,-448.5"/>
<text text-anchor="middle" x="224" y="-455.5" font-family="Helvetica,sans-Serif" font-size="10.00">src/bishop.h</text>
</a>
</g>
</g>
<!-- Node1&#45;&gt;Node2 -->
<g id="edge1" class="edge">
<title>Node1&#45;&gt;Node2</title>
<path fill="none" stroke="midnightblue" d="M490.37,-505.68C437.84,-496.99 347.99,-481.93 271,-468 267.98,-467.45 264.84,-466.88 261.7,-466.29"/>
<polygon fill="midnightblue" stroke="midnightblue" points="489.93,-509.15 500.37,-507.33 491.07,-502.25 489.93,-509.15"/>
</g>
<!-- Node36 -->
<g id="node36" class="node">
<title>Node36</title>
<g id="a_node36"><a xlink:href="king_8h.html" target="_top" xlink:title=" ">
<polygon fill="white" stroke="black" points="280,-448.5 280,-467.5 344,-467.5 344,-448.5 280,-448.5"/>
<text text-anchor="middle" x="312" y="-455.5" font-family="Helvetica,sans-Serif" font-size="10.00">src/king.h</text>
</a>
</g>
</g>
<!-- Node1&#45;&gt;Node36 -->
<g id="edge66" class="edge">
<title>Node1&#45;&gt;Node36</title>
<path fill="none" stroke="midnightblue" d="M490.18,-502.15C446.9,-491.67 382.44,-476.06 344.07,-466.77"/>
<polygon fill="midnightblue" stroke="midnightblue" points="489.61,-505.61 500.16,-504.56 491.26,-498.81 489.61,-505.61"/>
</g>
<!-- Node37 -->
<g id="node37" class="node">
<title>Node37</title>
<g id="a_node37"><a xlink:href="knight_8h.html" target="_top" xlink:title=" ">
<polygon fill="white" stroke="black" points="362,-448.5 362,-467.5 436,-467.5 436,-448.5 362,-448.5"/>
<text text-anchor="middle" x="399" y="-455.5" font-family="Helvetica,sans-Serif" font-size="10.00">src/knight.h</text>
</a>
</g>
</g>
<!-- Node1&#45;&gt;Node37 -->
<g id="edge69" class="edge">
<title>Node1&#45;&gt;Node37</title>
<path fill="none" stroke="midnightblue" d="M503.87,-500.64C478.34,-490.5 442.89,-476.43 420.45,-467.52"/>
<polygon fill="midnightblue" stroke="midnightblue" points="502.86,-504.01 513.45,-504.44 505.45,-497.5 502.86,-504.01"/>
</g>
<!-- Node39 -->
<g id="node39" class="node">
<title>Node39</title>
<g id="a_node39"><a xlink:href="pawn_8h.html" target="_top" xlink:title=" ">
<polygon fill="white" stroke="black" points="454.5,-448.5 454.5,-467.5 523.5,-467.5 523.5,-448.5 454.5,-448.5"/>
<text text-anchor="middle" x="489" y="-455.5" font-family="Helvetica,sans-Serif" font-size="10.00">src/pawn.h</text>
</a>
</g>
</g>
<!-- Node1&#45;&gt;Node39 -->
<g id="edge72" class="edge">
<title>Node1&#45;&gt;Node39</title>
<path fill="none" stroke="midnightblue" d="M520.89,-496.43C512.82,-486.97 503.04,-475.48 496.45,-467.75"/>
<polygon fill="midnightblue" stroke="midnightblue" points="518.25,-498.74 527.4,-504.08 523.58,-494.2 518.25,-498.74"/>
</g>
<!-- Node41 -->
<g id="node41" class="node">
<title>Node41</title>
<g id="a_node41"><a xlink:href="piece_8cpp.html" target="_top" xlink:title=" ">
<polygon fill="white" stroke="black" points="542,-448.5 542,-467.5 622,-467.5 622,-448.5 542,-448.5"/>
<text text-anchor="middle" x="582" y="-455.5" font-family="Helvetica,sans-Serif" font-size="10.00">src/piece.cpp</text>
</a>
</g>
</g>
<!-- Node1&#45;&gt;Node41 -->
<g id="edge75" class="edge">
<title>Node1&#45;&gt;Node41</title>
<path fill="none" stroke="midnightblue" d="M549.42,-496.43C557.66,-486.97 567.65,-475.48 574.38,-467.75"/>
<polygon fill="midnightblue" stroke="midnightblue" points="546.69,-494.24 542.76,-504.08 551.97,-498.84 546.69,-494.24"/>
</g>
<!-- Node42 -->
<g id="node42" class="node">
<title>Node42</title>
<g id="a_node42"><a xlink:href="queen_8h.html" target="_top" xlink:title=" ">
<polygon fill="white" stroke="black" points="640.5,-448.5 640.5,-467.5 713.5,-467.5 713.5,-448.5 640.5,-448.5"/>
<text text-anchor="middle" x="677" y="-455.5" font-family="Helvetica,sans-Serif" font-size="10.00">src/queen.h</text>
</a>
</g>
</g>
<!-- Node1&#45;&gt;Node42 -->
<g id="edge76" class="edge">
<title>Node1&#45;&gt;Node42</title>
<path fill="none" stroke="midnightblue" d="M567.16,-500.77C593.83,-490.63 631.07,-476.47 654.6,-467.52"/>
<polygon fill="midnightblue" stroke="midnightblue" points="565.6,-497.62 557.5,-504.44 568.09,-504.16 565.6,-497.62"/>
</g>
<!-- Node44 -->
<g id="node44" class="node">
<title>Node44</title>
<g id="a_node44"><a xlink:href="rook_8h.html" target="_top" xlink:title=" ">
<polygon fill="white" stroke="black" points="731.5,-448.5 731.5,-467.5 796.5,-467.5 796.5,-448.5 731.5,-448.5"/>
<text text-anchor="middle" x="764" y="-455.5" font-family="Helvetica,sans-Serif" font-size="10.00">src/rook.h</text>
</a>
</g>
</g>
<!-- Node1&#45;&gt;Node44 -->
<g id="edge79" class="edge">
<title>Node1&#45;&gt;Node44</title>
<path fill="none" stroke="midnightblue" d="M579.76,-502.44C624.37,-491.93 691.77,-476.03 731.49,-466.67"/>
<polygon fill="midnightblue" stroke="midnightblue" points="578.71,-499.1 569.78,-504.8 580.32,-505.91 578.71,-499.1"/>
</g>
<!-- Node46 -->
<g id="node46" class="node">
<title>Node46</title>
<g id="a_node46"><a xlink:href="square_8h.html" target="_top" xlink:title=" ">
<polygon fill="white" stroke="black" points="815,-448.5 815,-467.5 891,-467.5 891,-448.5 815,-448.5"/>
<text text-anchor="middle" x="853" y="-455.5" font-family="Helvetica,sans-Serif" font-size="10.00">src/square.h</text>
</a>
</g>
</g>
<!-- Node1&#45;&gt;Node46 -->
<g id="edge82" class="edge">
<title>Node1&#45;&gt;Node46</title>
<path fill="none" stroke="midnightblue" d="M579.59,-505.94C633.34,-497.35 726.39,-482.23 806,-468 808.86,-467.49 811.82,-466.95 814.8,-466.4"/>
<polygon fill="midnightblue" stroke="midnightblue" points="579.02,-502.49 569.7,-507.52 580.12,-509.4 579.02,-502.49"/>
</g>
<!-- Node3 -->
<g id="node3" class="node">
<title>Node3</title>
<g id="a_node3"><a xlink:href="bishop_8cpp.html" target="_top" xlink:title=" ">
<polygon fill="white" stroke="black" points="181,-392.5 181,-411.5 267,-411.5 267,-392.5 181,-392.5"/>
<text text-anchor="middle" x="224" y="-399.5" font-family="Helvetica,sans-Serif" font-size="10.00">src/bishop.cpp</text>
</a>
</g>
</g>
<!-- Node2&#45;&gt;Node3 -->
<g id="edge2" class="edge">
<title>Node2&#45;&gt;Node3</title>
<path fill="none" stroke="midnightblue" d="M224,-437.8C224,-428.91 224,-418.78 224,-411.75"/>
<polygon fill="midnightblue" stroke="midnightblue" points="220.5,-438.08 224,-448.08 227.5,-438.08 220.5,-438.08"/>
</g>
<!-- Node4 -->
<g id="node4" class="node">
<title>Node4</title>
<g id="a_node4"><a xlink:href="board_8h.html" target="_top" xlink:title=" ">
<polygon fill="white" stroke="black" points="447.5,-392.5 447.5,-411.5 518.5,-411.5 518.5,-392.5 447.5,-392.5"/>
<text text-anchor="middle" x="483" y="-399.5" font-family="Helvetica,sans-Serif" font-size="10.00">src/board.h</text>
</a>
</g>
</g>
<!-- Node2&#45;&gt;Node4 -->
<g id="edge3" class="edge">
<title>Node2&#45;&gt;Node4</title>
<path fill="none" stroke="midnightblue" d="M271.74,-447.05C322.54,-436.45 401.76,-419.94 447.38,-410.43"/>
<polygon fill="midnightblue" stroke="midnightblue" points="270.74,-443.68 261.66,-449.15 272.16,-450.53 270.74,-443.68"/>
</g>
<!-- Node5 -->
<g id="node5" class="node">
<title>Node5</title>
<g id="a_node5"><a xlink:href="board_8cpp.html" target="_top" xlink:title=" ">
<polygon fill="white" stroke="black" points="988,-336.5 988,-355.5 1070,-355.5 1070,-336.5 988,-336.5"/>
<text text-anchor="middle" x="1029" y="-343.5" font-family="Helvetica,sans-Serif" font-size="10.00">src/board.cpp</text>
</a>
</g>
</g>
<!-- Node4&#45;&gt;Node5 -->
<g id="edge4" class="edge">
<title>Node4&#45;&gt;Node5</title>
<path fill="none" stroke="midnightblue" d="M528.94,-392.04C726.7,-364.96 779.87,-379.68 974,-356 978.51,-355.45 983.22,-354.8 987.91,-354.1"/>
<polygon fill="midnightblue" stroke="midnightblue" points="528.22,-388.61 518.8,-393.45 529.18,-395.54 528.22,-388.61"/>
</g>
<!-- Node6 -->
<g id="node6" class="node">
<title>Node6</title>
<g id="a_node6"><a xlink:href="fen_8h.html" target="_top" xlink:title=" ">
<polygon fill="white" stroke="black" points="129.5,-280.5 129.5,-299.5 188.5,-299.5 188.5,-280.5 129.5,-280.5"/>
<text text-anchor="middle" x="159" y="-287.5" font-family="Helvetica,sans-Serif" font-size="10.00">src/fen.h</text>
</a>
</g>
</g>
<!-- Node4&#45;&gt;Node6 -->
<g id="edge5" class="edge">
<title>Node4&#45;&gt;Node6</title>
<path fill="none" stroke="midnightblue" d="M453.79,-388.34C434.34,-379.7 408.36,-367.73 386,-356 370.47,-347.86 368.28,-342.51 352,-336 322.53,-324.22 235.29,-306.04 188.86,-296.81"/>
<polygon fill="midnightblue" stroke="midnightblue" points="452.47,-391.59 463.03,-392.42 455.3,-385.18 452.47,-391.59"/>
</g>
<!-- Node9 -->
<g id="node9" class="node">
<title>Node9</title>
<g id="a_node9"><a xlink:href="file__manager_8h.html" target="_top" xlink:title=" ">
<polygon fill="white" stroke="black" points="219,-280.5 219,-299.5 325,-299.5 325,-280.5 219,-280.5"/>
<text text-anchor="middle" x="272" y="-287.5" font-family="Helvetica,sans-Serif" font-size="10.00">src/file_manager.h</text>
</a>
</g>
</g>
<!-- Node4&#45;&gt;Node9 -->
<g id="edge8" class="edge">
<title>Node4&#45;&gt;Node9</title>
<path fill="none" stroke="midnightblue" d="M463.7,-386.25C444.66,-372.15 414.36,-350.88 386,-336 357.17,-320.88 322.08,-307.76 298.51,-299.65"/>
<polygon fill="midnightblue" stroke="midnightblue" points="461.75,-389.16 471.85,-392.36 465.95,-383.56 461.75,-389.16"/>
</g>
<!-- Node16 -->
<g id="node16" class="node">
<title>Node16</title>
<g id="a_node16"><a xlink:href="game__rules_8h.html" target="_top" xlink:title=" ">
<polygon fill="white" stroke="black" points="358,-280.5 358,-299.5 458,-299.5 458,-280.5 358,-280.5"/>
<text text-anchor="middle" x="408" y="-287.5" font-family="Helvetica,sans-Serif" font-size="10.00">src/game_rules.h</text>
</a>
</g>
</g>
<!-- Node4&#45;&gt;Node16 -->
<g id="edge16" class="edge">
<title>Node4&#45;&gt;Node16</title>
<path fill="none" stroke="midnightblue" d="M471.38,-383.96C455.13,-360.12 426.21,-317.71 413.86,-299.59"/>
<polygon fill="midnightblue" stroke="midnightblue" points="468.59,-386.08 477.11,-392.37 474.37,-382.13 468.59,-386.08"/>
</g>
<!-- Node19 -->
<g id="node19" class="node">
<title>Node19</title>
<g id="a_node19"><a xlink:href="king_8cpp.html" target="_top" xlink:title=" ">
<polygon fill="white" stroke="black" points="268.5,-336.5 268.5,-355.5 343.5,-355.5 343.5,-336.5 268.5,-336.5"/>
<text text-anchor="middle" x="306" y="-343.5" font-family="Helvetica,sans-Serif" font-size="10.00">src/king.cpp</text>
</a>
</g>
</g>
<!-- Node4&#45;&gt;Node19 -->
<g id="edge22" class="edge">
<title>Node4&#45;&gt;Node19</title>
<path fill="none" stroke="midnightblue" d="M445.1,-389.44C411.72,-379.26 363.9,-364.66 333.91,-355.52"/>
<polygon fill="midnightblue" stroke="midnightblue" points="444.37,-392.87 454.95,-392.44 446.41,-386.18 444.37,-392.87"/>
</g>
<!-- Node20 -->
<g id="node20" class="node">
<title>Node20</title>
<g id="a_node20"><a xlink:href="move_8h.html" target="_top" xlink:title=" ">
<polygon fill="white" stroke="black" points="720.5,-280.5 720.5,-299.5 791.5,-299.5 791.5,-280.5 720.5,-280.5"/>
<text text-anchor="middle" x="756" y="-287.5" font-family="Helvetica,sans-Serif" font-size="10.00">src/move.h</text>
</a>
</g>
</g>
<!-- Node4&#45;&gt;Node20 -->
<g id="edge23" class="edge">
<title>Node4&#45;&gt;Node20</title>
<path fill="none" stroke="midnightblue" d="M528.87,-391.36C581.4,-380.16 661.91,-362.38 675,-356 705.15,-341.32 734.25,-313.66 747.91,-299.63"/>
<polygon fill="midnightblue" stroke="midnightblue" points="527.82,-388.01 518.77,-393.51 529.28,-394.86 527.82,-388.01"/>
</g>
<!-- Node28 -->
<g id="node28" class="node">
<title>Node28</title>
<g id="a_node28"><a xlink:href="rules_8h.html" target="_top" xlink:title=" ">
<polygon fill="white" stroke="black" points="452.5,-224.5 452.5,-243.5 519.5,-243.5 519.5,-224.5 452.5,-224.5"/>
<text text-anchor="middle" x="486" y="-231.5" font-family="Helvetica,sans-Serif" font-size="10.00">src/rules.h</text>
</a>
</g>
</g>
<!-- Node4&#45;&gt;Node28 -->
<g id="edge64" class="edge">
<title>Node4&#45;&gt;Node28</title>
<path fill="none" stroke="midnightblue" d="M483.34,-381.93C484,-345.92 485.38,-269.23 485.85,-243.57"/>
<polygon fill="midnightblue" stroke="midnightblue" points="479.84,-382.01 483.16,-392.08 486.84,-382.14 479.84,-382.01"/>
</g>
<!-- Node30 -->
<g id="node30" class="node">
<title>Node30</title>
<g id="a_node30"><a xlink:href="player_8h.html" target="_top" xlink:title=" ">
<polygon fill="white" stroke="black" points="592.5,-336.5 592.5,-355.5 665.5,-355.5 665.5,-336.5 592.5,-336.5"/>
<text text-anchor="middle" x="629" y="-343.5" font-family="Helvetica,sans-Serif" font-size="10.00">src/player.h</text>
</a>
</g>
</g>
<!-- Node4&#45;&gt;Node30 -->
<g id="edge44" class="edge">
<title>Node4&#45;&gt;Node30</title>
<path fill="none" stroke="midnightblue" d="M515.7,-388.91C543.15,-378.75 581.67,-364.51 605.97,-355.52"/>
<polygon fill="midnightblue" stroke="midnightblue" points="514.3,-385.69 506.13,-392.44 516.73,-392.26 514.3,-385.69"/>
</g>
<!-- Node34 -->
<g id="node34" class="node">
<title>Node34</title>
<g id="a_node34"><a xlink:href="validate_8h.html" target="_top" xlink:title=" ">
<polygon fill="white" stroke="black" points="928.5,-224.5 928.5,-243.5 1011.5,-243.5 1011.5,-224.5 928.5,-224.5"/>
<text text-anchor="middle" x="970" y="-231.5" font-family="Helvetica,sans-Serif" font-size="10.00">src/validate.h</text>
</a>
</g>
</g>
<!-- Node4&#45;&gt;Node34 -->
<g id="edge65" class="edge">
<title>Node4&#45;&gt;Node34</title>
<path fill="none" stroke="midnightblue" d="M528.54,-391.81C588.16,-379.76 687.1,-359.72 704,-356 809.71,-332.76 857.63,-369.03 941,-300 958.7,-285.34 965.99,-257.67 968.65,-243.63"/>
<polygon fill="midnightblue" stroke="midnightblue" points="527.72,-388.4 518.61,-393.81 529.11,-395.26 527.72,-388.4"/>
</g>
<!-- Node7 -->
<g id="node7" class="node">
<title>Node7</title>
<g id="a_node7"><a xlink:href="fen_8cpp.html" target="_top" xlink:title=" ">
<polygon fill="white" stroke="black" points="0,-224.5 0,-243.5 70,-243.5 70,-224.5 0,-224.5"/>
<text text-anchor="middle" x="35" y="-231.5" font-family="Helvetica,sans-Serif" font-size="10.00">src/fen.cpp</text>
</a>
</g>
</g>
<!-- Node6&#45;&gt;Node7 -->
<g id="edge6" class="edge">
<title>Node6&#45;&gt;Node7</title>
<path fill="none" stroke="midnightblue" d="M129.99,-276.37C106.77,-266.26 74.84,-252.35 54.56,-243.52"/>
<polygon fill="midnightblue" stroke="midnightblue" points="128.79,-279.66 139.35,-280.44 131.58,-273.24 128.79,-279.66"/>
</g>
<!-- Node8 -->
<g id="node8" class="node">
<title>Node8</title>
<g id="a_node8"><a xlink:href="file__manager_8cpp.html" target="_top" xlink:title=" ">
<polygon fill="white" stroke="black" points="88.5,-224.5 88.5,-243.5 205.5,-243.5 205.5,-224.5 88.5,-224.5"/>
<text text-anchor="middle" x="147" y="-231.5" font-family="Helvetica,sans-Serif" font-size="10.00">src/file_manager.cpp</text>
</a>
</g>
</g>
<!-- Node6&#45;&gt;Node8 -->
<g id="edge7" class="edge">
<title>Node6&#45;&gt;Node8</title>
<path fill="none" stroke="midnightblue" d="M154.8,-270.1C152.81,-261.14 150.52,-250.86 148.94,-243.75"/>
<polygon fill="midnightblue" stroke="midnightblue" points="151.43,-271.08 157.02,-280.08 158.27,-269.56 151.43,-271.08"/>
</g>
<!-- Node9&#45;&gt;Node8 -->
<g id="edge10" class="edge">
<title>Node9&#45;&gt;Node8</title>
<path fill="none" stroke="midnightblue" d="M242.76,-276.37C219.35,-266.26 187.16,-252.35 166.71,-243.52"/>
<polygon fill="midnightblue" stroke="midnightblue" points="241.63,-279.69 252.19,-280.44 244.4,-273.26 241.63,-279.69"/>
</g>
<!-- Node10 -->
<g id="node10" class="node">
<title>Node10</title>
<g id="a_node10"><a xlink:href="application_8cpp.html" target="_top" xlink:title=" ">
<polygon fill="white" stroke="black" points="331,-112.5 331,-131.5 439,-131.5 439,-112.5 331,-112.5"/>
<text text-anchor="middle" x="385" y="-119.5" font-family="Helvetica,sans-Serif" font-size="10.00">src/application.cpp</text>
</a>
</g>
</g>
<!-- Node9&#45;&gt;Node10 -->
<g id="edge9" class="edge">
<title>Node9&#45;&gt;Node10</title>
<path fill="none" stroke="midnightblue" d="M277.69,-270.7C286.09,-245.69 303.6,-200.26 329,-168 340.88,-152.91 358.73,-139.69 371.07,-131.55"/>
<polygon fill="midnightblue" stroke="midnightblue" points="274.32,-269.76 274.57,-280.35 280.98,-271.92 274.32,-269.76"/>
</g>
<!-- Node11 -->
<g id="node11" class="node">
<title>Node11</title>
<g id="a_node11"><a xlink:href="tutorial_8h.html" target="_top" xlink:title=" ">
<polygon fill="white" stroke="black" points="234,-112.5 234,-131.5 312,-131.5 312,-112.5 234,-112.5"/>
<text text-anchor="middle" x="273" y="-119.5" font-family="Helvetica,sans-Serif" font-size="10.00">src/tutorial.h</text>
</a>
</g>
</g>
<!-- Node9&#45;&gt;Node11 -->
<g id="edge11" class="edge">
<title>Node9&#45;&gt;Node11</title>
<path fill="none" stroke="midnightblue" d="M264.95,-270.74C262.19,-262.67 259.37,-253 258,-244 252.93,-210.61 252.59,-201.34 258,-168 260.11,-154.99 265.44,-140.67 269.14,-131.75"/>
<polygon fill="midnightblue" stroke="midnightblue" points="261.69,-272.02 268.4,-280.22 268.27,-269.63 261.69,-272.02"/>
</g>
<!-- Node12 -->
<g id="node12" class="node">
<title>Node12</title>
<g id="a_node12"><a xlink:href="menu_8h.html" target="_top" xlink:title=" ">
<polygon fill="white" stroke="black" points="431.5,-56.5 431.5,-75.5 502.5,-75.5 502.5,-56.5 431.5,-56.5"/>
<text text-anchor="middle" x="467" y="-63.5" font-family="Helvetica,sans-Serif" font-size="10.00">src/menu.h</text>
</a>
</g>
</g>
<!-- Node11&#45;&gt;Node12 -->
<g id="edge12" class="edge">
<title>Node11&#45;&gt;Node12</title>
<path fill="none" stroke="midnightblue" d="M313.6,-109.7C350.22,-99.51 403.26,-84.74 436.4,-75.52"/>
<polygon fill="midnightblue" stroke="midnightblue" points="312.44,-106.39 303.74,-112.44 314.31,-113.13 312.44,-106.39"/>
</g>
<!-- Node15 -->
<g id="node15" class="node">
<title>Node15</title>
<g id="a_node15"><a xlink:href="tutorial_8cpp.html" target="_top" xlink:title=" ">
<polygon fill="white" stroke="black" points="228.5,-56.5 228.5,-75.5 317.5,-75.5 317.5,-56.5 228.5,-56.5"/>
<text text-anchor="middle" x="273" y="-63.5" font-family="Helvetica,sans-Serif" font-size="10.00">src/tutorial.cpp</text>
</a>
</g>
</g>
<!-- Node11&#45;&gt;Node15 -->
<g id="edge15" class="edge">
<title>Node11&#45;&gt;Node15</title>
<path fill="none" stroke="midnightblue" d="M273,-101.8C273,-92.91 273,-82.78 273,-75.75"/>
<polygon fill="midnightblue" stroke="midnightblue" points="269.5,-102.08 273,-112.08 276.5,-102.08 269.5,-102.08"/>
</g>
<!-- Node13 -->
<g id="node13" class="node">
<title>Node13</title>
<g id="a_node13"><a xlink:href="main_8cpp.html" target="_top" xlink:title=" ">
<polygon fill="white" stroke="black" points="427.5,-0.5 427.5,-19.5 506.5,-19.5 506.5,-0.5 427.5,-0.5"/>
<text text-anchor="middle" x="467" y="-7.5" font-family="Helvetica,sans-Serif" font-size="10.00">src/main.cpp</text>
</a>
</g>
</g>
<!-- Node12&#45;&gt;Node13 -->
<g id="edge13" class="edge">
<title>Node12&#45;&gt;Node13</title>
<path fill="none" stroke="midnightblue" d="M467,-45.8C467,-36.91 467,-26.78 467,-19.75"/>
<polygon fill="midnightblue" stroke="midnightblue" points="463.5,-46.08 467,-56.08 470.5,-46.08 463.5,-46.08"/>
</g>
<!-- Node14 -->
<g id="node14" class="node">
<title>Node14</title>
<g id="a_node14"><a xlink:href="menu_8cpp.html" target="_top" xlink:title=" ">
<polygon fill="white" stroke="black" points="877,-0.5 877,-19.5 959,-19.5 959,-0.5 877,-0.5"/>
<text text-anchor="middle" x="918" y="-7.5" font-family="Helvetica,sans-Serif" font-size="10.00">src/menu.cpp</text>
</a>
</g>
</g>
<!-- Node12&#45;&gt;Node14 -->
<g id="edge14" class="edge">
<title>Node12&#45;&gt;Node14</title>
<path fill="none" stroke="midnightblue" d="M512.72,-59.53C600.72,-48.99 792.4,-26.04 876.75,-15.94"/>
<polygon fill="midnightblue" stroke="midnightblue" points="512.28,-56.05 502.77,-60.72 513.11,-63 512.28,-56.05"/>
</g>
<!-- Node17 -->
<g id="node17" class="node">
<title>Node17</title>
<g id="a_node17"><a xlink:href="application_8h.html" target="_top" xlink:title=" ">
<polygon fill="white" stroke="black" points="338.5,-168.5 338.5,-187.5 435.5,-187.5 435.5,-168.5 338.5,-168.5"/>
<text text-anchor="middle" x="387" y="-175.5" font-family="Helvetica,sans-Serif" font-size="10.00">src/application.h</text>
</a>
</g>
</g>
<!-- Node16&#45;&gt;Node17 -->
<g id="edge17" class="edge">
<title>Node16&#45;&gt;Node17</title>
<path fill="none" stroke="midnightblue" d="M390.6,-272.82C383.37,-264.92 375.79,-254.79 372,-244 365.1,-224.33 375.32,-200.19 381.99,-187.58"/>
<polygon fill="midnightblue" stroke="midnightblue" points="388.33,-275.51 397.84,-280.19 393.33,-270.6 388.33,-275.51"/>
</g>
<!-- Node18 -->
<g id="node18" class="node">
<title>Node18</title>
<g id="a_node18"><a xlink:href="game__rules_8cpp.html" target="_top" xlink:title=" ">
<polygon fill="white" stroke="black" points="453.5,-168.5 453.5,-187.5 564.5,-187.5 564.5,-168.5 453.5,-168.5"/>
<text text-anchor="middle" x="509" y="-175.5" font-family="Helvetica,sans-Serif" font-size="10.00">src/game_rules.cpp</text>
</a>
</g>
</g>
<!-- Node16&#45;&gt;Node18 -->
<g id="edge21" class="edge">
<title>Node16&#45;&gt;Node18</title>
<path fill="none" stroke="midnightblue" d="M415.02,-270.73C420.98,-256.84 430.56,-237.81 443,-224 457.01,-208.44 477.46,-195.58 491.87,-187.65"/>
<polygon fill="midnightblue" stroke="midnightblue" points="411.69,-269.61 411.17,-280.19 418.18,-272.25 411.69,-269.61"/>
</g>
<!-- Node17&#45;&gt;Node10 -->
<g id="edge18" class="edge">
<title>Node17&#45;&gt;Node10</title>
<path fill="none" stroke="midnightblue" d="M386.29,-157.8C385.96,-148.91 385.58,-138.78 385.32,-131.75"/>
<polygon fill="midnightblue" stroke="midnightblue" points="382.8,-158.22 386.67,-168.08 389.8,-157.96 382.8,-158.22"/>
</g>
<!-- Node17&#45;&gt;Node11 -->
<g id="edge20" class="edge">
<title>Node17&#45;&gt;Node11</title>
<path fill="none" stroke="midnightblue" d="M359.76,-164.1C338.46,-154.01 309.46,-140.27 290.98,-131.52"/>
<polygon fill="midnightblue" stroke="midnightblue" points="358.4,-167.33 368.94,-168.44 361.4,-161 358.4,-167.33"/>
</g>
<!-- Node17&#45;&gt;Node12 -->
<g id="edge19" class="edge">
<title>Node17&#45;&gt;Node12</title>
<path fill="none" stroke="midnightblue" d="M413.09,-163.11C425.28,-155.42 439.05,-144.81 448,-132 460.25,-114.46 464.69,-89.01 466.23,-75.76"/>
<polygon fill="midnightblue" stroke="midnightblue" points="410.98,-160.29 404.18,-168.41 414.56,-166.31 410.98,-160.29"/>
</g>
<!-- Node20&#45;&gt;Node17 -->
<g id="edge24" class="edge">
<title>Node20&#45;&gt;Node17</title>
<path fill="none" stroke="midnightblue" d="M710.2,-283.27C626.11,-272.64 454.6,-250.35 443,-244 418.7,-230.69 400.15,-202.41 391.82,-187.94"/>
<polygon fill="midnightblue" stroke="midnightblue" points="709.88,-286.76 720.24,-284.54 710.76,-279.82 709.88,-286.76"/>
</g>
<!-- Node21 -->
<g id="node21" class="node">
<title>Node21</title>
<g id="a_node21"><a xlink:href="custom__ai_8cpp.html" target="_top" xlink:title=" ">
<polygon fill="white" stroke="black" points="621,-168.5 621,-187.5 725,-187.5 725,-168.5 621,-168.5"/>
<text text-anchor="middle" x="673" y="-175.5" font-family="Helvetica,sans-Serif" font-size="10.00">src/custom_ai.cpp</text>
</a>
</g>
</g>
<!-- Node20&#45;&gt;Node21 -->
<g id="edge25" class="edge">
<title>Node20&#45;&gt;Node21</title>
<path fill="none" stroke="midnightblue" d="M770.63,-272.36C780.84,-258.63 791.01,-239.02 781,-224 768.27,-204.9 745.73,-193.9 724.53,-187.56"/>
<polygon fill="midnightblue" stroke="midnightblue" points="767.67,-270.45 764.12,-280.44 773.12,-274.85 767.67,-270.45"/>
</g>
<!-- Node22 -->
<g id="node22" class="node">
<title>Node22</title>
<g id="a_node22"><a xlink:href="custom__ai_8h.html" target="_top" xlink:title=" ">
<polygon fill="white" stroke="black" points="678.5,-224.5 678.5,-243.5 771.5,-243.5 771.5,-224.5 678.5,-224.5"/>
<text text-anchor="middle" x="725" y="-231.5" font-family="Helvetica,sans-Serif" font-size="10.00">src/custom_ai.h</text>
</a>
</g>
</g>
<!-- Node20&#45;&gt;Node22 -->
<g id="edge26" class="edge">
<title>Node20&#45;&gt;Node22</title>
<path fill="none" stroke="midnightblue" d="M745.82,-271.27C740.53,-262.05 734.28,-251.17 730.02,-243.75"/>
<polygon fill="midnightblue" stroke="midnightblue" points="742.87,-273.15 750.88,-280.08 748.94,-269.67 742.87,-273.15"/>
</g>
<!-- Node23 -->
<g id="node23" class="node">
<title>Node23</title>
<g id="a_node23"><a xlink:href="custom__ai2_8cpp.html" target="_top" xlink:title=" ">
<polygon fill="white" stroke="black" points="1105,-168.5 1105,-187.5 1215,-187.5 1215,-168.5 1105,-168.5"/>
<text text-anchor="middle" x="1160" y="-175.5" font-family="Helvetica,sans-Serif" font-size="10.00">src/custom_ai2.cpp</text>
</a>
</g>
</g>
<!-- Node20&#45;&gt;Node23 -->
<g id="edge29" class="edge">
<title>Node20&#45;&gt;Node23</title>
<path fill="none" stroke="midnightblue" d="M801.81,-283C866.52,-274.22 981.24,-257.45 1021,-244 1039.08,-237.88 1041.83,-232.33 1059,-224 1086.63,-210.59 1119.18,-196.36 1139.7,-187.58"/>
<polygon fill="midnightblue" stroke="midnightblue" points="801.32,-279.53 791.88,-284.34 802.25,-286.47 801.32,-279.53"/>
</g>
<!-- Node24 -->
<g id="node24" class="node">
<title>Node24</title>
<g id="a_node24"><a xlink:href="custom__ai2_8h.html" target="_top" xlink:title=" ">
<polygon fill="white" stroke="black" points="1172.5,-224.5 1172.5,-243.5 1271.5,-243.5 1271.5,-224.5 1172.5,-224.5"/>
<text text-anchor="middle" x="1222" y="-231.5" font-family="Helvetica,sans-Serif" font-size="10.00">src/custom_ai2.h</text>
</a>
</g>
</g>
<!-- Node20&#45;&gt;Node24 -->
<g id="edge30" class="edge">
<title>Node20&#45;&gt;Node24</title>
<path fill="none" stroke="midnightblue" d="M801.69,-284C904.26,-272.77 1145.28,-246.33 1163,-244 1166.08,-243.59 1169.25,-243.16 1172.45,-242.71"/>
<polygon fill="midnightblue" stroke="midnightblue" points="801.19,-280.53 791.63,-285.1 801.95,-287.49 801.19,-280.53"/>
</g>
<!-- Node25 -->
<g id="node25" class="node">
<title>Node25</title>
<g id="a_node25"><a xlink:href="minimax_8h.html" target="_top" xlink:title=" ">
<polygon fill="white" stroke="black" points="1068,-224.5 1068,-243.5 1154,-243.5 1154,-224.5 1068,-224.5"/>
<text text-anchor="middle" x="1111" y="-231.5" font-family="Helvetica,sans-Serif" font-size="10.00">src/minimax.h</text>
</a>
</g>
</g>
<!-- Node20&#45;&gt;Node25 -->
<g id="edge33" class="edge">
<title>Node20&#45;&gt;Node25</title>
<path fill="none" stroke="midnightblue" d="M801.82,-282.18C860.34,-273.44 964.73,-257.79 1054,-244 1058.46,-243.31 1063.11,-242.59 1067.74,-241.86"/>
<polygon fill="midnightblue" stroke="midnightblue" points="801.17,-278.74 791.79,-283.67 802.2,-285.66 801.17,-278.74"/>
</g>
<!-- Node27 -->
<g id="node27" class="node">
<title>Node27</title>
<g id="a_node27"><a xlink:href="move_8cpp.html" target="_top" xlink:title=" ">
<polygon fill="white" stroke="black" points="828,-224.5 828,-243.5 910,-243.5 910,-224.5 828,-224.5"/>
<text text-anchor="middle" x="869" y="-231.5" font-family="Helvetica,sans-Serif" font-size="10.00">src/move.cpp</text>
</a>
</g>
</g>
<!-- Node20&#45;&gt;Node27 -->
<g id="edge36" class="edge">
<title>Node20&#45;&gt;Node27</title>
<path fill="none" stroke="midnightblue" d="M783,-276.1C804.11,-266.01 832.86,-252.27 851.18,-243.52"/>
<polygon fill="midnightblue" stroke="midnightblue" points="781.42,-272.97 773.91,-280.44 784.44,-279.29 781.42,-272.97"/>
</g>
<!-- Node20&#45;&gt;Node28 -->
<g id="edge37" class="edge">
<title>Node20&#45;&gt;Node28</title>
<path fill="none" stroke="midnightblue" d="M710.27,-280.08C664.4,-271.1 591.77,-256.79 529,-244 526.01,-243.39 522.91,-242.75 519.79,-242.11"/>
<polygon fill="midnightblue" stroke="midnightblue" points="709.71,-283.54 720.2,-282.02 711.06,-276.67 709.71,-283.54"/>
</g>
<!-- Node22&#45;&gt;Node14 -->
<g id="edge28" class="edge">
<title>Node22&#45;&gt;Node14</title>
<path fill="none" stroke="midnightblue" d="M668.22,-222.25C632.15,-212.57 595.18,-195.54 612,-168 670.44,-72.33 807.75,-32.54 876.81,-18.13"/>
<polygon fill="midnightblue" stroke="midnightblue" points="667.77,-225.74 678.32,-224.79 669.47,-218.95 667.77,-225.74"/>
</g>
<!-- Node22&#45;&gt;Node21 -->
<g id="edge27" class="edge">
<title>Node22&#45;&gt;Node21</title>
<path fill="none" stroke="midnightblue" d="M709.32,-216.72C700.16,-207.2 688.95,-195.56 681.43,-187.75"/>
<polygon fill="midnightblue" stroke="midnightblue" points="706.96,-219.31 716.41,-224.08 712,-214.45 706.96,-219.31"/>
</g>
<!-- Node24&#45;&gt;Node14 -->
<g id="edge32" class="edge">
<title>Node24&#45;&gt;Node14</title>
<path fill="none" stroke="midnightblue" d="M1232.57,-215.19C1238.99,-202.06 1245.07,-183.82 1240,-168 1230.67,-138.87 1222.09,-133.16 1200,-112 1167.06,-80.45 1155.99,-73.82 1114,-56 1062.9,-34.31 999.67,-22.2 959.09,-16.14"/>
<polygon fill="midnightblue" stroke="midnightblue" points="1229.43,-213.64 1227.77,-224.1 1235.59,-216.96 1229.43,-213.64"/>
</g>
<!-- Node24&#45;&gt;Node23 -->
<g id="edge31" class="edge">
<title>Node24&#45;&gt;Node23</title>
<path fill="none" stroke="midnightblue" d="M1204.25,-217.54C1193.19,-207.91 1179.37,-195.87 1170.14,-187.83"/>
<polygon fill="midnightblue" stroke="midnightblue" points="1202.2,-220.4 1212.04,-224.32 1206.8,-215.12 1202.2,-220.4"/>
</g>
<!-- Node25&#45;&gt;Node14 -->
<g id="edge34" class="edge">
<title>Node25&#45;&gt;Node14</title>
<path fill="none" stroke="midnightblue" d="M1164.19,-223.19C1201.33,-213.69 1241.38,-196.46 1224,-168 1165.56,-72.33 1028.25,-32.54 959.19,-18.13"/>
<polygon fill="midnightblue" stroke="midnightblue" points="1163.26,-219.81 1154.35,-225.55 1164.89,-226.62 1163.26,-219.81"/>
</g>
<!-- Node26 -->
<g id="node26" class="node">
<title>Node26</title>
<g id="a_node26"><a xlink:href="minimax_8cpp.html" target="_top" xlink:title=" ">
<polygon fill="white" stroke="black" points="839,-168.5 839,-187.5 937,-187.5 937,-168.5 839,-168.5"/>
<text text-anchor="middle" x="888" y="-175.5" font-family="Helvetica,sans-Serif" font-size="10.00">src/minimax.cpp</text>
</a>
</g>
</g>
<!-- Node25&#45;&gt;Node26 -->
<g id="edge35" class="edge">
<title>Node25&#45;&gt;Node26</title>
<path fill="none" stroke="midnightblue" d="M1065.94,-222.09C1023.81,-211.89 961.76,-196.86 923.17,-187.52"/>
<polygon fill="midnightblue" stroke="midnightblue" points="1065.12,-225.49 1075.66,-224.44 1066.77,-218.69 1065.12,-225.49"/>
</g>
<!-- Node28&#45;&gt;Node17 -->
<g id="edge38" class="edge">
<title>Node28&#45;&gt;Node17</title>
<path fill="none" stroke="midnightblue" d="M461.16,-219.45C442.89,-209.48 418.58,-196.23 402.87,-187.65"/>
<polygon fill="midnightblue" stroke="midnightblue" points="459.64,-222.61 470.09,-224.32 462.99,-216.46 459.64,-222.61"/>
</g>
<!-- Node28&#45;&gt;Node18 -->
<g id="edge41" class="edge">
<title>Node28&#45;&gt;Node18</title>
<path fill="none" stroke="midnightblue" d="M493.8,-214.69C497.68,-205.59 502.18,-195.01 505.27,-187.75"/>
<polygon fill="midnightblue" stroke="midnightblue" points="490.5,-213.51 489.8,-224.08 496.94,-216.25 490.5,-213.51"/>
</g>
<!-- Node28&#45;&gt;Node21 -->
<g id="edge39" class="edge">
<title>Node28&#45;&gt;Node21</title>
<path fill="none" stroke="midnightblue" d="M525.59,-221.57C560.87,-211.38 611.69,-196.7 643.51,-187.52"/>
<polygon fill="midnightblue" stroke="midnightblue" points="524.27,-218.31 515.63,-224.44 526.21,-225.03 524.27,-218.31"/>
</g>
<!-- Node28&#45;&gt;Node23 -->
<g id="edge40" class="edge">
<title>Node28&#45;&gt;Node23</title>
<path fill="none" stroke="midnightblue" d="M529.88,-224.1C780.98,-190.66 848.11,-213.26 1096,-188 1098.9,-187.7 1101.88,-187.38 1104.87,-187.02"/>
<polygon fill="midnightblue" stroke="midnightblue" points="529.16,-220.66 519.72,-225.47 530.1,-227.6 529.16,-220.66"/>
</g>
<!-- Node28&#45;&gt;Node26 -->
<g id="edge42" class="edge">
<title>Node28&#45;&gt;Node26</title>
<path fill="none" stroke="midnightblue" d="M529.97,-223.98C663.7,-202.37 699.78,-205.88 830,-188 832.93,-187.6 835.94,-187.17 838.97,-186.73"/>
<polygon fill="midnightblue" stroke="midnightblue" points="529.05,-220.58 519.75,-225.65 530.18,-227.49 529.05,-220.58"/>
</g>
<!-- Node29 -->
<g id="node29" class="node">
<title>Node29</title>
<g id="a_node29"><a xlink:href="rules_8cpp.html" target="_top" xlink:title=" ">
<polygon fill="white" stroke="black" points="743,-168.5 743,-187.5 821,-187.5 821,-168.5 743,-168.5"/>
<text text-anchor="middle" x="782" y="-175.5" font-family="Helvetica,sans-Serif" font-size="10.00">src/rules.cpp</text>
</a>
</g>
</g>
<!-- Node28&#45;&gt;Node29 -->
<g id="edge43" class="edge">
<title>Node28&#45;&gt;Node29</title>
<path fill="none" stroke="midnightblue" d="M529.78,-223.9C621.5,-206.37 646.09,-203.96 734,-188 736.92,-187.47 739.94,-186.92 742.97,-186.36"/>
<polygon fill="midnightblue" stroke="midnightblue" points="528.94,-220.5 519.78,-225.82 530.26,-227.37 528.94,-220.5"/>
</g>
<!-- Node30&#45;&gt;Node6 -->
<g id="edge47" class="edge">
<title>Node30&#45;&gt;Node6</title>
<path fill="none" stroke="midnightblue" d="M582.07,-341C504.46,-334.16 344.56,-319.08 210,-300 203.06,-299.02 195.61,-297.8 188.61,-296.57"/>
<polygon fill="midnightblue" stroke="midnightblue" points="582.2,-344.53 592.47,-341.91 582.81,-337.56 582.2,-344.53"/>
</g>
<!-- Node30&#45;&gt;Node9 -->
<g id="edge48" class="edge">
<title>Node30&#45;&gt;Node9</title>
<path fill="none" stroke="midnightblue" d="M582.32,-337.94C516.01,-327.91 394.89,-309.59 325.19,-299.05"/>
<polygon fill="midnightblue" stroke="midnightblue" points="582.06,-341.44 592.47,-339.47 583.11,-334.52 582.06,-341.44"/>
</g>
<!-- Node30&#45;&gt;Node16 -->
<g id="edge49" class="edge">
<title>Node30&#45;&gt;Node16</title>
<path fill="none" stroke="midnightblue" d="M584.08,-334.02C542.33,-323.82 481.02,-308.84 442.85,-299.52"/>
<polygon fill="midnightblue" stroke="midnightblue" points="583.44,-337.47 593.98,-336.44 585.1,-330.67 583.44,-337.47"/>
</g>
<!-- Node30&#45;&gt;Node20 -->
<g id="edge54" class="edge">
<title>Node30&#45;&gt;Node20</title>
<path fill="none" stroke="midnightblue" d="M658.39,-332.5C682.2,-322.38 715.11,-308.39 735.97,-299.52"/>
<polygon fill="midnightblue" stroke="midnightblue" points="656.96,-329.31 649.12,-336.44 659.7,-335.75 656.96,-329.31"/>
</g>
<!-- Node30&#45;&gt;Node22 -->
<g id="edge45" class="edge">
<title>Node30&#45;&gt;Node22</title>
<path fill="none" stroke="midnightblue" d="M645.18,-329.23C653.67,-320.76 664.13,-310.02 673,-300 690.24,-280.52 708.94,-256.3 718.53,-243.63"/>
<polygon fill="midnightblue" stroke="midnightblue" points="642.69,-326.77 638.03,-336.28 647.61,-331.75 642.69,-326.77"/>
</g>
<!-- Node30&#45;&gt;Node24 -->
<g id="edge46" class="edge">
<title>Node30&#45;&gt;Node24</title>
<path fill="none" stroke="midnightblue" d="M675.68,-341.23C744.04,-335.23 875.17,-321.89 985,-300 1062.62,-284.53 1152.19,-257.35 1195.64,-243.55"/>
<polygon fill="midnightblue" stroke="midnightblue" points="675.32,-337.75 665.66,-342.1 675.93,-344.72 675.32,-337.75"/>
</g>
<!-- Node30&#45;&gt;Node25 -->
<g id="edge53" class="edge">
<title>Node30&#45;&gt;Node25</title>
<path fill="none" stroke="midnightblue" d="M675.72,-341.52C737.3,-336.19 848.62,-324 941,-300 997.88,-285.22 1061.85,-257.6 1092.58,-243.61"/>
<polygon fill="midnightblue" stroke="midnightblue" points="675.22,-338.05 665.55,-342.37 675.81,-345.02 675.22,-338.05"/>
</g>
<!-- Node30&#45;&gt;Node28 -->
<g id="edge56" class="edge">
<title>Node30&#45;&gt;Node28</title>
<path fill="none" stroke="midnightblue" d="M598,-332.17C580.86,-324.27 559.72,-313.15 543,-300 521.53,-283.11 501.78,-257.38 492.15,-243.92"/>
<polygon fill="midnightblue" stroke="midnightblue" points="597,-335.56 607.56,-336.44 599.85,-329.17 597,-335.56"/>
</g>
<!-- Node31 -->
<g id="node31" class="node">
<title>Node31</title>
<g id="a_node31"><a xlink:href="human__player_8h.html" target="_top" xlink:title=" ">
<polygon fill="white" stroke="black" points="552,-280.5 552,-299.5 664,-299.5 664,-280.5 552,-280.5"/>
<text text-anchor="middle" x="608" y="-287.5" font-family="Helvetica,sans-Serif" font-size="10.00">src/human_player.h</text>
</a>
</g>
</g>
<!-- Node30&#45;&gt;Node31 -->
<g id="edge50" class="edge">
<title>Node30&#45;&gt;Node31</title>
<path fill="none" stroke="midnightblue" d="M621.88,-326.69C618.34,-317.59 614.23,-307.01 611.4,-299.75"/>
<polygon fill="midnightblue" stroke="midnightblue" points="618.65,-328.03 625.53,-336.08 625.17,-325.49 618.65,-328.03"/>
</g>
<!-- Node33 -->
<g id="node33" class="node">
<title>Node33</title>
<g id="a_node33"><a xlink:href="player_8cpp.html" target="_top" xlink:title=" ">
<polygon fill="white" stroke="black" points="848,-280.5 848,-299.5 932,-299.5 932,-280.5 848,-280.5"/>
<text text-anchor="middle" x="890" y="-287.5" font-family="Helvetica,sans-Serif" font-size="10.00">src/player.cpp</text>
</a>
</g>
</g>
<!-- Node30&#45;&gt;Node33 -->
<g id="edge55" class="edge">
<title>Node30&#45;&gt;Node33</title>
<path fill="none" stroke="midnightblue" d="M675.61,-335.36C724.74,-325.19 801.41,-309.33 848.51,-299.58"/>
<polygon fill="midnightblue" stroke="midnightblue" points="674.65,-331.98 665.57,-337.43 676.07,-338.84 674.65,-331.98"/>
</g>
<!-- Node30&#45;&gt;Node34 -->
<g id="edge57" class="edge">
<title>Node30&#45;&gt;Node34</title>
<path fill="none" stroke="midnightblue" d="M675.64,-335.83C710.77,-328.2 759.75,-316.01 801,-300 818.79,-293.1 821.48,-287.57 839,-280 873.33,-265.17 914.29,-251.76 941.16,-243.51"/>
<polygon fill="midnightblue" stroke="midnightblue" points="674.72,-332.45 665.67,-337.95 676.18,-339.29 674.72,-332.45"/>
</g>
<!-- Node31&#45;&gt;Node11 -->
<g id="edge52" class="edge">
<title>Node31&#45;&gt;Node11</title>
<path fill="none" stroke="midnightblue" d="M541.9,-279.27C504.04,-272.29 456.22,-261.05 416,-244 373.66,-226.05 363.7,-218.18 329,-188 308.54,-170.21 288.87,-144.86 279.2,-131.69"/>
<polygon fill="midnightblue" stroke="midnightblue" points="541.34,-282.72 551.8,-281.04 542.57,-275.83 541.34,-282.72"/>
</g>
<!-- Node32 -->
<g id="node32" class="node">
<title>Node32</title>
<g id="a_node32"><a xlink:href="human__player_8cpp.html" target="_top" xlink:title=" ">
<polygon fill="white" stroke="black" points="537.5,-224.5 537.5,-243.5 660.5,-243.5 660.5,-224.5 537.5,-224.5"/>
<text text-anchor="middle" x="599" y="-231.5" font-family="Helvetica,sans-Serif" font-size="10.00">src/human_player.cpp</text>
</a>
</g>
</g>
<!-- Node31&#45;&gt;Node32 -->
<g id="edge51" class="edge">
<title>Node31&#45;&gt;Node32</title>
<path fill="none" stroke="midnightblue" d="M604.85,-270.1C603.36,-261.14 601.64,-250.86 600.46,-243.75"/>
<polygon fill="midnightblue" stroke="midnightblue" points="601.42,-270.79 606.51,-280.08 608.32,-269.64 601.42,-270.79"/>
</g>
<!-- Node34&#45;&gt;Node10 -->
<g id="edge58" class="edge">
<title>Node34&#45;&gt;Node10</title>
<path fill="none" stroke="midnightblue" d="M968.38,-213.86C966.01,-198.86 960.21,-178.77 946,-168 906.19,-137.83 571.99,-127.14 439.14,-124.07"/>
<polygon fill="midnightblue" stroke="midnightblue" points="964.94,-214.59 969.6,-224.11 971.89,-213.77 964.94,-214.59"/>
</g>
<!-- Node34&#45;&gt;Node21 -->
<g id="edge59" class="edge">
<title>Node34&#45;&gt;Node21</title>
<path fill="none" stroke="midnightblue" d="M918.34,-223.61C862.41,-213.44 773.98,-197.36 719.96,-187.54"/>
<polygon fill="midnightblue" stroke="midnightblue" points="917.93,-227.09 928.39,-225.43 919.18,-220.2 917.93,-227.09"/>
</g>
<!-- Node34&#45;&gt;Node23 -->
<g id="edge60" class="edge">
<title>Node34&#45;&gt;Node23</title>
<path fill="none" stroke="midnightblue" d="M1009.76,-221.7C1045.62,-211.51 1097.57,-196.74 1130.03,-187.52"/>
<polygon fill="midnightblue" stroke="midnightblue" points="1008.77,-218.34 1000.11,-224.44 1010.68,-225.08 1008.77,-218.34"/>
</g>
<!-- Node34&#45;&gt;Node26 -->
<g id="edge61" class="edge">
<title>Node34&#45;&gt;Node26</title>
<path fill="none" stroke="midnightblue" d="M948.17,-218.62C933.19,-208.76 913.8,-195.99 901.14,-187.65"/>
<polygon fill="midnightblue" stroke="midnightblue" points="946.55,-221.75 956.83,-224.32 950.4,-215.9 946.55,-221.75"/>
</g>
<!-- Node34&#45;&gt;Node29 -->
<g id="edge62" class="edge">
<title>Node34&#45;&gt;Node29</title>
<path fill="none" stroke="midnightblue" d="M930.2,-221.57C894.73,-211.38 843.63,-196.7 811.65,-187.52"/>
<polygon fill="midnightblue" stroke="midnightblue" points="929.63,-225.05 940.21,-224.44 931.57,-218.32 929.63,-225.05"/>
</g>
<!-- Node35 -->
<g id="node35" class="node">
<title>Node35</title>
<g id="a_node35"><a xlink:href="validate_8cpp.html" target="_top" xlink:title=" ">
<polygon fill="white" stroke="black" points="993,-168.5 993,-187.5 1087,-187.5 1087,-168.5 993,-168.5"/>
<text text-anchor="middle" x="1040" y="-175.5" font-family="Helvetica,sans-Serif" font-size="10.00">src/validate.cpp</text>
</a>
</g>
</g>
<!-- Node34&#45;&gt;Node35 -->
<g id="edge63" class="edge">
<title>Node34&#45;&gt;Node35</title>
<path fill="none" stroke="midnightblue" d="M989.31,-218.1C1001.91,-208.38 1017.93,-196.03 1028.55,-187.83"/>
<polygon fill="midnightblue" stroke="midnightblue" points="987.03,-215.44 981.25,-224.32 991.3,-220.99 987.03,-215.44"/>
</g>
<!-- Node36&#45;&gt;Node4 -->
<g id="edge67" class="edge">
<title>Node36&#45;&gt;Node4</title>
<path fill="none" stroke="midnightblue" d="M349.04,-445.3C381.26,-435.13 427.19,-420.62 456.03,-411.52"/>
<polygon fill="midnightblue" stroke="midnightblue" points="347.58,-442.09 339.1,-448.44 349.69,-448.77 347.58,-442.09"/>
</g>
<!-- Node36&#45;&gt;Node19 -->
<g id="edge68" class="edge">
<title>Node36&#45;&gt;Node19</title>
<path fill="none" stroke="midnightblue" d="M310.98,-438.35C309.67,-414.25 307.43,-373.31 306.47,-355.59"/>
<polygon fill="midnightblue" stroke="midnightblue" points="307.49,-438.57 311.53,-448.37 314.48,-438.19 307.49,-438.57"/>
</g>
<!-- Node37&#45;&gt;Node4 -->
<g id="edge70" class="edge">
<title>Node37&#45;&gt;Node4</title>
<path fill="none" stroke="midnightblue" d="M420.93,-442.9C436.34,-433 456.45,-420.07 469.54,-411.65"/>
<polygon fill="midnightblue" stroke="midnightblue" points="419.02,-439.97 412.5,-448.32 422.8,-445.86 419.02,-439.97"/>
</g>
<!-- Node38 -->
<g id="node38" class="node">
<title>Node38</title>
<g id="a_node38"><a xlink:href="knight_8cpp.html" target="_top" xlink:title=" ">
<polygon fill="white" stroke="black" points="344.5,-392.5 344.5,-411.5 429.5,-411.5 429.5,-392.5 344.5,-392.5"/>
<text text-anchor="middle" x="387" y="-399.5" font-family="Helvetica,sans-Serif" font-size="10.00">src/knight.cpp</text>
</a>
</g>
</g>
<!-- Node37&#45;&gt;Node38 -->
<g id="edge71" class="edge">
<title>Node37&#45;&gt;Node38</title>
<path fill="none" stroke="midnightblue" d="M394.8,-438.1C392.81,-429.14 390.52,-418.86 388.94,-411.75"/>
<polygon fill="midnightblue" stroke="midnightblue" points="391.43,-439.08 397.02,-448.08 398.27,-437.56 391.43,-439.08"/>
</g>
<!-- Node39&#45;&gt;Node4 -->
<g id="edge73" class="edge">
<title>Node39&#45;&gt;Node4</title>
<path fill="none" stroke="midnightblue" d="M486.9,-438.1C485.9,-429.14 484.76,-418.86 483.97,-411.75"/>
<polygon fill="midnightblue" stroke="midnightblue" points="483.43,-438.53 488.01,-448.08 490.38,-437.76 483.43,-438.53"/>
</g>
<!-- Node40 -->
<g id="node40" class="node">
<title>Node40</title>
<g id="a_node40"><a xlink:href="pawn_8cpp.html" target="_top" xlink:title=" ">
<polygon fill="white" stroke="black" points="537,-392.5 537,-411.5 617,-411.5 617,-392.5 537,-392.5"/>
<text text-anchor="middle" x="577" y="-399.5" font-family="Helvetica,sans-Serif" font-size="10.00">src/pawn.cpp</text>
</a>
</g>
</g>
<!-- Node39&#45;&gt;Node40 -->
<g id="edge74" class="edge">
<title>Node39&#45;&gt;Node40</title>
<path fill="none" stroke="midnightblue" d="M511.98,-442.9C528.11,-433 549.18,-420.07 562.9,-411.65"/>
<polygon fill="midnightblue" stroke="midnightblue" points="509.83,-440.11 503.14,-448.32 513.49,-446.08 509.83,-440.11"/>
</g>
<!-- Node42&#45;&gt;Node4 -->
<g id="edge77" class="edge">
<title>Node42&#45;&gt;Node4</title>
<path fill="none" stroke="midnightblue" d="M636.4,-445.7C599.78,-435.51 546.74,-420.74 513.6,-411.52"/>
<polygon fill="midnightblue" stroke="midnightblue" points="635.69,-449.13 646.26,-448.44 637.56,-442.39 635.69,-449.13"/>
</g>
<!-- Node43 -->
<g id="node43" class="node">
<title>Node43</title>
<g id="a_node43"><a xlink:href="queen_8cpp.html" target="_top" xlink:title=" ">
<polygon fill="white" stroke="black" points="635,-392.5 635,-411.5 719,-411.5 719,-392.5 635,-392.5"/>
<text text-anchor="middle" x="677" y="-399.5" font-family="Helvetica,sans-Serif" font-size="10.00">src/queen.cpp</text>
</a>
</g>
</g>
<!-- Node42&#45;&gt;Node43 -->
<g id="edge78" class="edge">
<title>Node42&#45;&gt;Node43</title>
<path fill="none" stroke="midnightblue" d="M677,-437.8C677,-428.91 677,-418.78 677,-411.75"/>
<polygon fill="midnightblue" stroke="midnightblue" points="673.5,-438.08 677,-448.08 680.5,-438.08 673.5,-438.08"/>
</g>
<!-- Node44&#45;&gt;Node4 -->
<g id="edge80" class="edge">
<title>Node44&#45;&gt;Node4</title>
<path fill="none" stroke="midnightblue" d="M721.36,-447.72C634.93,-430.39 611.42,-428.04 528,-412 525.03,-411.43 521.94,-410.83 518.85,-410.22"/>
<polygon fill="midnightblue" stroke="midnightblue" points="720.85,-451.18 731.35,-449.73 722.24,-444.32 720.85,-451.18"/>
</g>
<!-- Node45 -->
<g id="node45" class="node">
<title>Node45</title>
<g id="a_node45"><a xlink:href="rook_8cpp.html" target="_top" xlink:title=" ">
<polygon fill="white" stroke="black" points="737,-392.5 737,-411.5 813,-411.5 813,-392.5 737,-392.5"/>
<text text-anchor="middle" x="775" y="-399.5" font-family="Helvetica,sans-Serif" font-size="10.00">src/rook.cpp</text>
</a>
</g>
</g>
<!-- Node44&#45;&gt;Node45 -->
<g id="edge81" class="edge">
<title>Node44&#45;&gt;Node45</title>
<path fill="none" stroke="midnightblue" d="M767.85,-438.1C769.68,-429.14 771.77,-418.86 773.22,-411.75"/>
<polygon fill="midnightblue" stroke="midnightblue" points="764.38,-437.59 765.82,-448.08 771.24,-438.98 764.38,-437.59"/>
</g>
<!-- Node46&#45;&gt;Node4 -->
<g id="edge83" class="edge">
<title>Node46&#45;&gt;Node4</title>
<path fill="none" stroke="midnightblue" d="M804.59,-447.86C681.23,-428.47 647.69,-431.7 528,-412 525.01,-411.51 521.92,-410.96 518.82,-410.39"/>
<polygon fill="midnightblue" stroke="midnightblue" points="804.39,-451.37 814.81,-449.49 805.49,-444.46 804.39,-451.37"/>
</g>
<!-- Node47 -->
<g id="node47" class="node">
<title>Node47</title>
<g id="a_node47"><a xlink:href="square_8cpp.html" target="_top" xlink:title=" ">
<polygon fill="white" stroke="black" points="831.5,-392.5 831.5,-411.5 918.5,-411.5 918.5,-392.5 831.5,-392.5"/>
<text text-anchor="middle" x="875" y="-399.5" font-family="Helvetica,sans-Serif" font-size="10.00">src/square.cpp</text>
</a>
</g>
</g>
<!-- Node46&#45;&gt;Node47 -->
<g id="edge84" class="edge">
<title>Node46&#45;&gt;Node47</title>
<path fill="none" stroke="midnightblue" d="M860.46,-438.69C864.17,-429.59 868.48,-419.01 871.43,-411.75"/>
<polygon fill="midnightblue" stroke="midnightblue" points="857.16,-437.5 856.63,-448.08 863.65,-440.14 857.16,-437.5"/>
</g>
</g>
</svg>
