<?xml version="1.0" encoding="UTF-8" standalone="no"?>
<!DOCTYPE svg PUBLIC "-//W3C//DTD SVG 1.1//EN"
 "http://www.w3.org/Graphics/SVG/1.1/DTD/svg11.dtd">
<!-- Generated by graphviz version 2.43.0 (0)
 -->
<!-- Title: src/player.h Pages: 1 -->
<svg width="1423pt" height="364pt"
 viewBox="0.00 0.00 1422.98 364.00" xmlns="http://www.w3.org/2000/svg" xmlns:xlink="http://www.w3.org/1999/xlink">
<g id="graph0" class="graph" transform="scale(1 1) rotate(0) translate(4 360)">
<title>src/player.h</title>
<polygon fill="white" stroke="transparent" points="-4,4 -4,-360 1418.98,-360 1418.98,4 -4,4"/>
<!-- Node1 -->
<g id="node1" class="node">
<title>Node1</title>
<g id="a_node1"><a xlink:title=" ">
<polygon fill="#bfbfbf" stroke="black" points="618.48,-336.5 618.48,-355.5 691.48,-355.5 691.48,-336.5 618.48,-336.5"/>
<text text-anchor="middle" x="654.98" y="-343.5" font-family="Helvetica,sans-Serif" font-size="10.00">src/player.h</text>
</a>
</g>
</g>
<!-- Node2 -->
<g id="node2" class="node">
<title>Node2</title>
<g id="a_node2"><a xlink:href="custom__ai_8h.html" target="_top" xlink:title=" ">
<polygon fill="white" stroke="black" points="11.48,-224.5 11.48,-243.5 104.48,-243.5 104.48,-224.5 11.48,-224.5"/>
<text text-anchor="middle" x="57.98" y="-231.5" font-family="Helvetica,sans-Serif" font-size="10.00">src/custom_ai.h</text>
</a>
</g>
</g>
<!-- Node1&#45;&gt;Node2 -->
<g id="edge1" class="edge">
<title>Node1&#45;&gt;Node2</title>
<path fill="none" stroke="midnightblue" d="M608.35,-342.01C536.58,-336.84 394.96,-324.35 276.98,-300 204.73,-285.09 121.86,-257.53 81.94,-243.58"/>
<polygon fill="midnightblue" stroke="midnightblue" points="608.2,-345.51 618.42,-342.72 608.69,-338.53 608.2,-345.51"/>
</g>
<!-- Node5 -->
<g id="node5" class="node">
<title>Node5</title>
<g id="a_node5"><a xlink:href="custom__ai2_8h.html" target="_top" xlink:title=" ">
<polygon fill="white" stroke="black" points="122.48,-224.5 122.48,-243.5 221.48,-243.5 221.48,-224.5 122.48,-224.5"/>
<text text-anchor="middle" x="171.98" y="-231.5" font-family="Helvetica,sans-Serif" font-size="10.00">src/custom_ai2.h</text>
</a>
</g>
</g>
<!-- Node1&#45;&gt;Node5 -->
<g id="edge4" class="edge">
<title>Node1&#45;&gt;Node5</title>
<path fill="none" stroke="midnightblue" d="M608.26,-341.49C546.7,-336.13 435.38,-323.91 342.98,-300 285.79,-285.2 221.43,-257.59 190.51,-243.6"/>
<polygon fill="midnightblue" stroke="midnightblue" points="608.17,-344.99 618.43,-342.35 608.77,-338.02 608.17,-344.99"/>
</g>
<!-- Node7 -->
<g id="node7" class="node">
<title>Node7</title>
<g id="a_node7"><a xlink:href="fen_8h.html" target="_top" xlink:title=" ">
<polygon fill="white" stroke="black" points="1062.48,-280.5 1062.48,-299.5 1121.48,-299.5 1121.48,-280.5 1062.48,-280.5"/>
<text text-anchor="middle" x="1091.98" y="-287.5" font-family="Helvetica,sans-Serif" font-size="10.00">src/fen.h</text>
</a>
</g>
</g>
<!-- Node1&#45;&gt;Node7 -->
<g id="edge7" class="edge">
<title>Node1&#45;&gt;Node7</title>
<path fill="none" stroke="midnightblue" d="M701.72,-340.44C774.44,-333.15 918.97,-317.86 1040.98,-300 1047.92,-298.98 1055.36,-297.75 1062.36,-296.53"/>
<polygon fill="midnightblue" stroke="midnightblue" points="701.13,-336.99 691.53,-341.46 701.82,-343.95 701.13,-336.99"/>
</g>
<!-- Node10 -->
<g id="node10" class="node">
<title>Node10</title>
<g id="a_node10"><a xlink:href="file__manager_8h.html" target="_top" xlink:title=" ">
<polygon fill="white" stroke="black" points="925.98,-280.5 925.98,-299.5 1031.98,-299.5 1031.98,-280.5 925.98,-280.5"/>
<text text-anchor="middle" x="978.98" y="-287.5" font-family="Helvetica,sans-Serif" font-size="10.00">src/file_manager.h</text>
</a>
</g>
</g>
<!-- Node1&#45;&gt;Node10 -->
<g id="edge10" class="edge">
<title>Node1&#45;&gt;Node10</title>
<path fill="none" stroke="midnightblue" d="M701.48,-337.25C761.56,-327.24 865.78,-309.87 927.97,-299.5"/>
<polygon fill="midnightblue" stroke="midnightblue" points="700.8,-333.81 691.52,-338.91 701.95,-340.72 700.8,-333.81"/>
</g>
<!-- Node16 -->
<g id="node16" class="node">
<title>Node16</title>
<g id="a_node16"><a xlink:href="game__rules_8h.html" target="_top" xlink:title=" ">
<polygon fill="white" stroke="black" points="744.98,-224.5 744.98,-243.5 844.98,-243.5 844.98,-224.5 744.98,-224.5"/>
<text text-anchor="middle" x="794.98" y="-231.5" font-family="Helvetica,sans-Serif" font-size="10.00">src/game_rules.h</text>
</a>
</g>
</g>
<!-- Node1&#45;&gt;Node16 -->
<g id="edge18" class="edge">
<title>Node1&#45;&gt;Node16</title>
<path fill="none" stroke="midnightblue" d="M673.92,-330.12C703.64,-306.77 760.27,-262.27 784.04,-243.59"/>
<polygon fill="midnightblue" stroke="midnightblue" points="671.66,-327.44 665.96,-336.37 675.99,-332.94 671.66,-327.44"/>
</g>
<!-- Node19 -->
<g id="node19" class="node">
<title>Node19</title>
<g id="a_node19"><a xlink:href="human__player_8h.html" target="_top" xlink:title=" ">
<polygon fill="white" stroke="black" points="1200.98,-280.5 1200.98,-299.5 1312.98,-299.5 1312.98,-280.5 1200.98,-280.5"/>
<text text-anchor="middle" x="1256.98" y="-287.5" font-family="Helvetica,sans-Serif" font-size="10.00">src/human_player.h</text>
</a>
</g>
</g>
<!-- Node1&#45;&gt;Node19 -->
<g id="edge24" class="edge">
<title>Node1&#45;&gt;Node19</title>
<path fill="none" stroke="midnightblue" d="M701.8,-340.8C811.16,-330.99 1083.05,-306.6 1200.96,-296.02"/>
<polygon fill="midnightblue" stroke="midnightblue" points="701.38,-337.32 691.73,-341.7 702,-344.3 701.38,-337.32"/>
</g>
<!-- Node21 -->
<g id="node21" class="node">
<title>Node21</title>
<g id="a_node21"><a xlink:href="minimax_8h.html" target="_top" xlink:title=" ">
<polygon fill="white" stroke="black" points="415.98,-224.5 415.98,-243.5 501.98,-243.5 501.98,-224.5 415.98,-224.5"/>
<text text-anchor="middle" x="458.98" y="-231.5" font-family="Helvetica,sans-Serif" font-size="10.00">src/minimax.h</text>
</a>
</g>
</g>
<!-- Node1&#45;&gt;Node21 -->
<g id="edge27" class="edge">
<title>Node1&#45;&gt;Node21</title>
<path fill="none" stroke="midnightblue" d="M630.83,-331.45C589.94,-308.5 508.21,-262.63 474.29,-243.59"/>
<polygon fill="midnightblue" stroke="midnightblue" points="629.16,-334.53 639.6,-336.37 632.59,-328.42 629.16,-334.53"/>
</g>
<!-- Node23 -->
<g id="node23" class="node">
<title>Node23</title>
<g id="a_node23"><a xlink:href="move_8h.html" target="_top" xlink:title=" ">
<polygon fill="white" stroke="black" points="352.48,-280.5 352.48,-299.5 423.48,-299.5 423.48,-280.5 352.48,-280.5"/>
<text text-anchor="middle" x="387.98" y="-287.5" font-family="Helvetica,sans-Serif" font-size="10.00">src/move.h</text>
</a>
</g>
</g>
<!-- Node1&#45;&gt;Node23 -->
<g id="edge30" class="edge">
<title>Node1&#45;&gt;Node23</title>
<path fill="none" stroke="midnightblue" d="M608.33,-335.57C555.72,-324.93 471.3,-307.85 423.68,-298.22"/>
<polygon fill="midnightblue" stroke="midnightblue" points="607.92,-339.05 618.41,-337.6 609.3,-332.19 607.92,-339.05"/>
</g>
<!-- Node25 -->
<g id="node25" class="node">
<title>Node25</title>
<g id="a_node25"><a xlink:href="rules_8h.html" target="_top" xlink:title=" ">
<polygon fill="white" stroke="black" points="621.48,-224.5 621.48,-243.5 688.48,-243.5 688.48,-224.5 621.48,-224.5"/>
<text text-anchor="middle" x="654.98" y="-231.5" font-family="Helvetica,sans-Serif" font-size="10.00">src/rules.h</text>
</a>
</g>
</g>
<!-- Node1&#45;&gt;Node25 -->
<g id="edge46" class="edge">
<title>Node1&#45;&gt;Node25</title>
<path fill="none" stroke="midnightblue" d="M654.98,-326.35C654.98,-302.25 654.98,-261.31 654.98,-243.59"/>
<polygon fill="midnightblue" stroke="midnightblue" points="651.48,-326.37 654.98,-336.37 658.48,-326.37 651.48,-326.37"/>
</g>
<!-- Node27 -->
<g id="node27" class="node">
<title>Node27</title>
<g id="a_node27"><a xlink:href="player_8cpp.html" target="_top" xlink:title=" ">
<polygon fill="white" stroke="black" points="1330.98,-280.5 1330.98,-299.5 1414.98,-299.5 1414.98,-280.5 1330.98,-280.5"/>
<text text-anchor="middle" x="1372.98" y="-287.5" font-family="Helvetica,sans-Serif" font-size="10.00">src/player.cpp</text>
</a>
</g>
</g>
<!-- Node1&#45;&gt;Node27 -->
<g id="edge45" class="edge">
<title>Node1&#45;&gt;Node27</title>
<path fill="none" stroke="midnightblue" d="M701.62,-343.58C810.57,-339.87 1090.1,-328.2 1321.98,-300 1324.83,-299.65 1327.77,-299.25 1330.73,-298.82"/>
<polygon fill="midnightblue" stroke="midnightblue" points="701.5,-340.08 691.62,-343.91 701.73,-347.07 701.5,-340.08"/>
</g>
<!-- Node28 -->
<g id="node28" class="node">
<title>Node28</title>
<g id="a_node28"><a xlink:href="validate_8h.html" target="_top" xlink:title=" ">
<polygon fill="white" stroke="black" points="520.48,-224.5 520.48,-243.5 603.48,-243.5 603.48,-224.5 520.48,-224.5"/>
<text text-anchor="middle" x="561.98" y="-231.5" font-family="Helvetica,sans-Serif" font-size="10.00">src/validate.h</text>
</a>
</g>
</g>
<!-- Node1&#45;&gt;Node28 -->
<g id="edge47" class="edge">
<title>Node1&#45;&gt;Node28</title>
<path fill="none" stroke="midnightblue" d="M641.1,-328.59C621.05,-304.87 584.69,-261.87 569.24,-243.59"/>
<polygon fill="midnightblue" stroke="midnightblue" points="638.55,-330.99 647.68,-336.37 643.9,-326.47 638.55,-330.99"/>
</g>
<!-- Node3 -->
<g id="node3" class="node">
<title>Node3</title>
<g id="a_node3"><a xlink:href="custom__ai_8cpp.html" target="_top" xlink:title=" ">
<polygon fill="white" stroke="black" points="61.98,-168.5 61.98,-187.5 165.98,-187.5 165.98,-168.5 61.98,-168.5"/>
<text text-anchor="middle" x="113.98" y="-175.5" font-family="Helvetica,sans-Serif" font-size="10.00">src/custom_ai.cpp</text>
</a>
</g>
</g>
<!-- Node2&#45;&gt;Node3 -->
<g id="edge2" class="edge">
<title>Node2&#45;&gt;Node3</title>
<path fill="none" stroke="midnightblue" d="M74.31,-217.25C84.24,-207.67 96.57,-195.79 104.82,-187.83"/>
<polygon fill="midnightblue" stroke="midnightblue" points="71.74,-214.86 66.98,-224.32 76.6,-219.9 71.74,-214.86"/>
</g>
<!-- Node4 -->
<g id="node4" class="node">
<title>Node4</title>
<g id="a_node4"><a xlink:href="menu_8cpp.html" target="_top" xlink:title=" ">
<polygon fill="white" stroke="black" points="72.98,-0.5 72.98,-19.5 154.98,-19.5 154.98,-0.5 72.98,-0.5"/>
<text text-anchor="middle" x="113.98" y="-7.5" font-family="Helvetica,sans-Serif" font-size="10.00">src/menu.cpp</text>
</a>
</g>
</g>
<!-- Node2&#45;&gt;Node4 -->
<g id="edge3" class="edge">
<title>Node2&#45;&gt;Node4</title>
<path fill="none" stroke="midnightblue" d="M39.87,-217.24C32.17,-209.33 24.03,-199.09 19.98,-188 -0.17,-132.9 -11.29,-105.64 19.98,-56 31.84,-37.17 54,-26.05 73.83,-19.57"/>
<polygon fill="midnightblue" stroke="midnightblue" points="37.62,-219.93 47.26,-224.3 42.45,-214.86 37.62,-219.93"/>
</g>
<!-- Node5&#45;&gt;Node4 -->
<g id="edge6" class="edge">
<title>Node5&#45;&gt;Node4</title>
<path fill="none" stroke="midnightblue" d="M127.19,-221.76C97.28,-213.25 61.86,-200.86 52.98,-188 13.81,-131.31 81.35,-47.13 105.72,-19.86"/>
<polygon fill="midnightblue" stroke="midnightblue" points="126.5,-225.2 137.07,-224.5 128.37,-218.46 126.5,-225.2"/>
</g>
<!-- Node6 -->
<g id="node6" class="node">
<title>Node6</title>
<g id="a_node6"><a xlink:href="custom__ai2_8cpp.html" target="_top" xlink:title=" ">
<polygon fill="white" stroke="black" points="221.98,-168.5 221.98,-187.5 331.98,-187.5 331.98,-168.5 221.98,-168.5"/>
<text text-anchor="middle" x="276.98" y="-175.5" font-family="Helvetica,sans-Serif" font-size="10.00">src/custom_ai2.cpp</text>
</a>
</g>
</g>
<!-- Node5&#45;&gt;Node6 -->
<g id="edge5" class="edge">
<title>Node5&#45;&gt;Node6</title>
<path fill="none" stroke="midnightblue" d="M197.79,-219.73C217.23,-209.73 243.33,-196.31 260.15,-187.65"/>
<polygon fill="midnightblue" stroke="midnightblue" points="196.14,-216.64 188.85,-224.32 199.34,-222.86 196.14,-216.64"/>
</g>
<!-- Node8 -->
<g id="node8" class="node">
<title>Node8</title>
<g id="a_node8"><a xlink:href="fen_8cpp.html" target="_top" xlink:title=" ">
<polygon fill="white" stroke="black" points="1168.98,-224.5 1168.98,-243.5 1238.98,-243.5 1238.98,-224.5 1168.98,-224.5"/>
<text text-anchor="middle" x="1203.98" y="-231.5" font-family="Helvetica,sans-Serif" font-size="10.00">src/fen.cpp</text>
</a>
</g>
</g>
<!-- Node7&#45;&gt;Node8 -->
<g id="edge8" class="edge">
<title>Node7&#45;&gt;Node8</title>
<path fill="none" stroke="midnightblue" d="M1119.23,-275.86C1139.99,-265.85 1168,-252.35 1186.03,-243.65"/>
<polygon fill="midnightblue" stroke="midnightblue" points="1117.46,-272.83 1109.97,-280.32 1120.5,-279.13 1117.46,-272.83"/>
</g>
<!-- Node9 -->
<g id="node9" class="node">
<title>Node9</title>
<g id="a_node9"><a xlink:href="file__manager_8cpp.html" target="_top" xlink:title=" ">
<polygon fill="white" stroke="black" points="1033.48,-224.5 1033.48,-243.5 1150.48,-243.5 1150.48,-224.5 1033.48,-224.5"/>
<text text-anchor="middle" x="1091.98" y="-231.5" font-family="Helvetica,sans-Serif" font-size="10.00">src/file_manager.cpp</text>
</a>
</g>
</g>
<!-- Node7&#45;&gt;Node9 -->
<g id="edge9" class="edge">
<title>Node7&#45;&gt;Node9</title>
<path fill="none" stroke="midnightblue" d="M1091.98,-269.8C1091.98,-260.91 1091.98,-250.78 1091.98,-243.75"/>
<polygon fill="midnightblue" stroke="midnightblue" points="1088.48,-270.08 1091.98,-280.08 1095.48,-270.08 1088.48,-270.08"/>
</g>
<!-- Node10&#45;&gt;Node9 -->
<g id="edge12" class="edge">
<title>Node10&#45;&gt;Node9</title>
<path fill="none" stroke="midnightblue" d="M1005.98,-276.1C1027.09,-266.01 1055.84,-252.27 1074.16,-243.52"/>
<polygon fill="midnightblue" stroke="midnightblue" points="1004.4,-272.97 996.88,-280.44 1007.41,-279.29 1004.4,-272.97"/>
</g>
<!-- Node11 -->
<g id="node11" class="node">
<title>Node11</title>
<g id="a_node11"><a xlink:href="application_8cpp.html" target="_top" xlink:title=" ">
<polygon fill="white" stroke="black" points="660.98,-112.5 660.98,-131.5 768.98,-131.5 768.98,-112.5 660.98,-112.5"/>
<text text-anchor="middle" x="714.98" y="-119.5" font-family="Helvetica,sans-Serif" font-size="10.00">src/application.cpp</text>
</a>
</g>
</g>
<!-- Node10&#45;&gt;Node11 -->
<g id="edge11" class="edge">
<title>Node10&#45;&gt;Node11</title>
<path fill="none" stroke="midnightblue" d="M979.92,-270.17C980.15,-243.41 976.31,-194.68 947.98,-168 922.71,-144.2 829.76,-132.24 769.17,-126.84"/>
<polygon fill="midnightblue" stroke="midnightblue" points="976.41,-270.36 979.61,-280.46 983.41,-270.57 976.41,-270.36"/>
</g>
<!-- Node12 -->
<g id="node12" class="node">
<title>Node12</title>
<g id="a_node12"><a xlink:href="tutorial_8h.html" target="_top" xlink:title=" ">
<polygon fill="white" stroke="black" points="928.98,-112.5 928.98,-131.5 1006.98,-131.5 1006.98,-112.5 928.98,-112.5"/>
<text text-anchor="middle" x="967.98" y="-119.5" font-family="Helvetica,sans-Serif" font-size="10.00">src/tutorial.h</text>
</a>
</g>
</g>
<!-- Node10&#45;&gt;Node12 -->
<g id="edge13" class="edge">
<title>Node10&#45;&gt;Node12</title>
<path fill="none" stroke="midnightblue" d="M981.09,-270.33C983.38,-246.46 986.06,-203.93 980.98,-168 979.15,-155.12 974.53,-140.76 971.32,-131.8"/>
<polygon fill="midnightblue" stroke="midnightblue" points="977.59,-270.13 980.03,-280.43 984.55,-270.85 977.59,-270.13"/>
</g>
<!-- Node13 -->
<g id="node13" class="node">
<title>Node13</title>
<g id="a_node13"><a xlink:href="menu_8h.html" target="_top" xlink:title=" ">
<polygon fill="white" stroke="black" points="761.48,-56.5 761.48,-75.5 832.48,-75.5 832.48,-56.5 761.48,-56.5"/>
<text text-anchor="middle" x="796.98" y="-63.5" font-family="Helvetica,sans-Serif" font-size="10.00">src/menu.h</text>
</a>
</g>
</g>
<!-- Node12&#45;&gt;Node13 -->
<g id="edge14" class="edge">
<title>Node12&#45;&gt;Node13</title>
<path fill="none" stroke="midnightblue" d="M930.94,-109.3C898.72,-99.13 852.79,-84.62 823.95,-75.52"/>
<polygon fill="midnightblue" stroke="midnightblue" points="930.29,-112.77 940.88,-112.44 932.4,-106.09 930.29,-112.77"/>
</g>
<!-- Node15 -->
<g id="node15" class="node">
<title>Node15</title>
<g id="a_node15"><a xlink:href="tutorial_8cpp.html" target="_top" xlink:title=" ">
<polygon fill="white" stroke="black" points="923.48,-56.5 923.48,-75.5 1012.48,-75.5 1012.48,-56.5 923.48,-56.5"/>
<text text-anchor="middle" x="967.98" y="-63.5" font-family="Helvetica,sans-Serif" font-size="10.00">src/tutorial.cpp</text>
</a>
</g>
</g>
<!-- Node12&#45;&gt;Node15 -->
<g id="edge17" class="edge">
<title>Node12&#45;&gt;Node15</title>
<path fill="none" stroke="midnightblue" d="M967.98,-101.8C967.98,-92.91 967.98,-82.78 967.98,-75.75"/>
<polygon fill="midnightblue" stroke="midnightblue" points="964.48,-102.08 967.98,-112.08 971.48,-102.08 964.48,-102.08"/>
</g>
<!-- Node13&#45;&gt;Node4 -->
<g id="edge16" class="edge">
<title>Node13&#45;&gt;Node4</title>
<path fill="none" stroke="midnightblue" d="M751.14,-61.38C625.28,-51.42 275.69,-23.79 155.33,-14.27"/>
<polygon fill="midnightblue" stroke="midnightblue" points="750.97,-64.87 761.22,-62.17 751.53,-57.9 750.97,-64.87"/>
</g>
<!-- Node14 -->
<g id="node14" class="node">
<title>Node14</title>
<g id="a_node14"><a xlink:href="main_8cpp.html" target="_top" xlink:title=" ">
<polygon fill="white" stroke="black" points="757.48,-0.5 757.48,-19.5 836.48,-19.5 836.48,-0.5 757.48,-0.5"/>
<text text-anchor="middle" x="796.98" y="-7.5" font-family="Helvetica,sans-Serif" font-size="10.00">src/main.cpp</text>
</a>
</g>
</g>
<!-- Node13&#45;&gt;Node14 -->
<g id="edge15" class="edge">
<title>Node13&#45;&gt;Node14</title>
<path fill="none" stroke="midnightblue" d="M796.98,-45.8C796.98,-36.91 796.98,-26.78 796.98,-19.75"/>
<polygon fill="midnightblue" stroke="midnightblue" points="793.48,-46.08 796.98,-56.08 800.48,-46.08 793.48,-46.08"/>
</g>
<!-- Node17 -->
<g id="node17" class="node">
<title>Node17</title>
<g id="a_node17"><a xlink:href="application_8h.html" target="_top" xlink:title=" ">
<polygon fill="white" stroke="black" points="712.48,-168.5 712.48,-187.5 809.48,-187.5 809.48,-168.5 712.48,-168.5"/>
<text text-anchor="middle" x="760.98" y="-175.5" font-family="Helvetica,sans-Serif" font-size="10.00">src/application.h</text>
</a>
</g>
</g>
<!-- Node16&#45;&gt;Node17 -->
<g id="edge19" class="edge">
<title>Node16&#45;&gt;Node17</title>
<path fill="none" stroke="midnightblue" d="M784,-215.57C778.15,-206.27 771.21,-195.25 766.49,-187.75"/>
<polygon fill="midnightblue" stroke="midnightblue" points="781.07,-217.49 789.36,-224.08 787,-213.76 781.07,-217.49"/>
</g>
<!-- Node18 -->
<g id="node18" class="node">
<title>Node18</title>
<g id="a_node18"><a xlink:href="game__rules_8cpp.html" target="_top" xlink:title=" ">
<polygon fill="white" stroke="black" points="827.48,-168.5 827.48,-187.5 938.48,-187.5 938.48,-168.5 827.48,-168.5"/>
<text text-anchor="middle" x="882.98" y="-175.5" font-family="Helvetica,sans-Serif" font-size="10.00">src/game_rules.cpp</text>
</a>
</g>
</g>
<!-- Node16&#45;&gt;Node18 -->
<g id="edge23" class="edge">
<title>Node16&#45;&gt;Node18</title>
<path fill="none" stroke="midnightblue" d="M817.95,-218.9C834.09,-209 855.16,-196.07 868.87,-187.65"/>
<polygon fill="midnightblue" stroke="midnightblue" points="815.81,-216.11 809.12,-224.32 819.47,-222.08 815.81,-216.11"/>
</g>
<!-- Node17&#45;&gt;Node11 -->
<g id="edge20" class="edge">
<title>Node17&#45;&gt;Node11</title>
<path fill="none" stroke="midnightblue" d="M746.86,-160.43C738.8,-150.97 729.02,-139.48 722.43,-131.75"/>
<polygon fill="midnightblue" stroke="midnightblue" points="744.23,-162.74 753.38,-168.08 749.56,-158.2 744.23,-162.74"/>
</g>
<!-- Node17&#45;&gt;Node12 -->
<g id="edge22" class="edge">
<title>Node17&#45;&gt;Node12</title>
<path fill="none" stroke="midnightblue" d="M803.8,-165.83C842.88,-155.63 899.81,-140.78 935.33,-131.52"/>
<polygon fill="midnightblue" stroke="midnightblue" points="802.57,-162.53 793.78,-168.44 804.34,-169.31 802.57,-162.53"/>
</g>
<!-- Node17&#45;&gt;Node13 -->
<g id="edge21" class="edge">
<title>Node17&#45;&gt;Node13</title>
<path fill="none" stroke="midnightblue" d="M768.19,-158.86C771.34,-150.7 774.99,-140.92 777.98,-132 784.62,-112.15 791.21,-88.48 794.61,-75.9"/>
<polygon fill="midnightblue" stroke="midnightblue" points="764.83,-157.86 764.43,-168.44 771.34,-160.41 764.83,-157.86"/>
</g>
<!-- Node19&#45;&gt;Node12 -->
<g id="edge26" class="edge">
<title>Node19&#45;&gt;Node12</title>
<path fill="none" stroke="midnightblue" d="M1323.3,-279.44C1367.31,-270.23 1413.06,-253.26 1389.98,-224 1342.39,-163.67 1102.67,-135.36 1007.25,-126.34"/>
<polygon fill="midnightblue" stroke="midnightblue" points="1322.51,-276.03 1313.37,-281.4 1323.86,-282.9 1322.51,-276.03"/>
</g>
<!-- Node20 -->
<g id="node20" class="node">
<title>Node20</title>
<g id="a_node20"><a xlink:href="human__player_8cpp.html" target="_top" xlink:title=" ">
<polygon fill="white" stroke="black" points="1257.48,-224.5 1257.48,-243.5 1380.48,-243.5 1380.48,-224.5 1257.48,-224.5"/>
<text text-anchor="middle" x="1318.98" y="-231.5" font-family="Helvetica,sans-Serif" font-size="10.00">src/human_player.cpp</text>
</a>
</g>
</g>
<!-- Node19&#45;&gt;Node20 -->
<g id="edge25" class="edge">
<title>Node19&#45;&gt;Node20</title>
<path fill="none" stroke="midnightblue" d="M1274.73,-273.54C1285.79,-263.91 1299.61,-251.87 1308.84,-243.83"/>
<polygon fill="midnightblue" stroke="midnightblue" points="1272.18,-271.12 1266.94,-280.32 1276.78,-276.4 1272.18,-271.12"/>
</g>
<!-- Node21&#45;&gt;Node4 -->
<g id="edge28" class="edge">
<title>Node21&#45;&gt;Node4</title>
<path fill="none" stroke="midnightblue" d="M405.89,-225.74C338.32,-216.12 228.47,-199.08 212.98,-188 151.41,-143.96 123.43,-49.05 116.04,-19.78"/>
<polygon fill="midnightblue" stroke="midnightblue" points="405.55,-229.22 415.94,-227.16 406.53,-222.29 405.55,-229.22"/>
</g>
<!-- Node22 -->
<g id="node22" class="node">
<title>Node22</title>
<g id="a_node22"><a xlink:href="minimax_8cpp.html" target="_top" xlink:title=" ">
<polygon fill="white" stroke="black" points="461.98,-168.5 461.98,-187.5 559.98,-187.5 559.98,-168.5 461.98,-168.5"/>
<text text-anchor="middle" x="510.98" y="-175.5" font-family="Helvetica,sans-Serif" font-size="10.00">src/minimax.cpp</text>
</a>
</g>
</g>
<!-- Node21&#45;&gt;Node22 -->
<g id="edge29" class="edge">
<title>Node21&#45;&gt;Node22</title>
<path fill="none" stroke="midnightblue" d="M474.66,-216.72C483.82,-207.2 495.03,-195.56 502.55,-187.75"/>
<polygon fill="midnightblue" stroke="midnightblue" points="471.98,-214.45 467.56,-224.08 477.02,-219.31 471.98,-214.45"/>
</g>
<!-- Node23&#45;&gt;Node2 -->
<g id="edge33" class="edge">
<title>Node23&#45;&gt;Node2</title>
<path fill="none" stroke="midnightblue" d="M342.36,-281.54C279.72,-271.29 167.68,-252.95 104.54,-242.62"/>
<polygon fill="midnightblue" stroke="midnightblue" points="341.91,-285.01 352.35,-283.17 343.05,-278.1 341.91,-285.01"/>
</g>
<!-- Node23&#45;&gt;Node3 -->
<g id="edge32" class="edge">
<title>Node23&#45;&gt;Node3</title>
<path fill="none" stroke="midnightblue" d="M353.32,-277.06C329.36,-268.52 296.89,-256.39 268.98,-244 251.17,-236.1 247.75,-231.98 229.98,-224 198.84,-210.02 161.95,-196.16 138.27,-187.59"/>
<polygon fill="midnightblue" stroke="midnightblue" points="352.44,-280.46 363.04,-280.49 354.77,-273.86 352.44,-280.46"/>
</g>
<!-- Node23&#45;&gt;Node5 -->
<g id="edge35" class="edge">
<title>Node23&#45;&gt;Node5</title>
<path fill="none" stroke="midnightblue" d="M343.81,-277.96C303.02,-267.76 243.26,-252.82 206.04,-243.52"/>
<polygon fill="midnightblue" stroke="midnightblue" points="343.2,-281.41 353.75,-280.44 344.9,-274.62 343.2,-281.41"/>
</g>
<!-- Node23&#45;&gt;Node6 -->
<g id="edge34" class="edge">
<title>Node23&#45;&gt;Node6</title>
<path fill="none" stroke="midnightblue" d="M386.56,-270.34C384.61,-256.21 379.98,-237.05 368.98,-224 353.63,-205.78 329.14,-194.3 309.29,-187.5"/>
<polygon fill="midnightblue" stroke="midnightblue" points="383.09,-270.82 387.62,-280.39 390.05,-270.08 383.09,-270.82"/>
</g>
<!-- Node23&#45;&gt;Node17 -->
<g id="edge31" class="edge">
<title>Node23&#45;&gt;Node17</title>
<path fill="none" stroke="midnightblue" d="M433.7,-285.92C508.16,-280.32 651.83,-266.87 696.98,-244 723.26,-230.69 745.13,-202.41 755.13,-187.94"/>
<polygon fill="midnightblue" stroke="midnightblue" points="433.39,-282.44 423.67,-286.66 433.9,-289.42 433.39,-282.44"/>
</g>
<!-- Node23&#45;&gt;Node21 -->
<g id="edge36" class="edge">
<title>Node23&#45;&gt;Node21</title>
<path fill="none" stroke="midnightblue" d="M407.57,-274.1C420.35,-264.38 436.59,-252.03 447.36,-243.83"/>
<polygon fill="midnightblue" stroke="midnightblue" points="405.23,-271.48 399.39,-280.32 409.46,-277.06 405.23,-271.48"/>
</g>
<!-- Node24 -->
<g id="node24" class="node">
<title>Node24</title>
<g id="a_node24"><a xlink:href="move_8cpp.html" target="_top" xlink:title=" ">
<polygon fill="white" stroke="black" points="277.98,-224.5 277.98,-243.5 359.98,-243.5 359.98,-224.5 277.98,-224.5"/>
<text text-anchor="middle" x="318.98" y="-231.5" font-family="Helvetica,sans-Serif" font-size="10.00">src/move.cpp</text>
</a>
</g>
</g>
<!-- Node23&#45;&gt;Node24 -->
<g id="edge37" class="edge">
<title>Node23&#45;&gt;Node24</title>
<path fill="none" stroke="midnightblue" d="M368.94,-274.1C356.52,-264.38 340.73,-252.03 330.27,-243.83"/>
<polygon fill="midnightblue" stroke="midnightblue" points="366.86,-276.92 376.89,-280.32 371.17,-271.4 366.86,-276.92"/>
</g>
<!-- Node23&#45;&gt;Node25 -->
<g id="edge38" class="edge">
<title>Node23&#45;&gt;Node25</title>
<path fill="none" stroke="midnightblue" d="M433.78,-279.91C479.07,-270.9 550.33,-256.64 611.98,-244 614.97,-243.39 618.07,-242.75 621.18,-242.1"/>
<polygon fill="midnightblue" stroke="midnightblue" points="432.81,-276.53 423.69,-281.92 434.18,-283.4 432.81,-276.53"/>
</g>
<!-- Node25&#45;&gt;Node3 -->
<g id="edge40" class="edge">
<title>Node25&#45;&gt;Node3</title>
<path fill="none" stroke="midnightblue" d="M611.33,-224.08C434.19,-197.94 387.1,-203.77 212.98,-188 197.77,-186.62 181.24,-185.12 166.13,-183.75"/>
<polygon fill="midnightblue" stroke="midnightblue" points="610.84,-227.54 621.24,-225.55 611.87,-220.62 610.84,-227.54"/>
</g>
<!-- Node25&#45;&gt;Node6 -->
<g id="edge41" class="edge">
<title>Node25&#45;&gt;Node6</title>
<path fill="none" stroke="midnightblue" d="M611.22,-223.98C490.52,-203.58 458.19,-204.03 340.98,-188 338.09,-187.6 335.12,-187.2 332.13,-186.78"/>
<polygon fill="midnightblue" stroke="midnightblue" points="610.78,-227.46 621.22,-225.69 611.95,-220.56 610.78,-227.46"/>
</g>
<!-- Node25&#45;&gt;Node17 -->
<g id="edge39" class="edge">
<title>Node25&#45;&gt;Node17</title>
<path fill="none" stroke="midnightblue" d="M681.03,-219.73C700.66,-209.73 727.01,-196.31 743.99,-187.65"/>
<polygon fill="midnightblue" stroke="midnightblue" points="679.33,-216.67 672.01,-224.32 682.51,-222.9 679.33,-216.67"/>
</g>
<!-- Node25&#45;&gt;Node18 -->
<g id="edge42" class="edge">
<title>Node25&#45;&gt;Node18</title>
<path fill="none" stroke="midnightblue" d="M698.53,-222.69C741.58,-212.49 806.7,-197.07 846.94,-187.54"/>
<polygon fill="midnightblue" stroke="midnightblue" points="697.54,-219.32 688.62,-225.03 699.16,-226.13 697.54,-219.32"/>
</g>
<!-- Node25&#45;&gt;Node22 -->
<g id="edge43" class="edge">
<title>Node25&#45;&gt;Node22</title>
<path fill="none" stroke="midnightblue" d="M622.73,-220.91C595.65,-210.75 557.66,-196.51 533.69,-187.52"/>
<polygon fill="midnightblue" stroke="midnightblue" points="621.57,-224.21 632.16,-224.44 624.03,-217.66 621.57,-224.21"/>
</g>
<!-- Node26 -->
<g id="node26" class="node">
<title>Node26</title>
<g id="a_node26"><a xlink:href="rules_8cpp.html" target="_top" xlink:title=" ">
<polygon fill="white" stroke="black" points="615.98,-168.5 615.98,-187.5 693.98,-187.5 693.98,-168.5 615.98,-168.5"/>
<text text-anchor="middle" x="654.98" y="-175.5" font-family="Helvetica,sans-Serif" font-size="10.00">src/rules.cpp</text>
</a>
</g>
</g>
<!-- Node25&#45;&gt;Node26 -->
<g id="edge44" class="edge">
<title>Node25&#45;&gt;Node26</title>
<path fill="none" stroke="midnightblue" d="M654.98,-213.8C654.98,-204.91 654.98,-194.78 654.98,-187.75"/>
<polygon fill="midnightblue" stroke="midnightblue" points="651.48,-214.08 654.98,-224.08 658.48,-214.08 651.48,-214.08"/>
</g>
<!-- Node28&#45;&gt;Node3 -->
<g id="edge49" class="edge">
<title>Node28&#45;&gt;Node3</title>
<path fill="none" stroke="midnightblue" d="M510.15,-223.96C380.4,-205.41 240.22,-191.03 166.13,-183.87"/>
<polygon fill="midnightblue" stroke="midnightblue" points="509.87,-227.46 520.26,-225.42 510.87,-220.53 509.87,-227.46"/>
</g>
<!-- Node28&#45;&gt;Node6 -->
<g id="edge50" class="edge">
<title>Node28&#45;&gt;Node6</title>
<path fill="none" stroke="midnightblue" d="M510.23,-223.19C456.5,-213.01 373.29,-197.25 322.13,-187.56"/>
<polygon fill="midnightblue" stroke="midnightblue" points="509.75,-226.67 520.23,-225.09 511.06,-219.79 509.75,-226.67"/>
</g>
<!-- Node28&#45;&gt;Node11 -->
<g id="edge48" class="edge">
<title>Node28&#45;&gt;Node11</title>
<path fill="none" stroke="midnightblue" d="M570.58,-215.31C578.36,-200.9 591.02,-180.9 606.98,-168 628.77,-150.37 658.45,-138.67 681.19,-131.63"/>
<polygon fill="midnightblue" stroke="midnightblue" points="567.45,-213.74 565.99,-224.24 573.68,-216.94 567.45,-213.74"/>
</g>
<!-- Node28&#45;&gt;Node22 -->
<g id="edge51" class="edge">
<title>Node28&#45;&gt;Node22</title>
<path fill="none" stroke="midnightblue" d="M546.6,-216.72C537.61,-207.2 526.62,-195.56 519.24,-187.75"/>
<polygon fill="midnightblue" stroke="midnightblue" points="544.15,-219.22 553.56,-224.08 549.23,-214.41 544.15,-219.22"/>
</g>
<!-- Node28&#45;&gt;Node26 -->
<g id="edge52" class="edge">
<title>Node28&#45;&gt;Node26</title>
<path fill="none" stroke="midnightblue" d="M585.78,-219.18C602.9,-209.24 625.44,-196.15 640.07,-187.65"/>
<polygon fill="midnightblue" stroke="midnightblue" points="583.81,-216.28 576.92,-224.32 587.33,-222.33 583.81,-216.28"/>
</g>
<!-- Node29 -->
<g id="node29" class="node">
<title>Node29</title>
<g id="a_node29"><a xlink:href="validate_8cpp.html" target="_top" xlink:title=" ">
<polygon fill="white" stroke="black" points="349.98,-168.5 349.98,-187.5 443.98,-187.5 443.98,-168.5 349.98,-168.5"/>
<text text-anchor="middle" x="396.98" y="-175.5" font-family="Helvetica,sans-Serif" font-size="10.00">src/validate.cpp</text>
</a>
</g>
</g>
<!-- Node28&#45;&gt;Node29 -->
<g id="edge53" class="edge">
<title>Node28&#45;&gt;Node29</title>
<path fill="none" stroke="midnightblue" d="M526.24,-221.3C495.15,-211.13 450.83,-196.62 423,-187.52"/>
<polygon fill="midnightblue" stroke="midnightblue" points="525.24,-224.66 535.83,-224.44 527.42,-218.01 525.24,-224.66"/>
</g>
</g>
</svg>
