<?xml version="1.0" encoding="UTF-8" standalone="no"?>
<!DOCTYPE svg PUBLIC "-//W3C//DTD SVG 1.1//EN"
 "http://www.w3.org/Graphics/SVG/1.1/DTD/svg11.dtd">
<!-- Generated by graphviz version 2.43.0 (0)
 -->
<!-- Title: src/rook.h Pages: 1 -->
<svg width="1299pt" height="476pt"
 viewBox="0.00 0.00 1298.50 476.00" xmlns="http://www.w3.org/2000/svg" xmlns:xlink="http://www.w3.org/1999/xlink">
<g id="graph0" class="graph" transform="scale(1 1) rotate(0) translate(4 472)">
<title>src/rook.h</title>
<polygon fill="white" stroke="transparent" points="-4,4 -4,-472 1294.5,-472 1294.5,4 -4,4"/>
<!-- Node1 -->
<g id="node1" class="node">
<title>Node1</title>
<g id="a_node1"><a xlink:title=" ">
<polygon fill="#bfbfbf" stroke="black" points="589.5,-448.5 589.5,-467.5 654.5,-467.5 654.5,-448.5 589.5,-448.5"/>
<text text-anchor="middle" x="622" y="-455.5" font-family="Helvetica,sans-Serif" font-size="10.00">src/rook.h</text>
</a>
</g>
</g>
<!-- Node2 -->
<g id="node2" class="node">
<title>Node2</title>
<g id="a_node2"><a xlink:href="board_8h.html" target="_top" xlink:title=" ">
<polygon fill="white" stroke="black" points="540.5,-392.5 540.5,-411.5 611.5,-411.5 611.5,-392.5 540.5,-392.5"/>
<text text-anchor="middle" x="576" y="-399.5" font-family="Helvetica,sans-Serif" font-size="10.00">src/board.h</text>
</a>
</g>
</g>
<!-- Node1&#45;&gt;Node2 -->
<g id="edge1" class="edge">
<title>Node1&#45;&gt;Node2</title>
<path fill="none" stroke="midnightblue" d="M607.89,-440.43C599.82,-430.97 590.04,-419.48 583.45,-411.75"/>
<polygon fill="midnightblue" stroke="midnightblue" points="605.25,-442.74 614.4,-448.08 610.58,-438.2 605.25,-442.74"/>
</g>
<!-- Node34 -->
<g id="node34" class="node">
<title>Node34</title>
<g id="a_node34"><a xlink:href="rook_8cpp.html" target="_top" xlink:title=" ">
<polygon fill="white" stroke="black" points="630,-392.5 630,-411.5 706,-411.5 706,-392.5 630,-392.5"/>
<text text-anchor="middle" x="668" y="-399.5" font-family="Helvetica,sans-Serif" font-size="10.00">src/rook.cpp</text>
</a>
</g>
</g>
<!-- Node1&#45;&gt;Node34 -->
<g id="edge64" class="edge">
<title>Node1&#45;&gt;Node34</title>
<path fill="none" stroke="midnightblue" d="M636.11,-440.43C644.18,-430.97 653.96,-419.48 660.55,-411.75"/>
<polygon fill="midnightblue" stroke="midnightblue" points="633.42,-438.2 629.6,-448.08 638.75,-442.74 633.42,-438.2"/>
</g>
<!-- Node3 -->
<g id="node3" class="node">
<title>Node3</title>
<g id="a_node3"><a xlink:href="board_8cpp.html" target="_top" xlink:title=" ">
<polygon fill="white" stroke="black" points="324,-336.5 324,-355.5 406,-355.5 406,-336.5 324,-336.5"/>
<text text-anchor="middle" x="365" y="-343.5" font-family="Helvetica,sans-Serif" font-size="10.00">src/board.cpp</text>
</a>
</g>
</g>
<!-- Node2&#45;&gt;Node3 -->
<g id="edge2" class="edge">
<title>Node2&#45;&gt;Node3</title>
<path fill="none" stroke="midnightblue" d="M532.86,-389.96C493.01,-379.76 434.64,-364.82 398.28,-355.52"/>
<polygon fill="midnightblue" stroke="midnightblue" points="532.01,-393.35 542.57,-392.44 533.75,-386.57 532.01,-393.35"/>
</g>
<!-- Node4 -->
<g id="node4" class="node">
<title>Node4</title>
<g id="a_node4"><a xlink:href="fen_8h.html" target="_top" xlink:title=" ">
<polygon fill="white" stroke="black" points="135.5,-280.5 135.5,-299.5 194.5,-299.5 194.5,-280.5 135.5,-280.5"/>
<text text-anchor="middle" x="165" y="-287.5" font-family="Helvetica,sans-Serif" font-size="10.00">src/fen.h</text>
</a>
</g>
</g>
<!-- Node2&#45;&gt;Node4 -->
<g id="edge3" class="edge">
<title>Node2&#45;&gt;Node4</title>
<path fill="none" stroke="midnightblue" d="M536.55,-389.46C510.81,-381.37 476.77,-369.59 448,-356 432.49,-348.67 431.05,-342.05 415,-336 329.67,-303.82 302.71,-316.4 213,-300 207.08,-298.92 200.75,-297.74 194.69,-296.61"/>
<polygon fill="midnightblue" stroke="midnightblue" points="535.75,-392.88 546.34,-392.49 537.82,-386.19 535.75,-392.88"/>
</g>
<!-- Node7 -->
<g id="node7" class="node">
<title>Node7</title>
<g id="a_node7"><a xlink:href="file__manager_8h.html" target="_top" xlink:title=" ">
<polygon fill="white" stroke="black" points="222,-280.5 222,-299.5 328,-299.5 328,-280.5 222,-280.5"/>
<text text-anchor="middle" x="275" y="-287.5" font-family="Helvetica,sans-Serif" font-size="10.00">src/file_manager.h</text>
</a>
</g>
</g>
<!-- Node2&#45;&gt;Node7 -->
<g id="edge6" class="edge">
<title>Node2&#45;&gt;Node7</title>
<path fill="none" stroke="midnightblue" d="M549.42,-387.89C531.46,-378.99 507.25,-366.9 486,-356 469.02,-347.29 465.8,-342.89 448,-336 405.46,-319.53 354.73,-307.13 319.24,-299.57"/>
<polygon fill="midnightblue" stroke="midnightblue" points="548.18,-391.18 558.69,-392.48 551.28,-384.91 548.18,-391.18"/>
</g>
<!-- Node14 -->
<g id="node14" class="node">
<title>Node14</title>
<g id="a_node14"><a xlink:href="game__rules_8h.html" target="_top" xlink:title=" ">
<polygon fill="white" stroke="black" points="346,-280.5 346,-299.5 446,-299.5 446,-280.5 346,-280.5"/>
<text text-anchor="middle" x="396" y="-287.5" font-family="Helvetica,sans-Serif" font-size="10.00">src/game_rules.h</text>
</a>
</g>
</g>
<!-- Node2&#45;&gt;Node14 -->
<g id="edge14" class="edge">
<title>Node2&#45;&gt;Node14</title>
<path fill="none" stroke="midnightblue" d="M556.95,-385.85C539.15,-372.04 511.55,-351.47 486,-336 462.54,-321.79 434.01,-308.09 415.44,-299.61"/>
<polygon fill="midnightblue" stroke="midnightblue" points="555.28,-388.99 565.31,-392.4 559.6,-383.48 555.28,-388.99"/>
</g>
<!-- Node17 -->
<g id="node17" class="node">
<title>Node17</title>
<g id="a_node17"><a xlink:href="king_8cpp.html" target="_top" xlink:title=" ">
<polygon fill="white" stroke="black" points="538.5,-336.5 538.5,-355.5 613.5,-355.5 613.5,-336.5 538.5,-336.5"/>
<text text-anchor="middle" x="576" y="-343.5" font-family="Helvetica,sans-Serif" font-size="10.00">src/king.cpp</text>
</a>
</g>
</g>
<!-- Node2&#45;&gt;Node17 -->
<g id="edge20" class="edge">
<title>Node2&#45;&gt;Node17</title>
<path fill="none" stroke="midnightblue" d="M576,-381.8C576,-372.91 576,-362.78 576,-355.75"/>
<polygon fill="midnightblue" stroke="midnightblue" points="572.5,-382.08 576,-392.08 579.5,-382.08 572.5,-382.08"/>
</g>
<!-- Node18 -->
<g id="node18" class="node">
<title>Node18</title>
<g id="a_node18"><a xlink:href="move_8h.html" target="_top" xlink:title=" ">
<polygon fill="white" stroke="black" points="886.5,-280.5 886.5,-299.5 957.5,-299.5 957.5,-280.5 886.5,-280.5"/>
<text text-anchor="middle" x="922" y="-287.5" font-family="Helvetica,sans-Serif" font-size="10.00">src/move.h</text>
</a>
</g>
</g>
<!-- Node2&#45;&gt;Node18 -->
<g id="edge21" class="edge">
<title>Node2&#45;&gt;Node18</title>
<path fill="none" stroke="midnightblue" d="M621.86,-392.03C734.53,-375.12 777.45,-411.24 872,-356 894.86,-342.64 910.9,-314.38 917.96,-299.93"/>
<polygon fill="midnightblue" stroke="midnightblue" points="621.14,-388.6 611.83,-393.65 622.26,-395.51 621.14,-388.6"/>
</g>
<!-- Node26 -->
<g id="node26" class="node">
<title>Node26</title>
<g id="a_node26"><a xlink:href="rules_8h.html" target="_top" xlink:title=" ">
<polygon fill="white" stroke="black" points="717.5,-224.5 717.5,-243.5 784.5,-243.5 784.5,-224.5 717.5,-224.5"/>
<text text-anchor="middle" x="751" y="-231.5" font-family="Helvetica,sans-Serif" font-size="10.00">src/rules.h</text>
</a>
</g>
</g>
<!-- Node2&#45;&gt;Node26 -->
<g id="edge62" class="edge">
<title>Node2&#45;&gt;Node26</title>
<path fill="none" stroke="midnightblue" d="M592.78,-385.32C601.83,-376.76 613.14,-365.91 623,-356 655.81,-323.01 660.79,-311.53 695,-280 709.67,-266.48 727.88,-252.28 739.47,-243.53"/>
<polygon fill="midnightblue" stroke="midnightblue" points="590.38,-382.77 585.49,-392.17 595.17,-387.86 590.38,-382.77"/>
</g>
<!-- Node28 -->
<g id="node28" class="node">
<title>Node28</title>
<g id="a_node28"><a xlink:href="player_8h.html" target="_top" xlink:title=" ">
<polygon fill="white" stroke="black" points="670.5,-336.5 670.5,-355.5 743.5,-355.5 743.5,-336.5 670.5,-336.5"/>
<text text-anchor="middle" x="707" y="-343.5" font-family="Helvetica,sans-Serif" font-size="10.00">src/player.h</text>
</a>
</g>
</g>
<!-- Node2&#45;&gt;Node28 -->
<g id="edge42" class="edge">
<title>Node2&#45;&gt;Node28</title>
<path fill="none" stroke="midnightblue" d="M606.32,-388.5C630.88,-378.38 664.82,-364.39 686.34,-355.52"/>
<polygon fill="midnightblue" stroke="midnightblue" points="604.67,-385.4 596.76,-392.44 607.34,-391.87 604.67,-385.4"/>
</g>
<!-- Node32 -->
<g id="node32" class="node">
<title>Node32</title>
<g id="a_node32"><a xlink:href="validate_8h.html" target="_top" xlink:title=" ">
<polygon fill="white" stroke="black" points="802.5,-224.5 802.5,-243.5 885.5,-243.5 885.5,-224.5 802.5,-224.5"/>
<text text-anchor="middle" x="844" y="-231.5" font-family="Helvetica,sans-Serif" font-size="10.00">src/validate.h</text>
</a>
</g>
</g>
<!-- Node2&#45;&gt;Node32 -->
<g id="edge63" class="edge">
<title>Node2&#45;&gt;Node32</title>
<path fill="none" stroke="midnightblue" d="M621.79,-391.15C666.04,-381.31 729.7,-366.21 753,-356 794.77,-337.69 815.74,-339.23 839,-300 849.51,-282.28 847.6,-256.9 845.62,-243.71"/>
<polygon fill="midnightblue" stroke="midnightblue" points="620.84,-387.77 611.83,-393.35 622.35,-394.61 620.84,-387.77"/>
</g>
<!-- Node5 -->
<g id="node5" class="node">
<title>Node5</title>
<g id="a_node5"><a xlink:href="fen_8cpp.html" target="_top" xlink:title=" ">
<polygon fill="white" stroke="black" points="0,-224.5 0,-243.5 70,-243.5 70,-224.5 0,-224.5"/>
<text text-anchor="middle" x="35" y="-231.5" font-family="Helvetica,sans-Serif" font-size="10.00">src/fen.cpp</text>
</a>
</g>
</g>
<!-- Node4&#45;&gt;Node5 -->
<g id="edge4" class="edge">
<title>Node4&#45;&gt;Node5</title>
<path fill="none" stroke="midnightblue" d="M134.91,-276.5C110.54,-266.38 76.86,-252.39 55.5,-243.52"/>
<polygon fill="midnightblue" stroke="midnightblue" points="133.82,-279.84 144.4,-280.44 136.51,-273.38 133.82,-279.84"/>
</g>
<!-- Node6 -->
<g id="node6" class="node">
<title>Node6</title>
<g id="a_node6"><a xlink:href="file__manager_8cpp.html" target="_top" xlink:title=" ">
<polygon fill="white" stroke="black" points="88.5,-224.5 88.5,-243.5 205.5,-243.5 205.5,-224.5 88.5,-224.5"/>
<text text-anchor="middle" x="147" y="-231.5" font-family="Helvetica,sans-Serif" font-size="10.00">src/file_manager.cpp</text>
</a>
</g>
</g>
<!-- Node4&#45;&gt;Node6 -->
<g id="edge5" class="edge">
<title>Node4&#45;&gt;Node6</title>
<path fill="none" stroke="midnightblue" d="M158.8,-270.4C155.79,-261.36 152.31,-250.94 149.92,-243.75"/>
<polygon fill="midnightblue" stroke="midnightblue" points="155.54,-271.7 162.03,-280.08 162.19,-269.49 155.54,-271.7"/>
</g>
<!-- Node7&#45;&gt;Node6 -->
<g id="edge8" class="edge">
<title>Node7&#45;&gt;Node6</title>
<path fill="none" stroke="midnightblue" d="M245.38,-276.5C221.38,-266.38 188.22,-252.39 167.19,-243.52"/>
<polygon fill="midnightblue" stroke="midnightblue" points="244.14,-279.78 254.72,-280.44 246.86,-273.33 244.14,-279.78"/>
</g>
<!-- Node8 -->
<g id="node8" class="node">
<title>Node8</title>
<g id="a_node8"><a xlink:href="application_8cpp.html" target="_top" xlink:title=" ">
<polygon fill="white" stroke="black" points="333,-112.5 333,-131.5 441,-131.5 441,-112.5 333,-112.5"/>
<text text-anchor="middle" x="387" y="-119.5" font-family="Helvetica,sans-Serif" font-size="10.00">src/application.cpp</text>
</a>
</g>
</g>
<!-- Node7&#45;&gt;Node8 -->
<g id="edge7" class="edge">
<title>Node7&#45;&gt;Node8</title>
<path fill="none" stroke="midnightblue" d="M280.31,-270.66C288.19,-245.6 304.84,-200.12 330,-168 341.82,-152.91 359.7,-139.88 372.27,-131.78"/>
<polygon fill="midnightblue" stroke="midnightblue" points="276.93,-269.74 277.38,-280.33 283.63,-271.77 276.93,-269.74"/>
</g>
<!-- Node9 -->
<g id="node9" class="node">
<title>Node9</title>
<g id="a_node9"><a xlink:href="tutorial_8h.html" target="_top" xlink:title=" ">
<polygon fill="white" stroke="black" points="199,-112.5 199,-131.5 277,-131.5 277,-112.5 199,-112.5"/>
<text text-anchor="middle" x="238" y="-119.5" font-family="Helvetica,sans-Serif" font-size="10.00">src/tutorial.h</text>
</a>
</g>
</g>
<!-- Node7&#45;&gt;Node9 -->
<g id="edge9" class="edge">
<title>Node7&#45;&gt;Node9</title>
<path fill="none" stroke="midnightblue" d="M267.15,-270.71C263.94,-262.65 260.41,-252.97 258,-244 246.89,-202.67 240.9,-151.65 238.83,-131.63"/>
<polygon fill="midnightblue" stroke="midnightblue" points="264.02,-272.31 271.08,-280.21 270.49,-269.63 264.02,-272.31"/>
</g>
<!-- Node10 -->
<g id="node10" class="node">
<title>Node10</title>
<g id="a_node10"><a xlink:href="menu_8h.html" target="_top" xlink:title=" ">
<polygon fill="white" stroke="black" points="285.5,-56.5 285.5,-75.5 356.5,-75.5 356.5,-56.5 285.5,-56.5"/>
<text text-anchor="middle" x="321" y="-63.5" font-family="Helvetica,sans-Serif" font-size="10.00">src/menu.h</text>
</a>
</g>
</g>
<!-- Node9&#45;&gt;Node10 -->
<g id="edge10" class="edge">
<title>Node9&#45;&gt;Node10</title>
<path fill="none" stroke="midnightblue" d="M260.1,-106.62C275.26,-96.76 294.88,-83.99 307.7,-75.65"/>
<polygon fill="midnightblue" stroke="midnightblue" points="257.81,-103.94 251.34,-112.32 261.63,-109.8 257.81,-103.94"/>
</g>
<!-- Node13 -->
<g id="node13" class="node">
<title>Node13</title>
<g id="a_node13"><a xlink:href="tutorial_8cpp.html" target="_top" xlink:title=" ">
<polygon fill="white" stroke="black" points="178.5,-56.5 178.5,-75.5 267.5,-75.5 267.5,-56.5 178.5,-56.5"/>
<text text-anchor="middle" x="223" y="-63.5" font-family="Helvetica,sans-Serif" font-size="10.00">src/tutorial.cpp</text>
</a>
</g>
</g>
<!-- Node9&#45;&gt;Node13 -->
<g id="edge13" class="edge">
<title>Node9&#45;&gt;Node13</title>
<path fill="none" stroke="midnightblue" d="M232.83,-102.4C230.32,-93.36 227.43,-82.94 225.43,-75.75"/>
<polygon fill="midnightblue" stroke="midnightblue" points="229.47,-103.38 235.52,-112.08 236.22,-101.51 229.47,-103.38"/>
</g>
<!-- Node11 -->
<g id="node11" class="node">
<title>Node11</title>
<g id="a_node11"><a xlink:href="main_8cpp.html" target="_top" xlink:title=" ">
<polygon fill="white" stroke="black" points="281.5,-0.5 281.5,-19.5 360.5,-19.5 360.5,-0.5 281.5,-0.5"/>
<text text-anchor="middle" x="321" y="-7.5" font-family="Helvetica,sans-Serif" font-size="10.00">src/main.cpp</text>
</a>
</g>
</g>
<!-- Node10&#45;&gt;Node11 -->
<g id="edge11" class="edge">
<title>Node10&#45;&gt;Node11</title>
<path fill="none" stroke="midnightblue" d="M321,-45.8C321,-36.91 321,-26.78 321,-19.75"/>
<polygon fill="midnightblue" stroke="midnightblue" points="317.5,-46.08 321,-56.08 324.5,-46.08 317.5,-46.08"/>
</g>
<!-- Node12 -->
<g id="node12" class="node">
<title>Node12</title>
<g id="a_node12"><a xlink:href="menu_8cpp.html" target="_top" xlink:title=" ">
<polygon fill="white" stroke="black" points="815,-0.5 815,-19.5 897,-19.5 897,-0.5 815,-0.5"/>
<text text-anchor="middle" x="856" y="-7.5" font-family="Helvetica,sans-Serif" font-size="10.00">src/menu.cpp</text>
</a>
</g>
</g>
<!-- Node10&#45;&gt;Node12 -->
<g id="edge12" class="edge">
<title>Node10&#45;&gt;Node12</title>
<path fill="none" stroke="midnightblue" d="M366.55,-60.4C469.02,-50.06 716.39,-25.09 814.71,-15.17"/>
<polygon fill="midnightblue" stroke="midnightblue" points="366.12,-56.93 356.52,-61.42 366.82,-63.89 366.12,-56.93"/>
</g>
<!-- Node15 -->
<g id="node15" class="node">
<title>Node15</title>
<g id="a_node15"><a xlink:href="application_8h.html" target="_top" xlink:title=" ">
<polygon fill="white" stroke="black" points="338.5,-168.5 338.5,-187.5 435.5,-187.5 435.5,-168.5 338.5,-168.5"/>
<text text-anchor="middle" x="387" y="-175.5" font-family="Helvetica,sans-Serif" font-size="10.00">src/application.h</text>
</a>
</g>
</g>
<!-- Node14&#45;&gt;Node15 -->
<g id="edge15" class="edge">
<title>Node14&#45;&gt;Node15</title>
<path fill="none" stroke="midnightblue" d="M393.7,-270.22C392.77,-262.15 391.74,-252.62 391,-244 389.27,-223.95 388.01,-200.36 387.41,-187.84"/>
<polygon fill="midnightblue" stroke="midnightblue" points="390.26,-270.87 394.92,-280.39 397.21,-270.04 390.26,-270.87"/>
</g>
<!-- Node16 -->
<g id="node16" class="node">
<title>Node16</title>
<g id="a_node16"><a xlink:href="game__rules_8cpp.html" target="_top" xlink:title=" ">
<polygon fill="white" stroke="black" points="492.5,-168.5 492.5,-187.5 603.5,-187.5 603.5,-168.5 492.5,-168.5"/>
<text text-anchor="middle" x="548" y="-175.5" font-family="Helvetica,sans-Serif" font-size="10.00">src/game_rules.cpp</text>
</a>
</g>
</g>
<!-- Node14&#45;&gt;Node16 -->
<g id="edge19" class="edge">
<title>Node14&#45;&gt;Node16</title>
<path fill="none" stroke="midnightblue" d="M400.1,-270.31C404.17,-255.89 411.75,-236.36 425,-224 445.28,-205.07 474.17,-193.96 498.85,-187.52"/>
<polygon fill="midnightblue" stroke="midnightblue" points="396.68,-269.6 397.65,-280.15 403.47,-271.3 396.68,-269.6"/>
</g>
<!-- Node15&#45;&gt;Node8 -->
<g id="edge16" class="edge">
<title>Node15&#45;&gt;Node8</title>
<path fill="none" stroke="midnightblue" d="M387,-157.8C387,-148.91 387,-138.78 387,-131.75"/>
<polygon fill="midnightblue" stroke="midnightblue" points="383.5,-158.08 387,-168.08 390.5,-158.08 383.5,-158.08"/>
</g>
<!-- Node15&#45;&gt;Node9 -->
<g id="edge18" class="edge">
<title>Node15&#45;&gt;Node9</title>
<path fill="none" stroke="midnightblue" d="M353.63,-164.91C325.62,-154.75 286.3,-140.51 261.5,-131.52"/>
<polygon fill="midnightblue" stroke="midnightblue" points="352.8,-168.33 363.39,-168.44 355.18,-161.75 352.8,-168.33"/>
</g>
<!-- Node15&#45;&gt;Node10 -->
<g id="edge17" class="edge">
<title>Node15&#45;&gt;Node10</title>
<path fill="none" stroke="midnightblue" d="M357.73,-163.61C345.06,-156.2 331.44,-145.68 324,-132 314.17,-113.94 316.8,-88.71 319.14,-75.63"/>
<polygon fill="midnightblue" stroke="midnightblue" points="356.23,-166.78 366.69,-168.46 359.56,-160.62 356.23,-166.78"/>
</g>
<!-- Node18&#45;&gt;Node15 -->
<g id="edge22" class="edge">
<title>Node18&#45;&gt;Node15</title>
<path fill="none" stroke="midnightblue" d="M876.22,-283.4C794.43,-273.28 629.38,-252.2 604,-244 585.84,-238.13 583.83,-230.82 566,-224 522.31,-207.28 470.23,-195 433.54,-187.53"/>
<polygon fill="midnightblue" stroke="midnightblue" points="875.88,-286.89 886.23,-284.64 876.74,-279.94 875.88,-286.89"/>
</g>
<!-- Node19 -->
<g id="node19" class="node">
<title>Node19</title>
<g id="a_node19"><a xlink:href="custom__ai_8cpp.html" target="_top" xlink:title=" ">
<polygon fill="white" stroke="black" points="984,-168.5 984,-187.5 1088,-187.5 1088,-168.5 984,-168.5"/>
<text text-anchor="middle" x="1036" y="-175.5" font-family="Helvetica,sans-Serif" font-size="10.00">src/custom_ai.cpp</text>
</a>
</g>
</g>
<!-- Node18&#45;&gt;Node19 -->
<g id="edge23" class="edge">
<title>Node18&#45;&gt;Node19</title>
<path fill="none" stroke="midnightblue" d="M920.65,-270.37C920.6,-256.24 922.77,-237.09 933,-224 947.78,-205.09 972.13,-193.96 993.45,-187.5"/>
<polygon fill="midnightblue" stroke="midnightblue" points="917.15,-270.55 921.04,-280.41 924.15,-270.27 917.15,-270.55"/>
</g>
<!-- Node20 -->
<g id="node20" class="node">
<title>Node20</title>
<g id="a_node20"><a xlink:href="custom__ai_8h.html" target="_top" xlink:title=" ">
<polygon fill="white" stroke="black" points="1080.5,-224.5 1080.5,-243.5 1173.5,-243.5 1173.5,-224.5 1080.5,-224.5"/>
<text text-anchor="middle" x="1127" y="-231.5" font-family="Helvetica,sans-Serif" font-size="10.00">src/custom_ai.h</text>
</a>
</g>
</g>
<!-- Node18&#45;&gt;Node20 -->
<g id="edge24" class="edge">
<title>Node18&#45;&gt;Node20</title>
<path fill="none" stroke="midnightblue" d="M964.41,-277.83C1003.11,-267.63 1059.49,-252.78 1094.67,-243.52"/>
<polygon fill="midnightblue" stroke="midnightblue" points="963.26,-274.51 954.48,-280.44 965.04,-281.28 963.26,-274.51"/>
</g>
<!-- Node21 -->
<g id="node21" class="node">
<title>Node21</title>
<g id="a_node21"><a xlink:href="custom__ai2_8cpp.html" target="_top" xlink:title=" ">
<polygon fill="white" stroke="black" points="1106,-168.5 1106,-187.5 1216,-187.5 1216,-168.5 1106,-168.5"/>
<text text-anchor="middle" x="1161" y="-175.5" font-family="Helvetica,sans-Serif" font-size="10.00">src/custom_ai2.cpp</text>
</a>
</g>
</g>
<!-- Node18&#45;&gt;Node21 -->
<g id="edge27" class="edge">
<title>Node18&#45;&gt;Node21</title>
<path fill="none" stroke="midnightblue" d="M954.14,-276.84C976.47,-268.18 1006.82,-255.99 1033,-244 1050.71,-235.89 1054.64,-232.84 1072,-224 1096.99,-211.27 1126,-196.63 1143.92,-187.6"/>
<polygon fill="midnightblue" stroke="midnightblue" points="952.86,-273.58 944.79,-280.44 955.37,-280.12 952.86,-273.58"/>
</g>
<!-- Node22 -->
<g id="node22" class="node">
<title>Node22</title>
<g id="a_node22"><a xlink:href="custom__ai2_8h.html" target="_top" xlink:title=" ">
<polygon fill="white" stroke="black" points="1191.5,-224.5 1191.5,-243.5 1290.5,-243.5 1290.5,-224.5 1191.5,-224.5"/>
<text text-anchor="middle" x="1241" y="-231.5" font-family="Helvetica,sans-Serif" font-size="10.00">src/custom_ai2.h</text>
</a>
</g>
</g>
<!-- Node18&#45;&gt;Node22 -->
<g id="edge28" class="edge">
<title>Node18&#45;&gt;Node22</title>
<path fill="none" stroke="midnightblue" d="M967.87,-281.23C1027.27,-271.18 1130.38,-253.72 1191.5,-243.38"/>
<polygon fill="midnightblue" stroke="midnightblue" points="966.94,-277.84 957.66,-282.96 968.11,-284.74 966.94,-277.84"/>
</g>
<!-- Node23 -->
<g id="node23" class="node">
<title>Node23</title>
<g id="a_node23"><a xlink:href="minimax_8h.html" target="_top" xlink:title=" ">
<polygon fill="white" stroke="black" points="613,-224.5 613,-243.5 699,-243.5 699,-224.5 613,-224.5"/>
<text text-anchor="middle" x="656" y="-231.5" font-family="Helvetica,sans-Serif" font-size="10.00">src/minimax.h</text>
</a>
</g>
</g>
<!-- Node18&#45;&gt;Node23 -->
<g id="edge31" class="edge">
<title>Node18&#45;&gt;Node23</title>
<path fill="none" stroke="midnightblue" d="M876.49,-279.76C826.41,-269.6 746.58,-253.39 697.96,-243.52"/>
<polygon fill="midnightblue" stroke="midnightblue" points="875.91,-283.21 886.4,-281.77 877.3,-276.35 875.91,-283.21"/>
</g>
<!-- Node25 -->
<g id="node25" class="node">
<title>Node25</title>
<g id="a_node25"><a xlink:href="move_8cpp.html" target="_top" xlink:title=" ">
<polygon fill="white" stroke="black" points="942,-224.5 942,-243.5 1024,-243.5 1024,-224.5 942,-224.5"/>
<text text-anchor="middle" x="983" y="-231.5" font-family="Helvetica,sans-Serif" font-size="10.00">src/move.cpp</text>
</a>
</g>
</g>
<!-- Node18&#45;&gt;Node25 -->
<g id="edge34" class="edge">
<title>Node18&#45;&gt;Node25</title>
<path fill="none" stroke="midnightblue" d="M939.47,-273.54C950.34,-263.91 963.94,-251.87 973.02,-243.83"/>
<polygon fill="midnightblue" stroke="midnightblue" points="936.97,-271.07 931.8,-280.32 941.61,-276.32 936.97,-271.07"/>
</g>
<!-- Node18&#45;&gt;Node26 -->
<g id="edge35" class="edge">
<title>Node18&#45;&gt;Node26</title>
<path fill="none" stroke="midnightblue" d="M884.96,-277.3C852.74,-267.13 806.81,-252.62 777.97,-243.52"/>
<polygon fill="midnightblue" stroke="midnightblue" points="884.31,-280.77 894.9,-280.44 886.42,-274.09 884.31,-280.77"/>
</g>
<!-- Node20&#45;&gt;Node12 -->
<g id="edge26" class="edge">
<title>Node20&#45;&gt;Node12</title>
<path fill="none" stroke="midnightblue" d="M1173.27,-221.59C1206.14,-211.08 1241.71,-193.26 1225,-168 1150.41,-55.2 976.56,-23.19 897.03,-14.31"/>
<polygon fill="midnightblue" stroke="midnightblue" points="1172.23,-218.25 1163.67,-224.49 1174.26,-224.95 1172.23,-218.25"/>
</g>
<!-- Node20&#45;&gt;Node19 -->
<g id="edge25" class="edge">
<title>Node20&#45;&gt;Node19</title>
<path fill="none" stroke="midnightblue" d="M1103.71,-219.18C1086.96,-209.24 1064.9,-196.15 1050.58,-187.65"/>
<polygon fill="midnightblue" stroke="midnightblue" points="1101.99,-222.23 1112.38,-224.32 1105.57,-216.21 1101.99,-222.23"/>
</g>
<!-- Node22&#45;&gt;Node12 -->
<g id="edge30" class="edge">
<title>Node22&#45;&gt;Node12</title>
<path fill="none" stroke="midnightblue" d="M1244.05,-214.08C1245.45,-200.85 1245.88,-182.93 1241,-168 1216.88,-94.22 1179.65,-83.32 1107,-56 1036.14,-29.35 947.95,-18.23 897.2,-13.78"/>
<polygon fill="midnightblue" stroke="midnightblue" points="1240.54,-213.94 1242.67,-224.32 1247.47,-214.88 1240.54,-213.94"/>
</g>
<!-- Node22&#45;&gt;Node21 -->
<g id="edge29" class="edge">
<title>Node22&#45;&gt;Node21</title>
<path fill="none" stroke="midnightblue" d="M1219.7,-218.62C1205.08,-208.76 1186.17,-195.99 1173.82,-187.65"/>
<polygon fill="midnightblue" stroke="midnightblue" points="1217.9,-221.63 1228.15,-224.32 1221.82,-215.83 1217.9,-221.63"/>
</g>
<!-- Node23&#45;&gt;Node12 -->
<g id="edge32" class="edge">
<title>Node23&#45;&gt;Node12</title>
<path fill="none" stroke="midnightblue" d="M602.75,-222.47C555.04,-212.49 491.44,-197.64 484,-188 478.57,-180.96 479.09,-175.41 484,-168 559.37,-54.38 734.95,-22.78 814.96,-14.16"/>
<polygon fill="midnightblue" stroke="midnightblue" points="602.17,-225.92 612.67,-224.52 603.59,-219.06 602.17,-225.92"/>
</g>
<!-- Node24 -->
<g id="node24" class="node">
<title>Node24</title>
<g id="a_node24"><a xlink:href="minimax_8cpp.html" target="_top" xlink:title=" ">
<polygon fill="white" stroke="black" points="622,-168.5 622,-187.5 720,-187.5 720,-168.5 622,-168.5"/>
<text text-anchor="middle" x="671" y="-175.5" font-family="Helvetica,sans-Serif" font-size="10.00">src/minimax.cpp</text>
</a>
</g>
</g>
<!-- Node23&#45;&gt;Node24 -->
<g id="edge33" class="edge">
<title>Node23&#45;&gt;Node24</title>
<path fill="none" stroke="midnightblue" d="M661.17,-214.4C663.68,-205.36 666.57,-194.94 668.57,-187.75"/>
<polygon fill="midnightblue" stroke="midnightblue" points="657.78,-213.51 658.48,-224.08 664.53,-215.38 657.78,-213.51"/>
</g>
<!-- Node26&#45;&gt;Node15 -->
<g id="edge36" class="edge">
<title>Node26&#45;&gt;Node15</title>
<path fill="none" stroke="midnightblue" d="M707.34,-223.99C604.79,-206.3 496.6,-192.27 435.56,-184.78"/>
<polygon fill="midnightblue" stroke="midnightblue" points="706.79,-227.45 717.24,-225.71 707.99,-220.55 706.79,-227.45"/>
</g>
<!-- Node26&#45;&gt;Node16 -->
<g id="edge39" class="edge">
<title>Node26&#45;&gt;Node16</title>
<path fill="none" stroke="midnightblue" d="M709.01,-221.83C670.68,-211.63 614.85,-196.78 580.02,-187.52"/>
<polygon fill="midnightblue" stroke="midnightblue" points="708.27,-225.26 718.83,-224.44 710.07,-218.49 708.27,-225.26"/>
</g>
<!-- Node26&#45;&gt;Node19 -->
<g id="edge37" class="edge">
<title>Node26&#45;&gt;Node19</title>
<path fill="none" stroke="midnightblue" d="M794.65,-223.91C867.94,-209.48 941.42,-196.01 988.19,-187.56"/>
<polygon fill="midnightblue" stroke="midnightblue" points="793.92,-220.48 784.79,-225.85 795.28,-227.35 793.92,-220.48"/>
</g>
<!-- Node26&#45;&gt;Node21 -->
<g id="edge38" class="edge">
<title>Node26&#45;&gt;Node21</title>
<path fill="none" stroke="midnightblue" d="M794.63,-224.03C929.51,-202.23 965.66,-205.03 1097,-188 1099.89,-187.62 1102.86,-187.23 1105.85,-186.83"/>
<polygon fill="midnightblue" stroke="midnightblue" points="794.05,-220.58 784.75,-225.64 795.18,-227.49 794.05,-220.58"/>
</g>
<!-- Node26&#45;&gt;Node24 -->
<g id="edge40" class="edge">
<title>Node26&#45;&gt;Node24</title>
<path fill="none" stroke="midnightblue" d="M729.7,-218.62C715.08,-208.76 696.17,-195.99 683.82,-187.65"/>
<polygon fill="midnightblue" stroke="midnightblue" points="727.9,-221.63 738.15,-224.32 731.82,-215.83 727.9,-221.63"/>
</g>
<!-- Node27 -->
<g id="node27" class="node">
<title>Node27</title>
<g id="a_node27"><a xlink:href="rules_8cpp.html" target="_top" xlink:title=" ">
<polygon fill="white" stroke="black" points="738,-168.5 738,-187.5 816,-187.5 816,-168.5 738,-168.5"/>
<text text-anchor="middle" x="777" y="-175.5" font-family="Helvetica,sans-Serif" font-size="10.00">src/rules.cpp</text>
</a>
</g>
</g>
<!-- Node26&#45;&gt;Node27 -->
<g id="edge41" class="edge">
<title>Node26&#45;&gt;Node27</title>
<path fill="none" stroke="midnightblue" d="M759.67,-214.98C764.09,-205.82 769.25,-195.09 772.79,-187.75"/>
<polygon fill="midnightblue" stroke="midnightblue" points="756.48,-213.55 755.29,-224.08 762.79,-216.59 756.48,-213.55"/>
</g>
<!-- Node28&#45;&gt;Node4 -->
<g id="edge45" class="edge">
<title>Node28&#45;&gt;Node4</title>
<path fill="none" stroke="midnightblue" d="M659.92,-339.79C647.89,-338.51 634.97,-337.17 623,-336 440.94,-318.26 394.22,-324.89 213,-300 207.04,-299.18 200.69,-298.12 194.63,-297.02"/>
<polygon fill="midnightblue" stroke="midnightblue" points="659.9,-343.31 670.22,-340.9 660.65,-336.35 659.9,-343.31"/>
</g>
<!-- Node28&#45;&gt;Node7 -->
<g id="edge46" class="edge">
<title>Node28&#45;&gt;Node7</title>
<path fill="none" stroke="midnightblue" d="M660.18,-339.66C589.93,-331.56 453.07,-315.48 337,-300 334.09,-299.61 331.1,-299.21 328.09,-298.79"/>
<polygon fill="midnightblue" stroke="midnightblue" points="660.13,-343.17 670.47,-340.84 660.93,-336.22 660.13,-343.17"/>
</g>
<!-- Node28&#45;&gt;Node14 -->
<g id="edge47" class="edge">
<title>Node28&#45;&gt;Node14</title>
<path fill="none" stroke="midnightblue" d="M660.43,-336.91C602.48,-326.85 503.99,-309.75 444.96,-299.5"/>
<polygon fill="midnightblue" stroke="midnightblue" points="659.96,-340.38 670.41,-338.65 661.16,-333.49 659.96,-340.38"/>
</g>
<!-- Node28&#45;&gt;Node18 -->
<g id="edge52" class="edge">
<title>Node28&#45;&gt;Node18</title>
<path fill="none" stroke="midnightblue" d="M750.96,-333.96C791.57,-323.76 851.04,-308.82 888.09,-299.52"/>
<polygon fill="midnightblue" stroke="midnightblue" points="749.91,-330.61 741.07,-336.44 751.62,-337.4 749.91,-330.61"/>
</g>
<!-- Node28&#45;&gt;Node20 -->
<g id="edge43" class="edge">
<title>Node28&#45;&gt;Node20</title>
<path fill="none" stroke="midnightblue" d="M753.76,-339.97C806.34,-333.62 893.92,-320.91 967,-300 1020.33,-284.74 1080.14,-257.59 1109.21,-243.71"/>
<polygon fill="midnightblue" stroke="midnightblue" points="753.25,-336.51 743.73,-341.16 754.07,-343.46 753.25,-336.51"/>
</g>
<!-- Node28&#45;&gt;Node22 -->
<g id="edge44" class="edge">
<title>Node28&#45;&gt;Node22</title>
<path fill="none" stroke="midnightblue" d="M753.91,-339.91C813.74,-332.98 920.22,-319.22 1010,-300 1085.37,-283.87 1172.44,-257.11 1214.94,-243.5"/>
<polygon fill="midnightblue" stroke="midnightblue" points="753.19,-336.46 743.65,-341.08 753.98,-343.42 753.19,-336.46"/>
</g>
<!-- Node28&#45;&gt;Node23 -->
<g id="edge51" class="edge">
<title>Node28&#45;&gt;Node23</title>
<path fill="none" stroke="midnightblue" d="M698.65,-327C687.53,-303 668.27,-261.47 659.98,-243.59"/>
<polygon fill="midnightblue" stroke="midnightblue" points="695.62,-328.77 703,-336.37 701.97,-325.82 695.62,-328.77"/>
</g>
<!-- Node28&#45;&gt;Node26 -->
<g id="edge54" class="edge">
<title>Node28&#45;&gt;Node26</title>
<path fill="none" stroke="midnightblue" d="M701.92,-326.2C699.28,-312.78 697.76,-294.61 704,-280 710.65,-264.42 725.65,-251.65 736.92,-243.74"/>
<polygon fill="midnightblue" stroke="midnightblue" points="698.57,-327.22 704.25,-336.16 705.38,-325.63 698.57,-327.22"/>
</g>
<!-- Node29 -->
<g id="node29" class="node">
<title>Node29</title>
<g id="a_node29"><a xlink:href="human__player_8h.html" target="_top" xlink:title=" ">
<polygon fill="white" stroke="black" points="464,-280.5 464,-299.5 576,-299.5 576,-280.5 464,-280.5"/>
<text text-anchor="middle" x="520" y="-287.5" font-family="Helvetica,sans-Serif" font-size="10.00">src/human_player.h</text>
</a>
</g>
</g>
<!-- Node28&#45;&gt;Node29 -->
<g id="edge48" class="edge">
<title>Node28&#45;&gt;Node29</title>
<path fill="none" stroke="midnightblue" d="M667.41,-333.57C632.13,-323.38 581.31,-308.7 549.49,-299.52"/>
<polygon fill="midnightblue" stroke="midnightblue" points="666.79,-337.03 677.37,-336.44 668.73,-330.31 666.79,-337.03"/>
</g>
<!-- Node31 -->
<g id="node31" class="node">
<title>Node31</title>
<g id="a_node31"><a xlink:href="player_8cpp.html" target="_top" xlink:title=" ">
<polygon fill="white" stroke="black" points="746,-280.5 746,-299.5 830,-299.5 830,-280.5 746,-280.5"/>
<text text-anchor="middle" x="788" y="-287.5" font-family="Helvetica,sans-Serif" font-size="10.00">src/player.cpp</text>
</a>
</g>
</g>
<!-- Node28&#45;&gt;Node31 -->
<g id="edge53" class="edge">
<title>Node28&#45;&gt;Node31</title>
<path fill="none" stroke="midnightblue" d="M728.57,-330.62C743.36,-320.76 762.51,-307.99 775.02,-299.65"/>
<polygon fill="midnightblue" stroke="midnightblue" points="726.39,-327.86 720.01,-336.32 730.28,-333.69 726.39,-327.86"/>
</g>
<!-- Node28&#45;&gt;Node32 -->
<g id="edge55" class="edge">
<title>Node28&#45;&gt;Node32</title>
<path fill="none" stroke="midnightblue" d="M711.57,-326.48C715.96,-312.14 723.89,-292.66 737,-280 756.06,-261.59 783.77,-250.22 806.22,-243.51"/>
<polygon fill="midnightblue" stroke="midnightblue" points="708.17,-325.67 708.88,-336.24 714.91,-327.53 708.17,-325.67"/>
</g>
<!-- Node29&#45;&gt;Node9 -->
<g id="edge50" class="edge">
<title>Node29&#45;&gt;Node9</title>
<path fill="none" stroke="midnightblue" d="M491.15,-276.16C472.14,-267.49 446.83,-255.57 425,-244 381.7,-221.04 371.16,-214.61 330,-188 300.27,-168.78 266.59,-144.25 249.41,-131.52"/>
<polygon fill="midnightblue" stroke="midnightblue" points="489.91,-279.43 500.46,-280.37 492.79,-273.06 489.91,-279.43"/>
</g>
<!-- Node30 -->
<g id="node30" class="node">
<title>Node30</title>
<g id="a_node30"><a xlink:href="human__player_8cpp.html" target="_top" xlink:title=" ">
<polygon fill="white" stroke="black" points="433.5,-224.5 433.5,-243.5 556.5,-243.5 556.5,-224.5 433.5,-224.5"/>
<text text-anchor="middle" x="495" y="-231.5" font-family="Helvetica,sans-Serif" font-size="10.00">src/human_player.cpp</text>
</a>
</g>
</g>
<!-- Node29&#45;&gt;Node30 -->
<g id="edge49" class="edge">
<title>Node29&#45;&gt;Node30</title>
<path fill="none" stroke="midnightblue" d="M511.66,-270.98C507.42,-261.82 502.45,-251.09 499.05,-243.75"/>
<polygon fill="midnightblue" stroke="midnightblue" points="508.49,-272.48 515.87,-280.08 514.85,-269.54 508.49,-272.48"/>
</g>
<!-- Node32&#45;&gt;Node8 -->
<g id="edge56" class="edge">
<title>Node32&#45;&gt;Node8</title>
<path fill="none" stroke="midnightblue" d="M843.85,-214.07C842.64,-199.18 838.39,-179.15 825,-168 796.03,-143.88 551.67,-130.21 441.04,-125.21"/>
<polygon fill="midnightblue" stroke="midnightblue" points="840.36,-214.37 844.28,-224.22 847.36,-214.08 840.36,-214.37"/>
</g>
<!-- Node32&#45;&gt;Node19 -->
<g id="edge57" class="edge">
<title>Node32&#45;&gt;Node19</title>
<path fill="none" stroke="midnightblue" d="M884.18,-221.7C920.42,-211.51 972.91,-196.74 1005.72,-187.52"/>
<polygon fill="midnightblue" stroke="midnightblue" points="883.1,-218.37 874.42,-224.44 885,-225.11 883.1,-218.37"/>
</g>
<!-- Node32&#45;&gt;Node21 -->
<g id="edge58" class="edge">
<title>Node32&#45;&gt;Node21</title>
<path fill="none" stroke="midnightblue" d="M895.7,-224.19C955.21,-214.06 1052.28,-197.52 1111.04,-187.51"/>
<polygon fill="midnightblue" stroke="midnightblue" points="895.04,-220.76 885.77,-225.88 896.21,-227.66 895.04,-220.76"/>
</g>
<!-- Node32&#45;&gt;Node24 -->
<g id="edge59" class="edge">
<title>Node32&#45;&gt;Node24</title>
<path fill="none" stroke="midnightblue" d="M806.95,-221.44C774.34,-211.26 727.59,-196.66 698.28,-187.52"/>
<polygon fill="midnightblue" stroke="midnightblue" points="806,-224.8 816.59,-224.44 808.08,-218.12 806,-224.8"/>
</g>
<!-- Node32&#45;&gt;Node27 -->
<g id="edge60" class="edge">
<title>Node32&#45;&gt;Node27</title>
<path fill="none" stroke="midnightblue" d="M825.17,-217.82C813.16,-208.15 798.03,-195.95 787.96,-187.83"/>
<polygon fill="midnightblue" stroke="midnightblue" points="823.25,-220.77 833.24,-224.32 827.65,-215.32 823.25,-220.77"/>
</g>
<!-- Node33 -->
<g id="node33" class="node">
<title>Node33</title>
<g id="a_node33"><a xlink:href="validate_8cpp.html" target="_top" xlink:title=" ">
<polygon fill="white" stroke="black" points="872,-168.5 872,-187.5 966,-187.5 966,-168.5 872,-168.5"/>
<text text-anchor="middle" x="919" y="-175.5" font-family="Helvetica,sans-Serif" font-size="10.00">src/validate.cpp</text>
</a>
</g>
</g>
<!-- Node32&#45;&gt;Node33 -->
<g id="edge61" class="edge">
<title>Node32&#45;&gt;Node33</title>
<path fill="none" stroke="midnightblue" d="M864.31,-218.38C877.86,-208.62 895.24,-196.11 906.73,-187.83"/>
<polygon fill="midnightblue" stroke="midnightblue" points="862.12,-215.64 856.05,-224.32 866.21,-221.32 862.12,-215.64"/>
</g>
</g>
</svg>
