<?xml version="1.0" encoding="UTF-8" standalone="no"?>
<!DOCTYPE svg PUBLIC "-//W3C//DTD SVG 1.1//EN"
 "http://www.w3.org/Graphics/SVG/1.1/DTD/svg11.dtd">
<!-- Generated by graphviz version 2.43.0 (0)
 -->
<!-- Title: src/square.cpp Pages: 1 -->
<svg width="211pt" height="252pt"
 viewBox="0.00 0.00 211.00 252.00" xmlns="http://www.w3.org/2000/svg" xmlns:xlink="http://www.w3.org/1999/xlink">
<g id="graph0" class="graph" transform="scale(1 1) rotate(0) translate(4 248)">
<title>src/square.cpp</title>
<polygon fill="white" stroke="transparent" points="-4,4 -4,-248 207,-248 207,4 -4,4"/>
<!-- Node1 -->
<g id="node1" class="node">
<title>Node1</title>
<g id="a_node1"><a xlink:title=" ">
<polygon fill="#bfbfbf" stroke="black" points="0,-224.5 0,-243.5 87,-243.5 87,-224.5 0,-224.5"/>
<text text-anchor="middle" x="43.5" y="-231.5" font-family="Helvetica,sans-Serif" font-size="10.00">src/square.cpp</text>
</a>
</g>
</g>
<!-- Node2 -->
<g id="node2" class="node">
<title>Node2</title>
<g id="a_node2"><a xlink:href="square_8h.html" target="_top" xlink:title=" ">
<polygon fill="white" stroke="black" points="14,-168.5 14,-187.5 73,-187.5 73,-168.5 14,-168.5"/>
<text text-anchor="middle" x="43.5" y="-175.5" font-family="Helvetica,sans-Serif" font-size="10.00">square.h</text>
</a>
</g>
</g>
<!-- Node1&#45;&gt;Node2 -->
<g id="edge1" class="edge">
<title>Node1&#45;&gt;Node2</title>
<path fill="none" stroke="midnightblue" d="M43.5,-224.08C43.5,-217.01 43.5,-206.86 43.5,-197.99"/>
<polygon fill="midnightblue" stroke="midnightblue" points="47,-197.75 43.5,-187.75 40,-197.75 47,-197.75"/>
</g>
<!-- Node3 -->
<g id="node3" class="node">
<title>Node3</title>
<g id="a_node3"><a xlink:title=" ">
<polygon fill="white" stroke="#bfbfbf" points="14.5,-0.5 14.5,-19.5 74.5,-19.5 74.5,-0.5 14.5,-0.5"/>
<text text-anchor="middle" x="44.5" y="-7.5" font-family="Helvetica,sans-Serif" font-size="10.00">iostream</text>
</a>
</g>
</g>
<!-- Node2&#45;&gt;Node3 -->
<g id="edge2" class="edge">
<title>Node2&#45;&gt;Node3</title>
<path fill="none" stroke="midnightblue" d="M32.79,-168.3C23.56,-160.07 10.91,-146.79 5.5,-132 -7.95,-95.22 15.98,-51.29 31.94,-27.8"/>
<polygon fill="midnightblue" stroke="midnightblue" points="34.83,-29.77 37.76,-19.59 29.12,-25.72 34.83,-29.77"/>
</g>
<!-- Node4 -->
<g id="node4" class="node">
<title>Node4</title>
<g id="a_node4"><a xlink:title=" ">
<polygon fill="white" stroke="#bfbfbf" points="14.5,-112.5 14.5,-131.5 72.5,-131.5 72.5,-112.5 14.5,-112.5"/>
<text text-anchor="middle" x="43.5" y="-119.5" font-family="Helvetica,sans-Serif" font-size="10.00">memory</text>
</a>
</g>
</g>
<!-- Node2&#45;&gt;Node4 -->
<g id="edge3" class="edge">
<title>Node2&#45;&gt;Node4</title>
<path fill="none" stroke="midnightblue" d="M43.5,-168.08C43.5,-161.01 43.5,-150.86 43.5,-141.99"/>
<polygon fill="midnightblue" stroke="midnightblue" points="47,-141.75 43.5,-131.75 40,-141.75 47,-141.75"/>
</g>
<!-- Node5 -->
<g id="node5" class="node">
<title>Node5</title>
<g id="a_node5"><a xlink:href="piece_8h.html" target="_top" xlink:title=" ">
<polygon fill="white" stroke="black" points="90.5,-112.5 90.5,-131.5 142.5,-131.5 142.5,-112.5 90.5,-112.5"/>
<text text-anchor="middle" x="116.5" y="-119.5" font-family="Helvetica,sans-Serif" font-size="10.00">piece.h</text>
</a>
</g>
</g>
<!-- Node2&#45;&gt;Node5 -->
<g id="edge4" class="edge">
<title>Node2&#45;&gt;Node5</title>
<path fill="none" stroke="midnightblue" d="M55.23,-168.32C66.34,-160.11 83.24,-147.6 96.48,-137.81"/>
<polygon fill="midnightblue" stroke="midnightblue" points="98.6,-140.59 104.56,-131.83 94.44,-134.97 98.6,-140.59"/>
</g>
<!-- Node5&#45;&gt;Node3 -->
<g id="edge5" class="edge">
<title>Node5&#45;&gt;Node3</title>
<path fill="none" stroke="midnightblue" d="M102.31,-112.37C90.3,-104.37 73.49,-91.39 63.5,-76 54.4,-61.98 49.55,-43.48 47.03,-29.8"/>
<polygon fill="midnightblue" stroke="midnightblue" points="50.45,-28.98 45.43,-19.65 43.53,-30.08 50.45,-28.98"/>
</g>
<!-- Node6 -->
<g id="node6" class="node">
<title>Node6</title>
<g id="a_node6"><a xlink:title=" ">
<polygon fill="white" stroke="#bfbfbf" points="73,-56.5 73,-75.5 120,-75.5 120,-56.5 73,-56.5"/>
<text text-anchor="middle" x="96.5" y="-63.5" font-family="Helvetica,sans-Serif" font-size="10.00">vector</text>
</a>
</g>
</g>
<!-- Node5&#45;&gt;Node6 -->
<g id="edge6" class="edge">
<title>Node5&#45;&gt;Node6</title>
<path fill="none" stroke="midnightblue" d="M113.2,-112.08C110.52,-104.85 106.65,-94.41 103.31,-85.4"/>
<polygon fill="midnightblue" stroke="midnightblue" points="106.5,-83.91 99.74,-75.75 99.93,-86.34 106.5,-83.91"/>
</g>
<!-- Node7 -->
<g id="node7" class="node">
<title>Node7</title>
<g id="a_node7"><a xlink:href="position_8h.html" target="_top" xlink:title=" ">
<polygon fill="white" stroke="black" points="138,-56.5 138,-75.5 203,-75.5 203,-56.5 138,-56.5"/>
<text text-anchor="middle" x="170.5" y="-63.5" font-family="Helvetica,sans-Serif" font-size="10.00">position.h</text>
</a>
</g>
</g>
<!-- Node5&#45;&gt;Node7 -->
<g id="edge7" class="edge">
<title>Node5&#45;&gt;Node7</title>
<path fill="none" stroke="midnightblue" d="M125.42,-112.08C133.28,-104.22 144.93,-92.57 154.42,-83.08"/>
<polygon fill="midnightblue" stroke="midnightblue" points="157.15,-85.3 161.75,-75.75 152.2,-80.35 157.15,-85.3"/>
</g>
<!-- Node7&#45;&gt;Node3 -->
<g id="edge8" class="edge">
<title>Node7&#45;&gt;Node3</title>
<path fill="none" stroke="midnightblue" d="M150.53,-56.44C129.89,-47.6 97.44,-33.69 73.87,-23.59"/>
<polygon fill="midnightblue" stroke="midnightblue" points="74.94,-20.24 64.37,-19.52 72.18,-26.67 74.94,-20.24"/>
</g>
</g>
</svg>
