<?xml version="1.0" encoding="UTF-8" standalone="no"?>
<!DOCTYPE svg PUBLIC "-//W3C//DTD SVG 1.1//EN"
 "http://www.w3.org/Graphics/SVG/1.1/DTD/svg11.dtd">
<!-- Generated by graphviz version 2.43.0 (0)
 -->
<!-- Title: src/square.h Pages: 1 -->
<svg width="210pt" height="196pt"
 viewBox="0.00 0.00 209.59 196.00" xmlns="http://www.w3.org/2000/svg" xmlns:xlink="http://www.w3.org/1999/xlink">
<g id="graph0" class="graph" transform="scale(1 1) rotate(0) translate(4 192)">
<title>src/square.h</title>
<polygon fill="white" stroke="transparent" points="-4,4 -4,-192 205.59,-192 205.59,4 -4,4"/>
<!-- Node1 -->
<g id="node1" class="node">
<title>Node1</title>
<g id="a_node1"><a xlink:title=" ">
<polygon fill="#bfbfbf" stroke="black" points="4.09,-168.5 4.09,-187.5 80.09,-187.5 80.09,-168.5 4.09,-168.5"/>
<text text-anchor="middle" x="42.09" y="-175.5" font-family="Helvetica,sans-Serif" font-size="10.00">src/square.h</text>
</a>
</g>
</g>
<!-- Node2 -->
<g id="node2" class="node">
<title>Node2</title>
<g id="a_node2"><a xlink:title=" ">
<polygon fill="white" stroke="#bfbfbf" points="13.09,-0.5 13.09,-19.5 73.09,-19.5 73.09,-0.5 13.09,-0.5"/>
<text text-anchor="middle" x="43.09" y="-7.5" font-family="Helvetica,sans-Serif" font-size="10.00">iostream</text>
</a>
</g>
</g>
<!-- Node1&#45;&gt;Node2 -->
<g id="edge1" class="edge">
<title>Node1&#45;&gt;Node2</title>
<path fill="none" stroke="midnightblue" d="M31.37,-168.3C22.15,-160.07 9.5,-146.79 4.09,-132 -9.36,-95.22 14.57,-51.29 30.53,-27.8"/>
<polygon fill="midnightblue" stroke="midnightblue" points="33.42,-29.77 36.35,-19.59 27.71,-25.72 33.42,-29.77"/>
</g>
<!-- Node3 -->
<g id="node3" class="node">
<title>Node3</title>
<g id="a_node3"><a xlink:title=" ">
<polygon fill="white" stroke="#bfbfbf" points="13.09,-112.5 13.09,-131.5 71.09,-131.5 71.09,-112.5 13.09,-112.5"/>
<text text-anchor="middle" x="42.09" y="-119.5" font-family="Helvetica,sans-Serif" font-size="10.00">memory</text>
</a>
</g>
</g>
<!-- Node1&#45;&gt;Node3 -->
<g id="edge2" class="edge">
<title>Node1&#45;&gt;Node3</title>
<path fill="none" stroke="midnightblue" d="M42.09,-168.08C42.09,-161.01 42.09,-150.86 42.09,-141.99"/>
<polygon fill="midnightblue" stroke="midnightblue" points="45.59,-141.75 42.09,-131.75 38.59,-141.75 45.59,-141.75"/>
</g>
<!-- Node4 -->
<g id="node4" class="node">
<title>Node4</title>
<g id="a_node4"><a xlink:href="piece_8h.html" target="_top" xlink:title=" ">
<polygon fill="white" stroke="black" points="89.09,-112.5 89.09,-131.5 141.09,-131.5 141.09,-112.5 89.09,-112.5"/>
<text text-anchor="middle" x="115.09" y="-119.5" font-family="Helvetica,sans-Serif" font-size="10.00">piece.h</text>
</a>
</g>
</g>
<!-- Node1&#45;&gt;Node4 -->
<g id="edge3" class="edge">
<title>Node1&#45;&gt;Node4</title>
<path fill="none" stroke="midnightblue" d="M53.82,-168.32C64.93,-160.11 81.83,-147.6 95.07,-137.81"/>
<polygon fill="midnightblue" stroke="midnightblue" points="97.19,-140.59 103.15,-131.83 93.03,-134.97 97.19,-140.59"/>
</g>
<!-- Node4&#45;&gt;Node2 -->
<g id="edge4" class="edge">
<title>Node4&#45;&gt;Node2</title>
<path fill="none" stroke="midnightblue" d="M100.9,-112.37C88.89,-104.37 72.08,-91.39 62.09,-76 52.99,-61.98 48.14,-43.48 45.62,-29.8"/>
<polygon fill="midnightblue" stroke="midnightblue" points="49.03,-28.98 44.01,-19.65 42.12,-30.08 49.03,-28.98"/>
</g>
<!-- Node5 -->
<g id="node5" class="node">
<title>Node5</title>
<g id="a_node5"><a xlink:title=" ">
<polygon fill="white" stroke="#bfbfbf" points="71.59,-56.5 71.59,-75.5 118.59,-75.5 118.59,-56.5 71.59,-56.5"/>
<text text-anchor="middle" x="95.09" y="-63.5" font-family="Helvetica,sans-Serif" font-size="10.00">vector</text>
</a>
</g>
</g>
<!-- Node4&#45;&gt;Node5 -->
<g id="edge5" class="edge">
<title>Node4&#45;&gt;Node5</title>
<path fill="none" stroke="midnightblue" d="M111.79,-112.08C109.11,-104.85 105.24,-94.41 101.9,-85.4"/>
<polygon fill="midnightblue" stroke="midnightblue" points="105.09,-83.91 98.33,-75.75 98.52,-86.34 105.09,-83.91"/>
</g>
<!-- Node6 -->
<g id="node6" class="node">
<title>Node6</title>
<g id="a_node6"><a xlink:href="position_8h.html" target="_top" xlink:title=" ">
<polygon fill="white" stroke="black" points="136.59,-56.5 136.59,-75.5 201.59,-75.5 201.59,-56.5 136.59,-56.5"/>
<text text-anchor="middle" x="169.09" y="-63.5" font-family="Helvetica,sans-Serif" font-size="10.00">position.h</text>
</a>
</g>
</g>
<!-- Node4&#45;&gt;Node6 -->
<g id="edge6" class="edge">
<title>Node4&#45;&gt;Node6</title>
<path fill="none" stroke="midnightblue" d="M124.01,-112.08C131.87,-104.22 143.52,-92.57 153.01,-83.08"/>
<polygon fill="midnightblue" stroke="midnightblue" points="155.74,-85.3 160.34,-75.75 150.79,-80.35 155.74,-85.3"/>
</g>
<!-- Node6&#45;&gt;Node2 -->
<g id="edge7" class="edge">
<title>Node6&#45;&gt;Node2</title>
<path fill="none" stroke="midnightblue" d="M149.12,-56.44C128.48,-47.6 96.03,-33.69 72.46,-23.59"/>
<polygon fill="midnightblue" stroke="midnightblue" points="73.53,-20.24 62.96,-19.52 70.77,-26.67 73.53,-20.24"/>
</g>
</g>
</svg>
