<?xml version="1.0" encoding="UTF-8" standalone="no"?>
<!DOCTYPE svg PUBLIC "-//W3C//DTD SVG 1.1//EN"
 "http://www.w3.org/Graphics/SVG/1.1/DTD/svg11.dtd">
<!-- Generated by graphviz version 2.43.0 (0)
 -->
<!-- Title: src/tutorial.h Pages: 1 -->
<svg width="1053pt" height="532pt"
 viewBox="0.00 0.00 1053.33 532.00" xmlns="http://www.w3.org/2000/svg" xmlns:xlink="http://www.w3.org/1999/xlink">
<g id="graph0" class="graph" transform="scale(1 1) rotate(0) translate(4 528)">
<title>src/tutorial.h</title>
<polygon fill="white" stroke="transparent" points="-4,4 -4,-528 1049.33,-528 1049.33,4 -4,4"/>
<!-- Node1 -->
<g id="node1" class="node">
<title>Node1</title>
<g id="a_node1"><a xlink:title=" ">
<polygon fill="#bfbfbf" stroke="black" points="394.33,-504.5 394.33,-523.5 472.33,-523.5 472.33,-504.5 394.33,-504.5"/>
<text text-anchor="middle" x="433.33" y="-511.5" font-family="Helvetica,sans-Serif" font-size="10.00">src/tutorial.h</text>
</a>
</g>
</g>
<!-- Node2 -->
<g id="node2" class="node">
<title>Node2</title>
<g id="a_node2"><a xlink:title=" ">
<polygon fill="white" stroke="#bfbfbf" points="737.33,-0.5 737.33,-19.5 797.33,-19.5 797.33,-0.5 737.33,-0.5"/>
<text text-anchor="middle" x="767.33" y="-7.5" font-family="Helvetica,sans-Serif" font-size="10.00">iostream</text>
</a>
</g>
</g>
<!-- Node1&#45;&gt;Node2 -->
<g id="edge1" class="edge">
<title>Node1&#45;&gt;Node2</title>
<path fill="none" stroke="midnightblue" d="M472.54,-510.12C607.62,-499.7 1045.33,-461.43 1045.33,-403 1045.33,-403 1045.33,-403 1045.33,-121 1045.33,-84.55 1026.31,-75.21 995.33,-56 937.03,-19.85 855.6,-11.87 807.48,-10.59"/>
<polygon fill="midnightblue" stroke="midnightblue" points="807.51,-7.09 797.44,-10.4 807.38,-14.09 807.51,-7.09"/>
</g>
<!-- Node3 -->
<g id="node3" class="node">
<title>Node3</title>
<g id="a_node3"><a xlink:href="file__manager_8h.html" target="_top" xlink:title=" ">
<polygon fill="white" stroke="black" points="89.83,-336.5 89.83,-355.5 178.83,-355.5 178.83,-336.5 89.83,-336.5"/>
<text text-anchor="middle" x="134.33" y="-343.5" font-family="Helvetica,sans-Serif" font-size="10.00">file_manager.h</text>
</a>
</g>
</g>
<!-- Node1&#45;&gt;Node3 -->
<g id="edge2" class="edge">
<title>Node1&#45;&gt;Node3</title>
<path fill="none" stroke="midnightblue" d="M417.68,-504.31C368.73,-477.14 218.33,-393.64 158.88,-360.63"/>
<polygon fill="midnightblue" stroke="midnightblue" points="160.27,-357.4 149.83,-355.61 156.87,-363.52 160.27,-357.4"/>
</g>
<!-- Node19 -->
<g id="node19" class="node">
<title>Node19</title>
<g id="a_node19"><a xlink:href="human__player_8h.html" target="_top" xlink:title=" ">
<polygon fill="white" stroke="black" points="305.83,-392.5 305.83,-411.5 400.83,-411.5 400.83,-392.5 305.83,-392.5"/>
<text text-anchor="middle" x="353.33" y="-399.5" font-family="Helvetica,sans-Serif" font-size="10.00">human_player.h</text>
</a>
</g>
</g>
<!-- Node1&#45;&gt;Node19 -->
<g id="edge34" class="edge">
<title>Node1&#45;&gt;Node19</title>
<path fill="none" stroke="midnightblue" d="M427.05,-504.37C413.85,-486.22 383,-443.8 365.69,-419.99"/>
<polygon fill="midnightblue" stroke="midnightblue" points="368.29,-417.62 359.58,-411.59 362.63,-421.74 368.29,-417.62"/>
</g>
<!-- Node20 -->
<g id="node20" class="node">
<title>Node20</title>
<g id="a_node20"><a xlink:href="application_8h.html" target="_top" xlink:title=" ">
<polygon fill="white" stroke="black" points="427.33,-448.5 427.33,-467.5 507.33,-467.5 507.33,-448.5 427.33,-448.5"/>
<text text-anchor="middle" x="467.33" y="-455.5" font-family="Helvetica,sans-Serif" font-size="10.00">application.h</text>
</a>
</g>
</g>
<!-- Node1&#45;&gt;Node20 -->
<g id="edge36" class="edge">
<title>Node1&#45;&gt;Node20</title>
<path fill="none" stroke="midnightblue" d="M438.94,-504.08C443.7,-496.53 450.65,-485.49 456.48,-476.23"/>
<polygon fill="midnightblue" stroke="midnightblue" points="459.45,-478.08 461.82,-467.75 453.53,-474.35 459.45,-478.08"/>
</g>
<!-- Node3&#45;&gt;Node2 -->
<g id="edge3" class="edge">
<title>Node3&#45;&gt;Node2</title>
<path fill="none" stroke="midnightblue" d="M89.59,-337.39C65.71,-331.14 37.57,-319.93 19.33,-300 -0.99,-277.8 0.33,-265.1 0.33,-235 0.33,-235 0.33,-235 0.33,-121 0.33,-35.94 97.17,-73.86 180.33,-56 382.36,-12.62 631.39,-9.69 727.18,-10.38"/>
<polygon fill="midnightblue" stroke="midnightblue" points="727.27,-13.88 737.3,-10.47 727.33,-6.88 727.27,-13.88"/>
</g>
<!-- Node4 -->
<g id="node4" class="node">
<title>Node4</title>
<g id="a_node4"><a xlink:title=" ">
<polygon fill="white" stroke="#bfbfbf" points="78.83,-280.5 78.83,-299.5 133.83,-299.5 133.83,-280.5 78.83,-280.5"/>
<text text-anchor="middle" x="106.33" y="-287.5" font-family="Helvetica,sans-Serif" font-size="10.00">fstream</text>
</a>
</g>
</g>
<!-- Node3&#45;&gt;Node4 -->
<g id="edge4" class="edge">
<title>Node3&#45;&gt;Node4</title>
<path fill="none" stroke="midnightblue" d="M129.71,-336.08C125.87,-328.69 120.31,-317.95 115.57,-308.81"/>
<polygon fill="midnightblue" stroke="midnightblue" points="118.58,-307.02 110.87,-299.75 112.36,-310.24 118.58,-307.02"/>
</g>
<!-- Node5 -->
<g id="node5" class="node">
<title>Node5</title>
<g id="a_node5"><a xlink:title=" ">
<polygon fill="white" stroke="#bfbfbf" points="28.33,-280.5 28.33,-299.5 60.33,-299.5 60.33,-280.5 28.33,-280.5"/>
<text text-anchor="middle" x="44.33" y="-287.5" font-family="Helvetica,sans-Serif" font-size="10.00">set</text>
</a>
</g>
</g>
<!-- Node3&#45;&gt;Node5 -->
<g id="edge5" class="edge">
<title>Node3&#45;&gt;Node5</title>
<path fill="none" stroke="midnightblue" d="M119.87,-336.32C105.83,-327.9 84.28,-314.97 67.79,-305.07"/>
<polygon fill="midnightblue" stroke="midnightblue" points="69.13,-301.8 58.75,-299.65 65.53,-307.8 69.13,-301.8"/>
</g>
<!-- Node6 -->
<g id="node6" class="node">
<title>Node6</title>
<g id="a_node6"><a xlink:href="board_8h.html" target="_top" xlink:title=" ">
<polygon fill="white" stroke="black" points="457.83,-224.5 457.83,-243.5 510.83,-243.5 510.83,-224.5 457.83,-224.5"/>
<text text-anchor="middle" x="484.33" y="-231.5" font-family="Helvetica,sans-Serif" font-size="10.00">board.h</text>
</a>
</g>
</g>
<!-- Node3&#45;&gt;Node6 -->
<g id="edge6" class="edge">
<title>Node3&#45;&gt;Node6</title>
<path fill="none" stroke="midnightblue" d="M152.34,-336.41C181.15,-322.92 239.65,-296.6 291.33,-280 344.85,-262.81 408.68,-249.23 447.85,-241.66"/>
<polygon fill="midnightblue" stroke="midnightblue" points="448.57,-245.08 457.74,-239.77 447.26,-238.21 448.57,-245.08"/>
</g>
<!-- Node18 -->
<g id="node18" class="node">
<title>Node18</title>
<g id="a_node18"><a xlink:href="player_8h.html" target="_top" xlink:title=" ">
<polygon fill="white" stroke="black" points="318.33,-280.5 318.33,-299.5 374.33,-299.5 374.33,-280.5 318.33,-280.5"/>
<text text-anchor="middle" x="346.33" y="-287.5" font-family="Helvetica,sans-Serif" font-size="10.00">player.h</text>
</a>
</g>
</g>
<!-- Node3&#45;&gt;Node18 -->
<g id="edge30" class="edge">
<title>Node3&#45;&gt;Node18</title>
<path fill="none" stroke="midnightblue" d="M167.92,-336.44C206.16,-326.7 268.47,-310.83 308.42,-300.66"/>
<polygon fill="midnightblue" stroke="midnightblue" points="309.48,-304 318.31,-298.14 307.76,-297.21 309.48,-304"/>
</g>
<!-- Node6&#45;&gt;Node2 -->
<g id="edge7" class="edge">
<title>Node6&#45;&gt;Node2</title>
<path fill="none" stroke="midnightblue" d="M457.65,-228.77C417.29,-221.16 347.8,-202.63 371.33,-168 453.22,-47.44 643.7,-19.46 727.06,-12.96"/>
<polygon fill="midnightblue" stroke="midnightblue" points="727.42,-16.45 737.15,-12.24 726.93,-9.46 727.42,-16.45"/>
</g>
<!-- Node7 -->
<g id="node7" class="node">
<title>Node7</title>
<g id="a_node7"><a xlink:title=" ">
<polygon fill="white" stroke="#bfbfbf" points="264.83,-56.5 264.83,-75.5 311.83,-75.5 311.83,-56.5 264.83,-56.5"/>
<text text-anchor="middle" x="288.33" y="-63.5" font-family="Helvetica,sans-Serif" font-size="10.00">vector</text>
</a>
</g>
</g>
<!-- Node6&#45;&gt;Node7 -->
<g id="edge8" class="edge">
<title>Node6&#45;&gt;Node7</title>
<path fill="none" stroke="midnightblue" d="M457.82,-231.51C425.74,-228.36 371.86,-218.55 338.33,-188 308.19,-160.54 295.74,-112.16 290.99,-85.65"/>
<polygon fill="midnightblue" stroke="midnightblue" points="294.44,-85.07 289.39,-75.76 287.53,-86.19 294.44,-85.07"/>
</g>
<!-- Node8 -->
<g id="node8" class="node">
<title>Node8</title>
<g id="a_node8"><a xlink:href="square_8h.html" target="_top" xlink:title=" ">
<polygon fill="white" stroke="black" points="843.83,-168.5 843.83,-187.5 902.83,-187.5 902.83,-168.5 843.83,-168.5"/>
<text text-anchor="middle" x="873.33" y="-175.5" font-family="Helvetica,sans-Serif" font-size="10.00">square.h</text>
</a>
</g>
</g>
<!-- Node6&#45;&gt;Node8 -->
<g id="edge9" class="edge">
<title>Node6&#45;&gt;Node8</title>
<path fill="none" stroke="midnightblue" d="M511.27,-230.16C569.5,-223.86 711.37,-207.73 829.33,-188 830.77,-187.76 832.24,-187.5 833.72,-187.24"/>
<polygon fill="midnightblue" stroke="midnightblue" points="834.38,-190.68 843.56,-185.39 833.09,-183.8 834.38,-190.68"/>
</g>
<!-- Node11 -->
<g id="node11" class="node">
<title>Node11</title>
<g id="a_node11"><a xlink:href="position_8h.html" target="_top" xlink:title=" ">
<polygon fill="white" stroke="black" points="734.83,-56.5 734.83,-75.5 799.83,-75.5 799.83,-56.5 734.83,-56.5"/>
<text text-anchor="middle" x="767.33" y="-63.5" font-family="Helvetica,sans-Serif" font-size="10.00">position.h</text>
</a>
</g>
</g>
<!-- Node6&#45;&gt;Node11 -->
<g id="edge17" class="edge">
<title>Node6&#45;&gt;Node11</title>
<path fill="none" stroke="midnightblue" d="M511.16,-233.4C579.89,-233.78 759.43,-230.61 796.33,-188 809.61,-172.66 787.79,-114.68 775.22,-84.9"/>
<polygon fill="midnightblue" stroke="midnightblue" points="778.41,-83.45 771.24,-75.66 771.99,-86.22 778.41,-83.45"/>
</g>
<!-- Node12 -->
<g id="node12" class="node">
<title>Node12</title>
<g id="a_node12"><a xlink:href="pawn_8h.html" target="_top" xlink:title=" ">
<polygon fill="white" stroke="black" points="530.33,-168.5 530.33,-187.5 582.33,-187.5 582.33,-168.5 530.33,-168.5"/>
<text text-anchor="middle" x="556.33" y="-175.5" font-family="Helvetica,sans-Serif" font-size="10.00">pawn.h</text>
</a>
</g>
</g>
<!-- Node6&#45;&gt;Node12 -->
<g id="edge18" class="edge">
<title>Node6&#45;&gt;Node12</title>
<path fill="none" stroke="midnightblue" d="M495.9,-224.32C506.75,-216.18 523.21,-203.84 536.21,-194.09"/>
<polygon fill="midnightblue" stroke="midnightblue" points="538.65,-196.63 544.55,-187.83 534.45,-191.03 538.65,-196.63"/>
</g>
<!-- Node13 -->
<g id="node13" class="node">
<title>Node13</title>
<g id="a_node13"><a xlink:href="queen_8h.html" target="_top" xlink:title=" ">
<polygon fill="white" stroke="black" points="600.33,-168.5 600.33,-187.5 656.33,-187.5 656.33,-168.5 600.33,-168.5"/>
<text text-anchor="middle" x="628.33" y="-175.5" font-family="Helvetica,sans-Serif" font-size="10.00">queen.h</text>
</a>
</g>
</g>
<!-- Node6&#45;&gt;Node13 -->
<g id="edge20" class="edge">
<title>Node6&#45;&gt;Node13</title>
<path fill="none" stroke="midnightblue" d="M507.15,-224.44C531.16,-215.44 569.16,-201.19 596.2,-191.05"/>
<polygon fill="midnightblue" stroke="midnightblue" points="597.48,-194.3 605.62,-187.52 595.03,-187.75 597.48,-194.3"/>
</g>
<!-- Node14 -->
<g id="node14" class="node">
<title>Node14</title>
<g id="a_node14"><a xlink:href="king_8h.html" target="_top" xlink:title=" ">
<polygon fill="white" stroke="black" points="674.83,-168.5 674.83,-187.5 721.83,-187.5 721.83,-168.5 674.83,-168.5"/>
<text text-anchor="middle" x="698.33" y="-175.5" font-family="Helvetica,sans-Serif" font-size="10.00">king.h</text>
</a>
</g>
</g>
<!-- Node6&#45;&gt;Node14 -->
<g id="edge22" class="edge">
<title>Node6&#45;&gt;Node14</title>
<path fill="none" stroke="midnightblue" d="M511.06,-226.55C544.62,-218.42 604.2,-203.83 664.82,-188.09"/>
<polygon fill="midnightblue" stroke="midnightblue" points="665.76,-191.46 674.55,-185.55 663.99,-184.69 665.76,-191.46"/>
</g>
<!-- Node15 -->
<g id="node15" class="node">
<title>Node15</title>
<g id="a_node15"><a xlink:href="rook_8h.html" target="_top" xlink:title=" ">
<polygon fill="white" stroke="black" points="739.83,-168.5 739.83,-187.5 786.83,-187.5 786.83,-168.5 739.83,-168.5"/>
<text text-anchor="middle" x="763.33" y="-175.5" font-family="Helvetica,sans-Serif" font-size="10.00">rook.h</text>
</a>
</g>
</g>
<!-- Node6&#45;&gt;Node15 -->
<g id="edge24" class="edge">
<title>Node6&#45;&gt;Node15</title>
<path fill="none" stroke="midnightblue" d="M511.18,-228.96C555.03,-222.17 644.92,-207.5 729.84,-188.19"/>
<polygon fill="midnightblue" stroke="midnightblue" points="730.67,-191.59 739.63,-185.93 729.1,-184.77 730.67,-191.59"/>
</g>
<!-- Node16 -->
<g id="node16" class="node">
<title>Node16</title>
<g id="a_node16"><a xlink:href="bishop_8h.html" target="_top" xlink:title=" ">
<polygon fill="white" stroke="black" points="380.33,-168.5 380.33,-187.5 438.33,-187.5 438.33,-168.5 380.33,-168.5"/>
<text text-anchor="middle" x="409.33" y="-175.5" font-family="Helvetica,sans-Serif" font-size="10.00">bishop.h</text>
</a>
</g>
</g>
<!-- Node6&#45;&gt;Node16 -->
<g id="edge26" class="edge">
<title>Node6&#45;&gt;Node16</title>
<path fill="none" stroke="midnightblue" d="M472.28,-224.32C460.87,-216.11 443.5,-203.6 429.89,-193.81"/>
<polygon fill="midnightblue" stroke="midnightblue" points="431.76,-190.84 421.6,-187.83 427.67,-196.52 431.76,-190.84"/>
</g>
<!-- Node17 -->
<g id="node17" class="node">
<title>Node17</title>
<g id="a_node17"><a xlink:href="knight_8h.html" target="_top" xlink:title=" ">
<polygon fill="white" stroke="black" points="456.33,-168.5 456.33,-187.5 512.33,-187.5 512.33,-168.5 456.33,-168.5"/>
<text text-anchor="middle" x="484.33" y="-175.5" font-family="Helvetica,sans-Serif" font-size="10.00">knight.h</text>
</a>
</g>
</g>
<!-- Node6&#45;&gt;Node17 -->
<g id="edge28" class="edge">
<title>Node6&#45;&gt;Node17</title>
<path fill="none" stroke="midnightblue" d="M484.33,-224.08C484.33,-217.01 484.33,-206.86 484.33,-197.99"/>
<polygon fill="midnightblue" stroke="midnightblue" points="487.83,-197.75 484.33,-187.75 480.83,-197.75 487.83,-197.75"/>
</g>
<!-- Node8&#45;&gt;Node2 -->
<g id="edge10" class="edge">
<title>Node8&#45;&gt;Node2</title>
<path fill="none" stroke="midnightblue" d="M875.67,-168.15C878.61,-155.21 882.37,-130.65 874.33,-112 857.5,-72.97 817.35,-42.01 791.3,-25.12"/>
<polygon fill="midnightblue" stroke="midnightblue" points="793.07,-22.09 782.74,-19.74 789.34,-28.02 793.07,-22.09"/>
</g>
<!-- Node9 -->
<g id="node9" class="node">
<title>Node9</title>
<g id="a_node9"><a xlink:title=" ">
<polygon fill="white" stroke="#bfbfbf" points="807.33,-112.5 807.33,-131.5 865.33,-131.5 865.33,-112.5 807.33,-112.5"/>
<text text-anchor="middle" x="836.33" y="-119.5" font-family="Helvetica,sans-Serif" font-size="10.00">memory</text>
</a>
</g>
</g>
<!-- Node8&#45;&gt;Node9 -->
<g id="edge11" class="edge">
<title>Node8&#45;&gt;Node9</title>
<path fill="none" stroke="midnightblue" d="M867.22,-168.08C862.05,-160.53 854.48,-149.49 848.14,-140.23"/>
<polygon fill="midnightblue" stroke="midnightblue" points="850.87,-138.02 842.33,-131.75 845.09,-141.98 850.87,-138.02"/>
</g>
<!-- Node10 -->
<g id="node10" class="node">
<title>Node10</title>
<g id="a_node10"><a xlink:href="piece_8h.html" target="_top" xlink:title=" ">
<polygon fill="white" stroke="black" points="613.33,-112.5 613.33,-131.5 665.33,-131.5 665.33,-112.5 613.33,-112.5"/>
<text text-anchor="middle" x="639.33" y="-119.5" font-family="Helvetica,sans-Serif" font-size="10.00">piece.h</text>
</a>
</g>
</g>
<!-- Node8&#45;&gt;Node10 -->
<g id="edge12" class="edge">
<title>Node8&#45;&gt;Node10</title>
<path fill="none" stroke="midnightblue" d="M843.69,-170.16C800.82,-160.27 721.58,-141.98 675.38,-131.32"/>
<polygon fill="midnightblue" stroke="midnightblue" points="676.02,-127.88 665.49,-129.04 674.45,-134.7 676.02,-127.88"/>
</g>
<!-- Node10&#45;&gt;Node2 -->
<g id="edge13" class="edge">
<title>Node10&#45;&gt;Node2</title>
<path fill="none" stroke="midnightblue" d="M649.37,-112.37C671.06,-93.73 722.49,-49.53 749.72,-26.13"/>
<polygon fill="midnightblue" stroke="midnightblue" points="752.03,-28.76 757.33,-19.59 747.47,-23.45 752.03,-28.76"/>
</g>
<!-- Node10&#45;&gt;Node7 -->
<g id="edge14" class="edge">
<title>Node10&#45;&gt;Node7</title>
<path fill="none" stroke="midnightblue" d="M613.23,-116.99C550.67,-107.36 392.15,-82.97 322.29,-72.22"/>
<polygon fill="midnightblue" stroke="midnightblue" points="322.67,-68.74 312.25,-70.68 321.61,-75.66 322.67,-68.74"/>
</g>
<!-- Node10&#45;&gt;Node11 -->
<g id="edge15" class="edge">
<title>Node10&#45;&gt;Node11</title>
<path fill="none" stroke="midnightblue" d="M659.61,-112.44C680.68,-103.56 713.85,-89.56 737.82,-79.45"/>
<polygon fill="midnightblue" stroke="midnightblue" points="739.29,-82.63 747.14,-75.52 736.57,-76.18 739.29,-82.63"/>
</g>
<!-- Node11&#45;&gt;Node2 -->
<g id="edge16" class="edge">
<title>Node11&#45;&gt;Node2</title>
<path fill="none" stroke="midnightblue" d="M767.33,-56.08C767.33,-49.01 767.33,-38.86 767.33,-29.99"/>
<polygon fill="midnightblue" stroke="midnightblue" points="770.83,-29.75 767.33,-19.75 763.83,-29.75 770.83,-29.75"/>
</g>
<!-- Node12&#45;&gt;Node10 -->
<g id="edge19" class="edge">
<title>Node12&#45;&gt;Node10</title>
<path fill="none" stroke="midnightblue" d="M569.67,-168.32C582.49,-159.98 602.11,-147.21 617.27,-137.35"/>
<polygon fill="midnightblue" stroke="midnightblue" points="619.55,-140.04 626.03,-131.65 615.74,-134.17 619.55,-140.04"/>
</g>
<!-- Node13&#45;&gt;Node10 -->
<g id="edge21" class="edge">
<title>Node13&#45;&gt;Node10</title>
<path fill="none" stroke="midnightblue" d="M630.15,-168.08C631.6,-160.93 633.7,-150.64 635.52,-141.69"/>
<polygon fill="midnightblue" stroke="midnightblue" points="638.98,-142.25 637.55,-131.75 632.12,-140.85 638.98,-142.25"/>
</g>
<!-- Node14&#45;&gt;Node10 -->
<g id="edge23" class="edge">
<title>Node14&#45;&gt;Node10</title>
<path fill="none" stroke="midnightblue" d="M688.85,-168.32C680.13,-160.34 666.99,-148.31 656.43,-138.65"/>
<polygon fill="midnightblue" stroke="midnightblue" points="658.72,-136 648.98,-131.83 654,-141.17 658.72,-136"/>
</g>
<!-- Node15&#45;&gt;Node10 -->
<g id="edge25" class="edge">
<title>Node15&#45;&gt;Node10</title>
<path fill="none" stroke="midnightblue" d="M743.68,-168.44C723.37,-159.6 691.43,-145.69 668.23,-135.59"/>
<polygon fill="midnightblue" stroke="midnightblue" points="669.45,-132.3 658.89,-131.52 666.66,-138.72 669.45,-132.3"/>
</g>
<!-- Node16&#45;&gt;Node10 -->
<g id="edge27" class="edge">
<title>Node16&#45;&gt;Node10</title>
<path fill="none" stroke="midnightblue" d="M438.37,-170.11C441.4,-169.4 444.43,-168.68 447.33,-168 501.55,-155.23 564.4,-140.51 603.02,-131.48"/>
<polygon fill="midnightblue" stroke="midnightblue" points="604.3,-134.78 613.24,-129.09 602.7,-127.96 604.3,-134.78"/>
</g>
<!-- Node17&#45;&gt;Node10 -->
<g id="edge29" class="edge">
<title>Node17&#45;&gt;Node10</title>
<path fill="none" stroke="midnightblue" d="M508.89,-168.44C534.85,-159.4 576,-145.06 605.13,-134.92"/>
<polygon fill="midnightblue" stroke="midnightblue" points="606.59,-138.11 614.88,-131.52 604.29,-131.5 606.59,-138.11"/>
</g>
<!-- Node18&#45;&gt;Node2 -->
<g id="edge31" class="edge">
<title>Node18&#45;&gt;Node2</title>
<path fill="none" stroke="midnightblue" d="M318.18,-281.65C275.75,-268.67 200.33,-237.39 200.33,-179 200.33,-179 200.33,-179 200.33,-121 200.33,-83.16 221.73,-73.41 255.33,-56 337.19,-13.58 620.53,-10.32 726.72,-10.64"/>
<polygon fill="midnightblue" stroke="midnightblue" points="727,-14.14 737.01,-10.69 727.03,-7.14 727,-14.14"/>
</g>
<!-- Node18&#45;&gt;Node6 -->
<g id="edge33" class="edge">
<title>Node18&#45;&gt;Node6</title>
<path fill="none" stroke="midnightblue" d="M368.2,-280.44C391.11,-271.48 427.3,-257.31 453.2,-247.18"/>
<polygon fill="midnightblue" stroke="midnightblue" points="454.53,-250.42 462.57,-243.52 451.98,-243.9 454.53,-250.42"/>
</g>
<!-- Node18&#45;&gt;Node7 -->
<g id="edge32" class="edge">
<title>Node18&#45;&gt;Node7</title>
<path fill="none" stroke="midnightblue" d="M342.56,-280.36C332.54,-256.99 305.23,-190.35 293.33,-132 290.18,-116.56 288.98,-98.69 288.54,-85.6"/>
<polygon fill="midnightblue" stroke="midnightblue" points="292.03,-85.43 288.31,-75.51 285.04,-85.58 292.03,-85.43"/>
</g>
<!-- Node19&#45;&gt;Node18 -->
<g id="edge35" class="edge">
<title>Node19&#45;&gt;Node18</title>
<path fill="none" stroke="midnightblue" d="M352.78,-392.37C351.65,-374.62 349.04,-333.67 347.51,-309.6"/>
<polygon fill="midnightblue" stroke="midnightblue" points="351,-309.35 346.88,-299.59 344.02,-309.79 351,-309.35"/>
</g>
<!-- Node20&#45;&gt;Node2 -->
<g id="edge37" class="edge">
<title>Node20&#45;&gt;Node2</title>
<path fill="none" stroke="midnightblue" d="M507.48,-457.36C632.62,-457.4 1007.33,-449.01 1007.33,-347 1007.33,-347 1007.33,-347 1007.33,-121 1007.33,-34.24 876.12,-15.64 807.74,-11.84"/>
<polygon fill="midnightblue" stroke="midnightblue" points="807.88,-8.34 797.73,-11.37 807.55,-15.34 807.88,-8.34"/>
</g>
<!-- Node21 -->
<g id="node21" class="node">
<title>Node21</title>
<g id="a_node21"><a xlink:href="rules_8h.html" target="_top" xlink:title=" ">
<polygon fill="white" stroke="black" points="495.33,-392.5 495.33,-411.5 545.33,-411.5 545.33,-392.5 495.33,-392.5"/>
<text text-anchor="middle" x="520.33" y="-399.5" font-family="Helvetica,sans-Serif" font-size="10.00">rules.h</text>
</a>
</g>
</g>
<!-- Node20&#45;&gt;Node21 -->
<g id="edge38" class="edge">
<title>Node20&#45;&gt;Node21</title>
<path fill="none" stroke="midnightblue" d="M476.08,-448.08C483.8,-440.22 495.23,-428.57 504.55,-419.08"/>
<polygon fill="midnightblue" stroke="midnightblue" points="507.23,-421.34 511.74,-411.75 502.24,-416.44 507.23,-421.34"/>
</g>
<!-- Node22 -->
<g id="node22" class="node">
<title>Node22</title>
<g id="a_node22"><a xlink:href="move_8h.html" target="_top" xlink:title=" ">
<polygon fill="white" stroke="black" points="440.83,-336.5 440.83,-355.5 493.83,-355.5 493.83,-336.5 440.83,-336.5"/>
<text text-anchor="middle" x="467.33" y="-343.5" font-family="Helvetica,sans-Serif" font-size="10.00">move.h</text>
</a>
</g>
</g>
<!-- Node20&#45;&gt;Node22 -->
<g id="edge46" class="edge">
<title>Node20&#45;&gt;Node22</title>
<path fill="none" stroke="midnightblue" d="M467.33,-448.37C467.33,-430.62 467.33,-389.67 467.33,-365.6"/>
<polygon fill="midnightblue" stroke="midnightblue" points="470.83,-365.59 467.33,-355.59 463.83,-365.59 470.83,-365.59"/>
</g>
<!-- Node23 -->
<g id="node23" class="node">
<title>Node23</title>
<g id="a_node23"><a xlink:href="game__rules_8h.html" target="_top" xlink:title=" ">
<polygon fill="white" stroke="black" points="241.83,-336.5 241.83,-355.5 324.83,-355.5 324.83,-336.5 241.83,-336.5"/>
<text text-anchor="middle" x="283.33" y="-343.5" font-family="Helvetica,sans-Serif" font-size="10.00">game_rules.h</text>
</a>
</g>
</g>
<!-- Node20&#45;&gt;Node23 -->
<g id="edge47" class="edge">
<title>Node20&#45;&gt;Node23</title>
<path fill="none" stroke="midnightblue" d="M461.76,-448.14C452.63,-434.3 433.19,-407.5 410.33,-392 387.1,-376.25 357.75,-365.38 333.12,-358.28"/>
<polygon fill="midnightblue" stroke="midnightblue" points="333.81,-354.84 323.24,-355.55 331.95,-361.58 333.81,-354.84"/>
</g>
<!-- Node21&#45;&gt;Node2 -->
<g id="edge39" class="edge">
<title>Node21&#45;&gt;Node2</title>
<path fill="none" stroke="midnightblue" d="M545.43,-400.29C639.99,-396.95 969.33,-378.98 969.33,-291 969.33,-291 969.33,-291 969.33,-121 969.33,-48.11 866.63,-23.24 807.68,-14.97"/>
<polygon fill="midnightblue" stroke="midnightblue" points="807.94,-11.47 797.57,-13.65 807.04,-18.41 807.94,-11.47"/>
</g>
<!-- Node21&#45;&gt;Node6 -->
<g id="edge40" class="edge">
<title>Node21&#45;&gt;Node6</title>
<path fill="none" stroke="midnightblue" d="M518.39,-392.08C512.73,-365.95 496.09,-289.21 488.36,-253.58"/>
<polygon fill="midnightblue" stroke="midnightblue" points="491.73,-252.6 486.19,-243.57 484.89,-254.08 491.73,-252.6"/>
</g>
<!-- Node21&#45;&gt;Node18 -->
<g id="edge41" class="edge">
<title>Node21&#45;&gt;Node18</title>
<path fill="none" stroke="midnightblue" d="M501.27,-392.44C483.08,-383.99 455.16,-370.31 432.33,-356 407.75,-340.59 381.41,-320.02 364.45,-306.18"/>
<polygon fill="midnightblue" stroke="midnightblue" points="366.44,-303.28 356.5,-299.62 361.99,-308.68 366.44,-303.28"/>
</g>
<!-- Node21&#45;&gt;Node22 -->
<g id="edge42" class="edge">
<title>Node21&#45;&gt;Node22</title>
<path fill="none" stroke="midnightblue" d="M511.58,-392.08C503.86,-384.22 492.43,-372.57 483.11,-363.08"/>
<polygon fill="midnightblue" stroke="midnightblue" points="485.42,-360.44 475.92,-355.75 480.43,-365.34 485.42,-360.44"/>
</g>
<!-- Node22&#45;&gt;Node2 -->
<g id="edge43" class="edge">
<title>Node22&#45;&gt;Node2</title>
<path fill="none" stroke="midnightblue" d="M493.94,-344.44C592.54,-341.67 931.33,-325.55 931.33,-235 931.33,-235 931.33,-235 931.33,-121 931.33,-61.47 855.87,-32.09 807.32,-19.34"/>
<polygon fill="midnightblue" stroke="midnightblue" points="807.96,-15.9 797.41,-16.87 806.27,-22.69 807.96,-15.9"/>
</g>
<!-- Node22&#45;&gt;Node6 -->
<g id="edge44" class="edge">
<title>Node22&#45;&gt;Node6</title>
<path fill="none" stroke="midnightblue" d="M468.66,-336.37C471.41,-318.62 477.74,-277.67 481.46,-253.6"/>
<polygon fill="midnightblue" stroke="midnightblue" points="484.93,-254.01 483,-243.59 478.02,-252.94 484.93,-254.01"/>
</g>
<!-- Node22&#45;&gt;Node18 -->
<g id="edge45" class="edge">
<title>Node22&#45;&gt;Node18</title>
<path fill="none" stroke="midnightblue" d="M448.16,-336.44C428.42,-327.64 397.44,-313.81 374.84,-303.72"/>
<polygon fill="midnightblue" stroke="midnightblue" points="375.97,-300.4 365.41,-299.52 373.12,-306.79 375.97,-300.4"/>
</g>
<!-- Node23&#45;&gt;Node2 -->
<g id="edge48" class="edge">
<title>Node23&#45;&gt;Node2</title>
<path fill="none" stroke="midnightblue" d="M260.57,-336.43C225.52,-321.58 162.33,-287.52 162.33,-235 162.33,-235 162.33,-235 162.33,-121 162.33,-82.87 184.35,-73.29 218.33,-56 307.19,-10.78 615.54,-9.37 726.86,-10.4"/>
<polygon fill="midnightblue" stroke="midnightblue" points="726.96,-13.9 737,-10.51 727.04,-6.9 726.96,-13.9"/>
</g>
<!-- Node23&#45;&gt;Node6 -->
<g id="edge50" class="edge">
<title>Node23&#45;&gt;Node6</title>
<path fill="none" stroke="midnightblue" d="M284.29,-336.43C286.32,-322.47 292.35,-294.92 309.33,-280 347.88,-246.12 408.64,-237.16 447.47,-235.11"/>
<polygon fill="midnightblue" stroke="midnightblue" points="447.95,-238.6 457.81,-234.7 447.67,-231.6 447.95,-238.6"/>
</g>
<!-- Node23&#45;&gt;Node7 -->
<g id="edge49" class="edge">
<title>Node23&#45;&gt;Node7</title>
<path fill="none" stroke="midnightblue" d="M277.07,-336.37C264.71,-318.44 238.33,-275.44 238.33,-235 238.33,-235 238.33,-235 238.33,-177 238.33,-141.18 260.57,-104.21 275.38,-83.56"/>
<polygon fill="midnightblue" stroke="midnightblue" points="278.21,-85.63 281.38,-75.52 272.6,-81.45 278.21,-85.63"/>
</g>
<!-- Node23&#45;&gt;Node18 -->
<g id="edge51" class="edge">
<title>Node23&#45;&gt;Node18</title>
<path fill="none" stroke="midnightblue" d="M293.45,-336.32C302.86,-328.26 317.07,-316.08 328.4,-306.37"/>
<polygon fill="midnightblue" stroke="midnightblue" points="330.71,-309 336.02,-299.83 326.15,-303.68 330.71,-309"/>
</g>
</g>
</svg>
