<?xml version="1.0" encoding="UTF-8" standalone="no"?>
<!DOCTYPE svg PUBLIC "-//W3C//DTD SVG 1.1//EN"
 "http://www.w3.org/Graphics/SVG/1.1/DTD/svg11.dtd">
<!-- Generated by graphviz version 2.43.0 (0)
 -->
<!-- Title: src/application.h Pages: 1 -->
<svg width="852pt" height="476pt"
 viewBox="0.00 0.00 852.00 476.00" xmlns="http://www.w3.org/2000/svg" xmlns:xlink="http://www.w3.org/1999/xlink">
<g id="graph0" class="graph" transform="scale(1 1) rotate(0) translate(4 472)">
<title>src/application.h</title>
<polygon fill="white" stroke="transparent" points="-4,4 -4,-472 848,-472 848,4 -4,4"/>
<!-- Node1 -->
<g id="node1" class="node">
<title>Node1</title>
<g id="a_node1"><a xlink:title=" ">
<polygon fill="#bfbfbf" stroke="black" points="641.5,-448.5 641.5,-467.5 738.5,-467.5 738.5,-448.5 641.5,-448.5"/>
<text text-anchor="middle" x="690" y="-455.5" font-family="Helvetica,sans-Serif" font-size="10.00">src/application.h</text>
</a>
</g>
</g>
<!-- Node2 -->
<g id="node2" class="node">
<title>Node2</title>
<g id="a_node2"><a xlink:title=" ">
<polygon fill="white" stroke="#bfbfbf" points="472,-0.5 472,-19.5 532,-19.5 532,-0.5 472,-0.5"/>
<text text-anchor="middle" x="502" y="-7.5" font-family="Helvetica,sans-Serif" font-size="10.00">iostream</text>
</a>
</g>
</g>
<!-- Node1&#45;&gt;Node2 -->
<g id="edge1" class="edge">
<title>Node1&#45;&gt;Node2</title>
<path fill="none" stroke="midnightblue" d="M725.72,-448.43C771.21,-435.13 844,-404.83 844,-347 844,-347 844,-347 844,-121 844,-74.15 803.82,-75.03 761,-56 688.43,-23.75 594.85,-14.55 542.35,-11.97"/>
<polygon fill="midnightblue" stroke="midnightblue" points="542.25,-8.46 532.1,-11.52 541.94,-15.45 542.25,-8.46"/>
</g>
<!-- Node3 -->
<g id="node3" class="node">
<title>Node3</title>
<g id="a_node3"><a xlink:href="rules_8h.html" target="_top" xlink:title=" ">
<polygon fill="white" stroke="black" points="556,-392.5 556,-411.5 606,-411.5 606,-392.5 556,-392.5"/>
<text text-anchor="middle" x="581" y="-399.5" font-family="Helvetica,sans-Serif" font-size="10.00">rules.h</text>
</a>
</g>
</g>
<!-- Node1&#45;&gt;Node3 -->
<g id="edge2" class="edge">
<title>Node1&#45;&gt;Node3</title>
<path fill="none" stroke="midnightblue" d="M672.49,-448.32C654.93,-439.62 627.67,-426.12 607.47,-416.11"/>
<polygon fill="midnightblue" stroke="midnightblue" points="608.98,-412.96 598.47,-411.65 605.88,-419.23 608.98,-412.96"/>
</g>
<!-- Node17 -->
<g id="node17" class="node">
<title>Node17</title>
<g id="a_node17"><a xlink:href="move_8h.html" target="_top" xlink:title=" ">
<polygon fill="white" stroke="black" points="609.5,-336.5 609.5,-355.5 662.5,-355.5 662.5,-336.5 609.5,-336.5"/>
<text text-anchor="middle" x="636" y="-343.5" font-family="Helvetica,sans-Serif" font-size="10.00">move.h</text>
</a>
</g>
</g>
<!-- Node1&#45;&gt;Node17 -->
<g id="edge36" class="edge">
<title>Node1&#45;&gt;Node17</title>
<path fill="none" stroke="midnightblue" d="M685.76,-448.37C676.93,-430.38 656.4,-388.55 644.65,-364.63"/>
<polygon fill="midnightblue" stroke="midnightblue" points="647.77,-363.03 640.22,-355.59 641.48,-366.11 647.77,-363.03"/>
</g>
<!-- Node18 -->
<g id="node18" class="node">
<title>Node18</title>
<g id="a_node18"><a xlink:href="game__rules_8h.html" target="_top" xlink:title=" ">
<polygon fill="white" stroke="black" points="680.5,-336.5 680.5,-355.5 763.5,-355.5 763.5,-336.5 680.5,-336.5"/>
<text text-anchor="middle" x="722" y="-343.5" font-family="Helvetica,sans-Serif" font-size="10.00">game_rules.h</text>
</a>
</g>
</g>
<!-- Node1&#45;&gt;Node18 -->
<g id="edge37" class="edge">
<title>Node1&#45;&gt;Node18</title>
<path fill="none" stroke="midnightblue" d="M692.51,-448.37C697.7,-430.54 709.7,-389.3 716.68,-365.27"/>
<polygon fill="midnightblue" stroke="midnightblue" points="720.07,-366.17 719.5,-355.59 713.35,-364.22 720.07,-366.17"/>
</g>
<!-- Node3&#45;&gt;Node2 -->
<g id="edge3" class="edge">
<title>Node3&#45;&gt;Node2</title>
<path fill="none" stroke="midnightblue" d="M555.66,-398.94C443.84,-389.5 0,-348.43 0,-291 0,-291 0,-291 0,-121 0,-26.71 342.23,-13.13 461.55,-11.27"/>
<polygon fill="midnightblue" stroke="midnightblue" points="461.78,-14.76 471.73,-11.13 461.68,-7.76 461.78,-14.76"/>
</g>
<!-- Node4 -->
<g id="node4" class="node">
<title>Node4</title>
<g id="a_node4"><a xlink:href="board_8h.html" target="_top" xlink:title=" ">
<polygon fill="white" stroke="black" points="410.5,-224.5 410.5,-243.5 463.5,-243.5 463.5,-224.5 410.5,-224.5"/>
<text text-anchor="middle" x="437" y="-231.5" font-family="Helvetica,sans-Serif" font-size="10.00">board.h</text>
</a>
</g>
</g>
<!-- Node3&#45;&gt;Node4 -->
<g id="edge4" class="edge">
<title>Node3&#45;&gt;Node4</title>
<path fill="none" stroke="midnightblue" d="M573.26,-392.08C550.1,-365.38 481.12,-285.87 451.16,-251.32"/>
<polygon fill="midnightblue" stroke="midnightblue" points="453.63,-248.83 444.43,-243.57 448.34,-253.42 453.63,-248.83"/>
</g>
<!-- Node16 -->
<g id="node16" class="node">
<title>Node16</title>
<g id="a_node16"><a xlink:href="player_8h.html" target="_top" xlink:title=" ">
<polygon fill="white" stroke="black" points="608,-280.5 608,-299.5 664,-299.5 664,-280.5 608,-280.5"/>
<text text-anchor="middle" x="636" y="-287.5" font-family="Helvetica,sans-Serif" font-size="10.00">player.h</text>
</a>
</g>
</g>
<!-- Node3&#45;&gt;Node16 -->
<g id="edge28" class="edge">
<title>Node3&#45;&gt;Node16</title>
<path fill="none" stroke="midnightblue" d="M582.45,-392.18C584.81,-379.28 590.24,-354.78 600,-336 605.41,-325.59 613.42,-315.28 620.51,-307.15"/>
<polygon fill="midnightblue" stroke="midnightblue" points="623.27,-309.32 627.42,-299.57 618.1,-304.6 623.27,-309.32"/>
</g>
<!-- Node3&#45;&gt;Node17 -->
<g id="edge32" class="edge">
<title>Node3&#45;&gt;Node17</title>
<path fill="none" stroke="midnightblue" d="M590.08,-392.08C598.17,-384.14 610.2,-372.34 619.91,-362.8"/>
<polygon fill="midnightblue" stroke="midnightblue" points="622.4,-365.25 627.09,-355.75 617.5,-360.26 622.4,-365.25"/>
</g>
<!-- Node4&#45;&gt;Node2 -->
<g id="edge5" class="edge">
<title>Node4&#45;&gt;Node2</title>
<path fill="none" stroke="midnightblue" d="M410.37,-231.64C331.27,-227.33 101.85,-212.77 80,-188 74.12,-181.33 79.29,-176.86 80,-168 82.01,-142.87 71.91,-130.53 89,-112 139.6,-57.15 367.94,-25.93 461.66,-15.24"/>
<polygon fill="midnightblue" stroke="midnightblue" points="462.33,-18.69 471.88,-14.09 461.55,-11.73 462.33,-18.69"/>
</g>
<!-- Node5 -->
<g id="node5" class="node">
<title>Node5</title>
<g id="a_node5"><a xlink:title=" ">
<polygon fill="white" stroke="#bfbfbf" points="578.5,-56.5 578.5,-75.5 625.5,-75.5 625.5,-56.5 578.5,-56.5"/>
<text text-anchor="middle" x="602" y="-63.5" font-family="Helvetica,sans-Serif" font-size="10.00">vector</text>
</a>
</g>
</g>
<!-- Node4&#45;&gt;Node5 -->
<g id="edge6" class="edge">
<title>Node4&#45;&gt;Node5</title>
<path fill="none" stroke="midnightblue" d="M463.76,-229.22C504.61,-222.86 579.56,-208.65 596,-188 619.28,-158.76 613.13,-111.81 607.19,-85.83"/>
<polygon fill="midnightblue" stroke="midnightblue" points="610.5,-84.64 604.67,-75.79 603.71,-86.35 610.5,-84.64"/>
</g>
<!-- Node6 -->
<g id="node6" class="node">
<title>Node6</title>
<g id="a_node6"><a xlink:href="square_8h.html" target="_top" xlink:title=" ">
<polygon fill="white" stroke="black" points="528.5,-168.5 528.5,-187.5 587.5,-187.5 587.5,-168.5 528.5,-168.5"/>
<text text-anchor="middle" x="558" y="-175.5" font-family="Helvetica,sans-Serif" font-size="10.00">square.h</text>
</a>
</g>
</g>
<!-- Node4&#45;&gt;Node6 -->
<g id="edge7" class="edge">
<title>Node4&#45;&gt;Node6</title>
<path fill="none" stroke="midnightblue" d="M456.17,-224.44C475.91,-215.64 506.89,-201.81 529.49,-191.72"/>
<polygon fill="midnightblue" stroke="midnightblue" points="531.21,-194.79 538.92,-187.52 528.36,-188.4 531.21,-194.79"/>
</g>
<!-- Node9 -->
<g id="node9" class="node">
<title>Node9</title>
<g id="a_node9"><a xlink:href="position_8h.html" target="_top" xlink:title=" ">
<polygon fill="white" stroke="black" points="370.5,-56.5 370.5,-75.5 435.5,-75.5 435.5,-56.5 370.5,-56.5"/>
<text text-anchor="middle" x="403" y="-63.5" font-family="Helvetica,sans-Serif" font-size="10.00">position.h</text>
</a>
</g>
</g>
<!-- Node4&#45;&gt;Node9 -->
<g id="edge15" class="edge">
<title>Node4&#45;&gt;Node9</title>
<path fill="none" stroke="midnightblue" d="M410.4,-231.49C333.62,-226.85 115.78,-211.69 95,-188 17.8,-99.98 258.69,-75.42 360.16,-69.06"/>
<polygon fill="midnightblue" stroke="midnightblue" points="360.61,-72.54 370.39,-68.45 360.2,-65.55 360.61,-72.54"/>
</g>
<!-- Node10 -->
<g id="node10" class="node">
<title>Node10</title>
<g id="a_node10"><a xlink:href="pawn_8h.html" target="_top" xlink:title=" ">
<polygon fill="white" stroke="black" points="254,-168.5 254,-187.5 306,-187.5 306,-168.5 254,-168.5"/>
<text text-anchor="middle" x="280" y="-175.5" font-family="Helvetica,sans-Serif" font-size="10.00">pawn.h</text>
</a>
</g>
</g>
<!-- Node4&#45;&gt;Node10 -->
<g id="edge16" class="edge">
<title>Node4&#45;&gt;Node10</title>
<path fill="none" stroke="midnightblue" d="M412.12,-224.44C385.71,-215.36 343.78,-200.94 314.26,-190.78"/>
<polygon fill="midnightblue" stroke="midnightblue" points="315.36,-187.46 304.76,-187.52 313.08,-194.08 315.36,-187.46"/>
</g>
<!-- Node11 -->
<g id="node11" class="node">
<title>Node11</title>
<g id="a_node11"><a xlink:href="queen_8h.html" target="_top" xlink:title=" ">
<polygon fill="white" stroke="black" points="324,-168.5 324,-187.5 380,-187.5 380,-168.5 324,-168.5"/>
<text text-anchor="middle" x="352" y="-175.5" font-family="Helvetica,sans-Serif" font-size="10.00">queen.h</text>
</a>
</g>
</g>
<!-- Node4&#45;&gt;Node11 -->
<g id="edge18" class="edge">
<title>Node4&#45;&gt;Node11</title>
<path fill="none" stroke="midnightblue" d="M423.34,-224.32C410.08,-215.9 389.73,-202.97 374.15,-193.07"/>
<polygon fill="midnightblue" stroke="midnightblue" points="375.94,-190.06 365.62,-187.65 372.19,-195.97 375.94,-190.06"/>
</g>
<!-- Node12 -->
<g id="node12" class="node">
<title>Node12</title>
<g id="a_node12"><a xlink:href="king_8h.html" target="_top" xlink:title=" ">
<polygon fill="white" stroke="black" points="398.5,-168.5 398.5,-187.5 445.5,-187.5 445.5,-168.5 398.5,-168.5"/>
<text text-anchor="middle" x="422" y="-175.5" font-family="Helvetica,sans-Serif" font-size="10.00">king.h</text>
</a>
</g>
</g>
<!-- Node4&#45;&gt;Node12 -->
<g id="edge20" class="edge">
<title>Node4&#45;&gt;Node12</title>
<path fill="none" stroke="midnightblue" d="M434.52,-224.08C432.51,-216.85 429.61,-206.41 427.11,-197.4"/>
<polygon fill="midnightblue" stroke="midnightblue" points="430.48,-196.45 424.43,-187.75 423.74,-198.32 430.48,-196.45"/>
</g>
<!-- Node13 -->
<g id="node13" class="node">
<title>Node13</title>
<g id="a_node13"><a xlink:href="rook_8h.html" target="_top" xlink:title=" ">
<polygon fill="white" stroke="black" points="463.5,-168.5 463.5,-187.5 510.5,-187.5 510.5,-168.5 463.5,-168.5"/>
<text text-anchor="middle" x="487" y="-175.5" font-family="Helvetica,sans-Serif" font-size="10.00">rook.h</text>
</a>
</g>
</g>
<!-- Node4&#45;&gt;Node13 -->
<g id="edge22" class="edge">
<title>Node4&#45;&gt;Node13</title>
<path fill="none" stroke="midnightblue" d="M445.26,-224.08C452.46,-216.3 463.11,-204.8 471.85,-195.37"/>
<polygon fill="midnightblue" stroke="midnightblue" points="474.67,-197.47 478.9,-187.75 469.53,-192.71 474.67,-197.47"/>
</g>
<!-- Node14 -->
<g id="node14" class="node">
<title>Node14</title>
<g id="a_node14"><a xlink:href="bishop_8h.html" target="_top" xlink:title=" ">
<polygon fill="white" stroke="black" points="104,-168.5 104,-187.5 162,-187.5 162,-168.5 104,-168.5"/>
<text text-anchor="middle" x="133" y="-175.5" font-family="Helvetica,sans-Serif" font-size="10.00">bishop.h</text>
</a>
</g>
</g>
<!-- Node4&#45;&gt;Node14 -->
<g id="edge24" class="edge">
<title>Node4&#45;&gt;Node14</title>
<path fill="none" stroke="midnightblue" d="M410.47,-229.1C364.13,-222.15 265.28,-206.78 171.89,-188.07"/>
<polygon fill="midnightblue" stroke="midnightblue" points="172.5,-184.62 162,-186.07 171.11,-191.49 172.5,-184.62"/>
</g>
<!-- Node15 -->
<g id="node15" class="node">
<title>Node15</title>
<g id="a_node15"><a xlink:href="knight_8h.html" target="_top" xlink:title=" ">
<polygon fill="white" stroke="black" points="180,-168.5 180,-187.5 236,-187.5 236,-168.5 180,-168.5"/>
<text text-anchor="middle" x="208" y="-175.5" font-family="Helvetica,sans-Serif" font-size="10.00">knight.h</text>
</a>
</g>
</g>
<!-- Node4&#45;&gt;Node15 -->
<g id="edge26" class="edge">
<title>Node4&#45;&gt;Node15</title>
<path fill="none" stroke="midnightblue" d="M410.27,-226.81C374.97,-218.62 310.62,-203.63 246.2,-188.27"/>
<polygon fill="midnightblue" stroke="midnightblue" points="246.82,-184.82 236.28,-185.9 245.19,-191.63 246.82,-184.82"/>
</g>
<!-- Node6&#45;&gt;Node2 -->
<g id="edge8" class="edge">
<title>Node6&#45;&gt;Node2</title>
<path fill="none" stroke="midnightblue" d="M548.43,-168.35C539.79,-159.96 527.46,-146.39 521,-132 505.81,-98.17 502.5,-54.28 501.93,-29.74"/>
<polygon fill="midnightblue" stroke="midnightblue" points="505.43,-29.61 501.83,-19.65 498.43,-29.68 505.43,-29.61"/>
</g>
<!-- Node7 -->
<g id="node7" class="node">
<title>Node7</title>
<g id="a_node7"><a xlink:title=" ">
<polygon fill="white" stroke="#bfbfbf" points="530,-112.5 530,-131.5 588,-131.5 588,-112.5 530,-112.5"/>
<text text-anchor="middle" x="559" y="-119.5" font-family="Helvetica,sans-Serif" font-size="10.00">memory</text>
</a>
</g>
</g>
<!-- Node6&#45;&gt;Node7 -->
<g id="edge9" class="edge">
<title>Node6&#45;&gt;Node7</title>
<path fill="none" stroke="midnightblue" d="M558.17,-168.08C558.3,-161.01 558.48,-150.86 558.65,-141.99"/>
<polygon fill="midnightblue" stroke="midnightblue" points="562.15,-141.81 558.84,-131.75 555.15,-141.68 562.15,-141.81"/>
</g>
<!-- Node8 -->
<g id="node8" class="node">
<title>Node8</title>
<g id="a_node8"><a xlink:href="piece_8h.html" target="_top" xlink:title=" ">
<polygon fill="white" stroke="black" points="386,-112.5 386,-131.5 438,-131.5 438,-112.5 386,-112.5"/>
<text text-anchor="middle" x="412" y="-119.5" font-family="Helvetica,sans-Serif" font-size="10.00">piece.h</text>
</a>
</g>
</g>
<!-- Node6&#45;&gt;Node8 -->
<g id="edge10" class="edge">
<title>Node6&#45;&gt;Node8</title>
<path fill="none" stroke="midnightblue" d="M534.87,-168.44C510.52,-159.44 471.99,-145.19 444.58,-135.05"/>
<polygon fill="midnightblue" stroke="midnightblue" points="445.62,-131.7 435.03,-131.52 443.19,-138.27 445.62,-131.7"/>
</g>
<!-- Node8&#45;&gt;Node2 -->
<g id="edge11" class="edge">
<title>Node8&#45;&gt;Node2</title>
<path fill="none" stroke="midnightblue" d="M419.06,-112.37C434.05,-94.05 469.23,-51.05 488.61,-27.36"/>
<polygon fill="midnightblue" stroke="midnightblue" points="491.35,-29.55 494.97,-19.59 485.93,-25.11 491.35,-29.55"/>
</g>
<!-- Node8&#45;&gt;Node5 -->
<g id="edge12" class="edge">
<title>Node8&#45;&gt;Node5</title>
<path fill="none" stroke="midnightblue" d="M438.02,-113.6C471.93,-103.97 531.27,-87.1 568.51,-76.52"/>
<polygon fill="midnightblue" stroke="midnightblue" points="569.72,-79.81 578.38,-73.71 567.81,-73.08 569.72,-79.81"/>
</g>
<!-- Node8&#45;&gt;Node9 -->
<g id="edge13" class="edge">
<title>Node8&#45;&gt;Node9</title>
<path fill="none" stroke="midnightblue" d="M410.51,-112.08C409.32,-104.93 407.61,-94.64 406.12,-85.69"/>
<polygon fill="midnightblue" stroke="midnightblue" points="409.55,-85.04 404.46,-75.75 402.65,-86.19 409.55,-85.04"/>
</g>
<!-- Node9&#45;&gt;Node2 -->
<g id="edge14" class="edge">
<title>Node9&#45;&gt;Node2</title>
<path fill="none" stroke="midnightblue" d="M418.91,-56.32C434.64,-47.74 458.94,-34.49 477.21,-24.52"/>
<polygon fill="midnightblue" stroke="midnightblue" points="479.03,-27.52 486.13,-19.65 475.68,-21.37 479.03,-27.52"/>
</g>
<!-- Node10&#45;&gt;Node8 -->
<g id="edge17" class="edge">
<title>Node10&#45;&gt;Node8</title>
<path fill="none" stroke="midnightblue" d="M300.92,-168.44C322.74,-159.52 357.15,-145.44 381.89,-135.32"/>
<polygon fill="midnightblue" stroke="midnightblue" points="383.25,-138.54 391.18,-131.52 380.6,-132.06 383.25,-138.54"/>
</g>
<!-- Node11&#45;&gt;Node8 -->
<g id="edge19" class="edge">
<title>Node11&#45;&gt;Node8</title>
<path fill="none" stroke="midnightblue" d="M361.64,-168.32C370.51,-160.34 383.87,-148.31 394.61,-138.65"/>
<polygon fill="midnightblue" stroke="midnightblue" points="397.09,-141.13 402.18,-131.83 392.41,-135.92 397.09,-141.13"/>
</g>
<!-- Node12&#45;&gt;Node8 -->
<g id="edge21" class="edge">
<title>Node12&#45;&gt;Node8</title>
<path fill="none" stroke="midnightblue" d="M420.35,-168.08C419.02,-160.93 417.12,-150.64 415.46,-141.69"/>
<polygon fill="midnightblue" stroke="midnightblue" points="418.88,-140.95 413.62,-131.75 412,-142.22 418.88,-140.95"/>
</g>
<!-- Node13&#45;&gt;Node8 -->
<g id="edge23" class="edge">
<title>Node13&#45;&gt;Node8</title>
<path fill="none" stroke="midnightblue" d="M474.95,-168.32C463.54,-160.11 446.17,-147.6 432.57,-137.81"/>
<polygon fill="midnightblue" stroke="midnightblue" points="434.43,-134.84 424.27,-131.83 430.34,-140.52 434.43,-134.84"/>
</g>
<!-- Node14&#45;&gt;Node8 -->
<g id="edge25" class="edge">
<title>Node14&#45;&gt;Node8</title>
<path fill="none" stroke="midnightblue" d="M162.01,-169.98C165.04,-169.29 168.08,-168.62 171,-168 243.39,-152.68 328.61,-137.41 375.84,-129.19"/>
<polygon fill="midnightblue" stroke="midnightblue" points="376.63,-132.61 385.88,-127.45 375.43,-125.71 376.63,-132.61"/>
</g>
<!-- Node15&#45;&gt;Node8 -->
<g id="edge27" class="edge">
<title>Node15&#45;&gt;Node8</title>
<path fill="none" stroke="midnightblue" d="M236.37,-169.49C272.82,-159.84 336.16,-143.08 375.98,-132.53"/>
<polygon fill="midnightblue" stroke="midnightblue" points="377.04,-135.87 385.81,-129.93 375.25,-129.11 377.04,-135.87"/>
</g>
<!-- Node16&#45;&gt;Node2 -->
<g id="edge29" class="edge">
<title>Node16&#45;&gt;Node2</title>
<path fill="none" stroke="midnightblue" d="M638.43,-280.24C643.34,-261.71 654,-217.12 654,-179 654,-179 654,-179 654,-121 654,-90.77 655.05,-77.69 634,-56 609.79,-31.05 571.22,-19.93 542.01,-14.98"/>
<polygon fill="midnightblue" stroke="midnightblue" points="542.52,-11.52 532.11,-13.47 541.46,-18.44 542.52,-11.52"/>
</g>
<!-- Node16&#45;&gt;Node4 -->
<g id="edge31" class="edge">
<title>Node16&#45;&gt;Node4</title>
<path fill="none" stroke="midnightblue" d="M607.91,-281.38C572.7,-271.82 512.28,-255.43 473.51,-244.91"/>
<polygon fill="midnightblue" stroke="midnightblue" points="474.24,-241.48 463.68,-242.24 472.41,-248.24 474.24,-241.48"/>
</g>
<!-- Node16&#45;&gt;Node5 -->
<g id="edge30" class="edge">
<title>Node16&#45;&gt;Node5</title>
<path fill="none" stroke="midnightblue" d="M644.75,-280.29C652.56,-271.84 663.45,-258.25 668,-244 670.7,-235.53 669.55,-232.75 668,-224 658.49,-170.35 628.47,-112.59 612.4,-84.43"/>
<polygon fill="midnightblue" stroke="midnightblue" points="615.41,-82.65 607.35,-75.76 609.36,-86.17 615.41,-82.65"/>
</g>
<!-- Node17&#45;&gt;Node2 -->
<g id="edge33" class="edge">
<title>Node17&#45;&gt;Node2</title>
<path fill="none" stroke="midnightblue" d="M651.52,-336.35C678.22,-320.2 730,-282.73 730,-235 730,-235 730,-235 730,-121 730,-38.61 607.73,-17.9 542.27,-12.71"/>
<polygon fill="midnightblue" stroke="midnightblue" points="542.5,-9.22 532.28,-12.01 542.01,-16.21 542.5,-9.22"/>
</g>
<!-- Node17&#45;&gt;Node4 -->
<g id="edge34" class="edge">
<title>Node17&#45;&gt;Node4</title>
<path fill="none" stroke="midnightblue" d="M620.38,-336.37C585.87,-317.29 502.89,-271.42 461.43,-248.51"/>
<polygon fill="midnightblue" stroke="midnightblue" points="462.99,-245.37 452.54,-243.59 459.6,-251.49 462.99,-245.37"/>
</g>
<!-- Node17&#45;&gt;Node16 -->
<g id="edge35" class="edge">
<title>Node17&#45;&gt;Node16</title>
<path fill="none" stroke="midnightblue" d="M636,-336.08C636,-329.01 636,-318.86 636,-309.99"/>
<polygon fill="midnightblue" stroke="midnightblue" points="639.5,-309.75 636,-299.75 632.5,-309.75 639.5,-309.75"/>
</g>
<!-- Node18&#45;&gt;Node2 -->
<g id="edge38" class="edge">
<title>Node18&#45;&gt;Node2</title>
<path fill="none" stroke="midnightblue" d="M735.12,-336.46C758.75,-319.94 806,-281.14 806,-235 806,-235 806,-235 806,-121 806,-73.09 763.64,-75.77 720,-56 661.54,-29.52 587.19,-18.46 542.17,-13.95"/>
<polygon fill="midnightblue" stroke="midnightblue" points="542.49,-10.47 532.2,-13.02 541.83,-17.44 542.49,-10.47"/>
</g>
<!-- Node18&#45;&gt;Node4 -->
<g id="edge40" class="edge">
<title>Node18&#45;&gt;Node4</title>
<path fill="none" stroke="midnightblue" d="M718.02,-336.19C711.07,-321.91 695.32,-293.89 673,-280 610.81,-241.3 522.88,-234.52 473.8,-234.08"/>
<polygon fill="midnightblue" stroke="midnightblue" points="473.65,-230.58 463.65,-234.07 473.65,-237.58 473.65,-230.58"/>
</g>
<!-- Node18&#45;&gt;Node5 -->
<g id="edge39" class="edge">
<title>Node18&#45;&gt;Node5</title>
<path fill="none" stroke="midnightblue" d="M728.4,-336.39C741.04,-318.5 768,-275.57 768,-235 768,-235 768,-235 768,-177 768,-114.06 684.05,-85.01 635.55,-73.48"/>
<polygon fill="midnightblue" stroke="midnightblue" points="636.31,-70.06 625.78,-71.28 634.77,-76.89 636.31,-70.06"/>
</g>
<!-- Node18&#45;&gt;Node16 -->
<g id="edge41" class="edge">
<title>Node18&#45;&gt;Node16</title>
<path fill="none" stroke="midnightblue" d="M708.18,-336.32C694.77,-327.9 674.18,-314.97 658.41,-305.07"/>
<polygon fill="midnightblue" stroke="midnightblue" points="660.11,-302.01 649.78,-299.65 656.39,-307.94 660.11,-302.01"/>
</g>
</g>
</svg>
