<?xml version="1.0" encoding="UTF-8" standalone="no"?>
<!DOCTYPE svg PUBLIC "-//W3C//DTD SVG 1.1//EN"
 "http://www.w3.org/Graphics/SVG/1.1/DTD/svg11.dtd">
<!-- Generated by graphviz version 2.43.0 (0)
 -->
<!-- Title: src/application.cpp Pages: 1 -->
<svg width="1063pt" height="532pt"
 viewBox="0.00 0.00 1062.50 532.00" xmlns="http://www.w3.org/2000/svg" xmlns:xlink="http://www.w3.org/1999/xlink">
<g id="graph0" class="graph" transform="scale(1 1) rotate(0) translate(4 528)">
<title>src/application.cpp</title>
<polygon fill="white" stroke="transparent" points="-4,4 -4,-528 1058.5,-528 1058.5,4 -4,4"/>
<!-- Node1 -->
<g id="node1" class="node">
<title>Node1</title>
<g id="a_node1"><a xlink:title=" ">
<polygon fill="#bfbfbf" stroke="black" points="722,-504.5 722,-523.5 830,-523.5 830,-504.5 722,-504.5"/>
<text text-anchor="middle" x="776" y="-511.5" font-family="Helvetica,sans-Serif" font-size="10.00">src/application.cpp</text>
</a>
</g>
</g>
<!-- Node2 -->
<g id="node2" class="node">
<title>Node2</title>
<g id="a_node2"><a xlink:href="application_8h.html" target="_top" xlink:title=" ">
<polygon fill="white" stroke="black" points="545,-448.5 545,-467.5 625,-467.5 625,-448.5 545,-448.5"/>
<text text-anchor="middle" x="585" y="-455.5" font-family="Helvetica,sans-Serif" font-size="10.00">application.h</text>
</a>
</g>
</g>
<!-- Node1&#45;&gt;Node2 -->
<g id="edge1" class="edge">
<title>Node1&#45;&gt;Node2</title>
<path fill="none" stroke="midnightblue" d="M745.74,-504.44C713.04,-495.2 660.82,-480.44 624.82,-470.26"/>
<polygon fill="midnightblue" stroke="midnightblue" points="625.7,-466.87 615.12,-467.52 623.79,-473.61 625.7,-466.87"/>
</g>
<!-- Node20 -->
<g id="node20" class="node">
<title>Node20</title>
<g id="a_node20"><a xlink:title=" ">
<polygon fill="white" stroke="#bfbfbf" points="713.5,-448.5 713.5,-467.5 778.5,-467.5 778.5,-448.5 713.5,-448.5"/>
<text text-anchor="middle" x="746" y="-455.5" font-family="Helvetica,sans-Serif" font-size="10.00">stdexcept</text>
</a>
</g>
</g>
<!-- Node1&#45;&gt;Node20 -->
<g id="edge43" class="edge">
<title>Node1&#45;&gt;Node20</title>
<path fill="none" stroke="midnightblue" d="M771.05,-504.08C766.9,-496.61 760.85,-485.72 755.73,-476.52"/>
<polygon fill="midnightblue" stroke="midnightblue" points="758.78,-474.79 750.86,-467.75 752.66,-478.19 758.78,-474.79"/>
</g>
<!-- Node21 -->
<g id="node21" class="node">
<title>Node21</title>
<g id="a_node21"><a xlink:href="file__manager_8h.html" target="_top" xlink:title=" ">
<polygon fill="white" stroke="black" points="869.5,-336.5 869.5,-355.5 958.5,-355.5 958.5,-336.5 869.5,-336.5"/>
<text text-anchor="middle" x="914" y="-343.5" font-family="Helvetica,sans-Serif" font-size="10.00">file_manager.h</text>
</a>
</g>
</g>
<!-- Node1&#45;&gt;Node21 -->
<g id="edge44" class="edge">
<title>Node1&#45;&gt;Node21</title>
<path fill="none" stroke="midnightblue" d="M783.42,-504.08C805.61,-477.38 871.71,-397.87 900.43,-363.32"/>
<polygon fill="midnightblue" stroke="midnightblue" points="903.18,-365.5 906.88,-355.57 897.79,-361.02 903.18,-365.5"/>
</g>
<!-- Node24 -->
<g id="node24" class="node">
<title>Node24</title>
<g id="a_node24"><a xlink:href="validate_8h.html" target="_top" xlink:title=" ">
<polygon fill="white" stroke="black" points="774.5,-336.5 774.5,-355.5 839.5,-355.5 839.5,-336.5 774.5,-336.5"/>
<text text-anchor="middle" x="807" y="-343.5" font-family="Helvetica,sans-Serif" font-size="10.00">validate.h</text>
</a>
</g>
</g>
<!-- Node1&#45;&gt;Node24 -->
<g id="edge50" class="edge">
<title>Node1&#45;&gt;Node24</title>
<path fill="none" stroke="midnightblue" d="M778.3,-504.42C780.68,-495.39 784.39,-480.76 787,-468 794.37,-431.97 800.9,-389.47 804.37,-365.64"/>
<polygon fill="midnightblue" stroke="midnightblue" points="807.86,-365.94 805.81,-355.55 800.93,-364.95 807.86,-365.94"/>
</g>
<!-- Node3 -->
<g id="node3" class="node">
<title>Node3</title>
<g id="a_node3"><a xlink:title=" ">
<polygon fill="white" stroke="#bfbfbf" points="236,-0.5 236,-19.5 296,-19.5 296,-0.5 236,-0.5"/>
<text text-anchor="middle" x="266" y="-7.5" font-family="Helvetica,sans-Serif" font-size="10.00">iostream</text>
</a>
</g>
</g>
<!-- Node2&#45;&gt;Node3 -->
<g id="edge2" class="edge">
<title>Node2&#45;&gt;Node3</title>
<path fill="none" stroke="midnightblue" d="M544.79,-453.71C412.62,-442.38 0,-402.55 0,-347 0,-347 0,-347 0,-121 0,-24.67 150.83,-11.04 225.33,-10.19"/>
<polygon fill="midnightblue" stroke="midnightblue" points="225.76,-13.68 235.75,-10.14 225.73,-6.68 225.76,-13.68"/>
</g>
<!-- Node4 -->
<g id="node4" class="node">
<title>Node4</title>
<g id="a_node4"><a xlink:href="rules_8h.html" target="_top" xlink:title=" ">
<polygon fill="white" stroke="black" points="507,-392.5 507,-411.5 557,-411.5 557,-392.5 507,-392.5"/>
<text text-anchor="middle" x="532" y="-399.5" font-family="Helvetica,sans-Serif" font-size="10.00">rules.h</text>
</a>
</g>
</g>
<!-- Node2&#45;&gt;Node4 -->
<g id="edge3" class="edge">
<title>Node2&#45;&gt;Node4</title>
<path fill="none" stroke="midnightblue" d="M576.25,-448.08C568.53,-440.22 557.1,-428.57 547.78,-419.08"/>
<polygon fill="midnightblue" stroke="midnightblue" points="550.09,-416.44 540.59,-411.75 545.1,-421.34 550.09,-416.44"/>
</g>
<!-- Node18 -->
<g id="node18" class="node">
<title>Node18</title>
<g id="a_node18"><a xlink:href="move_8h.html" target="_top" xlink:title=" ">
<polygon fill="white" stroke="black" points="536.5,-336.5 536.5,-355.5 589.5,-355.5 589.5,-336.5 536.5,-336.5"/>
<text text-anchor="middle" x="563" y="-343.5" font-family="Helvetica,sans-Serif" font-size="10.00">move.h</text>
</a>
</g>
</g>
<!-- Node2&#45;&gt;Node18 -->
<g id="edge37" class="edge">
<title>Node2&#45;&gt;Node18</title>
<path fill="none" stroke="midnightblue" d="M583.27,-448.37C579.72,-430.62 571.53,-389.67 566.72,-365.6"/>
<polygon fill="midnightblue" stroke="midnightblue" points="570.11,-364.71 564.72,-355.59 563.25,-366.08 570.11,-364.71"/>
</g>
<!-- Node19 -->
<g id="node19" class="node">
<title>Node19</title>
<g id="a_node19"><a xlink:href="game__rules_8h.html" target="_top" xlink:title=" ">
<polygon fill="white" stroke="black" points="646.5,-336.5 646.5,-355.5 729.5,-355.5 729.5,-336.5 646.5,-336.5"/>
<text text-anchor="middle" x="688" y="-343.5" font-family="Helvetica,sans-Serif" font-size="10.00">game_rules.h</text>
</a>
</g>
</g>
<!-- Node2&#45;&gt;Node19 -->
<g id="edge38" class="edge">
<title>Node2&#45;&gt;Node19</title>
<path fill="none" stroke="midnightblue" d="M593.08,-448.37C610.31,-429.97 650.85,-386.67 672.97,-363.05"/>
<polygon fill="midnightblue" stroke="midnightblue" points="675.68,-365.28 679.96,-355.59 670.57,-360.5 675.68,-365.28"/>
</g>
<!-- Node4&#45;&gt;Node3 -->
<g id="edge4" class="edge">
<title>Node4&#45;&gt;Node3</title>
<path fill="none" stroke="midnightblue" d="M506.82,-400.84C406.16,-399.53 38,-388.09 38,-291 38,-291 38,-291 38,-121 38,-38.61 160.27,-17.9 225.73,-12.71"/>
<polygon fill="midnightblue" stroke="midnightblue" points="225.99,-16.21 235.72,-12.01 225.5,-9.22 225.99,-16.21"/>
</g>
<!-- Node5 -->
<g id="node5" class="node">
<title>Node5</title>
<g id="a_node5"><a xlink:href="board_8h.html" target="_top" xlink:title=" ">
<polygon fill="white" stroke="black" points="522.5,-224.5 522.5,-243.5 575.5,-243.5 575.5,-224.5 522.5,-224.5"/>
<text text-anchor="middle" x="549" y="-231.5" font-family="Helvetica,sans-Serif" font-size="10.00">board.h</text>
</a>
</g>
</g>
<!-- Node4&#45;&gt;Node5 -->
<g id="edge5" class="edge">
<title>Node4&#45;&gt;Node5</title>
<path fill="none" stroke="midnightblue" d="M530.76,-392.4C529.52,-383.36 527.7,-368.71 527,-356 526.51,-347.12 526.05,-344.84 527,-336 530.16,-306.64 538.35,-273.3 543.79,-253.22"/>
<polygon fill="midnightblue" stroke="midnightblue" points="547.18,-254.12 546.49,-243.54 540.43,-252.24 547.18,-254.12"/>
</g>
<!-- Node17 -->
<g id="node17" class="node">
<title>Node17</title>
<g id="a_node17"><a xlink:href="player_8h.html" target="_top" xlink:title=" ">
<polygon fill="white" stroke="black" points="594,-280.5 594,-299.5 650,-299.5 650,-280.5 594,-280.5"/>
<text text-anchor="middle" x="622" y="-287.5" font-family="Helvetica,sans-Serif" font-size="10.00">player.h</text>
</a>
</g>
</g>
<!-- Node4&#45;&gt;Node17 -->
<g id="edge29" class="edge">
<title>Node4&#45;&gt;Node17</title>
<path fill="none" stroke="midnightblue" d="M550.58,-392.37C565.28,-384.69 585.37,-372.18 598,-356 608.63,-342.38 614.89,-323.59 618.33,-309.71"/>
<polygon fill="midnightblue" stroke="midnightblue" points="621.78,-310.35 620.52,-299.83 614.94,-308.84 621.78,-310.35"/>
</g>
<!-- Node4&#45;&gt;Node18 -->
<g id="edge33" class="edge">
<title>Node4&#45;&gt;Node18</title>
<path fill="none" stroke="midnightblue" d="M537.12,-392.08C541.41,-384.61 547.66,-373.72 552.94,-364.52"/>
<polygon fill="midnightblue" stroke="midnightblue" points="556.03,-366.17 557.98,-355.75 549.96,-362.68 556.03,-366.17"/>
</g>
<!-- Node5&#45;&gt;Node3 -->
<g id="edge6" class="edge">
<title>Node5&#45;&gt;Node3</title>
<path fill="none" stroke="midnightblue" d="M522.46,-231.59C444.21,-227.18 218.5,-212.42 197,-188 157.43,-143.05 193.68,-107.64 224,-56 230.4,-45.11 239.84,-34.68 248.16,-26.61"/>
<polygon fill="midnightblue" stroke="midnightblue" points="250.7,-29.02 255.65,-19.65 245.94,-23.89 250.7,-29.02"/>
</g>
<!-- Node6 -->
<g id="node6" class="node">
<title>Node6</title>
<g id="a_node6"><a xlink:title=" ">
<polygon fill="white" stroke="#bfbfbf" points="726.5,-56.5 726.5,-75.5 773.5,-75.5 773.5,-56.5 726.5,-56.5"/>
<text text-anchor="middle" x="750" y="-63.5" font-family="Helvetica,sans-Serif" font-size="10.00">vector</text>
</a>
</g>
</g>
<!-- Node5&#45;&gt;Node6 -->
<g id="edge7" class="edge">
<title>Node5&#45;&gt;Node6</title>
<path fill="none" stroke="midnightblue" d="M575.72,-232.99C611.27,-231.51 673.94,-223.58 711,-188 739.43,-160.71 747.18,-112.61 749.26,-86.02"/>
<polygon fill="midnightblue" stroke="midnightblue" points="752.77,-85.95 749.86,-75.76 745.78,-85.54 752.77,-85.95"/>
</g>
<!-- Node7 -->
<g id="node7" class="node">
<title>Node7</title>
<g id="a_node7"><a xlink:href="square_8h.html" target="_top" xlink:title=" ">
<polygon fill="white" stroke="black" points="643.5,-168.5 643.5,-187.5 702.5,-187.5 702.5,-168.5 643.5,-168.5"/>
<text text-anchor="middle" x="673" y="-175.5" font-family="Helvetica,sans-Serif" font-size="10.00">square.h</text>
</a>
</g>
</g>
<!-- Node5&#45;&gt;Node7 -->
<g id="edge8" class="edge">
<title>Node5&#45;&gt;Node7</title>
<path fill="none" stroke="midnightblue" d="M568.65,-224.44C588.96,-215.6 620.9,-201.69 644.1,-191.59"/>
<polygon fill="midnightblue" stroke="midnightblue" points="645.67,-194.72 653.44,-187.52 642.88,-188.3 645.67,-194.72"/>
</g>
<!-- Node10 -->
<g id="node10" class="node">
<title>Node10</title>
<g id="a_node10"><a xlink:href="position_8h.html" target="_top" xlink:title=" ">
<polygon fill="white" stroke="black" points="233.5,-56.5 233.5,-75.5 298.5,-75.5 298.5,-56.5 233.5,-56.5"/>
<text text-anchor="middle" x="266" y="-63.5" font-family="Helvetica,sans-Serif" font-size="10.00">position.h</text>
</a>
</g>
</g>
<!-- Node5&#45;&gt;Node10 -->
<g id="edge16" class="edge">
<title>Node5&#45;&gt;Node10</title>
<path fill="none" stroke="midnightblue" d="M522.28,-231.46C445.71,-226.77 229.63,-211.54 209,-188 180.71,-155.71 223,-106.95 248.69,-82.35"/>
<polygon fill="midnightblue" stroke="midnightblue" points="251.09,-84.91 256.04,-75.54 246.32,-79.78 251.09,-84.91"/>
</g>
<!-- Node11 -->
<g id="node11" class="node">
<title>Node11</title>
<g id="a_node11"><a xlink:href="pawn_8h.html" target="_top" xlink:title=" ">
<polygon fill="white" stroke="black" points="573,-168.5 573,-187.5 625,-187.5 625,-168.5 573,-168.5"/>
<text text-anchor="middle" x="599" y="-175.5" font-family="Helvetica,sans-Serif" font-size="10.00">pawn.h</text>
</a>
</g>
</g>
<!-- Node5&#45;&gt;Node11 -->
<g id="edge17" class="edge">
<title>Node5&#45;&gt;Node11</title>
<path fill="none" stroke="midnightblue" d="M557.26,-224.08C564.46,-216.3 575.11,-204.8 583.85,-195.37"/>
<polygon fill="midnightblue" stroke="midnightblue" points="586.67,-197.47 590.9,-187.75 581.53,-192.71 586.67,-197.47"/>
</g>
<!-- Node12 -->
<g id="node12" class="node">
<title>Node12</title>
<g id="a_node12"><a xlink:href="queen_8h.html" target="_top" xlink:title=" ">
<polygon fill="white" stroke="black" points="218,-168.5 218,-187.5 274,-187.5 274,-168.5 218,-168.5"/>
<text text-anchor="middle" x="246" y="-175.5" font-family="Helvetica,sans-Serif" font-size="10.00">queen.h</text>
</a>
</g>
</g>
<!-- Node5&#45;&gt;Node12 -->
<g id="edge19" class="edge">
<title>Node5&#45;&gt;Node12</title>
<path fill="none" stroke="midnightblue" d="M522.46,-229.15C476.11,-222.29 377.23,-207.04 284.1,-188.11"/>
<polygon fill="midnightblue" stroke="midnightblue" points="284.73,-184.67 274.24,-186.09 283.33,-191.52 284.73,-184.67"/>
</g>
<!-- Node13 -->
<g id="node13" class="node">
<title>Node13</title>
<g id="a_node13"><a xlink:href="king_8h.html" target="_top" xlink:title=" ">
<polygon fill="white" stroke="black" points="292.5,-168.5 292.5,-187.5 339.5,-187.5 339.5,-168.5 292.5,-168.5"/>
<text text-anchor="middle" x="316" y="-175.5" font-family="Helvetica,sans-Serif" font-size="10.00">king.h</text>
</a>
</g>
</g>
<!-- Node5&#45;&gt;Node13 -->
<g id="edge21" class="edge">
<title>Node5&#45;&gt;Node13</title>
<path fill="none" stroke="midnightblue" d="M522.23,-227.49C485.42,-219.8 416.88,-205.12 349.64,-188.32"/>
<polygon fill="midnightblue" stroke="midnightblue" points="350.28,-184.87 339.73,-185.83 348.57,-191.66 350.28,-184.87"/>
</g>
<!-- Node14 -->
<g id="node14" class="node">
<title>Node14</title>
<g id="a_node14"><a xlink:href="rook_8h.html" target="_top" xlink:title=" ">
<polygon fill="white" stroke="black" points="357.5,-168.5 357.5,-187.5 404.5,-187.5 404.5,-168.5 357.5,-168.5"/>
<text text-anchor="middle" x="381" y="-175.5" font-family="Helvetica,sans-Serif" font-size="10.00">rook.h</text>
</a>
</g>
</g>
<!-- Node5&#45;&gt;Node14 -->
<g id="edge23" class="edge">
<title>Node5&#45;&gt;Node14</title>
<path fill="none" stroke="midnightblue" d="M522.38,-224.44C493.08,-215.02 445.93,-199.87 414.22,-189.68"/>
<polygon fill="midnightblue" stroke="midnightblue" points="415.11,-186.29 404.51,-186.56 412.96,-192.95 415.11,-186.29"/>
</g>
<!-- Node15 -->
<g id="node15" class="node">
<title>Node15</title>
<g id="a_node15"><a xlink:href="bishop_8h.html" target="_top" xlink:title=" ">
<polygon fill="white" stroke="black" points="423,-168.5 423,-187.5 481,-187.5 481,-168.5 423,-168.5"/>
<text text-anchor="middle" x="452" y="-175.5" font-family="Helvetica,sans-Serif" font-size="10.00">bishop.h</text>
</a>
</g>
</g>
<!-- Node5&#45;&gt;Node15 -->
<g id="edge25" class="edge">
<title>Node5&#45;&gt;Node15</title>
<path fill="none" stroke="midnightblue" d="M533.42,-224.32C518,-215.74 494.19,-202.49 476.29,-192.52"/>
<polygon fill="midnightblue" stroke="midnightblue" points="477.99,-189.46 467.55,-187.65 474.58,-195.58 477.99,-189.46"/>
</g>
<!-- Node16 -->
<g id="node16" class="node">
<title>Node16</title>
<g id="a_node16"><a xlink:href="knight_8h.html" target="_top" xlink:title=" ">
<polygon fill="white" stroke="black" points="499,-168.5 499,-187.5 555,-187.5 555,-168.5 499,-168.5"/>
<text text-anchor="middle" x="527" y="-175.5" font-family="Helvetica,sans-Serif" font-size="10.00">knight.h</text>
</a>
</g>
</g>
<!-- Node5&#45;&gt;Node16 -->
<g id="edge27" class="edge">
<title>Node5&#45;&gt;Node16</title>
<path fill="none" stroke="midnightblue" d="M545.37,-224.08C542.39,-216.77 538.07,-206.18 534.38,-197.1"/>
<polygon fill="midnightblue" stroke="midnightblue" points="537.58,-195.69 530.57,-187.75 531.1,-198.33 537.58,-195.69"/>
</g>
<!-- Node7&#45;&gt;Node3 -->
<g id="edge9" class="edge">
<title>Node7&#45;&gt;Node3</title>
<path fill="none" stroke="midnightblue" d="M651.97,-168.42C584.85,-141.05 375.48,-55.65 296.54,-23.45"/>
<polygon fill="midnightblue" stroke="midnightblue" points="297.72,-20.16 287.14,-19.62 295.08,-26.64 297.72,-20.16"/>
</g>
<!-- Node8 -->
<g id="node8" class="node">
<title>Node8</title>
<g id="a_node8"><a xlink:title=" ">
<polygon fill="white" stroke="#bfbfbf" points="644,-112.5 644,-131.5 702,-131.5 702,-112.5 644,-112.5"/>
<text text-anchor="middle" x="673" y="-119.5" font-family="Helvetica,sans-Serif" font-size="10.00">memory</text>
</a>
</g>
</g>
<!-- Node7&#45;&gt;Node8 -->
<g id="edge10" class="edge">
<title>Node7&#45;&gt;Node8</title>
<path fill="none" stroke="midnightblue" d="M673,-168.08C673,-161.01 673,-150.86 673,-141.99"/>
<polygon fill="midnightblue" stroke="midnightblue" points="676.5,-141.75 673,-131.75 669.5,-141.75 676.5,-141.75"/>
</g>
<!-- Node9 -->
<g id="node9" class="node">
<title>Node9</title>
<g id="a_node9"><a xlink:href="piece_8h.html" target="_top" xlink:title=" ">
<polygon fill="white" stroke="black" points="390,-112.5 390,-131.5 442,-131.5 442,-112.5 390,-112.5"/>
<text text-anchor="middle" x="416" y="-119.5" font-family="Helvetica,sans-Serif" font-size="10.00">piece.h</text>
</a>
</g>
</g>
<!-- Node7&#45;&gt;Node9 -->
<g id="edge11" class="edge">
<title>Node7&#45;&gt;Node9</title>
<path fill="none" stroke="midnightblue" d="M643.21,-170.05C640.1,-169.35 636.99,-168.65 634,-168 570.17,-154.05 495.57,-138.9 452.27,-130.22"/>
<polygon fill="midnightblue" stroke="midnightblue" points="452.71,-126.74 442.22,-128.21 451.33,-133.6 452.71,-126.74"/>
</g>
<!-- Node9&#45;&gt;Node3 -->
<g id="edge12" class="edge">
<title>Node9&#45;&gt;Node3</title>
<path fill="none" stroke="midnightblue" d="M404.23,-112.37C378.6,-93.57 317.5,-48.77 285.82,-25.53"/>
<polygon fill="midnightblue" stroke="midnightblue" points="287.85,-22.68 277.72,-19.59 283.71,-28.33 287.85,-22.68"/>
</g>
<!-- Node9&#45;&gt;Node6 -->
<g id="edge13" class="edge">
<title>Node9&#45;&gt;Node6</title>
<path fill="none" stroke="midnightblue" d="M442.21,-116.76C502.2,-107.06 649.47,-83.25 716.18,-72.47"/>
<polygon fill="midnightblue" stroke="midnightblue" points="716.86,-75.9 726.17,-70.85 715.74,-68.99 716.86,-75.9"/>
</g>
<!-- Node9&#45;&gt;Node10 -->
<g id="edge14" class="edge">
<title>Node9&#45;&gt;Node10</title>
<path fill="none" stroke="midnightblue" d="M392.23,-112.44C367.11,-103.4 327.29,-89.06 299.1,-78.92"/>
<polygon fill="midnightblue" stroke="midnightblue" points="300.25,-75.61 289.66,-75.52 297.88,-82.2 300.25,-75.61"/>
</g>
<!-- Node10&#45;&gt;Node3 -->
<g id="edge15" class="edge">
<title>Node10&#45;&gt;Node3</title>
<path fill="none" stroke="midnightblue" d="M266,-56.08C266,-49.01 266,-38.86 266,-29.99"/>
<polygon fill="midnightblue" stroke="midnightblue" points="269.5,-29.75 266,-19.75 262.5,-29.75 269.5,-29.75"/>
</g>
<!-- Node11&#45;&gt;Node9 -->
<g id="edge18" class="edge">
<title>Node11&#45;&gt;Node9</title>
<path fill="none" stroke="midnightblue" d="M572.78,-169.26C541.12,-159.92 487.69,-144.16 452.14,-133.66"/>
<polygon fill="midnightblue" stroke="midnightblue" points="452.75,-130.2 442.17,-130.72 450.77,-136.91 452.75,-130.2"/>
</g>
<!-- Node12&#45;&gt;Node9 -->
<g id="edge20" class="edge">
<title>Node12&#45;&gt;Node9</title>
<path fill="none" stroke="midnightblue" d="M272.94,-168.44C301.83,-159.27 347.87,-144.64 379.88,-134.47"/>
<polygon fill="midnightblue" stroke="midnightblue" points="381.28,-137.7 389.75,-131.34 379.16,-131.03 381.28,-137.7"/>
</g>
<!-- Node13&#45;&gt;Node9 -->
<g id="edge22" class="edge">
<title>Node13&#45;&gt;Node9</title>
<path fill="none" stroke="midnightblue" d="M332.07,-168.32C347.96,-159.74 372.51,-146.49 390.96,-136.52"/>
<polygon fill="midnightblue" stroke="midnightblue" points="392.84,-139.49 399.97,-131.65 389.51,-133.33 392.84,-139.49"/>
</g>
<!-- Node14&#45;&gt;Node9 -->
<g id="edge24" class="edge">
<title>Node14&#45;&gt;Node9</title>
<path fill="none" stroke="midnightblue" d="M386.78,-168.08C391.67,-160.53 398.83,-149.49 404.83,-140.23"/>
<polygon fill="midnightblue" stroke="midnightblue" points="407.83,-142.05 410.33,-131.75 401.95,-138.24 407.83,-142.05"/>
</g>
<!-- Node15&#45;&gt;Node9 -->
<g id="edge26" class="edge">
<title>Node15&#45;&gt;Node9</title>
<path fill="none" stroke="midnightblue" d="M446.06,-168.08C441.02,-160.53 433.66,-149.49 427.49,-140.23"/>
<polygon fill="midnightblue" stroke="midnightblue" points="430.29,-138.13 421.83,-131.75 424.47,-142.01 430.29,-138.13"/>
</g>
<!-- Node16&#45;&gt;Node9 -->
<g id="edge28" class="edge">
<title>Node16&#45;&gt;Node9</title>
<path fill="none" stroke="midnightblue" d="M509.17,-168.32C491.28,-159.62 463.52,-146.12 442.95,-136.11"/>
<polygon fill="midnightblue" stroke="midnightblue" points="444.31,-132.88 433.79,-131.65 441.25,-139.18 444.31,-132.88"/>
</g>
<!-- Node17&#45;&gt;Node3 -->
<g id="edge30" class="edge">
<title>Node17&#45;&gt;Node3</title>
<path fill="none" stroke="midnightblue" d="M593.96,-288.97C487.47,-288.11 114,-278.04 114,-179 114,-179 114,-179 114,-121 114,-65.58 181.13,-35.24 226.17,-21.12"/>
<polygon fill="midnightblue" stroke="midnightblue" points="227.39,-24.41 235.97,-18.19 225.39,-17.7 227.39,-24.41"/>
</g>
<!-- Node17&#45;&gt;Node5 -->
<g id="edge32" class="edge">
<title>Node17&#45;&gt;Node5</title>
<path fill="none" stroke="midnightblue" d="M610.27,-280.32C599.16,-272.11 582.26,-259.6 569.02,-249.81"/>
<polygon fill="midnightblue" stroke="midnightblue" points="571.06,-246.97 560.94,-243.83 566.9,-252.59 571.06,-246.97"/>
</g>
<!-- Node17&#45;&gt;Node6 -->
<g id="edge31" class="edge">
<title>Node17&#45;&gt;Node6</title>
<path fill="none" stroke="midnightblue" d="M634.73,-280.45C657.37,-264.65 704.91,-228.76 733,-188 752.95,-159.05 756.94,-147.11 755,-112 754.52,-103.36 753.53,-93.83 752.55,-85.77"/>
<polygon fill="midnightblue" stroke="midnightblue" points="755.99,-85.07 751.24,-75.6 749.05,-85.97 755.99,-85.07"/>
</g>
<!-- Node18&#45;&gt;Node3 -->
<g id="edge34" class="edge">
<title>Node18&#45;&gt;Node3</title>
<path fill="none" stroke="midnightblue" d="M536.47,-344.74C434.84,-343.02 76,-330.24 76,-235 76,-235 76,-235 76,-121 76,-52.29 170.22,-25.8 225.97,-16.14"/>
<polygon fill="midnightblue" stroke="midnightblue" points="226.58,-19.59 235.89,-14.53 225.46,-12.68 226.58,-19.59"/>
</g>
<!-- Node18&#45;&gt;Node5 -->
<g id="edge35" class="edge">
<title>Node18&#45;&gt;Node5</title>
<path fill="none" stroke="midnightblue" d="M561.9,-336.37C559.64,-318.62 554.43,-277.67 551.37,-253.6"/>
<polygon fill="midnightblue" stroke="midnightblue" points="554.83,-253.07 550.09,-243.59 547.88,-253.95 554.83,-253.07"/>
</g>
<!-- Node18&#45;&gt;Node17 -->
<g id="edge36" class="edge">
<title>Node18&#45;&gt;Node17</title>
<path fill="none" stroke="midnightblue" d="M572.48,-336.32C581.2,-328.34 594.34,-316.31 604.9,-306.65"/>
<polygon fill="midnightblue" stroke="midnightblue" points="607.33,-309.17 612.35,-299.83 602.61,-304 607.33,-309.17"/>
</g>
<!-- Node19&#45;&gt;Node3 -->
<g id="edge39" class="edge">
<title>Node19&#45;&gt;Node3</title>
<path fill="none" stroke="midnightblue" d="M706.63,-336.35C748.21,-315.59 845,-258.73 845,-179 845,-179 845,-179 845,-121 845,-80.77 818.33,-73.28 782,-56 698,-16.04 412.74,-11.28 306.4,-10.92"/>
<polygon fill="midnightblue" stroke="midnightblue" points="306.1,-7.42 296.09,-10.9 306.09,-14.42 306.1,-7.42"/>
</g>
<!-- Node19&#45;&gt;Node5 -->
<g id="edge41" class="edge">
<title>Node19&#45;&gt;Node5</title>
<path fill="none" stroke="midnightblue" d="M686.28,-336.22C683.17,-322.48 675.33,-295.82 659,-280 638.87,-260.49 609.11,-249.01 585.62,-242.54"/>
<polygon fill="midnightblue" stroke="midnightblue" points="586.22,-239.07 575.66,-239.98 584.48,-245.85 586.22,-239.07"/>
</g>
<!-- Node19&#45;&gt;Node6 -->
<g id="edge40" class="edge">
<title>Node19&#45;&gt;Node6</title>
<path fill="none" stroke="midnightblue" d="M692.95,-336.46C708.84,-308.4 758.24,-215.98 770,-132 771.23,-123.2 771.85,-120.7 770,-112 768,-102.59 763.9,-92.76 759.93,-84.7"/>
<polygon fill="midnightblue" stroke="midnightblue" points="762.89,-82.81 755.13,-75.59 756.69,-86.07 762.89,-82.81"/>
</g>
<!-- Node19&#45;&gt;Node17 -->
<g id="edge42" class="edge">
<title>Node19&#45;&gt;Node17</title>
<path fill="none" stroke="midnightblue" d="M677.4,-336.32C667.54,-328.26 652.65,-316.08 640.78,-306.37"/>
<polygon fill="midnightblue" stroke="midnightblue" points="642.75,-303.46 632.8,-299.83 638.32,-308.88 642.75,-303.46"/>
</g>
<!-- Node21&#45;&gt;Node3 -->
<g id="edge45" class="edge">
<title>Node21&#45;&gt;Node3</title>
<path fill="none" stroke="midnightblue" d="M923.41,-336.2C931.99,-327.69 944.45,-314.05 952,-300 966.24,-273.48 971,-265.1 971,-235 971,-235 971,-235 971,-121 971,-59.95 908.58,-73.16 850,-56 747.68,-26.03 421.12,-14.96 306.35,-11.94"/>
<polygon fill="midnightblue" stroke="midnightblue" points="306.32,-8.44 296.24,-11.68 306.14,-15.44 306.32,-8.44"/>
</g>
<!-- Node21&#45;&gt;Node5 -->
<g id="edge48" class="edge">
<title>Node21&#45;&gt;Node5</title>
<path fill="none" stroke="midnightblue" d="M889.44,-336.46C852.15,-323.61 778.92,-298.79 716,-280 671.41,-266.68 619.61,-253 585.67,-244.27"/>
<polygon fill="midnightblue" stroke="midnightblue" points="586.29,-240.82 575.73,-241.73 584.55,-247.6 586.29,-240.82"/>
</g>
<!-- Node21&#45;&gt;Node17 -->
<g id="edge49" class="edge">
<title>Node21&#45;&gt;Node17</title>
<path fill="none" stroke="midnightblue" d="M869.33,-336.74C812.15,-326.16 714.04,-308.02 660.18,-298.06"/>
<polygon fill="midnightblue" stroke="midnightblue" points="660.8,-294.62 650.33,-296.24 659.53,-301.5 660.8,-294.62"/>
</g>
<!-- Node22 -->
<g id="node22" class="node">
<title>Node22</title>
<g id="a_node22"><a xlink:title=" ">
<polygon fill="white" stroke="#bfbfbf" points="999.5,-280.5 999.5,-299.5 1054.5,-299.5 1054.5,-280.5 999.5,-280.5"/>
<text text-anchor="middle" x="1027" y="-287.5" font-family="Helvetica,sans-Serif" font-size="10.00">fstream</text>
</a>
</g>
</g>
<!-- Node21&#45;&gt;Node22 -->
<g id="edge46" class="edge">
<title>Node21&#45;&gt;Node22</title>
<path fill="none" stroke="midnightblue" d="M931.91,-336.44C950.25,-327.68 979.01,-313.94 1000.09,-303.86"/>
<polygon fill="midnightblue" stroke="midnightblue" points="1001.67,-306.99 1009.18,-299.52 998.65,-300.67 1001.67,-306.99"/>
</g>
<!-- Node23 -->
<g id="node23" class="node">
<title>Node23</title>
<g id="a_node23"><a xlink:title=" ">
<polygon fill="white" stroke="#bfbfbf" points="911,-280.5 911,-299.5 943,-299.5 943,-280.5 911,-280.5"/>
<text text-anchor="middle" x="927" y="-287.5" font-family="Helvetica,sans-Serif" font-size="10.00">set</text>
</a>
</g>
</g>
<!-- Node21&#45;&gt;Node23 -->
<g id="edge47" class="edge">
<title>Node21&#45;&gt;Node23</title>
<path fill="none" stroke="midnightblue" d="M916.15,-336.08C917.87,-328.93 920.35,-318.64 922.5,-309.69"/>
<polygon fill="midnightblue" stroke="midnightblue" points="925.96,-310.29 924.89,-299.75 919.15,-308.65 925.96,-310.29"/>
</g>
<!-- Node24&#45;&gt;Node3 -->
<g id="edge51" class="edge">
<title>Node24&#45;&gt;Node3</title>
<path fill="none" stroke="midnightblue" d="M818.54,-336.43C839.8,-319.57 883,-279.8 883,-235 883,-235 883,-235 883,-121 883,-79.51 853.78,-73.14 816,-56 725.04,-14.73 417.35,-10.84 306.35,-10.81"/>
<polygon fill="midnightblue" stroke="midnightblue" points="306.23,-7.31 296.23,-10.82 306.24,-14.31 306.23,-7.31"/>
</g>
<!-- Node24&#45;&gt;Node5 -->
<g id="edge52" class="edge">
<title>Node24&#45;&gt;Node5</title>
<path fill="none" stroke="midnightblue" d="M792.08,-336.48C768.69,-323.33 721.71,-297.73 680,-280 648.6,-266.65 611.77,-254.28 585.17,-245.9"/>
<polygon fill="midnightblue" stroke="midnightblue" points="586.1,-242.52 575.51,-242.89 584.02,-249.2 586.1,-242.52"/>
</g>
<!-- Node24&#45;&gt;Node17 -->
<g id="edge53" class="edge">
<title>Node24&#45;&gt;Node17</title>
<path fill="none" stroke="midnightblue" d="M777.69,-336.44C745.88,-327.16 694.98,-312.3 660.1,-302.12"/>
<polygon fill="midnightblue" stroke="midnightblue" points="660.85,-298.69 650.27,-299.25 658.89,-305.41 660.85,-298.69"/>
</g>
</g>
</svg>
