<?xml version="1.0" encoding="UTF-8" standalone="no"?>
<!DOCTYPE svg PUBLIC "-//W3C//DTD SVG 1.1//EN"
 "http://www.w3.org/Graphics/SVG/1.1/DTD/svg11.dtd">
<!-- Generated by graphviz version 2.43.0 (0)
 -->
<!-- Title: src/board.h Pages: 1 -->
<svg width="583pt" height="252pt"
 viewBox="0.00 0.00 582.59 252.00" xmlns="http://www.w3.org/2000/svg" xmlns:xlink="http://www.w3.org/1999/xlink">
<g id="graph0" class="graph" transform="scale(1 1) rotate(0) translate(4 248)">
<title>src/board.h</title>
<polygon fill="white" stroke="transparent" points="-4,4 -4,-248 578.59,-248 578.59,4 -4,4"/>
<!-- Node1 -->
<g id="node1" class="node">
<title>Node1</title>
<g id="a_node1"><a xlink:title=" ">
<polygon fill="#bfbfbf" stroke="black" points="296,-224.5 296,-243.5 367,-243.5 367,-224.5 296,-224.5"/>
<text text-anchor="middle" x="331.5" y="-231.5" font-family="Helvetica,sans-Serif" font-size="10.00">src/board.h</text>
</a>
</g>
</g>
<!-- Node2 -->
<g id="node2" class="node">
<title>Node2</title>
<g id="a_node2"><a xlink:title=" ">
<polygon fill="white" stroke="#bfbfbf" points="295.5,-0.5 295.5,-19.5 355.5,-19.5 355.5,-0.5 295.5,-0.5"/>
<text text-anchor="middle" x="325.5" y="-7.5" font-family="Helvetica,sans-Serif" font-size="10.00">iostream</text>
</a>
</g>
</g>
<!-- Node1&#45;&gt;Node2 -->
<g id="edge1" class="edge">
<title>Node1&#45;&gt;Node2</title>
<path fill="none" stroke="midnightblue" d="M367.2,-231.33C425.34,-227.78 536.43,-217.26 560.5,-188 624.9,-109.71 448.19,-46.43 365.52,-21.94"/>
<polygon fill="midnightblue" stroke="midnightblue" points="366.27,-18.51 355.7,-19.08 364.32,-25.23 366.27,-18.51"/>
</g>
<!-- Node3 -->
<g id="node3" class="node">
<title>Node3</title>
<g id="a_node3"><a xlink:title=" ">
<polygon fill="white" stroke="#bfbfbf" points="0,-56.5 0,-75.5 47,-75.5 47,-56.5 0,-56.5"/>
<text text-anchor="middle" x="23.5" y="-63.5" font-family="Helvetica,sans-Serif" font-size="10.00">vector</text>
</a>
</g>
</g>
<!-- Node1&#45;&gt;Node3 -->
<g id="edge2" class="edge">
<title>Node1&#45;&gt;Node3</title>
<path fill="none" stroke="midnightblue" d="M295.89,-232.65C225.98,-231.16 74.53,-223.79 39.5,-188 12.91,-160.84 15.73,-112.33 19.8,-85.73"/>
<polygon fill="midnightblue" stroke="midnightblue" points="23.26,-86.25 21.53,-75.8 16.36,-85.04 23.26,-86.25"/>
</g>
<!-- Node4 -->
<g id="node4" class="node">
<title>Node4</title>
<g id="a_node4"><a xlink:href="square_8h.html" target="_top" xlink:title=" ">
<polygon fill="white" stroke="black" points="49,-168.5 49,-187.5 108,-187.5 108,-168.5 49,-168.5"/>
<text text-anchor="middle" x="78.5" y="-175.5" font-family="Helvetica,sans-Serif" font-size="10.00">square.h</text>
</a>
</g>
</g>
<!-- Node1&#45;&gt;Node4 -->
<g id="edge3" class="edge">
<title>Node1&#45;&gt;Node4</title>
<path fill="none" stroke="midnightblue" d="M295.68,-225.8C254.96,-217.55 186.23,-203.43 118.36,-188.38"/>
<polygon fill="midnightblue" stroke="midnightblue" points="118.88,-184.91 108.35,-186.15 117.35,-191.74 118.88,-184.91"/>
</g>
<!-- Node7 -->
<g id="node7" class="node">
<title>Node7</title>
<g id="a_node7"><a xlink:href="position_8h.html" target="_top" xlink:title=" ">
<polygon fill="white" stroke="black" points="324,-56.5 324,-75.5 389,-75.5 389,-56.5 324,-56.5"/>
<text text-anchor="middle" x="356.5" y="-63.5" font-family="Helvetica,sans-Serif" font-size="10.00">position.h</text>
</a>
</g>
</g>
<!-- Node1&#45;&gt;Node7 -->
<g id="edge11" class="edge">
<title>Node1&#45;&gt;Node7</title>
<path fill="none" stroke="midnightblue" d="M367.04,-230.68C421.3,-226.31 520.82,-214.79 542.5,-188 587.91,-131.89 467.19,-93.09 399.21,-76.33"/>
<polygon fill="midnightblue" stroke="midnightblue" points="399.73,-72.85 389.19,-73.92 398.1,-79.66 399.73,-72.85"/>
</g>
<!-- Node8 -->
<g id="node8" class="node">
<title>Node8</title>
<g id="a_node8"><a xlink:href="pawn_8h.html" target="_top" xlink:title=" ">
<polygon fill="white" stroke="black" points="341.5,-168.5 341.5,-187.5 393.5,-187.5 393.5,-168.5 341.5,-168.5"/>
<text text-anchor="middle" x="367.5" y="-175.5" font-family="Helvetica,sans-Serif" font-size="10.00">pawn.h</text>
</a>
</g>
</g>
<!-- Node1&#45;&gt;Node8 -->
<g id="edge12" class="edge">
<title>Node1&#45;&gt;Node8</title>
<path fill="none" stroke="midnightblue" d="M337.44,-224.08C342.48,-216.53 349.84,-205.49 356.01,-196.23"/>
<polygon fill="midnightblue" stroke="midnightblue" points="359.03,-198.01 361.67,-187.75 353.21,-194.13 359.03,-198.01"/>
</g>
<!-- Node9 -->
<g id="node9" class="node">
<title>Node9</title>
<g id="a_node9"><a xlink:href="queen_8h.html" target="_top" xlink:title=" ">
<polygon fill="white" stroke="black" points="411.5,-168.5 411.5,-187.5 467.5,-187.5 467.5,-168.5 411.5,-168.5"/>
<text text-anchor="middle" x="439.5" y="-175.5" font-family="Helvetica,sans-Serif" font-size="10.00">queen.h</text>
</a>
</g>
</g>
<!-- Node1&#45;&gt;Node9 -->
<g id="edge14" class="edge">
<title>Node1&#45;&gt;Node9</title>
<path fill="none" stroke="midnightblue" d="M348.85,-224.32C366.17,-215.66 393.02,-202.24 413,-192.25"/>
<polygon fill="midnightblue" stroke="midnightblue" points="414.81,-195.26 422.19,-187.65 411.68,-189 414.81,-195.26"/>
</g>
<!-- Node10 -->
<g id="node10" class="node">
<title>Node10</title>
<g id="a_node10"><a xlink:href="king_8h.html" target="_top" xlink:title=" ">
<polygon fill="white" stroke="black" points="486,-168.5 486,-187.5 533,-187.5 533,-168.5 486,-168.5"/>
<text text-anchor="middle" x="509.5" y="-175.5" font-family="Helvetica,sans-Serif" font-size="10.00">king.h</text>
</a>
</g>
</g>
<!-- Node1&#45;&gt;Node10 -->
<g id="edge16" class="edge">
<title>Node1&#45;&gt;Node10</title>
<path fill="none" stroke="midnightblue" d="M359.7,-224.44C391.33,-214.85 442.58,-199.3 476.16,-189.11"/>
<polygon fill="midnightblue" stroke="midnightblue" points="477.42,-192.39 485.97,-186.14 475.39,-185.69 477.42,-192.39"/>
</g>
<!-- Node11 -->
<g id="node11" class="node">
<title>Node11</title>
<g id="a_node11"><a xlink:href="rook_8h.html" target="_top" xlink:title=" ">
<polygon fill="white" stroke="black" points="126,-168.5 126,-187.5 173,-187.5 173,-168.5 126,-168.5"/>
<text text-anchor="middle" x="149.5" y="-175.5" font-family="Helvetica,sans-Serif" font-size="10.00">rook.h</text>
</a>
</g>
</g>
<!-- Node1&#45;&gt;Node11 -->
<g id="edge18" class="edge">
<title>Node1&#45;&gt;Node11</title>
<path fill="none" stroke="midnightblue" d="M302.66,-224.44C270.23,-214.82 217.63,-199.21 183.3,-189.03"/>
<polygon fill="midnightblue" stroke="midnightblue" points="183.86,-185.54 173.27,-186.05 181.86,-192.25 183.86,-185.54"/>
</g>
<!-- Node12 -->
<g id="node12" class="node">
<title>Node12</title>
<g id="a_node12"><a xlink:href="bishop_8h.html" target="_top" xlink:title=" ">
<polygon fill="white" stroke="black" points="191.5,-168.5 191.5,-187.5 249.5,-187.5 249.5,-168.5 191.5,-168.5"/>
<text text-anchor="middle" x="220.5" y="-175.5" font-family="Helvetica,sans-Serif" font-size="10.00">bishop.h</text>
</a>
</g>
</g>
<!-- Node1&#45;&gt;Node12 -->
<g id="edge20" class="edge">
<title>Node1&#45;&gt;Node12</title>
<path fill="none" stroke="midnightblue" d="M313.67,-224.32C295.78,-215.62 268.02,-202.12 247.45,-192.11"/>
<polygon fill="midnightblue" stroke="midnightblue" points="248.81,-188.88 238.29,-187.65 245.75,-195.18 248.81,-188.88"/>
</g>
<!-- Node13 -->
<g id="node13" class="node">
<title>Node13</title>
<g id="a_node13"><a xlink:href="knight_8h.html" target="_top" xlink:title=" ">
<polygon fill="white" stroke="black" points="267.5,-168.5 267.5,-187.5 323.5,-187.5 323.5,-168.5 267.5,-168.5"/>
<text text-anchor="middle" x="295.5" y="-175.5" font-family="Helvetica,sans-Serif" font-size="10.00">knight.h</text>
</a>
</g>
</g>
<!-- Node1&#45;&gt;Node13 -->
<g id="edge22" class="edge">
<title>Node1&#45;&gt;Node13</title>
<path fill="none" stroke="midnightblue" d="M325.56,-224.08C320.52,-216.53 313.16,-205.49 306.99,-196.23"/>
<polygon fill="midnightblue" stroke="midnightblue" points="309.79,-194.13 301.33,-187.75 303.97,-198.01 309.79,-194.13"/>
</g>
<!-- Node4&#45;&gt;Node2 -->
<g id="edge4" class="edge">
<title>Node4&#45;&gt;Node2</title>
<path fill="none" stroke="midnightblue" d="M78.78,-168.33C79.67,-154.73 83.25,-128.28 97.5,-112 146.99,-55.47 234.16,-29.17 285.18,-18.09"/>
<polygon fill="midnightblue" stroke="midnightblue" points="286.11,-21.47 295.18,-16.01 284.68,-14.62 286.11,-21.47"/>
</g>
<!-- Node5 -->
<g id="node5" class="node">
<title>Node5</title>
<g id="a_node5"><a xlink:title=" ">
<polygon fill="white" stroke="#bfbfbf" points="106.5,-112.5 106.5,-131.5 164.5,-131.5 164.5,-112.5 106.5,-112.5"/>
<text text-anchor="middle" x="135.5" y="-119.5" font-family="Helvetica,sans-Serif" font-size="10.00">memory</text>
</a>
</g>
</g>
<!-- Node4&#45;&gt;Node5 -->
<g id="edge5" class="edge">
<title>Node4&#45;&gt;Node5</title>
<path fill="none" stroke="midnightblue" d="M87.66,-168.32C96,-160.42 108.53,-148.55 118.68,-138.94"/>
<polygon fill="midnightblue" stroke="midnightblue" points="121.32,-141.25 126.18,-131.83 116.51,-136.17 121.32,-141.25"/>
</g>
<!-- Node6 -->
<g id="node6" class="node">
<title>Node6</title>
<g id="a_node6"><a xlink:href="piece_8h.html" target="_top" xlink:title=" ">
<polygon fill="white" stroke="black" points="269.5,-112.5 269.5,-131.5 321.5,-131.5 321.5,-112.5 269.5,-112.5"/>
<text text-anchor="middle" x="295.5" y="-119.5" font-family="Helvetica,sans-Serif" font-size="10.00">piece.h</text>
</a>
</g>
</g>
<!-- Node4&#45;&gt;Node6 -->
<g id="edge6" class="edge">
<title>Node4&#45;&gt;Node6</title>
<path fill="none" stroke="midnightblue" d="M108.22,-169.6C147.57,-159.81 216.93,-142.55 259.3,-132.01"/>
<polygon fill="midnightblue" stroke="midnightblue" points="260.34,-135.36 269.2,-129.55 258.65,-128.56 260.34,-135.36"/>
</g>
<!-- Node6&#45;&gt;Node2 -->
<g id="edge7" class="edge">
<title>Node6&#45;&gt;Node2</title>
<path fill="none" stroke="midnightblue" d="M297.85,-112.37C302.72,-94.54 313.96,-53.3 320.52,-29.27"/>
<polygon fill="midnightblue" stroke="midnightblue" points="323.9,-30.16 323.16,-19.59 317.15,-28.32 323.9,-30.16"/>
</g>
<!-- Node6&#45;&gt;Node3 -->
<g id="edge8" class="edge">
<title>Node6&#45;&gt;Node3</title>
<path fill="none" stroke="midnightblue" d="M269.42,-115.82C219.83,-105.98 111.99,-84.57 57.08,-73.67"/>
<polygon fill="midnightblue" stroke="midnightblue" points="57.65,-70.21 47.16,-71.7 56.28,-77.08 57.65,-70.21"/>
</g>
<!-- Node6&#45;&gt;Node7 -->
<g id="edge9" class="edge">
<title>Node6&#45;&gt;Node7</title>
<path fill="none" stroke="midnightblue" d="M305.3,-112.32C314.32,-104.34 327.91,-92.31 338.82,-82.65"/>
<polygon fill="midnightblue" stroke="midnightblue" points="341.35,-85.08 346.52,-75.83 336.71,-79.84 341.35,-85.08"/>
</g>
<!-- Node7&#45;&gt;Node2 -->
<g id="edge10" class="edge">
<title>Node7&#45;&gt;Node2</title>
<path fill="none" stroke="midnightblue" d="M351.38,-56.08C347.09,-48.61 340.84,-37.72 335.56,-28.52"/>
<polygon fill="midnightblue" stroke="midnightblue" points="338.54,-26.68 330.52,-19.75 332.47,-30.17 338.54,-26.68"/>
</g>
<!-- Node8&#45;&gt;Node6 -->
<g id="edge13" class="edge">
<title>Node8&#45;&gt;Node6</title>
<path fill="none" stroke="midnightblue" d="M355.93,-168.32C345.08,-160.18 328.62,-147.84 315.62,-138.09"/>
<polygon fill="midnightblue" stroke="midnightblue" points="317.38,-135.03 307.28,-131.83 313.18,-140.63 317.38,-135.03"/>
</g>
<!-- Node9&#45;&gt;Node6 -->
<g id="edge15" class="edge">
<title>Node9&#45;&gt;Node6</title>
<path fill="none" stroke="midnightblue" d="M416.68,-168.44C392.67,-159.44 354.67,-145.19 327.63,-135.05"/>
<polygon fill="midnightblue" stroke="midnightblue" points="328.8,-131.75 318.21,-131.52 326.34,-138.3 328.8,-131.75"/>
</g>
<!-- Node10&#45;&gt;Node6 -->
<g id="edge17" class="edge">
<title>Node10&#45;&gt;Node6</title>
<path fill="none" stroke="midnightblue" d="M485.72,-170.45C482.62,-169.61 479.49,-168.78 476.5,-168 426.45,-154.96 368.39,-140.67 331.8,-131.77"/>
<polygon fill="midnightblue" stroke="midnightblue" points="332.17,-128.26 321.62,-129.3 330.52,-135.06 332.17,-128.26"/>
</g>
<!-- Node11&#45;&gt;Node6 -->
<g id="edge19" class="edge">
<title>Node11&#45;&gt;Node6</title>
<path fill="none" stroke="midnightblue" d="M172.63,-168.44C196.98,-159.44 235.51,-145.19 262.92,-135.05"/>
<polygon fill="midnightblue" stroke="midnightblue" points="264.31,-138.27 272.47,-131.52 261.88,-131.7 264.31,-138.27"/>
</g>
<!-- Node12&#45;&gt;Node6 -->
<g id="edge21" class="edge">
<title>Node12&#45;&gt;Node6</title>
<path fill="none" stroke="midnightblue" d="M232.55,-168.32C243.96,-160.11 261.33,-147.6 274.93,-137.81"/>
<polygon fill="midnightblue" stroke="midnightblue" points="277.16,-140.52 283.23,-131.83 273.07,-134.84 277.16,-140.52"/>
</g>
<!-- Node13&#45;&gt;Node6 -->
<g id="edge23" class="edge">
<title>Node13&#45;&gt;Node6</title>
<path fill="none" stroke="midnightblue" d="M295.5,-168.08C295.5,-161.01 295.5,-150.86 295.5,-141.99"/>
<polygon fill="midnightblue" stroke="midnightblue" points="299,-141.75 295.5,-131.75 292,-141.75 299,-141.75"/>
</g>
</g>
</svg>
