<?xml version="1.0" encoding="UTF-8" standalone="no"?>
<!DOCTYPE svg PUBLIC "-//W3C//DTD SVG 1.1//EN"
 "http://www.w3.org/Graphics/SVG/1.1/DTD/svg11.dtd">
<!-- Generated by graphviz version 2.43.0 (0)
 -->
<!-- Title: Input_handler::coordinates_to_int Pages: 1 -->
<svg width="909pt" height="135pt"
 viewBox="0.00 0.00 909.00 134.50" xmlns="http://www.w3.org/2000/svg" xmlns:xlink="http://www.w3.org/1999/xlink">
<g id="graph0" class="graph" transform="scale(1 1) rotate(0) translate(4 130.5)">
<title>Input_handler::coordinates_to_int</title>
<polygon fill="white" stroke="transparent" points="-4,4 -4,-130.5 905,-130.5 905,4 -4,4"/>
<!-- Node1 -->
<g id="node1" class="node">
<title>Node1</title>
<g id="a_node1"><a xlink:title="Converts char to int.">
<polygon fill="#bfbfbf" stroke="black" points="755,-52 755,-82 901,-82 901,-52 755,-52"/>
<text text-anchor="start" x="763" y="-70" font-family="Helvetica,sans-Serif" font-size="10.00">Input_handler::coordinates</text>
<text text-anchor="middle" x="828" y="-59" font-family="Helvetica,sans-Serif" font-size="10.00">_to_int</text>
</a>
</g>
</g>
<!-- Node2 -->
<g id="node2" class="node">
<title>Node2</title>
<g id="a_node2"><a xlink:href="classInput__handler.html#a7752e2dfcba0db40b9bca5398c3d0d43" target="_top" xlink:title="Extract input.">
<polygon fill="white" stroke="black" points="577,-96 577,-126 701,-126 701,-96 577,-96"/>
<text text-anchor="start" x="585" y="-114" font-family="Helvetica,sans-Serif" font-size="10.00">Input_handler::extract</text>
<text text-anchor="middle" x="639" y="-103" font-family="Helvetica,sans-Serif" font-size="10.00">_input</text>
</a>
</g>
</g>
<!-- Node1&#45;&gt;Node2 -->
<g id="edge1" class="edge">
<title>Node1&#45;&gt;Node2</title>
<path fill="none" stroke="midnightblue" d="M753.13,-84.38C735.86,-88.44 717.66,-92.73 701.02,-96.64"/>
<polygon fill="midnightblue" stroke="midnightblue" points="754.24,-87.72 763.17,-82.02 752.63,-80.9 754.24,-87.72"/>
</g>
<!-- Node4 -->
<g id="node4" class="node">
<title>Node4</title>
<g id="a_node4"><a xlink:href="classHumanPlayer.html#a624590f0d181cf836fb99ff02c60fda5" target="_top" xlink:title="Checks player&#39;s pawn promotion.">
<polygon fill="white" stroke="black" points="559,-57.5 559,-76.5 719,-76.5 719,-57.5 559,-57.5"/>
<text text-anchor="middle" x="639" y="-64.5" font-family="Helvetica,sans-Serif" font-size="10.00">HumanPlayer::get_promotion</text>
</a>
</g>
</g>
<!-- Node1&#45;&gt;Node4 -->
<g id="edge3" class="edge">
<title>Node1&#45;&gt;Node4</title>
<path fill="none" stroke="midnightblue" d="M744.7,-67C736.21,-67 727.6,-67 719.14,-67"/>
<polygon fill="midnightblue" stroke="midnightblue" points="744.97,-70.5 754.97,-67 744.97,-63.5 744.97,-70.5"/>
</g>
<!-- Node5 -->
<g id="node5" class="node">
<title>Node5</title>
<g id="a_node5"><a xlink:href="classFEN.html#a39f6253f19ae04797561c9fea3342cb7" target="_top" xlink:title="Reads FEN notation.">
<polygon fill="white" stroke="black" points="594.5,-19.5 594.5,-38.5 683.5,-38.5 683.5,-19.5 594.5,-19.5"/>
<text text-anchor="middle" x="639" y="-26.5" font-family="Helvetica,sans-Serif" font-size="10.00">FEN::read_FEN</text>
</a>
</g>
</g>
<!-- Node1&#45;&gt;Node5 -->
<g id="edge4" class="edge">
<title>Node1&#45;&gt;Node5</title>
<path fill="none" stroke="midnightblue" d="M745,-50.34C723.85,-46.04 701.91,-41.58 683.58,-37.86"/>
<polygon fill="midnightblue" stroke="midnightblue" points="744.47,-53.8 754.97,-52.36 745.87,-46.94 744.47,-53.8"/>
</g>
<!-- Node3 -->
<g id="node3" class="node">
<title>Node3</title>
<g id="a_node3"><a xlink:href="classHumanPlayer.html#a46bdedc3b6bc019820e591f542cffa61" target="_top" xlink:title="Gets player&#39;s move.">
<polygon fill="white" stroke="black" points="386,-101.5 386,-120.5 523,-120.5 523,-101.5 386,-101.5"/>
<text text-anchor="middle" x="454.5" y="-108.5" font-family="Helvetica,sans-Serif" font-size="10.00">HumanPlayer::get_move</text>
</a>
</g>
</g>
<!-- Node2&#45;&gt;Node3 -->
<g id="edge2" class="edge">
<title>Node2&#45;&gt;Node3</title>
<path fill="none" stroke="midnightblue" d="M566.67,-111C552.32,-111 537.28,-111 523.06,-111"/>
<polygon fill="midnightblue" stroke="midnightblue" points="566.98,-114.5 576.98,-111 566.98,-107.5 566.98,-114.5"/>
</g>
<!-- Node6 -->
<g id="node6" class="node">
<title>Node6</title>
<g id="a_node6"><a xlink:href="classFile__manager.html#ade44f79bfec1810354a04dc1829aa2a3" target="_top" xlink:title="Opens file.">
<polygon fill="white" stroke="black" points="388,-19.5 388,-38.5 521,-38.5 521,-19.5 388,-19.5"/>
<text text-anchor="middle" x="454.5" y="-26.5" font-family="Helvetica,sans-Serif" font-size="10.00">File_manager::open_file</text>
</a>
</g>
</g>
<!-- Node5&#45;&gt;Node6 -->
<g id="edge5" class="edge">
<title>Node5&#45;&gt;Node6</title>
<path fill="none" stroke="midnightblue" d="M584.26,-29C564.54,-29 541.99,-29 521.34,-29"/>
<polygon fill="midnightblue" stroke="midnightblue" points="584.29,-32.5 594.29,-29 584.29,-25.5 584.29,-32.5"/>
</g>
<!-- Node7 -->
<g id="node7" class="node">
<title>Node7</title>
<g id="a_node7"><a xlink:href="classMenu.html#ac90e451d94eb82769cf58eea174667be" target="_top" xlink:title="Load game.">
<polygon fill="white" stroke="black" points="237,-38.5 237,-57.5 341,-57.5 341,-38.5 237,-38.5"/>
<text text-anchor="middle" x="289" y="-45.5" font-family="Helvetica,sans-Serif" font-size="10.00">Menu::load_game</text>
</a>
</g>
</g>
<!-- Node6&#45;&gt;Node7 -->
<g id="edge6" class="edge">
<title>Node6&#45;&gt;Node7</title>
<path fill="none" stroke="midnightblue" d="M377.65,-37.81C365.31,-39.25 352.79,-40.7 341.23,-42.05"/>
<polygon fill="midnightblue" stroke="midnightblue" points="378.41,-41.25 387.94,-36.62 377.6,-34.3 378.41,-41.25"/>
</g>
<!-- Node10 -->
<g id="node10" class="node">
<title>Node10</title>
<g id="a_node10"><a xlink:href="classTutorial.html#ad4a5c074281c25791323e984dba390f2" target="_top" xlink:title="Start tutorial.">
<polygon fill="white" stroke="black" points="228,-0.5 228,-19.5 350,-19.5 350,-0.5 228,-0.5"/>
<text text-anchor="middle" x="289" y="-7.5" font-family="Helvetica,sans-Serif" font-size="10.00">Tutorial::start_tutorial</text>
</a>
</g>
</g>
<!-- Node6&#45;&gt;Node10 -->
<g id="edge9" class="edge">
<title>Node6&#45;&gt;Node10</title>
<path fill="none" stroke="midnightblue" d="M377.87,-20.21C368.53,-19.13 359.08,-18.03 350.02,-16.97"/>
<polygon fill="midnightblue" stroke="midnightblue" points="377.6,-23.7 387.94,-21.38 378.41,-16.75 377.6,-23.7"/>
</g>
<!-- Node8 -->
<g id="node8" class="node">
<title>Node8</title>
<g id="a_node8"><a xlink:href="classMenu.html#a35656cd130e24d69383a5c9d0a73a38c" target="_top" xlink:title="Runs menu.">
<polygon fill="white" stroke="black" points="102,-38.5 102,-57.5 167,-57.5 167,-38.5 102,-38.5"/>
<text text-anchor="middle" x="134.5" y="-45.5" font-family="Helvetica,sans-Serif" font-size="10.00">Menu::run</text>
</a>
</g>
</g>
<!-- Node7&#45;&gt;Node8 -->
<g id="edge7" class="edge">
<title>Node7&#45;&gt;Node8</title>
<path fill="none" stroke="midnightblue" d="M226.63,-48C206.27,-48 184.43,-48 167.24,-48"/>
<polygon fill="midnightblue" stroke="midnightblue" points="226.8,-51.5 236.8,-48 226.8,-44.5 226.8,-51.5"/>
</g>
<!-- Node9 -->
<g id="node9" class="node">
<title>Node9</title>
<g id="a_node9"><a xlink:href="main_8cpp.html#ae66f6b31b5ad750f1fe042a706a4e3d4" target="_top" xlink:title=" ">
<polygon fill="white" stroke="black" points="0,-38.5 0,-57.5 41,-57.5 41,-38.5 0,-38.5"/>
<text text-anchor="middle" x="20.5" y="-45.5" font-family="Helvetica,sans-Serif" font-size="10.00">main</text>
</a>
</g>
</g>
<!-- Node8&#45;&gt;Node9 -->
<g id="edge8" class="edge">
<title>Node8&#45;&gt;Node9</title>
<path fill="none" stroke="midnightblue" d="M91.27,-48C74.01,-48 54.9,-48 41.05,-48"/>
<polygon fill="midnightblue" stroke="midnightblue" points="91.7,-51.5 101.7,-48 91.7,-44.5 91.7,-51.5"/>
</g>
<!-- Node11 -->
<g id="node11" class="node">
<title>Node11</title>
<g id="a_node11"><a xlink:href="classTutorial.html#a42acfd364d5d606318eda4b733c973da" target="_top" xlink:title="Runs tutorial.">
<polygon fill="white" stroke="black" points="77,-0.5 77,-19.5 192,-19.5 192,-0.5 77,-0.5"/>
<text text-anchor="middle" x="134.5" y="-7.5" font-family="Helvetica,sans-Serif" font-size="10.00">Tutorial::run_tutorial</text>
</a>
</g>
</g>
<!-- Node10&#45;&gt;Node11 -->
<g id="edge10" class="edge">
<title>Node10&#45;&gt;Node11</title>
<path fill="none" stroke="midnightblue" d="M217.52,-10C209.09,-10 200.56,-10 192.35,-10"/>
<polygon fill="midnightblue" stroke="midnightblue" points="217.73,-13.5 227.73,-10 217.73,-6.5 217.73,-13.5"/>
</g>
</g>
</svg>
