<?xml version="1.0" encoding="UTF-8" standalone="no"?>
<!DOCTYPE svg PUBLIC "-//W3C//DTD SVG 1.1//EN"
 "http://www.w3.org/Graphics/SVG/1.1/DTD/svg11.dtd">
<!-- Generated by graphviz version 2.43.0 (0)
 -->
<!-- Title: Rules::stalemate Pages: 1 -->
<svg width="641pt" height="180pt"
 viewBox="0.00 0.00 641.00 180.00" xmlns="http://www.w3.org/2000/svg" xmlns:xlink="http://www.w3.org/1999/xlink">
<g id="graph0" class="graph" transform="scale(1 1) rotate(0) translate(4 176)">
<title>Rules::stalemate</title>
<polygon fill="white" stroke="transparent" points="-4,4 -4,-176 637,-176 637,4 -4,4"/>
<!-- Node1 -->
<g id="node1" class="node">
<title>Node1</title>
<g id="a_node1"><a xlink:title="Check if stalemate occurs.">
<polygon fill="#bfbfbf" stroke="black" points="0,-38.5 0,-57.5 99,-57.5 99,-38.5 0,-38.5"/>
<text text-anchor="middle" x="49.5" y="-45.5" font-family="Helvetica,sans-Serif" font-size="10.00">Rules::stalemate</text>
</a>
</g>
</g>
<!-- Node2 -->
<g id="node2" class="node">
<title>Node2</title>
<g id="a_node2"><a xlink:href="classRules.html#abd9b013ebba58f9757336a20b2c6bf8e" target="_top" xlink:title="Checks if king is in check.">
<polygon fill="white" stroke="black" points="158,-38.5 158,-57.5 247,-57.5 247,-38.5 158,-38.5"/>
<text text-anchor="middle" x="202.5" y="-45.5" font-family="Helvetica,sans-Serif" font-size="10.00">Rules::checked</text>
</a>
</g>
</g>
<!-- Node1&#45;&gt;Node2 -->
<g id="edge1" class="edge">
<title>Node1&#45;&gt;Node2</title>
<path fill="none" stroke="midnightblue" d="M99.11,-48C114.6,-48 131.82,-48 147.66,-48"/>
<polygon fill="midnightblue" stroke="midnightblue" points="147.83,-51.5 157.83,-48 147.83,-44.5 147.83,-51.5"/>
</g>
<!-- Node5 -->
<g id="node5" class="node">
<title>Node5</title>
<g id="a_node5"><a xlink:href="classValidate.html#a50364e1735875d1d74e7eb251b3fd7e5" target="_top" xlink:title="Validates position.">
<polygon fill="white" stroke="black" points="320,-0.5 320,-19.5 451,-19.5 451,-0.5 320,-0.5"/>
<text text-anchor="middle" x="385.5" y="-7.5" font-family="Helvetica,sans-Serif" font-size="10.00">Validate::valid_position</text>
</a>
</g>
</g>
<!-- Node1&#45;&gt;Node5 -->
<g id="edge5" class="edge">
<title>Node1&#45;&gt;Node5</title>
<path fill="none" stroke="midnightblue" d="M87.72,-38.41C102.36,-34.95 119.39,-31.34 135,-29 193.38,-20.26 260.08,-15.45 309.82,-12.85"/>
<polygon fill="midnightblue" stroke="midnightblue" points="310.04,-16.34 319.85,-12.35 309.69,-9.35 310.04,-16.34"/>
</g>
<!-- Node6 -->
<g id="node6" class="node">
<title>Node6</title>
<g id="a_node6"><a xlink:href="classValidate.html#afe077c5b0107ffc1c42670e233257b9c" target="_top" xlink:title="Validates move.">
<polygon fill="white" stroke="black" points="135,-114.5 135,-133.5 270,-133.5 270,-114.5 135,-114.5"/>
<text text-anchor="middle" x="202.5" y="-121.5" font-family="Helvetica,sans-Serif" font-size="10.00">Validate::validate_move</text>
</a>
</g>
</g>
<!-- Node1&#45;&gt;Node6 -->
<g id="edge6" class="edge">
<title>Node1&#45;&gt;Node6</title>
<path fill="none" stroke="midnightblue" d="M69.62,-57.63C95.83,-70.82 143.1,-94.61 173.35,-109.83"/>
<polygon fill="midnightblue" stroke="midnightblue" points="172.03,-113.08 182.53,-114.45 175.17,-106.83 172.03,-113.08"/>
</g>
<!-- Node3 -->
<g id="node3" class="node">
<title>Node3</title>
<g id="a_node3"><a xlink:href="classValidate.html#a3e4b7f61bff7ee9d7d839ead34d2d61f" target="_top" xlink:title="Checks if square is empty.">
<polygon fill="white" stroke="black" points="513.5,-38.5 513.5,-57.5 620.5,-57.5 620.5,-38.5 513.5,-38.5"/>
<text text-anchor="middle" x="567" y="-45.5" font-family="Helvetica,sans-Serif" font-size="10.00">Validate::is_empty</text>
</a>
</g>
</g>
<!-- Node2&#45;&gt;Node3 -->
<g id="edge2" class="edge">
<title>Node2&#45;&gt;Node3</title>
<path fill="none" stroke="midnightblue" d="M247.23,-48C311.07,-48 430.15,-48 503.31,-48"/>
<polygon fill="midnightblue" stroke="midnightblue" points="503.32,-51.5 513.32,-48 503.32,-44.5 503.32,-51.5"/>
</g>
<!-- Node4 -->
<g id="node4" class="node">
<title>Node4</title>
<g id="a_node4"><a xlink:href="classValidate.html#ab5ba0f592c1cd28a57deab9ef608f2df" target="_top" xlink:title="Checks if piece is same color as player.">
<polygon fill="white" stroke="black" points="501,-76.5 501,-95.5 633,-95.5 633,-76.5 501,-76.5"/>
<text text-anchor="middle" x="567" y="-83.5" font-family="Helvetica,sans-Serif" font-size="10.00">Validate::is_same_color</text>
</a>
</g>
</g>
<!-- Node2&#45;&gt;Node4 -->
<g id="edge3" class="edge">
<title>Node2&#45;&gt;Node4</title>
<path fill="none" stroke="midnightblue" d="M247.09,-54.38C265.28,-56.93 286.64,-59.79 306,-62 368.07,-69.1 438.66,-75.51 490.61,-79.92"/>
<polygon fill="midnightblue" stroke="midnightblue" points="490.48,-83.42 500.74,-80.77 491.07,-76.44 490.48,-83.42"/>
</g>
<!-- Node2&#45;&gt;Node5 -->
<g id="edge4" class="edge">
<title>Node2&#45;&gt;Node5</title>
<path fill="none" stroke="midnightblue" d="M247.32,-38.8C271.99,-33.62 303.05,-27.1 329.37,-21.58"/>
<polygon fill="midnightblue" stroke="midnightblue" points="330.13,-24.99 339.2,-19.51 328.69,-18.14 330.13,-24.99"/>
</g>
<!-- Node7 -->
<g id="node7" class="node">
<title>Node7</title>
<g id="a_node7"><a xlink:href="classValidate.html#ac11fdbf661a340f903a8a8b581710c34" target="_top" xlink:title="Finds all possible moves for piece.">
<polygon fill="white" stroke="black" points="306,-114.5 306,-133.5 465,-133.5 465,-114.5 306,-114.5"/>
<text text-anchor="middle" x="385.5" y="-121.5" font-family="Helvetica,sans-Serif" font-size="10.00">Validate::find_possible_move</text>
</a>
</g>
</g>
<!-- Node6&#45;&gt;Node7 -->
<g id="edge7" class="edge">
<title>Node6&#45;&gt;Node7</title>
<path fill="none" stroke="midnightblue" d="M270.13,-124C278.46,-124 287.08,-124 295.68,-124"/>
<polygon fill="midnightblue" stroke="midnightblue" points="295.75,-127.5 305.75,-124 295.75,-120.5 295.75,-127.5"/>
</g>
<!-- Node9 -->
<g id="node9" class="node">
<title>Node9</title>
<g id="a_node9"><a xlink:href="classValidate.html#a6c88b44fd5d40b6aba0812e2d23d8f04" target="_top" xlink:title="Checks if castling is valid.">
<polygon fill="white" stroke="black" points="320.5,-152.5 320.5,-171.5 450.5,-171.5 450.5,-152.5 320.5,-152.5"/>
<text text-anchor="middle" x="385.5" y="-159.5" font-family="Helvetica,sans-Serif" font-size="10.00">Validate::valid_castling</text>
</a>
</g>
</g>
<!-- Node6&#45;&gt;Node9 -->
<g id="edge11" class="edge">
<title>Node6&#45;&gt;Node9</title>
<path fill="none" stroke="midnightblue" d="M249.17,-133.59C273.49,-138.69 303.58,-145.01 329.21,-150.39"/>
<polygon fill="midnightblue" stroke="midnightblue" points="328.65,-153.85 339.15,-152.48 330.09,-147 328.65,-153.85"/>
</g>
<!-- Node7&#45;&gt;Node3 -->
<g id="edge9" class="edge">
<title>Node7&#45;&gt;Node3</title>
<path fill="none" stroke="midnightblue" d="M403.52,-114.33C425.51,-102.11 465.23,-81 501,-67 506.89,-64.69 513.18,-62.52 519.43,-60.52"/>
<polygon fill="midnightblue" stroke="midnightblue" points="520.64,-63.81 529.18,-57.53 518.59,-57.12 520.64,-63.81"/>
</g>
<!-- Node7&#45;&gt;Node4 -->
<g id="edge10" class="edge">
<title>Node7&#45;&gt;Node4</title>
<path fill="none" stroke="midnightblue" d="M431.8,-114.41C455.91,-109.31 485.75,-102.99 511.17,-97.61"/>
<polygon fill="midnightblue" stroke="midnightblue" points="511.97,-101.02 521.03,-95.52 510.52,-94.17 511.97,-101.02"/>
</g>
<!-- Node8 -->
<g id="node8" class="node">
<title>Node8</title>
<g id="a_node8"><a xlink:href="classValidate.html#aa7766a323b9443c69e62a05d04f0b217" target="_top" xlink:title="Finds if move is legit.">
<polygon fill="white" stroke="black" points="510.5,-114.5 510.5,-133.5 623.5,-133.5 623.5,-114.5 510.5,-114.5"/>
<text text-anchor="middle" x="567" y="-121.5" font-family="Helvetica,sans-Serif" font-size="10.00">Validate::find_move</text>
</a>
</g>
</g>
<!-- Node7&#45;&gt;Node8 -->
<g id="edge8" class="edge">
<title>Node7&#45;&gt;Node8</title>
<path fill="none" stroke="midnightblue" d="M465.23,-124C476.84,-124 488.7,-124 500.02,-124"/>
<polygon fill="midnightblue" stroke="midnightblue" points="500.24,-127.5 510.24,-124 500.24,-120.5 500.24,-127.5"/>
</g>
</g>
</svg>
