<?xml version="1.0" encoding="UTF-8" standalone="no"?>
<!DOCTYPE svg PUBLIC "-//W3C//DTD SVG 1.1//EN"
 "http://www.w3.org/Graphics/SVG/1.1/DTD/svg11.dtd">
<!-- Generated by graphviz version 2.43.0 (0)
 -->
<!-- Title: Application::game Pages: 1 -->
<svg width="1152pt" height="512pt"
 viewBox="0.00 0.00 1152.00 512.00" xmlns="http://www.w3.org/2000/svg" xmlns:xlink="http://www.w3.org/1999/xlink">
<g id="graph0" class="graph" transform="scale(1 1) rotate(0) translate(4 508)">
<title>Application::game</title>
<polygon fill="white" stroke="transparent" points="-4,4 -4,-508 1148,-508 1148,4 -4,4"/>
<!-- Node1 -->
<g id="node1" class="node">
<title>Node1</title>
<g id="a_node1"><a xlink:title="Starts and handles game.">
<polygon fill="#bfbfbf" stroke="black" points="0,-183.5 0,-202.5 105,-202.5 105,-183.5 0,-183.5"/>
<text text-anchor="middle" x="52.5" y="-190.5" font-family="Helvetica,sans-Serif" font-size="10.00">Application::game</text>
</a>
</g>
</g>
<!-- Node2 -->
<g id="node2" class="node">
<title>Node2</title>
<g id="a_node2"><a xlink:href="classApplication.html#a50559888cd4196c7cda01e0a432d609f" target="_top" xlink:title="Changes turn of game.">
<polygon fill="white" stroke="black" points="165.5,-317 165.5,-347 278.5,-347 278.5,-317 165.5,-317"/>
<text text-anchor="start" x="173.5" y="-335" font-family="Helvetica,sans-Serif" font-size="10.00">Application::change</text>
<text text-anchor="middle" x="222" y="-324" font-family="Helvetica,sans-Serif" font-size="10.00">_turns</text>
</a>
</g>
</g>
<!-- Node1&#45;&gt;Node2 -->
<g id="edge1" class="edge">
<title>Node1&#45;&gt;Node2</title>
<path fill="none" stroke="midnightblue" d="M58.19,-202.55C69.39,-224.39 99.88,-278.29 141,-307 145.55,-310.18 150.52,-312.96 155.68,-315.4"/>
<polygon fill="midnightblue" stroke="midnightblue" points="154.56,-318.73 165.13,-319.43 157.3,-312.29 154.56,-318.73"/>
</g>
<!-- Node22 -->
<g id="node22" class="node">
<title>Node22</title>
<g id="a_node22"><a xlink:href="classGameRules.html#a8d006d25138133af6fa938c758b2d12f" target="_top" xlink:title="Checks if the dead position applies.">
<polygon fill="white" stroke="black" points="148.5,-278.5 148.5,-297.5 295.5,-297.5 295.5,-278.5 148.5,-278.5"/>
<text text-anchor="middle" x="222" y="-285.5" font-family="Helvetica,sans-Serif" font-size="10.00">GameRules::dead_position</text>
</a>
</g>
</g>
<!-- Node1&#45;&gt;Node22 -->
<g id="edge32" class="edge">
<title>Node1&#45;&gt;Node22</title>
<path fill="none" stroke="midnightblue" d="M61.62,-202.58C75.93,-218.84 107.35,-251.73 141,-269 145.57,-271.34 150.43,-273.4 155.41,-275.21"/>
<polygon fill="midnightblue" stroke="midnightblue" points="154.51,-278.6 165.1,-278.39 156.69,-271.95 154.51,-278.6"/>
</g>
<!-- Node23 -->
<g id="node23" class="node">
<title>Node23</title>
<g id="a_node23"><a xlink:href="classPlayer.html#a4d6bbea149ca89248c006c2a0ca140b6" target="_top" xlink:title="Delete piece from pieces_pos_.">
<polygon fill="white" stroke="black" points="164,-240.5 164,-259.5 280,-259.5 280,-240.5 164,-240.5"/>
<text text-anchor="middle" x="222" y="-247.5" font-family="Helvetica,sans-Serif" font-size="10.00">Player::delete_piece</text>
</a>
</g>
</g>
<!-- Node1&#45;&gt;Node23 -->
<g id="edge33" class="edge">
<title>Node1&#45;&gt;Node23</title>
<path fill="none" stroke="midnightblue" d="M72.92,-202.62C90.4,-210.98 116.96,-222.99 141,-231 148.61,-233.53 156.73,-235.87 164.77,-237.97"/>
<polygon fill="midnightblue" stroke="midnightblue" points="163.95,-241.38 174.5,-240.42 165.65,-234.59 163.95,-241.38"/>
</g>
<!-- Node24 -->
<g id="node24" class="node">
<title>Node24</title>
<g id="a_node24"><a xlink:href="classGameRules.html#aa6f8bc3fd2c7b8fa5dba8dfd241d7740" target="_top" xlink:title="Checks if the half&#45;move rules applies.">
<polygon fill="white" stroke="black" points="154,-202.5 154,-221.5 290,-221.5 290,-202.5 154,-202.5"/>
<text text-anchor="middle" x="222" y="-209.5" font-family="Helvetica,sans-Serif" font-size="10.00">GameRules::half_moves</text>
</a>
</g>
</g>
<!-- Node1&#45;&gt;Node24 -->
<g id="edge34" class="edge">
<title>Node1&#45;&gt;Node24</title>
<path fill="none" stroke="midnightblue" d="M105.12,-198.86C117.38,-200.25 130.72,-201.76 143.84,-203.25"/>
<polygon fill="midnightblue" stroke="midnightblue" points="143.48,-206.73 153.81,-204.38 144.26,-199.77 143.48,-206.73"/>
</g>
<!-- Node25 -->
<g id="node25" class="node">
<title>Node25</title>
<g id="a_node25"><a xlink:href="classBoard.html#aa96e4fef113d4a359baf359264c0cf3f" target="_top" xlink:title="Prints chess board.">
<polygon fill="white" stroke="black" points="168.5,-164.5 168.5,-183.5 275.5,-183.5 275.5,-164.5 168.5,-164.5"/>
<text text-anchor="middle" x="222" y="-171.5" font-family="Helvetica,sans-Serif" font-size="10.00">Board::print_board</text>
</a>
</g>
</g>
<!-- Node1&#45;&gt;Node25 -->
<g id="edge35" class="edge">
<title>Node1&#45;&gt;Node25</title>
<path fill="none" stroke="midnightblue" d="M105.12,-187.14C121.92,-185.24 140.74,-183.1 158.26,-181.12"/>
<polygon fill="midnightblue" stroke="midnightblue" points="158.85,-184.57 168.39,-179.97 158.06,-177.62 158.85,-184.57"/>
</g>
<!-- Node26 -->
<g id="node26" class="node">
<title>Node26</title>
<g id="a_node26"><a xlink:href="classApplication.html#aea645938276f66ddf06cbb04d6169502" target="_top" xlink:title="Prints result of game (checkmate, tie, pat, game not finished)">
<polygon fill="white" stroke="black" points="172,-115 172,-145 272,-145 272,-115 172,-115"/>
<text text-anchor="start" x="180" y="-133" font-family="Helvetica,sans-Serif" font-size="10.00">Application::print</text>
<text text-anchor="middle" x="222" y="-122" font-family="Helvetica,sans-Serif" font-size="10.00">_results</text>
</a>
</g>
</g>
<!-- Node1&#45;&gt;Node26 -->
<g id="edge36" class="edge">
<title>Node1&#45;&gt;Node26</title>
<path fill="none" stroke="midnightblue" d="M73.76,-183.47C91.33,-175.38 117.56,-163.72 141,-155 147.75,-152.49 154.88,-150.01 161.99,-147.65"/>
<polygon fill="midnightblue" stroke="midnightblue" points="163.21,-150.94 171.64,-144.52 161.05,-144.28 163.21,-150.94"/>
</g>
<!-- Node27 -->
<g id="node27" class="node">
<title>Node27</title>
<g id="a_node27"><a xlink:href="classFile__manager.html#a0b0b101cb1941cba0e51a2c6dea0919b" target="_top" xlink:title="Saves file.">
<polygon fill="white" stroke="black" points="156,-76.5 156,-95.5 288,-95.5 288,-76.5 156,-76.5"/>
<text text-anchor="middle" x="222" y="-83.5" font-family="Helvetica,sans-Serif" font-size="10.00">File_manager::save_file</text>
</a>
</g>
</g>
<!-- Node1&#45;&gt;Node27 -->
<g id="edge37" class="edge">
<title>Node1&#45;&gt;Node27</title>
<path fill="none" stroke="midnightblue" d="M60.25,-183.48C73.54,-165.45 104.99,-126.32 141,-106 145.83,-103.27 151.03,-100.91 156.38,-98.87"/>
<polygon fill="midnightblue" stroke="midnightblue" points="157.8,-102.09 166.12,-95.53 155.53,-95.47 157.8,-102.09"/>
</g>
<!-- Node36 -->
<g id="node36" class="node">
<title>Node36</title>
<g id="a_node36"><a xlink:href="classGameRules.html#a515085ec1bb0e6ea5c2d12664ec7fc10" target="_top" xlink:title="Checks if the stalemate rule applies.">
<polygon fill="white" stroke="black" points="340.5,-397.5 340.5,-416.5 468.5,-416.5 468.5,-397.5 340.5,-397.5"/>
<text text-anchor="middle" x="404.5" y="-404.5" font-family="Helvetica,sans-Serif" font-size="10.00">GameRules::stalemate</text>
</a>
</g>
</g>
<!-- Node1&#45;&gt;Node36 -->
<g id="edge46" class="edge">
<title>Node1&#45;&gt;Node36</title>
<path fill="none" stroke="midnightblue" d="M55.58,-202.68C62.28,-231.4 86.16,-316.64 141,-357 195.61,-397.19 273.42,-407.79 330.15,-409.48"/>
<polygon fill="midnightblue" stroke="midnightblue" points="330.41,-412.99 340.48,-409.7 330.56,-405.99 330.41,-412.99"/>
</g>
<!-- Node38 -->
<g id="node38" class="node">
<title>Node38</title>
<g id="a_node38"><a xlink:href="classGameRules.html#acbd44f6245c7a7fb0ddf2a7b0fffc923" target="_top" xlink:title="Checks if the threefold repetition rule applies.">
<polygon fill="white" stroke="black" points="160.5,-38.5 160.5,-57.5 283.5,-57.5 283.5,-38.5 160.5,-38.5"/>
<text text-anchor="middle" x="222" y="-45.5" font-family="Helvetica,sans-Serif" font-size="10.00">GameRules::threefold</text>
</a>
</g>
</g>
<!-- Node1&#45;&gt;Node38 -->
<g id="edge51" class="edge">
<title>Node1&#45;&gt;Node38</title>
<path fill="none" stroke="midnightblue" d="M57.31,-183.3C67.2,-159.45 96.11,-97.61 141,-67 144.13,-64.86 147.48,-62.97 150.95,-61.28"/>
<polygon fill="midnightblue" stroke="midnightblue" points="152.56,-64.4 160.42,-57.3 149.84,-57.95 152.56,-64.4"/>
</g>
<!-- Node39 -->
<g id="node39" class="node">
<title>Node39</title>
<g id="a_node39"><a xlink:href="classGameRules.html#a07b29e4691299df2cfe680af7a59262b" target="_top" xlink:title=" ">
<polygon fill="white" stroke="black" points="141,-0.5 141,-19.5 303,-19.5 303,-0.5 141,-0.5"/>
<text text-anchor="middle" x="222" y="-7.5" font-family="Helvetica,sans-Serif" font-size="10.00">GameRules::update_threefold</text>
</a>
</g>
</g>
<!-- Node1&#45;&gt;Node39 -->
<g id="edge52" class="edge">
<title>Node1&#45;&gt;Node39</title>
<path fill="none" stroke="midnightblue" d="M55.66,-183.43C62.6,-155.03 87.08,-70.58 141,-29 143.33,-27.2 145.81,-25.57 148.39,-24.09"/>
<polygon fill="midnightblue" stroke="midnightblue" points="150.07,-27.16 157.51,-19.62 146.99,-20.88 150.07,-27.16"/>
</g>
<!-- Node3 -->
<g id="node3" class="node">
<title>Node3</title>
<g id="a_node3"><a xlink:href="classApplication.html#a162a3f466352b474a10516c7f0b0ae9a" target="_top" xlink:title=" ">
<polygon fill="white" stroke="black" points="339,-308.5 339,-327.5 470,-327.5 470,-308.5 339,-308.5"/>
<text text-anchor="middle" x="404.5" y="-315.5" font-family="Helvetica,sans-Serif" font-size="10.00">Application::play_move</text>
</a>
</g>
</g>
<!-- Node2&#45;&gt;Node3 -->
<g id="edge2" class="edge">
<title>Node2&#45;&gt;Node3</title>
<path fill="none" stroke="midnightblue" d="M278.63,-327.69C294.41,-326.46 311.86,-325.11 328.59,-323.81"/>
<polygon fill="midnightblue" stroke="midnightblue" points="329.19,-327.27 338.88,-323.01 328.64,-320.3 329.19,-327.27"/>
</g>
<!-- Node4 -->
<g id="node4" class="node">
<title>Node4</title>
<g id="a_node4"><a xlink:href="classRules.html#abd9b013ebba58f9757336a20b2c6bf8e" target="_top" xlink:title="Checks if king is in check.">
<polygon fill="white" stroke="black" points="669,-370.5 669,-389.5 758,-389.5 758,-370.5 669,-370.5"/>
<text text-anchor="middle" x="713.5" y="-377.5" font-family="Helvetica,sans-Serif" font-size="10.00">Rules::checked</text>
</a>
</g>
</g>
<!-- Node3&#45;&gt;Node4 -->
<g id="edge3" class="edge">
<title>Node3&#45;&gt;Node4</title>
<path fill="none" stroke="midnightblue" d="M423.06,-327.52C442.67,-337.67 475.64,-353.31 506,-361 556.78,-373.86 616.55,-378.24 658.68,-379.62"/>
<polygon fill="midnightblue" stroke="midnightblue" points="658.63,-383.12 668.73,-379.91 658.83,-376.13 658.63,-383.12"/>
</g>
<!-- Node8 -->
<g id="node8" class="node">
<title>Node8</title>
<g id="a_node8"><a xlink:href="classRules.html#a4ec21c1bd51c73135ed26eafa0da58d3" target="_top" xlink:title="Checks if king is in checkmate.">
<polygon fill="white" stroke="black" points="506,-332.5 506,-351.5 610,-351.5 610,-332.5 506,-332.5"/>
<text text-anchor="middle" x="558" y="-339.5" font-family="Helvetica,sans-Serif" font-size="10.00">Rules::checkmate</text>
</a>
</g>
</g>
<!-- Node3&#45;&gt;Node8 -->
<g id="edge7" class="edge">
<title>Node3&#45;&gt;Node8</title>
<path fill="none" stroke="midnightblue" d="M465.81,-327.55C475.61,-329.11 485.77,-330.72 495.59,-332.27"/>
<polygon fill="midnightblue" stroke="midnightblue" points="495.26,-335.76 505.68,-333.87 496.35,-328.85 495.26,-335.76"/>
</g>
<!-- Node9 -->
<g id="node9" class="node">
<title>Node9</title>
<g id="a_node9"><a xlink:href="classMove.html#a3765dcce8a7c18e0c2f7ce42c98fa2ba" target="_top" xlink:title="Makes move with piece.">
<polygon fill="white" stroke="black" points="658.5,-218.5 658.5,-237.5 768.5,-237.5 768.5,-218.5 658.5,-218.5"/>
<text text-anchor="middle" x="713.5" y="-225.5" font-family="Helvetica,sans-Serif" font-size="10.00">Move::make_move</text>
</a>
</g>
</g>
<!-- Node3&#45;&gt;Node9 -->
<g id="edge28" class="edge">
<title>Node3&#45;&gt;Node9</title>
<path fill="none" stroke="midnightblue" d="M415.3,-308.32C432.17,-292.34 468.52,-260.83 506,-247 551.56,-230.19 606.43,-225.82 648.16,-225.45"/>
<polygon fill="midnightblue" stroke="midnightblue" points="648.21,-228.95 658.2,-225.43 648.2,-221.95 648.21,-228.95"/>
</g>
<!-- Node15 -->
<g id="node15" class="node">
<title>Node15</title>
<g id="a_node15"><a xlink:href="classMove.html#afbed08d3294e3c7913dd27c3d6afd283" target="_top" xlink:title="Undo move.">
<polygon fill="white" stroke="black" points="660,-294.5 660,-313.5 767,-313.5 767,-294.5 660,-294.5"/>
<text text-anchor="middle" x="713.5" y="-301.5" font-family="Helvetica,sans-Serif" font-size="10.00">Move::undo_move</text>
</a>
</g>
</g>
<!-- Node3&#45;&gt;Node15 -->
<g id="edge30" class="edge">
<title>Node3&#45;&gt;Node15</title>
<path fill="none" stroke="midnightblue" d="M470.23,-315.05C523.01,-312.64 597.11,-309.26 649.43,-306.88"/>
<polygon fill="midnightblue" stroke="midnightblue" points="649.76,-310.36 659.59,-306.41 649.44,-303.37 649.76,-310.36"/>
</g>
<!-- Node16 -->
<g id="node16" class="node">
<title>Node16</title>
<g id="a_node16"><a xlink:href="classValidate.html#afe077c5b0107ffc1c42670e233257b9c" target="_top" xlink:title="Validates move.">
<polygon fill="white" stroke="black" points="646,-446.5 646,-465.5 781,-465.5 781,-446.5 646,-446.5"/>
<text text-anchor="middle" x="713.5" y="-453.5" font-family="Helvetica,sans-Serif" font-size="10.00">Validate::validate_move</text>
</a>
</g>
</g>
<!-- Node3&#45;&gt;Node16 -->
<g id="edge31" class="edge">
<title>Node3&#45;&gt;Node16</title>
<path fill="none" stroke="midnightblue" d="M415.04,-327.66C427.96,-340.88 451.51,-365.55 470,-388 487.18,-408.86 482.47,-423.7 506,-437 544.86,-458.97 594.52,-464.11 635.4,-463.58"/>
<polygon fill="midnightblue" stroke="midnightblue" points="635.68,-467.07 645.59,-463.32 635.51,-460.07 635.68,-467.07"/>
</g>
<!-- Node20 -->
<g id="node20" class="node">
<title>Node20</title>
<g id="a_node20"><a xlink:href="classPlayer.html#afca2a1d6d42d2f3a04abb9ab5bc3d323" target="_top" xlink:title="Gets player&#39;s move.">
<polygon fill="white" stroke="black" points="507,-256.5 507,-275.5 609,-275.5 609,-256.5 507,-256.5"/>
<text text-anchor="middle" x="558" y="-263.5" font-family="Helvetica,sans-Serif" font-size="10.00">Player::get_move</text>
</a>
</g>
</g>
<!-- Node3&#45;&gt;Node20 -->
<g id="edge27" class="edge">
<title>Node3&#45;&gt;Node20</title>
<path fill="none" stroke="midnightblue" d="M433.29,-308.46C457.45,-300.17 492.67,-288.08 519.36,-278.92"/>
<polygon fill="midnightblue" stroke="midnightblue" points="520.81,-282.12 529.13,-275.57 518.54,-275.5 520.81,-282.12"/>
</g>
<!-- Node21 -->
<g id="node21" class="node">
<title>Node21</title>
<g id="a_node21"><a xlink:href="classApplication.html#afef57a39fdd32b4c10464d8a9d979816" target="_top" xlink:title="Prints who plays next.">
<polygon fill="white" stroke="black" points="508,-169 508,-199 608,-199 608,-169 508,-169"/>
<text text-anchor="start" x="516" y="-187" font-family="Helvetica,sans-Serif" font-size="10.00">Application::print</text>
<text text-anchor="middle" x="558" y="-176" font-family="Helvetica,sans-Serif" font-size="10.00">_color</text>
</a>
</g>
</g>
<!-- Node3&#45;&gt;Node21 -->
<g id="edge29" class="edge">
<title>Node3&#45;&gt;Node21</title>
<path fill="none" stroke="midnightblue" d="M413.35,-308.26C429.36,-288.78 467.54,-244.29 506,-214 510.29,-210.62 514.99,-207.36 519.75,-204.3"/>
<polygon fill="midnightblue" stroke="midnightblue" points="521.62,-207.26 528.32,-199.04 517.96,-201.29 521.62,-207.26"/>
</g>
<!-- Node5 -->
<g id="node5" class="node">
<title>Node5</title>
<g id="a_node5"><a xlink:href="classValidate.html#a3e4b7f61bff7ee9d7d839ead34d2d61f" target="_top" xlink:title="Checks if square is empty.">
<polygon fill="white" stroke="black" points="1024.5,-370.5 1024.5,-389.5 1131.5,-389.5 1131.5,-370.5 1024.5,-370.5"/>
<text text-anchor="middle" x="1078" y="-377.5" font-family="Helvetica,sans-Serif" font-size="10.00">Validate::is_empty</text>
</a>
</g>
</g>
<!-- Node4&#45;&gt;Node5 -->
<g id="edge4" class="edge">
<title>Node4&#45;&gt;Node5</title>
<path fill="none" stroke="midnightblue" d="M758.23,-380C822.07,-380 941.15,-380 1014.31,-380"/>
<polygon fill="midnightblue" stroke="midnightblue" points="1014.32,-383.5 1024.32,-380 1014.32,-376.5 1014.32,-383.5"/>
</g>
<!-- Node6 -->
<g id="node6" class="node">
<title>Node6</title>
<g id="a_node6"><a xlink:href="classValidate.html#ab5ba0f592c1cd28a57deab9ef608f2df" target="_top" xlink:title="Checks if piece is same color as player.">
<polygon fill="white" stroke="black" points="1012,-408.5 1012,-427.5 1144,-427.5 1144,-408.5 1012,-408.5"/>
<text text-anchor="middle" x="1078" y="-415.5" font-family="Helvetica,sans-Serif" font-size="10.00">Validate::is_same_color</text>
</a>
</g>
</g>
<!-- Node4&#45;&gt;Node6 -->
<g id="edge5" class="edge">
<title>Node4&#45;&gt;Node6</title>
<path fill="none" stroke="midnightblue" d="M758.09,-386.38C776.28,-388.93 797.64,-391.79 817,-394 879.07,-401.1 949.66,-407.51 1001.61,-411.92"/>
<polygon fill="midnightblue" stroke="midnightblue" points="1001.48,-415.42 1011.74,-412.77 1002.07,-408.44 1001.48,-415.42"/>
</g>
<!-- Node7 -->
<g id="node7" class="node">
<title>Node7</title>
<g id="a_node7"><a xlink:href="classValidate.html#a50364e1735875d1d74e7eb251b3fd7e5" target="_top" xlink:title="Validates position.">
<polygon fill="white" stroke="black" points="831,-332.5 831,-351.5 962,-351.5 962,-332.5 831,-332.5"/>
<text text-anchor="middle" x="896.5" y="-339.5" font-family="Helvetica,sans-Serif" font-size="10.00">Validate::valid_position</text>
</a>
</g>
</g>
<!-- Node4&#45;&gt;Node7 -->
<g id="edge6" class="edge">
<title>Node4&#45;&gt;Node7</title>
<path fill="none" stroke="midnightblue" d="M758.32,-370.8C782.99,-365.62 814.05,-359.1 840.37,-353.58"/>
<polygon fill="midnightblue" stroke="midnightblue" points="841.13,-356.99 850.2,-351.51 839.69,-350.14 841.13,-356.99"/>
</g>
<!-- Node8&#45;&gt;Node4 -->
<g id="edge8" class="edge">
<title>Node8&#45;&gt;Node4</title>
<path fill="none" stroke="midnightblue" d="M597.73,-351.59C617.9,-356.58 642.75,-362.73 664.16,-368.03"/>
<polygon fill="midnightblue" stroke="midnightblue" points="663.5,-371.47 674.04,-370.48 665.18,-364.68 663.5,-371.47"/>
</g>
<!-- Node8&#45;&gt;Node7 -->
<g id="edge20" class="edge">
<title>Node8&#45;&gt;Node7</title>
<path fill="none" stroke="midnightblue" d="M610.11,-342C666.22,-342 756.83,-342 820.88,-342"/>
<polygon fill="midnightblue" stroke="midnightblue" points="820.92,-345.5 830.92,-342 820.92,-338.5 820.92,-345.5"/>
</g>
<!-- Node8&#45;&gt;Node9 -->
<g id="edge9" class="edge">
<title>Node8&#45;&gt;Node9</title>
<path fill="none" stroke="midnightblue" d="M571.82,-332.48C598.17,-312.91 658.63,-268.01 691.04,-243.94"/>
<polygon fill="midnightblue" stroke="midnightblue" points="693.45,-246.51 699.39,-237.74 689.27,-240.89 693.45,-246.51"/>
</g>
<!-- Node8&#45;&gt;Node15 -->
<g id="edge18" class="edge">
<title>Node8&#45;&gt;Node15</title>
<path fill="none" stroke="midnightblue" d="M597.73,-332.41C617.9,-327.42 642.75,-321.27 664.16,-315.97"/>
<polygon fill="midnightblue" stroke="midnightblue" points="665.18,-319.32 674.04,-313.52 663.5,-312.53 665.18,-319.32"/>
</g>
<!-- Node8&#45;&gt;Node16 -->
<g id="edge21" class="edge">
<title>Node8&#45;&gt;Node16</title>
<path fill="none" stroke="midnightblue" d="M571.82,-351.52C598.17,-371.09 658.63,-415.99 691.04,-440.06"/>
<polygon fill="midnightblue" stroke="midnightblue" points="689.27,-443.11 699.39,-446.26 693.45,-437.49 689.27,-443.11"/>
</g>
<!-- Node10 -->
<g id="node10" class="node">
<title>Node10</title>
<g id="a_node10"><a xlink:href="classPlayer.html#a42e54e616455af5d9d4b6dea514ba7a0" target="_top" xlink:title="Checks player&#39;s pawn promotion.">
<polygon fill="white" stroke="black" points="834,-256.5 834,-275.5 959,-275.5 959,-256.5 834,-256.5"/>
<text text-anchor="middle" x="896.5" y="-263.5" font-family="Helvetica,sans-Serif" font-size="10.00">Player::get_promotion</text>
</a>
</g>
</g>
<!-- Node9&#45;&gt;Node10 -->
<g id="edge10" class="edge">
<title>Node9&#45;&gt;Node10</title>
<path fill="none" stroke="midnightblue" d="M760.17,-237.59C784.49,-242.69 814.58,-249.01 840.21,-254.39"/>
<polygon fill="midnightblue" stroke="midnightblue" points="839.65,-257.85 850.15,-256.48 841.09,-251 839.65,-257.85"/>
</g>
<!-- Node11 -->
<g id="node11" class="node">
<title>Node11</title>
<g id="a_node11"><a xlink:href="classMove.html#a5472b83ec6bcde0fd8c16c4508896ccd" target="_top" xlink:title="Handles casting.">
<polygon fill="white" stroke="black" points="833.5,-180.5 833.5,-199.5 959.5,-199.5 959.5,-180.5 833.5,-180.5"/>
<text text-anchor="middle" x="896.5" y="-187.5" font-family="Helvetica,sans-Serif" font-size="10.00">Move::handle_castling</text>
</a>
</g>
</g>
<!-- Node9&#45;&gt;Node11 -->
<g id="edge11" class="edge">
<title>Node9&#45;&gt;Node11</title>
<path fill="none" stroke="midnightblue" d="M760.17,-218.41C784.49,-213.31 814.58,-206.99 840.21,-201.61"/>
<polygon fill="midnightblue" stroke="midnightblue" points="841.09,-205 850.15,-199.52 839.65,-198.15 841.09,-205"/>
</g>
<!-- Node12 -->
<g id="node12" class="node">
<title>Node12</title>
<g id="a_node12"><a xlink:href="classMove.html#a5a18864c15112c49e5a93dbee3f83d1c" target="_top" xlink:title="Moves piece from start to end.">
<polygon fill="white" stroke="black" points="1023.5,-189.5 1023.5,-208.5 1132.5,-208.5 1132.5,-189.5 1023.5,-189.5"/>
<text text-anchor="middle" x="1078" y="-196.5" font-family="Helvetica,sans-Serif" font-size="10.00">Move::move_piece</text>
</a>
</g>
</g>
<!-- Node9&#45;&gt;Node12 -->
<g id="edge13" class="edge">
<title>Node9&#45;&gt;Node12</title>
<path fill="none" stroke="midnightblue" d="M768.62,-224.48C821.53,-220.95 904.34,-215.15 976,-209 988,-207.97 1000.79,-206.78 1013.1,-205.58"/>
<polygon fill="midnightblue" stroke="midnightblue" points="1013.69,-209.04 1023.3,-204.58 1013,-202.07 1013.69,-209.04"/>
</g>
<!-- Node13 -->
<g id="node13" class="node">
<title>Node13</title>
<g id="a_node13"><a xlink:href="classMove.html#a9a242db5d52827dd11f81a6aa46e339e" target="_top" xlink:title="Handles pawn promotion.">
<polygon fill="white" stroke="black" points="846.5,-142.5 846.5,-161.5 946.5,-161.5 946.5,-142.5 846.5,-142.5"/>
<text text-anchor="middle" x="896.5" y="-149.5" font-family="Helvetica,sans-Serif" font-size="10.00">Move::promotion</text>
</a>
</g>
</g>
<!-- Node9&#45;&gt;Node13 -->
<g id="edge14" class="edge">
<title>Node9&#45;&gt;Node13</title>
<path fill="none" stroke="midnightblue" d="M728.82,-218.39C748.1,-205.84 783.81,-183.97 817,-171 823.41,-168.5 830.24,-166.26 837.1,-164.27"/>
<polygon fill="midnightblue" stroke="midnightblue" points="838.4,-167.54 847.12,-161.54 836.56,-160.79 838.4,-167.54"/>
</g>
<!-- Node14 -->
<g id="node14" class="node">
<title>Node14</title>
<g id="a_node14"><a xlink:href="classPlayer.html#a620bf4cb1907eafdbcd9252a750ffa8f" target="_top" xlink:title="Update piece&#39;s position on chess board.">
<polygon fill="white" stroke="black" points="1016,-132.5 1016,-151.5 1140,-151.5 1140,-132.5 1016,-132.5"/>
<text text-anchor="middle" x="1078" y="-139.5" font-family="Helvetica,sans-Serif" font-size="10.00">Player::update_pieces</text>
</a>
</g>
</g>
<!-- Node9&#45;&gt;Node14 -->
<g id="edge17" class="edge">
<title>Node9&#45;&gt;Node14</title>
<path fill="none" stroke="midnightblue" d="M721.01,-218.28C735.42,-197.78 772.28,-150.54 817,-133 888.5,-104.96 979.73,-118.14 1032.93,-130.15"/>
<polygon fill="midnightblue" stroke="midnightblue" points="1032.19,-133.58 1042.72,-132.45 1033.79,-126.76 1032.19,-133.58"/>
</g>
<!-- Node11&#45;&gt;Node12 -->
<g id="edge12" class="edge">
<title>Node11&#45;&gt;Node12</title>
<path fill="none" stroke="midnightblue" d="M959.53,-193.11C976.89,-193.98 995.79,-194.93 1013.26,-195.8"/>
<polygon fill="midnightblue" stroke="midnightblue" points="1013.19,-199.3 1023.35,-196.31 1013.54,-192.31 1013.19,-199.3"/>
</g>
<!-- Node13&#45;&gt;Node12 -->
<g id="edge15" class="edge">
<title>Node13&#45;&gt;Node12</title>
<path fill="none" stroke="midnightblue" d="M937.9,-161.51C950.16,-164.47 963.65,-167.79 976,-171 994.85,-175.89 1015.58,-181.59 1033.34,-186.56"/>
<polygon fill="midnightblue" stroke="midnightblue" points="1032.83,-190.05 1043.41,-189.39 1034.73,-183.31 1032.83,-190.05"/>
</g>
<!-- Node13&#45;&gt;Node14 -->
<g id="edge16" class="edge">
<title>Node13&#45;&gt;Node14</title>
<path fill="none" stroke="midnightblue" d="M946.55,-149.27C964.76,-148.25 985.8,-147.08 1005.6,-145.98"/>
<polygon fill="midnightblue" stroke="midnightblue" points="1006.03,-149.46 1015.82,-145.41 1005.64,-142.47 1006.03,-149.46"/>
</g>
<!-- Node15&#45;&gt;Node12 -->
<g id="edge19" class="edge">
<title>Node15&#45;&gt;Node12</title>
<path fill="none" stroke="midnightblue" d="M767.03,-309.52C821.44,-313.14 907.87,-312.92 976,-285 1012.34,-270.11 1045.07,-236.9 1062.89,-216.39"/>
<polygon fill="midnightblue" stroke="midnightblue" points="1065.59,-218.61 1069.37,-208.71 1060.25,-214.09 1065.59,-218.61"/>
</g>
<!-- Node17 -->
<g id="node17" class="node">
<title>Node17</title>
<g id="a_node17"><a xlink:href="classValidate.html#ac11fdbf661a340f903a8a8b581710c34" target="_top" xlink:title="Finds all possible moves for piece.">
<polygon fill="white" stroke="black" points="817,-446.5 817,-465.5 976,-465.5 976,-446.5 817,-446.5"/>
<text text-anchor="middle" x="896.5" y="-453.5" font-family="Helvetica,sans-Serif" font-size="10.00">Validate::find_possible_move</text>
</a>
</g>
</g>
<!-- Node16&#45;&gt;Node17 -->
<g id="edge22" class="edge">
<title>Node16&#45;&gt;Node17</title>
<path fill="none" stroke="midnightblue" d="M781.13,-456C789.46,-456 798.08,-456 806.68,-456"/>
<polygon fill="midnightblue" stroke="midnightblue" points="806.75,-459.5 816.75,-456 806.75,-452.5 806.75,-459.5"/>
</g>
<!-- Node19 -->
<g id="node19" class="node">
<title>Node19</title>
<g id="a_node19"><a xlink:href="classValidate.html#a6c88b44fd5d40b6aba0812e2d23d8f04" target="_top" xlink:title="Checks if castling is valid.">
<polygon fill="white" stroke="black" points="831.5,-484.5 831.5,-503.5 961.5,-503.5 961.5,-484.5 831.5,-484.5"/>
<text text-anchor="middle" x="896.5" y="-491.5" font-family="Helvetica,sans-Serif" font-size="10.00">Validate::valid_castling</text>
</a>
</g>
</g>
<!-- Node16&#45;&gt;Node19 -->
<g id="edge26" class="edge">
<title>Node16&#45;&gt;Node19</title>
<path fill="none" stroke="midnightblue" d="M760.17,-465.59C784.49,-470.69 814.58,-477.01 840.21,-482.39"/>
<polygon fill="midnightblue" stroke="midnightblue" points="839.65,-485.85 850.15,-484.48 841.09,-479 839.65,-485.85"/>
</g>
<!-- Node17&#45;&gt;Node5 -->
<g id="edge24" class="edge">
<title>Node17&#45;&gt;Node5</title>
<path fill="none" stroke="midnightblue" d="M914.52,-446.33C936.51,-434.11 976.23,-413 1012,-399 1017.89,-396.69 1024.18,-394.52 1030.43,-392.52"/>
<polygon fill="midnightblue" stroke="midnightblue" points="1031.64,-395.81 1040.18,-389.53 1029.59,-389.12 1031.64,-395.81"/>
</g>
<!-- Node17&#45;&gt;Node6 -->
<g id="edge25" class="edge">
<title>Node17&#45;&gt;Node6</title>
<path fill="none" stroke="midnightblue" d="M942.8,-446.41C966.91,-441.31 996.75,-434.99 1022.17,-429.61"/>
<polygon fill="midnightblue" stroke="midnightblue" points="1022.97,-433.02 1032.03,-427.52 1021.52,-426.17 1022.97,-433.02"/>
</g>
<!-- Node18 -->
<g id="node18" class="node">
<title>Node18</title>
<g id="a_node18"><a xlink:href="classValidate.html#aa7766a323b9443c69e62a05d04f0b217" target="_top" xlink:title="Finds if move is legit.">
<polygon fill="white" stroke="black" points="1021.5,-446.5 1021.5,-465.5 1134.5,-465.5 1134.5,-446.5 1021.5,-446.5"/>
<text text-anchor="middle" x="1078" y="-453.5" font-family="Helvetica,sans-Serif" font-size="10.00">Validate::find_move</text>
</a>
</g>
</g>
<!-- Node17&#45;&gt;Node18 -->
<g id="edge23" class="edge">
<title>Node17&#45;&gt;Node18</title>
<path fill="none" stroke="midnightblue" d="M976.23,-456C987.84,-456 999.7,-456 1011.02,-456"/>
<polygon fill="midnightblue" stroke="midnightblue" points="1011.24,-459.5 1021.24,-456 1011.24,-452.5 1011.24,-459.5"/>
</g>
<!-- Node28 -->
<g id="node28" class="node">
<title>Node28</title>
<g id="a_node28"><a xlink:href="classFile__manager.html#a700ed2e80892dd11ec00b150b991db71" target="_top" xlink:title="Checks if file name ends with .txt.">
<polygon fill="white" stroke="black" points="348.5,-71 348.5,-101 460.5,-101 460.5,-71 348.5,-71"/>
<text text-anchor="start" x="356.5" y="-89" font-family="Helvetica,sans-Serif" font-size="10.00">File_manager::ends</text>
<text text-anchor="middle" x="404.5" y="-78" font-family="Helvetica,sans-Serif" font-size="10.00">_with_txt</text>
</a>
</g>
</g>
<!-- Node27&#45;&gt;Node28 -->
<g id="edge38" class="edge">
<title>Node27&#45;&gt;Node28</title>
<path fill="none" stroke="midnightblue" d="M288.16,-86C304.32,-86 321.64,-86 337.81,-86"/>
<polygon fill="midnightblue" stroke="midnightblue" points="338.26,-89.5 348.26,-86 338.26,-82.5 338.26,-89.5"/>
</g>
<!-- Node29 -->
<g id="node29" class="node">
<title>Node29</title>
<g id="a_node29"><a xlink:href="classFEN.html#a42da90e2b44ecb011e7ec0d86015dffd" target="_top" xlink:title="Gets FEN notation.">
<polygon fill="white" stroke="black" points="363,-32.5 363,-51.5 446,-51.5 446,-32.5 363,-32.5"/>
<text text-anchor="middle" x="404.5" y="-39.5" font-family="Helvetica,sans-Serif" font-size="10.00">FEN::get_FEN</text>
</a>
</g>
</g>
<!-- Node27&#45;&gt;Node29 -->
<g id="edge39" class="edge">
<title>Node27&#45;&gt;Node29</title>
<path fill="none" stroke="midnightblue" d="M263.72,-76.42C276.32,-73.43 290.24,-70.1 303,-67 320.07,-62.85 338.75,-58.22 355.33,-54.09"/>
<polygon fill="midnightblue" stroke="midnightblue" points="356.49,-57.41 365.35,-51.59 354.8,-50.62 356.49,-57.41"/>
</g>
<!-- Node35 -->
<g id="node35" class="node">
<title>Node35</title>
<g id="a_node35"><a xlink:href="classFile__manager.html#a5492c26ed8d51b69935173acf8688e80" target="_top" xlink:title="List all files in directory.">
<polygon fill="white" stroke="black" points="352.5,-120 352.5,-150 456.5,-150 456.5,-120 352.5,-120"/>
<text text-anchor="start" x="360.5" y="-138" font-family="Helvetica,sans-Serif" font-size="10.00">File_manager::list</text>
<text text-anchor="middle" x="404.5" y="-127" font-family="Helvetica,sans-Serif" font-size="10.00">_directory</text>
</a>
</g>
</g>
<!-- Node27&#45;&gt;Node35 -->
<g id="edge45" class="edge">
<title>Node27&#45;&gt;Node35</title>
<path fill="none" stroke="midnightblue" d="M262.54,-95.59C275.46,-98.8 289.87,-102.46 303,-106 315.93,-109.48 329.74,-113.36 342.86,-117.12"/>
<polygon fill="midnightblue" stroke="midnightblue" points="342.15,-120.56 352.73,-119.97 344.09,-113.83 342.15,-120.56"/>
</g>
<!-- Node30 -->
<g id="node30" class="node">
<title>Node30</title>
<g id="a_node30"><a xlink:href="classInput__handler.html#a7987d8ac8708c84676dd60936341bd8c" target="_top" xlink:title="Converts int to char.">
<polygon fill="white" stroke="black" points="507,-58 507,-88 609,-88 609,-58 507,-58"/>
<text text-anchor="start" x="515" y="-76" font-family="Helvetica,sans-Serif" font-size="10.00">Input_handler::int</text>
<text text-anchor="middle" x="558" y="-65" font-family="Helvetica,sans-Serif" font-size="10.00">_to_coordinates</text>
</a>
</g>
</g>
<!-- Node29&#45;&gt;Node30 -->
<g id="edge40" class="edge">
<title>Node29&#45;&gt;Node30</title>
<path fill="none" stroke="midnightblue" d="M446.1,-50.31C461.71,-53.5 479.87,-57.22 496.92,-60.71"/>
<polygon fill="midnightblue" stroke="midnightblue" points="496.31,-64.15 506.81,-62.73 497.72,-57.3 496.31,-64.15"/>
</g>
<!-- Node31 -->
<g id="node31" class="node">
<title>Node31</title>
<g id="a_node31"><a xlink:href="classFEN.html#aa59029cbcd63802d3dddd5523f3702e9" target="_top" xlink:title="Save piece.">
<polygon fill="white" stroke="black" points="507,-19.5 507,-38.5 609,-38.5 609,-19.5 507,-19.5"/>
<text text-anchor="middle" x="558" y="-26.5" font-family="Helvetica,sans-Serif" font-size="10.00">FEN::save_pieces</text>
</a>
</g>
</g>
<!-- Node29&#45;&gt;Node31 -->
<g id="edge41" class="edge">
<title>Node29&#45;&gt;Node31</title>
<path fill="none" stroke="midnightblue" d="M446.1,-38.52C461.56,-37.19 479.53,-35.65 496.45,-34.2"/>
<polygon fill="midnightblue" stroke="midnightblue" points="497.15,-37.65 506.81,-33.31 496.55,-30.67 497.15,-37.65"/>
</g>
<!-- Node32 -->
<g id="node32" class="node">
<title>Node32</title>
<g id="a_node32"><a xlink:href="classFEN.html#a0bfe254b9c0c3e163aecf70582e47761" target="_top" xlink:title="Gets types of piece.">
<polygon fill="white" stroke="black" points="646,-19.5 646,-38.5 781,-38.5 781,-19.5 646,-19.5"/>
<text text-anchor="middle" x="713.5" y="-26.5" font-family="Helvetica,sans-Serif" font-size="10.00">FEN::get_piece_notation</text>
</a>
</g>
</g>
<!-- Node31&#45;&gt;Node32 -->
<g id="edge42" class="edge">
<title>Node31&#45;&gt;Node32</title>
<path fill="none" stroke="midnightblue" d="M609.26,-29C617.77,-29 626.78,-29 635.79,-29"/>
<polygon fill="midnightblue" stroke="midnightblue" points="635.93,-32.5 645.93,-29 635.93,-25.5 635.93,-32.5"/>
</g>
<!-- Node33 -->
<g id="node33" class="node">
<title>Node33</title>
<g id="a_node33"><a xlink:href="classPiece.html#a5a18c08757a0eccdc6fd0686d4db6743" target="_top" xlink:title=" ">
<polygon fill="white" stroke="black" points="849.5,-38.5 849.5,-57.5 943.5,-57.5 943.5,-38.5 849.5,-38.5"/>
<text text-anchor="middle" x="896.5" y="-45.5" font-family="Helvetica,sans-Serif" font-size="10.00">Piece::get_color</text>
</a>
</g>
</g>
<!-- Node32&#45;&gt;Node33 -->
<g id="edge43" class="edge">
<title>Node32&#45;&gt;Node33</title>
<path fill="none" stroke="midnightblue" d="M781.13,-35.99C800.26,-38 820.93,-40.17 839.37,-42.11"/>
<polygon fill="midnightblue" stroke="midnightblue" points="839.04,-45.59 849.36,-43.16 839.78,-38.63 839.04,-45.59"/>
</g>
<!-- Node34 -->
<g id="node34" class="node">
<title>Node34</title>
<g id="a_node34"><a xlink:href="classPiece.html#af5e0b1b9ea85bcb3e61bb180005aa28a" target="_top" xlink:title=" ">
<polygon fill="white" stroke="black" points="848.5,-0.5 848.5,-19.5 944.5,-19.5 944.5,-0.5 848.5,-0.5"/>
<text text-anchor="middle" x="896.5" y="-7.5" font-family="Helvetica,sans-Serif" font-size="10.00">Piece::get_piece</text>
</a>
</g>
</g>
<!-- Node32&#45;&gt;Node34 -->
<g id="edge44" class="edge">
<title>Node32&#45;&gt;Node34</title>
<path fill="none" stroke="midnightblue" d="M781.13,-22.01C799.84,-20.04 820.01,-17.92 838.13,-16.02"/>
<polygon fill="midnightblue" stroke="midnightblue" points="838.67,-19.49 848.25,-14.96 837.94,-12.52 838.67,-19.49"/>
</g>
<!-- Node37 -->
<g id="node37" class="node">
<title>Node37</title>
<g id="a_node37"><a xlink:href="classRules.html#ac508b22d87dddf5225cf154785618413" target="_top" xlink:title="Check if stalemate occurs.">
<polygon fill="white" stroke="black" points="508.5,-408.5 508.5,-427.5 607.5,-427.5 607.5,-408.5 508.5,-408.5"/>
<text text-anchor="middle" x="558" y="-415.5" font-family="Helvetica,sans-Serif" font-size="10.00">Rules::stalemate</text>
</a>
</g>
</g>
<!-- Node36&#45;&gt;Node37 -->
<g id="edge47" class="edge">
<title>Node36&#45;&gt;Node37</title>
<path fill="none" stroke="midnightblue" d="M468.87,-411.6C478.52,-412.3 488.44,-413.02 497.99,-413.72"/>
<polygon fill="midnightblue" stroke="midnightblue" points="497.94,-417.22 508.17,-414.45 498.45,-410.24 497.94,-417.22"/>
</g>
<!-- Node37&#45;&gt;Node4 -->
<g id="edge48" class="edge">
<title>Node37&#45;&gt;Node4</title>
<path fill="none" stroke="midnightblue" d="M597.73,-408.41C617.9,-403.42 642.75,-397.27 664.16,-391.97"/>
<polygon fill="midnightblue" stroke="midnightblue" points="665.18,-395.32 674.04,-389.52 663.5,-388.53 665.18,-395.32"/>
</g>
<!-- Node37&#45;&gt;Node7 -->
<g id="edge49" class="edge">
<title>Node37&#45;&gt;Node7</title>
<path fill="none" stroke="midnightblue" d="M607.56,-419.03C653.17,-418.8 722.9,-415.31 781,-399 814.3,-389.65 849.46,-370.58 871.89,-357.08"/>
<polygon fill="midnightblue" stroke="midnightblue" points="874,-359.89 880.69,-351.68 870.33,-353.93 874,-359.89"/>
</g>
<!-- Node37&#45;&gt;Node16 -->
<g id="edge50" class="edge">
<title>Node37&#45;&gt;Node16</title>
<path fill="none" stroke="midnightblue" d="M597.73,-427.59C617.9,-432.58 642.75,-438.73 664.16,-444.03"/>
<polygon fill="midnightblue" stroke="midnightblue" points="663.5,-447.47 674.04,-446.48 665.18,-440.68 663.5,-447.47"/>
</g>
</g>
</svg>
