<?xml version="1.0" encoding="UTF-8" standalone="no"?>
<!DOCTYPE svg PUBLIC "-//W3C//DTD SVG 1.1//EN"
 "http://www.w3.org/Graphics/SVG/1.1/DTD/svg11.dtd">
<!-- Generated by graphviz version 2.43.0 (0)
 -->
<!-- Title: GameRules::stalemate Pages: 1 -->
<svg width="805pt" height="180pt"
 viewBox="0.00 0.00 805.00 180.00" xmlns="http://www.w3.org/2000/svg" xmlns:xlink="http://www.w3.org/1999/xlink">
<g id="graph0" class="graph" transform="scale(1 1) rotate(0) translate(4 176)">
<title>GameRules::stalemate</title>
<polygon fill="white" stroke="transparent" points="-4,4 -4,-176 801,-176 801,4 -4,4"/>
<!-- Node1 -->
<g id="node1" class="node">
<title>Node1</title>
<g id="a_node1"><a xlink:title="Checks if the stalemate rule applies.">
<polygon fill="#bfbfbf" stroke="black" points="0,-38.5 0,-57.5 128,-57.5 128,-38.5 0,-38.5"/>
<text text-anchor="middle" x="64" y="-45.5" font-family="Helvetica,sans-Serif" font-size="10.00">GameRules::stalemate</text>
</a>
</g>
</g>
<!-- Node2 -->
<g id="node2" class="node">
<title>Node2</title>
<g id="a_node2"><a xlink:href="classRules.html#ac508b22d87dddf5225cf154785618413" target="_top" xlink:title="Check if stalemate occurs.">
<polygon fill="white" stroke="black" points="164,-38.5 164,-57.5 263,-57.5 263,-38.5 164,-38.5"/>
<text text-anchor="middle" x="213.5" y="-45.5" font-family="Helvetica,sans-Serif" font-size="10.00">Rules::stalemate</text>
</a>
</g>
</g>
<!-- Node1&#45;&gt;Node2 -->
<g id="edge1" class="edge">
<title>Node1&#45;&gt;Node2</title>
<path fill="none" stroke="midnightblue" d="M128.41,-48C136.85,-48 145.47,-48 153.82,-48"/>
<polygon fill="midnightblue" stroke="midnightblue" points="153.85,-51.5 163.85,-48 153.85,-44.5 153.85,-51.5"/>
</g>
<!-- Node3 -->
<g id="node3" class="node">
<title>Node3</title>
<g id="a_node3"><a xlink:href="classRules.html#abd9b013ebba58f9757336a20b2c6bf8e" target="_top" xlink:title="Checks if king is in check.">
<polygon fill="white" stroke="black" points="322,-38.5 322,-57.5 411,-57.5 411,-38.5 322,-38.5"/>
<text text-anchor="middle" x="366.5" y="-45.5" font-family="Helvetica,sans-Serif" font-size="10.00">Rules::checked</text>
</a>
</g>
</g>
<!-- Node2&#45;&gt;Node3 -->
<g id="edge2" class="edge">
<title>Node2&#45;&gt;Node3</title>
<path fill="none" stroke="midnightblue" d="M263.11,-48C278.6,-48 295.82,-48 311.66,-48"/>
<polygon fill="midnightblue" stroke="midnightblue" points="311.83,-51.5 321.83,-48 311.83,-44.5 311.83,-51.5"/>
</g>
<!-- Node6 -->
<g id="node6" class="node">
<title>Node6</title>
<g id="a_node6"><a xlink:href="classValidate.html#a50364e1735875d1d74e7eb251b3fd7e5" target="_top" xlink:title="Validates position.">
<polygon fill="white" stroke="black" points="484,-0.5 484,-19.5 615,-19.5 615,-0.5 484,-0.5"/>
<text text-anchor="middle" x="549.5" y="-7.5" font-family="Helvetica,sans-Serif" font-size="10.00">Validate::valid_position</text>
</a>
</g>
</g>
<!-- Node2&#45;&gt;Node6 -->
<g id="edge6" class="edge">
<title>Node2&#45;&gt;Node6</title>
<path fill="none" stroke="midnightblue" d="M251.72,-38.41C266.36,-34.95 283.39,-31.34 299,-29 357.38,-20.26 424.08,-15.45 473.82,-12.85"/>
<polygon fill="midnightblue" stroke="midnightblue" points="474.04,-16.34 483.85,-12.35 473.69,-9.35 474.04,-16.34"/>
</g>
<!-- Node7 -->
<g id="node7" class="node">
<title>Node7</title>
<g id="a_node7"><a xlink:href="classValidate.html#afe077c5b0107ffc1c42670e233257b9c" target="_top" xlink:title="Validates move.">
<polygon fill="white" stroke="black" points="299,-114.5 299,-133.5 434,-133.5 434,-114.5 299,-114.5"/>
<text text-anchor="middle" x="366.5" y="-121.5" font-family="Helvetica,sans-Serif" font-size="10.00">Validate::validate_move</text>
</a>
</g>
</g>
<!-- Node2&#45;&gt;Node7 -->
<g id="edge7" class="edge">
<title>Node2&#45;&gt;Node7</title>
<path fill="none" stroke="midnightblue" d="M233.62,-57.63C259.83,-70.82 307.1,-94.61 337.35,-109.83"/>
<polygon fill="midnightblue" stroke="midnightblue" points="336.03,-113.08 346.53,-114.45 339.17,-106.83 336.03,-113.08"/>
</g>
<!-- Node4 -->
<g id="node4" class="node">
<title>Node4</title>
<g id="a_node4"><a xlink:href="classValidate.html#a3e4b7f61bff7ee9d7d839ead34d2d61f" target="_top" xlink:title="Checks if square is empty.">
<polygon fill="white" stroke="black" points="677.5,-38.5 677.5,-57.5 784.5,-57.5 784.5,-38.5 677.5,-38.5"/>
<text text-anchor="middle" x="731" y="-45.5" font-family="Helvetica,sans-Serif" font-size="10.00">Validate::is_empty</text>
</a>
</g>
</g>
<!-- Node3&#45;&gt;Node4 -->
<g id="edge3" class="edge">
<title>Node3&#45;&gt;Node4</title>
<path fill="none" stroke="midnightblue" d="M411.23,-48C475.07,-48 594.15,-48 667.31,-48"/>
<polygon fill="midnightblue" stroke="midnightblue" points="667.32,-51.5 677.32,-48 667.32,-44.5 667.32,-51.5"/>
</g>
<!-- Node5 -->
<g id="node5" class="node">
<title>Node5</title>
<g id="a_node5"><a xlink:href="classValidate.html#ab5ba0f592c1cd28a57deab9ef608f2df" target="_top" xlink:title="Checks if piece is same color as player.">
<polygon fill="white" stroke="black" points="665,-76.5 665,-95.5 797,-95.5 797,-76.5 665,-76.5"/>
<text text-anchor="middle" x="731" y="-83.5" font-family="Helvetica,sans-Serif" font-size="10.00">Validate::is_same_color</text>
</a>
</g>
</g>
<!-- Node3&#45;&gt;Node5 -->
<g id="edge4" class="edge">
<title>Node3&#45;&gt;Node5</title>
<path fill="none" stroke="midnightblue" d="M411.09,-54.38C429.28,-56.93 450.64,-59.79 470,-62 532.07,-69.1 602.66,-75.51 654.61,-79.92"/>
<polygon fill="midnightblue" stroke="midnightblue" points="654.48,-83.42 664.74,-80.77 655.07,-76.44 654.48,-83.42"/>
</g>
<!-- Node3&#45;&gt;Node6 -->
<g id="edge5" class="edge">
<title>Node3&#45;&gt;Node6</title>
<path fill="none" stroke="midnightblue" d="M411.32,-38.8C435.99,-33.62 467.05,-27.1 493.37,-21.58"/>
<polygon fill="midnightblue" stroke="midnightblue" points="494.13,-24.99 503.2,-19.51 492.69,-18.14 494.13,-24.99"/>
</g>
<!-- Node8 -->
<g id="node8" class="node">
<title>Node8</title>
<g id="a_node8"><a xlink:href="classValidate.html#ac11fdbf661a340f903a8a8b581710c34" target="_top" xlink:title="Finds all possible moves for piece.">
<polygon fill="white" stroke="black" points="470,-114.5 470,-133.5 629,-133.5 629,-114.5 470,-114.5"/>
<text text-anchor="middle" x="549.5" y="-121.5" font-family="Helvetica,sans-Serif" font-size="10.00">Validate::find_possible_move</text>
</a>
</g>
</g>
<!-- Node7&#45;&gt;Node8 -->
<g id="edge8" class="edge">
<title>Node7&#45;&gt;Node8</title>
<path fill="none" stroke="midnightblue" d="M434.13,-124C442.46,-124 451.08,-124 459.68,-124"/>
<polygon fill="midnightblue" stroke="midnightblue" points="459.75,-127.5 469.75,-124 459.75,-120.5 459.75,-127.5"/>
</g>
<!-- Node10 -->
<g id="node10" class="node">
<title>Node10</title>
<g id="a_node10"><a xlink:href="classValidate.html#a6c88b44fd5d40b6aba0812e2d23d8f04" target="_top" xlink:title="Checks if castling is valid.">
<polygon fill="white" stroke="black" points="484.5,-152.5 484.5,-171.5 614.5,-171.5 614.5,-152.5 484.5,-152.5"/>
<text text-anchor="middle" x="549.5" y="-159.5" font-family="Helvetica,sans-Serif" font-size="10.00">Validate::valid_castling</text>
</a>
</g>
</g>
<!-- Node7&#45;&gt;Node10 -->
<g id="edge12" class="edge">
<title>Node7&#45;&gt;Node10</title>
<path fill="none" stroke="midnightblue" d="M413.17,-133.59C437.49,-138.69 467.58,-145.01 493.21,-150.39"/>
<polygon fill="midnightblue" stroke="midnightblue" points="492.65,-153.85 503.15,-152.48 494.09,-147 492.65,-153.85"/>
</g>
<!-- Node8&#45;&gt;Node4 -->
<g id="edge10" class="edge">
<title>Node8&#45;&gt;Node4</title>
<path fill="none" stroke="midnightblue" d="M567.52,-114.33C589.51,-102.11 629.23,-81 665,-67 670.89,-64.69 677.18,-62.52 683.43,-60.52"/>
<polygon fill="midnightblue" stroke="midnightblue" points="684.64,-63.81 693.18,-57.53 682.59,-57.12 684.64,-63.81"/>
</g>
<!-- Node8&#45;&gt;Node5 -->
<g id="edge11" class="edge">
<title>Node8&#45;&gt;Node5</title>
<path fill="none" stroke="midnightblue" d="M595.8,-114.41C619.91,-109.31 649.75,-102.99 675.17,-97.61"/>
<polygon fill="midnightblue" stroke="midnightblue" points="675.97,-101.02 685.03,-95.52 674.52,-94.17 675.97,-101.02"/>
</g>
<!-- Node9 -->
<g id="node9" class="node">
<title>Node9</title>
<g id="a_node9"><a xlink:href="classValidate.html#aa7766a323b9443c69e62a05d04f0b217" target="_top" xlink:title="Finds if move is legit.">
<polygon fill="white" stroke="black" points="674.5,-114.5 674.5,-133.5 787.5,-133.5 787.5,-114.5 674.5,-114.5"/>
<text text-anchor="middle" x="731" y="-121.5" font-family="Helvetica,sans-Serif" font-size="10.00">Validate::find_move</text>
</a>
</g>
</g>
<!-- Node8&#45;&gt;Node9 -->
<g id="edge9" class="edge">
<title>Node8&#45;&gt;Node9</title>
<path fill="none" stroke="midnightblue" d="M629.23,-124C640.84,-124 652.7,-124 664.02,-124"/>
<polygon fill="midnightblue" stroke="midnightblue" points="664.24,-127.5 674.24,-124 664.24,-120.5 664.24,-127.5"/>
</g>
</g>
</svg>
