<?xml version="1.0" encoding="UTF-8" standalone="no"?>
<!DOCTYPE svg PUBLIC "-//W3C//DTD SVG 1.1//EN"
 "http://www.w3.org/Graphics/SVG/1.1/DTD/svg11.dtd">
<!-- Generated by graphviz version 2.43.0 (0)
 -->
<!-- Title: Move::move_piece Pages: 1 -->
<svg width="1465pt" height="225pt"
 viewBox="0.00 0.00 1465.00 225.34" xmlns="http://www.w3.org/2000/svg" xmlns:xlink="http://www.w3.org/1999/xlink">
<g id="graph0" class="graph" transform="scale(1 1) rotate(0) translate(4 221.34)">
<title>Move::move_piece</title>
<polygon fill="white" stroke="transparent" points="-4,4 -4,-221.34 1461,-221.34 1461,4 -4,4"/>
<!-- Node1 -->
<g id="node1" class="node">
<title>Node1</title>
<g id="a_node1"><a xlink:title="Moves piece from start to end.">
<polygon fill="#bfbfbf" stroke="black" points="1348,-98.39 1348,-117.39 1457,-117.39 1457,-98.39 1348,-98.39"/>
<text text-anchor="middle" x="1402.5" y="-105.39" font-family="Helvetica,sans-Serif" font-size="10.00">Move::move_piece</text>
</a>
</g>
</g>
<!-- Node2 -->
<g id="node2" class="node">
<title>Node2</title>
<g id="a_node2"><a xlink:href="classMove.html#a5472b83ec6bcde0fd8c16c4508896ccd" target="_top" xlink:title="Handles casting.">
<polygon fill="white" stroke="black" points="1186,-155.39 1186,-174.39 1312,-174.39 1312,-155.39 1186,-155.39"/>
<text text-anchor="middle" x="1249" y="-162.39" font-family="Helvetica,sans-Serif" font-size="10.00">Move::handle_castling</text>
</a>
</g>
</g>
<!-- Node1&#45;&gt;Node2 -->
<g id="edge1" class="edge">
<title>Node1&#45;&gt;Node2</title>
<path fill="none" stroke="midnightblue" d="M1371.25,-121.66C1354.06,-129.25 1332.02,-138.59 1312,-145.89 1302.8,-149.24 1292.69,-152.51 1283.35,-155.36"/>
<polygon fill="midnightblue" stroke="midnightblue" points="1373.06,-124.68 1380.77,-117.42 1370.21,-118.29 1373.06,-124.68"/>
</g>
<!-- Node3 -->
<g id="node3" class="node">
<title>Node3</title>
<g id="a_node3"><a xlink:href="classMove.html#a3765dcce8a7c18e0c2f7ce42c98fa2ba" target="_top" xlink:title="Makes move with piece.">
<polygon fill="white" stroke="black" points="1040,-113.39 1040,-132.39 1150,-132.39 1150,-113.39 1040,-113.39"/>
<text text-anchor="middle" x="1095" y="-120.39" font-family="Helvetica,sans-Serif" font-size="10.00">Move::make_move</text>
</a>
</g>
</g>
<!-- Node1&#45;&gt;Node3 -->
<g id="edge23" class="edge">
<title>Node1&#45;&gt;Node3</title>
<path fill="none" stroke="midnightblue" d="M1337.79,-105.13C1294.83,-103.95 1236.91,-103.67 1186,-107.89 1172.42,-109.01 1157.81,-111.07 1144.39,-113.31"/>
<polygon fill="midnightblue" stroke="midnightblue" points="1337.72,-108.63 1347.82,-105.43 1337.93,-101.64 1337.72,-108.63"/>
</g>
<!-- Node21 -->
<g id="node21" class="node">
<title>Node21</title>
<g id="a_node21"><a xlink:href="classMove.html#a9a242db5d52827dd11f81a6aa46e339e" target="_top" xlink:title="Handles pawn promotion.">
<polygon fill="white" stroke="black" points="1199,-117.39 1199,-136.39 1299,-136.39 1299,-117.39 1199,-117.39"/>
<text text-anchor="middle" x="1249" y="-124.39" font-family="Helvetica,sans-Serif" font-size="10.00">Move::promotion</text>
</a>
</g>
</g>
<!-- Node1&#45;&gt;Node21 -->
<g id="edge24" class="edge">
<title>Node1&#45;&gt;Node21</title>
<path fill="none" stroke="midnightblue" d="M1337.49,-115.91C1324.65,-117.52 1311.36,-119.19 1299.12,-120.73"/>
<polygon fill="midnightblue" stroke="midnightblue" points="1338.17,-119.36 1347.66,-114.64 1337.3,-112.41 1338.17,-119.36"/>
</g>
<!-- Node22 -->
<g id="node22" class="node">
<title>Node22</title>
<g id="a_node22"><a xlink:href="classMove.html#afbed08d3294e3c7913dd27c3d6afd283" target="_top" xlink:title="Undo move.">
<polygon fill="white" stroke="black" points="1041.5,-57.39 1041.5,-76.39 1148.5,-76.39 1148.5,-57.39 1041.5,-57.39"/>
<text text-anchor="middle" x="1095" y="-64.39" font-family="Helvetica,sans-Serif" font-size="10.00">Move::undo_move</text>
</a>
</g>
</g>
<!-- Node1&#45;&gt;Node22 -->
<g id="edge26" class="edge">
<title>Node1&#45;&gt;Node22</title>
<path fill="none" stroke="midnightblue" d="M1337.77,-99.33C1281.76,-91.82 1201.2,-81.01 1148.73,-73.96"/>
<polygon fill="midnightblue" stroke="midnightblue" points="1337.56,-102.84 1347.94,-100.7 1338.49,-95.9 1337.56,-102.84"/>
</g>
<!-- Node2&#45;&gt;Node3 -->
<g id="edge2" class="edge">
<title>Node2&#45;&gt;Node3</title>
<path fill="none" stroke="midnightblue" d="M1203.85,-152.69C1180.53,-146.24 1152.33,-138.45 1130.62,-132.45"/>
<polygon fill="midnightblue" stroke="midnightblue" points="1202.94,-156.07 1213.51,-155.36 1204.8,-149.32 1202.94,-156.07"/>
</g>
<!-- Node4 -->
<g id="node4" class="node">
<title>Node4</title>
<g id="a_node4"><a xlink:href="classRules.html#a4ec21c1bd51c73135ed26eafa0da58d3" target="_top" xlink:title="Checks if king is in checkmate.">
<polygon fill="white" stroke="black" points="871.5,-65.39 871.5,-84.39 975.5,-84.39 975.5,-65.39 871.5,-65.39"/>
<text text-anchor="middle" x="923.5" y="-72.39" font-family="Helvetica,sans-Serif" font-size="10.00">Rules::checkmate</text>
</a>
</g>
</g>
<!-- Node3&#45;&gt;Node4 -->
<g id="edge3" class="edge">
<title>Node3&#45;&gt;Node4</title>
<path fill="none" stroke="midnightblue" d="M1056.6,-110.12C1040.5,-104.81 1021.41,-98.76 1004,-93.89 992.11,-90.56 979.12,-87.29 967.15,-84.44"/>
<polygon fill="midnightblue" stroke="midnightblue" points="1055.6,-113.48 1066.2,-113.31 1057.81,-106.84 1055.6,-113.48"/>
</g>
<!-- Node5 -->
<g id="node5" class="node">
<title>Node5</title>
<g id="a_node5"><a xlink:href="classApplication.html#a162a3f466352b474a10516c7f0b0ae9a" target="_top" xlink:title=" ">
<polygon fill="white" stroke="black" points="676,-65.39 676,-84.39 807,-84.39 807,-65.39 676,-65.39"/>
<text text-anchor="middle" x="741.5" y="-72.39" font-family="Helvetica,sans-Serif" font-size="10.00">Application::play_move</text>
</a>
</g>
</g>
<!-- Node3&#45;&gt;Node5 -->
<g id="edge18" class="edge">
<title>Node3&#45;&gt;Node5</title>
<path fill="none" stroke="midnightblue" d="M1078.64,-140.2C1062.16,-157.35 1034.25,-182.51 1004,-192.89 936.32,-216.11 902.03,-233.33 843,-192.89 806.44,-167.83 838.33,-131.23 807,-99.89 800.21,-93.09 791.36,-88.1 782.41,-84.45"/>
<polygon fill="midnightblue" stroke="midnightblue" points="1081.53,-142.23 1085.77,-132.52 1076.4,-137.47 1081.53,-142.23"/>
</g>
<!-- Node15 -->
<g id="node15" class="node">
<title>Node15</title>
<g id="a_node15"><a xlink:href="classMinimax.html#ad75b36d8718f9ad30bb921a483413b1f" target="_top" xlink:title="Minimax algorithm.">
<polygon fill="white" stroke="black" points="843,-27.39 843,-46.39 1004,-46.39 1004,-27.39 843,-27.39"/>
<text text-anchor="middle" x="923.5" y="-34.39" font-family="Helvetica,sans-Serif" font-size="10.00">Minimax::minimax_algorithm</text>
</a>
</g>
</g>
<!-- Node3&#45;&gt;Node15 -->
<g id="edge16" class="edge">
<title>Node3&#45;&gt;Node15</title>
<path fill="none" stroke="midnightblue" d="M1070.73,-107.64C1061.08,-101.14 1049.85,-93.34 1040,-85.89 1023.39,-73.32 1022.62,-65.22 1004,-55.89 996.26,-52.01 987.7,-48.9 979.14,-46.41"/>
<polygon fill="midnightblue" stroke="midnightblue" points="1068.81,-110.57 1079.07,-113.2 1072.69,-104.74 1068.81,-110.57"/>
</g>
<!-- Node17 -->
<g id="node17" class="node">
<title>Node17</title>
<g id="a_node17"><a xlink:href="classCustom__AI.html#a6d5240fd3f5919086dc0bb74aa02329a" target="_top" xlink:title="Counts all moves for all pieces.">
<polygon fill="white" stroke="black" points="865.5,-152.89 865.5,-182.89 981.5,-182.89 981.5,-152.89 865.5,-152.89"/>
<text text-anchor="start" x="873.5" y="-170.89" font-family="Helvetica,sans-Serif" font-size="10.00">Custom_AI::possible</text>
<text text-anchor="middle" x="923.5" y="-159.89" font-family="Helvetica,sans-Serif" font-size="10.00">_pieces_and_moves</text>
</a>
</g>
</g>
<!-- Node3&#45;&gt;Node17 -->
<g id="edge19" class="edge">
<title>Node3&#45;&gt;Node17</title>
<path fill="none" stroke="midnightblue" d="M1048.25,-135.03C1027.56,-140.53 1002.91,-147.07 981.07,-152.87"/>
<polygon fill="midnightblue" stroke="midnightblue" points="1049.29,-138.38 1058.05,-132.43 1047.49,-131.61 1049.29,-138.38"/>
</g>
<!-- Node19 -->
<g id="node19" class="node">
<title>Node19</title>
<g id="a_node19"><a xlink:href="classCustom__AI2.html#a7a3ac6cf87a8dd5c0ebabd4281bb6615" target="_top" xlink:title="Counts all moves for all pieces.">
<polygon fill="white" stroke="black" points="862.5,-103.89 862.5,-133.89 984.5,-133.89 984.5,-103.89 862.5,-103.89"/>
<text text-anchor="start" x="870.5" y="-121.89" font-family="Helvetica,sans-Serif" font-size="10.00">Custom_AI2::possible</text>
<text text-anchor="middle" x="923.5" y="-110.89" font-family="Helvetica,sans-Serif" font-size="10.00">_pieces_and_moves</text>
</a>
</g>
</g>
<!-- Node3&#45;&gt;Node19 -->
<g id="edge21" class="edge">
<title>Node3&#45;&gt;Node19</title>
<path fill="none" stroke="midnightblue" d="M1029.79,-121.37C1014.95,-121.02 999.21,-120.65 984.55,-120.3"/>
<polygon fill="midnightblue" stroke="midnightblue" points="1029.82,-124.87 1039.9,-121.61 1029.99,-117.87 1029.82,-124.87"/>
</g>
<!-- Node4&#45;&gt;Node5 -->
<g id="edge4" class="edge">
<title>Node4&#45;&gt;Node5</title>
<path fill="none" stroke="midnightblue" d="M861.35,-74.89C843.91,-74.89 824.87,-74.89 807.23,-74.89"/>
<polygon fill="midnightblue" stroke="midnightblue" points="861.4,-78.39 871.4,-74.89 861.4,-71.39 861.4,-78.39"/>
</g>
<!-- Node6 -->
<g id="node6" class="node">
<title>Node6</title>
<g id="a_node6"><a xlink:href="classApplication.html#a50559888cd4196c7cda01e0a432d609f" target="_top" xlink:title="Changes turn of game.">
<polygon fill="white" stroke="black" points="527,-59.89 527,-89.89 640,-89.89 640,-59.89 527,-59.89"/>
<text text-anchor="start" x="535" y="-77.89" font-family="Helvetica,sans-Serif" font-size="10.00">Application::change</text>
<text text-anchor="middle" x="583.5" y="-66.89" font-family="Helvetica,sans-Serif" font-size="10.00">_turns</text>
</a>
</g>
</g>
<!-- Node5&#45;&gt;Node6 -->
<g id="edge5" class="edge">
<title>Node5&#45;&gt;Node6</title>
<path fill="none" stroke="midnightblue" d="M665.46,-74.89C657.02,-74.89 648.54,-74.89 640.41,-74.89"/>
<polygon fill="midnightblue" stroke="midnightblue" points="665.7,-78.39 675.7,-74.89 665.7,-71.39 665.7,-78.39"/>
</g>
<!-- Node7 -->
<g id="node7" class="node">
<title>Node7</title>
<g id="a_node7"><a xlink:href="classApplication.html#aa0cd4150071d630bd7b1f067878f00cd" target="_top" xlink:title="Starts and handles game.">
<polygon fill="white" stroke="black" points="386,-65.39 386,-84.39 491,-84.39 491,-65.39 386,-65.39"/>
<text text-anchor="middle" x="438.5" y="-72.39" font-family="Helvetica,sans-Serif" font-size="10.00">Application::game</text>
</a>
</g>
</g>
<!-- Node6&#45;&gt;Node7 -->
<g id="edge6" class="edge">
<title>Node6&#45;&gt;Node7</title>
<path fill="none" stroke="midnightblue" d="M516.77,-74.89C508.15,-74.89 499.41,-74.89 491.07,-74.89"/>
<polygon fill="midnightblue" stroke="midnightblue" points="516.8,-78.39 526.8,-74.89 516.8,-71.39 516.8,-78.39"/>
</g>
<!-- Node8 -->
<g id="node8" class="node">
<title>Node8</title>
<g id="a_node8"><a xlink:href="classMenu.html#ac90e451d94eb82769cf58eea174667be" target="_top" xlink:title="Load game.">
<polygon fill="white" stroke="black" points="237,-122.39 237,-141.39 341,-141.39 341,-122.39 237,-122.39"/>
<text text-anchor="middle" x="289" y="-129.39" font-family="Helvetica,sans-Serif" font-size="10.00">Menu::load_game</text>
</a>
</g>
</g>
<!-- Node7&#45;&gt;Node8 -->
<g id="edge7" class="edge">
<title>Node7&#45;&gt;Node8</title>
<path fill="none" stroke="midnightblue" d="M407.93,-88.63C391.12,-96.22 369.58,-105.56 350,-112.89 341.1,-116.22 331.32,-119.48 322.28,-122.34"/>
<polygon fill="midnightblue" stroke="midnightblue" points="409.58,-91.73 417.24,-84.4 406.68,-85.35 409.58,-91.73"/>
</g>
<!-- Node11 -->
<g id="node11" class="node">
<title>Node11</title>
<g id="a_node11"><a xlink:href="classMenu.html#a196d4b882280b81c81409beb8a1a6780" target="_top" xlink:title="Starts game with AI.">
<polygon fill="white" stroke="black" points="229,-84.39 229,-103.39 349,-103.39 349,-84.39 229,-84.39"/>
<text text-anchor="middle" x="289" y="-91.39" font-family="Helvetica,sans-Serif" font-size="10.00">Menu::start_AI_game</text>
</a>
</g>
</g>
<!-- Node7&#45;&gt;Node11 -->
<g id="edge10" class="edge">
<title>Node7&#45;&gt;Node11</title>
<path fill="none" stroke="midnightblue" d="M375.72,-82.84C366.92,-83.98 357.88,-85.14 349.13,-86.27"/>
<polygon fill="midnightblue" stroke="midnightblue" points="376.44,-86.28 385.91,-81.53 375.55,-79.34 376.44,-86.28"/>
</g>
<!-- Node12 -->
<g id="node12" class="node">
<title>Node12</title>
<g id="a_node12"><a xlink:href="classMenu.html#a4e25526f20b92932d0adf9a489356dac" target="_top" xlink:title="Starts game with 2 human players.">
<polygon fill="white" stroke="black" points="236.5,-46.39 236.5,-65.39 341.5,-65.39 341.5,-46.39 236.5,-46.39"/>
<text text-anchor="middle" x="289" y="-53.39" font-family="Helvetica,sans-Serif" font-size="10.00">Menu::start_game</text>
</a>
</g>
</g>
<!-- Node7&#45;&gt;Node12 -->
<g id="edge12" class="edge">
<title>Node7&#45;&gt;Node12</title>
<path fill="none" stroke="midnightblue" d="M375.69,-66.93C364.42,-65.47 352.76,-63.97 341.81,-62.56"/>
<polygon fill="midnightblue" stroke="midnightblue" points="375.55,-70.43 385.91,-68.24 376.44,-63.49 375.55,-70.43"/>
</g>
<!-- Node13 -->
<g id="node13" class="node">
<title>Node13</title>
<g id="a_node13"><a xlink:href="classTutorial.html#ad4a5c074281c25791323e984dba390f2" target="_top" xlink:title="Start tutorial.">
<polygon fill="white" stroke="black" points="228,-8.39 228,-27.39 350,-27.39 350,-8.39 228,-8.39"/>
<text text-anchor="middle" x="289" y="-15.39" font-family="Helvetica,sans-Serif" font-size="10.00">Tutorial::start_tutorial</text>
</a>
</g>
</g>
<!-- Node7&#45;&gt;Node13 -->
<g id="edge14" class="edge">
<title>Node7&#45;&gt;Node13</title>
<path fill="none" stroke="midnightblue" d="M407.93,-61.14C391.12,-53.56 369.58,-44.22 350,-36.89 341.1,-33.55 331.32,-30.29 322.28,-27.44"/>
<polygon fill="midnightblue" stroke="midnightblue" points="406.68,-64.42 417.24,-65.38 409.58,-58.05 406.68,-64.42"/>
</g>
<!-- Node9 -->
<g id="node9" class="node">
<title>Node9</title>
<g id="a_node9"><a xlink:href="classMenu.html#a35656cd130e24d69383a5c9d0a73a38c" target="_top" xlink:title="Runs menu.">
<polygon fill="white" stroke="black" points="102,-84.39 102,-103.39 167,-103.39 167,-84.39 102,-84.39"/>
<text text-anchor="middle" x="134.5" y="-91.39" font-family="Helvetica,sans-Serif" font-size="10.00">Menu::run</text>
</a>
</g>
</g>
<!-- Node8&#45;&gt;Node9 -->
<g id="edge8" class="edge">
<title>Node8&#45;&gt;Node9</title>
<path fill="none" stroke="midnightblue" d="M239.67,-119.84C216.02,-113.95 188.22,-107.02 167.28,-101.81"/>
<polygon fill="midnightblue" stroke="midnightblue" points="238.97,-123.28 249.52,-122.3 240.66,-116.48 238.97,-123.28"/>
</g>
<!-- Node10 -->
<g id="node10" class="node">
<title>Node10</title>
<g id="a_node10"><a xlink:href="main_8cpp.html#ae66f6b31b5ad750f1fe042a706a4e3d4" target="_top" xlink:title=" ">
<polygon fill="white" stroke="black" points="0,-84.39 0,-103.39 41,-103.39 41,-84.39 0,-84.39"/>
<text text-anchor="middle" x="20.5" y="-91.39" font-family="Helvetica,sans-Serif" font-size="10.00">main</text>
</a>
</g>
</g>
<!-- Node9&#45;&gt;Node10 -->
<g id="edge9" class="edge">
<title>Node9&#45;&gt;Node10</title>
<path fill="none" stroke="midnightblue" d="M91.27,-93.89C74.01,-93.89 54.9,-93.89 41.05,-93.89"/>
<polygon fill="midnightblue" stroke="midnightblue" points="91.7,-97.39 101.7,-93.89 91.7,-90.39 91.7,-97.39"/>
</g>
<!-- Node11&#45;&gt;Node9 -->
<g id="edge11" class="edge">
<title>Node11&#45;&gt;Node9</title>
<path fill="none" stroke="midnightblue" d="M218.2,-93.89C200.38,-93.89 182.1,-93.89 167.26,-93.89"/>
<polygon fill="midnightblue" stroke="midnightblue" points="218.6,-97.39 228.6,-93.89 218.6,-90.39 218.6,-97.39"/>
</g>
<!-- Node12&#45;&gt;Node9 -->
<g id="edge13" class="edge">
<title>Node12&#45;&gt;Node9</title>
<path fill="none" stroke="midnightblue" d="M239.67,-67.93C216.02,-73.82 188.22,-80.75 167.28,-85.97"/>
<polygon fill="midnightblue" stroke="midnightblue" points="240.66,-71.29 249.52,-65.48 238.97,-64.5 240.66,-71.29"/>
</g>
<!-- Node14 -->
<g id="node14" class="node">
<title>Node14</title>
<g id="a_node14"><a xlink:href="classTutorial.html#a42acfd364d5d606318eda4b733c973da" target="_top" xlink:title="Runs tutorial.">
<polygon fill="white" stroke="black" points="77,-8.39 77,-27.39 192,-27.39 192,-8.39 77,-8.39"/>
<text text-anchor="middle" x="134.5" y="-15.39" font-family="Helvetica,sans-Serif" font-size="10.00">Tutorial::run_tutorial</text>
</a>
</g>
</g>
<!-- Node13&#45;&gt;Node14 -->
<g id="edge15" class="edge">
<title>Node13&#45;&gt;Node14</title>
<path fill="none" stroke="midnightblue" d="M217.52,-17.89C209.09,-17.89 200.56,-17.89 192.35,-17.89"/>
<polygon fill="midnightblue" stroke="midnightblue" points="217.73,-21.39 227.73,-17.89 217.73,-14.39 217.73,-21.39"/>
</g>
<!-- Node16 -->
<g id="node16" class="node">
<title>Node16</title>
<g id="a_node16"><a xlink:href="classMinimax.html#af45948f65043449d3c4cfb6c4bbf8251" target="_top" xlink:title="Gets player&#39;s move.">
<polygon fill="white" stroke="black" points="684.5,-27.39 684.5,-46.39 798.5,-46.39 798.5,-27.39 684.5,-27.39"/>
<text text-anchor="middle" x="741.5" y="-34.39" font-family="Helvetica,sans-Serif" font-size="10.00">Minimax::get_move</text>
</a>
</g>
</g>
<!-- Node15&#45;&gt;Node16 -->
<g id="edge17" class="edge">
<title>Node15&#45;&gt;Node16</title>
<path fill="none" stroke="midnightblue" d="M832.63,-36.89C821.07,-36.89 809.51,-36.89 798.7,-36.89"/>
<polygon fill="midnightblue" stroke="midnightblue" points="832.76,-40.39 842.76,-36.89 832.76,-33.39 832.76,-40.39"/>
</g>
<!-- Node18 -->
<g id="node18" class="node">
<title>Node18</title>
<g id="a_node18"><a xlink:href="classCustom__AI.html#a29f2c8e38303a9c721307e87d3f385ff" target="_top" xlink:title="Gets player&#39;s move.">
<polygon fill="white" stroke="black" points="679.5,-158.39 679.5,-177.39 803.5,-177.39 803.5,-158.39 679.5,-158.39"/>
<text text-anchor="middle" x="741.5" y="-165.39" font-family="Helvetica,sans-Serif" font-size="10.00">Custom_AI::get_move</text>
</a>
</g>
</g>
<!-- Node17&#45;&gt;Node18 -->
<g id="edge20" class="edge">
<title>Node17&#45;&gt;Node18</title>
<path fill="none" stroke="midnightblue" d="M854.78,-167.89C838.03,-167.89 820.18,-167.89 803.75,-167.89"/>
<polygon fill="midnightblue" stroke="midnightblue" points="855.05,-171.39 865.05,-167.89 855.05,-164.39 855.05,-171.39"/>
</g>
<!-- Node20 -->
<g id="node20" class="node">
<title>Node20</title>
<g id="a_node20"><a xlink:href="classCustom__AI2.html#ac5acf2591290121ce91b25c97a6ff96c" target="_top" xlink:title="Gets player&#39;s move.">
<polygon fill="white" stroke="black" points="676.5,-109.39 676.5,-128.39 806.5,-128.39 806.5,-109.39 676.5,-109.39"/>
<text text-anchor="middle" x="741.5" y="-116.39" font-family="Helvetica,sans-Serif" font-size="10.00">Custom_AI2::get_move</text>
</a>
</g>
</g>
<!-- Node19&#45;&gt;Node20 -->
<g id="edge22" class="edge">
<title>Node19&#45;&gt;Node20</title>
<path fill="none" stroke="midnightblue" d="M852.09,-118.89C837.11,-118.89 821.37,-118.89 806.64,-118.89"/>
<polygon fill="midnightblue" stroke="midnightblue" points="852.31,-122.39 862.31,-118.89 852.31,-115.39 852.31,-122.39"/>
</g>
<!-- Node21&#45;&gt;Node3 -->
<g id="edge25" class="edge">
<title>Node21&#45;&gt;Node3</title>
<path fill="none" stroke="midnightblue" d="M1188.63,-125.32C1175.93,-124.99 1162.58,-124.64 1150.09,-124.31"/>
<polygon fill="midnightblue" stroke="midnightblue" points="1188.56,-128.82 1198.65,-125.59 1188.75,-121.83 1188.56,-128.82"/>
</g>
<!-- Node22&#45;&gt;Node4 -->
<g id="edge27" class="edge">
<title>Node22&#45;&gt;Node4</title>
<path fill="none" stroke="midnightblue" d="M1031.3,-69.85C1013,-70.71 993.22,-71.64 975.72,-72.47"/>
<polygon fill="midnightblue" stroke="midnightblue" points="1031.47,-73.34 1041.3,-69.37 1031.14,-66.35 1031.47,-73.34"/>
</g>
<!-- Node22&#45;&gt;Node5 -->
<g id="edge29" class="edge">
<title>Node22&#45;&gt;Node5</title>
<path fill="none" stroke="midnightblue" d="M1073.15,-51.59C1055.67,-39.78 1029.55,-24.39 1004,-17.89 934.66,-0.23 908.73,10.39 843,-17.89 821.63,-27.08 826.84,-43.74 807,-55.89 800.73,-59.73 793.64,-62.83 786.51,-65.32"/>
<polygon fill="midnightblue" stroke="midnightblue" points="1071.24,-54.53 1081.45,-57.38 1075.24,-48.79 1071.24,-54.53"/>
</g>
<!-- Node22&#45;&gt;Node15 -->
<g id="edge28" class="edge">
<title>Node22&#45;&gt;Node15</title>
<path fill="none" stroke="midnightblue" d="M1031.24,-55.78C1013.86,-52.7 995.16,-49.39 978.34,-46.42"/>
<polygon fill="midnightblue" stroke="midnightblue" points="1030.84,-59.26 1041.3,-57.56 1032.06,-52.37 1030.84,-59.26"/>
</g>
<!-- Node22&#45;&gt;Node17 -->
<g id="edge30" class="edge">
<title>Node22&#45;&gt;Node17</title>
<path fill="none" stroke="midnightblue" d="M1069.06,-82.19C1059.59,-88.45 1048.94,-96.06 1040,-103.89 1022.01,-119.65 1024.19,-131.07 1004,-143.89 997.18,-148.21 989.55,-151.8 981.77,-154.75"/>
<polygon fill="midnightblue" stroke="midnightblue" points="1071.16,-84.99 1077.68,-76.64 1067.37,-79.11 1071.16,-84.99"/>
</g>
<!-- Node22&#45;&gt;Node19 -->
<g id="edge31" class="edge">
<title>Node22&#45;&gt;Node19</title>
<path fill="none" stroke="midnightblue" d="M1053.1,-79.43C1029.2,-86.77 998.89,-96.07 973.69,-103.79"/>
<polygon fill="midnightblue" stroke="midnightblue" points="1054.38,-82.7 1062.91,-76.42 1052.32,-76.01 1054.38,-82.7"/>
</g>
</g>
</svg>
