<?xml version="1.0" encoding="UTF-8" standalone="no"?>
<!DOCTYPE svg PUBLIC "-//W3C//DTD SVG 1.1//EN"
 "http://www.w3.org/Graphics/SVG/1.1/DTD/svg11.dtd">
<!-- Generated by graphviz version 2.43.0 (0)
 -->
<!-- Title: Move::make_move Pages: 1 -->
<svg width="440pt" height="164pt"
 viewBox="0.00 0.00 440.00 163.96" xmlns="http://www.w3.org/2000/svg" xmlns:xlink="http://www.w3.org/1999/xlink">
<g id="graph0" class="graph" transform="scale(1 1) rotate(0) translate(4 159.96)">
<title>Move::make_move</title>
<polygon fill="white" stroke="transparent" points="-4,4 -4,-159.96 436,-159.96 436,4 -4,4"/>
<!-- Node1 -->
<g id="node1" class="node">
<title>Node1</title>
<g id="a_node1"><a xlink:title="Makes move with piece.">
<polygon fill="#bfbfbf" stroke="black" points="0,-60.46 0,-79.46 110,-79.46 110,-60.46 0,-60.46"/>
<text text-anchor="middle" x="55" y="-67.46" font-family="Helvetica,sans-Serif" font-size="10.00">Move::make_move</text>
</a>
</g>
</g>
<!-- Node2 -->
<g id="node2" class="node">
<title>Node2</title>
<g id="a_node2"><a xlink:href="classPlayer.html#a42e54e616455af5d9d4b6dea514ba7a0" target="_top" xlink:title="Checks player&#39;s pawn promotion.">
<polygon fill="white" stroke="black" points="146.5,-136.46 146.5,-155.46 271.5,-155.46 271.5,-136.46 146.5,-136.46"/>
<text text-anchor="middle" x="209" y="-143.46" font-family="Helvetica,sans-Serif" font-size="10.00">Player::get_promotion</text>
</a>
</g>
</g>
<!-- Node1&#45;&gt;Node2 -->
<g id="edge1" class="edge">
<title>Node1&#45;&gt;Node2</title>
<path fill="none" stroke="midnightblue" d="M68.79,-79.62C85.69,-92.01 116.76,-113.52 146,-126.96 150.92,-129.22 156.19,-131.31 161.49,-133.2"/>
<polygon fill="midnightblue" stroke="midnightblue" points="160.41,-136.53 171,-136.39 162.64,-129.89 160.41,-136.53"/>
</g>
<!-- Node3 -->
<g id="node3" class="node">
<title>Node3</title>
<g id="a_node3"><a xlink:href="classMove.html#a5472b83ec6bcde0fd8c16c4508896ccd" target="_top" xlink:title="Handles casting.">
<polygon fill="white" stroke="black" points="146,-98.46 146,-117.46 272,-117.46 272,-98.46 146,-98.46"/>
<text text-anchor="middle" x="209" y="-105.46" font-family="Helvetica,sans-Serif" font-size="10.00">Move::handle_castling</text>
</a>
</g>
</g>
<!-- Node1&#45;&gt;Node3 -->
<g id="edge2" class="edge">
<title>Node1&#45;&gt;Node3</title>
<path fill="none" stroke="midnightblue" d="M94.36,-79.55C114.32,-84.54 138.93,-90.69 160.13,-95.99"/>
<polygon fill="midnightblue" stroke="midnightblue" points="159.37,-99.41 169.92,-98.44 161.07,-92.62 159.37,-99.41"/>
</g>
<!-- Node4 -->
<g id="node4" class="node">
<title>Node4</title>
<g id="a_node4"><a xlink:href="classMove.html#a5a18864c15112c49e5a93dbee3f83d1c" target="_top" xlink:title="Moves piece from start to end.">
<polygon fill="white" stroke="black" points="315.5,-60.46 315.5,-79.46 424.5,-79.46 424.5,-60.46 315.5,-60.46"/>
<text text-anchor="middle" x="370" y="-67.46" font-family="Helvetica,sans-Serif" font-size="10.00">Move::move_piece</text>
</a>
</g>
</g>
<!-- Node1&#45;&gt;Node4 -->
<g id="edge4" class="edge">
<title>Node1&#45;&gt;Node4</title>
<path fill="none" stroke="midnightblue" d="M110.16,-69.96C164.47,-69.96 248.05,-69.96 305.45,-69.96"/>
<polygon fill="midnightblue" stroke="midnightblue" points="305.5,-73.46 315.5,-69.96 305.5,-66.46 305.5,-73.46"/>
</g>
<!-- Node5 -->
<g id="node5" class="node">
<title>Node5</title>
<g id="a_node5"><a xlink:href="classMove.html#a9a242db5d52827dd11f81a6aa46e339e" target="_top" xlink:title="Handles pawn promotion.">
<polygon fill="white" stroke="black" points="159,-22.46 159,-41.46 259,-41.46 259,-22.46 159,-22.46"/>
<text text-anchor="middle" x="209" y="-29.46" font-family="Helvetica,sans-Serif" font-size="10.00">Move::promotion</text>
</a>
</g>
</g>
<!-- Node1&#45;&gt;Node5 -->
<g id="edge5" class="edge">
<title>Node1&#45;&gt;Node5</title>
<path fill="none" stroke="midnightblue" d="M94.36,-60.37C114.32,-55.38 138.93,-49.23 160.13,-43.93"/>
<polygon fill="midnightblue" stroke="midnightblue" points="161.07,-47.3 169.92,-41.48 159.37,-40.51 161.07,-47.3"/>
</g>
<!-- Node6 -->
<g id="node6" class="node">
<title>Node6</title>
<g id="a_node6"><a xlink:href="classPlayer.html#a620bf4cb1907eafdbcd9252a750ffa8f" target="_top" xlink:title="Update piece&#39;s position on chess board.">
<polygon fill="white" stroke="black" points="308,-3.46 308,-22.46 432,-22.46 432,-3.46 308,-3.46"/>
<text text-anchor="middle" x="370" y="-10.46" font-family="Helvetica,sans-Serif" font-size="10.00">Player::update_pieces</text>
</a>
</g>
</g>
<!-- Node1&#45;&gt;Node6 -->
<g id="edge8" class="edge">
<title>Node1&#45;&gt;Node6</title>
<path fill="none" stroke="midnightblue" d="M66.63,-60.32C82.52,-46.65 114.03,-22.23 146,-12.96 195.16,1.3 253.01,0.83 297.48,-2.96"/>
<polygon fill="midnightblue" stroke="midnightblue" points="297.33,-6.46 307.61,-3.9 297.98,0.51 297.33,-6.46"/>
</g>
<!-- Node3&#45;&gt;Node4 -->
<g id="edge3" class="edge">
<title>Node3&#45;&gt;Node4</title>
<path fill="none" stroke="midnightblue" d="M250.12,-98.37C271.1,-93.36 296.98,-87.17 319.23,-81.85"/>
<polygon fill="midnightblue" stroke="midnightblue" points="320.25,-85.21 329.17,-79.48 318.63,-78.4 320.25,-85.21"/>
</g>
<!-- Node5&#45;&gt;Node4 -->
<g id="edge6" class="edge">
<title>Node5&#45;&gt;Node4</title>
<path fill="none" stroke="midnightblue" d="M250.12,-41.55C271.1,-46.56 296.98,-52.75 319.23,-58.06"/>
<polygon fill="midnightblue" stroke="midnightblue" points="318.63,-61.52 329.17,-60.44 320.25,-54.71 318.63,-61.52"/>
</g>
<!-- Node5&#45;&gt;Node6 -->
<g id="edge7" class="edge">
<title>Node5&#45;&gt;Node6</title>
<path fill="none" stroke="midnightblue" d="M259,-26.1C271.29,-24.64 284.72,-23.03 297.85,-21.46"/>
<polygon fill="midnightblue" stroke="midnightblue" points="298.29,-24.93 307.81,-20.27 297.46,-17.98 298.29,-24.93"/>
</g>
</g>
</svg>
