<?xml version="1.0" encoding="UTF-8" standalone="no"?>
<!DOCTYPE svg PUBLIC "-//W3C//DTD SVG 1.1//EN"
 "http://www.w3.org/Graphics/SVG/1.1/DTD/svg11.dtd">
<!-- Generated by graphviz version 2.43.0 (0)
 -->
<!-- Title: Player Pages: 1 -->
<svg width="348pt" height="84pt"
 viewBox="0.00 0.00 348.00 84.00" xmlns="http://www.w3.org/2000/svg" xmlns:xlink="http://www.w3.org/1999/xlink">
<g id="graph0" class="graph" transform="scale(1 1) rotate(0) translate(4 80)">
<title>Player</title>
<polygon fill="white" stroke="transparent" points="-4,4 -4,-80 344,-80 344,4 -4,4"/>
<!-- Node1 -->
<g id="node1" class="node">
<title>Node1</title>
<g id="a_node1"><a xlink:title="Abstract class for player.">
<polygon fill="#bfbfbf" stroke="black" points="149,-56.5 149,-75.5 196,-75.5 196,-56.5 149,-56.5"/>
<text text-anchor="middle" x="172.5" y="-63.5" font-family="Helvetica,sans-Serif" font-size="10.00">Player</text>
</a>
</g>
</g>
<!-- Node2 -->
<g id="node2" class="node">
<title>Node2</title>
<g id="a_node2"><a xlink:href="classCustom__AI.html" target="_top" xlink:title="Represents Custom AI.">
<polygon fill="white" stroke="black" points="0,-0.5 0,-19.5 69,-19.5 69,-0.5 0,-0.5"/>
<text text-anchor="middle" x="34.5" y="-7.5" font-family="Helvetica,sans-Serif" font-size="10.00">Custom_AI</text>
</a>
</g>
</g>
<!-- Node1&#45;&gt;Node2 -->
<g id="edge1" class="edge">
<title>Node1&#45;&gt;Node2</title>
<path fill="none" stroke="midnightblue" d="M141.25,-52.77C115.33,-42.63 79.14,-28.47 56.26,-19.52"/>
<polygon fill="midnightblue" stroke="midnightblue" points="140.05,-56.06 150.63,-56.44 142.6,-49.54 140.05,-56.06"/>
</g>
<!-- Node3 -->
<g id="node3" class="node">
<title>Node3</title>
<g id="a_node3"><a xlink:href="classCustom__AI2.html" target="_top" xlink:title="Represents Custom AI2.">
<polygon fill="white" stroke="black" points="87,-0.5 87,-19.5 162,-19.5 162,-0.5 87,-0.5"/>
<text text-anchor="middle" x="124.5" y="-7.5" font-family="Helvetica,sans-Serif" font-size="10.00">Custom_AI2</text>
</a>
</g>
</g>
<!-- Node1&#45;&gt;Node3 -->
<g id="edge2" class="edge">
<title>Node1&#45;&gt;Node3</title>
<path fill="none" stroke="midnightblue" d="M157.77,-48.43C149.36,-38.97 139.15,-27.48 132.28,-19.75"/>
<polygon fill="midnightblue" stroke="midnightblue" points="155.31,-50.93 164.57,-56.08 160.55,-46.28 155.31,-50.93"/>
</g>
<!-- Node4 -->
<g id="node4" class="node">
<title>Node4</title>
<g id="a_node4"><a xlink:href="classHumanPlayer.html" target="_top" xlink:title="Represents human player.">
<polygon fill="white" stroke="black" points="180,-0.5 180,-19.5 263,-19.5 263,-0.5 180,-0.5"/>
<text text-anchor="middle" x="221.5" y="-7.5" font-family="Helvetica,sans-Serif" font-size="10.00">HumanPlayer</text>
</a>
</g>
</g>
<!-- Node1&#45;&gt;Node4 -->
<g id="edge3" class="edge">
<title>Node1&#45;&gt;Node4</title>
<path fill="none" stroke="midnightblue" d="M187.53,-48.43C196.12,-38.97 206.54,-27.48 213.56,-19.75"/>
<polygon fill="midnightblue" stroke="midnightblue" points="184.72,-46.33 180.59,-56.08 189.9,-51.03 184.72,-46.33"/>
</g>
<!-- Node5 -->
<g id="node5" class="node">
<title>Node5</title>
<g id="a_node5"><a xlink:href="classMinimax.html" target="_top" xlink:title="Represents MINIMAX.">
<polygon fill="white" stroke="black" points="281,-0.5 281,-19.5 340,-19.5 340,-0.5 281,-0.5"/>
<text text-anchor="middle" x="310.5" y="-7.5" font-family="Helvetica,sans-Serif" font-size="10.00">Minimax</text>
</a>
</g>
</g>
<!-- Node1&#45;&gt;Node5 -->
<g id="edge4" class="edge">
<title>Node1&#45;&gt;Node5</title>
<path fill="none" stroke="midnightblue" d="M203.75,-52.77C229.67,-42.63 265.86,-28.47 288.74,-19.52"/>
<polygon fill="midnightblue" stroke="midnightblue" points="202.4,-49.54 194.37,-56.44 204.95,-56.06 202.4,-49.54"/>
</g>
</g>
</svg>
