<?xml version="1.0" encoding="UTF-8" standalone="no"?>
<!DOCTYPE svg PUBLIC "-//W3C//DTD SVG 1.1//EN"
 "http://www.w3.org/Graphics/SVG/1.1/DTD/svg11.dtd">
<!-- Generated by graphviz version 2.43.0 (0)
 -->
<!-- Title: HumanPlayer Pages: 1 -->
<svg width="91pt" height="174pt"
 viewBox="0.00 0.00 91.00 174.00" xmlns="http://www.w3.org/2000/svg" xmlns:xlink="http://www.w3.org/1999/xlink">
<g id="graph0" class="graph" transform="scale(1 1) rotate(0) translate(4 170)">
<title>HumanPlayer</title>
<polygon fill="white" stroke="transparent" points="-4,4 -4,-170 87,-170 87,4 -4,4"/>
<!-- Node1 -->
<g id="node1" class="node">
<title>Node1</title>
<g id="a_node1"><a xlink:title="Represents human player.">
<polygon fill="#bfbfbf" stroke="black" points="0,-0.5 0,-19.5 83,-19.5 83,-0.5 0,-0.5"/>
<text text-anchor="middle" x="41.5" y="-7.5" font-family="Helvetica,sans-Serif" font-size="10.00">HumanPlayer</text>
</a>
</g>
</g>
<!-- Node2 -->
<g id="node2" class="node">
<title>Node2</title>
<g id="a_node2"><a xlink:href="classPlayer.html" target="_top" xlink:title="Abstract class for player.">
<polygon fill="white" stroke="black" points="18,-57.5 18,-76.5 65,-76.5 65,-57.5 18,-57.5"/>
<text text-anchor="middle" x="41.5" y="-64.5" font-family="Helvetica,sans-Serif" font-size="10.00">Player</text>
</a>
</g>
</g>
<!-- Node2&#45;&gt;Node1 -->
<g id="edge1" class="edge">
<title>Node2&#45;&gt;Node1</title>
<path fill="none" stroke="midnightblue" d="M41.5,-47.12C41.5,-37.82 41.5,-27.06 41.5,-19.71"/>
<polygon fill="midnightblue" stroke="midnightblue" points="38,-47.41 41.5,-57.41 45,-47.41 38,-47.41"/>
</g>
<!-- Node3 -->
<g id="node3" class="node">
<title>Node3</title>
<g id="a_node3"><a xlink:href="structPosition.html" target="_top" xlink:title=" ">
<polygon fill="white" stroke="black" points="13.5,-146.5 13.5,-165.5 69.5,-165.5 69.5,-146.5 13.5,-146.5"/>
<text text-anchor="middle" x="41.5" y="-153.5" font-family="Helvetica,sans-Serif" font-size="10.00">Position</text>
</a>
</g>
</g>
<!-- Node3&#45;&gt;Node2 -->
<g id="edge2" class="edge">
<title>Node3&#45;&gt;Node2</title>
<path fill="none" stroke="#9a32cd" stroke-dasharray="5,2" d="M41.5,-136.19C41.5,-117.74 41.5,-90.41 41.5,-76.62"/>
<polygon fill="#9a32cd" stroke="#9a32cd" points="38,-136.34 41.5,-146.34 45,-136.34 38,-136.34"/>
<text text-anchor="middle" x="55.5" y="-120" font-family="Helvetica,sans-Serif" font-size="10.00"> end_</text>
<text text-anchor="middle" x="55.5" y="-109" font-family="Helvetica,sans-Serif" font-size="10.00">king_</text>
<text text-anchor="middle" x="55.5" y="-98" font-family="Helvetica,sans-Serif" font-size="10.00">start_</text>
</g>
</g>
</svg>
