<?xml version="1.0" encoding="UTF-8" standalone="no"?>
<!DOCTYPE svg PUBLIC "-//W3C//DTD SVG 1.1//EN"
 "http://www.w3.org/Graphics/SVG/1.1/DTD/svg11.dtd">
<!-- Generated by graphviz version 2.43.0 (0)
 -->
<!-- Title: FEN::read_FEN Pages: 1 -->
<svg width="432pt" height="160pt"
 viewBox="0.00 0.00 432.00 159.50" xmlns="http://www.w3.org/2000/svg" xmlns:xlink="http://www.w3.org/1999/xlink">
<g id="graph0" class="graph" transform="scale(1 1) rotate(0) translate(4 155.5)">
<title>FEN::read_FEN</title>
<polygon fill="white" stroke="transparent" points="-4,4 -4,-155.5 428,-155.5 428,4 -4,4"/>
<!-- Node1 -->
<g id="node1" class="node">
<title>Node1</title>
<g id="a_node1"><a xlink:title="Reads FEN notation.">
<polygon fill="#bfbfbf" stroke="black" points="0,-66 0,-85 89,-85 89,-66 0,-66"/>
<text text-anchor="middle" x="44.5" y="-73" font-family="Helvetica,sans-Serif" font-size="10.00">FEN::read_FEN</text>
</a>
</g>
</g>
<!-- Node2 -->
<g id="node2" class="node">
<title>Node2</title>
<g id="a_node2"><a xlink:href="classInput__handler.html#aeee21ed8a9cdd37b4f39c530e7d2ca15" target="_top" xlink:title="Checks if char is &lt;0, 8&gt;">
<polygon fill="white" stroke="black" points="129.5,-132 129.5,-151 266.5,-151 266.5,-132 129.5,-132"/>
<text text-anchor="middle" x="198" y="-139" font-family="Helvetica,sans-Serif" font-size="10.00">Input_handler::check_col</text>
</a>
</g>
</g>
<!-- Node1&#45;&gt;Node2 -->
<g id="edge1" class="edge">
<title>Node1&#45;&gt;Node2</title>
<path fill="none" stroke="midnightblue" d="M58.96,-85.04C74.31,-95.52 100.44,-112.23 125,-122.5 130.79,-124.92 136.98,-127.11 143.2,-129.06"/>
<polygon fill="midnightblue" stroke="midnightblue" points="142.37,-132.47 152.95,-131.94 144.35,-125.75 142.37,-132.47"/>
</g>
<!-- Node3 -->
<g id="node3" class="node">
<title>Node3</title>
<g id="a_node3"><a xlink:href="classInput__handler.html#ae6cc6114be79e000f8a6f7156198e0f4" target="_top" xlink:title="Converts char to int.">
<polygon fill="white" stroke="black" points="125,-82.5 125,-112.5 271,-112.5 271,-82.5 125,-82.5"/>
<text text-anchor="start" x="133" y="-100.5" font-family="Helvetica,sans-Serif" font-size="10.00">Input_handler::coordinates</text>
<text text-anchor="middle" x="198" y="-89.5" font-family="Helvetica,sans-Serif" font-size="10.00">_to_int</text>
</a>
</g>
</g>
<!-- Node1&#45;&gt;Node3 -->
<g id="edge2" class="edge">
<title>Node1&#45;&gt;Node3</title>
<path fill="none" stroke="midnightblue" d="M89.32,-81.86C97.38,-83.03 106.04,-84.29 114.81,-85.56"/>
<polygon fill="midnightblue" stroke="midnightblue" points="114.34,-89.03 124.74,-87.01 115.34,-82.11 114.34,-89.03"/>
</g>
<!-- Node4 -->
<g id="node4" class="node">
<title>Node4</title>
<g id="a_node4"><a xlink:href="classFEN.html#ad13a4a36c9bebfaf47e275bfe1ee9084" target="_top" xlink:title="Corrects FEN pieces.">
<polygon fill="white" stroke="black" points="129.5,-44 129.5,-63 266.5,-63 266.5,-44 129.5,-44"/>
<text text-anchor="middle" x="198" y="-51" font-family="Helvetica,sans-Serif" font-size="10.00">FEN::correct_FEN_pieces</text>
</a>
</g>
</g>
<!-- Node1&#45;&gt;Node4 -->
<g id="edge3" class="edge">
<title>Node1&#45;&gt;Node4</title>
<path fill="none" stroke="midnightblue" d="M89.32,-69.14C99.42,-67.67 110.45,-66.07 121.48,-64.47"/>
<polygon fill="midnightblue" stroke="midnightblue" points="122.18,-67.9 131.57,-63 121.17,-60.97 122.18,-67.9"/>
</g>
<!-- Node5 -->
<g id="node5" class="node">
<title>Node5</title>
<g id="a_node5"><a xlink:href="classFEN.html#a4ce3e20e91398d07dc96524af182e034" target="_top" xlink:title="Fills chess pieces into board.">
<polygon fill="white" stroke="black" points="152.5,-6 152.5,-25 243.5,-25 243.5,-6 152.5,-6"/>
<text text-anchor="middle" x="198" y="-13" font-family="Helvetica,sans-Serif" font-size="10.00">FEN::fill_pieces</text>
</a>
</g>
</g>
<!-- Node1&#45;&gt;Node5 -->
<g id="edge4" class="edge">
<title>Node1&#45;&gt;Node5</title>
<path fill="none" stroke="midnightblue" d="M61.46,-65.95C77.18,-56.86 102.1,-43.31 125,-34.5 131.32,-32.07 138.08,-29.84 144.82,-27.82"/>
<polygon fill="midnightblue" stroke="midnightblue" points="145.97,-31.13 154.63,-25.03 144.05,-24.4 145.97,-31.13"/>
</g>
<!-- Node6 -->
<g id="node6" class="node">
<title>Node6</title>
<g id="a_node6"><a xlink:href="classFEN.html#addf59b1321695a3fe9c8588df468954a" target="_top" xlink:title="Place pieces on chess board.">
<polygon fill="white" stroke="black" points="307,-0.5 307,-30.5 424,-30.5 424,-0.5 307,-0.5"/>
<text text-anchor="start" x="315" y="-18.5" font-family="Helvetica,sans-Serif" font-size="10.00">FEN::place_piece_on</text>
<text text-anchor="middle" x="365.5" y="-7.5" font-family="Helvetica,sans-Serif" font-size="10.00">_board</text>
</a>
</g>
</g>
<!-- Node5&#45;&gt;Node6 -->
<g id="edge5" class="edge">
<title>Node5&#45;&gt;Node6</title>
<path fill="none" stroke="midnightblue" d="M243.79,-15.5C260.03,-15.5 278.77,-15.5 296.56,-15.5"/>
<polygon fill="midnightblue" stroke="midnightblue" points="296.9,-19 306.9,-15.5 296.9,-12 296.9,-19"/>
</g>
</g>
</svg>
