<?xml version="1.0" encoding="UTF-8" standalone="no"?>
<!DOCTYPE svg PUBLIC "-//W3C//DTD SVG 1.1//EN"
 "http://www.w3.org/Graphics/SVG/1.1/DTD/svg11.dtd">
<!-- Generated by graphviz version 2.43.0 (0)
 -->
<!-- Title: Bishop::possible_moves Pages: 1 -->
<svg width="295pt" height="104pt"
 viewBox="0.00 0.00 295.00 104.00" xmlns="http://www.w3.org/2000/svg" xmlns:xlink="http://www.w3.org/1999/xlink">
<g id="graph0" class="graph" transform="scale(1 1) rotate(0) translate(4 100)">
<title>Bishop::possible_moves</title>
<polygon fill="white" stroke="transparent" points="-4,4 -4,-100 291,-100 291,4 -4,4"/>
<!-- Node1 -->
<g id="node1" class="node">
<title>Node1</title>
<g id="a_node1"><a xlink:title="Find all possible move based on piece type.">
<polygon fill="#bfbfbf" stroke="black" points="0,-38.5 0,-57.5 134,-57.5 134,-38.5 0,-38.5"/>
<text text-anchor="middle" x="67" y="-45.5" font-family="Helvetica,sans-Serif" font-size="10.00">Bishop::possible_moves</text>
</a>
</g>
</g>
<!-- Node2 -->
<g id="node2" class="node">
<title>Node2</title>
<g id="a_node2"><a xlink:href="classPiece.html#a19446ccc1dce47aa1c77733242657f25" target="_top" xlink:title="Adds move to possible moves.">
<polygon fill="white" stroke="black" points="178.5,-76.5 178.5,-95.5 278.5,-95.5 278.5,-76.5 178.5,-76.5"/>
<text text-anchor="middle" x="228.5" y="-83.5" font-family="Helvetica,sans-Serif" font-size="10.00">Piece::add_move</text>
</a>
</g>
</g>
<!-- Node1&#45;&gt;Node2 -->
<g id="edge1" class="edge">
<title>Node1&#45;&gt;Node2</title>
<path fill="none" stroke="midnightblue" d="M108.25,-57.59C129.3,-62.6 155.26,-68.79 177.57,-74.11"/>
<polygon fill="midnightblue" stroke="midnightblue" points="177,-77.57 187.54,-76.48 178.62,-70.76 177,-77.57"/>
</g>
<!-- Node3 -->
<g id="node3" class="node">
<title>Node3</title>
<g id="a_node3"><a xlink:href="classPiece.html#a6dcc7df628eb1f8317caaa4970835517" target="_top" xlink:title=" ">
<polygon fill="white" stroke="black" points="174,-38.5 174,-57.5 283,-57.5 283,-38.5 174,-38.5"/>
<text text-anchor="middle" x="228.5" y="-45.5" font-family="Helvetica,sans-Serif" font-size="10.00">Piece::get_position</text>
</a>
</g>
</g>
<!-- Node1&#45;&gt;Node3 -->
<g id="edge2" class="edge">
<title>Node1&#45;&gt;Node3</title>
<path fill="none" stroke="midnightblue" d="M134.26,-48C143.94,-48 153.89,-48 163.52,-48"/>
<polygon fill="midnightblue" stroke="midnightblue" points="163.82,-51.5 173.82,-48 163.82,-44.5 163.82,-51.5"/>
</g>
<!-- Node4 -->
<g id="node4" class="node">
<title>Node4</title>
<g id="a_node4"><a xlink:href="classPiece.html#a0b8eee25ebeb85146ffc724a9998613c" target="_top" xlink:title="Validates Position.">
<polygon fill="white" stroke="black" points="170,-0.5 170,-19.5 287,-19.5 287,-0.5 170,-0.5"/>
<text text-anchor="middle" x="228.5" y="-7.5" font-family="Helvetica,sans-Serif" font-size="10.00">Piece::valid_position</text>
</a>
</g>
</g>
<!-- Node1&#45;&gt;Node4 -->
<g id="edge3" class="edge">
<title>Node1&#45;&gt;Node4</title>
<path fill="none" stroke="midnightblue" d="M108.25,-38.41C129.3,-33.4 155.26,-27.21 177.57,-21.89"/>
<polygon fill="midnightblue" stroke="midnightblue" points="178.62,-25.24 187.54,-19.52 177,-18.43 178.62,-25.24"/>
</g>
</g>
</svg>
