<?xml version="1.0" encoding="UTF-8" standalone="no"?>
<!DOCTYPE svg PUBLIC "-//W3C//DTD SVG 1.1//EN"
 "http://www.w3.org/Graphics/SVG/1.1/DTD/svg11.dtd">
<!-- Generated by graphviz version 2.43.0 (0)
 -->
<!-- Title: Menu::start_game Pages: 1 -->
<svg width="1293pt" height="512pt"
 viewBox="0.00 0.00 1293.00 512.00" xmlns="http://www.w3.org/2000/svg" xmlns:xlink="http://www.w3.org/1999/xlink">
<g id="graph0" class="graph" transform="scale(1 1) rotate(0) translate(4 508)">
<title>Menu::start_game</title>
<polygon fill="white" stroke="transparent" points="-4,4 -4,-508 1289,-508 1289,4 -4,4"/>
<!-- Node1 -->
<g id="node1" class="node">
<title>Node1</title>
<g id="a_node1"><a xlink:title="Starts game with 2 human players.">
<polygon fill="#bfbfbf" stroke="black" points="0,-183.5 0,-202.5 105,-202.5 105,-183.5 0,-183.5"/>
<text text-anchor="middle" x="52.5" y="-190.5" font-family="Helvetica,sans-Serif" font-size="10.00">Menu::start_game</text>
</a>
</g>
</g>
<!-- Node2 -->
<g id="node2" class="node">
<title>Node2</title>
<g id="a_node2"><a xlink:href="classPlayer.html#a962ed5b79d46a442c2a933bfde0f9ce1" target="_top" xlink:title="Fill pieces on chess board.">
<polygon fill="white" stroke="black" points="142.5,-221.5 142.5,-240.5 244.5,-240.5 244.5,-221.5 142.5,-221.5"/>
<text text-anchor="middle" x="193.5" y="-228.5" font-family="Helvetica,sans-Serif" font-size="10.00">Player::fill_pieces</text>
</a>
</g>
</g>
<!-- Node1&#45;&gt;Node2 -->
<g id="edge1" class="edge">
<title>Node1&#45;&gt;Node2</title>
<path fill="none" stroke="midnightblue" d="M88.58,-202.59C106.52,-207.49 128.56,-213.52 147.72,-218.76"/>
<polygon fill="midnightblue" stroke="midnightblue" points="146.87,-222.15 157.44,-221.41 148.71,-215.4 146.87,-222.15"/>
</g>
<!-- Node3 -->
<g id="node3" class="node">
<title>Node3</title>
<g id="a_node3"><a xlink:href="classApplication.html#aa0cd4150071d630bd7b1f067878f00cd" target="_top" xlink:title="Starts and handles game.">
<polygon fill="white" stroke="black" points="141,-183.5 141,-202.5 246,-202.5 246,-183.5 141,-183.5"/>
<text text-anchor="middle" x="193.5" y="-190.5" font-family="Helvetica,sans-Serif" font-size="10.00">Application::game</text>
</a>
</g>
</g>
<!-- Node1&#45;&gt;Node3 -->
<g id="edge2" class="edge">
<title>Node1&#45;&gt;Node3</title>
<path fill="none" stroke="midnightblue" d="M105.26,-193C113.49,-193 122.08,-193 130.51,-193"/>
<polygon fill="midnightblue" stroke="midnightblue" points="130.7,-196.5 140.7,-193 130.7,-189.5 130.7,-196.5"/>
</g>
<!-- Node42 -->
<g id="node42" class="node">
<title>Node42</title>
<g id="a_node42"><a xlink:href="classBoard.html#aba53aef1597d5a8ed4c8895e86267e26" target="_top" xlink:title=" ">
<polygon fill="white" stroke="black" points="143.5,-145.5 143.5,-164.5 243.5,-164.5 243.5,-145.5 143.5,-145.5"/>
<text text-anchor="middle" x="193.5" y="-152.5" font-family="Helvetica,sans-Serif" font-size="10.00">Board::init_board</text>
</a>
</g>
</g>
<!-- Node1&#45;&gt;Node42 -->
<g id="edge55" class="edge">
<title>Node1&#45;&gt;Node42</title>
<path fill="none" stroke="midnightblue" d="M88.58,-183.41C106.52,-178.51 128.56,-172.48 147.72,-167.24"/>
<polygon fill="midnightblue" stroke="midnightblue" points="148.71,-170.6 157.44,-164.59 146.87,-163.85 148.71,-170.6"/>
</g>
<!-- Node4 -->
<g id="node4" class="node">
<title>Node4</title>
<g id="a_node4"><a xlink:href="classApplication.html#a50559888cd4196c7cda01e0a432d609f" target="_top" xlink:title="Changes turn of game.">
<polygon fill="white" stroke="black" points="306.5,-317 306.5,-347 419.5,-347 419.5,-317 306.5,-317"/>
<text text-anchor="start" x="314.5" y="-335" font-family="Helvetica,sans-Serif" font-size="10.00">Application::change</text>
<text text-anchor="middle" x="363" y="-324" font-family="Helvetica,sans-Serif" font-size="10.00">_turns</text>
</a>
</g>
</g>
<!-- Node3&#45;&gt;Node4 -->
<g id="edge3" class="edge">
<title>Node3&#45;&gt;Node4</title>
<path fill="none" stroke="midnightblue" d="M232.22,-202.53C237.28,-205.01 242.07,-208.11 246,-212 278.07,-243.79 249.14,-276.03 282,-307 286.41,-311.16 291.5,-314.62 296.94,-317.51"/>
<polygon fill="midnightblue" stroke="midnightblue" points="295.8,-320.84 306.35,-321.85 298.73,-314.48 295.8,-320.84"/>
</g>
<!-- Node24 -->
<g id="node24" class="node">
<title>Node24</title>
<g id="a_node24"><a xlink:href="classGameRules.html#a8d006d25138133af6fa938c758b2d12f" target="_top" xlink:title="Checks if the dead position applies.">
<polygon fill="white" stroke="black" points="289.5,-278.5 289.5,-297.5 436.5,-297.5 436.5,-278.5 289.5,-278.5"/>
<text text-anchor="middle" x="363" y="-285.5" font-family="Helvetica,sans-Serif" font-size="10.00">GameRules::dead_position</text>
</a>
</g>
</g>
<!-- Node3&#45;&gt;Node24 -->
<g id="edge34" class="edge">
<title>Node3&#45;&gt;Node24</title>
<path fill="none" stroke="midnightblue" d="M229.95,-202.56C235.67,-205.06 241.26,-208.16 246,-212 269.29,-230.85 257.62,-251.58 282,-269 284.73,-270.95 287.63,-272.7 290.65,-274.28"/>
<polygon fill="midnightblue" stroke="midnightblue" points="289.46,-277.58 300.02,-278.48 292.33,-271.19 289.46,-277.58"/>
</g>
<!-- Node25 -->
<g id="node25" class="node">
<title>Node25</title>
<g id="a_node25"><a xlink:href="classPlayer.html#a4d6bbea149ca89248c006c2a0ca140b6" target="_top" xlink:title="Delete piece from pieces_pos_.">
<polygon fill="white" stroke="black" points="305,-240.5 305,-259.5 421,-259.5 421,-240.5 305,-240.5"/>
<text text-anchor="middle" x="363" y="-247.5" font-family="Helvetica,sans-Serif" font-size="10.00">Player::delete_piece</text>
</a>
</g>
</g>
<!-- Node3&#45;&gt;Node25 -->
<g id="edge35" class="edge">
<title>Node3&#45;&gt;Node25</title>
<path fill="none" stroke="midnightblue" d="M222.57,-202.59C230.25,-205.42 238.51,-208.66 246,-212 262.52,-219.37 265.06,-224.64 282,-231 288.8,-233.55 296.05,-235.84 303.32,-237.87"/>
<polygon fill="midnightblue" stroke="midnightblue" points="302.62,-241.31 313.18,-240.48 304.41,-234.54 302.62,-241.31"/>
</g>
<!-- Node26 -->
<g id="node26" class="node">
<title>Node26</title>
<g id="a_node26"><a xlink:href="classGameRules.html#aa6f8bc3fd2c7b8fa5dba8dfd241d7740" target="_top" xlink:title="Checks if the half&#45;move rules applies.">
<polygon fill="white" stroke="black" points="295,-202.5 295,-221.5 431,-221.5 431,-202.5 295,-202.5"/>
<text text-anchor="middle" x="363" y="-209.5" font-family="Helvetica,sans-Serif" font-size="10.00">GameRules::half_moves</text>
</a>
</g>
</g>
<!-- Node3&#45;&gt;Node26 -->
<g id="edge36" class="edge">
<title>Node3&#45;&gt;Node26</title>
<path fill="none" stroke="midnightblue" d="M246.12,-198.86C258.38,-200.25 271.72,-201.76 284.84,-203.25"/>
<polygon fill="midnightblue" stroke="midnightblue" points="284.48,-206.73 294.81,-204.38 285.26,-199.77 284.48,-206.73"/>
</g>
<!-- Node27 -->
<g id="node27" class="node">
<title>Node27</title>
<g id="a_node27"><a xlink:href="classBoard.html#aa96e4fef113d4a359baf359264c0cf3f" target="_top" xlink:title="Prints chess board.">
<polygon fill="white" stroke="black" points="309.5,-164.5 309.5,-183.5 416.5,-183.5 416.5,-164.5 309.5,-164.5"/>
<text text-anchor="middle" x="363" y="-171.5" font-family="Helvetica,sans-Serif" font-size="10.00">Board::print_board</text>
</a>
</g>
</g>
<!-- Node3&#45;&gt;Node27 -->
<g id="edge37" class="edge">
<title>Node3&#45;&gt;Node27</title>
<path fill="none" stroke="midnightblue" d="M246.12,-187.14C262.92,-185.24 281.74,-183.1 299.26,-181.12"/>
<polygon fill="midnightblue" stroke="midnightblue" points="299.85,-184.57 309.39,-179.97 299.06,-177.62 299.85,-184.57"/>
</g>
<!-- Node28 -->
<g id="node28" class="node">
<title>Node28</title>
<g id="a_node28"><a xlink:href="classApplication.html#aea645938276f66ddf06cbb04d6169502" target="_top" xlink:title="Prints result of game (checkmate, tie, pat, game not finished)">
<polygon fill="white" stroke="black" points="313,-115 313,-145 413,-145 413,-115 313,-115"/>
<text text-anchor="start" x="321" y="-133" font-family="Helvetica,sans-Serif" font-size="10.00">Application::print</text>
<text text-anchor="middle" x="363" y="-122" font-family="Helvetica,sans-Serif" font-size="10.00">_results</text>
</a>
</g>
</g>
<!-- Node3&#45;&gt;Node28 -->
<g id="edge38" class="edge">
<title>Node3&#45;&gt;Node28</title>
<path fill="none" stroke="midnightblue" d="M222.57,-183.41C230.25,-180.58 238.51,-177.34 246,-174 262.52,-166.63 265.3,-161.95 282,-155 288.74,-152.19 295.92,-149.53 303.09,-147.05"/>
<polygon fill="midnightblue" stroke="midnightblue" points="304.46,-150.29 312.84,-143.81 302.25,-143.65 304.46,-150.29"/>
</g>
<!-- Node29 -->
<g id="node29" class="node">
<title>Node29</title>
<g id="a_node29"><a xlink:href="classFile__manager.html#a0b0b101cb1941cba0e51a2c6dea0919b" target="_top" xlink:title="Saves file.">
<polygon fill="white" stroke="black" points="297,-76.5 297,-95.5 429,-95.5 429,-76.5 297,-76.5"/>
<text text-anchor="middle" x="363" y="-83.5" font-family="Helvetica,sans-Serif" font-size="10.00">File_manager::save_file</text>
</a>
</g>
</g>
<!-- Node3&#45;&gt;Node29 -->
<g id="edge39" class="edge">
<title>Node3&#45;&gt;Node29</title>
<path fill="none" stroke="midnightblue" d="M231,-183.38C236.41,-180.91 241.62,-177.83 246,-174 271.74,-151.49 255.08,-127.09 282,-106 284.93,-103.7 288.1,-101.66 291.42,-99.86"/>
<polygon fill="midnightblue" stroke="midnightblue" points="292.93,-103.01 300.5,-95.6 289.96,-96.67 292.93,-103.01"/>
</g>
<!-- Node38 -->
<g id="node38" class="node">
<title>Node38</title>
<g id="a_node38"><a xlink:href="classGameRules.html#a515085ec1bb0e6ea5c2d12664ec7fc10" target="_top" xlink:title="Checks if the stalemate rule applies.">
<polygon fill="white" stroke="black" points="481.5,-397.5 481.5,-416.5 609.5,-416.5 609.5,-397.5 481.5,-397.5"/>
<text text-anchor="middle" x="545.5" y="-404.5" font-family="Helvetica,sans-Serif" font-size="10.00">GameRules::stalemate</text>
</a>
</g>
</g>
<!-- Node3&#45;&gt;Node38 -->
<g id="edge48" class="edge">
<title>Node3&#45;&gt;Node38</title>
<path fill="none" stroke="midnightblue" d="M233.42,-202.52C238.13,-204.99 242.5,-208.1 246,-212 290.3,-261.46 233.77,-311.36 282,-357 332.07,-404.38 412.44,-413.6 471.08,-413"/>
<polygon fill="midnightblue" stroke="midnightblue" points="471.46,-416.5 481.39,-412.8 471.32,-409.5 471.46,-416.5"/>
</g>
<!-- Node40 -->
<g id="node40" class="node">
<title>Node40</title>
<g id="a_node40"><a xlink:href="classGameRules.html#acbd44f6245c7a7fb0ddf2a7b0fffc923" target="_top" xlink:title="Checks if the threefold repetition rule applies.">
<polygon fill="white" stroke="black" points="301.5,-38.5 301.5,-57.5 424.5,-57.5 424.5,-38.5 301.5,-38.5"/>
<text text-anchor="middle" x="363" y="-45.5" font-family="Helvetica,sans-Serif" font-size="10.00">GameRules::threefold</text>
</a>
</g>
</g>
<!-- Node3&#45;&gt;Node40 -->
<g id="edge53" class="edge">
<title>Node3&#45;&gt;Node40</title>
<path fill="none" stroke="midnightblue" d="M232.62,-183.47C237.56,-181 242.21,-177.9 246,-174 280.96,-138.01 244.94,-100.82 282,-67 285.14,-64.13 288.64,-61.67 292.36,-59.57"/>
<polygon fill="midnightblue" stroke="midnightblue" points="293.88,-62.72 301.41,-55.27 290.87,-56.4 293.88,-62.72"/>
</g>
<!-- Node41 -->
<g id="node41" class="node">
<title>Node41</title>
<g id="a_node41"><a xlink:href="classGameRules.html#a07b29e4691299df2cfe680af7a59262b" target="_top" xlink:title=" ">
<polygon fill="white" stroke="black" points="282,-0.5 282,-19.5 444,-19.5 444,-0.5 282,-0.5"/>
<text text-anchor="middle" x="363" y="-7.5" font-family="Helvetica,sans-Serif" font-size="10.00">GameRules::update_threefold</text>
</a>
</g>
</g>
<!-- Node3&#45;&gt;Node41 -->
<g id="edge54" class="edge">
<title>Node3&#45;&gt;Node41</title>
<path fill="none" stroke="midnightblue" d="M233.42,-183.48C238.13,-181.01 242.5,-177.9 246,-174 290.3,-124.54 234.81,-75.71 282,-29 283.45,-27.57 284.98,-26.24 286.58,-25"/>
<polygon fill="midnightblue" stroke="midnightblue" points="288.58,-27.88 295.15,-19.57 284.83,-21.97 288.58,-27.88"/>
</g>
<!-- Node5 -->
<g id="node5" class="node">
<title>Node5</title>
<g id="a_node5"><a xlink:href="classApplication.html#a162a3f466352b474a10516c7f0b0ae9a" target="_top" xlink:title=" ">
<polygon fill="white" stroke="black" points="480,-308.5 480,-327.5 611,-327.5 611,-308.5 480,-308.5"/>
<text text-anchor="middle" x="545.5" y="-315.5" font-family="Helvetica,sans-Serif" font-size="10.00">Application::play_move</text>
</a>
</g>
</g>
<!-- Node4&#45;&gt;Node5 -->
<g id="edge4" class="edge">
<title>Node4&#45;&gt;Node5</title>
<path fill="none" stroke="midnightblue" d="M419.63,-327.69C435.41,-326.46 452.86,-325.11 469.59,-323.81"/>
<polygon fill="midnightblue" stroke="midnightblue" points="470.19,-327.27 479.88,-323.01 469.64,-320.3 470.19,-327.27"/>
</g>
<!-- Node6 -->
<g id="node6" class="node">
<title>Node6</title>
<g id="a_node6"><a xlink:href="classRules.html#abd9b013ebba58f9757336a20b2c6bf8e" target="_top" xlink:title="Checks if king is in check.">
<polygon fill="white" stroke="black" points="810,-370.5 810,-389.5 899,-389.5 899,-370.5 810,-370.5"/>
<text text-anchor="middle" x="854.5" y="-377.5" font-family="Helvetica,sans-Serif" font-size="10.00">Rules::checked</text>
</a>
</g>
</g>
<!-- Node5&#45;&gt;Node6 -->
<g id="edge5" class="edge">
<title>Node5&#45;&gt;Node6</title>
<path fill="none" stroke="midnightblue" d="M564.06,-327.52C583.67,-337.67 616.64,-353.31 647,-361 697.78,-373.86 757.55,-378.24 799.68,-379.62"/>
<polygon fill="midnightblue" stroke="midnightblue" points="799.63,-383.12 809.73,-379.91 799.83,-376.13 799.63,-383.12"/>
</g>
<!-- Node10 -->
<g id="node10" class="node">
<title>Node10</title>
<g id="a_node10"><a xlink:href="classRules.html#a4ec21c1bd51c73135ed26eafa0da58d3" target="_top" xlink:title="Checks if king is in checkmate.">
<polygon fill="white" stroke="black" points="647,-332.5 647,-351.5 751,-351.5 751,-332.5 647,-332.5"/>
<text text-anchor="middle" x="699" y="-339.5" font-family="Helvetica,sans-Serif" font-size="10.00">Rules::checkmate</text>
</a>
</g>
</g>
<!-- Node5&#45;&gt;Node10 -->
<g id="edge9" class="edge">
<title>Node5&#45;&gt;Node10</title>
<path fill="none" stroke="midnightblue" d="M606.81,-327.55C616.61,-329.11 626.77,-330.72 636.59,-332.27"/>
<polygon fill="midnightblue" stroke="midnightblue" points="636.26,-335.76 646.68,-333.87 637.35,-328.85 636.26,-335.76"/>
</g>
<!-- Node11 -->
<g id="node11" class="node">
<title>Node11</title>
<g id="a_node11"><a xlink:href="classMove.html#a3765dcce8a7c18e0c2f7ce42c98fa2ba" target="_top" xlink:title="Makes move with piece.">
<polygon fill="white" stroke="black" points="799.5,-218.5 799.5,-237.5 909.5,-237.5 909.5,-218.5 799.5,-218.5"/>
<text text-anchor="middle" x="854.5" y="-225.5" font-family="Helvetica,sans-Serif" font-size="10.00">Move::make_move</text>
</a>
</g>
</g>
<!-- Node5&#45;&gt;Node11 -->
<g id="edge30" class="edge">
<title>Node5&#45;&gt;Node11</title>
<path fill="none" stroke="midnightblue" d="M556.3,-308.32C573.17,-292.34 609.52,-260.83 647,-247 692.56,-230.19 747.43,-225.82 789.16,-225.45"/>
<polygon fill="midnightblue" stroke="midnightblue" points="789.21,-228.95 799.2,-225.43 789.2,-221.95 789.21,-228.95"/>
</g>
<!-- Node17 -->
<g id="node17" class="node">
<title>Node17</title>
<g id="a_node17"><a xlink:href="classMove.html#afbed08d3294e3c7913dd27c3d6afd283" target="_top" xlink:title="Undo move.">
<polygon fill="white" stroke="black" points="801,-294.5 801,-313.5 908,-313.5 908,-294.5 801,-294.5"/>
<text text-anchor="middle" x="854.5" y="-301.5" font-family="Helvetica,sans-Serif" font-size="10.00">Move::undo_move</text>
</a>
</g>
</g>
<!-- Node5&#45;&gt;Node17 -->
<g id="edge32" class="edge">
<title>Node5&#45;&gt;Node17</title>
<path fill="none" stroke="midnightblue" d="M611.23,-315.05C664.01,-312.64 738.11,-309.26 790.43,-306.88"/>
<polygon fill="midnightblue" stroke="midnightblue" points="790.76,-310.36 800.59,-306.41 790.44,-303.37 790.76,-310.36"/>
</g>
<!-- Node18 -->
<g id="node18" class="node">
<title>Node18</title>
<g id="a_node18"><a xlink:href="classValidate.html#afe077c5b0107ffc1c42670e233257b9c" target="_top" xlink:title="Validates move.">
<polygon fill="white" stroke="black" points="787,-446.5 787,-465.5 922,-465.5 922,-446.5 787,-446.5"/>
<text text-anchor="middle" x="854.5" y="-453.5" font-family="Helvetica,sans-Serif" font-size="10.00">Validate::validate_move</text>
</a>
</g>
</g>
<!-- Node5&#45;&gt;Node18 -->
<g id="edge33" class="edge">
<title>Node5&#45;&gt;Node18</title>
<path fill="none" stroke="midnightblue" d="M556.04,-327.66C568.96,-340.88 592.51,-365.55 611,-388 628.18,-408.86 623.47,-423.7 647,-437 685.86,-458.97 735.52,-464.11 776.4,-463.58"/>
<polygon fill="midnightblue" stroke="midnightblue" points="776.68,-467.07 786.59,-463.32 776.51,-460.07 776.68,-467.07"/>
</g>
<!-- Node22 -->
<g id="node22" class="node">
<title>Node22</title>
<g id="a_node22"><a xlink:href="classPlayer.html#afca2a1d6d42d2f3a04abb9ab5bc3d323" target="_top" xlink:title="Gets player&#39;s move.">
<polygon fill="white" stroke="black" points="648,-256.5 648,-275.5 750,-275.5 750,-256.5 648,-256.5"/>
<text text-anchor="middle" x="699" y="-263.5" font-family="Helvetica,sans-Serif" font-size="10.00">Player::get_move</text>
</a>
</g>
</g>
<!-- Node5&#45;&gt;Node22 -->
<g id="edge29" class="edge">
<title>Node5&#45;&gt;Node22</title>
<path fill="none" stroke="midnightblue" d="M574.29,-308.46C598.45,-300.17 633.67,-288.08 660.36,-278.92"/>
<polygon fill="midnightblue" stroke="midnightblue" points="661.81,-282.12 670.13,-275.57 659.54,-275.5 661.81,-282.12"/>
</g>
<!-- Node23 -->
<g id="node23" class="node">
<title>Node23</title>
<g id="a_node23"><a xlink:href="classApplication.html#afef57a39fdd32b4c10464d8a9d979816" target="_top" xlink:title="Prints who plays next.">
<polygon fill="white" stroke="black" points="649,-169 649,-199 749,-199 749,-169 649,-169"/>
<text text-anchor="start" x="657" y="-187" font-family="Helvetica,sans-Serif" font-size="10.00">Application::print</text>
<text text-anchor="middle" x="699" y="-176" font-family="Helvetica,sans-Serif" font-size="10.00">_color</text>
</a>
</g>
</g>
<!-- Node5&#45;&gt;Node23 -->
<g id="edge31" class="edge">
<title>Node5&#45;&gt;Node23</title>
<path fill="none" stroke="midnightblue" d="M554.35,-308.26C570.36,-288.78 608.54,-244.29 647,-214 651.29,-210.62 655.99,-207.36 660.75,-204.3"/>
<polygon fill="midnightblue" stroke="midnightblue" points="662.62,-207.26 669.32,-199.04 658.96,-201.29 662.62,-207.26"/>
</g>
<!-- Node7 -->
<g id="node7" class="node">
<title>Node7</title>
<g id="a_node7"><a xlink:href="classValidate.html#a3e4b7f61bff7ee9d7d839ead34d2d61f" target="_top" xlink:title="Checks if square is empty.">
<polygon fill="white" stroke="black" points="1165.5,-370.5 1165.5,-389.5 1272.5,-389.5 1272.5,-370.5 1165.5,-370.5"/>
<text text-anchor="middle" x="1219" y="-377.5" font-family="Helvetica,sans-Serif" font-size="10.00">Validate::is_empty</text>
</a>
</g>
</g>
<!-- Node6&#45;&gt;Node7 -->
<g id="edge6" class="edge">
<title>Node6&#45;&gt;Node7</title>
<path fill="none" stroke="midnightblue" d="M899.23,-380C963.07,-380 1082.15,-380 1155.31,-380"/>
<polygon fill="midnightblue" stroke="midnightblue" points="1155.32,-383.5 1165.32,-380 1155.32,-376.5 1155.32,-383.5"/>
</g>
<!-- Node8 -->
<g id="node8" class="node">
<title>Node8</title>
<g id="a_node8"><a xlink:href="classValidate.html#ab5ba0f592c1cd28a57deab9ef608f2df" target="_top" xlink:title="Checks if piece is same color as player.">
<polygon fill="white" stroke="black" points="1153,-408.5 1153,-427.5 1285,-427.5 1285,-408.5 1153,-408.5"/>
<text text-anchor="middle" x="1219" y="-415.5" font-family="Helvetica,sans-Serif" font-size="10.00">Validate::is_same_color</text>
</a>
</g>
</g>
<!-- Node6&#45;&gt;Node8 -->
<g id="edge7" class="edge">
<title>Node6&#45;&gt;Node8</title>
<path fill="none" stroke="midnightblue" d="M899.09,-386.38C917.28,-388.93 938.64,-391.79 958,-394 1020.07,-401.1 1090.66,-407.51 1142.61,-411.92"/>
<polygon fill="midnightblue" stroke="midnightblue" points="1142.48,-415.42 1152.74,-412.77 1143.07,-408.44 1142.48,-415.42"/>
</g>
<!-- Node9 -->
<g id="node9" class="node">
<title>Node9</title>
<g id="a_node9"><a xlink:href="classValidate.html#a50364e1735875d1d74e7eb251b3fd7e5" target="_top" xlink:title="Validates position.">
<polygon fill="white" stroke="black" points="972,-332.5 972,-351.5 1103,-351.5 1103,-332.5 972,-332.5"/>
<text text-anchor="middle" x="1037.5" y="-339.5" font-family="Helvetica,sans-Serif" font-size="10.00">Validate::valid_position</text>
</a>
</g>
</g>
<!-- Node6&#45;&gt;Node9 -->
<g id="edge8" class="edge">
<title>Node6&#45;&gt;Node9</title>
<path fill="none" stroke="midnightblue" d="M899.32,-370.8C923.99,-365.62 955.05,-359.1 981.37,-353.58"/>
<polygon fill="midnightblue" stroke="midnightblue" points="982.13,-356.99 991.2,-351.51 980.69,-350.14 982.13,-356.99"/>
</g>
<!-- Node10&#45;&gt;Node6 -->
<g id="edge10" class="edge">
<title>Node10&#45;&gt;Node6</title>
<path fill="none" stroke="midnightblue" d="M738.73,-351.59C758.9,-356.58 783.75,-362.73 805.16,-368.03"/>
<polygon fill="midnightblue" stroke="midnightblue" points="804.5,-371.47 815.04,-370.48 806.18,-364.68 804.5,-371.47"/>
</g>
<!-- Node10&#45;&gt;Node9 -->
<g id="edge22" class="edge">
<title>Node10&#45;&gt;Node9</title>
<path fill="none" stroke="midnightblue" d="M751.11,-342C807.22,-342 897.83,-342 961.88,-342"/>
<polygon fill="midnightblue" stroke="midnightblue" points="961.92,-345.5 971.92,-342 961.92,-338.5 961.92,-345.5"/>
</g>
<!-- Node10&#45;&gt;Node11 -->
<g id="edge11" class="edge">
<title>Node10&#45;&gt;Node11</title>
<path fill="none" stroke="midnightblue" d="M712.82,-332.48C739.17,-312.91 799.63,-268.01 832.04,-243.94"/>
<polygon fill="midnightblue" stroke="midnightblue" points="834.45,-246.51 840.39,-237.74 830.27,-240.89 834.45,-246.51"/>
</g>
<!-- Node10&#45;&gt;Node17 -->
<g id="edge20" class="edge">
<title>Node10&#45;&gt;Node17</title>
<path fill="none" stroke="midnightblue" d="M738.73,-332.41C758.9,-327.42 783.75,-321.27 805.16,-315.97"/>
<polygon fill="midnightblue" stroke="midnightblue" points="806.18,-319.32 815.04,-313.52 804.5,-312.53 806.18,-319.32"/>
</g>
<!-- Node10&#45;&gt;Node18 -->
<g id="edge23" class="edge">
<title>Node10&#45;&gt;Node18</title>
<path fill="none" stroke="midnightblue" d="M712.82,-351.52C739.17,-371.09 799.63,-415.99 832.04,-440.06"/>
<polygon fill="midnightblue" stroke="midnightblue" points="830.27,-443.11 840.39,-446.26 834.45,-437.49 830.27,-443.11"/>
</g>
<!-- Node12 -->
<g id="node12" class="node">
<title>Node12</title>
<g id="a_node12"><a xlink:href="classPlayer.html#a42e54e616455af5d9d4b6dea514ba7a0" target="_top" xlink:title="Checks player&#39;s pawn promotion.">
<polygon fill="white" stroke="black" points="975,-256.5 975,-275.5 1100,-275.5 1100,-256.5 975,-256.5"/>
<text text-anchor="middle" x="1037.5" y="-263.5" font-family="Helvetica,sans-Serif" font-size="10.00">Player::get_promotion</text>
</a>
</g>
</g>
<!-- Node11&#45;&gt;Node12 -->
<g id="edge12" class="edge">
<title>Node11&#45;&gt;Node12</title>
<path fill="none" stroke="midnightblue" d="M901.17,-237.59C925.49,-242.69 955.58,-249.01 981.21,-254.39"/>
<polygon fill="midnightblue" stroke="midnightblue" points="980.65,-257.85 991.15,-256.48 982.09,-251 980.65,-257.85"/>
</g>
<!-- Node13 -->
<g id="node13" class="node">
<title>Node13</title>
<g id="a_node13"><a xlink:href="classMove.html#a5472b83ec6bcde0fd8c16c4508896ccd" target="_top" xlink:title="Handles casting.">
<polygon fill="white" stroke="black" points="974.5,-180.5 974.5,-199.5 1100.5,-199.5 1100.5,-180.5 974.5,-180.5"/>
<text text-anchor="middle" x="1037.5" y="-187.5" font-family="Helvetica,sans-Serif" font-size="10.00">Move::handle_castling</text>
</a>
</g>
</g>
<!-- Node11&#45;&gt;Node13 -->
<g id="edge13" class="edge">
<title>Node11&#45;&gt;Node13</title>
<path fill="none" stroke="midnightblue" d="M901.17,-218.41C925.49,-213.31 955.58,-206.99 981.21,-201.61"/>
<polygon fill="midnightblue" stroke="midnightblue" points="982.09,-205 991.15,-199.52 980.65,-198.15 982.09,-205"/>
</g>
<!-- Node14 -->
<g id="node14" class="node">
<title>Node14</title>
<g id="a_node14"><a xlink:href="classMove.html#a5a18864c15112c49e5a93dbee3f83d1c" target="_top" xlink:title="Moves piece from start to end.">
<polygon fill="white" stroke="black" points="1164.5,-189.5 1164.5,-208.5 1273.5,-208.5 1273.5,-189.5 1164.5,-189.5"/>
<text text-anchor="middle" x="1219" y="-196.5" font-family="Helvetica,sans-Serif" font-size="10.00">Move::move_piece</text>
</a>
</g>
</g>
<!-- Node11&#45;&gt;Node14 -->
<g id="edge15" class="edge">
<title>Node11&#45;&gt;Node14</title>
<path fill="none" stroke="midnightblue" d="M909.62,-224.48C962.53,-220.95 1045.34,-215.15 1117,-209 1129,-207.97 1141.79,-206.78 1154.1,-205.58"/>
<polygon fill="midnightblue" stroke="midnightblue" points="1154.69,-209.04 1164.3,-204.58 1154,-202.07 1154.69,-209.04"/>
</g>
<!-- Node15 -->
<g id="node15" class="node">
<title>Node15</title>
<g id="a_node15"><a xlink:href="classMove.html#a9a242db5d52827dd11f81a6aa46e339e" target="_top" xlink:title="Handles pawn promotion.">
<polygon fill="white" stroke="black" points="987.5,-142.5 987.5,-161.5 1087.5,-161.5 1087.5,-142.5 987.5,-142.5"/>
<text text-anchor="middle" x="1037.5" y="-149.5" font-family="Helvetica,sans-Serif" font-size="10.00">Move::promotion</text>
</a>
</g>
</g>
<!-- Node11&#45;&gt;Node15 -->
<g id="edge16" class="edge">
<title>Node11&#45;&gt;Node15</title>
<path fill="none" stroke="midnightblue" d="M869.82,-218.39C889.1,-205.84 924.81,-183.97 958,-171 964.41,-168.5 971.24,-166.26 978.1,-164.27"/>
<polygon fill="midnightblue" stroke="midnightblue" points="979.4,-167.54 988.12,-161.54 977.56,-160.79 979.4,-167.54"/>
</g>
<!-- Node16 -->
<g id="node16" class="node">
<title>Node16</title>
<g id="a_node16"><a xlink:href="classPlayer.html#a620bf4cb1907eafdbcd9252a750ffa8f" target="_top" xlink:title="Update piece&#39;s position on chess board.">
<polygon fill="white" stroke="black" points="1157,-132.5 1157,-151.5 1281,-151.5 1281,-132.5 1157,-132.5"/>
<text text-anchor="middle" x="1219" y="-139.5" font-family="Helvetica,sans-Serif" font-size="10.00">Player::update_pieces</text>
</a>
</g>
</g>
<!-- Node11&#45;&gt;Node16 -->
<g id="edge19" class="edge">
<title>Node11&#45;&gt;Node16</title>
<path fill="none" stroke="midnightblue" d="M862.01,-218.28C876.42,-197.78 913.28,-150.54 958,-133 1029.5,-104.96 1120.73,-118.14 1173.93,-130.15"/>
<polygon fill="midnightblue" stroke="midnightblue" points="1173.19,-133.58 1183.72,-132.45 1174.79,-126.76 1173.19,-133.58"/>
</g>
<!-- Node13&#45;&gt;Node14 -->
<g id="edge14" class="edge">
<title>Node13&#45;&gt;Node14</title>
<path fill="none" stroke="midnightblue" d="M1100.53,-193.11C1117.89,-193.98 1136.79,-194.93 1154.26,-195.8"/>
<polygon fill="midnightblue" stroke="midnightblue" points="1154.19,-199.3 1164.35,-196.31 1154.54,-192.31 1154.19,-199.3"/>
</g>
<!-- Node15&#45;&gt;Node14 -->
<g id="edge17" class="edge">
<title>Node15&#45;&gt;Node14</title>
<path fill="none" stroke="midnightblue" d="M1078.9,-161.51C1091.16,-164.47 1104.65,-167.79 1117,-171 1135.85,-175.89 1156.58,-181.59 1174.34,-186.56"/>
<polygon fill="midnightblue" stroke="midnightblue" points="1173.83,-190.05 1184.41,-189.39 1175.73,-183.31 1173.83,-190.05"/>
</g>
<!-- Node15&#45;&gt;Node16 -->
<g id="edge18" class="edge">
<title>Node15&#45;&gt;Node16</title>
<path fill="none" stroke="midnightblue" d="M1087.55,-149.27C1105.76,-148.25 1126.8,-147.08 1146.6,-145.98"/>
<polygon fill="midnightblue" stroke="midnightblue" points="1147.03,-149.46 1156.82,-145.41 1146.64,-142.47 1147.03,-149.46"/>
</g>
<!-- Node17&#45;&gt;Node14 -->
<g id="edge21" class="edge">
<title>Node17&#45;&gt;Node14</title>
<path fill="none" stroke="midnightblue" d="M908.03,-309.52C962.44,-313.14 1048.87,-312.92 1117,-285 1153.34,-270.11 1186.07,-236.9 1203.89,-216.39"/>
<polygon fill="midnightblue" stroke="midnightblue" points="1206.59,-218.61 1210.37,-208.71 1201.25,-214.09 1206.59,-218.61"/>
</g>
<!-- Node19 -->
<g id="node19" class="node">
<title>Node19</title>
<g id="a_node19"><a xlink:href="classValidate.html#ac11fdbf661a340f903a8a8b581710c34" target="_top" xlink:title="Finds all possible moves for piece.">
<polygon fill="white" stroke="black" points="958,-446.5 958,-465.5 1117,-465.5 1117,-446.5 958,-446.5"/>
<text text-anchor="middle" x="1037.5" y="-453.5" font-family="Helvetica,sans-Serif" font-size="10.00">Validate::find_possible_move</text>
</a>
</g>
</g>
<!-- Node18&#45;&gt;Node19 -->
<g id="edge24" class="edge">
<title>Node18&#45;&gt;Node19</title>
<path fill="none" stroke="midnightblue" d="M922.13,-456C930.46,-456 939.08,-456 947.68,-456"/>
<polygon fill="midnightblue" stroke="midnightblue" points="947.75,-459.5 957.75,-456 947.75,-452.5 947.75,-459.5"/>
</g>
<!-- Node21 -->
<g id="node21" class="node">
<title>Node21</title>
<g id="a_node21"><a xlink:href="classValidate.html#a6c88b44fd5d40b6aba0812e2d23d8f04" target="_top" xlink:title="Checks if castling is valid.">
<polygon fill="white" stroke="black" points="972.5,-484.5 972.5,-503.5 1102.5,-503.5 1102.5,-484.5 972.5,-484.5"/>
<text text-anchor="middle" x="1037.5" y="-491.5" font-family="Helvetica,sans-Serif" font-size="10.00">Validate::valid_castling</text>
</a>
</g>
</g>
<!-- Node18&#45;&gt;Node21 -->
<g id="edge28" class="edge">
<title>Node18&#45;&gt;Node21</title>
<path fill="none" stroke="midnightblue" d="M901.17,-465.59C925.49,-470.69 955.58,-477.01 981.21,-482.39"/>
<polygon fill="midnightblue" stroke="midnightblue" points="980.65,-485.85 991.15,-484.48 982.09,-479 980.65,-485.85"/>
</g>
<!-- Node19&#45;&gt;Node7 -->
<g id="edge26" class="edge">
<title>Node19&#45;&gt;Node7</title>
<path fill="none" stroke="midnightblue" d="M1055.52,-446.33C1077.51,-434.11 1117.23,-413 1153,-399 1158.89,-396.69 1165.18,-394.52 1171.43,-392.52"/>
<polygon fill="midnightblue" stroke="midnightblue" points="1172.64,-395.81 1181.18,-389.53 1170.59,-389.12 1172.64,-395.81"/>
</g>
<!-- Node19&#45;&gt;Node8 -->
<g id="edge27" class="edge">
<title>Node19&#45;&gt;Node8</title>
<path fill="none" stroke="midnightblue" d="M1083.8,-446.41C1107.91,-441.31 1137.75,-434.99 1163.17,-429.61"/>
<polygon fill="midnightblue" stroke="midnightblue" points="1163.97,-433.02 1173.03,-427.52 1162.52,-426.17 1163.97,-433.02"/>
</g>
<!-- Node20 -->
<g id="node20" class="node">
<title>Node20</title>
<g id="a_node20"><a xlink:href="classValidate.html#aa7766a323b9443c69e62a05d04f0b217" target="_top" xlink:title="Finds if move is legit.">
<polygon fill="white" stroke="black" points="1162.5,-446.5 1162.5,-465.5 1275.5,-465.5 1275.5,-446.5 1162.5,-446.5"/>
<text text-anchor="middle" x="1219" y="-453.5" font-family="Helvetica,sans-Serif" font-size="10.00">Validate::find_move</text>
</a>
</g>
</g>
<!-- Node19&#45;&gt;Node20 -->
<g id="edge25" class="edge">
<title>Node19&#45;&gt;Node20</title>
<path fill="none" stroke="midnightblue" d="M1117.23,-456C1128.84,-456 1140.7,-456 1152.02,-456"/>
<polygon fill="midnightblue" stroke="midnightblue" points="1152.24,-459.5 1162.24,-456 1152.24,-452.5 1152.24,-459.5"/>
</g>
<!-- Node30 -->
<g id="node30" class="node">
<title>Node30</title>
<g id="a_node30"><a xlink:href="classFile__manager.html#a700ed2e80892dd11ec00b150b991db71" target="_top" xlink:title="Checks if file name ends with .txt.">
<polygon fill="white" stroke="black" points="489.5,-71 489.5,-101 601.5,-101 601.5,-71 489.5,-71"/>
<text text-anchor="start" x="497.5" y="-89" font-family="Helvetica,sans-Serif" font-size="10.00">File_manager::ends</text>
<text text-anchor="middle" x="545.5" y="-78" font-family="Helvetica,sans-Serif" font-size="10.00">_with_txt</text>
</a>
</g>
</g>
<!-- Node29&#45;&gt;Node30 -->
<g id="edge40" class="edge">
<title>Node29&#45;&gt;Node30</title>
<path fill="none" stroke="midnightblue" d="M429.16,-86C445.32,-86 462.64,-86 478.81,-86"/>
<polygon fill="midnightblue" stroke="midnightblue" points="479.26,-89.5 489.26,-86 479.26,-82.5 479.26,-89.5"/>
</g>
<!-- Node31 -->
<g id="node31" class="node">
<title>Node31</title>
<g id="a_node31"><a xlink:href="classFEN.html#a42da90e2b44ecb011e7ec0d86015dffd" target="_top" xlink:title="Gets FEN notation.">
<polygon fill="white" stroke="black" points="504,-32.5 504,-51.5 587,-51.5 587,-32.5 504,-32.5"/>
<text text-anchor="middle" x="545.5" y="-39.5" font-family="Helvetica,sans-Serif" font-size="10.00">FEN::get_FEN</text>
</a>
</g>
</g>
<!-- Node29&#45;&gt;Node31 -->
<g id="edge41" class="edge">
<title>Node29&#45;&gt;Node31</title>
<path fill="none" stroke="midnightblue" d="M404.72,-76.42C417.32,-73.43 431.24,-70.1 444,-67 461.07,-62.85 479.75,-58.22 496.33,-54.09"/>
<polygon fill="midnightblue" stroke="midnightblue" points="497.49,-57.41 506.35,-51.59 495.8,-50.62 497.49,-57.41"/>
</g>
<!-- Node37 -->
<g id="node37" class="node">
<title>Node37</title>
<g id="a_node37"><a xlink:href="classFile__manager.html#a5492c26ed8d51b69935173acf8688e80" target="_top" xlink:title="List all files in directory.">
<polygon fill="white" stroke="black" points="493.5,-120 493.5,-150 597.5,-150 597.5,-120 493.5,-120"/>
<text text-anchor="start" x="501.5" y="-138" font-family="Helvetica,sans-Serif" font-size="10.00">File_manager::list</text>
<text text-anchor="middle" x="545.5" y="-127" font-family="Helvetica,sans-Serif" font-size="10.00">_directory</text>
</a>
</g>
</g>
<!-- Node29&#45;&gt;Node37 -->
<g id="edge47" class="edge">
<title>Node29&#45;&gt;Node37</title>
<path fill="none" stroke="midnightblue" d="M403.54,-95.59C416.46,-98.8 430.87,-102.46 444,-106 456.93,-109.48 470.74,-113.36 483.86,-117.12"/>
<polygon fill="midnightblue" stroke="midnightblue" points="483.15,-120.56 493.73,-119.97 485.09,-113.83 483.15,-120.56"/>
</g>
<!-- Node32 -->
<g id="node32" class="node">
<title>Node32</title>
<g id="a_node32"><a xlink:href="classInput__handler.html#a7987d8ac8708c84676dd60936341bd8c" target="_top" xlink:title="Converts int to char.">
<polygon fill="white" stroke="black" points="648,-58 648,-88 750,-88 750,-58 648,-58"/>
<text text-anchor="start" x="656" y="-76" font-family="Helvetica,sans-Serif" font-size="10.00">Input_handler::int</text>
<text text-anchor="middle" x="699" y="-65" font-family="Helvetica,sans-Serif" font-size="10.00">_to_coordinates</text>
</a>
</g>
</g>
<!-- Node31&#45;&gt;Node32 -->
<g id="edge42" class="edge">
<title>Node31&#45;&gt;Node32</title>
<path fill="none" stroke="midnightblue" d="M587.1,-50.31C602.71,-53.5 620.87,-57.22 637.92,-60.71"/>
<polygon fill="midnightblue" stroke="midnightblue" points="637.31,-64.15 647.81,-62.73 638.72,-57.3 637.31,-64.15"/>
</g>
<!-- Node33 -->
<g id="node33" class="node">
<title>Node33</title>
<g id="a_node33"><a xlink:href="classFEN.html#aa59029cbcd63802d3dddd5523f3702e9" target="_top" xlink:title="Save piece.">
<polygon fill="white" stroke="black" points="648,-19.5 648,-38.5 750,-38.5 750,-19.5 648,-19.5"/>
<text text-anchor="middle" x="699" y="-26.5" font-family="Helvetica,sans-Serif" font-size="10.00">FEN::save_pieces</text>
</a>
</g>
</g>
<!-- Node31&#45;&gt;Node33 -->
<g id="edge43" class="edge">
<title>Node31&#45;&gt;Node33</title>
<path fill="none" stroke="midnightblue" d="M587.1,-38.52C602.56,-37.19 620.53,-35.65 637.45,-34.2"/>
<polygon fill="midnightblue" stroke="midnightblue" points="638.15,-37.65 647.81,-33.31 637.55,-30.67 638.15,-37.65"/>
</g>
<!-- Node34 -->
<g id="node34" class="node">
<title>Node34</title>
<g id="a_node34"><a xlink:href="classFEN.html#a0bfe254b9c0c3e163aecf70582e47761" target="_top" xlink:title="Gets types of piece.">
<polygon fill="white" stroke="black" points="787,-19.5 787,-38.5 922,-38.5 922,-19.5 787,-19.5"/>
<text text-anchor="middle" x="854.5" y="-26.5" font-family="Helvetica,sans-Serif" font-size="10.00">FEN::get_piece_notation</text>
</a>
</g>
</g>
<!-- Node33&#45;&gt;Node34 -->
<g id="edge44" class="edge">
<title>Node33&#45;&gt;Node34</title>
<path fill="none" stroke="midnightblue" d="M750.26,-29C758.77,-29 767.78,-29 776.79,-29"/>
<polygon fill="midnightblue" stroke="midnightblue" points="776.93,-32.5 786.93,-29 776.93,-25.5 776.93,-32.5"/>
</g>
<!-- Node35 -->
<g id="node35" class="node">
<title>Node35</title>
<g id="a_node35"><a xlink:href="classPiece.html#a5a18c08757a0eccdc6fd0686d4db6743" target="_top" xlink:title=" ">
<polygon fill="white" stroke="black" points="990.5,-38.5 990.5,-57.5 1084.5,-57.5 1084.5,-38.5 990.5,-38.5"/>
<text text-anchor="middle" x="1037.5" y="-45.5" font-family="Helvetica,sans-Serif" font-size="10.00">Piece::get_color</text>
</a>
</g>
</g>
<!-- Node34&#45;&gt;Node35 -->
<g id="edge45" class="edge">
<title>Node34&#45;&gt;Node35</title>
<path fill="none" stroke="midnightblue" d="M922.13,-35.99C941.26,-38 961.93,-40.17 980.37,-42.11"/>
<polygon fill="midnightblue" stroke="midnightblue" points="980.04,-45.59 990.36,-43.16 980.78,-38.63 980.04,-45.59"/>
</g>
<!-- Node36 -->
<g id="node36" class="node">
<title>Node36</title>
<g id="a_node36"><a xlink:href="classPiece.html#af5e0b1b9ea85bcb3e61bb180005aa28a" target="_top" xlink:title=" ">
<polygon fill="white" stroke="black" points="989.5,-0.5 989.5,-19.5 1085.5,-19.5 1085.5,-0.5 989.5,-0.5"/>
<text text-anchor="middle" x="1037.5" y="-7.5" font-family="Helvetica,sans-Serif" font-size="10.00">Piece::get_piece</text>
</a>
</g>
</g>
<!-- Node34&#45;&gt;Node36 -->
<g id="edge46" class="edge">
<title>Node34&#45;&gt;Node36</title>
<path fill="none" stroke="midnightblue" d="M922.13,-22.01C940.84,-20.04 961.01,-17.92 979.13,-16.02"/>
<polygon fill="midnightblue" stroke="midnightblue" points="979.67,-19.49 989.25,-14.96 978.94,-12.52 979.67,-19.49"/>
</g>
<!-- Node39 -->
<g id="node39" class="node">
<title>Node39</title>
<g id="a_node39"><a xlink:href="classRules.html#ac508b22d87dddf5225cf154785618413" target="_top" xlink:title="Check if stalemate occurs.">
<polygon fill="white" stroke="black" points="649.5,-408.5 649.5,-427.5 748.5,-427.5 748.5,-408.5 649.5,-408.5"/>
<text text-anchor="middle" x="699" y="-415.5" font-family="Helvetica,sans-Serif" font-size="10.00">Rules::stalemate</text>
</a>
</g>
</g>
<!-- Node38&#45;&gt;Node39 -->
<g id="edge49" class="edge">
<title>Node38&#45;&gt;Node39</title>
<path fill="none" stroke="midnightblue" d="M609.87,-411.6C619.52,-412.3 629.44,-413.02 638.99,-413.72"/>
<polygon fill="midnightblue" stroke="midnightblue" points="638.94,-417.22 649.17,-414.45 639.45,-410.24 638.94,-417.22"/>
</g>
<!-- Node39&#45;&gt;Node6 -->
<g id="edge50" class="edge">
<title>Node39&#45;&gt;Node6</title>
<path fill="none" stroke="midnightblue" d="M738.73,-408.41C758.9,-403.42 783.75,-397.27 805.16,-391.97"/>
<polygon fill="midnightblue" stroke="midnightblue" points="806.18,-395.32 815.04,-389.52 804.5,-388.53 806.18,-395.32"/>
</g>
<!-- Node39&#45;&gt;Node9 -->
<g id="edge51" class="edge">
<title>Node39&#45;&gt;Node9</title>
<path fill="none" stroke="midnightblue" d="M748.56,-419.03C794.17,-418.8 863.9,-415.31 922,-399 955.3,-389.65 990.46,-370.58 1012.89,-357.08"/>
<polygon fill="midnightblue" stroke="midnightblue" points="1015,-359.89 1021.69,-351.68 1011.33,-353.93 1015,-359.89"/>
</g>
<!-- Node39&#45;&gt;Node18 -->
<g id="edge52" class="edge">
<title>Node39&#45;&gt;Node18</title>
<path fill="none" stroke="midnightblue" d="M738.73,-427.59C758.9,-432.58 783.75,-438.73 805.16,-444.03"/>
<polygon fill="midnightblue" stroke="midnightblue" points="804.5,-447.47 815.04,-446.48 806.18,-440.68 804.5,-447.47"/>
</g>
</g>
</svg>
