<?xml version="1.0" encoding="UTF-8" standalone="no"?>
<!DOCTYPE svg PUBLIC "-//W3C//DTD SVG 1.1//EN"
 "http://www.w3.org/Graphics/SVG/1.1/DTD/svg11.dtd">
<!-- Generated by graphviz version 2.43.0 (0)
 -->
<!-- Title: File_manager::save_file Pages: 1 -->
<svg width="729pt" height="127pt"
 viewBox="0.00 0.00 729.00 127.00" xmlns="http://www.w3.org/2000/svg" xmlns:xlink="http://www.w3.org/1999/xlink">
<g id="graph0" class="graph" transform="scale(1 1) rotate(0) translate(4 123)">
<title>File_manager::save_file</title>
<polygon fill="white" stroke="transparent" points="-4,4 -4,-123 725,-123 725,4 -4,4"/>
<!-- Node1 -->
<g id="node1" class="node">
<title>Node1</title>
<g id="a_node1"><a xlink:title="Saves file.">
<polygon fill="#bfbfbf" stroke="black" points="0,-50 0,-69 132,-69 132,-50 0,-50"/>
<text text-anchor="middle" x="66" y="-57" font-family="Helvetica,sans-Serif" font-size="10.00">File_manager::save_file</text>
</a>
</g>
</g>
<!-- Node2 -->
<g id="node2" class="node">
<title>Node2</title>
<g id="a_node2"><a xlink:href="classFile__manager.html#a700ed2e80892dd11ec00b150b991db71" target="_top" xlink:title="Checks if file name ends with .txt.">
<polygon fill="white" stroke="black" points="168,-88.5 168,-118.5 280,-118.5 280,-88.5 168,-88.5"/>
<text text-anchor="start" x="176" y="-106.5" font-family="Helvetica,sans-Serif" font-size="10.00">File_manager::ends</text>
<text text-anchor="middle" x="224" y="-95.5" font-family="Helvetica,sans-Serif" font-size="10.00">_with_txt</text>
</a>
</g>
</g>
<!-- Node1&#45;&gt;Node2 -->
<g id="edge1" class="edge">
<title>Node1&#45;&gt;Node2</title>
<path fill="none" stroke="midnightblue" d="M100.85,-69.05C118.1,-73.91 139.65,-79.99 159.82,-85.68"/>
<polygon fill="midnightblue" stroke="midnightblue" points="159.01,-89.09 169.59,-88.43 160.91,-82.35 159.01,-89.09"/>
</g>
<!-- Node3 -->
<g id="node3" class="node">
<title>Node3</title>
<g id="a_node3"><a xlink:href="classFEN.html#a42da90e2b44ecb011e7ec0d86015dffd" target="_top" xlink:title="Gets FEN notation.">
<polygon fill="white" stroke="black" points="182.5,-50 182.5,-69 265.5,-69 265.5,-50 182.5,-50"/>
<text text-anchor="middle" x="224" y="-57" font-family="Helvetica,sans-Serif" font-size="10.00">FEN::get_FEN</text>
</a>
</g>
</g>
<!-- Node1&#45;&gt;Node3 -->
<g id="edge2" class="edge">
<title>Node1&#45;&gt;Node3</title>
<path fill="none" stroke="midnightblue" d="M132.25,-59.5C145.69,-59.5 159.65,-59.5 172.48,-59.5"/>
<polygon fill="midnightblue" stroke="midnightblue" points="172.48,-63 182.48,-59.5 172.48,-56 172.48,-63"/>
</g>
<!-- Node9 -->
<g id="node9" class="node">
<title>Node9</title>
<g id="a_node9"><a xlink:href="classFile__manager.html#a5492c26ed8d51b69935173acf8688e80" target="_top" xlink:title="List all files in directory.">
<polygon fill="white" stroke="black" points="172,-0.5 172,-30.5 276,-30.5 276,-0.5 172,-0.5"/>
<text text-anchor="start" x="180" y="-18.5" font-family="Helvetica,sans-Serif" font-size="10.00">File_manager::list</text>
<text text-anchor="middle" x="224" y="-7.5" font-family="Helvetica,sans-Serif" font-size="10.00">_directory</text>
</a>
</g>
</g>
<!-- Node1&#45;&gt;Node9 -->
<g id="edge8" class="edge">
<title>Node1&#45;&gt;Node9</title>
<path fill="none" stroke="midnightblue" d="M100.85,-49.95C118.72,-44.91 141.2,-38.57 161.99,-32.71"/>
<polygon fill="midnightblue" stroke="midnightblue" points="163.04,-36.05 171.71,-29.97 161.14,-29.31 163.04,-36.05"/>
</g>
<!-- Node4 -->
<g id="node4" class="node">
<title>Node4</title>
<g id="a_node4"><a xlink:href="classInput__handler.html#a7987d8ac8708c84676dd60936341bd8c" target="_top" xlink:title="Converts int to char.">
<polygon fill="white" stroke="black" points="316,-66.5 316,-96.5 418,-96.5 418,-66.5 316,-66.5"/>
<text text-anchor="start" x="324" y="-84.5" font-family="Helvetica,sans-Serif" font-size="10.00">Input_handler::int</text>
<text text-anchor="middle" x="367" y="-73.5" font-family="Helvetica,sans-Serif" font-size="10.00">_to_coordinates</text>
</a>
</g>
</g>
<!-- Node3&#45;&gt;Node4 -->
<g id="edge3" class="edge">
<title>Node3&#45;&gt;Node4</title>
<path fill="none" stroke="midnightblue" d="M265.78,-65.86C278.23,-67.8 292.18,-69.98 305.64,-72.08"/>
<polygon fill="midnightblue" stroke="midnightblue" points="305.37,-75.58 315.79,-73.67 306.45,-68.67 305.37,-75.58"/>
</g>
<!-- Node5 -->
<g id="node5" class="node">
<title>Node5</title>
<g id="a_node5"><a xlink:href="classFEN.html#aa59029cbcd63802d3dddd5523f3702e9" target="_top" xlink:title="Save piece.">
<polygon fill="white" stroke="black" points="316,-28 316,-47 418,-47 418,-28 316,-28"/>
<text text-anchor="middle" x="367" y="-35" font-family="Helvetica,sans-Serif" font-size="10.00">FEN::save_pieces</text>
</a>
</g>
</g>
<!-- Node3&#45;&gt;Node5 -->
<g id="edge4" class="edge">
<title>Node3&#45;&gt;Node5</title>
<path fill="none" stroke="midnightblue" d="M265.78,-53.14C278.23,-51.2 292.18,-49.02 305.64,-46.92"/>
<polygon fill="midnightblue" stroke="midnightblue" points="306.45,-50.33 315.79,-45.33 305.37,-43.42 306.45,-50.33"/>
</g>
<!-- Node6 -->
<g id="node6" class="node">
<title>Node6</title>
<g id="a_node6"><a xlink:href="classFEN.html#a0bfe254b9c0c3e163aecf70582e47761" target="_top" xlink:title="Gets types of piece.">
<polygon fill="white" stroke="black" points="454,-28 454,-47 589,-47 589,-28 454,-28"/>
<text text-anchor="middle" x="521.5" y="-35" font-family="Helvetica,sans-Serif" font-size="10.00">FEN::get_piece_notation</text>
</a>
</g>
</g>
<!-- Node5&#45;&gt;Node6 -->
<g id="edge5" class="edge">
<title>Node5&#45;&gt;Node6</title>
<path fill="none" stroke="midnightblue" d="M418.36,-37.5C426.53,-37.5 435.14,-37.5 443.77,-37.5"/>
<polygon fill="midnightblue" stroke="midnightblue" points="443.88,-41 453.88,-37.5 443.88,-34 443.88,-41"/>
</g>
<!-- Node7 -->
<g id="node7" class="node">
<title>Node7</title>
<g id="a_node7"><a xlink:href="classPiece.html#a5a18c08757a0eccdc6fd0686d4db6743" target="_top" xlink:title=" ">
<polygon fill="white" stroke="black" points="626,-47 626,-66 720,-66 720,-47 626,-47"/>
<text text-anchor="middle" x="673" y="-54" font-family="Helvetica,sans-Serif" font-size="10.00">Piece::get_color</text>
</a>
</g>
</g>
<!-- Node6&#45;&gt;Node7 -->
<g id="edge6" class="edge">
<title>Node6&#45;&gt;Node7</title>
<path fill="none" stroke="midnightblue" d="M589.38,-46C598.21,-47.12 607.19,-48.26 615.81,-49.36"/>
<polygon fill="midnightblue" stroke="midnightblue" points="615.38,-52.83 625.74,-50.62 616.26,-45.89 615.38,-52.83"/>
</g>
<!-- Node8 -->
<g id="node8" class="node">
<title>Node8</title>
<g id="a_node8"><a xlink:href="classPiece.html#af5e0b1b9ea85bcb3e61bb180005aa28a" target="_top" xlink:title=" ">
<polygon fill="white" stroke="black" points="625,-9 625,-28 721,-28 721,-9 625,-9"/>
<text text-anchor="middle" x="673" y="-16" font-family="Helvetica,sans-Serif" font-size="10.00">Piece::get_piece</text>
</a>
</g>
</g>
<!-- Node6&#45;&gt;Node8 -->
<g id="edge7" class="edge">
<title>Node6&#45;&gt;Node8</title>
<path fill="none" stroke="midnightblue" d="M589.38,-29C597.89,-27.92 606.54,-26.82 614.88,-25.76"/>
<polygon fill="midnightblue" stroke="midnightblue" points="615.39,-29.22 624.87,-24.49 614.51,-22.28 615.39,-29.22"/>
</g>
</g>
</svg>
