<?xml version="1.0" encoding="UTF-8" standalone="no"?>
<!DOCTYPE svg PUBLIC "-//W3C//DTD SVG 1.1//EN"
 "http://www.w3.org/Graphics/SVG/1.1/DTD/svg11.dtd">
<!-- Generated by graphviz version 2.43.0 (0)
 -->
<!-- Title: FEN::get_FEN Pages: 1 -->
<svg width="532pt" height="97pt"
 viewBox="0.00 0.00 532.00 96.50" xmlns="http://www.w3.org/2000/svg" xmlns:xlink="http://www.w3.org/1999/xlink">
<g id="graph0" class="graph" transform="scale(1 1) rotate(0) translate(4 92.5)">
<title>FEN::get_FEN</title>
<polygon fill="white" stroke="transparent" points="-4,4 -4,-92.5 528,-92.5 528,4 -4,4"/>
<!-- Node1 -->
<g id="node1" class="node">
<title>Node1</title>
<g id="a_node1"><a xlink:title="Gets FEN notation.">
<polygon fill="#bfbfbf" stroke="black" points="0,-41.5 0,-60.5 83,-60.5 83,-41.5 0,-41.5"/>
<text text-anchor="middle" x="41.5" y="-48.5" font-family="Helvetica,sans-Serif" font-size="10.00">FEN::get_FEN</text>
</a>
</g>
</g>
<!-- Node2 -->
<g id="node2" class="node">
<title>Node2</title>
<g id="a_node2"><a xlink:href="classInput__handler.html#a7987d8ac8708c84676dd60936341bd8c" target="_top" xlink:title="Converts int to char.">
<polygon fill="white" stroke="black" points="119,-58 119,-88 221,-88 221,-58 119,-58"/>
<text text-anchor="start" x="127" y="-76" font-family="Helvetica,sans-Serif" font-size="10.00">Input_handler::int</text>
<text text-anchor="middle" x="170" y="-65" font-family="Helvetica,sans-Serif" font-size="10.00">_to_coordinates</text>
</a>
</g>
</g>
<!-- Node1&#45;&gt;Node2 -->
<g id="edge1" class="edge">
<title>Node1&#45;&gt;Node2</title>
<path fill="none" stroke="midnightblue" d="M83.22,-58.08C91.32,-59.49 99.99,-61 108.58,-62.49"/>
<polygon fill="midnightblue" stroke="midnightblue" points="108.15,-65.97 118.6,-64.23 109.35,-59.07 108.15,-65.97"/>
</g>
<!-- Node3 -->
<g id="node3" class="node">
<title>Node3</title>
<g id="a_node3"><a xlink:href="classFEN.html#aa59029cbcd63802d3dddd5523f3702e9" target="_top" xlink:title="Save piece.">
<polygon fill="white" stroke="black" points="119,-19.5 119,-38.5 221,-38.5 221,-19.5 119,-19.5"/>
<text text-anchor="middle" x="170" y="-26.5" font-family="Helvetica,sans-Serif" font-size="10.00">FEN::save_pieces</text>
</a>
</g>
</g>
<!-- Node1&#45;&gt;Node3 -->
<g id="edge2" class="edge">
<title>Node1&#45;&gt;Node3</title>
<path fill="none" stroke="midnightblue" d="M83.22,-43.92C91.32,-42.51 99.99,-41 108.58,-39.51"/>
<polygon fill="midnightblue" stroke="midnightblue" points="109.35,-42.93 118.6,-37.77 108.15,-36.03 109.35,-42.93"/>
</g>
<!-- Node4 -->
<g id="node4" class="node">
<title>Node4</title>
<g id="a_node4"><a xlink:href="classFEN.html#a0bfe254b9c0c3e163aecf70582e47761" target="_top" xlink:title="Gets types of piece.">
<polygon fill="white" stroke="black" points="257,-19.5 257,-38.5 392,-38.5 392,-19.5 257,-19.5"/>
<text text-anchor="middle" x="324.5" y="-26.5" font-family="Helvetica,sans-Serif" font-size="10.00">FEN::get_piece_notation</text>
</a>
</g>
</g>
<!-- Node3&#45;&gt;Node4 -->
<g id="edge3" class="edge">
<title>Node3&#45;&gt;Node4</title>
<path fill="none" stroke="midnightblue" d="M221.36,-29C229.53,-29 238.14,-29 246.77,-29"/>
<polygon fill="midnightblue" stroke="midnightblue" points="246.88,-32.5 256.88,-29 246.88,-25.5 246.88,-32.5"/>
</g>
<!-- Node5 -->
<g id="node5" class="node">
<title>Node5</title>
<g id="a_node5"><a xlink:href="classPiece.html#a5a18c08757a0eccdc6fd0686d4db6743" target="_top" xlink:title=" ">
<polygon fill="white" stroke="black" points="429,-38.5 429,-57.5 523,-57.5 523,-38.5 429,-38.5"/>
<text text-anchor="middle" x="476" y="-45.5" font-family="Helvetica,sans-Serif" font-size="10.00">Piece::get_color</text>
</a>
</g>
</g>
<!-- Node4&#45;&gt;Node5 -->
<g id="edge4" class="edge">
<title>Node4&#45;&gt;Node5</title>
<path fill="none" stroke="midnightblue" d="M392.38,-37.5C401.21,-38.62 410.19,-39.76 418.81,-40.86"/>
<polygon fill="midnightblue" stroke="midnightblue" points="418.38,-44.33 428.74,-42.12 419.26,-37.39 418.38,-44.33"/>
</g>
<!-- Node6 -->
<g id="node6" class="node">
<title>Node6</title>
<g id="a_node6"><a xlink:href="classPiece.html#af5e0b1b9ea85bcb3e61bb180005aa28a" target="_top" xlink:title=" ">
<polygon fill="white" stroke="black" points="428,-0.5 428,-19.5 524,-19.5 524,-0.5 428,-0.5"/>
<text text-anchor="middle" x="476" y="-7.5" font-family="Helvetica,sans-Serif" font-size="10.00">Piece::get_piece</text>
</a>
</g>
</g>
<!-- Node4&#45;&gt;Node6 -->
<g id="edge5" class="edge">
<title>Node4&#45;&gt;Node6</title>
<path fill="none" stroke="midnightblue" d="M392.38,-20.5C400.89,-19.42 409.54,-18.32 417.88,-17.26"/>
<polygon fill="midnightblue" stroke="midnightblue" points="418.39,-20.72 427.87,-15.99 417.51,-13.78 418.39,-20.72"/>
</g>
</g>
</svg>
