<?xml version="1.0" encoding="UTF-8" standalone="no"?>
<!DOCTYPE svg PUBLIC "-//W3C//DTD SVG 1.1//EN"
 "http://www.w3.org/Graphics/SVG/1.1/DTD/svg11.dtd">
<!-- Generated by graphviz version 2.43.0 (0)
 -->
<!-- Title: Validate::validate_move Pages: 1 -->
<svg width="1198pt" height="241pt"
 viewBox="0.00 0.00 1198.00 241.00" xmlns="http://www.w3.org/2000/svg" xmlns:xlink="http://www.w3.org/1999/xlink">
<g id="graph0" class="graph" transform="scale(1 1) rotate(0) translate(4 237)">
<title>Validate::validate_move</title>
<polygon fill="white" stroke="transparent" points="-4,4 -4,-237 1194,-237 1194,4 -4,4"/>
<!-- Node1 -->
<g id="node1" class="node">
<title>Node1</title>
<g id="a_node1"><a xlink:title="Validates move.">
<polygon fill="#bfbfbf" stroke="black" points="1055,-115.5 1055,-134.5 1190,-134.5 1190,-115.5 1055,-115.5"/>
<text text-anchor="middle" x="1122.5" y="-122.5" font-family="Helvetica,sans-Serif" font-size="10.00">Validate::validate_move</text>
</a>
</g>
</g>
<!-- Node2 -->
<g id="node2" class="node">
<title>Node2</title>
<g id="a_node2"><a xlink:href="classRules.html#a4ec21c1bd51c73135ed26eafa0da58d3" target="_top" xlink:title="Checks if king is in checkmate.">
<polygon fill="white" stroke="black" points="886.5,-213.5 886.5,-232.5 990.5,-232.5 990.5,-213.5 886.5,-213.5"/>
<text text-anchor="middle" x="938.5" y="-220.5" font-family="Helvetica,sans-Serif" font-size="10.00">Rules::checkmate</text>
</a>
</g>
</g>
<!-- Node1&#45;&gt;Node2 -->
<g id="edge1" class="edge">
<title>Node1&#45;&gt;Node2</title>
<path fill="none" stroke="midnightblue" d="M1103.09,-141.22C1083.46,-157.78 1050.88,-183.24 1019,-199 1006.98,-204.94 993.2,-209.74 980.53,-213.43"/>
<polygon fill="midnightblue" stroke="midnightblue" points="1105.6,-143.68 1110.91,-134.51 1101.04,-138.37 1105.6,-143.68"/>
</g>
<!-- Node3 -->
<g id="node3" class="node">
<title>Node3</title>
<g id="a_node3"><a xlink:href="classApplication.html#a162a3f466352b474a10516c7f0b0ae9a" target="_top" xlink:title=" ">
<polygon fill="white" stroke="black" points="691,-175.5 691,-194.5 822,-194.5 822,-175.5 691,-175.5"/>
<text text-anchor="middle" x="756.5" y="-182.5" font-family="Helvetica,sans-Serif" font-size="10.00">Application::play_move</text>
</a>
</g>
</g>
<!-- Node1&#45;&gt;Node3 -->
<g id="edge16" class="edge">
<title>Node1&#45;&gt;Node3</title>
<path fill="none" stroke="midnightblue" d="M1093.58,-138.9C1073.38,-148.26 1045.16,-159.97 1019,-166 953.13,-181.18 875.69,-185.14 822.26,-185.79"/>
<polygon fill="midnightblue" stroke="midnightblue" points="1095.26,-141.97 1102.8,-134.52 1092.26,-135.65 1095.26,-141.97"/>
</g>
<!-- Node13 -->
<g id="node13" class="node">
<title>Node13</title>
<g id="a_node13"><a xlink:href="classMinimax.html#ad75b36d8718f9ad30bb921a483413b1f" target="_top" xlink:title="Minimax algorithm.">
<polygon fill="white" stroke="black" points="858,-137.5 858,-156.5 1019,-156.5 1019,-137.5 858,-137.5"/>
<text text-anchor="middle" x="938.5" y="-144.5" font-family="Helvetica,sans-Serif" font-size="10.00">Minimax::minimax_algorithm</text>
</a>
</g>
</g>
<!-- Node1&#45;&gt;Node13 -->
<g id="edge14" class="edge">
<title>Node1&#45;&gt;Node13</title>
<path fill="none" stroke="midnightblue" d="M1044.63,-134.29C1035.91,-135.35 1027.01,-136.42 1018.26,-137.48"/>
<polygon fill="midnightblue" stroke="midnightblue" points="1045.26,-137.74 1054.76,-133.07 1044.42,-130.79 1045.26,-137.74"/>
</g>
<!-- Node15 -->
<g id="node15" class="node">
<title>Node15</title>
<g id="a_node15"><a xlink:href="classCustom__AI.html#a6d5240fd3f5919086dc0bb74aa02329a" target="_top" xlink:title="Counts all moves for all pieces.">
<polygon fill="white" stroke="black" points="880.5,-88 880.5,-118 996.5,-118 996.5,-88 880.5,-88"/>
<text text-anchor="start" x="888.5" y="-106" font-family="Helvetica,sans-Serif" font-size="10.00">Custom_AI::possible</text>
<text text-anchor="middle" x="938.5" y="-95" font-family="Helvetica,sans-Serif" font-size="10.00">_pieces_and_moves</text>
</a>
</g>
</g>
<!-- Node1&#45;&gt;Node15 -->
<g id="edge17" class="edge">
<title>Node1&#45;&gt;Node15</title>
<path fill="none" stroke="midnightblue" d="M1044.81,-115.73C1028.67,-113.78 1011.91,-111.75 996.64,-109.91"/>
<polygon fill="midnightblue" stroke="midnightblue" points="1044.42,-119.21 1054.76,-116.93 1045.26,-112.26 1044.42,-119.21"/>
</g>
<!-- Node17 -->
<g id="node17" class="node">
<title>Node17</title>
<g id="a_node17"><a xlink:href="classCustom__AI2.html#a7a3ac6cf87a8dd5c0ebabd4281bb6615" target="_top" xlink:title="Counts all moves for all pieces.">
<polygon fill="white" stroke="black" points="877.5,-39 877.5,-69 999.5,-69 999.5,-39 877.5,-39"/>
<text text-anchor="start" x="885.5" y="-57" font-family="Helvetica,sans-Serif" font-size="10.00">Custom_AI2::possible</text>
<text text-anchor="middle" x="938.5" y="-46" font-family="Helvetica,sans-Serif" font-size="10.00">_pieces_and_moves</text>
</a>
</g>
</g>
<!-- Node1&#45;&gt;Node17 -->
<g id="edge19" class="edge">
<title>Node1&#45;&gt;Node17</title>
<path fill="none" stroke="midnightblue" d="M1093.09,-111.17C1072.73,-101.52 1044.5,-88.69 1019,-79 1009.94,-75.56 1000.17,-72.2 990.7,-69.13"/>
<polygon fill="midnightblue" stroke="midnightblue" points="1091.6,-114.34 1102.14,-115.49 1094.62,-108.02 1091.6,-114.34"/>
</g>
<!-- Node19 -->
<g id="node19" class="node">
<title>Node19</title>
<g id="a_node19"><a xlink:href="classRules.html#ac508b22d87dddf5225cf154785618413" target="_top" xlink:title="Check if stalemate occurs.">
<polygon fill="white" stroke="black" points="889,-0.5 889,-19.5 988,-19.5 988,-0.5 889,-0.5"/>
<text text-anchor="middle" x="938.5" y="-7.5" font-family="Helvetica,sans-Serif" font-size="10.00">Rules::stalemate</text>
</a>
</g>
</g>
<!-- Node1&#45;&gt;Node19 -->
<g id="edge21" class="edge">
<title>Node1&#45;&gt;Node19</title>
<path fill="none" stroke="midnightblue" d="M1107.89,-107.58C1089.91,-85.81 1056.15,-48.99 1019,-29 1009.5,-23.89 998.64,-20.14 988.05,-17.39"/>
<polygon fill="midnightblue" stroke="midnightblue" points="1105.18,-109.8 1114.18,-115.38 1110.62,-105.4 1105.18,-109.8"/>
</g>
<!-- Node2&#45;&gt;Node3 -->
<g id="edge2" class="edge">
<title>Node2&#45;&gt;Node3</title>
<path fill="none" stroke="midnightblue" d="M882.17,-211.32C856.64,-205.93 826.72,-199.61 802.59,-194.52"/>
<polygon fill="midnightblue" stroke="midnightblue" points="881.57,-214.77 892.08,-213.41 883.02,-207.92 881.57,-214.77"/>
</g>
<!-- Node4 -->
<g id="node4" class="node">
<title>Node4</title>
<g id="a_node4"><a xlink:href="classApplication.html#a50559888cd4196c7cda01e0a432d609f" target="_top" xlink:title="Changes turn of game.">
<polygon fill="white" stroke="black" points="534.5,-135 534.5,-165 647.5,-165 647.5,-135 534.5,-135"/>
<text text-anchor="start" x="542.5" y="-153" font-family="Helvetica,sans-Serif" font-size="10.00">Application::change</text>
<text text-anchor="middle" x="591" y="-142" font-family="Helvetica,sans-Serif" font-size="10.00">_turns</text>
</a>
</g>
</g>
<!-- Node3&#45;&gt;Node4 -->
<g id="edge3" class="edge">
<title>Node3&#45;&gt;Node4</title>
<path fill="none" stroke="midnightblue" d="M700.98,-173.33C683.85,-169.66 664.93,-165.61 647.72,-161.93"/>
<polygon fill="midnightblue" stroke="midnightblue" points="700.31,-176.77 710.82,-175.44 701.78,-169.92 700.31,-176.77"/>
</g>
<!-- Node5 -->
<g id="node5" class="node">
<title>Node5</title>
<g id="a_node5"><a xlink:href="classApplication.html#aa0cd4150071d630bd7b1f067878f00cd" target="_top" xlink:title="Starts and handles game.">
<polygon fill="white" stroke="black" points="386,-87.5 386,-106.5 491,-106.5 491,-87.5 386,-87.5"/>
<text text-anchor="middle" x="438.5" y="-94.5" font-family="Helvetica,sans-Serif" font-size="10.00">Application::game</text>
</a>
</g>
</g>
<!-- Node4&#45;&gt;Node5 -->
<g id="edge4" class="edge">
<title>Node4&#45;&gt;Node5</title>
<path fill="none" stroke="midnightblue" d="M537.62,-131.55C513.71,-123.13 486.4,-113.52 466.67,-106.57"/>
<polygon fill="midnightblue" stroke="midnightblue" points="536.68,-134.93 547.28,-134.95 539.01,-128.33 536.68,-134.93"/>
</g>
<!-- Node6 -->
<g id="node6" class="node">
<title>Node6</title>
<g id="a_node6"><a xlink:href="classMenu.html#ac90e451d94eb82769cf58eea174667be" target="_top" xlink:title="Load game.">
<polygon fill="white" stroke="black" points="237,-144.5 237,-163.5 341,-163.5 341,-144.5 237,-144.5"/>
<text text-anchor="middle" x="289" y="-151.5" font-family="Helvetica,sans-Serif" font-size="10.00">Menu::load_game</text>
</a>
</g>
</g>
<!-- Node5&#45;&gt;Node6 -->
<g id="edge5" class="edge">
<title>Node5&#45;&gt;Node6</title>
<path fill="none" stroke="midnightblue" d="M407.93,-110.74C391.12,-118.33 369.58,-127.67 350,-135 341.1,-138.33 331.32,-141.59 322.28,-144.45"/>
<polygon fill="midnightblue" stroke="midnightblue" points="409.58,-113.84 417.24,-106.51 406.68,-107.47 409.58,-113.84"/>
</g>
<!-- Node9 -->
<g id="node9" class="node">
<title>Node9</title>
<g id="a_node9"><a xlink:href="classMenu.html#a196d4b882280b81c81409beb8a1a6780" target="_top" xlink:title="Starts game with AI.">
<polygon fill="white" stroke="black" points="229,-106.5 229,-125.5 349,-125.5 349,-106.5 229,-106.5"/>
<text text-anchor="middle" x="289" y="-113.5" font-family="Helvetica,sans-Serif" font-size="10.00">Menu::start_AI_game</text>
</a>
</g>
</g>
<!-- Node5&#45;&gt;Node9 -->
<g id="edge8" class="edge">
<title>Node5&#45;&gt;Node9</title>
<path fill="none" stroke="midnightblue" d="M375.72,-104.96C366.92,-106.09 357.88,-107.26 349.13,-108.38"/>
<polygon fill="midnightblue" stroke="midnightblue" points="376.44,-108.39 385.91,-103.65 375.55,-101.45 376.44,-108.39"/>
</g>
<!-- Node10 -->
<g id="node10" class="node">
<title>Node10</title>
<g id="a_node10"><a xlink:href="classMenu.html#a4e25526f20b92932d0adf9a489356dac" target="_top" xlink:title="Starts game with 2 human players.">
<polygon fill="white" stroke="black" points="236.5,-68.5 236.5,-87.5 341.5,-87.5 341.5,-68.5 236.5,-68.5"/>
<text text-anchor="middle" x="289" y="-75.5" font-family="Helvetica,sans-Serif" font-size="10.00">Menu::start_game</text>
</a>
</g>
</g>
<!-- Node5&#45;&gt;Node10 -->
<g id="edge10" class="edge">
<title>Node5&#45;&gt;Node10</title>
<path fill="none" stroke="midnightblue" d="M375.69,-89.04C364.42,-87.59 352.76,-86.08 341.81,-84.67"/>
<polygon fill="midnightblue" stroke="midnightblue" points="375.55,-92.55 385.91,-90.35 376.44,-85.61 375.55,-92.55"/>
</g>
<!-- Node11 -->
<g id="node11" class="node">
<title>Node11</title>
<g id="a_node11"><a xlink:href="classTutorial.html#ad4a5c074281c25791323e984dba390f2" target="_top" xlink:title="Start tutorial.">
<polygon fill="white" stroke="black" points="228,-30.5 228,-49.5 350,-49.5 350,-30.5 228,-30.5"/>
<text text-anchor="middle" x="289" y="-37.5" font-family="Helvetica,sans-Serif" font-size="10.00">Tutorial::start_tutorial</text>
</a>
</g>
</g>
<!-- Node5&#45;&gt;Node11 -->
<g id="edge12" class="edge">
<title>Node5&#45;&gt;Node11</title>
<path fill="none" stroke="midnightblue" d="M407.93,-83.26C391.12,-75.67 369.58,-66.33 350,-59 341.1,-55.67 331.32,-52.41 322.28,-49.55"/>
<polygon fill="midnightblue" stroke="midnightblue" points="406.68,-86.53 417.24,-87.49 409.58,-80.16 406.68,-86.53"/>
</g>
<!-- Node7 -->
<g id="node7" class="node">
<title>Node7</title>
<g id="a_node7"><a xlink:href="classMenu.html#a35656cd130e24d69383a5c9d0a73a38c" target="_top" xlink:title="Runs menu.">
<polygon fill="white" stroke="black" points="102,-106.5 102,-125.5 167,-125.5 167,-106.5 102,-106.5"/>
<text text-anchor="middle" x="134.5" y="-113.5" font-family="Helvetica,sans-Serif" font-size="10.00">Menu::run</text>
</a>
</g>
</g>
<!-- Node6&#45;&gt;Node7 -->
<g id="edge6" class="edge">
<title>Node6&#45;&gt;Node7</title>
<path fill="none" stroke="midnightblue" d="M239.67,-141.96C216.02,-136.06 188.22,-129.14 167.28,-123.92"/>
<polygon fill="midnightblue" stroke="midnightblue" points="238.97,-145.39 249.52,-144.41 240.66,-138.6 238.97,-145.39"/>
</g>
<!-- Node8 -->
<g id="node8" class="node">
<title>Node8</title>
<g id="a_node8"><a xlink:href="main_8cpp.html#ae66f6b31b5ad750f1fe042a706a4e3d4" target="_top" xlink:title=" ">
<polygon fill="white" stroke="black" points="0,-106.5 0,-125.5 41,-125.5 41,-106.5 0,-106.5"/>
<text text-anchor="middle" x="20.5" y="-113.5" font-family="Helvetica,sans-Serif" font-size="10.00">main</text>
</a>
</g>
</g>
<!-- Node7&#45;&gt;Node8 -->
<g id="edge7" class="edge">
<title>Node7&#45;&gt;Node8</title>
<path fill="none" stroke="midnightblue" d="M91.27,-116C74.01,-116 54.9,-116 41.05,-116"/>
<polygon fill="midnightblue" stroke="midnightblue" points="91.7,-119.5 101.7,-116 91.7,-112.5 91.7,-119.5"/>
</g>
<!-- Node9&#45;&gt;Node7 -->
<g id="edge9" class="edge">
<title>Node9&#45;&gt;Node7</title>
<path fill="none" stroke="midnightblue" d="M218.2,-116C200.38,-116 182.1,-116 167.26,-116"/>
<polygon fill="midnightblue" stroke="midnightblue" points="218.6,-119.5 228.6,-116 218.6,-112.5 218.6,-119.5"/>
</g>
<!-- Node10&#45;&gt;Node7 -->
<g id="edge11" class="edge">
<title>Node10&#45;&gt;Node7</title>
<path fill="none" stroke="midnightblue" d="M239.67,-90.04C216.02,-95.94 188.22,-102.86 167.28,-108.08"/>
<polygon fill="midnightblue" stroke="midnightblue" points="240.66,-93.4 249.52,-87.59 238.97,-86.61 240.66,-93.4"/>
</g>
<!-- Node12 -->
<g id="node12" class="node">
<title>Node12</title>
<g id="a_node12"><a xlink:href="classTutorial.html#a42acfd364d5d606318eda4b733c973da" target="_top" xlink:title="Runs tutorial.">
<polygon fill="white" stroke="black" points="77,-30.5 77,-49.5 192,-49.5 192,-30.5 77,-30.5"/>
<text text-anchor="middle" x="134.5" y="-37.5" font-family="Helvetica,sans-Serif" font-size="10.00">Tutorial::run_tutorial</text>
</a>
</g>
</g>
<!-- Node11&#45;&gt;Node12 -->
<g id="edge13" class="edge">
<title>Node11&#45;&gt;Node12</title>
<path fill="none" stroke="midnightblue" d="M217.52,-40C209.09,-40 200.56,-40 192.35,-40"/>
<polygon fill="midnightblue" stroke="midnightblue" points="217.73,-43.5 227.73,-40 217.73,-36.5 217.73,-43.5"/>
</g>
<!-- Node14 -->
<g id="node14" class="node">
<title>Node14</title>
<g id="a_node14"><a xlink:href="classMinimax.html#af45948f65043449d3c4cfb6c4bbf8251" target="_top" xlink:title="Gets player&#39;s move.">
<polygon fill="white" stroke="black" points="699.5,-137.5 699.5,-156.5 813.5,-156.5 813.5,-137.5 699.5,-137.5"/>
<text text-anchor="middle" x="756.5" y="-144.5" font-family="Helvetica,sans-Serif" font-size="10.00">Minimax::get_move</text>
</a>
</g>
</g>
<!-- Node13&#45;&gt;Node14 -->
<g id="edge15" class="edge">
<title>Node13&#45;&gt;Node14</title>
<path fill="none" stroke="midnightblue" d="M847.63,-147C836.07,-147 824.51,-147 813.7,-147"/>
<polygon fill="midnightblue" stroke="midnightblue" points="847.76,-150.5 857.76,-147 847.76,-143.5 847.76,-150.5"/>
</g>
<!-- Node16 -->
<g id="node16" class="node">
<title>Node16</title>
<g id="a_node16"><a xlink:href="classCustom__AI.html#a29f2c8e38303a9c721307e87d3f385ff" target="_top" xlink:title="Gets player&#39;s move.">
<polygon fill="white" stroke="black" points="694.5,-93.5 694.5,-112.5 818.5,-112.5 818.5,-93.5 694.5,-93.5"/>
<text text-anchor="middle" x="756.5" y="-100.5" font-family="Helvetica,sans-Serif" font-size="10.00">Custom_AI::get_move</text>
</a>
</g>
</g>
<!-- Node15&#45;&gt;Node16 -->
<g id="edge18" class="edge">
<title>Node15&#45;&gt;Node16</title>
<path fill="none" stroke="midnightblue" d="M869.78,-103C853.03,-103 835.18,-103 818.75,-103"/>
<polygon fill="midnightblue" stroke="midnightblue" points="870.05,-106.5 880.05,-103 870.05,-99.5 870.05,-106.5"/>
</g>
<!-- Node18 -->
<g id="node18" class="node">
<title>Node18</title>
<g id="a_node18"><a xlink:href="classCustom__AI2.html#ac5acf2591290121ce91b25c97a6ff96c" target="_top" xlink:title="Gets player&#39;s move.">
<polygon fill="white" stroke="black" points="691.5,-44.5 691.5,-63.5 821.5,-63.5 821.5,-44.5 691.5,-44.5"/>
<text text-anchor="middle" x="756.5" y="-51.5" font-family="Helvetica,sans-Serif" font-size="10.00">Custom_AI2::get_move</text>
</a>
</g>
</g>
<!-- Node17&#45;&gt;Node18 -->
<g id="edge20" class="edge">
<title>Node17&#45;&gt;Node18</title>
<path fill="none" stroke="midnightblue" d="M867.09,-54C852.11,-54 836.37,-54 821.64,-54"/>
<polygon fill="midnightblue" stroke="midnightblue" points="867.31,-57.5 877.31,-54 867.31,-50.5 867.31,-57.5"/>
</g>
<!-- Node20 -->
<g id="node20" class="node">
<title>Node20</title>
<g id="a_node20"><a xlink:href="classGameRules.html#a515085ec1bb0e6ea5c2d12664ec7fc10" target="_top" xlink:title="Checks if the stalemate rule applies.">
<polygon fill="white" stroke="black" points="527,-65.5 527,-84.5 655,-84.5 655,-65.5 527,-65.5"/>
<text text-anchor="middle" x="591" y="-72.5" font-family="Helvetica,sans-Serif" font-size="10.00">GameRules::stalemate</text>
</a>
</g>
</g>
<!-- Node19&#45;&gt;Node20 -->
<g id="edge22" class="edge">
<title>Node19&#45;&gt;Node20</title>
<path fill="none" stroke="midnightblue" d="M878.55,-11.31C828.11,-13.54 753.89,-19.44 691,-35 662.21,-42.12 630.73,-55.97 611.18,-65.35"/>
<polygon fill="midnightblue" stroke="midnightblue" points="878.78,-14.81 888.63,-10.9 878.5,-7.81 878.78,-14.81"/>
</g>
<!-- Node20&#45;&gt;Node5 -->
<g id="edge23" class="edge">
<title>Node20&#45;&gt;Node5</title>
<path fill="none" stroke="midnightblue" d="M516.65,-85.72C508.12,-86.97 499.57,-88.22 491.42,-89.41"/>
<polygon fill="midnightblue" stroke="midnightblue" points="517.22,-89.18 526.61,-84.27 516.21,-82.25 517.22,-89.18"/>
</g>
</g>
</svg>
