<?xml version="1.0" encoding="UTF-8" standalone="no"?>
<!DOCTYPE svg PUBLIC "-//W3C//DTD SVG 1.1//EN"
 "http://www.w3.org/Graphics/SVG/1.1/DTD/svg11.dtd">
<!-- Generated by graphviz version 2.43.0 (0)
 -->
<!-- Title: Piece Pages: 1 -->
<svg width="366pt" height="84pt"
 viewBox="0.00 0.00 365.50 84.00" xmlns="http://www.w3.org/2000/svg" xmlns:xlink="http://www.w3.org/1999/xlink">
<g id="graph0" class="graph" transform="scale(1 1) rotate(0) translate(4 80)">
<title>Piece</title>
<polygon fill="white" stroke="transparent" points="-4,4 -4,-80 361.5,-80 361.5,4 -4,4"/>
<!-- Node1 -->
<g id="node1" class="node">
<title>Node1</title>
<g id="a_node1"><a xlink:title=" ">
<polygon fill="#bfbfbf" stroke="black" points="157.5,-56.5 157.5,-75.5 200.5,-75.5 200.5,-56.5 157.5,-56.5"/>
<text text-anchor="middle" x="179" y="-63.5" font-family="Helvetica,sans-Serif" font-size="10.00">Piece</text>
</a>
</g>
</g>
<!-- Node2 -->
<g id="node2" class="node">
<title>Node2</title>
<g id="a_node2"><a xlink:href="classBishop.html" target="_top" xlink:title="Represents BISHOP.">
<polygon fill="white" stroke="black" points="0,-0.5 0,-19.5 50,-19.5 50,-0.5 0,-0.5"/>
<text text-anchor="middle" x="25" y="-7.5" font-family="Helvetica,sans-Serif" font-size="10.00">Bishop</text>
</a>
</g>
</g>
<!-- Node1&#45;&gt;Node2 -->
<g id="edge1" class="edge">
<title>Node1&#45;&gt;Node2</title>
<path fill="none" stroke="midnightblue" d="M147.6,-53.99C118.56,-43.81 76,-28.88 49.42,-19.56"/>
<polygon fill="midnightblue" stroke="midnightblue" points="146.67,-57.37 157.26,-57.38 148.98,-50.77 146.67,-57.37"/>
</g>
<!-- Node3 -->
<g id="node3" class="node">
<title>Node3</title>
<g id="a_node3"><a xlink:href="classKing.html" target="_top" xlink:title=" ">
<polygon fill="white" stroke="black" points="68,-0.5 68,-19.5 106,-19.5 106,-0.5 68,-0.5"/>
<text text-anchor="middle" x="87" y="-7.5" font-family="Helvetica,sans-Serif" font-size="10.00">King</text>
</a>
</g>
</g>
<!-- Node1&#45;&gt;Node3 -->
<g id="edge2" class="edge">
<title>Node1&#45;&gt;Node3</title>
<path fill="none" stroke="midnightblue" d="M155.45,-51.18C138.52,-41.24 116.22,-28.15 101.74,-19.65"/>
<polygon fill="midnightblue" stroke="midnightblue" points="153.82,-54.28 164.22,-56.32 157.37,-48.24 153.82,-54.28"/>
</g>
<!-- Node4 -->
<g id="node4" class="node">
<title>Node4</title>
<g id="a_node4"><a xlink:href="classKnight.html" target="_top" xlink:title=" ">
<polygon fill="white" stroke="black" points="124,-0.5 124,-19.5 172,-19.5 172,-0.5 124,-0.5"/>
<text text-anchor="middle" x="148" y="-7.5" font-family="Helvetica,sans-Serif" font-size="10.00">Knight</text>
</a>
</g>
</g>
<!-- Node1&#45;&gt;Node4 -->
<g id="edge3" class="edge">
<title>Node1&#45;&gt;Node4</title>
<path fill="none" stroke="midnightblue" d="M168.82,-47.27C163.53,-38.05 157.28,-27.17 153.02,-19.75"/>
<polygon fill="midnightblue" stroke="midnightblue" points="165.87,-49.15 173.88,-56.08 171.94,-45.67 165.87,-49.15"/>
</g>
<!-- Node5 -->
<g id="node5" class="node">
<title>Node5</title>
<g id="a_node5"><a xlink:href="classPawn.html" target="_top" xlink:title=" ">
<polygon fill="white" stroke="black" points="190,-0.5 190,-19.5 232,-19.5 232,-0.5 190,-0.5"/>
<text text-anchor="middle" x="211" y="-7.5" font-family="Helvetica,sans-Serif" font-size="10.00">Pawn</text>
</a>
</g>
</g>
<!-- Node1&#45;&gt;Node5 -->
<g id="edge4" class="edge">
<title>Node1&#45;&gt;Node5</title>
<path fill="none" stroke="midnightblue" d="M189.5,-47.27C194.97,-38.05 201.42,-27.17 205.81,-19.75"/>
<polygon fill="midnightblue" stroke="midnightblue" points="186.37,-45.7 184.28,-56.08 192.39,-49.26 186.37,-45.7"/>
</g>
<!-- Node6 -->
<g id="node6" class="node">
<title>Node6</title>
<g id="a_node6"><a xlink:href="classQueen.html" target="_top" xlink:title=" ">
<polygon fill="white" stroke="black" points="250,-0.5 250,-19.5 298,-19.5 298,-0.5 250,-0.5"/>
<text text-anchor="middle" x="274" y="-7.5" font-family="Helvetica,sans-Serif" font-size="10.00">Queen</text>
</a>
</g>
</g>
<!-- Node1&#45;&gt;Node6 -->
<g id="edge5" class="edge">
<title>Node1&#45;&gt;Node6</title>
<path fill="none" stroke="midnightblue" d="M203.32,-51.18C220.8,-41.24 243.83,-28.15 258.77,-19.65"/>
<polygon fill="midnightblue" stroke="midnightblue" points="201.23,-48.34 194.26,-56.32 204.69,-54.43 201.23,-48.34"/>
</g>
<!-- Node7 -->
<g id="node7" class="node">
<title>Node7</title>
<g id="a_node7"><a xlink:href="classRook.html" target="_top" xlink:title=" ">
<polygon fill="white" stroke="black" points="316.5,-0.5 316.5,-19.5 357.5,-19.5 357.5,-0.5 316.5,-0.5"/>
<text text-anchor="middle" x="337" y="-7.5" font-family="Helvetica,sans-Serif" font-size="10.00">Rook</text>
</a>
</g>
</g>
<!-- Node1&#45;&gt;Node7 -->
<g id="edge6" class="edge">
<title>Node1&#45;&gt;Node7</title>
<path fill="none" stroke="midnightblue" d="M210.21,-54.33C241.58,-43.61 289.05,-27.39 316.13,-18.13"/>
<polygon fill="midnightblue" stroke="midnightblue" points="208.97,-51.06 200.64,-57.6 211.23,-57.68 208.97,-51.06"/>
</g>
</g>
</svg>
