<?xml version="1.0" encoding="UTF-8" standalone="no"?>
<!DOCTYPE svg PUBLIC "-//W3C//DTD SVG 1.1//EN"
 "http://www.w3.org/Graphics/SVG/1.1/DTD/svg11.dtd">
<!-- Generated by graphviz version 2.43.0 (0)
 -->
<!-- Title: Piece::get_position Pages: 1 -->
<svg width="287pt" height="218pt"
 viewBox="0.00 0.00 287.00 218.00" xmlns="http://www.w3.org/2000/svg" xmlns:xlink="http://www.w3.org/1999/xlink">
<g id="graph0" class="graph" transform="scale(1 1) rotate(0) translate(4 214)">
<title>Piece::get_position</title>
<polygon fill="white" stroke="transparent" points="-4,4 -4,-214 283,-214 283,4 -4,4"/>
<!-- Node1 -->
<g id="node1" class="node">
<title>Node1</title>
<g id="a_node1"><a xlink:title=" ">
<polygon fill="#bfbfbf" stroke="black" points="170,-95.5 170,-114.5 279,-114.5 279,-95.5 170,-95.5"/>
<text text-anchor="middle" x="224.5" y="-102.5" font-family="Helvetica,sans-Serif" font-size="10.00">Piece::get_position</text>
</a>
</g>
</g>
<!-- Node2 -->
<g id="node2" class="node">
<title>Node2</title>
<g id="a_node2"><a xlink:href="classBishop.html#a3832d55df1aa1fdc58d25d6617f0f608" target="_top" xlink:title="Find all possible move based on piece type.">
<polygon fill="white" stroke="black" points="0,-190.5 0,-209.5 134,-209.5 134,-190.5 0,-190.5"/>
<text text-anchor="middle" x="67" y="-197.5" font-family="Helvetica,sans-Serif" font-size="10.00">Bishop::possible_moves</text>
</a>
</g>
</g>
<!-- Node1&#45;&gt;Node2 -->
<g id="edge1" class="edge">
<title>Node1&#45;&gt;Node2</title>
<path fill="none" stroke="midnightblue" d="M207.53,-122.32C190.76,-139.53 162.87,-165.52 134,-181 126.96,-184.77 119.08,-187.88 111.29,-190.4"/>
<polygon fill="midnightblue" stroke="midnightblue" points="210.46,-124.32 214.82,-114.66 205.39,-119.49 210.46,-124.32"/>
</g>
<!-- Node3 -->
<g id="node3" class="node">
<title>Node3</title>
<g id="a_node3"><a xlink:href="classKing.html#a58771a57f87a716fe77878da4b276f63" target="_top" xlink:title="Find all possible move based on piece type.">
<polygon fill="white" stroke="black" points="5.5,-152.5 5.5,-171.5 128.5,-171.5 128.5,-152.5 5.5,-152.5"/>
<text text-anchor="middle" x="67" y="-159.5" font-family="Helvetica,sans-Serif" font-size="10.00">King::possible_moves</text>
</a>
</g>
</g>
<!-- Node1&#45;&gt;Node3 -->
<g id="edge2" class="edge">
<title>Node1&#45;&gt;Node3</title>
<path fill="none" stroke="midnightblue" d="M193.3,-118.9C176.12,-126.54 154.08,-135.88 134,-143 124.45,-146.39 113.96,-149.62 104.22,-152.43"/>
<polygon fill="midnightblue" stroke="midnightblue" points="195.12,-121.92 202.81,-114.63 192.25,-115.54 195.12,-121.92"/>
</g>
<!-- Node4 -->
<g id="node4" class="node">
<title>Node4</title>
<g id="a_node4"><a xlink:href="classKnight.html#a687e430ed10b82122b10d39362b344f2" target="_top" xlink:title="Find all possible move based on piece type.">
<polygon fill="white" stroke="black" points="0.5,-114.5 0.5,-133.5 133.5,-133.5 133.5,-114.5 0.5,-114.5"/>
<text text-anchor="middle" x="67" y="-121.5" font-family="Helvetica,sans-Serif" font-size="10.00">Knight::possible_moves</text>
</a>
</g>
</g>
<!-- Node1&#45;&gt;Node4 -->
<g id="edge3" class="edge">
<title>Node1&#45;&gt;Node4</title>
<path fill="none" stroke="midnightblue" d="M159.96,-112.76C151.3,-113.82 142.4,-114.91 133.71,-115.97"/>
<polygon fill="midnightblue" stroke="midnightblue" points="160.48,-116.23 169.99,-111.54 159.64,-109.28 160.48,-116.23"/>
</g>
<!-- Node5 -->
<g id="node5" class="node">
<title>Node5</title>
<g id="a_node5"><a xlink:href="classPawn.html#a4853d78045c8475fa8d4590f5423d0c4" target="_top" xlink:title="Find all possible move based on piece type.">
<polygon fill="white" stroke="black" points="3.5,-76.5 3.5,-95.5 130.5,-95.5 130.5,-76.5 3.5,-76.5"/>
<text text-anchor="middle" x="67" y="-83.5" font-family="Helvetica,sans-Serif" font-size="10.00">Pawn::possible_moves</text>
</a>
</g>
</g>
<!-- Node1&#45;&gt;Node5 -->
<g id="edge4" class="edge">
<title>Node1&#45;&gt;Node5</title>
<path fill="none" stroke="midnightblue" d="M160.04,-97.25C150.36,-96.06 140.38,-94.84 130.72,-93.66"/>
<polygon fill="midnightblue" stroke="midnightblue" points="159.64,-100.72 169.99,-98.46 160.48,-93.77 159.64,-100.72"/>
</g>
<!-- Node6 -->
<g id="node6" class="node">
<title>Node6</title>
<g id="a_node6"><a xlink:href="classQueen.html#a16ba26adbfa8cdc014006528ff4ae43d" target="_top" xlink:title="Find all possible move based on piece type.">
<polygon fill="white" stroke="black" points="0.5,-38.5 0.5,-57.5 133.5,-57.5 133.5,-38.5 0.5,-38.5"/>
<text text-anchor="middle" x="67" y="-45.5" font-family="Helvetica,sans-Serif" font-size="10.00">Queen::possible_moves</text>
</a>
</g>
</g>
<!-- Node1&#45;&gt;Node6 -->
<g id="edge5" class="edge">
<title>Node1&#45;&gt;Node6</title>
<path fill="none" stroke="midnightblue" d="M193.3,-91.1C176.12,-83.46 154.08,-74.12 134,-67 124.45,-63.61 113.96,-60.38 104.22,-57.57"/>
<polygon fill="midnightblue" stroke="midnightblue" points="192.25,-94.46 202.81,-95.37 195.12,-88.08 192.25,-94.46"/>
</g>
<!-- Node7 -->
<g id="node7" class="node">
<title>Node7</title>
<g id="a_node7"><a xlink:href="classRook.html#abde3bedc33d9da3c50521bf70fe26625" target="_top" xlink:title="Find all possible move based on piece type.">
<polygon fill="white" stroke="black" points="4,-0.5 4,-19.5 130,-19.5 130,-0.5 4,-0.5"/>
<text text-anchor="middle" x="67" y="-7.5" font-family="Helvetica,sans-Serif" font-size="10.00">Rook::possible_moves</text>
</a>
</g>
</g>
<!-- Node1&#45;&gt;Node7 -->
<g id="edge6" class="edge">
<title>Node1&#45;&gt;Node7</title>
<path fill="none" stroke="midnightblue" d="M207.53,-87.68C190.76,-70.47 162.87,-44.48 134,-29 126.96,-25.23 119.08,-22.12 111.29,-19.6"/>
<polygon fill="midnightblue" stroke="midnightblue" points="205.39,-90.51 214.82,-95.34 210.46,-85.68 205.39,-90.51"/>
</g>
</g>
</svg>
