<?xml version="1.0" encoding="UTF-8" standalone="no"?>
<!DOCTYPE svg PUBLIC "-//W3C//DTD SVG 1.1//EN"
 "http://www.w3.org/Graphics/SVG/1.1/DTD/svg11.dtd">
<!-- Generated by graphviz version 2.43.0 (0)
 -->
<!-- Title: Validate::valid_position Pages: 1 -->
<svg width="1319pt" height="276pt"
 viewBox="0.00 0.00 1319.00 275.50" xmlns="http://www.w3.org/2000/svg" xmlns:xlink="http://www.w3.org/1999/xlink">
<g id="graph0" class="graph" transform="scale(1 1) rotate(0) translate(4 271.5)">
<title>Validate::valid_position</title>
<polygon fill="white" stroke="transparent" points="-4,4 -4,-271.5 1315,-271.5 1315,4 -4,4"/>
<!-- Node1 -->
<g id="node1" class="node">
<title>Node1</title>
<g id="a_node1"><a xlink:title="Validates position.">
<polygon fill="#bfbfbf" stroke="black" points="1180,-118 1180,-137 1311,-137 1311,-118 1180,-118"/>
<text text-anchor="middle" x="1245.5" y="-125" font-family="Helvetica,sans-Serif" font-size="10.00">Validate::valid_position</text>
</a>
</g>
</g>
<!-- Node2 -->
<g id="node2" class="node">
<title>Node2</title>
<g id="a_node2"><a xlink:href="classRules.html#abd9b013ebba58f9757336a20b2c6bf8e" target="_top" xlink:title="Checks if king is in check.">
<polygon fill="white" stroke="black" points="1055,-137 1055,-156 1144,-156 1144,-137 1055,-137"/>
<text text-anchor="middle" x="1099.5" y="-144" font-family="Helvetica,sans-Serif" font-size="10.00">Rules::checked</text>
</a>
</g>
</g>
<!-- Node1&#45;&gt;Node2 -->
<g id="edge1" class="edge">
<title>Node1&#45;&gt;Node2</title>
<path fill="none" stroke="midnightblue" d="M1169.55,-137.39C1160.93,-138.53 1152.37,-139.66 1144.36,-140.71"/>
<polygon fill="midnightblue" stroke="midnightblue" points="1170.21,-140.83 1179.66,-136.06 1169.29,-133.89 1170.21,-140.83"/>
</g>
<!-- Node3 -->
<g id="node3" class="node">
<title>Node3</title>
<g id="a_node3"><a xlink:href="classRules.html#a4ec21c1bd51c73135ed26eafa0da58d3" target="_top" xlink:title="Checks if king is in checkmate.">
<polygon fill="white" stroke="black" points="886.5,-175 886.5,-194 990.5,-194 990.5,-175 886.5,-175"/>
<text text-anchor="middle" x="938.5" y="-182" font-family="Helvetica,sans-Serif" font-size="10.00">Rules::checkmate</text>
</a>
</g>
</g>
<!-- Node1&#45;&gt;Node3 -->
<g id="edge25" class="edge">
<title>Node1&#45;&gt;Node3</title>
<path fill="none" stroke="midnightblue" d="M1214.88,-141.11C1195.21,-149.55 1168.57,-159.82 1144,-165.5 1092.58,-177.38 1032.27,-181.87 990.53,-183.55"/>
<polygon fill="midnightblue" stroke="midnightblue" points="1216.46,-144.24 1224.22,-137.03 1213.65,-137.83 1216.46,-144.24"/>
</g>
<!-- Node14 -->
<g id="node14" class="node">
<title>Node14</title>
<g id="a_node14"><a xlink:href="classMinimax.html#ad75b36d8718f9ad30bb921a483413b1f" target="_top" xlink:title="Minimax algorithm.">
<polygon fill="white" stroke="black" points="858,-99 858,-118 1019,-118 1019,-99 858,-99"/>
<text text-anchor="middle" x="938.5" y="-106" font-family="Helvetica,sans-Serif" font-size="10.00">Minimax::minimax_algorithm</text>
</a>
</g>
</g>
<!-- Node1&#45;&gt;Node14 -->
<g id="edge26" class="edge">
<title>Node1&#45;&gt;Node14</title>
<path fill="none" stroke="midnightblue" d="M1169.67,-122.84C1123.96,-119.99 1065.55,-116.35 1019.01,-113.45"/>
<polygon fill="midnightblue" stroke="midnightblue" points="1169.62,-126.34 1179.82,-123.47 1170.05,-119.36 1169.62,-126.34"/>
</g>
<!-- Node16 -->
<g id="node16" class="node">
<title>Node16</title>
<g id="a_node16"><a xlink:href="classCustom__AI.html#a6d5240fd3f5919086dc0bb74aa02329a" target="_top" xlink:title="Counts all moves for all pieces.">
<polygon fill="white" stroke="black" points="880.5,-49.5 880.5,-79.5 996.5,-79.5 996.5,-49.5 880.5,-49.5"/>
<text text-anchor="start" x="888.5" y="-67.5" font-family="Helvetica,sans-Serif" font-size="10.00">Custom_AI::possible</text>
<text text-anchor="middle" x="938.5" y="-56.5" font-family="Helvetica,sans-Serif" font-size="10.00">_pieces_and_moves</text>
</a>
</g>
</g>
<!-- Node1&#45;&gt;Node16 -->
<g id="edge27" class="edge">
<title>Node1&#45;&gt;Node16</title>
<path fill="none" stroke="midnightblue" d="M1188.34,-115.9C1133.83,-104.64 1051.52,-87.64 996.68,-76.31"/>
<polygon fill="midnightblue" stroke="midnightblue" points="1187.68,-119.34 1198.18,-117.93 1189.09,-112.48 1187.68,-119.34"/>
</g>
<!-- Node18 -->
<g id="node18" class="node">
<title>Node18</title>
<g id="a_node18"><a xlink:href="classCustom__AI2.html#a7a3ac6cf87a8dd5c0ebabd4281bb6615" target="_top" xlink:title="Counts all moves for all pieces.">
<polygon fill="white" stroke="black" points="877.5,-0.5 877.5,-30.5 999.5,-30.5 999.5,-0.5 877.5,-0.5"/>
<text text-anchor="start" x="885.5" y="-18.5" font-family="Helvetica,sans-Serif" font-size="10.00">Custom_AI2::possible</text>
<text text-anchor="middle" x="938.5" y="-7.5" font-family="Helvetica,sans-Serif" font-size="10.00">_pieces_and_moves</text>
</a>
</g>
</g>
<!-- Node1&#45;&gt;Node18 -->
<g id="edge28" class="edge">
<title>Node1&#45;&gt;Node18</title>
<path fill="none" stroke="midnightblue" d="M1213.95,-113.81C1194.15,-105.09 1167.71,-93.73 1144,-84.5 1089.12,-63.13 1074.88,-59.11 1019,-40.5 1009.12,-37.21 998.5,-33.79 988.35,-30.58"/>
<polygon fill="midnightblue" stroke="midnightblue" points="1212.54,-117.01 1223.1,-117.86 1215.38,-110.61 1212.54,-117.01"/>
</g>
<!-- Node20 -->
<g id="node20" class="node">
<title>Node20</title>
<g id="a_node20"><a xlink:href="classRules.html#ac508b22d87dddf5225cf154785618413" target="_top" xlink:title="Check if stalemate occurs.">
<polygon fill="white" stroke="black" points="889,-213 889,-232 988,-232 988,-213 889,-213"/>
<text text-anchor="middle" x="938.5" y="-220" font-family="Helvetica,sans-Serif" font-size="10.00">Rules::stalemate</text>
</a>
</g>
</g>
<!-- Node1&#45;&gt;Node20 -->
<g id="edge29" class="edge">
<title>Node1&#45;&gt;Node20</title>
<path fill="none" stroke="midnightblue" d="M1222.76,-143.01C1203.11,-156.3 1172.9,-174.91 1144,-185.5 1092.68,-204.31 1030.48,-213.81 988.25,-218.44"/>
<polygon fill="midnightblue" stroke="midnightblue" points="1225.01,-145.71 1231.26,-137.16 1221.04,-139.95 1225.01,-145.71"/>
</g>
<!-- Node2&#45;&gt;Node3 -->
<g id="edge2" class="edge">
<title>Node2&#45;&gt;Node3</title>
<path fill="none" stroke="midnightblue" d="M1048.42,-158.47C1026.14,-163.79 1000.27,-169.98 979.33,-174.98"/>
<polygon fill="midnightblue" stroke="midnightblue" points="1049.47,-161.82 1058.38,-156.09 1047.84,-155.01 1049.47,-161.82"/>
</g>
<!-- Node4 -->
<g id="node4" class="node">
<title>Node4</title>
<g id="a_node4"><a xlink:href="classApplication.html#a162a3f466352b474a10516c7f0b0ae9a" target="_top" xlink:title=" ">
<polygon fill="white" stroke="black" points="691,-169 691,-188 822,-188 822,-169 691,-169"/>
<text text-anchor="middle" x="756.5" y="-176" font-family="Helvetica,sans-Serif" font-size="10.00">Application::play_move</text>
</a>
</g>
</g>
<!-- Node2&#45;&gt;Node4 -->
<g id="edge17" class="edge">
<title>Node2&#45;&gt;Node4</title>
<path fill="none" stroke="midnightblue" d="M1044.98,-149.96C996.2,-153.3 922.17,-158.82 858,-165.5 846.36,-166.71 833.99,-168.17 822.05,-169.67"/>
<polygon fill="midnightblue" stroke="midnightblue" points="1045.25,-153.45 1054.99,-149.28 1044.78,-146.47 1045.25,-153.45"/>
</g>
<!-- Node2&#45;&gt;Node14 -->
<g id="edge15" class="edge">
<title>Node2&#45;&gt;Node14</title>
<path fill="none" stroke="midnightblue" d="M1048.42,-134.53C1026.14,-129.21 1000.27,-123.02 979.33,-118.02"/>
<polygon fill="midnightblue" stroke="midnightblue" points="1047.84,-137.99 1058.38,-136.91 1049.47,-131.18 1047.84,-137.99"/>
</g>
<!-- Node2&#45;&gt;Node16 -->
<g id="edge18" class="edge">
<title>Node2&#45;&gt;Node16</title>
<path fill="none" stroke="midnightblue" d="M1079.89,-130.54C1064.44,-117.95 1041.43,-100.71 1019,-89.5 1011.49,-85.75 1003.31,-82.41 995.13,-79.5"/>
<polygon fill="midnightblue" stroke="midnightblue" points="1077.72,-133.28 1087.64,-136.98 1082.19,-127.9 1077.72,-133.28"/>
</g>
<!-- Node2&#45;&gt;Node18 -->
<g id="edge20" class="edge">
<title>Node2&#45;&gt;Node18</title>
<path fill="none" stroke="midnightblue" d="M1089.15,-127.65C1076.44,-103.93 1051.53,-63.53 1019,-40.5 1013.1,-36.32 1006.46,-32.82 999.62,-29.89"/>
<polygon fill="midnightblue" stroke="midnightblue" points="1086.12,-129.43 1093.83,-136.69 1092.34,-126.21 1086.12,-129.43"/>
</g>
<!-- Node2&#45;&gt;Node20 -->
<g id="edge22" class="edge">
<title>Node2&#45;&gt;Node20</title>
<path fill="none" stroke="midnightblue" d="M1080.35,-162.67C1065.02,-175.52 1041.94,-193.03 1019,-203.5 1009.32,-207.92 998.49,-211.38 988.01,-214.07"/>
<polygon fill="midnightblue" stroke="midnightblue" points="1082.72,-165.25 1088.03,-156.08 1078.16,-159.94 1082.72,-165.25"/>
</g>
<!-- Node3&#45;&gt;Node4 -->
<g id="edge3" class="edge">
<title>Node3&#45;&gt;Node4</title>
<path fill="none" stroke="midnightblue" d="M876.35,-182.46C858.91,-181.88 839.87,-181.25 822.23,-180.66"/>
<polygon fill="midnightblue" stroke="midnightblue" points="876.29,-185.96 886.4,-182.8 876.52,-178.97 876.29,-185.96"/>
</g>
<!-- Node5 -->
<g id="node5" class="node">
<title>Node5</title>
<g id="a_node5"><a xlink:href="classApplication.html#a50559888cd4196c7cda01e0a432d609f" target="_top" xlink:title="Changes turn of game.">
<polygon fill="white" stroke="black" points="534.5,-163.5 534.5,-193.5 647.5,-193.5 647.5,-163.5 534.5,-163.5"/>
<text text-anchor="start" x="542.5" y="-181.5" font-family="Helvetica,sans-Serif" font-size="10.00">Application::change</text>
<text text-anchor="middle" x="591" y="-170.5" font-family="Helvetica,sans-Serif" font-size="10.00">_turns</text>
</a>
</g>
</g>
<!-- Node4&#45;&gt;Node5 -->
<g id="edge4" class="edge">
<title>Node4&#45;&gt;Node5</title>
<path fill="none" stroke="midnightblue" d="M680.74,-178.5C669.62,-178.5 658.33,-178.5 647.7,-178.5"/>
<polygon fill="midnightblue" stroke="midnightblue" points="680.88,-182 690.88,-178.5 680.88,-175 680.88,-182"/>
</g>
<!-- Node6 -->
<g id="node6" class="node">
<title>Node6</title>
<g id="a_node6"><a xlink:href="classApplication.html#aa0cd4150071d630bd7b1f067878f00cd" target="_top" xlink:title="Starts and handles game.">
<polygon fill="white" stroke="black" points="386,-191 386,-210 491,-210 491,-191 386,-191"/>
<text text-anchor="middle" x="438.5" y="-198" font-family="Helvetica,sans-Serif" font-size="10.00">Application::game</text>
</a>
</g>
</g>
<!-- Node5&#45;&gt;Node6 -->
<g id="edge5" class="edge">
<title>Node5&#45;&gt;Node6</title>
<path fill="none" stroke="midnightblue" d="M524.36,-188.1C513.33,-189.71 502.02,-191.36 491.39,-192.91"/>
<polygon fill="midnightblue" stroke="midnightblue" points="525,-191.54 534.39,-186.63 523.99,-184.61 525,-191.54"/>
</g>
<!-- Node7 -->
<g id="node7" class="node">
<title>Node7</title>
<g id="a_node7"><a xlink:href="classMenu.html#ac90e451d94eb82769cf58eea174667be" target="_top" xlink:title="Load game.">
<polygon fill="white" stroke="black" points="237,-248 237,-267 341,-267 341,-248 237,-248"/>
<text text-anchor="middle" x="289" y="-255" font-family="Helvetica,sans-Serif" font-size="10.00">Menu::load_game</text>
</a>
</g>
</g>
<!-- Node6&#45;&gt;Node7 -->
<g id="edge6" class="edge">
<title>Node6&#45;&gt;Node7</title>
<path fill="none" stroke="midnightblue" d="M407.93,-214.24C391.12,-221.83 369.58,-231.17 350,-238.5 341.1,-241.83 331.32,-245.09 322.28,-247.95"/>
<polygon fill="midnightblue" stroke="midnightblue" points="409.58,-217.34 417.24,-210.01 406.68,-210.97 409.58,-217.34"/>
</g>
<!-- Node10 -->
<g id="node10" class="node">
<title>Node10</title>
<g id="a_node10"><a xlink:href="classMenu.html#a196d4b882280b81c81409beb8a1a6780" target="_top" xlink:title="Starts game with AI.">
<polygon fill="white" stroke="black" points="229,-210 229,-229 349,-229 349,-210 229,-210"/>
<text text-anchor="middle" x="289" y="-217" font-family="Helvetica,sans-Serif" font-size="10.00">Menu::start_AI_game</text>
</a>
</g>
</g>
<!-- Node6&#45;&gt;Node10 -->
<g id="edge9" class="edge">
<title>Node6&#45;&gt;Node10</title>
<path fill="none" stroke="midnightblue" d="M375.72,-208.46C366.92,-209.59 357.88,-210.76 349.13,-211.88"/>
<polygon fill="midnightblue" stroke="midnightblue" points="376.44,-211.89 385.91,-207.15 375.55,-204.95 376.44,-211.89"/>
</g>
<!-- Node11 -->
<g id="node11" class="node">
<title>Node11</title>
<g id="a_node11"><a xlink:href="classMenu.html#a4e25526f20b92932d0adf9a489356dac" target="_top" xlink:title="Starts game with 2 human players.">
<polygon fill="white" stroke="black" points="236.5,-172 236.5,-191 341.5,-191 341.5,-172 236.5,-172"/>
<text text-anchor="middle" x="289" y="-179" font-family="Helvetica,sans-Serif" font-size="10.00">Menu::start_game</text>
</a>
</g>
</g>
<!-- Node6&#45;&gt;Node11 -->
<g id="edge11" class="edge">
<title>Node6&#45;&gt;Node11</title>
<path fill="none" stroke="midnightblue" d="M375.69,-192.54C364.42,-191.09 352.76,-189.58 341.81,-188.17"/>
<polygon fill="midnightblue" stroke="midnightblue" points="375.55,-196.05 385.91,-193.85 376.44,-189.11 375.55,-196.05"/>
</g>
<!-- Node12 -->
<g id="node12" class="node">
<title>Node12</title>
<g id="a_node12"><a xlink:href="classTutorial.html#ad4a5c074281c25791323e984dba390f2" target="_top" xlink:title="Start tutorial.">
<polygon fill="white" stroke="black" points="228,-134 228,-153 350,-153 350,-134 228,-134"/>
<text text-anchor="middle" x="289" y="-141" font-family="Helvetica,sans-Serif" font-size="10.00">Tutorial::start_tutorial</text>
</a>
</g>
</g>
<!-- Node6&#45;&gt;Node12 -->
<g id="edge13" class="edge">
<title>Node6&#45;&gt;Node12</title>
<path fill="none" stroke="midnightblue" d="M407.93,-186.76C391.12,-179.17 369.58,-169.83 350,-162.5 341.1,-159.17 331.32,-155.91 322.28,-153.05"/>
<polygon fill="midnightblue" stroke="midnightblue" points="406.68,-190.03 417.24,-190.99 409.58,-183.66 406.68,-190.03"/>
</g>
<!-- Node8 -->
<g id="node8" class="node">
<title>Node8</title>
<g id="a_node8"><a xlink:href="classMenu.html#a35656cd130e24d69383a5c9d0a73a38c" target="_top" xlink:title="Runs menu.">
<polygon fill="white" stroke="black" points="102,-210 102,-229 167,-229 167,-210 102,-210"/>
<text text-anchor="middle" x="134.5" y="-217" font-family="Helvetica,sans-Serif" font-size="10.00">Menu::run</text>
</a>
</g>
</g>
<!-- Node7&#45;&gt;Node8 -->
<g id="edge7" class="edge">
<title>Node7&#45;&gt;Node8</title>
<path fill="none" stroke="midnightblue" d="M239.67,-245.46C216.02,-239.56 188.22,-232.64 167.28,-227.42"/>
<polygon fill="midnightblue" stroke="midnightblue" points="238.97,-248.89 249.52,-247.91 240.66,-242.1 238.97,-248.89"/>
</g>
<!-- Node9 -->
<g id="node9" class="node">
<title>Node9</title>
<g id="a_node9"><a xlink:href="main_8cpp.html#ae66f6b31b5ad750f1fe042a706a4e3d4" target="_top" xlink:title=" ">
<polygon fill="white" stroke="black" points="0,-210 0,-229 41,-229 41,-210 0,-210"/>
<text text-anchor="middle" x="20.5" y="-217" font-family="Helvetica,sans-Serif" font-size="10.00">main</text>
</a>
</g>
</g>
<!-- Node8&#45;&gt;Node9 -->
<g id="edge8" class="edge">
<title>Node8&#45;&gt;Node9</title>
<path fill="none" stroke="midnightblue" d="M91.27,-219.5C74.01,-219.5 54.9,-219.5 41.05,-219.5"/>
<polygon fill="midnightblue" stroke="midnightblue" points="91.7,-223 101.7,-219.5 91.7,-216 91.7,-223"/>
</g>
<!-- Node10&#45;&gt;Node8 -->
<g id="edge10" class="edge">
<title>Node10&#45;&gt;Node8</title>
<path fill="none" stroke="midnightblue" d="M218.2,-219.5C200.38,-219.5 182.1,-219.5 167.26,-219.5"/>
<polygon fill="midnightblue" stroke="midnightblue" points="218.6,-223 228.6,-219.5 218.6,-216 218.6,-223"/>
</g>
<!-- Node11&#45;&gt;Node8 -->
<g id="edge12" class="edge">
<title>Node11&#45;&gt;Node8</title>
<path fill="none" stroke="midnightblue" d="M239.67,-193.54C216.02,-199.44 188.22,-206.36 167.28,-211.58"/>
<polygon fill="midnightblue" stroke="midnightblue" points="240.66,-196.9 249.52,-191.09 238.97,-190.11 240.66,-196.9"/>
</g>
<!-- Node13 -->
<g id="node13" class="node">
<title>Node13</title>
<g id="a_node13"><a xlink:href="classTutorial.html#a42acfd364d5d606318eda4b733c973da" target="_top" xlink:title="Runs tutorial.">
<polygon fill="white" stroke="black" points="77,-134 77,-153 192,-153 192,-134 77,-134"/>
<text text-anchor="middle" x="134.5" y="-141" font-family="Helvetica,sans-Serif" font-size="10.00">Tutorial::run_tutorial</text>
</a>
</g>
</g>
<!-- Node12&#45;&gt;Node13 -->
<g id="edge14" class="edge">
<title>Node12&#45;&gt;Node13</title>
<path fill="none" stroke="midnightblue" d="M217.52,-143.5C209.09,-143.5 200.56,-143.5 192.35,-143.5"/>
<polygon fill="midnightblue" stroke="midnightblue" points="217.73,-147 227.73,-143.5 217.73,-140 217.73,-147"/>
</g>
<!-- Node15 -->
<g id="node15" class="node">
<title>Node15</title>
<g id="a_node15"><a xlink:href="classMinimax.html#af45948f65043449d3c4cfb6c4bbf8251" target="_top" xlink:title="Gets player&#39;s move.">
<polygon fill="white" stroke="black" points="699.5,-99 699.5,-118 813.5,-118 813.5,-99 699.5,-99"/>
<text text-anchor="middle" x="756.5" y="-106" font-family="Helvetica,sans-Serif" font-size="10.00">Minimax::get_move</text>
</a>
</g>
</g>
<!-- Node14&#45;&gt;Node15 -->
<g id="edge16" class="edge">
<title>Node14&#45;&gt;Node15</title>
<path fill="none" stroke="midnightblue" d="M847.63,-108.5C836.07,-108.5 824.51,-108.5 813.7,-108.5"/>
<polygon fill="midnightblue" stroke="midnightblue" points="847.76,-112 857.76,-108.5 847.76,-105 847.76,-112"/>
</g>
<!-- Node17 -->
<g id="node17" class="node">
<title>Node17</title>
<g id="a_node17"><a xlink:href="classCustom__AI.html#a29f2c8e38303a9c721307e87d3f385ff" target="_top" xlink:title="Gets player&#39;s move.">
<polygon fill="white" stroke="black" points="694.5,-55 694.5,-74 818.5,-74 818.5,-55 694.5,-55"/>
<text text-anchor="middle" x="756.5" y="-62" font-family="Helvetica,sans-Serif" font-size="10.00">Custom_AI::get_move</text>
</a>
</g>
</g>
<!-- Node16&#45;&gt;Node17 -->
<g id="edge19" class="edge">
<title>Node16&#45;&gt;Node17</title>
<path fill="none" stroke="midnightblue" d="M869.78,-64.5C853.03,-64.5 835.18,-64.5 818.75,-64.5"/>
<polygon fill="midnightblue" stroke="midnightblue" points="870.05,-68 880.05,-64.5 870.05,-61 870.05,-68"/>
</g>
<!-- Node19 -->
<g id="node19" class="node">
<title>Node19</title>
<g id="a_node19"><a xlink:href="classCustom__AI2.html#ac5acf2591290121ce91b25c97a6ff96c" target="_top" xlink:title="Gets player&#39;s move.">
<polygon fill="white" stroke="black" points="691.5,-6 691.5,-25 821.5,-25 821.5,-6 691.5,-6"/>
<text text-anchor="middle" x="756.5" y="-13" font-family="Helvetica,sans-Serif" font-size="10.00">Custom_AI2::get_move</text>
</a>
</g>
</g>
<!-- Node18&#45;&gt;Node19 -->
<g id="edge21" class="edge">
<title>Node18&#45;&gt;Node19</title>
<path fill="none" stroke="midnightblue" d="M867.09,-15.5C852.11,-15.5 836.37,-15.5 821.64,-15.5"/>
<polygon fill="midnightblue" stroke="midnightblue" points="867.31,-19 877.31,-15.5 867.31,-12 867.31,-19"/>
</g>
<!-- Node21 -->
<g id="node21" class="node">
<title>Node21</title>
<g id="a_node21"><a xlink:href="classGameRules.html#a515085ec1bb0e6ea5c2d12664ec7fc10" target="_top" xlink:title="Checks if the stalemate rule applies.">
<polygon fill="white" stroke="black" points="527,-213 527,-232 655,-232 655,-213 527,-213"/>
<text text-anchor="middle" x="591" y="-220" font-family="Helvetica,sans-Serif" font-size="10.00">GameRules::stalemate</text>
</a>
</g>
</g>
<!-- Node20&#45;&gt;Node21 -->
<g id="edge23" class="edge">
<title>Node20&#45;&gt;Node21</title>
<path fill="none" stroke="midnightblue" d="M878.7,-222.5C816.56,-222.5 718.91,-222.5 655.17,-222.5"/>
<polygon fill="midnightblue" stroke="midnightblue" points="878.73,-226 888.73,-222.5 878.73,-219 878.73,-226"/>
</g>
<!-- Node21&#45;&gt;Node6 -->
<g id="edge24" class="edge">
<title>Node21&#45;&gt;Node6</title>
<path fill="none" stroke="midnightblue" d="M516.65,-211.78C508.12,-210.53 499.57,-209.28 491.42,-208.09"/>
<polygon fill="midnightblue" stroke="midnightblue" points="516.21,-215.25 526.61,-213.23 517.22,-208.32 516.21,-215.25"/>
</g>
</g>
</svg>
