<?xml version="1.0" encoding="UTF-8" standalone="no"?>
<!DOCTYPE svg PUBLIC "-//W3C//DTD SVG 1.1//EN"
 "http://www.w3.org/Graphics/SVG/1.1/DTD/svg11.dtd">
<!-- Generated by graphviz version 2.43.0 (0)
 -->
<!-- Title: Tutorial::start_tutorial Pages: 1 -->
<svg width="1366pt" height="535pt"
 viewBox="0.00 0.00 1366.00 534.50" xmlns="http://www.w3.org/2000/svg" xmlns:xlink="http://www.w3.org/1999/xlink">
<g id="graph0" class="graph" transform="scale(1 1) rotate(0) translate(4 530.5)">
<title>Tutorial::start_tutorial</title>
<polygon fill="white" stroke="transparent" points="-4,4 -4,-530.5 1362,-530.5 1362,4 -4,4"/>
<!-- Node1 -->
<g id="node1" class="node">
<title>Node1</title>
<g id="a_node1"><a xlink:title="Start tutorial.">
<polygon fill="#bfbfbf" stroke="black" points="0,-305 0,-324 122,-324 122,-305 0,-305"/>
<text text-anchor="middle" x="61" y="-312" font-family="Helvetica,sans-Serif" font-size="10.00">Tutorial::start_tutorial</text>
</a>
</g>
</g>
<!-- Node2 -->
<g id="node2" class="node">
<title>Node2</title>
<g id="a_node2"><a xlink:href="classPlayer.html#a962ed5b79d46a442c2a933bfde0f9ce1" target="_top" xlink:title="Fill pieces on chess board.">
<polygon fill="white" stroke="black" points="173.5,-343 173.5,-362 275.5,-362 275.5,-343 173.5,-343"/>
<text text-anchor="middle" x="224.5" y="-350" font-family="Helvetica,sans-Serif" font-size="10.00">Player::fill_pieces</text>
</a>
</g>
</g>
<!-- Node1&#45;&gt;Node2 -->
<g id="edge1" class="edge">
<title>Node1&#45;&gt;Node2</title>
<path fill="none" stroke="midnightblue" d="M102.75,-324.09C124.16,-329.13 150.59,-335.34 173.25,-340.68"/>
<polygon fill="midnightblue" stroke="midnightblue" points="172.5,-344.1 183.04,-342.98 174.11,-337.28 172.5,-344.1"/>
</g>
<!-- Node3 -->
<g id="node3" class="node">
<title>Node3</title>
<g id="a_node3"><a xlink:href="classApplication.html#aa0cd4150071d630bd7b1f067878f00cd" target="_top" xlink:title="Starts and handles game.">
<polygon fill="white" stroke="black" points="172,-305 172,-324 277,-324 277,-305 172,-305"/>
<text text-anchor="middle" x="224.5" y="-312" font-family="Helvetica,sans-Serif" font-size="10.00">Application::game</text>
</a>
</g>
</g>
<!-- Node1&#45;&gt;Node3 -->
<g id="edge2" class="edge">
<title>Node1&#45;&gt;Node3</title>
<path fill="none" stroke="midnightblue" d="M122.14,-314.5C135.02,-314.5 148.64,-314.5 161.59,-314.5"/>
<polygon fill="midnightblue" stroke="midnightblue" points="161.8,-318 171.8,-314.5 161.8,-311 161.8,-318"/>
</g>
<!-- Node42 -->
<g id="node42" class="node">
<title>Node42</title>
<g id="a_node42"><a xlink:href="classFile__manager.html#ade44f79bfec1810354a04dc1829aa2a3" target="_top" xlink:title="Opens file.">
<polygon fill="white" stroke="black" points="158,-175 158,-194 291,-194 291,-175 158,-175"/>
<text text-anchor="middle" x="224.5" y="-182" font-family="Helvetica,sans-Serif" font-size="10.00">File_manager::open_file</text>
</a>
</g>
</g>
<!-- Node1&#45;&gt;Node42 -->
<g id="edge55" class="edge">
<title>Node1&#45;&gt;Node42</title>
<path fill="none" stroke="midnightblue" d="M73.88,-304.94C101.41,-282.78 169.83,-227.7 203.77,-200.38"/>
<polygon fill="midnightblue" stroke="midnightblue" points="206.01,-203.07 211.61,-194.07 201.62,-197.62 206.01,-203.07"/>
</g>
<!-- Node4 -->
<g id="node4" class="node">
<title>Node4</title>
<g id="a_node4"><a xlink:href="classApplication.html#a50559888cd4196c7cda01e0a432d609f" target="_top" xlink:title="Changes turn of game.">
<polygon fill="white" stroke="black" points="351.5,-217.5 351.5,-247.5 464.5,-247.5 464.5,-217.5 351.5,-217.5"/>
<text text-anchor="start" x="359.5" y="-235.5" font-family="Helvetica,sans-Serif" font-size="10.00">Application::change</text>
<text text-anchor="middle" x="408" y="-224.5" font-family="Helvetica,sans-Serif" font-size="10.00">_turns</text>
</a>
</g>
</g>
<!-- Node3&#45;&gt;Node4 -->
<g id="edge3" class="edge">
<title>Node3&#45;&gt;Node4</title>
<path fill="none" stroke="midnightblue" d="M242.81,-304.86C262.78,-293.92 296.76,-275.87 327,-262.5 335.76,-258.63 345.19,-254.8 354.4,-251.24"/>
<polygon fill="midnightblue" stroke="midnightblue" points="355.77,-254.47 363.87,-247.64 353.28,-247.92 355.77,-254.47"/>
</g>
<!-- Node24 -->
<g id="node24" class="node">
<title>Node24</title>
<g id="a_node24"><a xlink:href="classGameRules.html#a8d006d25138133af6fa938c758b2d12f" target="_top" xlink:title="Checks if the dead position applies.">
<polygon fill="white" stroke="black" points="334.5,-179 334.5,-198 481.5,-198 481.5,-179 334.5,-179"/>
<text text-anchor="middle" x="408" y="-186" font-family="Helvetica,sans-Serif" font-size="10.00">GameRules::dead_position</text>
</a>
</g>
</g>
<!-- Node3&#45;&gt;Node24 -->
<g id="edge34" class="edge">
<title>Node3&#45;&gt;Node24</title>
<path fill="none" stroke="midnightblue" d="M231.83,-304.86C246.14,-283.89 283.15,-233.96 327,-208.5 331.72,-205.76 336.81,-203.39 342.05,-201.35"/>
<polygon fill="midnightblue" stroke="midnightblue" points="343.33,-204.61 351.61,-198 341.01,-198 343.33,-204.61"/>
</g>
<!-- Node25 -->
<g id="node25" class="node">
<title>Node25</title>
<g id="a_node25"><a xlink:href="classPlayer.html#a4d6bbea149ca89248c006c2a0ca140b6" target="_top" xlink:title="Delete piece from pieces_pos_.">
<polygon fill="white" stroke="black" points="350,-141 350,-160 466,-160 466,-141 350,-141"/>
<text text-anchor="middle" x="408" y="-148" font-family="Helvetica,sans-Serif" font-size="10.00">Player::delete_piece</text>
</a>
</g>
</g>
<!-- Node3&#45;&gt;Node25 -->
<g id="edge35" class="edge">
<title>Node3&#45;&gt;Node25</title>
<path fill="none" stroke="midnightblue" d="M231.08,-304.74C248.13,-275.23 300.06,-187.8 327,-169.5 331.07,-166.74 335.49,-164.38 340.09,-162.35"/>
<polygon fill="midnightblue" stroke="midnightblue" points="341.66,-165.5 349.75,-158.67 339.16,-158.96 341.66,-165.5"/>
</g>
<!-- Node26 -->
<g id="node26" class="node">
<title>Node26</title>
<g id="a_node26"><a xlink:href="classGameRules.html#aa6f8bc3fd2c7b8fa5dba8dfd241d7740" target="_top" xlink:title="Checks if the half&#45;move rules applies.">
<polygon fill="white" stroke="black" points="340,-507 340,-526 476,-526 476,-507 340,-507"/>
<text text-anchor="middle" x="408" y="-514" font-family="Helvetica,sans-Serif" font-size="10.00">GameRules::half_moves</text>
</a>
</g>
</g>
<!-- Node3&#45;&gt;Node26 -->
<g id="edge36" class="edge">
<title>Node3&#45;&gt;Node26</title>
<path fill="none" stroke="midnightblue" d="M277.26,-323.53C282.39,-326.09 287.12,-329.35 291,-333.5 341.99,-387.99 274.69,-444.28 327,-497.5 328.27,-498.79 329.62,-500.01 331.02,-501.14"/>
<polygon fill="midnightblue" stroke="midnightblue" points="329.39,-504.26 339.66,-506.85 333.24,-498.42 329.39,-504.26"/>
</g>
<!-- Node27 -->
<g id="node27" class="node">
<title>Node27</title>
<g id="a_node27"><a xlink:href="classBoard.html#aa96e4fef113d4a359baf359264c0cf3f" target="_top" xlink:title="Prints chess board.">
<polygon fill="white" stroke="black" points="354.5,-469 354.5,-488 461.5,-488 461.5,-469 354.5,-469"/>
<text text-anchor="middle" x="408" y="-476" font-family="Helvetica,sans-Serif" font-size="10.00">Board::print_board</text>
</a>
</g>
</g>
<!-- Node3&#45;&gt;Node27 -->
<g id="edge37" class="edge">
<title>Node3&#45;&gt;Node27</title>
<path fill="none" stroke="midnightblue" d="M277.01,-323.77C282.18,-326.29 286.99,-329.47 291,-333.5 332.1,-374.77 284.9,-419.26 327,-459.5 332.06,-464.34 338.12,-468.02 344.61,-470.81"/>
<polygon fill="midnightblue" stroke="midnightblue" points="343.76,-474.22 354.35,-474.29 346.11,-467.63 343.76,-474.22"/>
</g>
<!-- Node28 -->
<g id="node28" class="node">
<title>Node28</title>
<g id="a_node28"><a xlink:href="classApplication.html#aea645938276f66ddf06cbb04d6169502" target="_top" xlink:title="Prints result of game (checkmate, tie, pat, game not finished)">
<polygon fill="white" stroke="black" points="358,-419.5 358,-449.5 458,-449.5 458,-419.5 358,-419.5"/>
<text text-anchor="start" x="366" y="-437.5" font-family="Helvetica,sans-Serif" font-size="10.00">Application::print</text>
<text text-anchor="middle" x="408" y="-426.5" font-family="Helvetica,sans-Serif" font-size="10.00">_results</text>
</a>
</g>
</g>
<!-- Node3&#45;&gt;Node28 -->
<g id="edge38" class="edge">
<title>Node3&#45;&gt;Node28</title>
<path fill="none" stroke="midnightblue" d="M275.39,-324.01C281.04,-326.48 286.4,-329.59 291,-333.5 319.46,-357.73 298.79,-384.98 327,-409.5 333.17,-414.86 340.48,-419.07 348.14,-422.38"/>
<polygon fill="midnightblue" stroke="midnightblue" points="347,-425.7 357.59,-425.99 349.5,-419.16 347,-425.7"/>
</g>
<!-- Node29 -->
<g id="node29" class="node">
<title>Node29</title>
<g id="a_node29"><a xlink:href="classFile__manager.html#a0b0b101cb1941cba0e51a2c6dea0919b" target="_top" xlink:title="Saves file.">
<polygon fill="white" stroke="black" points="342,-381 342,-400 474,-400 474,-381 342,-381"/>
<text text-anchor="middle" x="408" y="-388" font-family="Helvetica,sans-Serif" font-size="10.00">File_manager::save_file</text>
</a>
</g>
</g>
<!-- Node3&#45;&gt;Node29 -->
<g id="edge39" class="edge">
<title>Node3&#45;&gt;Node29</title>
<path fill="none" stroke="midnightblue" d="M270.54,-324.11C277.66,-326.59 284.73,-329.68 291,-333.5 310.87,-345.61 306.84,-359.88 327,-371.5 330.86,-373.73 334.97,-375.69 339.21,-377.43"/>
<polygon fill="midnightblue" stroke="midnightblue" points="338.06,-380.73 348.65,-380.87 340.46,-374.15 338.06,-380.73"/>
</g>
<!-- Node38 -->
<g id="node38" class="node">
<title>Node38</title>
<g id="a_node38"><a xlink:href="classGameRules.html#a515085ec1bb0e6ea5c2d12664ec7fc10" target="_top" xlink:title="Checks if the stalemate rule applies.">
<polygon fill="white" stroke="black" points="534,-300 534,-319 662,-319 662,-300 534,-300"/>
<text text-anchor="middle" x="598" y="-307" font-family="Helvetica,sans-Serif" font-size="10.00">GameRules::stalemate</text>
</a>
</g>
</g>
<!-- Node3&#45;&gt;Node38 -->
<g id="edge48" class="edge">
<title>Node3&#45;&gt;Node38</title>
<path fill="none" stroke="midnightblue" d="M266.74,-304.99C285.08,-301.22 307.01,-297.36 327,-295.5 398.69,-288.85 417.15,-290.86 489,-295.5 500.38,-296.23 512.4,-297.4 524.12,-298.75"/>
<polygon fill="midnightblue" stroke="midnightblue" points="523.97,-302.26 534.31,-299.98 524.81,-295.31 523.97,-302.26"/>
</g>
<!-- Node40 -->
<g id="node40" class="node">
<title>Node40</title>
<g id="a_node40"><a xlink:href="classGameRules.html#acbd44f6245c7a7fb0ddf2a7b0fffc923" target="_top" xlink:title="Checks if the threefold repetition rule applies.">
<polygon fill="white" stroke="black" points="346.5,-343 346.5,-362 469.5,-362 469.5,-343 346.5,-343"/>
<text text-anchor="middle" x="408" y="-350" font-family="Helvetica,sans-Serif" font-size="10.00">GameRules::threefold</text>
</a>
</g>
</g>
<!-- Node3&#45;&gt;Node40 -->
<g id="edge53" class="edge">
<title>Node3&#45;&gt;Node40</title>
<path fill="none" stroke="midnightblue" d="M271.3,-324.09C295.68,-329.19 325.86,-335.51 351.56,-340.89"/>
<polygon fill="midnightblue" stroke="midnightblue" points="351.02,-344.36 361.53,-342.98 352.46,-337.5 351.02,-344.36"/>
</g>
<!-- Node41 -->
<g id="node41" class="node">
<title>Node41</title>
<g id="a_node41"><a xlink:href="classGameRules.html#a07b29e4691299df2cfe680af7a59262b" target="_top" xlink:title=" ">
<polygon fill="white" stroke="black" points="327,-305 327,-324 489,-324 489,-305 327,-305"/>
<text text-anchor="middle" x="408" y="-312" font-family="Helvetica,sans-Serif" font-size="10.00">GameRules::update_threefold</text>
</a>
</g>
</g>
<!-- Node3&#45;&gt;Node41 -->
<g id="edge54" class="edge">
<title>Node3&#45;&gt;Node41</title>
<path fill="none" stroke="midnightblue" d="M277.03,-314.5C289.39,-314.5 302.95,-314.5 316.5,-314.5"/>
<polygon fill="midnightblue" stroke="midnightblue" points="316.85,-318 326.85,-314.5 316.85,-311 316.85,-318"/>
</g>
<!-- Node5 -->
<g id="node5" class="node">
<title>Node5</title>
<g id="a_node5"><a xlink:href="classApplication.html#a162a3f466352b474a10516c7f0b0ae9a" target="_top" xlink:title=" ">
<polygon fill="white" stroke="black" points="532.5,-205 532.5,-224 663.5,-224 663.5,-205 532.5,-205"/>
<text text-anchor="middle" x="598" y="-212" font-family="Helvetica,sans-Serif" font-size="10.00">Application::play_move</text>
</a>
</g>
</g>
<!-- Node4&#45;&gt;Node5 -->
<g id="edge4" class="edge">
<title>Node4&#45;&gt;Node5</title>
<path fill="none" stroke="midnightblue" d="M464.64,-227.17C482.63,-225.45 502.88,-223.51 522.03,-221.68"/>
<polygon fill="midnightblue" stroke="midnightblue" points="522.61,-225.14 532.23,-220.7 521.95,-218.17 522.61,-225.14"/>
</g>
<!-- Node6 -->
<g id="node6" class="node">
<title>Node6</title>
<g id="a_node6"><a xlink:href="classRules.html#abd9b013ebba58f9757336a20b2c6bf8e" target="_top" xlink:title="Checks if king is in check.">
<polygon fill="white" stroke="black" points="883,-271 883,-290 972,-290 972,-271 883,-271"/>
<text text-anchor="middle" x="927.5" y="-278" font-family="Helvetica,sans-Serif" font-size="10.00">Rules::checked</text>
</a>
</g>
</g>
<!-- Node5&#45;&gt;Node6 -->
<g id="edge5" class="edge">
<title>Node5&#45;&gt;Node6</title>
<path fill="none" stroke="midnightblue" d="M616.34,-224.15C637.17,-235.24 673.5,-253 707,-261.5 762.38,-275.55 827.86,-279.67 872.8,-280.67"/>
<polygon fill="midnightblue" stroke="midnightblue" points="872.85,-284.17 882.91,-280.85 872.98,-277.17 872.85,-284.17"/>
</g>
<!-- Node10 -->
<g id="node10" class="node">
<title>Node10</title>
<g id="a_node10"><a xlink:href="classRules.html#a4ec21c1bd51c73135ed26eafa0da58d3" target="_top" xlink:title="Checks if king is in checkmate.">
<polygon fill="white" stroke="black" points="713.5,-183 713.5,-202 817.5,-202 817.5,-183 713.5,-183"/>
<text text-anchor="middle" x="765.5" y="-190" font-family="Helvetica,sans-Serif" font-size="10.00">Rules::checkmate</text>
</a>
</g>
</g>
<!-- Node5&#45;&gt;Node10 -->
<g id="edge9" class="edge">
<title>Node5&#45;&gt;Node10</title>
<path fill="none" stroke="midnightblue" d="M663.93,-205.87C676.87,-204.15 690.41,-202.35 703.22,-200.65"/>
<polygon fill="midnightblue" stroke="midnightblue" points="703.85,-204.09 713.3,-199.31 702.93,-197.15 703.85,-204.09"/>
</g>
<!-- Node11 -->
<g id="node11" class="node">
<title>Node11</title>
<g id="a_node11"><a xlink:href="classMove.html#a3765dcce8a7c18e0c2f7ce42c98fa2ba" target="_top" xlink:title="Makes move with piece.">
<polygon fill="white" stroke="black" points="872.5,-145 872.5,-164 982.5,-164 982.5,-145 872.5,-145"/>
<text text-anchor="middle" x="927.5" y="-152" font-family="Helvetica,sans-Serif" font-size="10.00">Move::make_move</text>
</a>
</g>
</g>
<!-- Node5&#45;&gt;Node11 -->
<g id="edge30" class="edge">
<title>Node5&#45;&gt;Node11</title>
<path fill="none" stroke="midnightblue" d="M619.18,-204.9C640.49,-195.23 675.33,-180.74 707,-173.5 758.37,-161.76 818.02,-157.16 862.16,-155.41"/>
<polygon fill="midnightblue" stroke="midnightblue" points="862.32,-158.9 872.18,-155.05 862.06,-151.91 862.32,-158.9"/>
</g>
<!-- Node17 -->
<g id="node17" class="node">
<title>Node17</title>
<g id="a_node17"><a xlink:href="classMove.html#afbed08d3294e3c7913dd27c3d6afd283" target="_top" xlink:title="Undo move.">
<polygon fill="white" stroke="black" points="874,-107 874,-126 981,-126 981,-107 874,-107"/>
<text text-anchor="middle" x="927.5" y="-114" font-family="Helvetica,sans-Serif" font-size="10.00">Move::undo_move</text>
</a>
</g>
</g>
<!-- Node5&#45;&gt;Node17 -->
<g id="edge32" class="edge">
<title>Node5&#45;&gt;Node17</title>
<path fill="none" stroke="midnightblue" d="M612.24,-204.99C631.91,-191.34 670.46,-166.45 707,-153.5 758.03,-135.42 818.94,-126.04 863.63,-121.27"/>
<polygon fill="midnightblue" stroke="midnightblue" points="864.18,-124.73 873.77,-120.23 863.47,-117.76 864.18,-124.73"/>
</g>
<!-- Node18 -->
<g id="node18" class="node">
<title>Node18</title>
<g id="a_node18"><a xlink:href="classValidate.html#afe077c5b0107ffc1c42670e233257b9c" target="_top" xlink:title="Validates move.">
<polygon fill="white" stroke="black" points="860,-347 860,-366 995,-366 995,-347 860,-347"/>
<text text-anchor="middle" x="927.5" y="-354" font-family="Helvetica,sans-Serif" font-size="10.00">Validate::validate_move</text>
</a>
</g>
</g>
<!-- Node5&#45;&gt;Node18 -->
<g id="edge33" class="edge">
<title>Node5&#45;&gt;Node18</title>
<path fill="none" stroke="midnightblue" d="M608.66,-224.04C622.8,-238.15 649.77,-265.6 671,-290.5 688.07,-310.52 683.93,-324.84 707,-337.5 750.09,-361.14 805.22,-365.83 849.45,-364.65"/>
<polygon fill="midnightblue" stroke="midnightblue" points="849.72,-368.14 859.58,-364.27 849.45,-361.15 849.72,-368.14"/>
</g>
<!-- Node22 -->
<g id="node22" class="node">
<title>Node22</title>
<g id="a_node22"><a xlink:href="classPlayer.html#afca2a1d6d42d2f3a04abb9ab5bc3d323" target="_top" xlink:title="Gets player&#39;s move.">
<polygon fill="white" stroke="black" points="714.5,-69 714.5,-88 816.5,-88 816.5,-69 714.5,-69"/>
<text text-anchor="middle" x="765.5" y="-76" font-family="Helvetica,sans-Serif" font-size="10.00">Player::get_move</text>
</a>
</g>
</g>
<!-- Node5&#45;&gt;Node22 -->
<g id="edge29" class="edge">
<title>Node5&#45;&gt;Node22</title>
<path fill="none" stroke="midnightblue" d="M612.68,-204.86C627.91,-193.74 652.77,-174.43 671,-154.5 689.97,-133.76 685.15,-120.18 707,-102.5 711.91,-98.53 717.57,-95.12 723.39,-92.22"/>
<polygon fill="midnightblue" stroke="midnightblue" points="724.89,-95.38 732.57,-88.08 722.02,-89 724.89,-95.38"/>
</g>
<!-- Node23 -->
<g id="node23" class="node">
<title>Node23</title>
<g id="a_node23"><a xlink:href="classApplication.html#afef57a39fdd32b4c10464d8a9d979816" target="_top" xlink:title="Prints who plays next.">
<polygon fill="white" stroke="black" points="715.5,-221.5 715.5,-251.5 815.5,-251.5 815.5,-221.5 715.5,-221.5"/>
<text text-anchor="start" x="723.5" y="-239.5" font-family="Helvetica,sans-Serif" font-size="10.00">Application::print</text>
<text text-anchor="middle" x="765.5" y="-228.5" font-family="Helvetica,sans-Serif" font-size="10.00">_color</text>
</a>
</g>
</g>
<!-- Node5&#45;&gt;Node23 -->
<g id="edge31" class="edge">
<title>Node5&#45;&gt;Node23</title>
<path fill="none" stroke="midnightblue" d="M663.93,-223.13C677.57,-224.94 691.89,-226.85 705.31,-228.63"/>
<polygon fill="midnightblue" stroke="midnightblue" points="704.99,-232.12 715.36,-229.97 705.91,-225.18 704.99,-232.12"/>
</g>
<!-- Node7 -->
<g id="node7" class="node">
<title>Node7</title>
<g id="a_node7"><a xlink:href="classValidate.html#a3e4b7f61bff7ee9d7d839ead34d2d61f" target="_top" xlink:title="Checks if square is empty.">
<polygon fill="white" stroke="black" points="1238.5,-360 1238.5,-379 1345.5,-379 1345.5,-360 1238.5,-360"/>
<text text-anchor="middle" x="1292" y="-367" font-family="Helvetica,sans-Serif" font-size="10.00">Validate::is_empty</text>
</a>
</g>
</g>
<!-- Node6&#45;&gt;Node7 -->
<g id="edge6" class="edge">
<title>Node6&#45;&gt;Node7</title>
<path fill="none" stroke="midnightblue" d="M938.53,-290.12C955.8,-305.99 992.96,-337.21 1031,-350.5 1095.53,-373.04 1174.4,-375.6 1228.24,-373.91"/>
<polygon fill="midnightblue" stroke="midnightblue" points="1228.47,-377.4 1238.33,-373.53 1228.21,-370.41 1228.47,-377.4"/>
</g>
<!-- Node8 -->
<g id="node8" class="node">
<title>Node8</title>
<g id="a_node8"><a xlink:href="classValidate.html#ab5ba0f592c1cd28a57deab9ef608f2df" target="_top" xlink:title="Checks if piece is same color as player.">
<polygon fill="white" stroke="black" points="1226,-265 1226,-284 1358,-284 1358,-265 1226,-265"/>
<text text-anchor="middle" x="1292" y="-272" font-family="Helvetica,sans-Serif" font-size="10.00">Validate::is_same_color</text>
</a>
</g>
</g>
<!-- Node6&#45;&gt;Node8 -->
<g id="edge7" class="edge">
<title>Node6&#45;&gt;Node8</title>
<path fill="none" stroke="midnightblue" d="M972.12,-277.38C990.31,-276.23 1011.67,-275.07 1031,-274.5 1093.18,-272.68 1163.76,-272.82 1215.68,-273.34"/>
<polygon fill="midnightblue" stroke="midnightblue" points="1215.77,-276.84 1225.81,-273.45 1215.84,-269.84 1215.77,-276.84"/>
</g>
<!-- Node9 -->
<g id="node9" class="node">
<title>Node9</title>
<g id="a_node9"><a xlink:href="classValidate.html#a50364e1735875d1d74e7eb251b3fd7e5" target="_top" xlink:title="Validates position.">
<polygon fill="white" stroke="black" points="1045,-284 1045,-303 1176,-303 1176,-284 1045,-284"/>
<text text-anchor="middle" x="1110.5" y="-291" font-family="Helvetica,sans-Serif" font-size="10.00">Validate::valid_position</text>
</a>
</g>
</g>
<!-- Node6&#45;&gt;Node9 -->
<g id="edge8" class="edge">
<title>Node6&#45;&gt;Node9</title>
<path fill="none" stroke="midnightblue" d="M972.32,-283.65C991.1,-285 1013.58,-286.61 1034.86,-288.14"/>
<polygon fill="midnightblue" stroke="midnightblue" points="1034.63,-291.63 1044.86,-288.86 1035.13,-284.65 1034.63,-291.63"/>
</g>
<!-- Node10&#45;&gt;Node6 -->
<g id="edge10" class="edge">
<title>Node10&#45;&gt;Node6</title>
<path fill="none" stroke="midnightblue" d="M798.42,-202.01C806.91,-204.96 815.95,-208.51 824,-212.5 854.17,-227.46 886.05,-249.78 906.1,-264.73"/>
<polygon fill="midnightblue" stroke="midnightblue" points="904.09,-267.6 914.18,-270.83 908.31,-262.01 904.09,-267.6"/>
</g>
<!-- Node10&#45;&gt;Node9 -->
<g id="edge22" class="edge">
<title>Node10&#45;&gt;Node9</title>
<path fill="none" stroke="midnightblue" d="M798.77,-202C861.08,-220.35 997.92,-260.64 1067.33,-281.08"/>
<polygon fill="midnightblue" stroke="midnightblue" points="1066.49,-284.48 1077.07,-283.95 1068.46,-277.77 1066.49,-284.48"/>
</g>
<!-- Node10&#45;&gt;Node11 -->
<g id="edge11" class="edge">
<title>Node10&#45;&gt;Node11</title>
<path fill="none" stroke="midnightblue" d="M806.87,-182.91C827.99,-177.9 854.03,-171.71 876.42,-166.39"/>
<polygon fill="midnightblue" stroke="midnightblue" points="877.49,-169.74 886.42,-164.02 875.88,-162.93 877.49,-169.74"/>
</g>
<!-- Node10&#45;&gt;Node17 -->
<g id="edge20" class="edge">
<title>Node10&#45;&gt;Node17</title>
<path fill="none" stroke="midnightblue" d="M779.81,-182.79C797.39,-170.34 829.7,-148.77 860,-135.5 865.35,-133.15 871.08,-131.01 876.84,-129.08"/>
<polygon fill="midnightblue" stroke="midnightblue" points="878.01,-132.38 886.5,-126.04 875.91,-125.71 878.01,-132.38"/>
</g>
<!-- Node10&#45;&gt;Node18 -->
<g id="edge23" class="edge">
<title>Node10&#45;&gt;Node18</title>
<path fill="none" stroke="midnightblue" d="M807.9,-202.06C813.78,-204.74 819.39,-208.15 824,-212.5 854.43,-241.23 835.44,-265.62 860,-299.5 871.9,-315.91 889.44,-330.69 903.52,-341.09"/>
<polygon fill="midnightblue" stroke="midnightblue" points="901.59,-344 911.76,-346.97 905.65,-338.31 901.59,-344"/>
</g>
<!-- Node12 -->
<g id="node12" class="node">
<title>Node12</title>
<g id="a_node12"><a xlink:href="classPlayer.html#a42e54e616455af5d9d4b6dea514ba7a0" target="_top" xlink:title="Checks player&#39;s pawn promotion.">
<polygon fill="white" stroke="black" points="1048,-132 1048,-151 1173,-151 1173,-132 1048,-132"/>
<text text-anchor="middle" x="1110.5" y="-139" font-family="Helvetica,sans-Serif" font-size="10.00">Player::get_promotion</text>
</a>
</g>
</g>
<!-- Node11&#45;&gt;Node12 -->
<g id="edge12" class="edge">
<title>Node11&#45;&gt;Node12</title>
<path fill="none" stroke="midnightblue" d="M982.81,-150.6C1000.11,-149.36 1019.54,-147.96 1037.88,-146.64"/>
<polygon fill="midnightblue" stroke="midnightblue" points="1038.21,-150.13 1047.94,-145.92 1037.71,-143.15 1038.21,-150.13"/>
</g>
<!-- Node13 -->
<g id="node13" class="node">
<title>Node13</title>
<g id="a_node13"><a xlink:href="classMove.html#a5472b83ec6bcde0fd8c16c4508896ccd" target="_top" xlink:title="Handles casting.">
<polygon fill="white" stroke="black" points="1047.5,-56 1047.5,-75 1173.5,-75 1173.5,-56 1047.5,-56"/>
<text text-anchor="middle" x="1110.5" y="-63" font-family="Helvetica,sans-Serif" font-size="10.00">Move::handle_castling</text>
</a>
</g>
</g>
<!-- Node11&#45;&gt;Node13 -->
<g id="edge13" class="edge">
<title>Node11&#45;&gt;Node13</title>
<path fill="none" stroke="midnightblue" d="M975.94,-144.96C982.65,-142.49 989.22,-139.39 995,-135.5 1016.54,-121 1009.6,-104.2 1031,-89.5 1037.44,-85.08 1044.73,-81.45 1052.2,-78.47"/>
<polygon fill="midnightblue" stroke="midnightblue" points="1053.49,-81.73 1061.71,-75.05 1051.12,-75.14 1053.49,-81.73"/>
</g>
<!-- Node14 -->
<g id="node14" class="node">
<title>Node14</title>
<g id="a_node14"><a xlink:href="classMove.html#a5a18864c15112c49e5a93dbee3f83d1c" target="_top" xlink:title="Moves piece from start to end.">
<polygon fill="white" stroke="black" points="1237.5,-75 1237.5,-94 1346.5,-94 1346.5,-75 1237.5,-75"/>
<text text-anchor="middle" x="1292" y="-82" font-family="Helvetica,sans-Serif" font-size="10.00">Move::move_piece</text>
</a>
</g>
</g>
<!-- Node11&#45;&gt;Node14 -->
<g id="edge15" class="edge">
<title>Node11&#45;&gt;Node14</title>
<path fill="none" stroke="midnightblue" d="M963.49,-144.99C973.7,-142.08 984.83,-138.78 995,-135.5 1011.19,-130.27 1014.5,-126.64 1031,-122.5 1096.99,-105.94 1174.33,-95.78 1227.41,-90.18"/>
<polygon fill="midnightblue" stroke="midnightblue" points="1227.77,-93.66 1237.35,-89.15 1227.05,-86.7 1227.77,-93.66"/>
</g>
<!-- Node15 -->
<g id="node15" class="node">
<title>Node15</title>
<g id="a_node15"><a xlink:href="classMove.html#a9a242db5d52827dd11f81a6aa46e339e" target="_top" xlink:title="Handles pawn promotion.">
<polygon fill="white" stroke="black" points="1060.5,-170 1060.5,-189 1160.5,-189 1160.5,-170 1060.5,-170"/>
<text text-anchor="middle" x="1110.5" y="-177" font-family="Helvetica,sans-Serif" font-size="10.00">Move::promotion</text>
</a>
</g>
</g>
<!-- Node11&#45;&gt;Node15 -->
<g id="edge16" class="edge">
<title>Node11&#45;&gt;Node15</title>
<path fill="none" stroke="midnightblue" d="M982.81,-162C1004.11,-164.94 1028.62,-168.33 1050.37,-171.33"/>
<polygon fill="midnightblue" stroke="midnightblue" points="1050.09,-174.83 1060.47,-172.73 1051.05,-167.89 1050.09,-174.83"/>
</g>
<!-- Node16 -->
<g id="node16" class="node">
<title>Node16</title>
<g id="a_node16"><a xlink:href="classPlayer.html#a620bf4cb1907eafdbcd9252a750ffa8f" target="_top" xlink:title="Update piece&#39;s position on chess board.">
<polygon fill="white" stroke="black" points="1230,-189 1230,-208 1354,-208 1354,-189 1230,-189"/>
<text text-anchor="middle" x="1292" y="-196" font-family="Helvetica,sans-Serif" font-size="10.00">Player::update_pieces</text>
</a>
</g>
</g>
<!-- Node11&#45;&gt;Node16 -->
<g id="edge19" class="edge">
<title>Node11&#45;&gt;Node16</title>
<path fill="none" stroke="midnightblue" d="M944.86,-164.01C964.54,-174.85 998.94,-191.91 1031,-198.5 1093.8,-211.41 1166.95,-209.99 1219.63,-206.18"/>
<polygon fill="midnightblue" stroke="midnightblue" points="1220.18,-209.64 1229.88,-205.38 1219.64,-202.66 1220.18,-209.64"/>
</g>
<!-- Node13&#45;&gt;Node14 -->
<g id="edge14" class="edge">
<title>Node13&#45;&gt;Node14</title>
<path fill="none" stroke="midnightblue" d="M1173.53,-72.07C1190.89,-73.9 1209.79,-75.9 1227.26,-77.75"/>
<polygon fill="midnightblue" stroke="midnightblue" points="1227.04,-81.25 1237.35,-78.82 1227.77,-74.29 1227.04,-81.25"/>
</g>
<!-- Node15&#45;&gt;Node14 -->
<g id="edge17" class="edge">
<title>Node15&#45;&gt;Node14</title>
<path fill="none" stroke="midnightblue" d="M1160.72,-170.85C1170.67,-168.2 1180.87,-164.81 1190,-160.5 1222.49,-145.15 1254.75,-118.34 1273.77,-101.01"/>
<polygon fill="midnightblue" stroke="midnightblue" points="1276.36,-103.38 1281.3,-94.01 1271.6,-98.25 1276.36,-103.38"/>
</g>
<!-- Node15&#45;&gt;Node16 -->
<g id="edge18" class="edge">
<title>Node15&#45;&gt;Node16</title>
<path fill="none" stroke="midnightblue" d="M1160.55,-184.69C1178.84,-186.63 1200,-188.87 1219.88,-190.97"/>
<polygon fill="midnightblue" stroke="midnightblue" points="1219.51,-194.45 1229.82,-192.02 1220.25,-187.49 1219.51,-194.45"/>
</g>
<!-- Node17&#45;&gt;Node14 -->
<g id="edge21" class="edge">
<title>Node17&#45;&gt;Node14</title>
<path fill="none" stroke="midnightblue" d="M938.16,-106.84C955.16,-90.6 992.29,-58.46 1031,-46.5 1098.52,-25.64 1120.47,-33.85 1190,-46.5 1215.39,-51.12 1242.69,-61.77 1262.5,-70.62"/>
<polygon fill="midnightblue" stroke="midnightblue" points="1261.31,-73.92 1271.86,-74.91 1264.23,-67.56 1261.31,-73.92"/>
</g>
<!-- Node19 -->
<g id="node19" class="node">
<title>Node19</title>
<g id="a_node19"><a xlink:href="classValidate.html#ac11fdbf661a340f903a8a8b581710c34" target="_top" xlink:title="Finds all possible moves for piece.">
<polygon fill="white" stroke="black" points="1031,-322 1031,-341 1190,-341 1190,-322 1031,-322"/>
<text text-anchor="middle" x="1110.5" y="-329" font-family="Helvetica,sans-Serif" font-size="10.00">Validate::find_possible_move</text>
</a>
</g>
</g>
<!-- Node18&#45;&gt;Node19 -->
<g id="edge24" class="edge">
<title>Node18&#45;&gt;Node19</title>
<path fill="none" stroke="midnightblue" d="M995.13,-347.3C1006.59,-345.71 1018.6,-344.06 1030.35,-342.43"/>
<polygon fill="midnightblue" stroke="midnightblue" points="1031.16,-345.85 1040.59,-341.02 1030.2,-338.92 1031.16,-345.85"/>
</g>
<!-- Node21 -->
<g id="node21" class="node">
<title>Node21</title>
<g id="a_node21"><a xlink:href="classValidate.html#a6c88b44fd5d40b6aba0812e2d23d8f04" target="_top" xlink:title="Checks if castling is valid.">
<polygon fill="white" stroke="black" points="1045.5,-398 1045.5,-417 1175.5,-417 1175.5,-398 1045.5,-398"/>
<text text-anchor="middle" x="1110.5" y="-405" font-family="Helvetica,sans-Serif" font-size="10.00">Validate::valid_castling</text>
</a>
</g>
</g>
<!-- Node18&#45;&gt;Node21 -->
<g id="edge28" class="edge">
<title>Node18&#45;&gt;Node21</title>
<path fill="none" stroke="midnightblue" d="M962.54,-366.09C991.74,-374.32 1034,-386.23 1065.71,-395.16"/>
<polygon fill="midnightblue" stroke="midnightblue" points="1065.03,-398.61 1075.61,-397.95 1066.93,-391.87 1065.03,-398.61"/>
</g>
<!-- Node19&#45;&gt;Node7 -->
<g id="edge26" class="edge">
<title>Node19&#45;&gt;Node7</title>
<path fill="none" stroke="midnightblue" d="M1156.8,-341.09C1180.91,-346.19 1210.75,-352.51 1236.17,-357.89"/>
<polygon fill="midnightblue" stroke="midnightblue" points="1235.52,-361.33 1246.03,-359.98 1236.97,-354.48 1235.52,-361.33"/>
</g>
<!-- Node19&#45;&gt;Node8 -->
<g id="edge27" class="edge">
<title>Node19&#45;&gt;Node8</title>
<path fill="none" stroke="midnightblue" d="M1154.95,-321.99C1166.42,-319.2 1178.74,-315.97 1190,-312.5 1213.28,-305.33 1238.97,-295.64 1258.61,-287.84"/>
<polygon fill="midnightblue" stroke="midnightblue" points="1260.03,-291.04 1268.01,-284.07 1257.43,-284.55 1260.03,-291.04"/>
</g>
<!-- Node20 -->
<g id="node20" class="node">
<title>Node20</title>
<g id="a_node20"><a xlink:href="classValidate.html#aa7766a323b9443c69e62a05d04f0b217" target="_top" xlink:title="Finds if move is legit.">
<polygon fill="white" stroke="black" points="1235.5,-322 1235.5,-341 1348.5,-341 1348.5,-322 1235.5,-322"/>
<text text-anchor="middle" x="1292" y="-329" font-family="Helvetica,sans-Serif" font-size="10.00">Validate::find_move</text>
</a>
</g>
</g>
<!-- Node19&#45;&gt;Node20 -->
<g id="edge25" class="edge">
<title>Node19&#45;&gt;Node20</title>
<path fill="none" stroke="midnightblue" d="M1190.23,-331.5C1201.84,-331.5 1213.7,-331.5 1225.02,-331.5"/>
<polygon fill="midnightblue" stroke="midnightblue" points="1225.24,-335 1235.24,-331.5 1225.24,-328 1225.24,-335"/>
</g>
<!-- Node30 -->
<g id="node30" class="node">
<title>Node30</title>
<g id="a_node30"><a xlink:href="classFile__manager.html#a700ed2e80892dd11ec00b150b991db71" target="_top" xlink:title="Checks if file name ends with .txt.">
<polygon fill="white" stroke="black" points="542,-459.5 542,-489.5 654,-489.5 654,-459.5 542,-459.5"/>
<text text-anchor="start" x="550" y="-477.5" font-family="Helvetica,sans-Serif" font-size="10.00">File_manager::ends</text>
<text text-anchor="middle" x="598" y="-466.5" font-family="Helvetica,sans-Serif" font-size="10.00">_with_txt</text>
</a>
</g>
</g>
<!-- Node29&#45;&gt;Node30 -->
<g id="edge40" class="edge">
<title>Node29&#45;&gt;Node30</title>
<path fill="none" stroke="midnightblue" d="M464.88,-400.02C473.29,-402.69 481.61,-406.12 489,-410.5 509.29,-422.53 505.27,-436.58 525,-449.5 527.97,-451.44 531.1,-453.25 534.34,-454.94"/>
<polygon fill="midnightblue" stroke="midnightblue" points="533.14,-458.24 543.67,-459.36 536.13,-451.91 533.14,-458.24"/>
</g>
<!-- Node31 -->
<g id="node31" class="node">
<title>Node31</title>
<g id="a_node31"><a xlink:href="classFEN.html#a42da90e2b44ecb011e7ec0d86015dffd" target="_top" xlink:title="Gets FEN notation.">
<polygon fill="white" stroke="black" points="556.5,-421 556.5,-440 639.5,-440 639.5,-421 556.5,-421"/>
<text text-anchor="middle" x="598" y="-428" font-family="Helvetica,sans-Serif" font-size="10.00">FEN::get_FEN</text>
</a>
</g>
</g>
<!-- Node29&#45;&gt;Node31 -->
<g id="edge41" class="edge">
<title>Node29&#45;&gt;Node31</title>
<path fill="none" stroke="midnightblue" d="M454.03,-400.08C481.92,-406.01 517.79,-413.65 546.62,-419.78"/>
<polygon fill="midnightblue" stroke="midnightblue" points="545.99,-423.22 556.5,-421.88 547.45,-416.38 545.99,-423.22"/>
</g>
<!-- Node37 -->
<g id="node37" class="node">
<title>Node37</title>
<g id="a_node37"><a xlink:href="classFile__manager.html#a5492c26ed8d51b69935173acf8688e80" target="_top" xlink:title="List all files in directory.">
<polygon fill="white" stroke="black" points="546,-371.5 546,-401.5 650,-401.5 650,-371.5 546,-371.5"/>
<text text-anchor="start" x="554" y="-389.5" font-family="Helvetica,sans-Serif" font-size="10.00">File_manager::list</text>
<text text-anchor="middle" x="598" y="-378.5" font-family="Helvetica,sans-Serif" font-size="10.00">_directory</text>
</a>
</g>
</g>
<!-- Node29&#45;&gt;Node37 -->
<g id="edge47" class="edge">
<title>Node29&#45;&gt;Node37</title>
<path fill="none" stroke="midnightblue" d="M474.23,-389.11C494.18,-388.69 516.06,-388.22 535.74,-387.8"/>
<polygon fill="midnightblue" stroke="midnightblue" points="535.89,-391.3 545.82,-387.59 535.74,-384.3 535.89,-391.3"/>
</g>
<!-- Node32 -->
<g id="node32" class="node">
<title>Node32</title>
<g id="a_node32"><a xlink:href="classInput__handler.html#a7987d8ac8708c84676dd60936341bd8c" target="_top" xlink:title="Converts int to char.">
<polygon fill="white" stroke="black" points="714.5,-459.5 714.5,-489.5 816.5,-489.5 816.5,-459.5 714.5,-459.5"/>
<text text-anchor="start" x="722.5" y="-477.5" font-family="Helvetica,sans-Serif" font-size="10.00">Input_handler::int</text>
<text text-anchor="middle" x="765.5" y="-466.5" font-family="Helvetica,sans-Serif" font-size="10.00">_to_coordinates</text>
</a>
</g>
</g>
<!-- Node31&#45;&gt;Node32 -->
<g id="edge42" class="edge">
<title>Node31&#45;&gt;Node32</title>
<path fill="none" stroke="midnightblue" d="M634.91,-440.05C655.21,-445.44 681.11,-452.33 704.42,-458.53"/>
<polygon fill="midnightblue" stroke="midnightblue" points="703.66,-461.95 714.22,-461.13 705.45,-455.18 703.66,-461.95"/>
</g>
<!-- Node33 -->
<g id="node33" class="node">
<title>Node33</title>
<g id="a_node33"><a xlink:href="classFEN.html#aa59029cbcd63802d3dddd5523f3702e9" target="_top" xlink:title="Save piece.">
<polygon fill="white" stroke="black" points="714.5,-421 714.5,-440 816.5,-440 816.5,-421 714.5,-421"/>
<text text-anchor="middle" x="765.5" y="-428" font-family="Helvetica,sans-Serif" font-size="10.00">FEN::save_pieces</text>
</a>
</g>
</g>
<!-- Node31&#45;&gt;Node33 -->
<g id="edge43" class="edge">
<title>Node31&#45;&gt;Node33</title>
<path fill="none" stroke="midnightblue" d="M639.91,-430.5C659.24,-430.5 682.71,-430.5 704.04,-430.5"/>
<polygon fill="midnightblue" stroke="midnightblue" points="704.31,-434 714.31,-430.5 704.31,-427 704.31,-434"/>
</g>
<!-- Node34 -->
<g id="node34" class="node">
<title>Node34</title>
<g id="a_node34"><a xlink:href="classFEN.html#a0bfe254b9c0c3e163aecf70582e47761" target="_top" xlink:title="Gets types of piece.">
<polygon fill="white" stroke="black" points="860,-436 860,-455 995,-455 995,-436 860,-436"/>
<text text-anchor="middle" x="927.5" y="-443" font-family="Helvetica,sans-Serif" font-size="10.00">FEN::get_piece_notation</text>
</a>
</g>
</g>
<!-- Node33&#45;&gt;Node34 -->
<g id="edge44" class="edge">
<title>Node33&#45;&gt;Node34</title>
<path fill="none" stroke="midnightblue" d="M816.69,-435.2C827.14,-436.19 838.39,-437.24 849.56,-438.29"/>
<polygon fill="midnightblue" stroke="midnightblue" points="849.48,-441.79 859.77,-439.24 850.14,-434.83 849.48,-441.79"/>
</g>
<!-- Node35 -->
<g id="node35" class="node">
<title>Node35</title>
<g id="a_node35"><a xlink:href="classPiece.html#a5a18c08757a0eccdc6fd0686d4db6743" target="_top" xlink:title=" ">
<polygon fill="white" stroke="black" points="1063.5,-474 1063.5,-493 1157.5,-493 1157.5,-474 1063.5,-474"/>
<text text-anchor="middle" x="1110.5" y="-481" font-family="Helvetica,sans-Serif" font-size="10.00">Piece::get_color</text>
</a>
</g>
</g>
<!-- Node34&#45;&gt;Node35 -->
<g id="edge45" class="edge">
<title>Node34&#45;&gt;Node35</title>
<path fill="none" stroke="midnightblue" d="M974.17,-455.09C998.49,-460.19 1028.58,-466.51 1054.21,-471.89"/>
<polygon fill="midnightblue" stroke="midnightblue" points="1053.65,-475.35 1064.15,-473.98 1055.09,-468.5 1053.65,-475.35"/>
</g>
<!-- Node36 -->
<g id="node36" class="node">
<title>Node36</title>
<g id="a_node36"><a xlink:href="classPiece.html#af5e0b1b9ea85bcb3e61bb180005aa28a" target="_top" xlink:title=" ">
<polygon fill="white" stroke="black" points="1062.5,-436 1062.5,-455 1158.5,-455 1158.5,-436 1062.5,-436"/>
<text text-anchor="middle" x="1110.5" y="-443" font-family="Helvetica,sans-Serif" font-size="10.00">Piece::get_piece</text>
</a>
</g>
</g>
<!-- Node34&#45;&gt;Node36 -->
<g id="edge46" class="edge">
<title>Node34&#45;&gt;Node36</title>
<path fill="none" stroke="midnightblue" d="M995.13,-445.5C1013.84,-445.5 1034.01,-445.5 1052.13,-445.5"/>
<polygon fill="midnightblue" stroke="midnightblue" points="1052.25,-449 1062.25,-445.5 1052.25,-442 1052.25,-449"/>
</g>
<!-- Node39 -->
<g id="node39" class="node">
<title>Node39</title>
<g id="a_node39"><a xlink:href="classRules.html#ac508b22d87dddf5225cf154785618413" target="_top" xlink:title="Check if stalemate occurs.">
<polygon fill="white" stroke="black" points="716,-309 716,-328 815,-328 815,-309 716,-309"/>
<text text-anchor="middle" x="765.5" y="-316" font-family="Helvetica,sans-Serif" font-size="10.00">Rules::stalemate</text>
</a>
</g>
</g>
<!-- Node38&#45;&gt;Node39 -->
<g id="edge49" class="edge">
<title>Node38&#45;&gt;Node39</title>
<path fill="none" stroke="midnightblue" d="M662.04,-312.93C676.37,-313.71 691.55,-314.53 705.7,-315.3"/>
<polygon fill="midnightblue" stroke="midnightblue" points="705.62,-318.8 715.79,-315.85 706,-311.81 705.62,-318.8"/>
</g>
<!-- Node39&#45;&gt;Node6 -->
<g id="edge50" class="edge">
<title>Node39&#45;&gt;Node6</title>
<path fill="none" stroke="midnightblue" d="M806.87,-308.91C827.99,-303.9 854.03,-297.71 876.42,-292.39"/>
<polygon fill="midnightblue" stroke="midnightblue" points="877.49,-295.74 886.42,-290.02 875.88,-288.93 877.49,-295.74"/>
</g>
<!-- Node39&#45;&gt;Node9 -->
<g id="edge51" class="edge">
<title>Node39&#45;&gt;Node9</title>
<path fill="none" stroke="midnightblue" d="M815.28,-314.94C872.54,-310.77 968.14,-303.8 1034.77,-298.95"/>
<polygon fill="midnightblue" stroke="midnightblue" points="1035.07,-302.43 1044.79,-298.22 1034.56,-295.45 1035.07,-302.43"/>
</g>
<!-- Node39&#45;&gt;Node18 -->
<g id="edge52" class="edge">
<title>Node39&#45;&gt;Node18</title>
<path fill="none" stroke="midnightblue" d="M806.87,-328.09C827.99,-333.1 854.03,-339.29 876.42,-344.61"/>
<polygon fill="midnightblue" stroke="midnightblue" points="875.88,-348.07 886.42,-346.98 877.49,-341.26 875.88,-348.07"/>
</g>
<!-- Node43 -->
<g id="node43" class="node">
<title>Node43</title>
<g id="a_node43"><a xlink:href="classFEN.html#a39f6253f19ae04797561c9fea3342cb7" target="_top" xlink:title="Reads FEN notation.">
<polygon fill="white" stroke="black" points="363.5,-88 363.5,-107 452.5,-107 452.5,-88 363.5,-88"/>
<text text-anchor="middle" x="408" y="-95" font-family="Helvetica,sans-Serif" font-size="10.00">FEN::read_FEN</text>
</a>
</g>
</g>
<!-- Node42&#45;&gt;Node43 -->
<g id="edge56" class="edge">
<title>Node42&#45;&gt;Node43</title>
<path fill="none" stroke="midnightblue" d="M242.89,-174.88C262.94,-163.92 296.99,-145.69 327,-131.5 342.08,-124.37 359.04,-117.06 373.46,-111.06"/>
<polygon fill="midnightblue" stroke="midnightblue" points="375.07,-114.18 382.98,-107.13 372.4,-107.71 375.07,-114.18"/>
</g>
<!-- Node44 -->
<g id="node44" class="node">
<title>Node44</title>
<g id="a_node44"><a xlink:href="classInput__handler.html#aeee21ed8a9cdd37b4f39c530e7d2ca15" target="_top" xlink:title="Checks if char is &lt;0, 8&gt;">
<polygon fill="white" stroke="black" points="529.5,-50 529.5,-69 666.5,-69 666.5,-50 529.5,-50"/>
<text text-anchor="middle" x="598" y="-57" font-family="Helvetica,sans-Serif" font-size="10.00">Input_handler::check_col</text>
</a>
</g>
</g>
<!-- Node43&#45;&gt;Node44 -->
<g id="edge57" class="edge">
<title>Node43&#45;&gt;Node44</title>
<path fill="none" stroke="midnightblue" d="M452.6,-88.69C478.49,-83.45 511.63,-76.76 539.62,-71.1"/>
<polygon fill="midnightblue" stroke="midnightblue" points="540.57,-74.48 549.68,-69.06 539.19,-67.62 540.57,-74.48"/>
</g>
<!-- Node45 -->
<g id="node45" class="node">
<title>Node45</title>
<g id="a_node45"><a xlink:href="classInput__handler.html#ae6cc6114be79e000f8a6f7156198e0f4" target="_top" xlink:title="Converts char to int.">
<polygon fill="white" stroke="black" points="525,-0.5 525,-30.5 671,-30.5 671,-0.5 525,-0.5"/>
<text text-anchor="start" x="533" y="-18.5" font-family="Helvetica,sans-Serif" font-size="10.00">Input_handler::coordinates</text>
<text text-anchor="middle" x="598" y="-7.5" font-family="Helvetica,sans-Serif" font-size="10.00">_to_int</text>
</a>
</g>
</g>
<!-- Node43&#45;&gt;Node45 -->
<g id="edge58" class="edge">
<title>Node43&#45;&gt;Node45</title>
<path fill="none" stroke="midnightblue" d="M426.77,-87.92C449.26,-75.99 489.38,-55.37 525,-40.5 530.32,-38.28 535.91,-36.09 541.53,-33.99"/>
<polygon fill="midnightblue" stroke="midnightblue" points="542.78,-37.26 550.98,-30.54 540.38,-30.68 542.78,-37.26"/>
</g>
<!-- Node46 -->
<g id="node46" class="node">
<title>Node46</title>
<g id="a_node46"><a xlink:href="classFEN.html#ad13a4a36c9bebfaf47e275bfe1ee9084" target="_top" xlink:title="Corrects FEN pieces.">
<polygon fill="white" stroke="black" points="529.5,-126 529.5,-145 666.5,-145 666.5,-126 529.5,-126"/>
<text text-anchor="middle" x="598" y="-133" font-family="Helvetica,sans-Serif" font-size="10.00">FEN::correct_FEN_pieces</text>
</a>
</g>
</g>
<!-- Node43&#45;&gt;Node46 -->
<g id="edge59" class="edge">
<title>Node43&#45;&gt;Node46</title>
<path fill="none" stroke="midnightblue" d="M452.6,-106.31C478.49,-111.55 511.63,-118.24 539.62,-123.9"/>
<polygon fill="midnightblue" stroke="midnightblue" points="539.19,-127.38 549.68,-125.94 540.57,-120.52 539.19,-127.38"/>
</g>
<!-- Node47 -->
<g id="node47" class="node">
<title>Node47</title>
<g id="a_node47"><a xlink:href="classFEN.html#a4ce3e20e91398d07dc96524af182e034" target="_top" xlink:title="Fills chess pieces into board.">
<polygon fill="white" stroke="black" points="552.5,-88 552.5,-107 643.5,-107 643.5,-88 552.5,-88"/>
<text text-anchor="middle" x="598" y="-95" font-family="Helvetica,sans-Serif" font-size="10.00">FEN::fill_pieces</text>
</a>
</g>
</g>
<!-- Node43&#45;&gt;Node47 -->
<g id="edge60" class="edge">
<title>Node43&#45;&gt;Node47</title>
<path fill="none" stroke="midnightblue" d="M452.6,-97.5C479.27,-97.5 513.61,-97.5 542.12,-97.5"/>
<polygon fill="midnightblue" stroke="midnightblue" points="542.33,-101 552.33,-97.5 542.33,-94 542.33,-101"/>
</g>
<!-- Node48 -->
<g id="node48" class="node">
<title>Node48</title>
<g id="a_node48"><a xlink:href="classFEN.html#addf59b1321695a3fe9c8588df468954a" target="_top" xlink:title="Place pieces on chess board.">
<polygon fill="white" stroke="black" points="707,-19.5 707,-49.5 824,-49.5 824,-19.5 707,-19.5"/>
<text text-anchor="start" x="715" y="-37.5" font-family="Helvetica,sans-Serif" font-size="10.00">FEN::place_piece_on</text>
<text text-anchor="middle" x="765.5" y="-26.5" font-family="Helvetica,sans-Serif" font-size="10.00">_board</text>
</a>
</g>
</g>
<!-- Node47&#45;&gt;Node48 -->
<g id="edge61" class="edge">
<title>Node47&#45;&gt;Node48</title>
<path fill="none" stroke="midnightblue" d="M641.77,-87.93C651.52,-85.28 661.73,-82.12 671,-78.5 687.86,-71.93 690.69,-67.33 707,-59.5 711.03,-57.57 715.24,-55.61 719.48,-53.69"/>
<polygon fill="midnightblue" stroke="midnightblue" points="721.03,-56.83 728.73,-49.55 718.17,-50.44 721.03,-56.83"/>
</g>
</g>
</svg>
