<?xml version="1.0" encoding="UTF-8" standalone="no"?>
<!DOCTYPE svg PUBLIC "-//W3C//DTD SVG 1.1//EN"
 "http://www.w3.org/Graphics/SVG/1.1/DTD/svg11.dtd">
<!-- Generated by graphviz version 2.43.0 (0)
 -->
<!-- Title: Menu::run Pages: 1 -->
<svg width="1465pt" height="641pt"
 viewBox="0.00 0.00 1465.00 640.50" xmlns="http://www.w3.org/2000/svg" xmlns:xlink="http://www.w3.org/1999/xlink">
<g id="graph0" class="graph" transform="scale(1 1) rotate(0) translate(4 636.5)">
<title>Menu::run</title>
<polygon fill="white" stroke="transparent" points="-4,4 -4,-636.5 1461,-636.5 1461,4 -4,4"/>
<!-- Node1 -->
<g id="node1" class="node">
<title>Node1</title>
<g id="a_node1"><a xlink:title="Runs menu.">
<polygon fill="#bfbfbf" stroke="black" points="0,-264.5 0,-283.5 65,-283.5 65,-264.5 0,-264.5"/>
<text text-anchor="middle" x="32.5" y="-271.5" font-family="Helvetica,sans-Serif" font-size="10.00">Menu::run</text>
</a>
</g>
</g>
<!-- Node2 -->
<g id="node2" class="node">
<title>Node2</title>
<g id="a_node2"><a xlink:href="classMenu.html#ac90e451d94eb82769cf58eea174667be" target="_top" xlink:title="Load game.">
<polygon fill="white" stroke="black" points="109,-362.5 109,-381.5 213,-381.5 213,-362.5 109,-362.5"/>
<text text-anchor="middle" x="161" y="-369.5" font-family="Helvetica,sans-Serif" font-size="10.00">Menu::load_game</text>
</a>
</g>
</g>
<!-- Node1&#45;&gt;Node2 -->
<g id="edge1" class="edge">
<title>Node1&#45;&gt;Node2</title>
<path fill="none" stroke="midnightblue" d="M46.09,-283.75C67.88,-300.63 112.8,-335.43 139.26,-355.93"/>
<polygon fill="midnightblue" stroke="midnightblue" points="137.41,-358.93 147.46,-362.28 141.7,-353.39 137.41,-358.93"/>
</g>
<!-- Node50 -->
<g id="node47" class="node">
<title>Node50</title>
<g id="a_node47"><a xlink:href="classMenu.html#a68710aa5133ced607246c679ec2d2bb4" target="_top" xlink:title="Prints menu.">
<polygon fill="white" stroke="black" points="108.5,-283.5 108.5,-302.5 213.5,-302.5 213.5,-283.5 108.5,-283.5"/>
<text text-anchor="middle" x="161" y="-290.5" font-family="Helvetica,sans-Serif" font-size="10.00">Menu::print_menu</text>
</a>
</g>
</g>
<!-- Node1&#45;&gt;Node50 -->
<g id="edge62" class="edge">
<title>Node1&#45;&gt;Node50</title>
<path fill="none" stroke="midnightblue" d="M65.09,-278.75C75.17,-280.26 86.69,-281.99 98.15,-283.71"/>
<polygon fill="midnightblue" stroke="midnightblue" points="97.75,-287.19 108.16,-285.21 98.79,-280.27 97.75,-287.19"/>
</g>
<!-- Node51 -->
<g id="node48" class="node">
<title>Node51</title>
<g id="a_node48"><a xlink:href="classMenu.html#a196d4b882280b81c81409beb8a1a6780" target="_top" xlink:title="Starts game with AI.">
<polygon fill="white" stroke="black" points="101,-207.5 101,-226.5 221,-226.5 221,-207.5 101,-207.5"/>
<text text-anchor="middle" x="161" y="-214.5" font-family="Helvetica,sans-Serif" font-size="10.00">Menu::start_AI_game</text>
</a>
</g>
</g>
<!-- Node1&#45;&gt;Node51 -->
<g id="edge63" class="edge">
<title>Node1&#45;&gt;Node51</title>
<path fill="none" stroke="midnightblue" d="M48.33,-264.5C61.72,-256.21 82.15,-244.24 101,-236 106.05,-233.79 111.45,-231.7 116.84,-229.78"/>
<polygon fill="midnightblue" stroke="midnightblue" points="118.15,-233.03 126.49,-226.5 115.89,-226.41 118.15,-233.03"/>
</g>
<!-- Node53 -->
<g id="node50" class="node">
<title>Node53</title>
<g id="a_node50"><a xlink:href="classMenu.html#a4e25526f20b92932d0adf9a489356dac" target="_top" xlink:title="Starts game with 2 human players.">
<polygon fill="white" stroke="black" points="108.5,-245.5 108.5,-264.5 213.5,-264.5 213.5,-245.5 108.5,-245.5"/>
<text text-anchor="middle" x="161" y="-252.5" font-family="Helvetica,sans-Serif" font-size="10.00">Menu::start_game</text>
</a>
</g>
</g>
<!-- Node1&#45;&gt;Node53 -->
<g id="edge67" class="edge">
<title>Node1&#45;&gt;Node53</title>
<path fill="none" stroke="midnightblue" d="M65.09,-269.25C75.17,-267.74 86.69,-266.01 98.15,-264.29"/>
<polygon fill="midnightblue" stroke="midnightblue" points="98.79,-267.73 108.16,-262.79 97.75,-260.81 98.79,-267.73"/>
</g>
<!-- Node3 -->
<g id="node3" class="node">
<title>Node3</title>
<g id="a_node3"><a xlink:href="classFile__manager.html#a700ed2e80892dd11ec00b150b991db71" target="_top" xlink:title="Checks if file name ends with .txt.">
<polygon fill="white" stroke="black" points="641,-438 641,-468 753,-468 753,-438 641,-438"/>
<text text-anchor="start" x="649" y="-456" font-family="Helvetica,sans-Serif" font-size="10.00">File_manager::ends</text>
<text text-anchor="middle" x="697" y="-445" font-family="Helvetica,sans-Serif" font-size="10.00">_with_txt</text>
</a>
</g>
</g>
<!-- Node2&#45;&gt;Node3 -->
<g id="edge2" class="edge">
<title>Node2&#45;&gt;Node3</title>
<path fill="none" stroke="midnightblue" d="M188.69,-381.55C207.55,-387.95 233.54,-396.07 257,-401 388,-428.52 544.26,-442.68 630.57,-448.91"/>
<polygon fill="midnightblue" stroke="midnightblue" points="630.52,-452.41 640.74,-449.63 631.01,-445.43 630.52,-452.41"/>
</g>
<!-- Node4 -->
<g id="node4" class="node">
<title>Node4</title>
<g id="a_node4"><a xlink:href="classPlayer.html#a962ed5b79d46a442c2a933bfde0f9ce1" target="_top" xlink:title="Fill pieces on chess board.">
<polygon fill="white" stroke="black" points="272.5,-207.5 272.5,-226.5 374.5,-226.5 374.5,-207.5 272.5,-207.5"/>
<text text-anchor="middle" x="323.5" y="-214.5" font-family="Helvetica,sans-Serif" font-size="10.00">Player::fill_pieces</text>
</a>
</g>
</g>
<!-- Node2&#45;&gt;Node4 -->
<g id="edge3" class="edge">
<title>Node2&#45;&gt;Node4</title>
<path fill="none" stroke="midnightblue" d="M173.6,-362.34C186.43,-351.21 207.11,-331.88 221,-312 242.4,-281.36 228.54,-260.23 257,-236 259.01,-234.29 261.17,-232.73 263.43,-231.31"/>
<polygon fill="midnightblue" stroke="midnightblue" points="265.37,-234.25 272.61,-226.51 262.12,-228.05 265.37,-234.25"/>
</g>
<!-- Node5 -->
<g id="node5" class="node">
<title>Node5</title>
<g id="a_node5"><a xlink:href="classApplication.html#aa0cd4150071d630bd7b1f067878f00cd" target="_top" xlink:title="Starts and handles game.">
<polygon fill="white" stroke="black" points="271,-245.5 271,-264.5 376,-264.5 376,-245.5 271,-245.5"/>
<text text-anchor="middle" x="323.5" y="-252.5" font-family="Helvetica,sans-Serif" font-size="10.00">Application::game</text>
</a>
</g>
</g>
<!-- Node2&#45;&gt;Node5 -->
<g id="edge4" class="edge">
<title>Node2&#45;&gt;Node5</title>
<path fill="none" stroke="midnightblue" d="M175.13,-362.43C202.76,-342.29 267.12,-295.37 300.91,-270.74"/>
<polygon fill="midnightblue" stroke="midnightblue" points="303.17,-273.43 309.18,-264.71 299.04,-267.77 303.17,-273.43"/>
</g>
<!-- Node38 -->
<g id="node35" class="node">
<title>Node38</title>
<g id="a_node35"><a xlink:href="classFile__manager.html#a5492c26ed8d51b69935173acf8688e80" target="_top" xlink:title="List all files in directory.">
<polygon fill="white" stroke="black" points="645,-389 645,-419 749,-419 749,-389 645,-389"/>
<text text-anchor="start" x="653" y="-407" font-family="Helvetica,sans-Serif" font-size="10.00">File_manager::list</text>
<text text-anchor="middle" x="697" y="-396" font-family="Helvetica,sans-Serif" font-size="10.00">_directory</text>
</a>
</g>
</g>
<!-- Node2&#45;&gt;Node38 -->
<g id="edge54" class="edge">
<title>Node2&#45;&gt;Node38</title>
<path fill="none" stroke="midnightblue" d="M213.05,-376.96C266.19,-381.95 351.86,-389.54 426,-394 497.59,-398.31 579.98,-401.04 634.73,-402.54"/>
<polygon fill="midnightblue" stroke="midnightblue" points="634.87,-406.04 644.96,-402.81 635.06,-399.04 634.87,-406.04"/>
</g>
<!-- Node43 -->
<g id="node40" class="node">
<title>Node43</title>
<g id="a_node40"><a xlink:href="classFile__manager.html#ade44f79bfec1810354a04dc1829aa2a3" target="_top" xlink:title="Opens file.">
<polygon fill="white" stroke="black" points="257,-502.5 257,-521.5 390,-521.5 390,-502.5 257,-502.5"/>
<text text-anchor="middle" x="323.5" y="-509.5" font-family="Helvetica,sans-Serif" font-size="10.00">File_manager::open_file</text>
</a>
</g>
</g>
<!-- Node2&#45;&gt;Node43 -->
<g id="edge55" class="edge">
<title>Node2&#45;&gt;Node43</title>
<path fill="none" stroke="midnightblue" d="M170.69,-381.61C186.85,-399.24 223,-437.58 257,-466 270.21,-477.04 285.98,-488.17 298.74,-496.72"/>
<polygon fill="midnightblue" stroke="midnightblue" points="297.14,-499.86 307.41,-502.45 300.99,-494.02 297.14,-499.86"/>
</g>
<!-- Node6 -->
<g id="node6" class="node">
<title>Node6</title>
<g id="a_node6"><a xlink:href="classApplication.html#a50559888cd4196c7cda01e0a432d609f" target="_top" xlink:title="Changes turn of game.">
<polygon fill="white" stroke="black" points="450.5,-191 450.5,-221 563.5,-221 563.5,-191 450.5,-191"/>
<text text-anchor="start" x="458.5" y="-209" font-family="Helvetica,sans-Serif" font-size="10.00">Application::change</text>
<text text-anchor="middle" x="507" y="-198" font-family="Helvetica,sans-Serif" font-size="10.00">_turns</text>
</a>
</g>
</g>
<!-- Node5&#45;&gt;Node6 -->
<g id="edge5" class="edge">
<title>Node5&#45;&gt;Node6</title>
<path fill="none" stroke="midnightblue" d="M359.93,-245.44C382.8,-239.26 413.27,-231.04 440.45,-223.7"/>
<polygon fill="midnightblue" stroke="midnightblue" points="441.56,-227.02 450.3,-221.04 439.74,-220.26 441.56,-227.02"/>
</g>
<!-- Node26 -->
<g id="node25" class="node">
<title>Node26</title>
<g id="a_node25"><a xlink:href="classGameRules.html#a8d006d25138133af6fa938c758b2d12f" target="_top" xlink:title="Checks if the dead position applies.">
<polygon fill="white" stroke="black" points="433.5,-38.5 433.5,-57.5 580.5,-57.5 580.5,-38.5 433.5,-38.5"/>
<text text-anchor="middle" x="507" y="-45.5" font-family="Helvetica,sans-Serif" font-size="10.00">GameRules::dead_position</text>
</a>
</g>
</g>
<!-- Node5&#45;&gt;Node26 -->
<g id="edge35" class="edge">
<title>Node5&#45;&gt;Node26</title>
<path fill="none" stroke="midnightblue" d="M376.29,-246C381.41,-243.43 386.13,-240.16 390,-236 442.3,-179.77 372.33,-121.93 426,-67 427.27,-65.7 428.61,-64.48 430.01,-63.35"/>
<polygon fill="midnightblue" stroke="midnightblue" points="432.23,-66.07 438.63,-57.63 428.37,-60.24 432.23,-66.07"/>
</g>
<!-- Node27 -->
<g id="node26" class="node">
<title>Node27</title>
<g id="a_node26"><a xlink:href="classPlayer.html#a4d6bbea149ca89248c006c2a0ca140b6" target="_top" xlink:title="Delete piece from pieces_pos_.">
<polygon fill="white" stroke="black" points="449,-0.5 449,-19.5 565,-19.5 565,-0.5 449,-0.5"/>
<text text-anchor="middle" x="507" y="-7.5" font-family="Helvetica,sans-Serif" font-size="10.00">Player::delete_piece</text>
</a>
</g>
</g>
<!-- Node5&#45;&gt;Node27 -->
<g id="edge36" class="edge">
<title>Node5&#45;&gt;Node27</title>
<path fill="none" stroke="midnightblue" d="M376.13,-246.3C381.34,-243.69 386.13,-240.32 390,-236 452.3,-166.44 362.01,-97.01 426,-29 429.85,-24.91 434.41,-21.62 439.37,-19"/>
<polygon fill="midnightblue" stroke="midnightblue" points="440.89,-22.15 448.66,-14.95 438.09,-15.73 440.89,-22.15"/>
</g>
<!-- Node28 -->
<g id="node27" class="node">
<title>Node28</title>
<g id="a_node27"><a xlink:href="classGameRules.html#aa6f8bc3fd2c7b8fa5dba8dfd241d7740" target="_top" xlink:title="Checks if the half&#45;move rules applies.">
<polygon fill="white" stroke="black" points="439,-327.5 439,-346.5 575,-346.5 575,-327.5 439,-327.5"/>
<text text-anchor="middle" x="507" y="-334.5" font-family="Helvetica,sans-Serif" font-size="10.00">GameRules::half_moves</text>
</a>
</g>
</g>
<!-- Node5&#45;&gt;Node28 -->
<g id="edge37" class="edge">
<title>Node5&#45;&gt;Node28</title>
<path fill="none" stroke="midnightblue" d="M336.91,-264.57C355.36,-278.34 391.53,-303.66 426,-318 432.11,-320.54 438.63,-322.79 445.21,-324.76"/>
<polygon fill="midnightblue" stroke="midnightblue" points="444.29,-328.13 454.86,-327.45 446.17,-321.39 444.29,-328.13"/>
</g>
<!-- Node29 -->
<g id="node28" class="node">
<title>Node29</title>
<g id="a_node28"><a xlink:href="classBoard.html#aa96e4fef113d4a359baf359264c0cf3f" target="_top" xlink:title="Prints chess board.">
<polygon fill="white" stroke="black" points="453.5,-289.5 453.5,-308.5 560.5,-308.5 560.5,-289.5 453.5,-289.5"/>
<text text-anchor="middle" x="507" y="-296.5" font-family="Helvetica,sans-Serif" font-size="10.00">Board::print_board</text>
</a>
</g>
</g>
<!-- Node5&#45;&gt;Node29 -->
<g id="edge38" class="edge">
<title>Node5&#45;&gt;Node29</title>
<path fill="none" stroke="midnightblue" d="M363.88,-264.55C391.12,-271.15 427.55,-279.98 456.71,-287.05"/>
<polygon fill="midnightblue" stroke="midnightblue" points="456.15,-290.52 466.69,-289.47 457.8,-283.71 456.15,-290.52"/>
</g>
<!-- Node30 -->
<g id="node29" class="node">
<title>Node30</title>
<g id="a_node29"><a xlink:href="classApplication.html#aea645938276f66ddf06cbb04d6169502" target="_top" xlink:title="Prints result of game (checkmate, tie, pat, game not finished)">
<polygon fill="white" stroke="black" points="457,-240 457,-270 557,-270 557,-240 457,-240"/>
<text text-anchor="start" x="465" y="-258" font-family="Helvetica,sans-Serif" font-size="10.00">Application::print</text>
<text text-anchor="middle" x="507" y="-247" font-family="Helvetica,sans-Serif" font-size="10.00">_results</text>
</a>
</g>
</g>
<!-- Node5&#45;&gt;Node30 -->
<g id="edge39" class="edge">
<title>Node5&#45;&gt;Node30</title>
<path fill="none" stroke="midnightblue" d="M376.03,-255C398.02,-255 423.82,-255 446.61,-255"/>
<polygon fill="midnightblue" stroke="midnightblue" points="446.85,-258.5 456.85,-255 446.85,-251.5 446.85,-258.5"/>
</g>
<!-- Node31 -->
<g id="node30" class="node">
<title>Node31</title>
<g id="a_node30"><a xlink:href="classFile__manager.html#a0b0b101cb1941cba0e51a2c6dea0919b" target="_top" xlink:title="Saves file.">
<polygon fill="white" stroke="black" points="441,-365.5 441,-384.5 573,-384.5 573,-365.5 441,-365.5"/>
<text text-anchor="middle" x="507" y="-372.5" font-family="Helvetica,sans-Serif" font-size="10.00">File_manager::save_file</text>
</a>
</g>
</g>
<!-- Node5&#45;&gt;Node31 -->
<g id="edge40" class="edge">
<title>Node5&#45;&gt;Node31</title>
<path fill="none" stroke="midnightblue" d="M331.15,-264.52C345.8,-284.73 383,-332.05 426,-356 430.15,-358.31 434.57,-360.34 439.12,-362.12"/>
<polygon fill="midnightblue" stroke="midnightblue" points="438,-365.44 448.6,-365.45 440.32,-358.84 438,-365.44"/>
</g>
<!-- Node39 -->
<g id="node36" class="node">
<title>Node39</title>
<g id="a_node36"><a xlink:href="classGameRules.html#a515085ec1bb0e6ea5c2d12664ec7fc10" target="_top" xlink:title="Checks if the stalemate rule applies.">
<polygon fill="white" stroke="black" points="633,-110.5 633,-129.5 761,-129.5 761,-110.5 633,-110.5"/>
<text text-anchor="middle" x="697" y="-117.5" font-family="Helvetica,sans-Serif" font-size="10.00">GameRules::stalemate</text>
</a>
</g>
</g>
<!-- Node5&#45;&gt;Node39 -->
<g id="edge47" class="edge">
<title>Node5&#45;&gt;Node39</title>
<path fill="none" stroke="midnightblue" d="M372.55,-245.42C378.75,-242.96 384.76,-239.87 390,-236 413.49,-218.63 402,-197.66 426,-181 430.47,-177.89 564.11,-148.57 641.66,-131.74"/>
<polygon fill="midnightblue" stroke="midnightblue" points="642.72,-135.09 651.75,-129.55 641.24,-128.25 642.72,-135.09"/>
</g>
<!-- Node41 -->
<g id="node38" class="node">
<title>Node41</title>
<g id="a_node38"><a xlink:href="classGameRules.html#acbd44f6245c7a7fb0ddf2a7b0fffc923" target="_top" xlink:title="Checks if the threefold repetition rule applies.">
<polygon fill="white" stroke="black" points="445.5,-114.5 445.5,-133.5 568.5,-133.5 568.5,-114.5 445.5,-114.5"/>
<text text-anchor="middle" x="507" y="-121.5" font-family="Helvetica,sans-Serif" font-size="10.00">GameRules::threefold</text>
</a>
</g>
</g>
<!-- Node5&#45;&gt;Node41 -->
<g id="edge52" class="edge">
<title>Node5&#45;&gt;Node41</title>
<path fill="none" stroke="midnightblue" d="M375.26,-245.43C380.62,-242.97 385.69,-239.88 390,-236 421.42,-207.74 394.71,-176.4 426,-148 430.47,-143.94 435.6,-140.57 441.07,-137.77"/>
<polygon fill="midnightblue" stroke="midnightblue" points="442.79,-140.83 450.51,-133.57 439.95,-134.43 442.79,-140.83"/>
</g>
<!-- Node42 -->
<g id="node39" class="node">
<title>Node42</title>
<g id="a_node39"><a xlink:href="classGameRules.html#a07b29e4691299df2cfe680af7a59262b" target="_top" xlink:title=" ">
<polygon fill="white" stroke="black" points="426,-76.5 426,-95.5 588,-95.5 588,-76.5 426,-76.5"/>
<text text-anchor="middle" x="507" y="-83.5" font-family="Helvetica,sans-Serif" font-size="10.00">GameRules::update_threefold</text>
</a>
</g>
</g>
<!-- Node5&#45;&gt;Node42 -->
<g id="edge53" class="edge">
<title>Node5&#45;&gt;Node42</title>
<path fill="none" stroke="midnightblue" d="M376.05,-245.77C381.21,-243.24 386.01,-240.05 390,-236 432.39,-193 382.56,-146.94 426,-105 427.46,-103.59 429.01,-102.27 430.63,-101.05"/>
<polygon fill="midnightblue" stroke="midnightblue" points="432.62,-103.93 439.25,-95.67 428.92,-97.99 432.62,-103.93"/>
</g>
<!-- Node7 -->
<g id="node7" class="node">
<title>Node7</title>
<g id="a_node7"><a xlink:href="classApplication.html#a162a3f466352b474a10516c7f0b0ae9a" target="_top" xlink:title=" ">
<polygon fill="white" stroke="black" points="631.5,-193.5 631.5,-212.5 762.5,-212.5 762.5,-193.5 631.5,-193.5"/>
<text text-anchor="middle" x="697" y="-200.5" font-family="Helvetica,sans-Serif" font-size="10.00">Application::play_move</text>
</a>
</g>
</g>
<!-- Node6&#45;&gt;Node7 -->
<g id="edge6" class="edge">
<title>Node6&#45;&gt;Node7</title>
<path fill="none" stroke="midnightblue" d="M563.64,-205.11C581.63,-204.83 601.88,-204.5 621.03,-204.2"/>
<polygon fill="midnightblue" stroke="midnightblue" points="621.29,-207.69 631.23,-204.03 621.18,-200.69 621.29,-207.69"/>
</g>
<!-- Node8 -->
<g id="node8" class="node">
<title>Node8</title>
<g id="a_node8"><a xlink:href="classRules.html#abd9b013ebba58f9757336a20b2c6bf8e" target="_top" xlink:title="Checks if king is in check.">
<polygon fill="white" stroke="black" points="982,-124.5 982,-143.5 1071,-143.5 1071,-124.5 982,-124.5"/>
<text text-anchor="middle" x="1026.5" y="-131.5" font-family="Helvetica,sans-Serif" font-size="10.00">Rules::checked</text>
</a>
</g>
</g>
<!-- Node7&#45;&gt;Node8 -->
<g id="edge7" class="edge">
<title>Node7&#45;&gt;Node8</title>
<path fill="none" stroke="midnightblue" d="M708.31,-193.46C726.42,-177.44 765.85,-145.73 806,-134 860.64,-118.04 926.24,-120.7 971.41,-125.69"/>
<polygon fill="midnightblue" stroke="midnightblue" points="971.24,-129.19 981.58,-126.89 972.06,-122.24 971.24,-129.19"/>
</g>
<!-- Node12 -->
<g id="node12" class="node">
<title>Node12</title>
<g id="a_node12"><a xlink:href="classRules.html#a4ec21c1bd51c73135ed26eafa0da58d3" target="_top" xlink:title="Checks if king is in checkmate.">
<polygon fill="white" stroke="black" points="812.5,-231.5 812.5,-250.5 916.5,-250.5 916.5,-231.5 812.5,-231.5"/>
<text text-anchor="middle" x="864.5" y="-238.5" font-family="Helvetica,sans-Serif" font-size="10.00">Rules::checkmate</text>
</a>
</g>
</g>
<!-- Node7&#45;&gt;Node12 -->
<g id="edge11" class="edge">
<title>Node7&#45;&gt;Node12</title>
<path fill="none" stroke="midnightblue" d="M739.76,-212.59C761.7,-217.63 788.78,-223.84 812.01,-229.18"/>
<polygon fill="midnightblue" stroke="midnightblue" points="811.51,-232.65 822.04,-231.48 813.07,-225.83 811.51,-232.65"/>
</g>
<!-- Node13 -->
<g id="node13" class="node">
<title>Node13</title>
<g id="a_node13"><a xlink:href="classMove.html#a3765dcce8a7c18e0c2f7ce42c98fa2ba" target="_top" xlink:title="Makes move with piece.">
<polygon fill="white" stroke="black" points="971.5,-307.5 971.5,-326.5 1081.5,-326.5 1081.5,-307.5 971.5,-307.5"/>
<text text-anchor="middle" x="1026.5" y="-314.5" font-family="Helvetica,sans-Serif" font-size="10.00">Move::make_move</text>
</a>
</g>
</g>
<!-- Node7&#45;&gt;Node13 -->
<g id="edge31" class="edge">
<title>Node7&#45;&gt;Node13</title>
<path fill="none" stroke="midnightblue" d="M708.42,-212.6C726.68,-228.85 766.33,-261.63 806,-278 855.79,-298.55 916.31,-308.28 961.18,-312.88"/>
<polygon fill="midnightblue" stroke="midnightblue" points="961.08,-316.39 971.37,-313.87 961.75,-309.42 961.08,-316.39"/>
</g>
<!-- Node19 -->
<g id="node19" class="node">
<title>Node19</title>
<g id="a_node19"><a xlink:href="classMove.html#afbed08d3294e3c7913dd27c3d6afd283" target="_top" xlink:title="Undo move.">
<polygon fill="white" stroke="black" points="973,-231.5 973,-250.5 1080,-250.5 1080,-231.5 973,-231.5"/>
<text text-anchor="middle" x="1026.5" y="-238.5" font-family="Helvetica,sans-Serif" font-size="10.00">Move::undo_move</text>
</a>
</g>
</g>
<!-- Node7&#45;&gt;Node19 -->
<g id="edge33" class="edge">
<title>Node7&#45;&gt;Node19</title>
<path fill="none" stroke="midnightblue" d="M711.11,-212.66C730.61,-226.37 768.96,-250.82 806,-260 865.93,-274.85 937.56,-263.41 982.3,-252.94"/>
<polygon fill="midnightblue" stroke="midnightblue" points="983.36,-256.29 992.25,-250.52 981.71,-249.48 983.36,-256.29"/>
</g>
<!-- Node20 -->
<g id="node20" class="node">
<title>Node20</title>
<g id="a_node20"><a xlink:href="classValidate.html#afe077c5b0107ffc1c42670e233257b9c" target="_top" xlink:title="Validates move.">
<polygon fill="white" stroke="black" points="959,-48.5 959,-67.5 1094,-67.5 1094,-48.5 959,-48.5"/>
<text text-anchor="middle" x="1026.5" y="-55.5" font-family="Helvetica,sans-Serif" font-size="10.00">Validate::validate_move</text>
</a>
</g>
</g>
<!-- Node7&#45;&gt;Node20 -->
<g id="edge34" class="edge">
<title>Node7&#45;&gt;Node20</title>
<path fill="none" stroke="midnightblue" d="M712.08,-193.35C727.9,-181.91 753.52,-161.55 770,-139 793.25,-107.2 772.97,-79.47 806,-58 860.03,-22.89 938.45,-34.16 985.47,-45.86"/>
<polygon fill="midnightblue" stroke="midnightblue" points="984.73,-49.28 995.29,-48.42 986.49,-42.51 984.73,-49.28"/>
</g>
<!-- Node24 -->
<g id="node23" class="node">
<title>Node24</title>
<g id="a_node23"><a xlink:href="classPlayer.html#afca2a1d6d42d2f3a04abb9ab5bc3d323" target="_top" xlink:title="Gets player&#39;s move.">
<polygon fill="white" stroke="black" points="813.5,-193.5 813.5,-212.5 915.5,-212.5 915.5,-193.5 813.5,-193.5"/>
<text text-anchor="middle" x="864.5" y="-200.5" font-family="Helvetica,sans-Serif" font-size="10.00">Player::get_move</text>
</a>
</g>
</g>
<!-- Node7&#45;&gt;Node24 -->
<g id="edge30" class="edge">
<title>Node7&#45;&gt;Node24</title>
<path fill="none" stroke="midnightblue" d="M762.93,-203C776.15,-203 790.01,-203 803.07,-203"/>
<polygon fill="midnightblue" stroke="midnightblue" points="803.34,-206.5 813.34,-203 803.34,-199.5 803.34,-206.5"/>
</g>
<!-- Node25 -->
<g id="node24" class="node">
<title>Node25</title>
<g id="a_node24"><a xlink:href="classApplication.html#afef57a39fdd32b4c10464d8a9d979816" target="_top" xlink:title="Prints who plays next.">
<polygon fill="white" stroke="black" points="814.5,-144 814.5,-174 914.5,-174 914.5,-144 814.5,-144"/>
<text text-anchor="start" x="822.5" y="-162" font-family="Helvetica,sans-Serif" font-size="10.00">Application::print</text>
<text text-anchor="middle" x="864.5" y="-151" font-family="Helvetica,sans-Serif" font-size="10.00">_color</text>
</a>
</g>
</g>
<!-- Node7&#45;&gt;Node25 -->
<g id="edge32" class="edge">
<title>Node7&#45;&gt;Node25</title>
<path fill="none" stroke="midnightblue" d="M733.91,-193.45C754.54,-187.97 780.96,-180.94 804.56,-174.67"/>
<polygon fill="midnightblue" stroke="midnightblue" points="805.71,-177.99 814.47,-172.03 803.91,-171.22 805.71,-177.99"/>
</g>
<!-- Node9 -->
<g id="node9" class="node">
<title>Node9</title>
<g id="a_node9"><a xlink:href="classValidate.html#a3e4b7f61bff7ee9d7d839ead34d2d61f" target="_top" xlink:title="Checks if square is empty.">
<polygon fill="white" stroke="black" points="1337.5,-67.5 1337.5,-86.5 1444.5,-86.5 1444.5,-67.5 1337.5,-67.5"/>
<text text-anchor="middle" x="1391" y="-74.5" font-family="Helvetica,sans-Serif" font-size="10.00">Validate::is_empty</text>
</a>
</g>
</g>
<!-- Node8&#45;&gt;Node9 -->
<g id="edge8" class="edge">
<title>Node8&#45;&gt;Node9</title>
<path fill="none" stroke="midnightblue" d="M1071.08,-125.54C1089.26,-122.11 1110.63,-118.21 1130,-115 1197.09,-103.88 1274.2,-92.83 1326.92,-85.53"/>
<polygon fill="midnightblue" stroke="midnightblue" points="1327.7,-88.96 1337.12,-84.13 1326.74,-82.02 1327.7,-88.96"/>
</g>
<!-- Node10 -->
<g id="node10" class="node">
<title>Node10</title>
<g id="a_node10"><a xlink:href="classValidate.html#ab5ba0f592c1cd28a57deab9ef608f2df" target="_top" xlink:title="Checks if piece is same color as player.">
<polygon fill="white" stroke="black" points="1325,-134.5 1325,-153.5 1457,-153.5 1457,-134.5 1325,-134.5"/>
<text text-anchor="middle" x="1391" y="-141.5" font-family="Helvetica,sans-Serif" font-size="10.00">Validate::is_same_color</text>
</a>
</g>
</g>
<!-- Node8&#45;&gt;Node10 -->
<g id="edge9" class="edge">
<title>Node8&#45;&gt;Node10</title>
<path fill="none" stroke="midnightblue" d="M1069.15,-143.51C1087.67,-147.28 1109.81,-151.14 1130,-153 1192.09,-158.71 1262.82,-155.64 1314.82,-151.61"/>
<polygon fill="midnightblue" stroke="midnightblue" points="1315.27,-155.08 1324.96,-150.79 1314.71,-148.1 1315.27,-155.08"/>
</g>
<!-- Node11 -->
<g id="node11" class="node">
<title>Node11</title>
<g id="a_node11"><a xlink:href="classValidate.html#a50364e1735875d1d74e7eb251b3fd7e5" target="_top" xlink:title="Validates position.">
<polygon fill="white" stroke="black" points="1144,-124.5 1144,-143.5 1275,-143.5 1275,-124.5 1144,-124.5"/>
<text text-anchor="middle" x="1209.5" y="-131.5" font-family="Helvetica,sans-Serif" font-size="10.00">Validate::valid_position</text>
</a>
</g>
</g>
<!-- Node8&#45;&gt;Node11 -->
<g id="edge10" class="edge">
<title>Node8&#45;&gt;Node11</title>
<path fill="none" stroke="midnightblue" d="M1071.32,-134C1090.02,-134 1112.38,-134 1133.57,-134"/>
<polygon fill="midnightblue" stroke="midnightblue" points="1133.86,-137.5 1143.86,-134 1133.86,-130.5 1133.86,-137.5"/>
</g>
<!-- Node12&#45;&gt;Node8 -->
<g id="edge12" class="edge">
<title>Node12&#45;&gt;Node8</title>
<path fill="none" stroke="midnightblue" d="M905.1,-231.48C911.41,-228.98 917.62,-225.87 923,-222 944.65,-206.44 939.21,-191.87 959,-174 970.08,-164 984.02,-155.16 996.27,-148.36"/>
<polygon fill="midnightblue" stroke="midnightblue" points="998.07,-151.37 1005.24,-143.56 994.77,-145.19 998.07,-151.37"/>
</g>
<!-- Node12&#45;&gt;Node11 -->
<g id="edge24" class="edge">
<title>Node12&#45;&gt;Node11</title>
<path fill="none" stroke="midnightblue" d="M896.24,-231.41C958.3,-212.05 1098.56,-168.3 1167.99,-146.64"/>
<polygon fill="midnightblue" stroke="midnightblue" points="1169.2,-149.93 1177.7,-143.61 1167.12,-143.24 1169.2,-149.93"/>
</g>
<!-- Node12&#45;&gt;Node13 -->
<g id="edge13" class="edge">
<title>Node12&#45;&gt;Node13</title>
<path fill="none" stroke="midnightblue" d="M885.76,-250.63C913.66,-263.87 964.05,-287.81 996.09,-303.03"/>
<polygon fill="midnightblue" stroke="midnightblue" points="994.87,-306.32 1005.4,-307.45 997.87,-300 994.87,-306.32"/>
</g>
<!-- Node12&#45;&gt;Node19 -->
<g id="edge22" class="edge">
<title>Node12&#45;&gt;Node19</title>
<path fill="none" stroke="midnightblue" d="M916.56,-241C931.2,-241 947.34,-241 962.6,-241"/>
<polygon fill="midnightblue" stroke="midnightblue" points="962.99,-244.5 972.99,-241 962.99,-237.5 962.99,-244.5"/>
</g>
<!-- Node12&#45;&gt;Node20 -->
<g id="edge25" class="edge">
<title>Node12&#45;&gt;Node20</title>
<path fill="none" stroke="midnightblue" d="M909.46,-231.38C914.45,-228.93 919.12,-225.86 923,-222 958.57,-186.62 930.94,-156.6 959,-115 970.27,-98.3 987.68,-83.61 1001.87,-73.34"/>
<polygon fill="midnightblue" stroke="midnightblue" points="1004,-76.12 1010.2,-67.53 999.99,-70.38 1004,-76.12"/>
</g>
<!-- Node14 -->
<g id="node14" class="node">
<title>Node14</title>
<g id="a_node14"><a xlink:href="classPlayer.html#a42e54e616455af5d9d4b6dea514ba7a0" target="_top" xlink:title="Checks player&#39;s pawn promotion.">
<polygon fill="white" stroke="black" points="1147,-292.5 1147,-311.5 1272,-311.5 1272,-292.5 1147,-292.5"/>
<text text-anchor="middle" x="1209.5" y="-299.5" font-family="Helvetica,sans-Serif" font-size="10.00">Player::get_promotion</text>
</a>
</g>
</g>
<!-- Node13&#45;&gt;Node14 -->
<g id="edge14" class="edge">
<title>Node13&#45;&gt;Node14</title>
<path fill="none" stroke="midnightblue" d="M1081.81,-312.5C1099.11,-311.07 1118.54,-309.46 1136.88,-307.94"/>
<polygon fill="midnightblue" stroke="midnightblue" points="1137.26,-311.42 1146.94,-307.1 1136.68,-304.44 1137.26,-311.42"/>
</g>
<!-- Node15 -->
<g id="node15" class="node">
<title>Node15</title>
<g id="a_node15"><a xlink:href="classMove.html#a5472b83ec6bcde0fd8c16c4508896ccd" target="_top" xlink:title="Handles casting.">
<polygon fill="white" stroke="black" points="1146.5,-254.5 1146.5,-273.5 1272.5,-273.5 1272.5,-254.5 1146.5,-254.5"/>
<text text-anchor="middle" x="1209.5" y="-261.5" font-family="Helvetica,sans-Serif" font-size="10.00">Move::handle_castling</text>
</a>
</g>
</g>
<!-- Node13&#45;&gt;Node15 -->
<g id="edge15" class="edge">
<title>Node13&#45;&gt;Node15</title>
<path fill="none" stroke="midnightblue" d="M1054.29,-307.44C1074.86,-300.26 1104.05,-290.43 1130,-283 1138.52,-280.56 1147.62,-278.17 1156.49,-275.95"/>
<polygon fill="midnightblue" stroke="midnightblue" points="1157.49,-279.3 1166.37,-273.52 1155.82,-272.51 1157.49,-279.3"/>
</g>
<!-- Node16 -->
<g id="node16" class="node">
<title>Node16</title>
<g id="a_node16"><a xlink:href="classMove.html#a5a18864c15112c49e5a93dbee3f83d1c" target="_top" xlink:title="Moves piece from start to end.">
<polygon fill="white" stroke="black" points="1336.5,-292.5 1336.5,-311.5 1445.5,-311.5 1445.5,-292.5 1336.5,-292.5"/>
<text text-anchor="middle" x="1391" y="-299.5" font-family="Helvetica,sans-Serif" font-size="10.00">Move::move_piece</text>
</a>
</g>
</g>
<!-- Node13&#45;&gt;Node16 -->
<g id="edge17" class="edge">
<title>Node13&#45;&gt;Node16</title>
<path fill="none" stroke="midnightblue" d="M1081.72,-321.24C1134.7,-324.58 1217.57,-327.66 1289,-321 1305.32,-319.48 1322.94,-316.6 1338.82,-313.54"/>
<polygon fill="midnightblue" stroke="midnightblue" points="1339.85,-316.9 1348.97,-311.51 1338.48,-310.04 1339.85,-316.9"/>
</g>
<!-- Node17 -->
<g id="node17" class="node">
<title>Node17</title>
<g id="a_node17"><a xlink:href="classMove.html#a9a242db5d52827dd11f81a6aa46e339e" target="_top" xlink:title="Handles pawn promotion.">
<polygon fill="white" stroke="black" points="1159.5,-368.5 1159.5,-387.5 1259.5,-387.5 1259.5,-368.5 1159.5,-368.5"/>
<text text-anchor="middle" x="1209.5" y="-375.5" font-family="Helvetica,sans-Serif" font-size="10.00">Move::promotion</text>
</a>
</g>
</g>
<!-- Node13&#45;&gt;Node17 -->
<g id="edge18" class="edge">
<title>Node13&#45;&gt;Node17</title>
<path fill="none" stroke="midnightblue" d="M1053.07,-326.63C1073.73,-334.32 1103.61,-345.21 1130,-354 1141.72,-357.91 1154.51,-361.92 1166.3,-365.52"/>
<polygon fill="midnightblue" stroke="midnightblue" points="1165.34,-368.88 1175.92,-368.44 1167.37,-362.19 1165.34,-368.88"/>
</g>
<!-- Node18 -->
<g id="node18" class="node">
<title>Node18</title>
<g id="a_node18"><a xlink:href="classPlayer.html#a620bf4cb1907eafdbcd9252a750ffa8f" target="_top" xlink:title="Update piece&#39;s position on chess board.">
<polygon fill="white" stroke="black" points="1329,-387.5 1329,-406.5 1453,-406.5 1453,-387.5 1329,-387.5"/>
<text text-anchor="middle" x="1391" y="-394.5" font-family="Helvetica,sans-Serif" font-size="10.00">Player::update_pieces</text>
</a>
</g>
</g>
<!-- Node13&#45;&gt;Node18 -->
<g id="edge21" class="edge">
<title>Node13&#45;&gt;Node18</title>
<path fill="none" stroke="midnightblue" d="M1035.58,-326.58C1051.46,-344.55 1088.8,-382.83 1130,-397 1195.16,-419.42 1275.07,-415.1 1328.96,-407.96"/>
<polygon fill="midnightblue" stroke="midnightblue" points="1329.62,-411.4 1339.04,-406.55 1328.65,-404.47 1329.62,-411.4"/>
</g>
<!-- Node15&#45;&gt;Node16 -->
<g id="edge16" class="edge">
<title>Node15&#45;&gt;Node16</title>
<path fill="none" stroke="midnightblue" d="M1255.8,-273.59C1279.91,-278.69 1309.75,-285.01 1335.17,-290.39"/>
<polygon fill="midnightblue" stroke="midnightblue" points="1334.52,-293.83 1345.03,-292.48 1335.97,-286.98 1334.52,-293.83"/>
</g>
<!-- Node17&#45;&gt;Node16 -->
<g id="edge19" class="edge">
<title>Node17&#45;&gt;Node16</title>
<path fill="none" stroke="midnightblue" d="M1246.53,-368.45C1260.04,-364.49 1275.4,-359.53 1289,-354 1315.66,-343.16 1344.73,-327.79 1364.81,-316.57"/>
<polygon fill="midnightblue" stroke="midnightblue" points="1366.65,-319.55 1373.63,-311.59 1363.2,-313.46 1366.65,-319.55"/>
</g>
<!-- Node17&#45;&gt;Node18 -->
<g id="edge20" class="edge">
<title>Node17&#45;&gt;Node18</title>
<path fill="none" stroke="midnightblue" d="M1259.55,-383.19C1277.84,-385.13 1299,-387.37 1318.88,-389.47"/>
<polygon fill="midnightblue" stroke="midnightblue" points="1318.51,-392.95 1328.82,-390.52 1319.25,-385.99 1318.51,-392.95"/>
</g>
<!-- Node19&#45;&gt;Node16 -->
<g id="edge23" class="edge">
<title>Node19&#45;&gt;Node16</title>
<path fill="none" stroke="midnightblue" d="M1080.16,-234.3C1133.73,-229.21 1218.66,-225.95 1289,-245 1319.34,-253.22 1350.23,-272.61 1369.72,-286.49"/>
<polygon fill="midnightblue" stroke="midnightblue" points="1367.69,-289.34 1377.83,-292.42 1371.82,-283.69 1367.69,-289.34"/>
</g>
<!-- Node21 -->
<g id="node21" class="node">
<title>Node21</title>
<g id="a_node21"><a xlink:href="classValidate.html#ac11fdbf661a340f903a8a8b581710c34" target="_top" xlink:title="Finds all possible moves for piece.">
<polygon fill="white" stroke="red" points="1130,-48.5 1130,-67.5 1289,-67.5 1289,-48.5 1130,-48.5"/>
<text text-anchor="middle" x="1209.5" y="-55.5" font-family="Helvetica,sans-Serif" font-size="10.00">Validate::find_possible_move</text>
</a>
</g>
</g>
<!-- Node20&#45;&gt;Node21 -->
<g id="edge26" class="edge">
<title>Node20&#45;&gt;Node21</title>
<path fill="none" stroke="midnightblue" d="M1094.13,-58C1102.46,-58 1111.08,-58 1119.68,-58"/>
<polygon fill="midnightblue" stroke="midnightblue" points="1119.75,-61.5 1129.75,-58 1119.75,-54.5 1119.75,-61.5"/>
</g>
<!-- Node23 -->
<g id="node22" class="node">
<title>Node23</title>
<g id="a_node22"><a xlink:href="classValidate.html#a6c88b44fd5d40b6aba0812e2d23d8f04" target="_top" xlink:title="Checks if castling is valid.">
<polygon fill="white" stroke="black" points="1144.5,-10.5 1144.5,-29.5 1274.5,-29.5 1274.5,-10.5 1144.5,-10.5"/>
<text text-anchor="middle" x="1209.5" y="-17.5" font-family="Helvetica,sans-Serif" font-size="10.00">Validate::valid_castling</text>
</a>
</g>
</g>
<!-- Node20&#45;&gt;Node23 -->
<g id="edge29" class="edge">
<title>Node20&#45;&gt;Node23</title>
<path fill="none" stroke="midnightblue" d="M1073.17,-48.41C1097.49,-43.31 1127.58,-36.99 1153.21,-31.61"/>
<polygon fill="midnightblue" stroke="midnightblue" points="1154.09,-35 1163.15,-29.52 1152.65,-28.15 1154.09,-35"/>
</g>
<!-- Node21&#45;&gt;Node9 -->
<g id="edge27" class="edge">
<title>Node21&#45;&gt;Node9</title>
<path fill="none" stroke="midnightblue" d="M1289.23,-66.33C1301.96,-67.68 1314.99,-69.06 1327.28,-70.36"/>
<polygon fill="midnightblue" stroke="midnightblue" points="1327.09,-73.86 1337.4,-71.43 1327.83,-66.9 1327.09,-73.86"/>
</g>
<!-- Node21&#45;&gt;Node10 -->
<g id="edge28" class="edge">
<title>Node21&#45;&gt;Node10</title>
<path fill="none" stroke="midnightblue" d="M1230.4,-67.53C1262.07,-82.71 1324.12,-112.44 1360.82,-130.02"/>
<polygon fill="midnightblue" stroke="midnightblue" points="1359.48,-133.26 1370.02,-134.43 1362.51,-126.95 1359.48,-133.26"/>
</g>
<!-- Node31&#45;&gt;Node3 -->
<g id="edge41" class="edge">
<title>Node31&#45;&gt;Node3</title>
<path fill="none" stroke="midnightblue" d="M527.46,-384.57C550.31,-395.66 589.48,-414.15 624,-428 629.43,-430.18 635.13,-432.35 640.85,-434.45"/>
<polygon fill="midnightblue" stroke="midnightblue" points="639.84,-437.81 650.44,-437.91 642.22,-431.22 639.84,-437.81"/>
</g>
<!-- Node32 -->
<g id="node31" class="node">
<title>Node32</title>
<g id="a_node31"><a xlink:href="classFEN.html#a42da90e2b44ecb011e7ec0d86015dffd" target="_top" xlink:title="Gets FEN notation.">
<polygon fill="white" stroke="black" points="655.5,-350.5 655.5,-369.5 738.5,-369.5 738.5,-350.5 655.5,-350.5"/>
<text text-anchor="middle" x="697" y="-357.5" font-family="Helvetica,sans-Serif" font-size="10.00">FEN::get_FEN</text>
</a>
</g>
</g>
<!-- Node31&#45;&gt;Node32 -->
<g id="edge42" class="edge">
<title>Node31&#45;&gt;Node32</title>
<path fill="none" stroke="midnightblue" d="M573.23,-369.8C596.75,-367.92 622.95,-365.83 645.07,-364.06"/>
<polygon fill="midnightblue" stroke="midnightblue" points="645.56,-367.54 655.25,-363.25 645.01,-360.56 645.56,-367.54"/>
</g>
<!-- Node31&#45;&gt;Node38 -->
<g id="edge46" class="edge">
<title>Node31&#45;&gt;Node38</title>
<path fill="none" stroke="midnightblue" d="M569.82,-384.54C590.7,-387.76 613.98,-391.35 634.81,-394.56"/>
<polygon fill="midnightblue" stroke="midnightblue" points="634.4,-398.04 644.82,-396.1 635.47,-391.12 634.4,-398.04"/>
</g>
<!-- Node33 -->
<g id="node32" class="node">
<title>Node33</title>
<g id="a_node32"><a xlink:href="classInput__handler.html#a7987d8ac8708c84676dd60936341bd8c" target="_top" xlink:title="Converts int to char.">
<polygon fill="white" stroke="black" points="813.5,-346 813.5,-376 915.5,-376 915.5,-346 813.5,-346"/>
<text text-anchor="start" x="821.5" y="-364" font-family="Helvetica,sans-Serif" font-size="10.00">Input_handler::int</text>
<text text-anchor="middle" x="864.5" y="-353" font-family="Helvetica,sans-Serif" font-size="10.00">_to_coordinates</text>
</a>
</g>
</g>
<!-- Node32&#45;&gt;Node33 -->
<g id="edge43" class="edge">
<title>Node32&#45;&gt;Node33</title>
<path fill="none" stroke="midnightblue" d="M738.91,-360.25C758.24,-360.36 781.71,-360.51 803.04,-360.63"/>
<polygon fill="midnightblue" stroke="midnightblue" points="803.29,-364.14 813.31,-360.7 803.33,-357.14 803.29,-364.14"/>
</g>
<!-- Node34 -->
<g id="node33" class="node">
<title>Node34</title>
<g id="a_node33"><a xlink:href="classFEN.html#aa59029cbcd63802d3dddd5523f3702e9" target="_top" xlink:title="Save piece.">
<polygon fill="white" stroke="black" points="813.5,-395.5 813.5,-414.5 915.5,-414.5 915.5,-395.5 813.5,-395.5"/>
<text text-anchor="middle" x="864.5" y="-402.5" font-family="Helvetica,sans-Serif" font-size="10.00">FEN::save_pieces</text>
</a>
</g>
</g>
<!-- Node32&#45;&gt;Node34 -->
<g id="edge44" class="edge">
<title>Node32&#45;&gt;Node34</title>
<path fill="none" stroke="midnightblue" d="M734.65,-369.57C745.99,-372.56 758.52,-375.89 770,-379 786.14,-383.37 803.82,-388.26 819.42,-392.61"/>
<polygon fill="midnightblue" stroke="midnightblue" points="818.76,-396.06 829.34,-395.38 820.65,-389.32 818.76,-396.06"/>
</g>
<!-- Node35 -->
<g id="node34" class="node">
<title>Node35</title>
<g id="a_node34"><a xlink:href="classFEN.html#a0bfe254b9c0c3e163aecf70582e47761" target="_top" xlink:title="Gets types of piece.">
<polygon fill="white" stroke="red" points="959,-395.5 959,-414.5 1094,-414.5 1094,-395.5 959,-395.5"/>
<text text-anchor="middle" x="1026.5" y="-402.5" font-family="Helvetica,sans-Serif" font-size="10.00">FEN::get_piece_notation</text>
</a>
</g>
</g>
<!-- Node34&#45;&gt;Node35 -->
<g id="edge45" class="edge">
<title>Node34&#45;&gt;Node35</title>
<path fill="none" stroke="midnightblue" d="M915.69,-405C926.14,-405 937.39,-405 948.56,-405"/>
<polygon fill="midnightblue" stroke="midnightblue" points="948.77,-408.5 958.77,-405 948.77,-401.5 948.77,-408.5"/>
</g>
<!-- Node40 -->
<g id="node37" class="node">
<title>Node40</title>
<g id="a_node37"><a xlink:href="classRules.html#ac508b22d87dddf5225cf154785618413" target="_top" xlink:title="Check if stalemate occurs.">
<polygon fill="white" stroke="black" points="815,-67.5 815,-86.5 914,-86.5 914,-67.5 815,-67.5"/>
<text text-anchor="middle" x="864.5" y="-74.5" font-family="Helvetica,sans-Serif" font-size="10.00">Rules::stalemate</text>
</a>
</g>
</g>
<!-- Node39&#45;&gt;Node40 -->
<g id="edge48" class="edge">
<title>Node39&#45;&gt;Node40</title>
<path fill="none" stroke="midnightblue" d="M734.73,-110.46C758.94,-104.17 790.86,-95.87 816.86,-89.12"/>
<polygon fill="midnightblue" stroke="midnightblue" points="818.07,-92.42 826.87,-86.52 816.31,-85.64 818.07,-92.42"/>
</g>
<!-- Node40&#45;&gt;Node8 -->
<g id="edge49" class="edge">
<title>Node40&#45;&gt;Node8</title>
<path fill="none" stroke="midnightblue" d="M892.28,-86.54C918.82,-95.99 959.65,-110.54 989.11,-121.04"/>
<polygon fill="midnightblue" stroke="midnightblue" points="988.04,-124.37 998.63,-124.43 990.39,-117.78 988.04,-124.37"/>
</g>
<!-- Node40&#45;&gt;Node11 -->
<g id="edge50" class="edge">
<title>Node40&#45;&gt;Node11</title>
<path fill="none" stroke="midnightblue" d="M914.28,-85.11C973.74,-94.99 1074.54,-111.74 1141.31,-122.83"/>
<polygon fill="midnightblue" stroke="midnightblue" points="1140.88,-126.31 1151.31,-124.5 1142.02,-119.4 1140.88,-126.31"/>
</g>
<!-- Node40&#45;&gt;Node20 -->
<g id="edge51" class="edge">
<title>Node40&#45;&gt;Node20</title>
<path fill="none" stroke="midnightblue" d="M914.37,-71.2C925.25,-69.9 937.03,-68.51 948.73,-67.12"/>
<polygon fill="midnightblue" stroke="midnightblue" points="949.43,-70.56 958.95,-65.9 948.61,-63.61 949.43,-70.56"/>
</g>
<!-- Node44 -->
<g id="node41" class="node">
<title>Node44</title>
<g id="a_node41"><a xlink:href="classFEN.html#a39f6253f19ae04797561c9fea3342cb7" target="_top" xlink:title="Reads FEN notation.">
<polygon fill="white" stroke="black" points="462.5,-525.5 462.5,-544.5 551.5,-544.5 551.5,-525.5 462.5,-525.5"/>
<text text-anchor="middle" x="507" y="-532.5" font-family="Helvetica,sans-Serif" font-size="10.00">FEN::read_FEN</text>
</a>
</g>
</g>
<!-- Node43&#45;&gt;Node44 -->
<g id="edge56" class="edge">
<title>Node43&#45;&gt;Node44</title>
<path fill="none" stroke="midnightblue" d="M390.03,-520.3C410.52,-522.9 432.88,-525.73 452.44,-528.21"/>
<polygon fill="midnightblue" stroke="midnightblue" points="452.04,-531.69 462.4,-529.47 452.92,-524.74 452.04,-531.69"/>
</g>
<!-- Node45 -->
<g id="node42" class="node">
<title>Node45</title>
<g id="a_node42"><a xlink:href="classInput__handler.html#aeee21ed8a9cdd37b4f39c530e7d2ca15" target="_top" xlink:title="Checks if char is &lt;0, 8&gt;">
<polygon fill="white" stroke="black" points="628.5,-487.5 628.5,-506.5 765.5,-506.5 765.5,-487.5 628.5,-487.5"/>
<text text-anchor="middle" x="697" y="-494.5" font-family="Helvetica,sans-Serif" font-size="10.00">Input_handler::check_col</text>
</a>
</g>
</g>
<!-- Node44&#45;&gt;Node45 -->
<g id="edge57" class="edge">
<title>Node44&#45;&gt;Node45</title>
<path fill="none" stroke="midnightblue" d="M551.6,-526.19C577.49,-520.95 610.63,-514.26 638.62,-508.6"/>
<polygon fill="midnightblue" stroke="midnightblue" points="639.57,-511.98 648.68,-506.56 638.19,-505.12 639.57,-511.98"/>
</g>
<!-- Node46 -->
<g id="node43" class="node">
<title>Node46</title>
<g id="a_node43"><a xlink:href="classInput__handler.html#ae6cc6114be79e000f8a6f7156198e0f4" target="_top" xlink:title="Converts char to int.">
<polygon fill="white" stroke="black" points="624,-602 624,-632 770,-632 770,-602 624,-602"/>
<text text-anchor="start" x="632" y="-620" font-family="Helvetica,sans-Serif" font-size="10.00">Input_handler::coordinates</text>
<text text-anchor="middle" x="697" y="-609" font-family="Helvetica,sans-Serif" font-size="10.00">_to_int</text>
</a>
</g>
</g>
<!-- Node44&#45;&gt;Node46 -->
<g id="edge58" class="edge">
<title>Node44&#45;&gt;Node46</title>
<path fill="none" stroke="midnightblue" d="M525.77,-544.58C548.26,-556.51 588.38,-577.13 624,-592 629.32,-594.22 634.91,-596.41 640.53,-598.51"/>
<polygon fill="midnightblue" stroke="midnightblue" points="639.38,-601.82 649.98,-601.96 641.78,-595.24 639.38,-601.82"/>
</g>
<!-- Node47 -->
<g id="node44" class="node">
<title>Node47</title>
<g id="a_node44"><a xlink:href="classFEN.html#ad13a4a36c9bebfaf47e275bfe1ee9084" target="_top" xlink:title="Corrects FEN pieces.">
<polygon fill="white" stroke="black" points="628.5,-563.5 628.5,-582.5 765.5,-582.5 765.5,-563.5 628.5,-563.5"/>
<text text-anchor="middle" x="697" y="-570.5" font-family="Helvetica,sans-Serif" font-size="10.00">FEN::correct_FEN_pieces</text>
</a>
</g>
</g>
<!-- Node44&#45;&gt;Node47 -->
<g id="edge59" class="edge">
<title>Node44&#45;&gt;Node47</title>
<path fill="none" stroke="midnightblue" d="M551.6,-543.81C577.49,-549.05 610.63,-555.74 638.62,-561.4"/>
<polygon fill="midnightblue" stroke="midnightblue" points="638.19,-564.88 648.68,-563.44 639.57,-558.02 638.19,-564.88"/>
</g>
<!-- Node48 -->
<g id="node45" class="node">
<title>Node48</title>
<g id="a_node45"><a xlink:href="classFEN.html#a4ce3e20e91398d07dc96524af182e034" target="_top" xlink:title="Fills chess pieces into board.">
<polygon fill="white" stroke="black" points="651.5,-525.5 651.5,-544.5 742.5,-544.5 742.5,-525.5 651.5,-525.5"/>
<text text-anchor="middle" x="697" y="-532.5" font-family="Helvetica,sans-Serif" font-size="10.00">FEN::fill_pieces</text>
</a>
</g>
</g>
<!-- Node44&#45;&gt;Node48 -->
<g id="edge60" class="edge">
<title>Node44&#45;&gt;Node48</title>
<path fill="none" stroke="midnightblue" d="M551.6,-535C578.27,-535 612.61,-535 641.12,-535"/>
<polygon fill="midnightblue" stroke="midnightblue" points="641.33,-538.5 651.33,-535 641.33,-531.5 641.33,-538.5"/>
</g>
<!-- Node49 -->
<g id="node46" class="node">
<title>Node49</title>
<g id="a_node46"><a xlink:href="classFEN.html#addf59b1321695a3fe9c8588df468954a" target="_top" xlink:title="Place pieces on chess board.">
<polygon fill="white" stroke="black" points="806,-520 806,-550 923,-550 923,-520 806,-520"/>
<text text-anchor="start" x="814" y="-538" font-family="Helvetica,sans-Serif" font-size="10.00">FEN::place_piece_on</text>
<text text-anchor="middle" x="864.5" y="-527" font-family="Helvetica,sans-Serif" font-size="10.00">_board</text>
</a>
</g>
</g>
<!-- Node48&#45;&gt;Node49 -->
<g id="edge61" class="edge">
<title>Node48&#45;&gt;Node49</title>
<path fill="none" stroke="midnightblue" d="M742.79,-535C759.03,-535 777.77,-535 795.56,-535"/>
<polygon fill="midnightblue" stroke="midnightblue" points="795.9,-538.5 805.9,-535 795.9,-531.5 795.9,-538.5"/>
</g>
<!-- Node51&#45;&gt;Node4 -->
<g id="edge64" class="edge">
<title>Node51&#45;&gt;Node4</title>
<path fill="none" stroke="midnightblue" d="M221.31,-217C234.69,-217 248.9,-217 262.31,-217"/>
<polygon fill="midnightblue" stroke="midnightblue" points="262.39,-220.5 272.39,-217 262.39,-213.5 262.39,-220.5"/>
</g>
<!-- Node51&#45;&gt;Node5 -->
<g id="edge65" class="edge">
<title>Node51&#45;&gt;Node5</title>
<path fill="none" stroke="midnightblue" d="M202.5,-226.59C223.68,-231.6 249.8,-237.79 272.26,-243.11"/>
<polygon fill="midnightblue" stroke="midnightblue" points="271.75,-246.58 282.29,-245.48 273.37,-239.77 271.75,-246.58"/>
</g>
<!-- Node52 -->
<g id="node49" class="node">
<title>Node52</title>
<g id="a_node49"><a xlink:href="classBoard.html#aba53aef1597d5a8ed4c8895e86267e26" target="_top" xlink:title=" ">
<polygon fill="white" stroke="black" points="273.5,-169.5 273.5,-188.5 373.5,-188.5 373.5,-169.5 273.5,-169.5"/>
<text text-anchor="middle" x="323.5" y="-176.5" font-family="Helvetica,sans-Serif" font-size="10.00">Board::init_board</text>
</a>
</g>
</g>
<!-- Node51&#45;&gt;Node52 -->
<g id="edge66" class="edge">
<title>Node51&#45;&gt;Node52</title>
<path fill="none" stroke="midnightblue" d="M202.5,-207.41C223.68,-202.4 249.8,-196.21 272.26,-190.89"/>
<polygon fill="midnightblue" stroke="midnightblue" points="273.37,-194.23 282.29,-188.52 271.75,-187.42 273.37,-194.23"/>
</g>
<!-- Node53&#45;&gt;Node4 -->
<g id="edge68" class="edge">
<title>Node53&#45;&gt;Node4</title>
<path fill="none" stroke="midnightblue" d="M202.5,-245.41C223.68,-240.4 249.8,-234.21 272.26,-228.89"/>
<polygon fill="midnightblue" stroke="midnightblue" points="273.37,-232.23 282.29,-226.52 271.75,-225.42 273.37,-232.23"/>
</g>
<!-- Node53&#45;&gt;Node5 -->
<g id="edge69" class="edge">
<title>Node53&#45;&gt;Node5</title>
<path fill="none" stroke="midnightblue" d="M213.67,-255C228.7,-255 245.28,-255 260.86,-255"/>
<polygon fill="midnightblue" stroke="midnightblue" points="260.93,-258.5 270.93,-255 260.93,-251.5 260.93,-258.5"/>
</g>
<!-- Node53&#45;&gt;Node52 -->
<g id="edge70" class="edge">
<title>Node53&#45;&gt;Node52</title>
<path fill="none" stroke="midnightblue" d="M201.33,-245.39C208.16,-242.88 214.99,-239.78 221,-236 240.69,-223.6 237.13,-210.11 257,-198 260.43,-195.91 264.1,-194.04 267.88,-192.37"/>
<polygon fill="midnightblue" stroke="midnightblue" points="269.43,-195.52 277.46,-188.61 266.88,-189.01 269.43,-195.52"/>
</g>
</g>
</svg>
