<?xml version="1.0" encoding="UTF-8" standalone="no"?>
<!DOCTYPE svg PUBLIC "-//W3C//DTD SVG 1.1//EN"
 "http://www.w3.org/Graphics/SVG/1.1/DTD/svg11.dtd">
<!-- Generated by graphviz version 2.43.0 (0)
 -->
<!-- Title: Menu::load_game Pages: 1 -->
<svg width="1348pt" height="595pt"
 viewBox="0.00 0.00 1348.00 594.50" xmlns="http://www.w3.org/2000/svg" xmlns:xlink="http://www.w3.org/1999/xlink">
<g id="graph0" class="graph" transform="scale(1 1) rotate(0) translate(4 590.5)">
<title>Menu::load_game</title>
<polygon fill="white" stroke="transparent" points="-4,4 -4,-590.5 1344,-590.5 1344,4 -4,4"/>
<!-- Node1 -->
<g id="node1" class="node">
<title>Node1</title>
<g id="a_node1"><a xlink:title="Load game.">
<polygon fill="#bfbfbf" stroke="black" points="0,-316.5 0,-335.5 104,-335.5 104,-316.5 0,-316.5"/>
<text text-anchor="middle" x="52" y="-323.5" font-family="Helvetica,sans-Serif" font-size="10.00">Menu::load_game</text>
</a>
</g>
</g>
<!-- Node2 -->
<g id="node2" class="node">
<title>Node2</title>
<g id="a_node2"><a xlink:href="classFile__manager.html#a700ed2e80892dd11ec00b150b991db71" target="_top" xlink:title="Checks if file name ends with .txt.">
<polygon fill="white" stroke="black" points="524,-556 524,-586 636,-586 636,-556 524,-556"/>
<text text-anchor="start" x="532" y="-574" font-family="Helvetica,sans-Serif" font-size="10.00">File_manager::ends</text>
<text text-anchor="middle" x="580" y="-563" font-family="Helvetica,sans-Serif" font-size="10.00">_with_txt</text>
</a>
</g>
</g>
<!-- Node1&#45;&gt;Node2 -->
<g id="edge1" class="edge">
<title>Node1&#45;&gt;Node2</title>
<path fill="none" stroke="midnightblue" d="M59.99,-335.65C87.04,-372.1 189.25,-501.83 309,-552 374.69,-579.52 457.24,-581.11 513.66,-577.83"/>
<polygon fill="midnightblue" stroke="midnightblue" points="514.13,-581.31 523.88,-577.17 513.67,-574.33 514.13,-581.31"/>
</g>
<!-- Node3 -->
<g id="node3" class="node">
<title>Node3</title>
<g id="a_node3"><a xlink:href="classPlayer.html#a962ed5b79d46a442c2a933bfde0f9ce1" target="_top" xlink:title="Fill pieces on chess board.">
<polygon fill="white" stroke="black" points="155.5,-354.5 155.5,-373.5 257.5,-373.5 257.5,-354.5 155.5,-354.5"/>
<text text-anchor="middle" x="206.5" y="-361.5" font-family="Helvetica,sans-Serif" font-size="10.00">Player::fill_pieces</text>
</a>
</g>
</g>
<!-- Node1&#45;&gt;Node3 -->
<g id="edge2" class="edge">
<title>Node1&#45;&gt;Node3</title>
<path fill="none" stroke="midnightblue" d="M91.48,-335.59C111.52,-340.58 136.2,-346.73 157.48,-352.03"/>
<polygon fill="midnightblue" stroke="midnightblue" points="156.74,-355.46 167.29,-354.48 158.44,-348.67 156.74,-355.46"/>
</g>
<!-- Node4 -->
<g id="node4" class="node">
<title>Node4</title>
<g id="a_node4"><a xlink:href="classApplication.html#aa0cd4150071d630bd7b1f067878f00cd" target="_top" xlink:title="Starts and handles game.">
<polygon fill="white" stroke="black" points="154,-316.5 154,-335.5 259,-335.5 259,-316.5 154,-316.5"/>
<text text-anchor="middle" x="206.5" y="-323.5" font-family="Helvetica,sans-Serif" font-size="10.00">Application::game</text>
</a>
</g>
</g>
<!-- Node1&#45;&gt;Node4 -->
<g id="edge3" class="edge">
<title>Node1&#45;&gt;Node4</title>
<path fill="none" stroke="midnightblue" d="M104.2,-326C116.84,-326 130.5,-326 143.58,-326"/>
<polygon fill="midnightblue" stroke="midnightblue" points="143.91,-329.5 153.91,-326 143.91,-322.5 143.91,-329.5"/>
</g>
<!-- Node37 -->
<g id="node37" class="node">
<title>Node37</title>
<g id="a_node37"><a xlink:href="classFile__manager.html#a5492c26ed8d51b69935173acf8688e80" target="_top" xlink:title="List all files in directory.">
<polygon fill="white" stroke="black" points="528,-235 528,-265 632,-265 632,-235 528,-235"/>
<text text-anchor="start" x="536" y="-253" font-family="Helvetica,sans-Serif" font-size="10.00">File_manager::list</text>
<text text-anchor="middle" x="580" y="-242" font-family="Helvetica,sans-Serif" font-size="10.00">_directory</text>
</a>
</g>
</g>
<!-- Node1&#45;&gt;Node37 -->
<g id="edge56" class="edge">
<title>Node1&#45;&gt;Node37</title>
<path fill="none" stroke="midnightblue" d="M65.11,-316.49C100.25,-289.56 206.31,-213.08 309,-187 378.78,-169.28 401.5,-168.21 471,-187 500.89,-195.08 530.99,-213.71 551.8,-228.63"/>
<polygon fill="midnightblue" stroke="midnightblue" points="549.99,-231.64 560.12,-234.75 554.14,-226.01 549.99,-231.64"/>
</g>
<!-- Node42 -->
<g id="node42" class="node">
<title>Node42</title>
<g id="a_node42"><a xlink:href="classFile__manager.html#ade44f79bfec1810354a04dc1829aa2a3" target="_top" xlink:title="Opens file.">
<polygon fill="white" stroke="black" points="140,-79.5 140,-98.5 273,-98.5 273,-79.5 140,-79.5"/>
<text text-anchor="middle" x="206.5" y="-86.5" font-family="Helvetica,sans-Serif" font-size="10.00">File_manager::open_file</text>
</a>
</g>
</g>
<!-- Node1&#45;&gt;Node42 -->
<g id="edge57" class="edge">
<title>Node1&#45;&gt;Node42</title>
<path fill="none" stroke="midnightblue" d="M54.36,-316.18C59.4,-283.32 79.95,-175.94 140,-116 145.33,-110.68 151.85,-106.37 158.69,-102.87"/>
<polygon fill="midnightblue" stroke="midnightblue" points="160.46,-105.91 168.14,-98.61 157.58,-99.53 160.46,-105.91"/>
</g>
<!-- Node5 -->
<g id="node5" class="node">
<title>Node5</title>
<g id="a_node5"><a xlink:href="classApplication.html#a50559888cd4196c7cda01e0a432d609f" target="_top" xlink:title="Changes turn of game.">
<polygon fill="white" stroke="black" points="333.5,-311 333.5,-341 446.5,-341 446.5,-311 333.5,-311"/>
<text text-anchor="start" x="341.5" y="-329" font-family="Helvetica,sans-Serif" font-size="10.00">Application::change</text>
<text text-anchor="middle" x="390" y="-318" font-family="Helvetica,sans-Serif" font-size="10.00">_turns</text>
</a>
</g>
</g>
<!-- Node4&#45;&gt;Node5 -->
<g id="edge4" class="edge">
<title>Node4&#45;&gt;Node5</title>
<path fill="none" stroke="midnightblue" d="M259.03,-326C278.93,-326 301.95,-326 323.04,-326"/>
<polygon fill="midnightblue" stroke="midnightblue" points="323.21,-329.5 333.21,-326 323.21,-322.5 323.21,-329.5"/>
</g>
<!-- Node25 -->
<g id="node25" class="node">
<title>Node25</title>
<g id="a_node25"><a xlink:href="classGameRules.html#a8d006d25138133af6fa938c758b2d12f" target="_top" xlink:title="Checks if the dead position applies.">
<polygon fill="white" stroke="black" points="316.5,-196.5 316.5,-215.5 463.5,-215.5 463.5,-196.5 316.5,-196.5"/>
<text text-anchor="middle" x="390" y="-203.5" font-family="Helvetica,sans-Serif" font-size="10.00">GameRules::dead_position</text>
</a>
</g>
</g>
<!-- Node4&#45;&gt;Node25 -->
<g id="edge35" class="edge">
<title>Node4&#45;&gt;Node25</title>
<path fill="none" stroke="midnightblue" d="M214.15,-316.48C228.8,-296.27 266,-248.95 309,-225 313.15,-222.69 317.57,-220.66 322.12,-218.88"/>
<polygon fill="midnightblue" stroke="midnightblue" points="323.32,-222.16 331.6,-215.55 321,-215.56 323.32,-222.16"/>
</g>
<!-- Node26 -->
<g id="node26" class="node">
<title>Node26</title>
<g id="a_node26"><a xlink:href="classPlayer.html#a4d6bbea149ca89248c006c2a0ca140b6" target="_top" xlink:title="Delete piece from pieces_pos_.">
<polygon fill="white" stroke="black" points="332,-485.5 332,-504.5 448,-504.5 448,-485.5 332,-485.5"/>
<text text-anchor="middle" x="390" y="-492.5" font-family="Helvetica,sans-Serif" font-size="10.00">Player::delete_piece</text>
</a>
</g>
</g>
<!-- Node4&#45;&gt;Node26 -->
<g id="edge36" class="edge">
<title>Node4&#45;&gt;Node26</title>
<path fill="none" stroke="midnightblue" d="M259.05,-335.23C264.21,-337.76 269.01,-340.95 273,-345 315.39,-388 265.56,-434.06 309,-476 312.98,-479.84 317.59,-482.96 322.54,-485.48"/>
<polygon fill="midnightblue" stroke="midnightblue" points="321.2,-488.71 331.77,-489.4 323.94,-482.27 321.2,-488.71"/>
</g>
<!-- Node27 -->
<g id="node27" class="node">
<title>Node27</title>
<g id="a_node27"><a xlink:href="classGameRules.html#aa6f8bc3fd2c7b8fa5dba8dfd241d7740" target="_top" xlink:title="Checks if the half&#45;move rules applies.">
<polygon fill="white" stroke="black" points="322,-447.5 322,-466.5 458,-466.5 458,-447.5 322,-447.5"/>
<text text-anchor="middle" x="390" y="-454.5" font-family="Helvetica,sans-Serif" font-size="10.00">GameRules::half_moves</text>
</a>
</g>
</g>
<!-- Node4&#45;&gt;Node27 -->
<g id="edge37" class="edge">
<title>Node4&#45;&gt;Node27</title>
<path fill="none" stroke="midnightblue" d="M258.66,-335.64C263.89,-338.09 268.81,-341.16 273,-345 305.67,-374.95 275.6,-408.86 309,-438 310.79,-439.56 312.69,-441 314.67,-442.33"/>
<polygon fill="midnightblue" stroke="midnightblue" points="313.39,-445.63 323.83,-447.45 316.81,-439.51 313.39,-445.63"/>
</g>
<!-- Node28 -->
<g id="node28" class="node">
<title>Node28</title>
<g id="a_node28"><a xlink:href="classBoard.html#aa96e4fef113d4a359baf359264c0cf3f" target="_top" xlink:title="Prints chess board.">
<polygon fill="white" stroke="black" points="336.5,-409.5 336.5,-428.5 443.5,-428.5 443.5,-409.5 336.5,-409.5"/>
<text text-anchor="middle" x="390" y="-416.5" font-family="Helvetica,sans-Serif" font-size="10.00">Board::print_board</text>
</a>
</g>
</g>
<!-- Node4&#45;&gt;Node28 -->
<g id="edge38" class="edge">
<title>Node4&#45;&gt;Node28</title>
<path fill="none" stroke="midnightblue" d="M255.55,-335.58C261.75,-338.04 267.76,-341.13 273,-345 296.49,-362.37 285.09,-383.21 309,-400 314.29,-403.71 320.21,-406.71 326.38,-409.12"/>
<polygon fill="midnightblue" stroke="midnightblue" points="325.61,-412.56 336.21,-412.46 327.86,-405.93 325.61,-412.56"/>
</g>
<!-- Node29 -->
<g id="node29" class="node">
<title>Node29</title>
<g id="a_node29"><a xlink:href="classApplication.html#aea645938276f66ddf06cbb04d6169502" target="_top" xlink:title="Prints result of game (checkmate, tie, pat, game not finished)">
<polygon fill="white" stroke="black" points="340,-360 340,-390 440,-390 440,-360 340,-360"/>
<text text-anchor="start" x="348" y="-378" font-family="Helvetica,sans-Serif" font-size="10.00">Application::print</text>
<text text-anchor="middle" x="390" y="-367" font-family="Helvetica,sans-Serif" font-size="10.00">_results</text>
</a>
</g>
</g>
<!-- Node4&#45;&gt;Node29 -->
<g id="edge39" class="edge">
<title>Node4&#45;&gt;Node29</title>
<path fill="none" stroke="midnightblue" d="M242.93,-335.56C267.66,-342.24 301.25,-351.31 329.99,-359.07"/>
<polygon fill="midnightblue" stroke="midnightblue" points="329.37,-362.53 339.93,-361.75 331.19,-355.77 329.37,-362.53"/>
</g>
<!-- Node30 -->
<g id="node30" class="node">
<title>Node30</title>
<g id="a_node30"><a xlink:href="classFile__manager.html#a0b0b101cb1941cba0e51a2c6dea0919b" target="_top" xlink:title="Saves file.">
<polygon fill="white" stroke="black" points="324,-523.5 324,-542.5 456,-542.5 456,-523.5 324,-523.5"/>
<text text-anchor="middle" x="390" y="-530.5" font-family="Helvetica,sans-Serif" font-size="10.00">File_manager::save_file</text>
</a>
</g>
</g>
<!-- Node4&#45;&gt;Node30 -->
<g id="edge40" class="edge">
<title>Node4&#45;&gt;Node30</title>
<path fill="none" stroke="midnightblue" d="M259.29,-335C264.41,-337.57 269.13,-340.84 273,-345 325.3,-401.23 255.33,-459.07 309,-514 310.88,-515.92 312.91,-517.66 315.07,-519.24"/>
<polygon fill="midnightblue" stroke="midnightblue" points="313.54,-522.41 323.92,-524.55 317.14,-516.4 313.54,-522.41"/>
</g>
<!-- Node38 -->
<g id="node38" class="node">
<title>Node38</title>
<g id="a_node38"><a xlink:href="classGameRules.html#a515085ec1bb0e6ea5c2d12664ec7fc10" target="_top" xlink:title="Checks if the stalemate rule applies.">
<polygon fill="white" stroke="black" points="516,-164.5 516,-183.5 644,-183.5 644,-164.5 516,-164.5"/>
<text text-anchor="middle" x="580" y="-171.5" font-family="Helvetica,sans-Serif" font-size="10.00">GameRules::stalemate</text>
</a>
</g>
</g>
<!-- Node4&#45;&gt;Node38 -->
<g id="edge49" class="edge">
<title>Node4&#45;&gt;Node38</title>
<path fill="none" stroke="midnightblue" d="M211.1,-316.28C221.47,-289.81 254.28,-216.47 309,-187 374.97,-151.47 463.67,-155.2 521.1,-163.04"/>
<polygon fill="midnightblue" stroke="midnightblue" points="520.69,-166.52 531.09,-164.49 521.7,-159.59 520.69,-166.52"/>
</g>
<!-- Node40 -->
<g id="node40" class="node">
<title>Node40</title>
<g id="a_node40"><a xlink:href="classGameRules.html#acbd44f6245c7a7fb0ddf2a7b0fffc923" target="_top" xlink:title="Checks if the threefold repetition rule applies.">
<polygon fill="white" stroke="black" points="328.5,-272.5 328.5,-291.5 451.5,-291.5 451.5,-272.5 328.5,-272.5"/>
<text text-anchor="middle" x="390" y="-279.5" font-family="Helvetica,sans-Serif" font-size="10.00">GameRules::threefold</text>
</a>
</g>
</g>
<!-- Node4&#45;&gt;Node40 -->
<g id="edge54" class="edge">
<title>Node4&#45;&gt;Node40</title>
<path fill="none" stroke="midnightblue" d="M246.88,-316.45C274.12,-309.85 310.55,-301.02 339.71,-293.95"/>
<polygon fill="midnightblue" stroke="midnightblue" points="340.8,-297.29 349.69,-291.53 339.15,-290.48 340.8,-297.29"/>
</g>
<!-- Node41 -->
<g id="node41" class="node">
<title>Node41</title>
<g id="a_node41"><a xlink:href="classGameRules.html#a07b29e4691299df2cfe680af7a59262b" target="_top" xlink:title=" ">
<polygon fill="white" stroke="black" points="309,-234.5 309,-253.5 471,-253.5 471,-234.5 309,-234.5"/>
<text text-anchor="middle" x="390" y="-241.5" font-family="Helvetica,sans-Serif" font-size="10.00">GameRules::update_threefold</text>
</a>
</g>
</g>
<!-- Node4&#45;&gt;Node41 -->
<g id="edge55" class="edge">
<title>Node4&#45;&gt;Node41</title>
<path fill="none" stroke="midnightblue" d="M219.91,-316.43C238.36,-302.66 274.53,-277.34 309,-263 315.11,-260.46 321.63,-258.21 328.21,-256.24"/>
<polygon fill="midnightblue" stroke="midnightblue" points="329.17,-259.61 337.86,-253.55 327.29,-252.87 329.17,-259.61"/>
</g>
<!-- Node6 -->
<g id="node6" class="node">
<title>Node6</title>
<g id="a_node6"><a xlink:href="classApplication.html#a162a3f466352b474a10516c7f0b0ae9a" target="_top" xlink:title=" ">
<polygon fill="white" stroke="black" points="514.5,-316.5 514.5,-335.5 645.5,-335.5 645.5,-316.5 514.5,-316.5"/>
<text text-anchor="middle" x="580" y="-323.5" font-family="Helvetica,sans-Serif" font-size="10.00">Application::play_move</text>
</a>
</g>
</g>
<!-- Node5&#45;&gt;Node6 -->
<g id="edge5" class="edge">
<title>Node5&#45;&gt;Node6</title>
<path fill="none" stroke="midnightblue" d="M446.64,-326C464.63,-326 484.88,-326 504.03,-326"/>
<polygon fill="midnightblue" stroke="midnightblue" points="504.23,-329.5 514.23,-326 504.23,-322.5 504.23,-329.5"/>
</g>
<!-- Node7 -->
<g id="node7" class="node">
<title>Node7</title>
<g id="a_node7"><a xlink:href="classRules.html#abd9b013ebba58f9757336a20b2c6bf8e" target="_top" xlink:title="Checks if king is in check.">
<polygon fill="white" stroke="black" points="865,-126.5 865,-145.5 954,-145.5 954,-126.5 865,-126.5"/>
<text text-anchor="middle" x="909.5" y="-133.5" font-family="Helvetica,sans-Serif" font-size="10.00">Rules::checked</text>
</a>
</g>
</g>
<!-- Node6&#45;&gt;Node7 -->
<g id="edge6" class="edge">
<title>Node6&#45;&gt;Node7</title>
<path fill="none" stroke="midnightblue" d="M601.24,-316.43C617.48,-307.77 639.68,-293.54 653,-275 685.49,-229.78 645.8,-190.14 689,-155 735.13,-117.48 806.16,-118.52 854.86,-125.13"/>
<polygon fill="midnightblue" stroke="midnightblue" points="854.49,-128.61 864.89,-126.61 855.51,-121.68 854.49,-128.61"/>
</g>
<!-- Node11 -->
<g id="node11" class="node">
<title>Node11</title>
<g id="a_node11"><a xlink:href="classRules.html#a4ec21c1bd51c73135ed26eafa0da58d3" target="_top" xlink:title="Checks if king is in checkmate.">
<polygon fill="white" stroke="black" points="695.5,-240.5 695.5,-259.5 799.5,-259.5 799.5,-240.5 695.5,-240.5"/>
<text text-anchor="middle" x="747.5" y="-247.5" font-family="Helvetica,sans-Serif" font-size="10.00">Rules::checkmate</text>
</a>
</g>
</g>
<!-- Node6&#45;&gt;Node11 -->
<g id="edge10" class="edge">
<title>Node6&#45;&gt;Node11</title>
<path fill="none" stroke="midnightblue" d="M599.97,-316.49C621.43,-305.81 657.49,-288.15 689,-274 696.86,-270.47 705.39,-266.82 713.42,-263.45"/>
<polygon fill="midnightblue" stroke="midnightblue" points="714.98,-266.59 722.88,-259.53 712.3,-260.13 714.98,-266.59"/>
</g>
<!-- Node12 -->
<g id="node12" class="node">
<title>Node12</title>
<g id="a_node12"><a xlink:href="classMove.html#a3765dcce8a7c18e0c2f7ce42c98fa2ba" target="_top" xlink:title="Makes move with piece.">
<polygon fill="white" stroke="black" points="854.5,-316.5 854.5,-335.5 964.5,-335.5 964.5,-316.5 854.5,-316.5"/>
<text text-anchor="middle" x="909.5" y="-323.5" font-family="Helvetica,sans-Serif" font-size="10.00">Move::make_move</text>
</a>
</g>
</g>
<!-- Node6&#45;&gt;Node12 -->
<g id="edge31" class="edge">
<title>Node6&#45;&gt;Node12</title>
<path fill="none" stroke="midnightblue" d="M645.7,-326C703.21,-326 786.82,-326 844.2,-326"/>
<polygon fill="midnightblue" stroke="midnightblue" points="844.24,-329.5 854.24,-326 844.24,-322.5 844.24,-329.5"/>
</g>
<!-- Node18 -->
<g id="node18" class="node">
<title>Node18</title>
<g id="a_node18"><a xlink:href="classMove.html#afbed08d3294e3c7913dd27c3d6afd283" target="_top" xlink:title="Undo move.">
<polygon fill="white" stroke="black" points="856,-354.5 856,-373.5 963,-373.5 963,-354.5 856,-354.5"/>
<text text-anchor="middle" x="909.5" y="-361.5" font-family="Helvetica,sans-Serif" font-size="10.00">Move::undo_move</text>
</a>
</g>
</g>
<!-- Node6&#45;&gt;Node18 -->
<g id="edge33" class="edge">
<title>Node6&#45;&gt;Node18</title>
<path fill="none" stroke="midnightblue" d="M645.51,-334.58C659.82,-336.42 674.92,-338.32 689,-340 741.79,-346.31 801.81,-352.82 845.73,-357.47"/>
<polygon fill="midnightblue" stroke="midnightblue" points="845.38,-360.96 855.69,-358.52 846.11,-353.99 845.38,-360.96"/>
</g>
<!-- Node19 -->
<g id="node19" class="node">
<title>Node19</title>
<g id="a_node19"><a xlink:href="classValidate.html#afe077c5b0107ffc1c42670e233257b9c" target="_top" xlink:title="Validates move.">
<polygon fill="white" stroke="black" points="842,-240.5 842,-259.5 977,-259.5 977,-240.5 842,-240.5"/>
<text text-anchor="middle" x="909.5" y="-247.5" font-family="Helvetica,sans-Serif" font-size="10.00">Validate::validate_move</text>
</a>
</g>
</g>
<!-- Node6&#45;&gt;Node19 -->
<g id="edge34" class="edge">
<title>Node6&#45;&gt;Node19</title>
<path fill="none" stroke="midnightblue" d="M622.15,-316.45C681.91,-302.58 792.66,-276.88 857.52,-261.83"/>
<polygon fill="midnightblue" stroke="midnightblue" points="858.57,-265.18 867.52,-259.51 856.99,-258.36 858.57,-265.18"/>
</g>
<!-- Node23 -->
<g id="node23" class="node">
<title>Node23</title>
<g id="a_node23"><a xlink:href="classPlayer.html#afca2a1d6d42d2f3a04abb9ab5bc3d323" target="_top" xlink:title="Gets player&#39;s move.">
<polygon fill="white" stroke="black" points="696.5,-442.5 696.5,-461.5 798.5,-461.5 798.5,-442.5 696.5,-442.5"/>
<text text-anchor="middle" x="747.5" y="-449.5" font-family="Helvetica,sans-Serif" font-size="10.00">Player::get_move</text>
</a>
</g>
</g>
<!-- Node6&#45;&gt;Node23 -->
<g id="edge30" class="edge">
<title>Node6&#45;&gt;Node23</title>
<path fill="none" stroke="midnightblue" d="M588.26,-335.78C604.2,-356.62 644.45,-405.69 689,-433 692.38,-435.07 696.02,-436.95 699.76,-438.64"/>
<polygon fill="midnightblue" stroke="midnightblue" points="698.6,-441.95 709.18,-442.47 701.23,-435.46 698.6,-441.95"/>
</g>
<!-- Node24 -->
<g id="node24" class="node">
<title>Node24</title>
<g id="a_node24"><a xlink:href="classApplication.html#afef57a39fdd32b4c10464d8a9d979816" target="_top" xlink:title="Prints who plays next.">
<polygon fill="white" stroke="black" points="697.5,-393 697.5,-423 797.5,-423 797.5,-393 697.5,-393"/>
<text text-anchor="start" x="705.5" y="-411" font-family="Helvetica,sans-Serif" font-size="10.00">Application::print</text>
<text text-anchor="middle" x="747.5" y="-400" font-family="Helvetica,sans-Serif" font-size="10.00">_color</text>
</a>
</g>
</g>
<!-- Node6&#45;&gt;Node24 -->
<g id="edge32" class="edge">
<title>Node6&#45;&gt;Node24</title>
<path fill="none" stroke="midnightblue" d="M600.31,-335.57C626.34,-348.46 673.31,-371.74 706.99,-388.42"/>
<polygon fill="midnightblue" stroke="midnightblue" points="705.59,-391.64 716.1,-392.94 708.7,-385.36 705.59,-391.64"/>
</g>
<!-- Node8 -->
<g id="node8" class="node">
<title>Node8</title>
<g id="a_node8"><a xlink:href="classValidate.html#a3e4b7f61bff7ee9d7d839ead34d2d61f" target="_top" xlink:title="Checks if square is empty.">
<polygon fill="white" stroke="black" points="1220.5,-183.5 1220.5,-202.5 1327.5,-202.5 1327.5,-183.5 1220.5,-183.5"/>
<text text-anchor="middle" x="1274" y="-190.5" font-family="Helvetica,sans-Serif" font-size="10.00">Validate::is_empty</text>
</a>
</g>
</g>
<!-- Node7&#45;&gt;Node8 -->
<g id="edge7" class="edge">
<title>Node7&#45;&gt;Node8</title>
<path fill="none" stroke="midnightblue" d="M954.08,-135.37C1006.44,-135.49 1096.64,-138.45 1172,-155 1196.73,-160.43 1223.5,-170.72 1243.27,-179.22"/>
<polygon fill="midnightblue" stroke="midnightblue" points="1242.08,-182.52 1252.64,-183.35 1244.9,-176.12 1242.08,-182.52"/>
</g>
<!-- Node9 -->
<g id="node9" class="node">
<title>Node9</title>
<g id="a_node9"><a xlink:href="classValidate.html#ab5ba0f592c1cd28a57deab9ef608f2df" target="_top" xlink:title="Checks if piece is same color as player.">
<polygon fill="white" stroke="black" points="1208,-107.5 1208,-126.5 1340,-126.5 1340,-107.5 1208,-107.5"/>
<text text-anchor="middle" x="1274" y="-114.5" font-family="Helvetica,sans-Serif" font-size="10.00">Validate::is_same_color</text>
</a>
</g>
</g>
<!-- Node7&#45;&gt;Node9 -->
<g id="edge8" class="edge">
<title>Node7&#45;&gt;Node9</title>
<path fill="none" stroke="midnightblue" d="M954.02,-128.92C972.2,-126.25 993.57,-123.51 1013,-122 1075.14,-117.18 1145.86,-116.1 1197.85,-116.13"/>
<polygon fill="midnightblue" stroke="midnightblue" points="1197.98,-119.63 1207.99,-116.15 1197.99,-112.63 1197.98,-119.63"/>
</g>
<!-- Node10 -->
<g id="node10" class="node">
<title>Node10</title>
<g id="a_node10"><a xlink:href="classValidate.html#a50364e1735875d1d74e7eb251b3fd7e5" target="_top" xlink:title="Validates position.">
<polygon fill="white" stroke="black" points="1027,-164.5 1027,-183.5 1158,-183.5 1158,-164.5 1027,-164.5"/>
<text text-anchor="middle" x="1092.5" y="-171.5" font-family="Helvetica,sans-Serif" font-size="10.00">Validate::valid_position</text>
</a>
</g>
</g>
<!-- Node7&#45;&gt;Node10 -->
<g id="edge9" class="edge">
<title>Node7&#45;&gt;Node10</title>
<path fill="none" stroke="midnightblue" d="M954.32,-145.2C978.99,-150.38 1010.05,-156.9 1036.37,-162.42"/>
<polygon fill="midnightblue" stroke="midnightblue" points="1035.69,-165.86 1046.2,-164.49 1037.13,-159.01 1035.69,-165.86"/>
</g>
<!-- Node11&#45;&gt;Node7 -->
<g id="edge11" class="edge">
<title>Node11&#45;&gt;Node7</title>
<path fill="none" stroke="midnightblue" d="M761.87,-240.48C789.44,-220.83 852.88,-175.63 886.56,-151.63"/>
<polygon fill="midnightblue" stroke="midnightblue" points="888.72,-154.39 894.83,-145.74 884.66,-148.69 888.72,-154.39"/>
</g>
<!-- Node11&#45;&gt;Node10 -->
<g id="edge23" class="edge">
<title>Node11&#45;&gt;Node10</title>
<path fill="none" stroke="midnightblue" d="M791.59,-240.45C854.32,-226.55 970.66,-200.78 1038.53,-185.74"/>
<polygon fill="midnightblue" stroke="midnightblue" points="1039.58,-189.09 1048.58,-183.51 1038.06,-182.26 1039.58,-189.09"/>
</g>
<!-- Node11&#45;&gt;Node12 -->
<g id="edge12" class="edge">
<title>Node11&#45;&gt;Node12</title>
<path fill="none" stroke="midnightblue" d="M768.76,-259.63C796.66,-272.87 847.05,-296.81 879.09,-312.03"/>
<polygon fill="midnightblue" stroke="midnightblue" points="877.87,-315.32 888.4,-316.45 880.87,-309 877.87,-315.32"/>
</g>
<!-- Node11&#45;&gt;Node18 -->
<g id="edge21" class="edge">
<title>Node11&#45;&gt;Node18</title>
<path fill="none" stroke="midnightblue" d="M755.29,-259.69C769.26,-278.9 803.2,-321.96 842,-345 845.66,-347.17 849.58,-349.11 853.62,-350.83"/>
<polygon fill="midnightblue" stroke="midnightblue" points="852.6,-354.19 863.19,-354.47 855.09,-347.64 852.6,-354.19"/>
</g>
<!-- Node11&#45;&gt;Node19 -->
<g id="edge24" class="edge">
<title>Node11&#45;&gt;Node19</title>
<path fill="none" stroke="midnightblue" d="M799.56,-250C809.86,-250 820.89,-250 831.84,-250"/>
<polygon fill="midnightblue" stroke="midnightblue" points="831.84,-253.5 841.84,-250 831.84,-246.5 831.84,-253.5"/>
</g>
<!-- Node13 -->
<g id="node13" class="node">
<title>Node13</title>
<g id="a_node13"><a xlink:href="classPlayer.html#a42e54e616455af5d9d4b6dea514ba7a0" target="_top" xlink:title="Checks player&#39;s pawn promotion.">
<polygon fill="white" stroke="black" points="1030,-316.5 1030,-335.5 1155,-335.5 1155,-316.5 1030,-316.5"/>
<text text-anchor="middle" x="1092.5" y="-323.5" font-family="Helvetica,sans-Serif" font-size="10.00">Player::get_promotion</text>
</a>
</g>
</g>
<!-- Node12&#45;&gt;Node13 -->
<g id="edge13" class="edge">
<title>Node12&#45;&gt;Node13</title>
<path fill="none" stroke="midnightblue" d="M964.81,-326C982.11,-326 1001.54,-326 1019.88,-326"/>
<polygon fill="midnightblue" stroke="midnightblue" points="1019.94,-329.5 1029.94,-326 1019.94,-322.5 1019.94,-329.5"/>
</g>
<!-- Node14 -->
<g id="node14" class="node">
<title>Node14</title>
<g id="a_node14"><a xlink:href="classMove.html#a5472b83ec6bcde0fd8c16c4508896ccd" target="_top" xlink:title="Handles casting.">
<polygon fill="white" stroke="black" points="1029.5,-392.5 1029.5,-411.5 1155.5,-411.5 1155.5,-392.5 1029.5,-392.5"/>
<text text-anchor="middle" x="1092.5" y="-399.5" font-family="Helvetica,sans-Serif" font-size="10.00">Move::handle_castling</text>
</a>
</g>
</g>
<!-- Node12&#45;&gt;Node14 -->
<g id="edge14" class="edge">
<title>Node12&#45;&gt;Node14</title>
<path fill="none" stroke="midnightblue" d="M956.22,-335.54C963.45,-338.03 970.64,-341.14 977,-345 996.89,-357.07 992.87,-371.34 1013,-383 1016.86,-385.23 1020.97,-387.21 1025.21,-388.95"/>
<polygon fill="midnightblue" stroke="midnightblue" points="1024.06,-392.25 1034.66,-392.4 1026.47,-385.68 1024.06,-392.25"/>
</g>
<!-- Node15 -->
<g id="node15" class="node">
<title>Node15</title>
<g id="a_node15"><a xlink:href="classMove.html#a5a18864c15112c49e5a93dbee3f83d1c" target="_top" xlink:title="Moves piece from start to end.">
<polygon fill="white" stroke="black" points="1219.5,-411.5 1219.5,-430.5 1328.5,-430.5 1328.5,-411.5 1219.5,-411.5"/>
<text text-anchor="middle" x="1274" y="-418.5" font-family="Helvetica,sans-Serif" font-size="10.00">Move::move_piece</text>
</a>
</g>
</g>
<!-- Node12&#45;&gt;Node15 -->
<g id="edge16" class="edge">
<title>Node12&#45;&gt;Node15</title>
<path fill="none" stroke="midnightblue" d="M961.49,-335.57C967.09,-338.03 972.42,-341.12 977,-345 1005.51,-369.17 981.42,-401.01 1013,-421 1080.37,-463.63 1178.53,-447.44 1232.94,-433.3"/>
<polygon fill="midnightblue" stroke="midnightblue" points="1234.15,-436.6 1242.89,-430.61 1232.32,-429.84 1234.15,-436.6"/>
</g>
<!-- Node16 -->
<g id="node16" class="node">
<title>Node16</title>
<g id="a_node16"><a xlink:href="classMove.html#a9a242db5d52827dd11f81a6aa46e339e" target="_top" xlink:title="Handles pawn promotion.">
<polygon fill="white" stroke="black" points="1042.5,-354.5 1042.5,-373.5 1142.5,-373.5 1142.5,-354.5 1042.5,-354.5"/>
<text text-anchor="middle" x="1092.5" y="-361.5" font-family="Helvetica,sans-Serif" font-size="10.00">Move::promotion</text>
</a>
</g>
</g>
<!-- Node12&#45;&gt;Node16 -->
<g id="edge17" class="edge">
<title>Node12&#45;&gt;Node16</title>
<path fill="none" stroke="midnightblue" d="M956.17,-335.59C980.49,-340.69 1010.58,-347.01 1036.21,-352.39"/>
<polygon fill="midnightblue" stroke="midnightblue" points="1035.65,-355.85 1046.15,-354.48 1037.09,-349 1035.65,-355.85"/>
</g>
<!-- Node17 -->
<g id="node17" class="node">
<title>Node17</title>
<g id="a_node17"><a xlink:href="classPlayer.html#a620bf4cb1907eafdbcd9252a750ffa8f" target="_top" xlink:title="Update piece&#39;s position on chess board.">
<polygon fill="white" stroke="black" points="1212,-316.5 1212,-335.5 1336,-335.5 1336,-316.5 1212,-316.5"/>
<text text-anchor="middle" x="1274" y="-323.5" font-family="Helvetica,sans-Serif" font-size="10.00">Player::update_pieces</text>
</a>
</g>
</g>
<!-- Node12&#45;&gt;Node17 -->
<g id="edge20" class="edge">
<title>Node12&#45;&gt;Node17</title>
<path fill="none" stroke="midnightblue" d="M952.15,-316.49C970.67,-312.72 992.81,-308.86 1013,-307 1083.37,-300.53 1101.64,-300.44 1172,-307 1188.32,-308.52 1205.94,-311.4 1221.82,-314.46"/>
<polygon fill="midnightblue" stroke="midnightblue" points="1221.48,-317.96 1231.97,-316.49 1222.85,-311.1 1221.48,-317.96"/>
</g>
<!-- Node14&#45;&gt;Node15 -->
<g id="edge15" class="edge">
<title>Node14&#45;&gt;Node15</title>
<path fill="none" stroke="midnightblue" d="M1155.53,-408.57C1172.89,-410.4 1191.79,-412.4 1209.26,-414.25"/>
<polygon fill="midnightblue" stroke="midnightblue" points="1209.04,-417.75 1219.35,-415.32 1209.77,-410.79 1209.04,-417.75"/>
</g>
<!-- Node16&#45;&gt;Node15 -->
<g id="edge18" class="edge">
<title>Node16&#45;&gt;Node15</title>
<path fill="none" stroke="midnightblue" d="M1136.95,-373.51C1148.42,-376.3 1160.74,-379.53 1172,-383 1195.28,-390.17 1220.97,-399.86 1240.61,-407.66"/>
<polygon fill="midnightblue" stroke="midnightblue" points="1239.43,-410.95 1250.01,-411.43 1242.03,-404.46 1239.43,-410.95"/>
</g>
<!-- Node16&#45;&gt;Node17 -->
<g id="edge19" class="edge">
<title>Node16&#45;&gt;Node17</title>
<path fill="none" stroke="midnightblue" d="M1138.8,-354.41C1162.91,-349.31 1192.75,-342.99 1218.17,-337.61"/>
<polygon fill="midnightblue" stroke="midnightblue" points="1218.97,-341.02 1228.03,-335.52 1217.52,-334.17 1218.97,-341.02"/>
</g>
<!-- Node18&#45;&gt;Node15 -->
<g id="edge22" class="edge">
<title>Node18&#45;&gt;Node15</title>
<path fill="none" stroke="midnightblue" d="M917.37,-373.52C932.18,-393.12 969.34,-437.55 1013,-454 1091.44,-483.55 1191.62,-453.48 1241.64,-434.3"/>
<polygon fill="midnightblue" stroke="midnightblue" points="1242.93,-437.55 1250.95,-430.63 1240.37,-431.04 1242.93,-437.55"/>
</g>
<!-- Node20 -->
<g id="node20" class="node">
<title>Node20</title>
<g id="a_node20"><a xlink:href="classValidate.html#ac11fdbf661a340f903a8a8b581710c34" target="_top" xlink:title="Finds all possible moves for piece.">
<polygon fill="white" stroke="black" points="1013,-240.5 1013,-259.5 1172,-259.5 1172,-240.5 1013,-240.5"/>
<text text-anchor="middle" x="1092.5" y="-247.5" font-family="Helvetica,sans-Serif" font-size="10.00">Validate::find_possible_move</text>
</a>
</g>
</g>
<!-- Node19&#45;&gt;Node20 -->
<g id="edge25" class="edge">
<title>Node19&#45;&gt;Node20</title>
<path fill="none" stroke="midnightblue" d="M977.13,-250C985.46,-250 994.08,-250 1002.68,-250"/>
<polygon fill="midnightblue" stroke="midnightblue" points="1002.75,-253.5 1012.75,-250 1002.75,-246.5 1002.75,-253.5"/>
</g>
<!-- Node22 -->
<g id="node22" class="node">
<title>Node22</title>
<g id="a_node22"><a xlink:href="classValidate.html#a6c88b44fd5d40b6aba0812e2d23d8f04" target="_top" xlink:title="Checks if castling is valid.">
<polygon fill="white" stroke="black" points="1027.5,-202.5 1027.5,-221.5 1157.5,-221.5 1157.5,-202.5 1027.5,-202.5"/>
<text text-anchor="middle" x="1092.5" y="-209.5" font-family="Helvetica,sans-Serif" font-size="10.00">Validate::valid_castling</text>
</a>
</g>
</g>
<!-- Node19&#45;&gt;Node22 -->
<g id="edge29" class="edge">
<title>Node19&#45;&gt;Node22</title>
<path fill="none" stroke="midnightblue" d="M956.17,-240.41C980.49,-235.31 1010.58,-228.99 1036.21,-223.61"/>
<polygon fill="midnightblue" stroke="midnightblue" points="1037.09,-227 1046.15,-221.52 1035.65,-220.15 1037.09,-227"/>
</g>
<!-- Node20&#45;&gt;Node8 -->
<g id="edge27" class="edge">
<title>Node20&#45;&gt;Node8</title>
<path fill="none" stroke="midnightblue" d="M1136.95,-240.49C1148.42,-237.7 1160.74,-234.47 1172,-231 1195.28,-223.83 1220.97,-214.14 1240.61,-206.34"/>
<polygon fill="midnightblue" stroke="midnightblue" points="1242.03,-209.54 1250.01,-202.57 1239.43,-203.05 1242.03,-209.54"/>
</g>
<!-- Node20&#45;&gt;Node9 -->
<g id="edge28" class="edge">
<title>Node20&#45;&gt;Node9</title>
<path fill="none" stroke="midnightblue" d="M1154.33,-240.37C1160.61,-237.91 1166.65,-234.84 1172,-231 1196.34,-213.53 1188.54,-196.78 1208,-174 1221.12,-158.65 1238.4,-143.69 1251.84,-132.95"/>
<polygon fill="midnightblue" stroke="midnightblue" points="1254.32,-135.46 1260.04,-126.54 1250.01,-129.94 1254.32,-135.46"/>
</g>
<!-- Node21 -->
<g id="node21" class="node">
<title>Node21</title>
<g id="a_node21"><a xlink:href="classValidate.html#aa7766a323b9443c69e62a05d04f0b217" target="_top" xlink:title="Finds if move is legit.">
<polygon fill="white" stroke="black" points="1217.5,-240.5 1217.5,-259.5 1330.5,-259.5 1330.5,-240.5 1217.5,-240.5"/>
<text text-anchor="middle" x="1274" y="-247.5" font-family="Helvetica,sans-Serif" font-size="10.00">Validate::find_move</text>
</a>
</g>
</g>
<!-- Node20&#45;&gt;Node21 -->
<g id="edge26" class="edge">
<title>Node20&#45;&gt;Node21</title>
<path fill="none" stroke="midnightblue" d="M1172.23,-250C1183.84,-250 1195.7,-250 1207.02,-250"/>
<polygon fill="midnightblue" stroke="midnightblue" points="1207.24,-253.5 1217.24,-250 1207.24,-246.5 1207.24,-253.5"/>
</g>
<!-- Node30&#45;&gt;Node2 -->
<g id="edge41" class="edge">
<title>Node30&#45;&gt;Node2</title>
<path fill="none" stroke="midnightblue" d="M438.44,-542.59C461.29,-547.21 489.05,-552.82 513.84,-557.83"/>
<polygon fill="midnightblue" stroke="midnightblue" points="513.41,-561.31 523.9,-559.86 514.8,-554.45 513.41,-561.31"/>
</g>
<!-- Node31 -->
<g id="node31" class="node">
<title>Node31</title>
<g id="a_node31"><a xlink:href="classFEN.html#a42da90e2b44ecb011e7ec0d86015dffd" target="_top" xlink:title="Gets FEN notation.">
<polygon fill="white" stroke="black" points="538.5,-517.5 538.5,-536.5 621.5,-536.5 621.5,-517.5 538.5,-517.5"/>
<text text-anchor="middle" x="580" y="-524.5" font-family="Helvetica,sans-Serif" font-size="10.00">FEN::get_FEN</text>
</a>
</g>
</g>
<!-- Node30&#45;&gt;Node31 -->
<g id="edge42" class="edge">
<title>Node30&#45;&gt;Node31</title>
<path fill="none" stroke="midnightblue" d="M456.23,-530.92C479.75,-530.17 505.95,-529.33 528.07,-528.63"/>
<polygon fill="midnightblue" stroke="midnightblue" points="528.37,-532.12 538.25,-528.3 528.15,-525.12 528.37,-532.12"/>
</g>
<!-- Node30&#45;&gt;Node37 -->
<g id="edge48" class="edge">
<title>Node30&#45;&gt;Node37</title>
<path fill="none" stroke="midnightblue" d="M456.25,-524.71C461.74,-521.98 466.79,-518.47 471,-514 534.99,-445.99 459.26,-387.25 507,-307 515.63,-292.5 529.42,-280.25 542.64,-270.86"/>
<polygon fill="midnightblue" stroke="midnightblue" points="544.84,-273.6 551.19,-265.12 540.93,-267.79 544.84,-273.6"/>
</g>
<!-- Node32 -->
<g id="node32" class="node">
<title>Node32</title>
<g id="a_node32"><a xlink:href="classInput__handler.html#a7987d8ac8708c84676dd60936341bd8c" target="_top" xlink:title="Converts int to char.">
<polygon fill="white" stroke="black" points="696.5,-551 696.5,-581 798.5,-581 798.5,-551 696.5,-551"/>
<text text-anchor="start" x="704.5" y="-569" font-family="Helvetica,sans-Serif" font-size="10.00">Input_handler::int</text>
<text text-anchor="middle" x="747.5" y="-558" font-family="Helvetica,sans-Serif" font-size="10.00">_to_coordinates</text>
</a>
</g>
</g>
<!-- Node31&#45;&gt;Node32 -->
<g id="edge43" class="edge">
<title>Node31&#45;&gt;Node32</title>
<path fill="none" stroke="midnightblue" d="M621.49,-536.54C641.07,-541.16 664.97,-546.79 686.61,-551.89"/>
<polygon fill="midnightblue" stroke="midnightblue" points="685.83,-555.3 696.37,-554.19 687.44,-548.49 685.83,-555.3"/>
</g>
<!-- Node33 -->
<g id="node33" class="node">
<title>Node33</title>
<g id="a_node33"><a xlink:href="classFEN.html#aa59029cbcd63802d3dddd5523f3702e9" target="_top" xlink:title="Save piece.">
<polygon fill="white" stroke="black" points="696.5,-512.5 696.5,-531.5 798.5,-531.5 798.5,-512.5 696.5,-512.5"/>
<text text-anchor="middle" x="747.5" y="-519.5" font-family="Helvetica,sans-Serif" font-size="10.00">FEN::save_pieces</text>
</a>
</g>
</g>
<!-- Node31&#45;&gt;Node33 -->
<g id="edge44" class="edge">
<title>Node31&#45;&gt;Node33</title>
<path fill="none" stroke="midnightblue" d="M621.91,-525.76C641.24,-525.18 664.71,-524.47 686.04,-523.83"/>
<polygon fill="midnightblue" stroke="midnightblue" points="686.42,-527.32 696.31,-523.52 686.21,-520.32 686.42,-527.32"/>
</g>
<!-- Node34 -->
<g id="node34" class="node">
<title>Node34</title>
<g id="a_node34"><a xlink:href="classFEN.html#a0bfe254b9c0c3e163aecf70582e47761" target="_top" xlink:title="Gets types of piece.">
<polygon fill="white" stroke="black" points="842,-512.5 842,-531.5 977,-531.5 977,-512.5 842,-512.5"/>
<text text-anchor="middle" x="909.5" y="-519.5" font-family="Helvetica,sans-Serif" font-size="10.00">FEN::get_piece_notation</text>
</a>
</g>
</g>
<!-- Node33&#45;&gt;Node34 -->
<g id="edge45" class="edge">
<title>Node33&#45;&gt;Node34</title>
<path fill="none" stroke="midnightblue" d="M798.69,-522C809.14,-522 820.39,-522 831.56,-522"/>
<polygon fill="midnightblue" stroke="midnightblue" points="831.77,-525.5 841.77,-522 831.77,-518.5 831.77,-525.5"/>
</g>
<!-- Node35 -->
<g id="node35" class="node">
<title>Node35</title>
<g id="a_node35"><a xlink:href="classPiece.html#a5a18c08757a0eccdc6fd0686d4db6743" target="_top" xlink:title=" ">
<polygon fill="white" stroke="black" points="1045.5,-509.5 1045.5,-528.5 1139.5,-528.5 1139.5,-509.5 1045.5,-509.5"/>
<text text-anchor="middle" x="1092.5" y="-516.5" font-family="Helvetica,sans-Serif" font-size="10.00">Piece::get_color</text>
</a>
</g>
</g>
<!-- Node34&#45;&gt;Node35 -->
<g id="edge46" class="edge">
<title>Node34&#45;&gt;Node35</title>
<path fill="none" stroke="midnightblue" d="M977.13,-520.9C996.17,-520.58 1016.74,-520.24 1035.11,-519.93"/>
<polygon fill="midnightblue" stroke="midnightblue" points="1035.41,-523.43 1045.36,-519.76 1035.3,-516.43 1035.41,-523.43"/>
</g>
<!-- Node36 -->
<g id="node36" class="node">
<title>Node36</title>
<g id="a_node36"><a xlink:href="classPiece.html#af5e0b1b9ea85bcb3e61bb180005aa28a" target="_top" xlink:title=" ">
<polygon fill="white" stroke="black" points="1044.5,-547.5 1044.5,-566.5 1140.5,-566.5 1140.5,-547.5 1044.5,-547.5"/>
<text text-anchor="middle" x="1092.5" y="-554.5" font-family="Helvetica,sans-Serif" font-size="10.00">Piece::get_piece</text>
</a>
</g>
</g>
<!-- Node34&#45;&gt;Node36 -->
<g id="edge47" class="edge">
<title>Node34&#45;&gt;Node36</title>
<path fill="none" stroke="midnightblue" d="M959.96,-531.56C982.95,-536.01 1010.42,-541.32 1034.29,-545.94"/>
<polygon fill="midnightblue" stroke="midnightblue" points="1033.8,-549.41 1044.28,-547.87 1035.13,-542.53 1033.8,-549.41"/>
</g>
<!-- Node39 -->
<g id="node39" class="node">
<title>Node39</title>
<g id="a_node39"><a xlink:href="classRules.html#ac508b22d87dddf5225cf154785618413" target="_top" xlink:title="Check if stalemate occurs.">
<polygon fill="white" stroke="black" points="698,-164.5 698,-183.5 797,-183.5 797,-164.5 698,-164.5"/>
<text text-anchor="middle" x="747.5" y="-171.5" font-family="Helvetica,sans-Serif" font-size="10.00">Rules::stalemate</text>
</a>
</g>
</g>
<!-- Node38&#45;&gt;Node39 -->
<g id="edge50" class="edge">
<title>Node38&#45;&gt;Node39</title>
<path fill="none" stroke="midnightblue" d="M644.04,-174C658.37,-174 673.55,-174 687.7,-174"/>
<polygon fill="midnightblue" stroke="midnightblue" points="687.79,-177.5 697.79,-174 687.79,-170.5 687.79,-177.5"/>
</g>
<!-- Node39&#45;&gt;Node7 -->
<g id="edge51" class="edge">
<title>Node39&#45;&gt;Node7</title>
<path fill="none" stroke="midnightblue" d="M788.87,-164.41C809.99,-159.4 836.03,-153.21 858.42,-147.89"/>
<polygon fill="midnightblue" stroke="midnightblue" points="859.49,-151.24 868.42,-145.52 857.88,-144.43 859.49,-151.24"/>
</g>
<!-- Node39&#45;&gt;Node10 -->
<g id="edge52" class="edge">
<title>Node39&#45;&gt;Node10</title>
<path fill="none" stroke="midnightblue" d="M797.28,-174C854.54,-174 950.14,-174 1016.77,-174"/>
<polygon fill="midnightblue" stroke="midnightblue" points="1016.79,-177.5 1026.79,-174 1016.79,-170.5 1016.79,-177.5"/>
</g>
<!-- Node39&#45;&gt;Node19 -->
<g id="edge53" class="edge">
<title>Node39&#45;&gt;Node19</title>
<path fill="none" stroke="midnightblue" d="M768.76,-183.63C796.66,-196.87 847.05,-220.81 879.09,-236.03"/>
<polygon fill="midnightblue" stroke="midnightblue" points="877.87,-239.32 888.4,-240.45 880.87,-233 877.87,-239.32"/>
</g>
<!-- Node43 -->
<g id="node43" class="node">
<title>Node43</title>
<g id="a_node43"><a xlink:href="classFEN.html#a39f6253f19ae04797561c9fea3342cb7" target="_top" xlink:title="Reads FEN notation.">
<polygon fill="white" stroke="black" points="345.5,-76.5 345.5,-95.5 434.5,-95.5 434.5,-76.5 345.5,-76.5"/>
<text text-anchor="middle" x="390" y="-83.5" font-family="Helvetica,sans-Serif" font-size="10.00">FEN::read_FEN</text>
</a>
</g>
</g>
<!-- Node42&#45;&gt;Node43 -->
<g id="edge58" class="edge">
<title>Node42&#45;&gt;Node43</title>
<path fill="none" stroke="midnightblue" d="M273.03,-87.92C293.42,-87.58 315.67,-87.21 335.17,-86.89"/>
<polygon fill="midnightblue" stroke="midnightblue" points="335.46,-90.39 345.4,-86.72 335.34,-83.39 335.46,-90.39"/>
</g>
<!-- Node44 -->
<g id="node44" class="node">
<title>Node44</title>
<g id="a_node44"><a xlink:href="classInput__handler.html#aeee21ed8a9cdd37b4f39c530e7d2ca15" target="_top" xlink:title="Checks if char is &lt;0, 8&gt;">
<polygon fill="white" stroke="black" points="511.5,-0.5 511.5,-19.5 648.5,-19.5 648.5,-0.5 511.5,-0.5"/>
<text text-anchor="middle" x="580" y="-7.5" font-family="Helvetica,sans-Serif" font-size="10.00">Input_handler::check_col</text>
</a>
</g>
</g>
<!-- Node43&#45;&gt;Node44 -->
<g id="edge59" class="edge">
<title>Node43&#45;&gt;Node44</title>
<path fill="none" stroke="midnightblue" d="M407.82,-76.41C429.98,-64.08 470.42,-42.66 507,-29 513.43,-26.6 520.29,-24.38 527.12,-22.36"/>
<polygon fill="midnightblue" stroke="midnightblue" points="528.38,-25.64 537.06,-19.57 526.49,-18.91 528.38,-25.64"/>
</g>
<!-- Node45 -->
<g id="node45" class="node">
<title>Node45</title>
<g id="a_node45"><a xlink:href="classInput__handler.html#ae6cc6114be79e000f8a6f7156198e0f4" target="_top" xlink:title="Converts char to int.">
<polygon fill="white" stroke="black" points="507,-115 507,-145 653,-145 653,-115 507,-115"/>
<text text-anchor="start" x="515" y="-133" font-family="Helvetica,sans-Serif" font-size="10.00">Input_handler::coordinates</text>
<text text-anchor="middle" x="580" y="-122" font-family="Helvetica,sans-Serif" font-size="10.00">_to_int</text>
</a>
</g>
</g>
<!-- Node43&#45;&gt;Node45 -->
<g id="edge60" class="edge">
<title>Node43&#45;&gt;Node45</title>
<path fill="none" stroke="midnightblue" d="M431.79,-95.55C453.15,-100.55 479.97,-106.82 504.84,-112.64"/>
<polygon fill="midnightblue" stroke="midnightblue" points="504.1,-116.06 514.63,-114.93 505.69,-109.25 504.1,-116.06"/>
</g>
<!-- Node46 -->
<g id="node46" class="node">
<title>Node46</title>
<g id="a_node46"><a xlink:href="classFEN.html#ad13a4a36c9bebfaf47e275bfe1ee9084" target="_top" xlink:title="Corrects FEN pieces.">
<polygon fill="white" stroke="black" points="511.5,-76.5 511.5,-95.5 648.5,-95.5 648.5,-76.5 511.5,-76.5"/>
<text text-anchor="middle" x="580" y="-83.5" font-family="Helvetica,sans-Serif" font-size="10.00">FEN::correct_FEN_pieces</text>
</a>
</g>
</g>
<!-- Node43&#45;&gt;Node46 -->
<g id="edge61" class="edge">
<title>Node43&#45;&gt;Node46</title>
<path fill="none" stroke="midnightblue" d="M434.6,-86C454.45,-86 478.54,-86 501.32,-86"/>
<polygon fill="midnightblue" stroke="midnightblue" points="501.33,-89.5 511.33,-86 501.33,-82.5 501.33,-89.5"/>
</g>
<!-- Node47 -->
<g id="node47" class="node">
<title>Node47</title>
<g id="a_node47"><a xlink:href="classFEN.html#a4ce3e20e91398d07dc96524af182e034" target="_top" xlink:title="Fills chess pieces into board.">
<polygon fill="white" stroke="black" points="534.5,-38.5 534.5,-57.5 625.5,-57.5 625.5,-38.5 534.5,-38.5"/>
<text text-anchor="middle" x="580" y="-45.5" font-family="Helvetica,sans-Serif" font-size="10.00">FEN::fill_pieces</text>
</a>
</g>
</g>
<!-- Node43&#45;&gt;Node47 -->
<g id="edge62" class="edge">
<title>Node43&#45;&gt;Node47</title>
<path fill="none" stroke="midnightblue" d="M434.6,-77.19C461.38,-71.77 495.91,-64.79 524.49,-59.02"/>
<polygon fill="midnightblue" stroke="midnightblue" points="525.22,-62.44 534.33,-57.03 523.83,-55.58 525.22,-62.44"/>
</g>
<!-- Node48 -->
<g id="node48" class="node">
<title>Node48</title>
<g id="a_node48"><a xlink:href="classFEN.html#addf59b1321695a3fe9c8588df468954a" target="_top" xlink:title="Place pieces on chess board.">
<polygon fill="white" stroke="black" points="689,-33 689,-63 806,-63 806,-33 689,-33"/>
<text text-anchor="start" x="697" y="-51" font-family="Helvetica,sans-Serif" font-size="10.00">FEN::place_piece_on</text>
<text text-anchor="middle" x="747.5" y="-40" font-family="Helvetica,sans-Serif" font-size="10.00">_board</text>
</a>
</g>
</g>
<!-- Node47&#45;&gt;Node48 -->
<g id="edge63" class="edge">
<title>Node47&#45;&gt;Node48</title>
<path fill="none" stroke="midnightblue" d="M625.79,-48C642.03,-48 660.77,-48 678.56,-48"/>
<polygon fill="midnightblue" stroke="midnightblue" points="678.9,-51.5 688.9,-48 678.9,-44.5 678.9,-51.5"/>
</g>
</g>
</svg>
