<?xml version="1.0" encoding="UTF-8" standalone="no"?>
<!DOCTYPE svg PUBLIC "-//W3C//DTD SVG 1.1//EN"
 "http://www.w3.org/Graphics/SVG/1.1/DTD/svg11.dtd">
<!-- Generated by graphviz version 2.43.0 (0)
 -->
<!-- Title: Pawn::possible_moves Pages: 1 -->
<svg width="280pt" height="104pt"
 viewBox="0.00 0.00 280.00 104.00" xmlns="http://www.w3.org/2000/svg" xmlns:xlink="http://www.w3.org/1999/xlink">
<g id="graph0" class="graph" transform="scale(1 1) rotate(0) translate(4 100)">
<title>Pawn::possible_moves</title>
<polygon fill="white" stroke="transparent" points="-4,4 -4,-100 276,-100 276,4 -4,4"/>
<!-- Node1 -->
<g id="node1" class="node">
<title>Node1</title>
<g id="a_node1"><a xlink:title="Find all possible move based on piece type.">
<polygon fill="#bfbfbf" stroke="black" points="0,-38.5 0,-57.5 127,-57.5 127,-38.5 0,-38.5"/>
<text text-anchor="middle" x="63.5" y="-45.5" font-family="Helvetica,sans-Serif" font-size="10.00">Pawn::possible_moves</text>
</a>
</g>
</g>
<!-- Node2 -->
<g id="node2" class="node">
<title>Node2</title>
<g id="a_node2"><a xlink:href="classPiece.html#a19446ccc1dce47aa1c77733242657f25" target="_top" xlink:title="Adds move to possible moves.">
<polygon fill="white" stroke="black" points="167.5,-76.5 167.5,-95.5 267.5,-95.5 267.5,-76.5 167.5,-76.5"/>
<text text-anchor="middle" x="217.5" y="-83.5" font-family="Helvetica,sans-Serif" font-size="10.00">Piece::add_move</text>
</a>
</g>
</g>
<!-- Node1&#45;&gt;Node2 -->
<g id="edge1" class="edge">
<title>Node1&#45;&gt;Node2</title>
<path fill="none" stroke="midnightblue" d="M102.86,-57.59C122.82,-62.58 147.43,-68.73 168.63,-74.03"/>
<polygon fill="midnightblue" stroke="midnightblue" points="167.87,-77.45 178.42,-76.48 169.57,-70.66 167.87,-77.45"/>
</g>
<!-- Node3 -->
<g id="node3" class="node">
<title>Node3</title>
<g id="a_node3"><a xlink:href="classPiece.html#a5a18c08757a0eccdc6fd0686d4db6743" target="_top" xlink:title=" ">
<polygon fill="white" stroke="black" points="170.5,-38.5 170.5,-57.5 264.5,-57.5 264.5,-38.5 170.5,-38.5"/>
<text text-anchor="middle" x="217.5" y="-45.5" font-family="Helvetica,sans-Serif" font-size="10.00">Piece::get_color</text>
</a>
</g>
</g>
<!-- Node1&#45;&gt;Node3 -->
<g id="edge2" class="edge">
<title>Node1&#45;&gt;Node3</title>
<path fill="none" stroke="midnightblue" d="M127.2,-48C138.11,-48 149.39,-48 160.12,-48"/>
<polygon fill="midnightblue" stroke="midnightblue" points="160.2,-51.5 170.2,-48 160.2,-44.5 160.2,-51.5"/>
</g>
<!-- Node4 -->
<g id="node4" class="node">
<title>Node4</title>
<g id="a_node4"><a xlink:href="classPiece.html#a6dcc7df628eb1f8317caaa4970835517" target="_top" xlink:title=" ">
<polygon fill="white" stroke="black" points="163,-0.5 163,-19.5 272,-19.5 272,-0.5 163,-0.5"/>
<text text-anchor="middle" x="217.5" y="-7.5" font-family="Helvetica,sans-Serif" font-size="10.00">Piece::get_position</text>
</a>
</g>
</g>
<!-- Node1&#45;&gt;Node4 -->
<g id="edge3" class="edge">
<title>Node1&#45;&gt;Node4</title>
<path fill="none" stroke="midnightblue" d="M102.86,-38.41C122.82,-33.42 147.43,-27.27 168.63,-21.97"/>
<polygon fill="midnightblue" stroke="midnightblue" points="169.57,-25.34 178.42,-19.52 167.87,-18.55 169.57,-25.34"/>
</g>
</g>
</svg>
