<?xml version="1.0" encoding="UTF-8" standalone="no"?>
<!DOCTYPE svg PUBLIC "-//W3C//DTD SVG 1.1//EN"
 "http://www.w3.org/Graphics/SVG/1.1/DTD/svg11.dtd">
<!-- Generated by graphviz version 2.43.0 (0)
 -->
<!-- Title: Application::change_turns Pages: 1 -->
<svg width="962pt" height="392pt"
 viewBox="0.00 0.00 962.00 392.24" xmlns="http://www.w3.org/2000/svg" xmlns:xlink="http://www.w3.org/1999/xlink">
<g id="graph0" class="graph" transform="scale(1 1) rotate(0) translate(4 388.24)">
<title>Application::change_turns</title>
<polygon fill="white" stroke="transparent" points="-4,4 -4,-388.24 958,-388.24 958,4 -4,4"/>
<!-- Node1 -->
<g id="node1" class="node">
<title>Node1</title>
<g id="a_node1"><a xlink:title="Changes turn of game.">
<polygon fill="#bfbfbf" stroke="black" points="0,-150.24 0,-180.24 113,-180.24 113,-150.24 0,-150.24"/>
<text text-anchor="start" x="8" y="-168.24" font-family="Helvetica,sans-Serif" font-size="10.00">Application::change</text>
<text text-anchor="middle" x="56.5" y="-157.24" font-family="Helvetica,sans-Serif" font-size="10.00">_turns</text>
</a>
</g>
</g>
<!-- Node2 -->
<g id="node2" class="node">
<title>Node2</title>
<g id="a_node2"><a xlink:href="classApplication.html#a162a3f466352b474a10516c7f0b0ae9a" target="_top" xlink:title=" ">
<polygon fill="white" stroke="black" points="149,-155.74 149,-174.74 280,-174.74 280,-155.74 149,-155.74"/>
<text text-anchor="middle" x="214.5" y="-162.74" font-family="Helvetica,sans-Serif" font-size="10.00">Application::play_move</text>
</a>
</g>
</g>
<!-- Node1&#45;&gt;Node2 -->
<g id="edge1" class="edge">
<title>Node1&#45;&gt;Node2</title>
<path fill="none" stroke="midnightblue" d="M113.38,-165.24C121.67,-165.24 130.33,-165.24 138.93,-165.24"/>
<polygon fill="midnightblue" stroke="midnightblue" points="138.98,-168.74 148.98,-165.24 138.98,-161.74 138.98,-168.74"/>
</g>
<!-- Node3 -->
<g id="node3" class="node">
<title>Node3</title>
<g id="a_node3"><a xlink:href="classRules.html#abd9b013ebba58f9757336a20b2c6bf8e" target="_top" xlink:title="Checks if king is in check.">
<polygon fill="white" stroke="black" points="479,-231.74 479,-250.74 568,-250.74 568,-231.74 479,-231.74"/>
<text text-anchor="middle" x="523.5" y="-238.74" font-family="Helvetica,sans-Serif" font-size="10.00">Rules::checked</text>
</a>
</g>
</g>
<!-- Node2&#45;&gt;Node3 -->
<g id="edge2" class="edge">
<title>Node2&#45;&gt;Node3</title>
<path fill="none" stroke="midnightblue" d="M228.32,-174.92C246.65,-188.18 281.93,-211.56 316,-222.24 366.14,-237.97 426.24,-241.94 468.64,-242.44"/>
<polygon fill="midnightblue" stroke="midnightblue" points="468.73,-245.94 478.75,-242.5 468.77,-238.94 468.73,-245.94"/>
</g>
<!-- Node7 -->
<g id="node7" class="node">
<title>Node7</title>
<g id="a_node7"><a xlink:href="classRules.html#a4ec21c1bd51c73135ed26eafa0da58d3" target="_top" xlink:title="Checks if king is in checkmate.">
<polygon fill="white" stroke="black" points="316,-193.74 316,-212.74 420,-212.74 420,-193.74 316,-193.74"/>
<text text-anchor="middle" x="368" y="-200.74" font-family="Helvetica,sans-Serif" font-size="10.00">Rules::checkmate</text>
</a>
</g>
</g>
<!-- Node2&#45;&gt;Node7 -->
<g id="edge6" class="edge">
<title>Node2&#45;&gt;Node7</title>
<path fill="none" stroke="midnightblue" d="M253.73,-174.83C273.63,-179.82 298.16,-185.98 319.29,-191.28"/>
<polygon fill="midnightblue" stroke="midnightblue" points="318.49,-194.68 329.05,-193.72 320.2,-187.9 318.49,-194.68"/>
</g>
<!-- Node8 -->
<g id="node8" class="node">
<title>Node8</title>
<g id="a_node8"><a xlink:href="classMove.html#a3765dcce8a7c18e0c2f7ce42c98fa2ba" target="_top" xlink:title="Makes move with piece.">
<polygon fill="white" stroke="black" points="468.5,-145.74 468.5,-164.74 578.5,-164.74 578.5,-145.74 468.5,-145.74"/>
<text text-anchor="middle" x="523.5" y="-152.74" font-family="Helvetica,sans-Serif" font-size="10.00">Move::make_move</text>
</a>
</g>
</g>
<!-- Node2&#45;&gt;Node8 -->
<g id="edge27" class="edge">
<title>Node2&#45;&gt;Node8</title>
<path fill="none" stroke="midnightblue" d="M280.23,-163.13C332.51,-161.43 405.73,-159.05 457.96,-157.35"/>
<polygon fill="midnightblue" stroke="midnightblue" points="458.23,-160.84 468.11,-157.01 458,-153.84 458.23,-160.84"/>
</g>
<!-- Node14 -->
<g id="node14" class="node">
<title>Node14</title>
<g id="a_node14"><a xlink:href="classMove.html#afbed08d3294e3c7913dd27c3d6afd283" target="_top" xlink:title="Undo move.">
<polygon fill="white" stroke="black" points="470,-107.74 470,-126.74 577,-126.74 577,-107.74 470,-107.74"/>
<text text-anchor="middle" x="523.5" y="-114.74" font-family="Helvetica,sans-Serif" font-size="10.00">Move::undo_move</text>
</a>
</g>
</g>
<!-- Node2&#45;&gt;Node14 -->
<g id="edge29" class="edge">
<title>Node2&#45;&gt;Node14</title>
<path fill="none" stroke="midnightblue" d="M276.52,-155.7C329.58,-147.41 406.15,-135.43 459.72,-127.06"/>
<polygon fill="midnightblue" stroke="midnightblue" points="460.44,-130.49 469.78,-125.49 459.36,-123.57 460.44,-130.49"/>
</g>
<!-- Node15 -->
<g id="node15" class="node">
<title>Node15</title>
<g id="a_node15"><a xlink:href="classValidate.html#afe077c5b0107ffc1c42670e233257b9c" target="_top" xlink:title="Validates move.">
<polygon fill="white" stroke="black" points="456,-307.74 456,-326.74 591,-326.74 591,-307.74 456,-307.74"/>
<text text-anchor="middle" x="523.5" y="-314.74" font-family="Helvetica,sans-Serif" font-size="10.00">Validate::validate_move</text>
</a>
</g>
</g>
<!-- Node2&#45;&gt;Node15 -->
<g id="edge30" class="edge">
<title>Node2&#45;&gt;Node15</title>
<path fill="none" stroke="midnightblue" d="M225.27,-174.75C242.38,-190.95 279.44,-224.13 316,-244.24 367.15,-272.39 431.23,-293.03 474.32,-305.05"/>
<polygon fill="midnightblue" stroke="midnightblue" points="473.43,-308.43 484,-307.7 475.28,-301.68 473.43,-308.43"/>
</g>
<!-- Node19 -->
<g id="node19" class="node">
<title>Node19</title>
<g id="a_node19"><a xlink:href="classPlayer.html#afca2a1d6d42d2f3a04abb9ab5bc3d323" target="_top" xlink:title="Gets player&#39;s move.">
<polygon fill="white" stroke="black" points="317,-79.74 317,-98.74 419,-98.74 419,-79.74 317,-79.74"/>
<text text-anchor="middle" x="368" y="-86.74" font-family="Helvetica,sans-Serif" font-size="10.00">Player::get_move</text>
</a>
</g>
</g>
<!-- Node2&#45;&gt;Node19 -->
<g id="edge26" class="edge">
<title>Node2&#45;&gt;Node19</title>
<path fill="none" stroke="midnightblue" d="M233.55,-155.64C253.59,-145.05 286.94,-127.59 316,-113.24 322.76,-109.91 330.06,-106.41 336.98,-103.14"/>
<polygon fill="midnightblue" stroke="midnightblue" points="338.5,-106.29 346.07,-98.88 335.53,-99.95 338.5,-106.29"/>
</g>
<!-- Node20 -->
<g id="node20" class="node">
<title>Node20</title>
<g id="a_node20"><a xlink:href="classApplication.html#afef57a39fdd32b4c10464d8a9d979816" target="_top" xlink:title="Prints who plays next.">
<polygon fill="white" stroke="black" points="318,-30.24 318,-60.24 418,-60.24 418,-30.24 318,-30.24"/>
<text text-anchor="start" x="326" y="-48.24" font-family="Helvetica,sans-Serif" font-size="10.00">Application::print</text>
<text text-anchor="middle" x="368" y="-37.24" font-family="Helvetica,sans-Serif" font-size="10.00">_color</text>
</a>
</g>
</g>
<!-- Node2&#45;&gt;Node20 -->
<g id="edge28" class="edge">
<title>Node2&#45;&gt;Node20</title>
<path fill="none" stroke="midnightblue" d="M223.85,-155.61C240.14,-137.24 277.93,-96.66 316,-70.24 318.51,-68.5 321.16,-66.81 323.88,-65.19"/>
<polygon fill="midnightblue" stroke="midnightblue" points="325.69,-68.19 332.72,-60.27 322.28,-62.08 325.69,-68.19"/>
</g>
<!-- Node4 -->
<g id="node4" class="node">
<title>Node4</title>
<g id="a_node4"><a xlink:href="classValidate.html#a3e4b7f61bff7ee9d7d839ead34d2d61f" target="_top" xlink:title="Checks if square is empty.">
<polygon fill="white" stroke="black" points="834.5,-250.74 834.5,-269.74 941.5,-269.74 941.5,-250.74 834.5,-250.74"/>
<text text-anchor="middle" x="888" y="-257.74" font-family="Helvetica,sans-Serif" font-size="10.00">Validate::is_empty</text>
</a>
</g>
</g>
<!-- Node3&#45;&gt;Node4 -->
<g id="edge3" class="edge">
<title>Node3&#45;&gt;Node4</title>
<path fill="none" stroke="midnightblue" d="M568.23,-243.53C632.07,-246.88 751.15,-253.12 824.31,-256.96"/>
<polygon fill="midnightblue" stroke="midnightblue" points="824.15,-260.45 834.32,-257.48 824.52,-253.46 824.15,-260.45"/>
</g>
<!-- Node5 -->
<g id="node5" class="node">
<title>Node5</title>
<g id="a_node5"><a xlink:href="classValidate.html#ab5ba0f592c1cd28a57deab9ef608f2df" target="_top" xlink:title="Checks if piece is same color as player.">
<polygon fill="white" stroke="black" points="822,-288.74 822,-307.74 954,-307.74 954,-288.74 822,-288.74"/>
<text text-anchor="middle" x="888" y="-295.74" font-family="Helvetica,sans-Serif" font-size="10.00">Validate::is_same_color</text>
</a>
</g>
</g>
<!-- Node3&#45;&gt;Node5 -->
<g id="edge4" class="edge">
<title>Node3&#45;&gt;Node5</title>
<path fill="none" stroke="midnightblue" d="M563.27,-250.81C582.38,-255.31 605.81,-260.49 627,-264.24 688.88,-275.21 759.63,-284.23 811.68,-290.22"/>
<polygon fill="midnightblue" stroke="midnightblue" points="811.51,-293.73 821.84,-291.38 812.3,-286.77 811.51,-293.73"/>
</g>
<!-- Node6 -->
<g id="node6" class="node">
<title>Node6</title>
<g id="a_node6"><a xlink:href="classValidate.html#a50364e1735875d1d74e7eb251b3fd7e5" target="_top" xlink:title="Validates position.">
<polygon fill="white" stroke="black" points="641,-212.74 641,-231.74 772,-231.74 772,-212.74 641,-212.74"/>
<text text-anchor="middle" x="706.5" y="-219.74" font-family="Helvetica,sans-Serif" font-size="10.00">Validate::valid_position</text>
</a>
</g>
</g>
<!-- Node3&#45;&gt;Node6 -->
<g id="edge5" class="edge">
<title>Node3&#45;&gt;Node6</title>
<path fill="none" stroke="midnightblue" d="M568.32,-236.64C587.1,-234.67 609.58,-232.31 630.86,-230.08"/>
<polygon fill="midnightblue" stroke="midnightblue" points="631.28,-233.55 640.86,-229.03 630.55,-226.59 631.28,-233.55"/>
</g>
<!-- Node7&#45;&gt;Node3 -->
<g id="edge7" class="edge">
<title>Node7&#45;&gt;Node3</title>
<path fill="none" stroke="midnightblue" d="M407.73,-212.83C427.9,-217.82 452.75,-223.98 474.16,-229.28"/>
<polygon fill="midnightblue" stroke="midnightblue" points="473.5,-232.72 484.04,-231.72 475.18,-225.92 473.5,-232.72"/>
</g>
<!-- Node7&#45;&gt;Node6 -->
<g id="edge19" class="edge">
<title>Node7&#45;&gt;Node6</title>
<path fill="none" stroke="midnightblue" d="M420.11,-206.13C476.22,-209.3 566.83,-214.41 630.88,-218.03"/>
<polygon fill="midnightblue" stroke="midnightblue" points="630.74,-221.53 640.92,-218.6 631.14,-214.54 630.74,-221.53"/>
</g>
<!-- Node7&#45;&gt;Node8 -->
<g id="edge8" class="edge">
<title>Node7&#45;&gt;Node8</title>
<path fill="none" stroke="midnightblue" d="M399.69,-193.64C423.33,-186.25 456.21,-175.97 482,-167.91"/>
<polygon fill="midnightblue" stroke="midnightblue" points="483.36,-171.15 491.86,-164.82 481.27,-164.47 483.36,-171.15"/>
</g>
<!-- Node7&#45;&gt;Node14 -->
<g id="edge17" class="edge">
<title>Node7&#45;&gt;Node14</title>
<path fill="none" stroke="midnightblue" d="M378.84,-193.6C394.12,-179.14 425.02,-151.87 456,-136.24 460.57,-133.94 465.47,-131.87 470.45,-130.03"/>
<polygon fill="midnightblue" stroke="midnightblue" points="471.74,-133.29 480.08,-126.76 469.49,-126.66 471.74,-133.29"/>
</g>
<!-- Node7&#45;&gt;Node15 -->
<g id="edge20" class="edge">
<title>Node7&#45;&gt;Node15</title>
<path fill="none" stroke="midnightblue" d="M381.82,-212.77C408.17,-232.33 468.63,-277.23 501.04,-301.31"/>
<polygon fill="midnightblue" stroke="midnightblue" points="499.27,-304.35 509.39,-307.5 503.45,-298.73 499.27,-304.35"/>
</g>
<!-- Node9 -->
<g id="node9" class="node">
<title>Node9</title>
<g id="a_node9"><a xlink:href="classPlayer.html#a42e54e616455af5d9d4b6dea514ba7a0" target="_top" xlink:title="Checks player&#39;s pawn promotion.">
<polygon fill="white" stroke="black" points="644,-60.74 644,-79.74 769,-79.74 769,-60.74 644,-60.74"/>
<text text-anchor="middle" x="706.5" y="-67.74" font-family="Helvetica,sans-Serif" font-size="10.00">Player::get_promotion</text>
</a>
</g>
</g>
<!-- Node8&#45;&gt;Node9 -->
<g id="edge9" class="edge">
<title>Node8&#45;&gt;Node9</title>
<path fill="none" stroke="midnightblue" d="M572.32,-145.63C578.91,-143.17 585.34,-140.09 591,-136.24 612.75,-121.44 604.95,-103.6 627,-89.24 630.18,-87.17 633.57,-85.32 637.09,-83.68"/>
<polygon fill="midnightblue" stroke="midnightblue" points="638.7,-86.8 646.63,-79.77 636.05,-80.32 638.7,-86.8"/>
</g>
<!-- Node10 -->
<g id="node10" class="node">
<title>Node10</title>
<g id="a_node10"><a xlink:href="classMove.html#a5472b83ec6bcde0fd8c16c4508896ccd" target="_top" xlink:title="Handles casting.">
<polygon fill="white" stroke="black" points="643.5,-98.74 643.5,-117.74 769.5,-117.74 769.5,-98.74 643.5,-98.74"/>
<text text-anchor="middle" x="706.5" y="-105.74" font-family="Helvetica,sans-Serif" font-size="10.00">Move::handle_castling</text>
</a>
</g>
</g>
<!-- Node8&#45;&gt;Node10 -->
<g id="edge10" class="edge">
<title>Node8&#45;&gt;Node10</title>
<path fill="none" stroke="midnightblue" d="M558.6,-145.66C578.51,-140.13 604.13,-133.13 627,-127.24 636.07,-124.91 645.76,-122.49 655.12,-120.21"/>
<polygon fill="midnightblue" stroke="midnightblue" points="656.21,-123.54 665.11,-117.78 654.56,-116.74 656.21,-123.54"/>
</g>
<!-- Node11 -->
<g id="node11" class="node">
<title>Node11</title>
<g id="a_node11"><a xlink:href="classMove.html#a5a18864c15112c49e5a93dbee3f83d1c" target="_top" xlink:title="Moves piece from start to end.">
<polygon fill="white" stroke="black" points="833.5,-79.74 833.5,-98.74 942.5,-98.74 942.5,-79.74 833.5,-79.74"/>
<text text-anchor="middle" x="888" y="-86.74" font-family="Helvetica,sans-Serif" font-size="10.00">Move::move_piece</text>
</a>
</g>
</g>
<!-- Node8&#45;&gt;Node11 -->
<g id="edge12" class="edge">
<title>Node8&#45;&gt;Node11</title>
<path fill="none" stroke="midnightblue" d="M575.98,-145.71C581.44,-143.24 586.59,-140.14 591,-136.24 621.73,-109.06 592.8,-73.9 627,-51.24 700.62,-2.47 811.58,-49.19 861.31,-74.87"/>
<polygon fill="midnightblue" stroke="midnightblue" points="859.93,-78.11 870.41,-79.69 863.21,-71.92 859.93,-78.11"/>
</g>
<!-- Node12 -->
<g id="node12" class="node">
<title>Node12</title>
<g id="a_node12"><a xlink:href="classMove.html#a9a242db5d52827dd11f81a6aa46e339e" target="_top" xlink:title="Handles pawn promotion.">
<polygon fill="white" stroke="black" points="656.5,-136.74 656.5,-155.74 756.5,-155.74 756.5,-136.74 656.5,-136.74"/>
<text text-anchor="middle" x="706.5" y="-143.74" font-family="Helvetica,sans-Serif" font-size="10.00">Move::promotion</text>
</a>
</g>
</g>
<!-- Node8&#45;&gt;Node12 -->
<g id="edge13" class="edge">
<title>Node8&#45;&gt;Node12</title>
<path fill="none" stroke="midnightblue" d="M578.81,-152.54C600.11,-151.48 624.62,-150.26 646.37,-149.18"/>
<polygon fill="midnightblue" stroke="midnightblue" points="646.66,-152.67 656.47,-148.68 646.31,-145.68 646.66,-152.67"/>
</g>
<!-- Node13 -->
<g id="node13" class="node">
<title>Node13</title>
<g id="a_node13"><a xlink:href="classPlayer.html#a620bf4cb1907eafdbcd9252a750ffa8f" target="_top" xlink:title="Update piece&#39;s position on chess board.">
<polygon fill="white" stroke="black" points="826,-155.74 826,-174.74 950,-174.74 950,-155.74 826,-155.74"/>
<text text-anchor="middle" x="888" y="-162.74" font-family="Helvetica,sans-Serif" font-size="10.00">Player::update_pieces</text>
</a>
</g>
</g>
<!-- Node8&#45;&gt;Node13 -->
<g id="edge16" class="edge">
<title>Node8&#45;&gt;Node13</title>
<path fill="none" stroke="midnightblue" d="M578.69,-161.52C594.26,-163.06 611.28,-164.48 627,-165.24 690.72,-168.34 763.32,-168.02 815.59,-167.11"/>
<polygon fill="midnightblue" stroke="midnightblue" points="815.83,-170.61 825.76,-166.92 815.69,-163.61 815.83,-170.61"/>
</g>
<!-- Node10&#45;&gt;Node11 -->
<g id="edge11" class="edge">
<title>Node10&#45;&gt;Node11</title>
<path fill="none" stroke="midnightblue" d="M769.53,-101.68C786.89,-99.84 805.79,-97.84 823.26,-95.99"/>
<polygon fill="midnightblue" stroke="midnightblue" points="823.77,-99.46 833.35,-94.92 823.04,-92.49 823.77,-99.46"/>
</g>
<!-- Node12&#45;&gt;Node11 -->
<g id="edge14" class="edge">
<title>Node12&#45;&gt;Node11</title>
<path fill="none" stroke="midnightblue" d="M750.95,-136.73C762.42,-133.95 774.74,-130.71 786,-127.24 809.28,-120.07 834.97,-110.38 854.61,-102.58"/>
<polygon fill="midnightblue" stroke="midnightblue" points="856.03,-105.79 864.01,-98.81 853.43,-99.29 856.03,-105.79"/>
</g>
<!-- Node12&#45;&gt;Node13 -->
<g id="edge15" class="edge">
<title>Node12&#45;&gt;Node13</title>
<path fill="none" stroke="midnightblue" d="M756.55,-151.43C774.84,-153.37 796,-155.61 815.88,-157.71"/>
<polygon fill="midnightblue" stroke="midnightblue" points="815.51,-161.2 825.82,-158.77 816.25,-154.23 815.51,-161.2"/>
</g>
<!-- Node14&#45;&gt;Node11 -->
<g id="edge18" class="edge">
<title>Node14&#45;&gt;Node11</title>
<path fill="none" stroke="midnightblue" d="M530.69,-107.45C544.74,-86.28 581.35,-36.69 627,-18.24 692.52,8.23 718.62,3.07 786,-18.24 819.64,-28.89 851.79,-55.2 870.45,-72.63"/>
<polygon fill="midnightblue" stroke="midnightblue" points="868.17,-75.3 877.8,-79.71 873.02,-70.26 868.17,-75.3"/>
</g>
<!-- Node16 -->
<g id="node16" class="node">
<title>Node16</title>
<g id="a_node16"><a xlink:href="classValidate.html#ac11fdbf661a340f903a8a8b581710c34" target="_top" xlink:title="Finds all possible moves for piece.">
<polygon fill="white" stroke="black" points="627,-326.74 627,-345.74 786,-345.74 786,-326.74 627,-326.74"/>
<text text-anchor="middle" x="706.5" y="-333.74" font-family="Helvetica,sans-Serif" font-size="10.00">Validate::find_possible_move</text>
</a>
</g>
</g>
<!-- Node15&#45;&gt;Node16 -->
<g id="edge21" class="edge">
<title>Node15&#45;&gt;Node16</title>
<path fill="none" stroke="midnightblue" d="M591.13,-324.24C599.46,-325.11 608.08,-326.02 616.68,-326.92"/>
<polygon fill="midnightblue" stroke="midnightblue" points="616.44,-330.41 626.75,-327.98 617.17,-323.45 616.44,-330.41"/>
</g>
<!-- Node18 -->
<g id="node18" class="node">
<title>Node18</title>
<g id="a_node18"><a xlink:href="classValidate.html#a6c88b44fd5d40b6aba0812e2d23d8f04" target="_top" xlink:title="Checks if castling is valid.">
<polygon fill="white" stroke="black" points="641.5,-364.74 641.5,-383.74 771.5,-383.74 771.5,-364.74 641.5,-364.74"/>
<text text-anchor="middle" x="706.5" y="-371.74" font-family="Helvetica,sans-Serif" font-size="10.00">Validate::valid_castling</text>
</a>
</g>
</g>
<!-- Node15&#45;&gt;Node18 -->
<g id="edge25" class="edge">
<title>Node15&#45;&gt;Node18</title>
<path fill="none" stroke="midnightblue" d="M547.84,-326.79C568.45,-335 599.41,-346.82 627,-355.24 635.1,-357.71 643.74,-360.08 652.22,-362.24"/>
<polygon fill="midnightblue" stroke="midnightblue" points="651.52,-365.67 662.06,-364.69 653.21,-358.88 651.52,-365.67"/>
</g>
<!-- Node16&#45;&gt;Node4 -->
<g id="edge23" class="edge">
<title>Node16&#45;&gt;Node4</title>
<path fill="none" stroke="midnightblue" d="M724.52,-326.57C746.51,-314.35 786.23,-293.25 822,-279.24 827.89,-276.94 834.18,-274.76 840.43,-272.76"/>
<polygon fill="midnightblue" stroke="midnightblue" points="841.64,-276.05 850.18,-269.77 839.59,-269.36 841.64,-276.05"/>
</g>
<!-- Node16&#45;&gt;Node5 -->
<g id="edge24" class="edge">
<title>Node16&#45;&gt;Node5</title>
<path fill="none" stroke="midnightblue" d="M752.8,-326.65C776.91,-321.55 806.75,-315.23 832.17,-309.85"/>
<polygon fill="midnightblue" stroke="midnightblue" points="832.97,-313.26 842.03,-307.76 831.52,-306.41 832.97,-313.26"/>
</g>
<!-- Node17 -->
<g id="node17" class="node">
<title>Node17</title>
<g id="a_node17"><a xlink:href="classValidate.html#aa7766a323b9443c69e62a05d04f0b217" target="_top" xlink:title="Finds if move is legit.">
<polygon fill="white" stroke="black" points="831.5,-326.74 831.5,-345.74 944.5,-345.74 944.5,-326.74 831.5,-326.74"/>
<text text-anchor="middle" x="888" y="-333.74" font-family="Helvetica,sans-Serif" font-size="10.00">Validate::find_move</text>
</a>
</g>
</g>
<!-- Node16&#45;&gt;Node17 -->
<g id="edge22" class="edge">
<title>Node16&#45;&gt;Node17</title>
<path fill="none" stroke="midnightblue" d="M786.23,-336.24C797.84,-336.24 809.7,-336.24 821.02,-336.24"/>
<polygon fill="midnightblue" stroke="midnightblue" points="821.24,-339.74 831.24,-336.24 821.24,-332.74 821.24,-339.74"/>
</g>
</g>
</svg>
