<?xml version="1.0" encoding="UTF-8" standalone="no"?>
<!DOCTYPE svg PUBLIC "-//W3C//DTD SVG 1.1//EN"
 "http://www.w3.org/Graphics/SVG/1.1/DTD/svg11.dtd">
<!-- Generated by graphviz version 2.43.0 (0)
 -->
<!-- Title: Input_handler::check_col Pages: 1 -->
<svg width="864pt" height="97pt"
 viewBox="0.00 0.00 864.00 96.50" xmlns="http://www.w3.org/2000/svg" xmlns:xlink="http://www.w3.org/1999/xlink">
<g id="graph0" class="graph" transform="scale(1 1) rotate(0) translate(4 92.5)">
<title>Input_handler::check_col</title>
<polygon fill="white" stroke="transparent" points="-4,4 -4,-92.5 860,-92.5 860,4 -4,4"/>
<!-- Node1 -->
<g id="node1" class="node">
<title>Node1</title>
<g id="a_node1"><a xlink:title="Checks if char is &lt;0, 8&gt;">
<polygon fill="#bfbfbf" stroke="black" points="719,-41.5 719,-60.5 856,-60.5 856,-41.5 719,-41.5"/>
<text text-anchor="middle" x="787.5" y="-48.5" font-family="Helvetica,sans-Serif" font-size="10.00">Input_handler::check_col</text>
</a>
</g>
</g>
<!-- Node2 -->
<g id="node2" class="node">
<title>Node2</title>
<g id="a_node2"><a xlink:href="classInput__handler.html#a7752e2dfcba0db40b9bca5398c3d0d43" target="_top" xlink:title="Extract input.">
<polygon fill="white" stroke="black" points="559,-58 559,-88 683,-88 683,-58 559,-58"/>
<text text-anchor="start" x="567" y="-76" font-family="Helvetica,sans-Serif" font-size="10.00">Input_handler::extract</text>
<text text-anchor="middle" x="621" y="-65" font-family="Helvetica,sans-Serif" font-size="10.00">_input</text>
</a>
</g>
</g>
<!-- Node1&#45;&gt;Node2 -->
<g id="edge1" class="edge">
<title>Node1&#45;&gt;Node2</title>
<path fill="none" stroke="midnightblue" d="M708.64,-61.41C700.07,-62.56 691.44,-63.71 683.12,-64.83"/>
<polygon fill="midnightblue" stroke="midnightblue" points="709.19,-64.87 718.64,-60.08 708.27,-57.93 709.19,-64.87"/>
</g>
<!-- Node4 -->
<g id="node4" class="node">
<title>Node4</title>
<g id="a_node4"><a xlink:href="classFEN.html#a39f6253f19ae04797561c9fea3342cb7" target="_top" xlink:title="Reads FEN notation.">
<polygon fill="white" stroke="black" points="576.5,-19.5 576.5,-38.5 665.5,-38.5 665.5,-19.5 576.5,-19.5"/>
<text text-anchor="middle" x="621" y="-26.5" font-family="Helvetica,sans-Serif" font-size="10.00">FEN::read_FEN</text>
</a>
</g>
</g>
<!-- Node1&#45;&gt;Node4 -->
<g id="edge3" class="edge">
<title>Node1&#45;&gt;Node4</title>
<path fill="none" stroke="midnightblue" d="M708.51,-40.57C693.8,-38.6 678.91,-36.61 665.72,-34.85"/>
<polygon fill="midnightblue" stroke="midnightblue" points="708.27,-44.07 718.64,-41.92 709.19,-37.13 708.27,-44.07"/>
</g>
<!-- Node3 -->
<g id="node3" class="node">
<title>Node3</title>
<g id="a_node3"><a xlink:href="classHumanPlayer.html#a46bdedc3b6bc019820e591f542cffa61" target="_top" xlink:title="Gets player&#39;s move.">
<polygon fill="white" stroke="black" points="386,-63.5 386,-82.5 523,-82.5 523,-63.5 386,-63.5"/>
<text text-anchor="middle" x="454.5" y="-70.5" font-family="Helvetica,sans-Serif" font-size="10.00">HumanPlayer::get_move</text>
</a>
</g>
</g>
<!-- Node2&#45;&gt;Node3 -->
<g id="edge2" class="edge">
<title>Node2&#45;&gt;Node3</title>
<path fill="none" stroke="midnightblue" d="M548.56,-73C540.13,-73 531.54,-73 523.16,-73"/>
<polygon fill="midnightblue" stroke="midnightblue" points="548.75,-76.5 558.75,-73 548.75,-69.5 548.75,-76.5"/>
</g>
<!-- Node5 -->
<g id="node5" class="node">
<title>Node5</title>
<g id="a_node5"><a xlink:href="classFile__manager.html#ade44f79bfec1810354a04dc1829aa2a3" target="_top" xlink:title="Opens file.">
<polygon fill="white" stroke="black" points="388,-19.5 388,-38.5 521,-38.5 521,-19.5 388,-19.5"/>
<text text-anchor="middle" x="454.5" y="-26.5" font-family="Helvetica,sans-Serif" font-size="10.00">File_manager::open_file</text>
</a>
</g>
</g>
<!-- Node4&#45;&gt;Node5 -->
<g id="edge4" class="edge">
<title>Node4&#45;&gt;Node5</title>
<path fill="none" stroke="midnightblue" d="M566.13,-29C551.73,-29 536.01,-29 521.06,-29"/>
<polygon fill="midnightblue" stroke="midnightblue" points="566.35,-32.5 576.35,-29 566.35,-25.5 566.35,-32.5"/>
</g>
<!-- Node6 -->
<g id="node6" class="node">
<title>Node6</title>
<g id="a_node6"><a xlink:href="classMenu.html#ac90e451d94eb82769cf58eea174667be" target="_top" xlink:title="Load game.">
<polygon fill="white" stroke="black" points="237,-38.5 237,-57.5 341,-57.5 341,-38.5 237,-38.5"/>
<text text-anchor="middle" x="289" y="-45.5" font-family="Helvetica,sans-Serif" font-size="10.00">Menu::load_game</text>
</a>
</g>
</g>
<!-- Node5&#45;&gt;Node6 -->
<g id="edge5" class="edge">
<title>Node5&#45;&gt;Node6</title>
<path fill="none" stroke="midnightblue" d="M377.65,-37.81C365.31,-39.25 352.79,-40.7 341.23,-42.05"/>
<polygon fill="midnightblue" stroke="midnightblue" points="378.41,-41.25 387.94,-36.62 377.6,-34.3 378.41,-41.25"/>
</g>
<!-- Node9 -->
<g id="node9" class="node">
<title>Node9</title>
<g id="a_node9"><a xlink:href="classTutorial.html#ad4a5c074281c25791323e984dba390f2" target="_top" xlink:title="Start tutorial.">
<polygon fill="white" stroke="black" points="228,-0.5 228,-19.5 350,-19.5 350,-0.5 228,-0.5"/>
<text text-anchor="middle" x="289" y="-7.5" font-family="Helvetica,sans-Serif" font-size="10.00">Tutorial::start_tutorial</text>
</a>
</g>
</g>
<!-- Node5&#45;&gt;Node9 -->
<g id="edge8" class="edge">
<title>Node5&#45;&gt;Node9</title>
<path fill="none" stroke="midnightblue" d="M377.87,-20.21C368.53,-19.13 359.08,-18.03 350.02,-16.97"/>
<polygon fill="midnightblue" stroke="midnightblue" points="377.6,-23.7 387.94,-21.38 378.41,-16.75 377.6,-23.7"/>
</g>
<!-- Node7 -->
<g id="node7" class="node">
<title>Node7</title>
<g id="a_node7"><a xlink:href="classMenu.html#a35656cd130e24d69383a5c9d0a73a38c" target="_top" xlink:title="Runs menu.">
<polygon fill="white" stroke="black" points="102,-38.5 102,-57.5 167,-57.5 167,-38.5 102,-38.5"/>
<text text-anchor="middle" x="134.5" y="-45.5" font-family="Helvetica,sans-Serif" font-size="10.00">Menu::run</text>
</a>
</g>
</g>
<!-- Node6&#45;&gt;Node7 -->
<g id="edge6" class="edge">
<title>Node6&#45;&gt;Node7</title>
<path fill="none" stroke="midnightblue" d="M226.63,-48C206.27,-48 184.43,-48 167.24,-48"/>
<polygon fill="midnightblue" stroke="midnightblue" points="226.8,-51.5 236.8,-48 226.8,-44.5 226.8,-51.5"/>
</g>
<!-- Node8 -->
<g id="node8" class="node">
<title>Node8</title>
<g id="a_node8"><a xlink:href="main_8cpp.html#ae66f6b31b5ad750f1fe042a706a4e3d4" target="_top" xlink:title=" ">
<polygon fill="white" stroke="black" points="0,-38.5 0,-57.5 41,-57.5 41,-38.5 0,-38.5"/>
<text text-anchor="middle" x="20.5" y="-45.5" font-family="Helvetica,sans-Serif" font-size="10.00">main</text>
</a>
</g>
</g>
<!-- Node7&#45;&gt;Node8 -->
<g id="edge7" class="edge">
<title>Node7&#45;&gt;Node8</title>
<path fill="none" stroke="midnightblue" d="M91.27,-48C74.01,-48 54.9,-48 41.05,-48"/>
<polygon fill="midnightblue" stroke="midnightblue" points="91.7,-51.5 101.7,-48 91.7,-44.5 91.7,-51.5"/>
</g>
<!-- Node10 -->
<g id="node10" class="node">
<title>Node10</title>
<g id="a_node10"><a xlink:href="classTutorial.html#a42acfd364d5d606318eda4b733c973da" target="_top" xlink:title="Runs tutorial.">
<polygon fill="white" stroke="black" points="77,-0.5 77,-19.5 192,-19.5 192,-0.5 77,-0.5"/>
<text text-anchor="middle" x="134.5" y="-7.5" font-family="Helvetica,sans-Serif" font-size="10.00">Tutorial::run_tutorial</text>
</a>
</g>
</g>
<!-- Node9&#45;&gt;Node10 -->
<g id="edge9" class="edge">
<title>Node9&#45;&gt;Node10</title>
<path fill="none" stroke="midnightblue" d="M217.52,-10C209.09,-10 200.56,-10 192.35,-10"/>
<polygon fill="midnightblue" stroke="midnightblue" points="217.73,-13.5 227.73,-10 217.73,-6.5 217.73,-13.5"/>
</g>
</g>
</svg>
