<?xml version="1.0" encoding="UTF-8" standalone="no"?>
<!DOCTYPE svg PUBLIC "-//W3C//DTD SVG 1.1//EN"
 "http://www.w3.org/Graphics/SVG/1.1/DTD/svg11.dtd">
<!-- Generated by graphviz version 2.43.0 (0)
 -->
<!-- Title: File_manager::open_file Pages: 1 -->
<svg width="601pt" height="160pt"
 viewBox="0.00 0.00 601.00 159.50" xmlns="http://www.w3.org/2000/svg" xmlns:xlink="http://www.w3.org/1999/xlink">
<g id="graph0" class="graph" transform="scale(1 1) rotate(0) translate(4 155.5)">
<title>File_manager::open_file</title>
<polygon fill="white" stroke="transparent" points="-4,4 -4,-155.5 597,-155.5 597,4 -4,4"/>
<!-- Node1 -->
<g id="node1" class="node">
<title>Node1</title>
<g id="a_node1"><a xlink:title="Opens file.">
<polygon fill="#bfbfbf" stroke="black" points="0,-66 0,-85 133,-85 133,-66 0,-66"/>
<text text-anchor="middle" x="66.5" y="-73" font-family="Helvetica,sans-Serif" font-size="10.00">File_manager::open_file</text>
</a>
</g>
</g>
<!-- Node2 -->
<g id="node2" class="node">
<title>Node2</title>
<g id="a_node2"><a xlink:href="classFEN.html#a39f6253f19ae04797561c9fea3342cb7" target="_top" xlink:title="Reads FEN notation.">
<polygon fill="white" stroke="black" points="169,-66 169,-85 258,-85 258,-66 169,-66"/>
<text text-anchor="middle" x="213.5" y="-73" font-family="Helvetica,sans-Serif" font-size="10.00">FEN::read_FEN</text>
</a>
</g>
</g>
<!-- Node1&#45;&gt;Node2 -->
<g id="edge1" class="edge">
<title>Node1&#45;&gt;Node2</title>
<path fill="none" stroke="midnightblue" d="M133.21,-75.5C141.64,-75.5 150.2,-75.5 158.41,-75.5"/>
<polygon fill="midnightblue" stroke="midnightblue" points="158.6,-79 168.6,-75.5 158.6,-72 158.6,-79"/>
</g>
<!-- Node3 -->
<g id="node3" class="node">
<title>Node3</title>
<g id="a_node3"><a xlink:href="classInput__handler.html#aeee21ed8a9cdd37b4f39c530e7d2ca15" target="_top" xlink:title="Checks if char is &lt;0, 8&gt;">
<polygon fill="white" stroke="black" points="298.5,-132 298.5,-151 435.5,-151 435.5,-132 298.5,-132"/>
<text text-anchor="middle" x="367" y="-139" font-family="Helvetica,sans-Serif" font-size="10.00">Input_handler::check_col</text>
</a>
</g>
</g>
<!-- Node2&#45;&gt;Node3 -->
<g id="edge2" class="edge">
<title>Node2&#45;&gt;Node3</title>
<path fill="none" stroke="midnightblue" d="M227.96,-85.04C243.31,-95.52 269.44,-112.23 294,-122.5 299.79,-124.92 305.98,-127.11 312.2,-129.06"/>
<polygon fill="midnightblue" stroke="midnightblue" points="311.37,-132.47 321.95,-131.94 313.35,-125.75 311.37,-132.47"/>
</g>
<!-- Node4 -->
<g id="node4" class="node">
<title>Node4</title>
<g id="a_node4"><a xlink:href="classInput__handler.html#ae6cc6114be79e000f8a6f7156198e0f4" target="_top" xlink:title="Converts char to int.">
<polygon fill="white" stroke="black" points="294,-82.5 294,-112.5 440,-112.5 440,-82.5 294,-82.5"/>
<text text-anchor="start" x="302" y="-100.5" font-family="Helvetica,sans-Serif" font-size="10.00">Input_handler::coordinates</text>
<text text-anchor="middle" x="367" y="-89.5" font-family="Helvetica,sans-Serif" font-size="10.00">_to_int</text>
</a>
</g>
</g>
<!-- Node2&#45;&gt;Node4 -->
<g id="edge3" class="edge">
<title>Node2&#45;&gt;Node4</title>
<path fill="none" stroke="midnightblue" d="M258.32,-81.86C266.38,-83.03 275.04,-84.29 283.81,-85.56"/>
<polygon fill="midnightblue" stroke="midnightblue" points="283.34,-89.03 293.74,-87.01 284.34,-82.11 283.34,-89.03"/>
</g>
<!-- Node5 -->
<g id="node5" class="node">
<title>Node5</title>
<g id="a_node5"><a xlink:href="classFEN.html#ad13a4a36c9bebfaf47e275bfe1ee9084" target="_top" xlink:title="Corrects FEN pieces.">
<polygon fill="white" stroke="black" points="298.5,-44 298.5,-63 435.5,-63 435.5,-44 298.5,-44"/>
<text text-anchor="middle" x="367" y="-51" font-family="Helvetica,sans-Serif" font-size="10.00">FEN::correct_FEN_pieces</text>
</a>
</g>
</g>
<!-- Node2&#45;&gt;Node5 -->
<g id="edge4" class="edge">
<title>Node2&#45;&gt;Node5</title>
<path fill="none" stroke="midnightblue" d="M258.32,-69.14C268.42,-67.67 279.45,-66.07 290.48,-64.47"/>
<polygon fill="midnightblue" stroke="midnightblue" points="291.18,-67.9 300.57,-63 290.17,-60.97 291.18,-67.9"/>
</g>
<!-- Node6 -->
<g id="node6" class="node">
<title>Node6</title>
<g id="a_node6"><a xlink:href="classFEN.html#a4ce3e20e91398d07dc96524af182e034" target="_top" xlink:title="Fills chess pieces into board.">
<polygon fill="white" stroke="black" points="321.5,-6 321.5,-25 412.5,-25 412.5,-6 321.5,-6"/>
<text text-anchor="middle" x="367" y="-13" font-family="Helvetica,sans-Serif" font-size="10.00">FEN::fill_pieces</text>
</a>
</g>
</g>
<!-- Node2&#45;&gt;Node6 -->
<g id="edge5" class="edge">
<title>Node2&#45;&gt;Node6</title>
<path fill="none" stroke="midnightblue" d="M230.46,-65.95C246.18,-56.86 271.1,-43.31 294,-34.5 300.32,-32.07 307.08,-29.84 313.82,-27.82"/>
<polygon fill="midnightblue" stroke="midnightblue" points="314.97,-31.13 323.63,-25.03 313.05,-24.4 314.97,-31.13"/>
</g>
<!-- Node7 -->
<g id="node7" class="node">
<title>Node7</title>
<g id="a_node7"><a xlink:href="classFEN.html#addf59b1321695a3fe9c8588df468954a" target="_top" xlink:title="Place pieces on chess board.">
<polygon fill="white" stroke="black" points="476,-0.5 476,-30.5 593,-30.5 593,-0.5 476,-0.5"/>
<text text-anchor="start" x="484" y="-18.5" font-family="Helvetica,sans-Serif" font-size="10.00">FEN::place_piece_on</text>
<text text-anchor="middle" x="534.5" y="-7.5" font-family="Helvetica,sans-Serif" font-size="10.00">_board</text>
</a>
</g>
</g>
<!-- Node6&#45;&gt;Node7 -->
<g id="edge6" class="edge">
<title>Node6&#45;&gt;Node7</title>
<path fill="none" stroke="midnightblue" d="M412.79,-15.5C429.03,-15.5 447.77,-15.5 465.56,-15.5"/>
<polygon fill="midnightblue" stroke="midnightblue" points="465.9,-19 475.9,-15.5 465.9,-12 465.9,-19"/>
</g>
</g>
</svg>
