<?xml version="1.0" encoding="UTF-8" standalone="no"?>
<!DOCTYPE svg PUBLIC "-//W3C//DTD SVG 1.1//EN"
 "http://www.w3.org/Graphics/SVG/1.1/DTD/svg11.dtd">
<!-- Generated by graphviz version 2.43.0 (0)
 -->
<!-- Title: Validate::is_same_color Pages: 1 -->
<svg width="1561pt" height="269pt"
 viewBox="0.00 0.00 1561.00 269.26" xmlns="http://www.w3.org/2000/svg" xmlns:xlink="http://www.w3.org/1999/xlink">
<g id="graph0" class="graph" transform="scale(1 1) rotate(0) translate(4 265.26)">
<title>Validate::is_same_color</title>
<polygon fill="white" stroke="transparent" points="-4,4 -4,-265.26 1557,-265.26 1557,4 -4,4"/>
<!-- Node1 -->
<g id="node1" class="node">
<title>Node1</title>
<g id="a_node1"><a xlink:title="Checks if piece is same color as player.">
<polygon fill="#bfbfbf" stroke="black" points="1421,-118.67 1421,-137.67 1553,-137.67 1553,-118.67 1421,-118.67"/>
<text text-anchor="middle" x="1487" y="-125.67" font-family="Helvetica,sans-Serif" font-size="10.00">Validate::is_same_color</text>
</a>
</g>
</g>
<!-- Node2 -->
<g id="node2" class="node">
<title>Node2</title>
<g id="a_node2"><a xlink:href="classRules.html#abd9b013ebba58f9757336a20b2c6bf8e" target="_top" xlink:title="Checks if king is in check.">
<polygon fill="white" stroke="black" points="1078,-99.67 1078,-118.67 1167,-118.67 1167,-99.67 1078,-99.67"/>
<text text-anchor="middle" x="1122.5" y="-106.67" font-family="Helvetica,sans-Serif" font-size="10.00">Rules::checked</text>
</a>
</g>
</g>
<!-- Node1&#45;&gt;Node2 -->
<g id="edge1" class="edge">
<title>Node1&#45;&gt;Node2</title>
<path fill="none" stroke="midnightblue" d="M1410.63,-124.22C1336.97,-120.36 1227.4,-114.62 1167.14,-111.46"/>
<polygon fill="midnightblue" stroke="midnightblue" points="1410.6,-127.73 1420.77,-124.75 1410.97,-120.74 1410.6,-127.73"/>
</g>
<!-- Node22 -->
<g id="node22" class="node">
<title>Node22</title>
<g id="a_node22"><a xlink:href="classValidate.html#ac11fdbf661a340f903a8a8b581710c34" target="_top" xlink:title="Finds all possible moves for piece.">
<polygon fill="white" stroke="black" points="1226,-137.67 1226,-156.67 1385,-156.67 1385,-137.67 1226,-137.67"/>
<text text-anchor="middle" x="1305.5" y="-144.67" font-family="Helvetica,sans-Serif" font-size="10.00">Validate::find_possible_move</text>
</a>
</g>
</g>
<!-- Node1&#45;&gt;Node22 -->
<g id="edge25" class="edge">
<title>Node1&#45;&gt;Node22</title>
<path fill="none" stroke="midnightblue" d="M1410.72,-136.14C1402.25,-137.04 1393.6,-137.95 1385.09,-138.85"/>
<polygon fill="midnightblue" stroke="midnightblue" points="1411.37,-139.59 1420.94,-135.06 1410.63,-132.63 1411.37,-139.59"/>
</g>
<!-- Node3 -->
<g id="node3" class="node">
<title>Node3</title>
<g id="a_node3"><a xlink:href="classRules.html#a4ec21c1bd51c73135ed26eafa0da58d3" target="_top" xlink:title="Checks if king is in checkmate.">
<polygon fill="white" stroke="black" points="886.5,-80.67 886.5,-99.67 990.5,-99.67 990.5,-80.67 886.5,-80.67"/>
<text text-anchor="middle" x="938.5" y="-87.67" font-family="Helvetica,sans-Serif" font-size="10.00">Rules::checkmate</text>
</a>
</g>
</g>
<!-- Node2&#45;&gt;Node3 -->
<g id="edge2" class="edge">
<title>Node2&#45;&gt;Node3</title>
<path fill="none" stroke="midnightblue" d="M1067.77,-103.56C1043.45,-101.02 1014.84,-98.04 990.81,-95.53"/>
<polygon fill="midnightblue" stroke="midnightblue" points="1067.6,-107.06 1077.91,-104.62 1068.32,-100.1 1067.6,-107.06"/>
</g>
<!-- Node4 -->
<g id="node4" class="node">
<title>Node4</title>
<g id="a_node4"><a xlink:href="classApplication.html#a162a3f466352b474a10516c7f0b0ae9a" target="_top" xlink:title=" ">
<polygon fill="white" stroke="black" points="691,-80.67 691,-99.67 822,-99.67 822,-80.67 691,-80.67"/>
<text text-anchor="middle" x="756.5" y="-87.67" font-family="Helvetica,sans-Serif" font-size="10.00">Application::play_move</text>
</a>
</g>
</g>
<!-- Node2&#45;&gt;Node4 -->
<g id="edge17" class="edge">
<title>Node2&#45;&gt;Node4</title>
<path fill="none" stroke="midnightblue" d="M1107.94,-91.59C1090.2,-70.2 1056.89,-35.21 1019,-21.17 951.9,3.68 922.66,9.47 858,-21.17 835.17,-31.99 842.45,-50.34 822,-65.17 812.96,-71.73 801.97,-76.82 791.65,-80.65"/>
<polygon fill="midnightblue" stroke="midnightblue" points="1105.36,-93.97 1114.35,-99.57 1110.81,-89.58 1105.36,-93.97"/>
</g>
<!-- Node14 -->
<g id="node14" class="node">
<title>Node14</title>
<g id="a_node14"><a xlink:href="classMinimax.html#ad75b36d8718f9ad30bb921a483413b1f" target="_top" xlink:title="Minimax algorithm.">
<polygon fill="white" stroke="black" points="858,-118.67 858,-137.67 1019,-137.67 1019,-118.67 858,-118.67"/>
<text text-anchor="middle" x="938.5" y="-125.67" font-family="Helvetica,sans-Serif" font-size="10.00">Minimax::minimax_algorithm</text>
</a>
</g>
</g>
<!-- Node2&#45;&gt;Node14 -->
<g id="edge15" class="edge">
<title>Node2&#45;&gt;Node14</title>
<path fill="none" stroke="midnightblue" d="M1067.65,-114.79C1052.4,-116.39 1035.48,-118.15 1019.05,-119.87"/>
<polygon fill="midnightblue" stroke="midnightblue" points="1068.32,-118.24 1077.91,-113.72 1067.6,-111.28 1068.32,-118.24"/>
</g>
<!-- Node16 -->
<g id="node16" class="node">
<title>Node16</title>
<g id="a_node16"><a xlink:href="classCustom__AI.html#a6d5240fd3f5919086dc0bb74aa02329a" target="_top" xlink:title="Counts all moves for all pieces.">
<polygon fill="white" stroke="black" points="880.5,-31.17 880.5,-61.17 996.5,-61.17 996.5,-31.17 880.5,-31.17"/>
<text text-anchor="start" x="888.5" y="-49.17" font-family="Helvetica,sans-Serif" font-size="10.00">Custom_AI::possible</text>
<text text-anchor="middle" x="938.5" y="-38.17" font-family="Helvetica,sans-Serif" font-size="10.00">_pieces_and_moves</text>
</a>
</g>
</g>
<!-- Node2&#45;&gt;Node16 -->
<g id="edge18" class="edge">
<title>Node2&#45;&gt;Node16</title>
<path fill="none" stroke="midnightblue" d="M1087.24,-95.98C1067.39,-88.46 1041.89,-79.01 1019,-71.17 1009.28,-67.85 998.84,-64.44 988.82,-61.26"/>
<polygon fill="midnightblue" stroke="midnightblue" points="1086.18,-99.32 1096.77,-99.61 1088.67,-92.78 1086.18,-99.32"/>
</g>
<!-- Node18 -->
<g id="node18" class="node">
<title>Node18</title>
<g id="a_node18"><a xlink:href="classCustom__AI2.html#a7a3ac6cf87a8dd5c0ebabd4281bb6615" target="_top" xlink:title="Counts all moves for all pieces.">
<polygon fill="white" stroke="black" points="877.5,-195.17 877.5,-225.17 999.5,-225.17 999.5,-195.17 877.5,-195.17"/>
<text text-anchor="start" x="885.5" y="-213.17" font-family="Helvetica,sans-Serif" font-size="10.00">Custom_AI2::possible</text>
<text text-anchor="middle" x="938.5" y="-202.17" font-family="Helvetica,sans-Serif" font-size="10.00">_pieces_and_moves</text>
</a>
</g>
</g>
<!-- Node2&#45;&gt;Node18 -->
<g id="edge20" class="edge">
<title>Node2&#45;&gt;Node18</title>
<path fill="none" stroke="midnightblue" d="M1068.46,-120.37C1063.68,-122.53 1059.1,-125.1 1055,-128.17 1031.02,-146.14 1042.74,-166.89 1019,-185.17 1013.15,-189.67 1006.48,-193.37 999.54,-196.41"/>
<polygon fill="midnightblue" stroke="midnightblue" points="1069.81,-123.6 1077.85,-116.71 1067.26,-117.08 1069.81,-123.6"/>
</g>
<!-- Node20 -->
<g id="node20" class="node">
<title>Node20</title>
<g id="a_node20"><a xlink:href="classRules.html#ac508b22d87dddf5225cf154785618413" target="_top" xlink:title="Check if stalemate occurs.">
<polygon fill="white" stroke="black" points="889,-156.67 889,-175.67 988,-175.67 988,-156.67 889,-156.67"/>
<text text-anchor="middle" x="938.5" y="-163.67" font-family="Helvetica,sans-Serif" font-size="10.00">Rules::stalemate</text>
</a>
</g>
</g>
<!-- Node2&#45;&gt;Node20 -->
<g id="edge22" class="edge">
<title>Node2&#45;&gt;Node20</title>
<path fill="none" stroke="midnightblue" d="M1073.33,-121.65C1067.1,-123.64 1060.85,-125.82 1055,-128.17 1038.21,-134.92 1035.93,-140.8 1019,-147.17 1009.17,-150.87 998.38,-154.02 988.01,-156.63"/>
<polygon fill="midnightblue" stroke="midnightblue" points="1074.51,-124.95 1083.06,-118.69 1072.48,-118.25 1074.51,-124.95"/>
</g>
<!-- Node3&#45;&gt;Node4 -->
<g id="edge3" class="edge">
<title>Node3&#45;&gt;Node4</title>
<path fill="none" stroke="midnightblue" d="M876.35,-90.17C858.91,-90.17 839.87,-90.17 822.23,-90.17"/>
<polygon fill="midnightblue" stroke="midnightblue" points="876.4,-93.67 886.4,-90.17 876.4,-86.67 876.4,-93.67"/>
</g>
<!-- Node5 -->
<g id="node5" class="node">
<title>Node5</title>
<g id="a_node5"><a xlink:href="classApplication.html#a50559888cd4196c7cda01e0a432d609f" target="_top" xlink:title="Changes turn of game.">
<polygon fill="white" stroke="black" points="534.5,-91.17 534.5,-121.17 647.5,-121.17 647.5,-91.17 534.5,-91.17"/>
<text text-anchor="start" x="542.5" y="-109.17" font-family="Helvetica,sans-Serif" font-size="10.00">Application::change</text>
<text text-anchor="middle" x="591" y="-98.17" font-family="Helvetica,sans-Serif" font-size="10.00">_turns</text>
</a>
</g>
</g>
<!-- Node4&#45;&gt;Node5 -->
<g id="edge4" class="edge">
<title>Node4&#45;&gt;Node5</title>
<path fill="none" stroke="midnightblue" d="M680.74,-97.49C669.62,-98.58 658.33,-99.68 647.7,-100.72"/>
<polygon fill="midnightblue" stroke="midnightblue" points="681.27,-100.95 690.88,-96.5 680.59,-93.99 681.27,-100.95"/>
</g>
<!-- Node6 -->
<g id="node6" class="node">
<title>Node6</title>
<g id="a_node6"><a xlink:href="classApplication.html#aa0cd4150071d630bd7b1f067878f00cd" target="_top" xlink:title="Starts and handles game.">
<polygon fill="white" stroke="black" points="386,-118.67 386,-137.67 491,-137.67 491,-118.67 386,-118.67"/>
<text text-anchor="middle" x="438.5" y="-125.67" font-family="Helvetica,sans-Serif" font-size="10.00">Application::game</text>
</a>
</g>
</g>
<!-- Node5&#45;&gt;Node6 -->
<g id="edge5" class="edge">
<title>Node5&#45;&gt;Node6</title>
<path fill="none" stroke="midnightblue" d="M524.36,-115.77C513.33,-117.38 502.02,-119.03 491.39,-120.59"/>
<polygon fill="midnightblue" stroke="midnightblue" points="525,-119.21 534.39,-114.3 523.99,-112.29 525,-119.21"/>
</g>
<!-- Node7 -->
<g id="node7" class="node">
<title>Node7</title>
<g id="a_node7"><a xlink:href="classMenu.html#ac90e451d94eb82769cf58eea174667be" target="_top" xlink:title="Load game.">
<polygon fill="white" stroke="black" points="237,-175.67 237,-194.67 341,-194.67 341,-175.67 237,-175.67"/>
<text text-anchor="middle" x="289" y="-182.67" font-family="Helvetica,sans-Serif" font-size="10.00">Menu::load_game</text>
</a>
</g>
</g>
<!-- Node6&#45;&gt;Node7 -->
<g id="edge6" class="edge">
<title>Node6&#45;&gt;Node7</title>
<path fill="none" stroke="midnightblue" d="M407.93,-141.92C391.12,-149.5 369.58,-158.84 350,-166.17 341.1,-169.51 331.32,-172.77 322.28,-175.62"/>
<polygon fill="midnightblue" stroke="midnightblue" points="409.58,-145.01 417.24,-137.68 406.68,-138.64 409.58,-145.01"/>
</g>
<!-- Node10 -->
<g id="node10" class="node">
<title>Node10</title>
<g id="a_node10"><a xlink:href="classMenu.html#a196d4b882280b81c81409beb8a1a6780" target="_top" xlink:title="Starts game with AI.">
<polygon fill="white" stroke="black" points="229,-137.67 229,-156.67 349,-156.67 349,-137.67 229,-137.67"/>
<text text-anchor="middle" x="289" y="-144.67" font-family="Helvetica,sans-Serif" font-size="10.00">Menu::start_AI_game</text>
</a>
</g>
</g>
<!-- Node6&#45;&gt;Node10 -->
<g id="edge9" class="edge">
<title>Node6&#45;&gt;Node10</title>
<path fill="none" stroke="midnightblue" d="M375.72,-136.13C366.92,-137.26 357.88,-138.43 349.13,-139.56"/>
<polygon fill="midnightblue" stroke="midnightblue" points="376.44,-139.57 385.91,-134.82 375.55,-132.62 376.44,-139.57"/>
</g>
<!-- Node11 -->
<g id="node11" class="node">
<title>Node11</title>
<g id="a_node11"><a xlink:href="classMenu.html#a4e25526f20b92932d0adf9a489356dac" target="_top" xlink:title="Starts game with 2 human players.">
<polygon fill="white" stroke="black" points="236.5,-99.67 236.5,-118.67 341.5,-118.67 341.5,-99.67 236.5,-99.67"/>
<text text-anchor="middle" x="289" y="-106.67" font-family="Helvetica,sans-Serif" font-size="10.00">Menu::start_game</text>
</a>
</g>
</g>
<!-- Node6&#45;&gt;Node11 -->
<g id="edge11" class="edge">
<title>Node6&#45;&gt;Node11</title>
<path fill="none" stroke="midnightblue" d="M375.69,-120.21C364.42,-118.76 352.76,-117.26 341.81,-115.85"/>
<polygon fill="midnightblue" stroke="midnightblue" points="375.55,-123.72 385.91,-121.53 376.44,-116.78 375.55,-123.72"/>
</g>
<!-- Node12 -->
<g id="node12" class="node">
<title>Node12</title>
<g id="a_node12"><a xlink:href="classTutorial.html#ad4a5c074281c25791323e984dba390f2" target="_top" xlink:title="Start tutorial.">
<polygon fill="white" stroke="black" points="228,-61.67 228,-80.67 350,-80.67 350,-61.67 228,-61.67"/>
<text text-anchor="middle" x="289" y="-68.67" font-family="Helvetica,sans-Serif" font-size="10.00">Tutorial::start_tutorial</text>
</a>
</g>
</g>
<!-- Node6&#45;&gt;Node12 -->
<g id="edge13" class="edge">
<title>Node6&#45;&gt;Node12</title>
<path fill="none" stroke="midnightblue" d="M407.93,-114.43C391.12,-106.84 369.58,-97.5 350,-90.17 341.1,-86.84 331.32,-83.58 322.28,-80.72"/>
<polygon fill="midnightblue" stroke="midnightblue" points="406.68,-117.7 417.24,-118.66 409.58,-111.33 406.68,-117.7"/>
</g>
<!-- Node8 -->
<g id="node8" class="node">
<title>Node8</title>
<g id="a_node8"><a xlink:href="classMenu.html#a35656cd130e24d69383a5c9d0a73a38c" target="_top" xlink:title="Runs menu.">
<polygon fill="white" stroke="black" points="102,-137.67 102,-156.67 167,-156.67 167,-137.67 102,-137.67"/>
<text text-anchor="middle" x="134.5" y="-144.67" font-family="Helvetica,sans-Serif" font-size="10.00">Menu::run</text>
</a>
</g>
</g>
<!-- Node7&#45;&gt;Node8 -->
<g id="edge7" class="edge">
<title>Node7&#45;&gt;Node8</title>
<path fill="none" stroke="midnightblue" d="M239.67,-173.13C216.02,-167.24 188.22,-160.31 167.28,-155.09"/>
<polygon fill="midnightblue" stroke="midnightblue" points="238.97,-176.56 249.52,-175.58 240.66,-169.77 238.97,-176.56"/>
</g>
<!-- Node9 -->
<g id="node9" class="node">
<title>Node9</title>
<g id="a_node9"><a xlink:href="main_8cpp.html#ae66f6b31b5ad750f1fe042a706a4e3d4" target="_top" xlink:title=" ">
<polygon fill="white" stroke="black" points="0,-137.67 0,-156.67 41,-156.67 41,-137.67 0,-137.67"/>
<text text-anchor="middle" x="20.5" y="-144.67" font-family="Helvetica,sans-Serif" font-size="10.00">main</text>
</a>
</g>
</g>
<!-- Node8&#45;&gt;Node9 -->
<g id="edge8" class="edge">
<title>Node8&#45;&gt;Node9</title>
<path fill="none" stroke="midnightblue" d="M91.27,-147.17C74.01,-147.17 54.9,-147.17 41.05,-147.17"/>
<polygon fill="midnightblue" stroke="midnightblue" points="91.7,-150.67 101.7,-147.17 91.7,-143.67 91.7,-150.67"/>
</g>
<!-- Node10&#45;&gt;Node8 -->
<g id="edge10" class="edge">
<title>Node10&#45;&gt;Node8</title>
<path fill="none" stroke="midnightblue" d="M218.2,-147.17C200.38,-147.17 182.1,-147.17 167.26,-147.17"/>
<polygon fill="midnightblue" stroke="midnightblue" points="218.6,-150.67 228.6,-147.17 218.6,-143.67 218.6,-150.67"/>
</g>
<!-- Node11&#45;&gt;Node8 -->
<g id="edge12" class="edge">
<title>Node11&#45;&gt;Node8</title>
<path fill="none" stroke="midnightblue" d="M239.67,-121.22C216.02,-127.11 188.22,-134.04 167.28,-139.25"/>
<polygon fill="midnightblue" stroke="midnightblue" points="240.66,-124.58 249.52,-118.76 238.97,-117.78 240.66,-124.58"/>
</g>
<!-- Node13 -->
<g id="node13" class="node">
<title>Node13</title>
<g id="a_node13"><a xlink:href="classTutorial.html#a42acfd364d5d606318eda4b733c973da" target="_top" xlink:title="Runs tutorial.">
<polygon fill="white" stroke="black" points="77,-61.67 77,-80.67 192,-80.67 192,-61.67 77,-61.67"/>
<text text-anchor="middle" x="134.5" y="-68.67" font-family="Helvetica,sans-Serif" font-size="10.00">Tutorial::run_tutorial</text>
</a>
</g>
</g>
<!-- Node12&#45;&gt;Node13 -->
<g id="edge14" class="edge">
<title>Node12&#45;&gt;Node13</title>
<path fill="none" stroke="midnightblue" d="M217.52,-71.17C209.09,-71.17 200.56,-71.17 192.35,-71.17"/>
<polygon fill="midnightblue" stroke="midnightblue" points="217.73,-74.67 227.73,-71.17 217.73,-67.67 217.73,-74.67"/>
</g>
<!-- Node15 -->
<g id="node15" class="node">
<title>Node15</title>
<g id="a_node15"><a xlink:href="classMinimax.html#af45948f65043449d3c4cfb6c4bbf8251" target="_top" xlink:title="Gets player&#39;s move.">
<polygon fill="white" stroke="black" points="699.5,-118.67 699.5,-137.67 813.5,-137.67 813.5,-118.67 699.5,-118.67"/>
<text text-anchor="middle" x="756.5" y="-125.67" font-family="Helvetica,sans-Serif" font-size="10.00">Minimax::get_move</text>
</a>
</g>
</g>
<!-- Node14&#45;&gt;Node15 -->
<g id="edge16" class="edge">
<title>Node14&#45;&gt;Node15</title>
<path fill="none" stroke="midnightblue" d="M847.63,-128.17C836.07,-128.17 824.51,-128.17 813.7,-128.17"/>
<polygon fill="midnightblue" stroke="midnightblue" points="847.76,-131.67 857.76,-128.17 847.76,-124.67 847.76,-131.67"/>
</g>
<!-- Node17 -->
<g id="node17" class="node">
<title>Node17</title>
<g id="a_node17"><a xlink:href="classCustom__AI.html#a29f2c8e38303a9c721307e87d3f385ff" target="_top" xlink:title="Gets player&#39;s move.">
<polygon fill="white" stroke="black" points="694.5,-36.67 694.5,-55.67 818.5,-55.67 818.5,-36.67 694.5,-36.67"/>
<text text-anchor="middle" x="756.5" y="-43.67" font-family="Helvetica,sans-Serif" font-size="10.00">Custom_AI::get_move</text>
</a>
</g>
</g>
<!-- Node16&#45;&gt;Node17 -->
<g id="edge19" class="edge">
<title>Node16&#45;&gt;Node17</title>
<path fill="none" stroke="midnightblue" d="M869.78,-46.17C853.03,-46.17 835.18,-46.17 818.75,-46.17"/>
<polygon fill="midnightblue" stroke="midnightblue" points="870.05,-49.67 880.05,-46.17 870.05,-42.67 870.05,-49.67"/>
</g>
<!-- Node19 -->
<g id="node19" class="node">
<title>Node19</title>
<g id="a_node19"><a xlink:href="classCustom__AI2.html#ac5acf2591290121ce91b25c97a6ff96c" target="_top" xlink:title="Gets player&#39;s move.">
<polygon fill="white" stroke="black" points="691.5,-200.67 691.5,-219.67 821.5,-219.67 821.5,-200.67 691.5,-200.67"/>
<text text-anchor="middle" x="756.5" y="-207.67" font-family="Helvetica,sans-Serif" font-size="10.00">Custom_AI2::get_move</text>
</a>
</g>
</g>
<!-- Node18&#45;&gt;Node19 -->
<g id="edge21" class="edge">
<title>Node18&#45;&gt;Node19</title>
<path fill="none" stroke="midnightblue" d="M867.09,-210.17C852.11,-210.17 836.37,-210.17 821.64,-210.17"/>
<polygon fill="midnightblue" stroke="midnightblue" points="867.31,-213.67 877.31,-210.17 867.31,-206.67 867.31,-213.67"/>
</g>
<!-- Node21 -->
<g id="node21" class="node">
<title>Node21</title>
<g id="a_node21"><a xlink:href="classGameRules.html#a515085ec1bb0e6ea5c2d12664ec7fc10" target="_top" xlink:title="Checks if the stalemate rule applies.">
<polygon fill="white" stroke="black" points="527,-148.67 527,-167.67 655,-167.67 655,-148.67 527,-148.67"/>
<text text-anchor="middle" x="591" y="-155.67" font-family="Helvetica,sans-Serif" font-size="10.00">GameRules::stalemate</text>
</a>
</g>
</g>
<!-- Node20&#45;&gt;Node21 -->
<g id="edge23" class="edge">
<title>Node20&#45;&gt;Node21</title>
<path fill="none" stroke="midnightblue" d="M878.7,-164.81C816.56,-163.37 718.91,-161.11 655.17,-159.64"/>
<polygon fill="midnightblue" stroke="midnightblue" points="878.65,-168.31 888.73,-165.04 878.81,-161.31 878.65,-168.31"/>
</g>
<!-- Node21&#45;&gt;Node6 -->
<g id="edge24" class="edge">
<title>Node21&#45;&gt;Node6</title>
<path fill="none" stroke="midnightblue" d="M531.94,-146.6C517.19,-143.66 501.51,-140.53 487.33,-137.71"/>
<polygon fill="midnightblue" stroke="midnightblue" points="531.48,-150.08 541.97,-148.6 532.84,-143.21 531.48,-150.08"/>
</g>
<!-- Node23 -->
<g id="node23" class="node">
<title>Node23</title>
<g id="a_node23"><a xlink:href="classValidate.html#afe077c5b0107ffc1c42670e233257b9c" target="_top" xlink:title="Validates move.">
<polygon fill="white" stroke="black" points="1055,-137.67 1055,-156.67 1190,-156.67 1190,-137.67 1055,-137.67"/>
<text text-anchor="middle" x="1122.5" y="-144.67" font-family="Helvetica,sans-Serif" font-size="10.00">Validate::validate_move</text>
</a>
</g>
</g>
<!-- Node22&#45;&gt;Node23 -->
<g id="edge26" class="edge">
<title>Node22&#45;&gt;Node23</title>
<path fill="none" stroke="midnightblue" d="M1215.79,-147.17C1207.15,-147.17 1198.5,-147.17 1190.13,-147.17"/>
<polygon fill="midnightblue" stroke="midnightblue" points="1215.9,-150.67 1225.9,-147.17 1215.9,-143.67 1215.9,-150.67"/>
</g>
<!-- Node23&#45;&gt;Node3 -->
<g id="edge27" class="edge">
<title>Node23&#45;&gt;Node3</title>
<path fill="none" stroke="midnightblue" d="M1073.33,-134.7C1067.1,-132.71 1060.85,-130.52 1055,-128.17 1038.21,-121.43 1035.93,-115.55 1019,-109.17 1009.17,-105.47 998.38,-102.32 988.01,-99.72"/>
<polygon fill="midnightblue" stroke="midnightblue" points="1072.48,-138.09 1083.06,-137.66 1074.51,-131.4 1072.48,-138.09"/>
</g>
<!-- Node23&#45;&gt;Node4 -->
<g id="edge29" class="edge">
<title>Node23&#45;&gt;Node4</title>
<path fill="none" stroke="midnightblue" d="M1107.94,-164.75C1090.2,-186.15 1056.89,-221.14 1019,-235.17 951.9,-260.03 915.13,-278.26 858,-235.17 811.5,-200.1 863.01,-150.52 822,-109.17 818.14,-105.28 813.52,-102.17 808.55,-99.7"/>
<polygon fill="midnightblue" stroke="midnightblue" points="1110.81,-166.76 1114.35,-156.78 1105.36,-162.38 1110.81,-166.76"/>
</g>
<!-- Node23&#45;&gt;Node14 -->
<g id="edge28" class="edge">
<title>Node23&#45;&gt;Node14</title>
<path fill="none" stroke="midnightblue" d="M1044.61,-139.15C1036.21,-138.27 1027.64,-137.37 1019.2,-136.49"/>
<polygon fill="midnightblue" stroke="midnightblue" points="1044.45,-142.65 1054.76,-140.21 1045.18,-135.69 1044.45,-142.65"/>
</g>
<!-- Node23&#45;&gt;Node16 -->
<g id="edge30" class="edge">
<title>Node23&#45;&gt;Node16</title>
<path fill="none" stroke="midnightblue" d="M1063.02,-133.28C1060.21,-131.75 1057.51,-130.06 1055,-128.17 1031.02,-110.21 1042.74,-89.45 1019,-71.17 1012.35,-66.05 1004.63,-61.97 996.67,-58.72"/>
<polygon fill="midnightblue" stroke="midnightblue" points="1061.78,-136.56 1072.32,-137.61 1064.73,-130.22 1061.78,-136.56"/>
</g>
<!-- Node23&#45;&gt;Node18 -->
<g id="edge31" class="edge">
<title>Node23&#45;&gt;Node18</title>
<path fill="none" stroke="midnightblue" d="M1087.24,-160.37C1067.39,-167.88 1041.89,-177.34 1019,-185.17 1009.28,-188.5 998.84,-191.9 988.82,-195.09"/>
<polygon fill="midnightblue" stroke="midnightblue" points="1088.67,-163.57 1096.77,-156.74 1086.18,-157.02 1088.67,-163.57"/>
</g>
<!-- Node23&#45;&gt;Node20 -->
<g id="edge32" class="edge">
<title>Node23&#45;&gt;Node20</title>
<path fill="none" stroke="midnightblue" d="M1044.58,-155.2C1025.5,-157.19 1005.58,-159.27 988.27,-161.08"/>
<polygon fill="midnightblue" stroke="midnightblue" points="1045.18,-158.66 1054.76,-154.14 1044.45,-151.7 1045.18,-158.66"/>
</g>
</g>
</svg>
