<?xml version="1.0" encoding="UTF-8" standalone="no"?>
<!DOCTYPE svg PUBLIC "-//W3C//DTD SVG 1.1//EN"
 "http://www.w3.org/Graphics/SVG/1.1/DTD/svg11.dtd">
<!-- Generated by graphviz version 2.43.0 (0)
 -->
<!-- Title: Piece::valid_position Pages: 1 -->
<svg width="295pt" height="142pt"
 viewBox="0.00 0.00 295.00 142.00" xmlns="http://www.w3.org/2000/svg" xmlns:xlink="http://www.w3.org/1999/xlink">
<g id="graph0" class="graph" transform="scale(1 1) rotate(0) translate(4 138)">
<title>Piece::valid_position</title>
<polygon fill="white" stroke="transparent" points="-4,4 -4,-138 291,-138 291,4 -4,4"/>
<!-- Node1 -->
<g id="node1" class="node">
<title>Node1</title>
<g id="a_node1"><a xlink:title="Validates Position.">
<polygon fill="#bfbfbf" stroke="black" points="170,-57.5 170,-76.5 287,-76.5 287,-57.5 170,-57.5"/>
<text text-anchor="middle" x="228.5" y="-64.5" font-family="Helvetica,sans-Serif" font-size="10.00">Piece::valid_position</text>
</a>
</g>
</g>
<!-- Node2 -->
<g id="node2" class="node">
<title>Node2</title>
<g id="a_node2"><a xlink:href="classBishop.html#a3832d55df1aa1fdc58d25d6617f0f608" target="_top" xlink:title="Find all possible move based on piece type.">
<polygon fill="white" stroke="black" points="0,-114.5 0,-133.5 134,-133.5 134,-114.5 0,-114.5"/>
<text text-anchor="middle" x="67" y="-121.5" font-family="Helvetica,sans-Serif" font-size="10.00">Bishop::possible_moves</text>
</a>
</g>
</g>
<!-- Node1&#45;&gt;Node2 -->
<g id="edge1" class="edge">
<title>Node1&#45;&gt;Node2</title>
<path fill="none" stroke="midnightblue" d="M196.39,-80.61C178.35,-88.25 155.1,-97.7 134,-105 124.31,-108.35 113.68,-111.6 103.84,-114.43"/>
<polygon fill="midnightblue" stroke="midnightblue" points="198.02,-83.72 205.83,-76.57 195.26,-77.28 198.02,-83.72"/>
</g>
<!-- Node3 -->
<g id="node3" class="node">
<title>Node3</title>
<g id="a_node3"><a xlink:href="classKnight.html#a687e430ed10b82122b10d39362b344f2" target="_top" xlink:title="Find all possible move based on piece type.">
<polygon fill="white" stroke="black" points="0.5,-76.5 0.5,-95.5 133.5,-95.5 133.5,-76.5 0.5,-76.5"/>
<text text-anchor="middle" x="67" y="-83.5" font-family="Helvetica,sans-Serif" font-size="10.00">Knight::possible_moves</text>
</a>
</g>
</g>
<!-- Node1&#45;&gt;Node3 -->
<g id="edge2" class="edge">
<title>Node1&#45;&gt;Node3</title>
<path fill="none" stroke="midnightblue" d="M159.84,-75.06C151.15,-76.09 142.27,-77.15 133.62,-78.18"/>
<polygon fill="midnightblue" stroke="midnightblue" points="160.4,-78.52 169.92,-73.86 159.57,-71.57 160.4,-78.52"/>
</g>
<!-- Node4 -->
<g id="node4" class="node">
<title>Node4</title>
<g id="a_node4"><a xlink:href="classQueen.html#a16ba26adbfa8cdc014006528ff4ae43d" target="_top" xlink:title="Find all possible move based on piece type.">
<polygon fill="white" stroke="black" points="0.5,-38.5 0.5,-57.5 133.5,-57.5 133.5,-38.5 0.5,-38.5"/>
<text text-anchor="middle" x="67" y="-45.5" font-family="Helvetica,sans-Serif" font-size="10.00">Queen::possible_moves</text>
</a>
</g>
</g>
<!-- Node1&#45;&gt;Node4 -->
<g id="edge3" class="edge">
<title>Node1&#45;&gt;Node4</title>
<path fill="none" stroke="midnightblue" d="M159.84,-58.94C151.15,-57.91 142.27,-56.85 133.62,-55.82"/>
<polygon fill="midnightblue" stroke="midnightblue" points="159.57,-62.43 169.92,-60.14 160.4,-55.48 159.57,-62.43"/>
</g>
<!-- Node5 -->
<g id="node5" class="node">
<title>Node5</title>
<g id="a_node5"><a xlink:href="classRook.html#abde3bedc33d9da3c50521bf70fe26625" target="_top" xlink:title="Find all possible move based on piece type.">
<polygon fill="white" stroke="black" points="4,-0.5 4,-19.5 130,-19.5 130,-0.5 4,-0.5"/>
<text text-anchor="middle" x="67" y="-7.5" font-family="Helvetica,sans-Serif" font-size="10.00">Rook::possible_moves</text>
</a>
</g>
</g>
<!-- Node1&#45;&gt;Node5 -->
<g id="edge4" class="edge">
<title>Node1&#45;&gt;Node5</title>
<path fill="none" stroke="midnightblue" d="M196.39,-53.39C178.35,-45.75 155.1,-36.3 134,-29 124.31,-25.65 113.68,-22.4 103.84,-19.57"/>
<polygon fill="midnightblue" stroke="midnightblue" points="195.26,-56.72 205.83,-57.43 198.02,-50.28 195.26,-56.72"/>
</g>
</g>
</svg>
