<?xml version="1.0" encoding="UTF-8" standalone="no"?>
<!DOCTYPE svg PUBLIC "-//W3C//DTD SVG 1.1//EN"
 "http://www.w3.org/Graphics/SVG/1.1/DTD/svg11.dtd">
<!-- Generated by graphviz version 2.43.0 (0)
 -->
<!-- Title: FEN::read_FEN Pages: 1 -->
<svg width="652pt" height="66pt"
 viewBox="0.00 0.00 652.00 66.00" xmlns="http://www.w3.org/2000/svg" xmlns:xlink="http://www.w3.org/1999/xlink">
<g id="graph0" class="graph" transform="scale(1 1) rotate(0) translate(4 62)">
<title>FEN::read_FEN</title>
<polygon fill="white" stroke="transparent" points="-4,4 -4,-62 648,-62 648,4 -4,4"/>
<!-- Node1 -->
<g id="node1" class="node">
<title>Node1</title>
<g id="a_node1"><a xlink:title="Reads FEN notation.">
<polygon fill="#bfbfbf" stroke="black" points="555,-19.5 555,-38.5 644,-38.5 644,-19.5 555,-19.5"/>
<text text-anchor="middle" x="599.5" y="-26.5" font-family="Helvetica,sans-Serif" font-size="10.00">FEN::read_FEN</text>
</a>
</g>
</g>
<!-- Node2 -->
<g id="node2" class="node">
<title>Node2</title>
<g id="a_node2"><a xlink:href="classFile__manager.html#ade44f79bfec1810354a04dc1829aa2a3" target="_top" xlink:title="Opens file.">
<polygon fill="white" stroke="black" points="386,-19.5 386,-38.5 519,-38.5 519,-19.5 386,-19.5"/>
<text text-anchor="middle" x="452.5" y="-26.5" font-family="Helvetica,sans-Serif" font-size="10.00">File_manager::open_file</text>
</a>
</g>
</g>
<!-- Node1&#45;&gt;Node2 -->
<g id="edge1" class="edge">
<title>Node1&#45;&gt;Node2</title>
<path fill="none" stroke="midnightblue" d="M544.98,-29C536.6,-29 527.85,-29 519.23,-29"/>
<polygon fill="midnightblue" stroke="midnightblue" points="545,-32.5 555,-29 545,-25.5 545,-32.5"/>
</g>
<!-- Node3 -->
<g id="node3" class="node">
<title>Node3</title>
<g id="a_node3"><a xlink:href="classMenu.html#ac90e451d94eb82769cf58eea174667be" target="_top" xlink:title="Load game.">
<polygon fill="white" stroke="black" points="237,-38.5 237,-57.5 341,-57.5 341,-38.5 237,-38.5"/>
<text text-anchor="middle" x="289" y="-45.5" font-family="Helvetica,sans-Serif" font-size="10.00">Menu::load_game</text>
</a>
</g>
</g>
<!-- Node2&#45;&gt;Node3 -->
<g id="edge2" class="edge">
<title>Node2&#45;&gt;Node3</title>
<path fill="none" stroke="midnightblue" d="M375.64,-37.93C363.99,-39.3 352.21,-40.68 341.27,-41.97"/>
<polygon fill="midnightblue" stroke="midnightblue" points="376.29,-41.37 385.81,-36.73 375.47,-34.42 376.29,-41.37"/>
</g>
<!-- Node6 -->
<g id="node6" class="node">
<title>Node6</title>
<g id="a_node6"><a xlink:href="classTutorial.html#ad4a5c074281c25791323e984dba390f2" target="_top" xlink:title="Start tutorial.">
<polygon fill="white" stroke="black" points="228,-0.5 228,-19.5 350,-19.5 350,-0.5 228,-0.5"/>
<text text-anchor="middle" x="289" y="-7.5" font-family="Helvetica,sans-Serif" font-size="10.00">Tutorial::start_tutorial</text>
</a>
</g>
</g>
<!-- Node2&#45;&gt;Node6 -->
<g id="edge5" class="edge">
<title>Node2&#45;&gt;Node6</title>
<path fill="none" stroke="midnightblue" d="M375.78,-20.09C367.19,-19.08 358.52,-18.06 350.17,-17.08"/>
<polygon fill="midnightblue" stroke="midnightblue" points="375.47,-23.58 385.81,-21.27 376.29,-16.63 375.47,-23.58"/>
</g>
<!-- Node4 -->
<g id="node4" class="node">
<title>Node4</title>
<g id="a_node4"><a xlink:href="classMenu.html#a35656cd130e24d69383a5c9d0a73a38c" target="_top" xlink:title="Runs menu.">
<polygon fill="white" stroke="black" points="102,-38.5 102,-57.5 167,-57.5 167,-38.5 102,-38.5"/>
<text text-anchor="middle" x="134.5" y="-45.5" font-family="Helvetica,sans-Serif" font-size="10.00">Menu::run</text>
</a>
</g>
</g>
<!-- Node3&#45;&gt;Node4 -->
<g id="edge3" class="edge">
<title>Node3&#45;&gt;Node4</title>
<path fill="none" stroke="midnightblue" d="M226.63,-48C206.27,-48 184.43,-48 167.24,-48"/>
<polygon fill="midnightblue" stroke="midnightblue" points="226.8,-51.5 236.8,-48 226.8,-44.5 226.8,-51.5"/>
</g>
<!-- Node5 -->
<g id="node5" class="node">
<title>Node5</title>
<g id="a_node5"><a xlink:href="main_8cpp.html#ae66f6b31b5ad750f1fe042a706a4e3d4" target="_top" xlink:title=" ">
<polygon fill="white" stroke="black" points="0,-38.5 0,-57.5 41,-57.5 41,-38.5 0,-38.5"/>
<text text-anchor="middle" x="20.5" y="-45.5" font-family="Helvetica,sans-Serif" font-size="10.00">main</text>
</a>
</g>
</g>
<!-- Node4&#45;&gt;Node5 -->
<g id="edge4" class="edge">
<title>Node4&#45;&gt;Node5</title>
<path fill="none" stroke="midnightblue" d="M91.27,-48C74.01,-48 54.9,-48 41.05,-48"/>
<polygon fill="midnightblue" stroke="midnightblue" points="91.7,-51.5 101.7,-48 91.7,-44.5 91.7,-51.5"/>
</g>
<!-- Node7 -->
<g id="node7" class="node">
<title>Node7</title>
<g id="a_node7"><a xlink:href="classTutorial.html#a42acfd364d5d606318eda4b733c973da" target="_top" xlink:title="Runs tutorial.">
<polygon fill="white" stroke="black" points="77,-0.5 77,-19.5 192,-19.5 192,-0.5 77,-0.5"/>
<text text-anchor="middle" x="134.5" y="-7.5" font-family="Helvetica,sans-Serif" font-size="10.00">Tutorial::run_tutorial</text>
</a>
</g>
</g>
<!-- Node6&#45;&gt;Node7 -->
<g id="edge6" class="edge">
<title>Node6&#45;&gt;Node7</title>
<path fill="none" stroke="midnightblue" d="M217.52,-10C209.09,-10 200.56,-10 192.35,-10"/>
<polygon fill="midnightblue" stroke="midnightblue" points="217.73,-13.5 227.73,-10 217.73,-6.5 217.73,-13.5"/>
</g>
</g>
</svg>
