<?xml version="1.0" encoding="UTF-8" standalone="no"?>
<!DOCTYPE svg PUBLIC "-//W3C//DTD SVG 1.1//EN"
 "http://www.w3.org/Graphics/SVG/1.1/DTD/svg11.dtd">
<!-- Generated by graphviz version 2.43.0 (0)
 -->
<!-- Title: Custom_AI::piece_priority Pages: 1 -->
<svg width="462pt" height="39pt"
 viewBox="0.00 0.00 462.00 39.00" xmlns="http://www.w3.org/2000/svg" xmlns:xlink="http://www.w3.org/1999/xlink">
<g id="graph0" class="graph" transform="scale(1 1) rotate(0) translate(4 35)">
<title>Custom_AI::piece_priority</title>
<polygon fill="white" stroke="transparent" points="-4,4 -4,-35 458,-35 458,4 -4,4"/>
<!-- Node1 -->
<g id="node1" class="node">
<title>Node1</title>
<g id="a_node1"><a xlink:title=" ">
<polygon fill="#bfbfbf" stroke="black" points="312,-6 312,-25 454,-25 454,-6 312,-6"/>
<text text-anchor="middle" x="383" y="-13" font-family="Helvetica,sans-Serif" font-size="10.00">Custom_AI::piece_priority</text>
</a>
</g>
</g>
<!-- Node2 -->
<g id="node2" class="node">
<title>Node2</title>
<g id="a_node2"><a xlink:href="classCustom__AI.html#a6d5240fd3f5919086dc0bb74aa02329a" target="_top" xlink:title="Counts all moves for all pieces.">
<polygon fill="white" stroke="black" points="160,-0.5 160,-30.5 276,-30.5 276,-0.5 160,-0.5"/>
<text text-anchor="start" x="168" y="-18.5" font-family="Helvetica,sans-Serif" font-size="10.00">Custom_AI::possible</text>
<text text-anchor="middle" x="218" y="-7.5" font-family="Helvetica,sans-Serif" font-size="10.00">_pieces_and_moves</text>
</a>
</g>
</g>
<!-- Node1&#45;&gt;Node2 -->
<g id="edge1" class="edge">
<title>Node1&#45;&gt;Node2</title>
<path fill="none" stroke="midnightblue" d="M301.75,-15.5C293.06,-15.5 284.34,-15.5 276,-15.5"/>
<polygon fill="midnightblue" stroke="midnightblue" points="301.93,-19 311.93,-15.5 301.93,-12 301.93,-19"/>
</g>
<!-- Node3 -->
<g id="node3" class="node">
<title>Node3</title>
<g id="a_node3"><a xlink:href="classCustom__AI.html#a29f2c8e38303a9c721307e87d3f385ff" target="_top" xlink:title="Gets player&#39;s move.">
<polygon fill="white" stroke="black" points="0,-6 0,-25 124,-25 124,-6 0,-6"/>
<text text-anchor="middle" x="62" y="-13" font-family="Helvetica,sans-Serif" font-size="10.00">Custom_AI::get_move</text>
</a>
</g>
</g>
<!-- Node2&#45;&gt;Node3 -->
<g id="edge2" class="edge">
<title>Node2&#45;&gt;Node3</title>
<path fill="none" stroke="midnightblue" d="M149.44,-15.5C140.97,-15.5 132.36,-15.5 124,-15.5"/>
<polygon fill="midnightblue" stroke="midnightblue" points="149.66,-19 159.66,-15.5 149.66,-12 149.66,-19"/>
</g>
</g>
</svg>
