<?xml version="1.0" encoding="UTF-8" standalone="no"?>
<!DOCTYPE svg PUBLIC "-//W3C//DTD SVG 1.1//EN"
 "http://www.w3.org/Graphics/SVG/1.1/DTD/svg11.dtd">
<!-- Generated by graphviz version 2.43.0 (0)
 -->
<!-- Title: Queen::possible_moves Pages: 1 -->
<svg width="294pt" height="104pt"
 viewBox="0.00 0.00 294.00 104.00" xmlns="http://www.w3.org/2000/svg" xmlns:xlink="http://www.w3.org/1999/xlink">
<g id="graph0" class="graph" transform="scale(1 1) rotate(0) translate(4 100)">
<title>Queen::possible_moves</title>
<polygon fill="white" stroke="transparent" points="-4,4 -4,-100 290,-100 290,4 -4,4"/>
<!-- Node1 -->
<g id="node1" class="node">
<title>Node1</title>
<g id="a_node1"><a xlink:title="Find all possible move based on piece type.">
<polygon fill="#bfbfbf" stroke="black" points="0,-38.5 0,-57.5 133,-57.5 133,-38.5 0,-38.5"/>
<text text-anchor="middle" x="66.5" y="-45.5" font-family="Helvetica,sans-Serif" font-size="10.00">Queen::possible_moves</text>
</a>
</g>
</g>
<!-- Node2 -->
<g id="node2" class="node">
<title>Node2</title>
<g id="a_node2"><a xlink:href="classPiece.html#a19446ccc1dce47aa1c77733242657f25" target="_top" xlink:title="Adds move to possible moves.">
<polygon fill="white" stroke="black" points="177.5,-76.5 177.5,-95.5 277.5,-95.5 277.5,-76.5 177.5,-76.5"/>
<text text-anchor="middle" x="227.5" y="-83.5" font-family="Helvetica,sans-Serif" font-size="10.00">Piece::add_move</text>
</a>
</g>
</g>
<!-- Node1&#45;&gt;Node2 -->
<g id="edge1" class="edge">
<title>Node1&#45;&gt;Node2</title>
<path fill="none" stroke="midnightblue" d="M107.62,-57.59C128.6,-62.6 154.48,-68.79 176.73,-74.11"/>
<polygon fill="midnightblue" stroke="midnightblue" points="176.13,-77.56 186.67,-76.48 177.75,-70.75 176.13,-77.56"/>
</g>
<!-- Node3 -->
<g id="node3" class="node">
<title>Node3</title>
<g id="a_node3"><a xlink:href="classPiece.html#a6dcc7df628eb1f8317caaa4970835517" target="_top" xlink:title=" ">
<polygon fill="white" stroke="black" points="173,-38.5 173,-57.5 282,-57.5 282,-38.5 173,-38.5"/>
<text text-anchor="middle" x="227.5" y="-45.5" font-family="Helvetica,sans-Serif" font-size="10.00">Piece::get_position</text>
</a>
</g>
</g>
<!-- Node1&#45;&gt;Node3 -->
<g id="edge2" class="edge">
<title>Node1&#45;&gt;Node3</title>
<path fill="none" stroke="midnightblue" d="M133.09,-48C142.87,-48 152.93,-48 162.67,-48"/>
<polygon fill="midnightblue" stroke="midnightblue" points="162.68,-51.5 172.68,-48 162.68,-44.5 162.68,-51.5"/>
</g>
<!-- Node4 -->
<g id="node4" class="node">
<title>Node4</title>
<g id="a_node4"><a xlink:href="classPiece.html#a0b8eee25ebeb85146ffc724a9998613c" target="_top" xlink:title="Validates Position.">
<polygon fill="white" stroke="black" points="169,-0.5 169,-19.5 286,-19.5 286,-0.5 169,-0.5"/>
<text text-anchor="middle" x="227.5" y="-7.5" font-family="Helvetica,sans-Serif" font-size="10.00">Piece::valid_position</text>
</a>
</g>
</g>
<!-- Node1&#45;&gt;Node4 -->
<g id="edge3" class="edge">
<title>Node1&#45;&gt;Node4</title>
<path fill="none" stroke="midnightblue" d="M107.62,-38.41C128.6,-33.4 154.48,-27.21 176.73,-21.89"/>
<polygon fill="midnightblue" stroke="midnightblue" points="177.75,-25.25 186.67,-19.52 176.13,-18.44 177.75,-25.25"/>
</g>
</g>
</svg>
