<?xml version="1.0" encoding="UTF-8" standalone="no"?>
<!DOCTYPE svg PUBLIC "-//W3C//DTD SVG 1.1//EN"
 "http://www.w3.org/Graphics/SVG/1.1/DTD/svg11.dtd">
<!-- Generated by graphviz version 2.43.0 (0)
 -->
<!-- Title: Application::change_turns Pages: 1 -->
<svg width="648pt" height="142pt"
 viewBox="0.00 0.00 648.00 142.00" xmlns="http://www.w3.org/2000/svg" xmlns:xlink="http://www.w3.org/1999/xlink">
<g id="graph0" class="graph" transform="scale(1 1) rotate(0) translate(4 138)">
<title>Application::change_turns</title>
<polygon fill="white" stroke="transparent" points="-4,4 -4,-138 644,-138 644,4 -4,4"/>
<!-- Node1 -->
<g id="node1" class="node">
<title>Node1</title>
<g id="a_node1"><a xlink:title="Changes turn of game.">
<polygon fill="#bfbfbf" stroke="black" points="527,-52 527,-82 640,-82 640,-52 527,-52"/>
<text text-anchor="start" x="535" y="-70" font-family="Helvetica,sans-Serif" font-size="10.00">Application::change</text>
<text text-anchor="middle" x="583.5" y="-59" font-family="Helvetica,sans-Serif" font-size="10.00">_turns</text>
</a>
</g>
</g>
<!-- Node2 -->
<g id="node2" class="node">
<title>Node2</title>
<g id="a_node2"><a xlink:href="classApplication.html#aa0cd4150071d630bd7b1f067878f00cd" target="_top" xlink:title="Starts and handles game.">
<polygon fill="white" stroke="black" points="386,-57.5 386,-76.5 491,-76.5 491,-57.5 386,-57.5"/>
<text text-anchor="middle" x="438.5" y="-64.5" font-family="Helvetica,sans-Serif" font-size="10.00">Application::game</text>
</a>
</g>
</g>
<!-- Node1&#45;&gt;Node2 -->
<g id="edge1" class="edge">
<title>Node1&#45;&gt;Node2</title>
<path fill="none" stroke="midnightblue" d="M516.77,-67C508.15,-67 499.41,-67 491.07,-67"/>
<polygon fill="midnightblue" stroke="midnightblue" points="516.8,-70.5 526.8,-67 516.8,-63.5 516.8,-70.5"/>
</g>
<!-- Node3 -->
<g id="node3" class="node">
<title>Node3</title>
<g id="a_node3"><a xlink:href="classMenu.html#ac90e451d94eb82769cf58eea174667be" target="_top" xlink:title="Load game.">
<polygon fill="white" stroke="black" points="237,-114.5 237,-133.5 341,-133.5 341,-114.5 237,-114.5"/>
<text text-anchor="middle" x="289" y="-121.5" font-family="Helvetica,sans-Serif" font-size="10.00">Menu::load_game</text>
</a>
</g>
</g>
<!-- Node2&#45;&gt;Node3 -->
<g id="edge2" class="edge">
<title>Node2&#45;&gt;Node3</title>
<path fill="none" stroke="midnightblue" d="M407.93,-80.74C391.12,-88.33 369.58,-97.67 350,-105 341.1,-108.33 331.32,-111.59 322.28,-114.45"/>
<polygon fill="midnightblue" stroke="midnightblue" points="409.58,-83.84 417.24,-76.51 406.68,-77.47 409.58,-83.84"/>
</g>
<!-- Node6 -->
<g id="node6" class="node">
<title>Node6</title>
<g id="a_node6"><a xlink:href="classMenu.html#a196d4b882280b81c81409beb8a1a6780" target="_top" xlink:title="Starts game with AI.">
<polygon fill="white" stroke="black" points="229,-76.5 229,-95.5 349,-95.5 349,-76.5 229,-76.5"/>
<text text-anchor="middle" x="289" y="-83.5" font-family="Helvetica,sans-Serif" font-size="10.00">Menu::start_AI_game</text>
</a>
</g>
</g>
<!-- Node2&#45;&gt;Node6 -->
<g id="edge5" class="edge">
<title>Node2&#45;&gt;Node6</title>
<path fill="none" stroke="midnightblue" d="M375.72,-74.96C366.92,-76.09 357.88,-77.26 349.13,-78.38"/>
<polygon fill="midnightblue" stroke="midnightblue" points="376.44,-78.39 385.91,-73.65 375.55,-71.45 376.44,-78.39"/>
</g>
<!-- Node7 -->
<g id="node7" class="node">
<title>Node7</title>
<g id="a_node7"><a xlink:href="classMenu.html#a4e25526f20b92932d0adf9a489356dac" target="_top" xlink:title="Starts game with 2 human players.">
<polygon fill="white" stroke="black" points="236.5,-38.5 236.5,-57.5 341.5,-57.5 341.5,-38.5 236.5,-38.5"/>
<text text-anchor="middle" x="289" y="-45.5" font-family="Helvetica,sans-Serif" font-size="10.00">Menu::start_game</text>
</a>
</g>
</g>
<!-- Node2&#45;&gt;Node7 -->
<g id="edge7" class="edge">
<title>Node2&#45;&gt;Node7</title>
<path fill="none" stroke="midnightblue" d="M375.69,-59.04C364.42,-57.59 352.76,-56.08 341.81,-54.67"/>
<polygon fill="midnightblue" stroke="midnightblue" points="375.55,-62.55 385.91,-60.35 376.44,-55.61 375.55,-62.55"/>
</g>
<!-- Node8 -->
<g id="node8" class="node">
<title>Node8</title>
<g id="a_node8"><a xlink:href="classTutorial.html#ad4a5c074281c25791323e984dba390f2" target="_top" xlink:title="Start tutorial.">
<polygon fill="white" stroke="black" points="228,-0.5 228,-19.5 350,-19.5 350,-0.5 228,-0.5"/>
<text text-anchor="middle" x="289" y="-7.5" font-family="Helvetica,sans-Serif" font-size="10.00">Tutorial::start_tutorial</text>
</a>
</g>
</g>
<!-- Node2&#45;&gt;Node8 -->
<g id="edge9" class="edge">
<title>Node2&#45;&gt;Node8</title>
<path fill="none" stroke="midnightblue" d="M407.93,-53.26C391.12,-45.67 369.58,-36.33 350,-29 341.1,-25.67 331.32,-22.41 322.28,-19.55"/>
<polygon fill="midnightblue" stroke="midnightblue" points="406.68,-56.53 417.24,-57.49 409.58,-50.16 406.68,-56.53"/>
</g>
<!-- Node4 -->
<g id="node4" class="node">
<title>Node4</title>
<g id="a_node4"><a xlink:href="classMenu.html#a35656cd130e24d69383a5c9d0a73a38c" target="_top" xlink:title="Runs menu.">
<polygon fill="white" stroke="black" points="102,-76.5 102,-95.5 167,-95.5 167,-76.5 102,-76.5"/>
<text text-anchor="middle" x="134.5" y="-83.5" font-family="Helvetica,sans-Serif" font-size="10.00">Menu::run</text>
</a>
</g>
</g>
<!-- Node3&#45;&gt;Node4 -->
<g id="edge3" class="edge">
<title>Node3&#45;&gt;Node4</title>
<path fill="none" stroke="midnightblue" d="M239.67,-111.96C216.02,-106.06 188.22,-99.14 167.28,-93.92"/>
<polygon fill="midnightblue" stroke="midnightblue" points="238.97,-115.39 249.52,-114.41 240.66,-108.6 238.97,-115.39"/>
</g>
<!-- Node5 -->
<g id="node5" class="node">
<title>Node5</title>
<g id="a_node5"><a xlink:href="main_8cpp.html#ae66f6b31b5ad750f1fe042a706a4e3d4" target="_top" xlink:title=" ">
<polygon fill="white" stroke="black" points="0,-76.5 0,-95.5 41,-95.5 41,-76.5 0,-76.5"/>
<text text-anchor="middle" x="20.5" y="-83.5" font-family="Helvetica,sans-Serif" font-size="10.00">main</text>
</a>
</g>
</g>
<!-- Node4&#45;&gt;Node5 -->
<g id="edge4" class="edge">
<title>Node4&#45;&gt;Node5</title>
<path fill="none" stroke="midnightblue" d="M91.27,-86C74.01,-86 54.9,-86 41.05,-86"/>
<polygon fill="midnightblue" stroke="midnightblue" points="91.7,-89.5 101.7,-86 91.7,-82.5 91.7,-89.5"/>
</g>
<!-- Node6&#45;&gt;Node4 -->
<g id="edge6" class="edge">
<title>Node6&#45;&gt;Node4</title>
<path fill="none" stroke="midnightblue" d="M218.2,-86C200.38,-86 182.1,-86 167.26,-86"/>
<polygon fill="midnightblue" stroke="midnightblue" points="218.6,-89.5 228.6,-86 218.6,-82.5 218.6,-89.5"/>
</g>
<!-- Node7&#45;&gt;Node4 -->
<g id="edge8" class="edge">
<title>Node7&#45;&gt;Node4</title>
<path fill="none" stroke="midnightblue" d="M239.67,-60.04C216.02,-65.94 188.22,-72.86 167.28,-78.08"/>
<polygon fill="midnightblue" stroke="midnightblue" points="240.66,-63.4 249.52,-57.59 238.97,-56.61 240.66,-63.4"/>
</g>
<!-- Node9 -->
<g id="node9" class="node">
<title>Node9</title>
<g id="a_node9"><a xlink:href="classTutorial.html#a42acfd364d5d606318eda4b733c973da" target="_top" xlink:title="Runs tutorial.">
<polygon fill="white" stroke="black" points="77,-0.5 77,-19.5 192,-19.5 192,-0.5 77,-0.5"/>
<text text-anchor="middle" x="134.5" y="-7.5" font-family="Helvetica,sans-Serif" font-size="10.00">Tutorial::run_tutorial</text>
</a>
</g>
</g>
<!-- Node8&#45;&gt;Node9 -->
<g id="edge10" class="edge">
<title>Node8&#45;&gt;Node9</title>
<path fill="none" stroke="midnightblue" d="M217.52,-10C209.09,-10 200.56,-10 192.35,-10"/>
<polygon fill="midnightblue" stroke="midnightblue" points="217.73,-13.5 227.73,-10 217.73,-6.5 217.73,-13.5"/>
</g>
</g>
</svg>
