<?xml version="1.0" encoding="UTF-8" standalone="no"?>
<!DOCTYPE svg PUBLIC "-//W3C//DTD SVG 1.1//EN"
 "http://www.w3.org/Graphics/SVG/1.1/DTD/svg11.dtd">
<!-- Generated by graphviz version 2.43.0 (0)
 -->
<!-- Title: Piece::add_move Pages: 1 -->
<svg width="278pt" height="218pt"
 viewBox="0.00 0.00 278.00 218.00" xmlns="http://www.w3.org/2000/svg" xmlns:xlink="http://www.w3.org/1999/xlink">
<g id="graph0" class="graph" transform="scale(1 1) rotate(0) translate(4 214)">
<title>Piece::add_move</title>
<polygon fill="white" stroke="transparent" points="-4,4 -4,-214 274,-214 274,4 -4,4"/>
<!-- Node1 -->
<g id="node1" class="node">
<title>Node1</title>
<g id="a_node1"><a xlink:title="Adds move to possible moves.">
<polygon fill="#bfbfbf" stroke="black" points="170,-95.5 170,-114.5 270,-114.5 270,-95.5 170,-95.5"/>
<text text-anchor="middle" x="220" y="-102.5" font-family="Helvetica,sans-Serif" font-size="10.00">Piece::add_move</text>
</a>
</g>
</g>
<!-- Node2 -->
<g id="node2" class="node">
<title>Node2</title>
<g id="a_node2"><a xlink:href="classBishop.html#a3832d55df1aa1fdc58d25d6617f0f608" target="_top" xlink:title="Find all possible move based on piece type.">
<polygon fill="white" stroke="black" points="0,-190.5 0,-209.5 134,-209.5 134,-190.5 0,-190.5"/>
<text text-anchor="middle" x="67" y="-197.5" font-family="Helvetica,sans-Serif" font-size="10.00">Bishop::possible_moves</text>
</a>
</g>
</g>
<!-- Node1&#45;&gt;Node2 -->
<g id="edge1" class="edge">
<title>Node1&#45;&gt;Node2</title>
<path fill="none" stroke="midnightblue" d="M204.01,-122.36C188.22,-139.59 161.84,-165.61 134,-181 127.11,-184.81 119.39,-187.91 111.72,-190.43"/>
<polygon fill="midnightblue" stroke="midnightblue" points="206.81,-124.47 210.86,-114.68 201.59,-119.81 206.81,-124.47"/>
</g>
<!-- Node3 -->
<g id="node3" class="node">
<title>Node3</title>
<g id="a_node3"><a xlink:href="classKing.html#a58771a57f87a716fe77878da4b276f63" target="_top" xlink:title="Find all possible move based on piece type.">
<polygon fill="white" stroke="black" points="5.5,-152.5 5.5,-171.5 128.5,-171.5 128.5,-152.5 5.5,-152.5"/>
<text text-anchor="middle" x="67" y="-159.5" font-family="Helvetica,sans-Serif" font-size="10.00">King::possible_moves</text>
</a>
</g>
</g>
<!-- Node1&#45;&gt;Node3 -->
<g id="edge2" class="edge">
<title>Node1&#45;&gt;Node3</title>
<path fill="none" stroke="midnightblue" d="M190.25,-119.06C173.98,-126.71 153.11,-136.02 134,-143 124.59,-146.44 114.25,-149.67 104.61,-152.45"/>
<polygon fill="midnightblue" stroke="midnightblue" points="192.22,-122 199.74,-114.54 189.21,-115.68 192.22,-122"/>
</g>
<!-- Node4 -->
<g id="node4" class="node">
<title>Node4</title>
<g id="a_node4"><a xlink:href="classKnight.html#a687e430ed10b82122b10d39362b344f2" target="_top" xlink:title="Find all possible move based on piece type.">
<polygon fill="white" stroke="black" points="0.5,-114.5 0.5,-133.5 133.5,-133.5 133.5,-114.5 0.5,-114.5"/>
<text text-anchor="middle" x="67" y="-121.5" font-family="Helvetica,sans-Serif" font-size="10.00">Knight::possible_moves</text>
</a>
</g>
</g>
<!-- Node1&#45;&gt;Node4 -->
<g id="edge3" class="edge">
<title>Node1&#45;&gt;Node4</title>
<path fill="none" stroke="midnightblue" d="M159.97,-112.43C151.3,-113.52 142.33,-114.65 133.54,-115.75"/>
<polygon fill="midnightblue" stroke="midnightblue" points="160.49,-115.89 169.97,-111.17 159.62,-108.94 160.49,-115.89"/>
</g>
<!-- Node5 -->
<g id="node5" class="node">
<title>Node5</title>
<g id="a_node5"><a xlink:href="classPawn.html#a4853d78045c8475fa8d4590f5423d0c4" target="_top" xlink:title="Find all possible move based on piece type.">
<polygon fill="white" stroke="black" points="3.5,-76.5 3.5,-95.5 130.5,-95.5 130.5,-76.5 3.5,-76.5"/>
<text text-anchor="middle" x="67" y="-83.5" font-family="Helvetica,sans-Serif" font-size="10.00">Pawn::possible_moves</text>
</a>
</g>
</g>
<!-- Node1&#45;&gt;Node5 -->
<g id="edge4" class="edge">
<title>Node1&#45;&gt;Node5</title>
<path fill="none" stroke="midnightblue" d="M159.75,-97.54C150.16,-96.34 140.21,-95.09 130.55,-93.87"/>
<polygon fill="midnightblue" stroke="midnightblue" points="159.62,-101.06 169.97,-98.83 160.49,-94.11 159.62,-101.06"/>
</g>
<!-- Node6 -->
<g id="node6" class="node">
<title>Node6</title>
<g id="a_node6"><a xlink:href="classQueen.html#a16ba26adbfa8cdc014006528ff4ae43d" target="_top" xlink:title="Find all possible move based on piece type.">
<polygon fill="white" stroke="black" points="0.5,-38.5 0.5,-57.5 133.5,-57.5 133.5,-38.5 0.5,-38.5"/>
<text text-anchor="middle" x="67" y="-45.5" font-family="Helvetica,sans-Serif" font-size="10.00">Queen::possible_moves</text>
</a>
</g>
</g>
<!-- Node1&#45;&gt;Node6 -->
<g id="edge5" class="edge">
<title>Node1&#45;&gt;Node6</title>
<path fill="none" stroke="midnightblue" d="M190.25,-90.94C173.98,-83.29 153.11,-73.98 134,-67 124.59,-63.56 114.25,-60.33 104.61,-57.55"/>
<polygon fill="midnightblue" stroke="midnightblue" points="189.21,-94.32 199.74,-95.46 192.22,-88 189.21,-94.32"/>
</g>
<!-- Node7 -->
<g id="node7" class="node">
<title>Node7</title>
<g id="a_node7"><a xlink:href="classRook.html#abde3bedc33d9da3c50521bf70fe26625" target="_top" xlink:title="Find all possible move based on piece type.">
<polygon fill="white" stroke="black" points="4,-0.5 4,-19.5 130,-19.5 130,-0.5 4,-0.5"/>
<text text-anchor="middle" x="67" y="-7.5" font-family="Helvetica,sans-Serif" font-size="10.00">Rook::possible_moves</text>
</a>
</g>
</g>
<!-- Node1&#45;&gt;Node7 -->
<g id="edge6" class="edge">
<title>Node1&#45;&gt;Node7</title>
<path fill="none" stroke="midnightblue" d="M204.01,-87.64C188.22,-70.41 161.84,-44.39 134,-29 127.11,-25.19 119.39,-22.09 111.72,-19.57"/>
<polygon fill="midnightblue" stroke="midnightblue" points="201.59,-90.19 210.86,-95.32 206.81,-85.53 201.59,-90.19"/>
</g>
</g>
</svg>
