<?xml version="1.0" encoding="UTF-8" standalone="no"?>
<!DOCTYPE svg PUBLIC "-//W3C//DTD SVG 1.1//EN"
 "http://www.w3.org/Graphics/SVG/1.1/DTD/svg11.dtd">
<!-- Generated by graphviz version 2.43.0 (0)
 -->
<!-- Title: Custom_AI2::get_move Pages: 1 -->
<svg width="830pt" height="384pt"
 viewBox="0.00 0.00 830.00 383.75" xmlns="http://www.w3.org/2000/svg" xmlns:xlink="http://www.w3.org/1999/xlink">
<g id="graph0" class="graph" transform="scale(1 1) rotate(0) translate(4 379.75)">
<title>Custom_AI2::get_move</title>
<polygon fill="white" stroke="transparent" points="-4,4 -4,-379.75 826,-379.75 826,4 -4,4"/>
<!-- Node1 -->
<g id="node1" class="node">
<title>Node1</title>
<g id="a_node1"><a xlink:title="Gets player&#39;s move.">
<polygon fill="#bfbfbf" stroke="black" points="0,-204.25 0,-223.25 130,-223.25 130,-204.25 0,-204.25"/>
<text text-anchor="middle" x="65" y="-211.25" font-family="Helvetica,sans-Serif" font-size="10.00">Custom_AI2::get_move</text>
</a>
</g>
</g>
<!-- Node2 -->
<g id="node2" class="node">
<title>Node2</title>
<g id="a_node2"><a xlink:href="classCustom__AI2.html#a7a3ac6cf87a8dd5c0ebabd4281bb6615" target="_top" xlink:title="Counts all moves for all pieces.">
<polygon fill="white" stroke="black" points="166,-198.75 166,-228.75 288,-228.75 288,-198.75 166,-198.75"/>
<text text-anchor="start" x="174" y="-216.75" font-family="Helvetica,sans-Serif" font-size="10.00">Custom_AI2::possible</text>
<text text-anchor="middle" x="227" y="-205.75" font-family="Helvetica,sans-Serif" font-size="10.00">_pieces_and_moves</text>
</a>
</g>
</g>
<!-- Node1&#45;&gt;Node2 -->
<g id="edge1" class="edge">
<title>Node1&#45;&gt;Node2</title>
<path fill="none" stroke="midnightblue" d="M130.16,-213.75C138.56,-213.75 147.21,-213.75 155.71,-213.75"/>
<polygon fill="midnightblue" stroke="midnightblue" points="155.98,-217.25 165.98,-213.75 155.98,-210.25 155.98,-217.25"/>
</g>
<!-- Node3 -->
<g id="node3" class="node">
<title>Node3</title>
<g id="a_node3"><a xlink:href="classRules.html#abd9b013ebba58f9757336a20b2c6bf8e" target="_top" xlink:title="Checks if king is in check.">
<polygon fill="white" stroke="black" points="347,-242.25 347,-261.25 436,-261.25 436,-242.25 347,-242.25"/>
<text text-anchor="middle" x="391.5" y="-249.25" font-family="Helvetica,sans-Serif" font-size="10.00">Rules::checked</text>
</a>
</g>
</g>
<!-- Node2&#45;&gt;Node3 -->
<g id="edge2" class="edge">
<title>Node2&#45;&gt;Node3</title>
<path fill="none" stroke="midnightblue" d="M288.05,-227.79C304.97,-231.74 323.21,-236.01 339.54,-239.83"/>
<polygon fill="midnightblue" stroke="midnightblue" points="338.9,-243.27 349.44,-242.14 340.5,-236.46 338.9,-243.27"/>
</g>
<!-- Node6 -->
<g id="node6" class="node">
<title>Node6</title>
<g id="a_node6"><a xlink:href="classValidate.html#a50364e1735875d1d74e7eb251b3fd7e5" target="_top" xlink:title="Validates position.">
<polygon fill="white" stroke="black" points="509,-204.25 509,-223.25 640,-223.25 640,-204.25 509,-204.25"/>
<text text-anchor="middle" x="574.5" y="-211.25" font-family="Helvetica,sans-Serif" font-size="10.00">Validate::valid_position</text>
</a>
</g>
</g>
<!-- Node2&#45;&gt;Node6 -->
<g id="edge17" class="edge">
<title>Node2&#45;&gt;Node6</title>
<path fill="none" stroke="midnightblue" d="M288.18,-213.75C346.6,-213.75 435.45,-213.75 498.46,-213.75"/>
<polygon fill="midnightblue" stroke="midnightblue" points="498.73,-217.25 508.73,-213.75 498.73,-210.25 498.73,-217.25"/>
</g>
<!-- Node7 -->
<g id="node7" class="node">
<title>Node7</title>
<g id="a_node7"><a xlink:href="classMove.html#a3765dcce8a7c18e0c2f7ce42c98fa2ba" target="_top" xlink:title="Makes move with piece.">
<polygon fill="white" stroke="black" points="336.5,-109.25 336.5,-128.25 446.5,-128.25 446.5,-109.25 336.5,-109.25"/>
<text text-anchor="middle" x="391.5" y="-116.25" font-family="Helvetica,sans-Serif" font-size="10.00">Move::make_move</text>
</a>
</g>
</g>
<!-- Node2&#45;&gt;Node7 -->
<g id="edge6" class="edge">
<title>Node2&#45;&gt;Node7</title>
<path fill="none" stroke="midnightblue" d="M253.75,-198.69C284.24,-180.87 334.72,-151.36 365.07,-133.61"/>
<polygon fill="midnightblue" stroke="midnightblue" points="366.94,-136.58 373.8,-128.51 363.4,-130.53 366.94,-136.58"/>
</g>
<!-- Node13 -->
<g id="node13" class="node">
<title>Node13</title>
<g id="a_node13"><a xlink:href="classMove.html#afbed08d3294e3c7913dd27c3d6afd283" target="_top" xlink:title="Undo move.">
<polygon fill="white" stroke="black" points="338,-14.25 338,-33.25 445,-33.25 445,-14.25 338,-14.25"/>
<text text-anchor="middle" x="391.5" y="-21.25" font-family="Helvetica,sans-Serif" font-size="10.00">Move::undo_move</text>
</a>
</g>
</g>
<!-- Node2&#45;&gt;Node13 -->
<g id="edge15" class="edge">
<title>Node2&#45;&gt;Node13</title>
<path fill="none" stroke="midnightblue" d="M240.64,-198.55C258.92,-176.62 293.83,-134.89 324,-99.75 341.34,-79.54 361.51,-56.56 375.05,-41.21"/>
<polygon fill="midnightblue" stroke="midnightblue" points="377.84,-43.34 381.83,-33.53 372.59,-38.71 377.84,-43.34"/>
</g>
<!-- Node14 -->
<g id="node14" class="node">
<title>Node14</title>
<g id="a_node14"><a xlink:href="classValidate.html#afe077c5b0107ffc1c42670e233257b9c" target="_top" xlink:title="Validates move.">
<polygon fill="white" stroke="black" points="324,-318.25 324,-337.25 459,-337.25 459,-318.25 324,-318.25"/>
<text text-anchor="middle" x="391.5" y="-325.25" font-family="Helvetica,sans-Serif" font-size="10.00">Validate::validate_move</text>
</a>
</g>
</g>
<!-- Node2&#45;&gt;Node14 -->
<g id="edge18" class="edge">
<title>Node2&#45;&gt;Node14</title>
<path fill="none" stroke="midnightblue" d="M249.58,-228.88C280.54,-250.6 337.26,-290.4 368.47,-312.29"/>
<polygon fill="midnightblue" stroke="midnightblue" points="366.72,-315.34 376.92,-318.22 370.74,-309.61 366.72,-315.34"/>
</g>
<!-- Node4 -->
<g id="node4" class="node">
<title>Node4</title>
<g id="a_node4"><a xlink:href="classValidate.html#a3e4b7f61bff7ee9d7d839ead34d2d61f" target="_top" xlink:title="Checks if square is empty.">
<polygon fill="white" stroke="black" points="702.5,-242.25 702.5,-261.25 809.5,-261.25 809.5,-242.25 702.5,-242.25"/>
<text text-anchor="middle" x="756" y="-249.25" font-family="Helvetica,sans-Serif" font-size="10.00">Validate::is_empty</text>
</a>
</g>
</g>
<!-- Node3&#45;&gt;Node4 -->
<g id="edge3" class="edge">
<title>Node3&#45;&gt;Node4</title>
<path fill="none" stroke="midnightblue" d="M436.23,-251.75C500.07,-251.75 619.15,-251.75 692.31,-251.75"/>
<polygon fill="midnightblue" stroke="midnightblue" points="692.32,-255.25 702.32,-251.75 692.32,-248.25 692.32,-255.25"/>
</g>
<!-- Node5 -->
<g id="node5" class="node">
<title>Node5</title>
<g id="a_node5"><a xlink:href="classValidate.html#ab5ba0f592c1cd28a57deab9ef608f2df" target="_top" xlink:title="Checks if piece is same color as player.">
<polygon fill="white" stroke="black" points="690,-280.25 690,-299.25 822,-299.25 822,-280.25 690,-280.25"/>
<text text-anchor="middle" x="756" y="-287.25" font-family="Helvetica,sans-Serif" font-size="10.00">Validate::is_same_color</text>
</a>
</g>
</g>
<!-- Node3&#45;&gt;Node5 -->
<g id="edge4" class="edge">
<title>Node3&#45;&gt;Node5</title>
<path fill="none" stroke="midnightblue" d="M436.09,-258.13C454.28,-260.68 475.64,-263.53 495,-265.75 557.07,-272.85 627.66,-279.26 679.61,-283.66"/>
<polygon fill="midnightblue" stroke="midnightblue" points="679.48,-287.16 689.74,-284.52 680.07,-280.19 679.48,-287.16"/>
</g>
<!-- Node3&#45;&gt;Node6 -->
<g id="edge5" class="edge">
<title>Node3&#45;&gt;Node6</title>
<path fill="none" stroke="midnightblue" d="M436.32,-242.55C460.99,-237.37 492.05,-230.85 518.37,-225.32"/>
<polygon fill="midnightblue" stroke="midnightblue" points="519.13,-228.74 528.2,-223.26 517.69,-221.89 519.13,-228.74"/>
</g>
<!-- Node8 -->
<g id="node8" class="node">
<title>Node8</title>
<g id="a_node8"><a xlink:href="classPlayer.html#a42e54e616455af5d9d4b6dea514ba7a0" target="_top" xlink:title="Checks player&#39;s pawn promotion.">
<polygon fill="white" stroke="black" points="512,-52.25 512,-71.25 637,-71.25 637,-52.25 512,-52.25"/>
<text text-anchor="middle" x="574.5" y="-59.25" font-family="Helvetica,sans-Serif" font-size="10.00">Player::get_promotion</text>
</a>
</g>
</g>
<!-- Node7&#45;&gt;Node8 -->
<g id="edge7" class="edge">
<title>Node7&#45;&gt;Node8</title>
<path fill="none" stroke="midnightblue" d="M415.84,-109.2C436.45,-100.98 467.41,-89.17 495,-80.75 503.1,-78.27 511.74,-75.91 520.22,-73.74"/>
<polygon fill="midnightblue" stroke="midnightblue" points="521.21,-77.11 530.06,-71.29 519.52,-70.31 521.21,-77.11"/>
</g>
<!-- Node9 -->
<g id="node9" class="node">
<title>Node9</title>
<g id="a_node9"><a xlink:href="classMove.html#a5472b83ec6bcde0fd8c16c4508896ccd" target="_top" xlink:title="Handles casting.">
<polygon fill="white" stroke="black" points="511.5,-90.25 511.5,-109.25 637.5,-109.25 637.5,-90.25 511.5,-90.25"/>
<text text-anchor="middle" x="574.5" y="-97.25" font-family="Helvetica,sans-Serif" font-size="10.00">Move::handle_castling</text>
</a>
</g>
</g>
<!-- Node7&#45;&gt;Node9 -->
<g id="edge8" class="edge">
<title>Node7&#45;&gt;Node9</title>
<path fill="none" stroke="midnightblue" d="M446.81,-113.05C463.94,-111.25 483.14,-109.23 501.32,-107.32"/>
<polygon fill="midnightblue" stroke="midnightblue" points="501.71,-110.8 511.29,-106.28 500.98,-103.84 501.71,-110.8"/>
</g>
<!-- Node10 -->
<g id="node10" class="node">
<title>Node10</title>
<g id="a_node10"><a xlink:href="classMove.html#a5a18864c15112c49e5a93dbee3f83d1c" target="_top" xlink:title="Moves piece from start to end.">
<polygon fill="white" stroke="black" points="701.5,-52.25 701.5,-71.25 810.5,-71.25 810.5,-52.25 701.5,-52.25"/>
<text text-anchor="middle" x="756" y="-59.25" font-family="Helvetica,sans-Serif" font-size="10.00">Move::move_piece</text>
</a>
</g>
</g>
<!-- Node7&#45;&gt;Node10 -->
<g id="edge10" class="edge">
<title>Node7&#45;&gt;Node10</title>
<path fill="none" stroke="midnightblue" d="M401.2,-109.1C417.54,-91.79 454.82,-56.02 495,-42.75 569.74,-18.06 662.92,-35.68 714.99,-49.52"/>
<polygon fill="midnightblue" stroke="midnightblue" points="714.27,-52.95 724.84,-52.23 716.13,-46.2 714.27,-52.95"/>
</g>
<!-- Node11 -->
<g id="node11" class="node">
<title>Node11</title>
<g id="a_node11"><a xlink:href="classMove.html#a9a242db5d52827dd11f81a6aa46e339e" target="_top" xlink:title="Handles pawn promotion.">
<polygon fill="white" stroke="black" points="524.5,-128.25 524.5,-147.25 624.5,-147.25 624.5,-128.25 524.5,-128.25"/>
<text text-anchor="middle" x="574.5" y="-135.25" font-family="Helvetica,sans-Serif" font-size="10.00">Move::promotion</text>
</a>
</g>
</g>
<!-- Node7&#45;&gt;Node11 -->
<g id="edge11" class="edge">
<title>Node7&#45;&gt;Node11</title>
<path fill="none" stroke="midnightblue" d="M446.81,-124.45C468.11,-126.68 492.62,-129.26 514.37,-131.54"/>
<polygon fill="midnightblue" stroke="midnightblue" points="514.16,-135.04 524.47,-132.6 514.89,-128.07 514.16,-135.04"/>
</g>
<!-- Node12 -->
<g id="node12" class="node">
<title>Node12</title>
<g id="a_node12"><a xlink:href="classPlayer.html#a620bf4cb1907eafdbcd9252a750ffa8f" target="_top" xlink:title="Update piece&#39;s position on chess board.">
<polygon fill="white" stroke="black" points="694,-147.25 694,-166.25 818,-166.25 818,-147.25 694,-147.25"/>
<text text-anchor="middle" x="756" y="-154.25" font-family="Helvetica,sans-Serif" font-size="10.00">Player::update_pieces</text>
</a>
</g>
</g>
<!-- Node7&#45;&gt;Node12 -->
<g id="edge14" class="edge">
<title>Node7&#45;&gt;Node12</title>
<path fill="none" stroke="midnightblue" d="M411.94,-128.33C432.14,-137.71 464.92,-151.35 495,-156.75 558,-168.05 630.98,-166.83 683.55,-163.49"/>
<polygon fill="midnightblue" stroke="midnightblue" points="684.04,-166.97 693.78,-162.8 683.57,-159.98 684.04,-166.97"/>
</g>
<!-- Node9&#45;&gt;Node10 -->
<g id="edge9" class="edge">
<title>Node9&#45;&gt;Node10</title>
<path fill="none" stroke="midnightblue" d="M620.8,-90.16C644.91,-85.05 674.75,-78.73 700.17,-73.35"/>
<polygon fill="midnightblue" stroke="midnightblue" points="700.97,-76.76 710.03,-71.27 699.52,-69.91 700.97,-76.76"/>
</g>
<!-- Node11&#45;&gt;Node10 -->
<g id="edge12" class="edge">
<title>Node11&#45;&gt;Node10</title>
<path fill="none" stroke="midnightblue" d="M624.31,-128.15C634.29,-125.57 644.61,-122.45 654,-118.75 682.3,-107.59 712.37,-89.75 732.27,-77"/>
<polygon fill="midnightblue" stroke="midnightblue" points="734.44,-79.76 740.91,-71.37 730.62,-73.9 734.44,-79.76"/>
</g>
<!-- Node11&#45;&gt;Node12 -->
<g id="edge13" class="edge">
<title>Node11&#45;&gt;Node12</title>
<path fill="none" stroke="midnightblue" d="M624.55,-142.94C642.84,-144.87 664,-147.11 683.88,-149.22"/>
<polygon fill="midnightblue" stroke="midnightblue" points="683.51,-152.7 693.82,-150.27 684.25,-145.74 683.51,-152.7"/>
</g>
<!-- Node13&#45;&gt;Node10 -->
<g id="edge16" class="edge">
<title>Node13&#45;&gt;Node10</title>
<path fill="none" stroke="midnightblue" d="M434.4,-14.18C486.61,-3.91 578.22,8.62 654,-9.75 683.12,-16.8 713.25,-33.8 732.94,-46.45"/>
<polygon fill="midnightblue" stroke="midnightblue" points="731.18,-49.49 741.46,-52.08 735.04,-43.65 731.18,-49.49"/>
</g>
<!-- Node15 -->
<g id="node15" class="node">
<title>Node15</title>
<g id="a_node15"><a xlink:href="classValidate.html#ac11fdbf661a340f903a8a8b581710c34" target="_top" xlink:title="Finds all possible moves for piece.">
<polygon fill="white" stroke="black" points="495,-318.25 495,-337.25 654,-337.25 654,-318.25 495,-318.25"/>
<text text-anchor="middle" x="574.5" y="-325.25" font-family="Helvetica,sans-Serif" font-size="10.00">Validate::find_possible_move</text>
</a>
</g>
</g>
<!-- Node14&#45;&gt;Node15 -->
<g id="edge19" class="edge">
<title>Node14&#45;&gt;Node15</title>
<path fill="none" stroke="midnightblue" d="M459.13,-327.75C467.46,-327.75 476.08,-327.75 484.68,-327.75"/>
<polygon fill="midnightblue" stroke="midnightblue" points="484.75,-331.25 494.75,-327.75 484.75,-324.25 484.75,-331.25"/>
</g>
<!-- Node17 -->
<g id="node17" class="node">
<title>Node17</title>
<g id="a_node17"><a xlink:href="classValidate.html#a6c88b44fd5d40b6aba0812e2d23d8f04" target="_top" xlink:title="Checks if castling is valid.">
<polygon fill="white" stroke="black" points="509.5,-356.25 509.5,-375.25 639.5,-375.25 639.5,-356.25 509.5,-356.25"/>
<text text-anchor="middle" x="574.5" y="-363.25" font-family="Helvetica,sans-Serif" font-size="10.00">Validate::valid_castling</text>
</a>
</g>
</g>
<!-- Node14&#45;&gt;Node17 -->
<g id="edge23" class="edge">
<title>Node14&#45;&gt;Node17</title>
<path fill="none" stroke="midnightblue" d="M438.17,-337.33C462.49,-342.44 492.58,-348.76 518.21,-354.14"/>
<polygon fill="midnightblue" stroke="midnightblue" points="517.65,-357.6 528.15,-356.23 519.09,-350.75 517.65,-357.6"/>
</g>
<!-- Node15&#45;&gt;Node4 -->
<g id="edge21" class="edge">
<title>Node15&#45;&gt;Node4</title>
<path fill="none" stroke="midnightblue" d="M592.52,-318.07C614.51,-305.86 654.23,-284.75 690,-270.75 695.89,-268.44 702.18,-266.26 708.43,-264.26"/>
<polygon fill="midnightblue" stroke="midnightblue" points="709.64,-267.55 718.18,-261.28 707.59,-260.86 709.64,-267.55"/>
</g>
<!-- Node15&#45;&gt;Node5 -->
<g id="edge22" class="edge">
<title>Node15&#45;&gt;Node5</title>
<path fill="none" stroke="midnightblue" d="M620.8,-318.16C644.91,-313.05 674.75,-306.73 700.17,-301.35"/>
<polygon fill="midnightblue" stroke="midnightblue" points="700.97,-304.76 710.03,-299.27 699.52,-297.91 700.97,-304.76"/>
</g>
<!-- Node16 -->
<g id="node16" class="node">
<title>Node16</title>
<g id="a_node16"><a xlink:href="classValidate.html#aa7766a323b9443c69e62a05d04f0b217" target="_top" xlink:title="Finds if move is legit.">
<polygon fill="white" stroke="black" points="699.5,-318.25 699.5,-337.25 812.5,-337.25 812.5,-318.25 699.5,-318.25"/>
<text text-anchor="middle" x="756" y="-325.25" font-family="Helvetica,sans-Serif" font-size="10.00">Validate::find_move</text>
</a>
</g>
</g>
<!-- Node15&#45;&gt;Node16 -->
<g id="edge20" class="edge">
<title>Node15&#45;&gt;Node16</title>
<path fill="none" stroke="midnightblue" d="M654.23,-327.75C665.84,-327.75 677.7,-327.75 689.02,-327.75"/>
<polygon fill="midnightblue" stroke="midnightblue" points="689.24,-331.25 699.24,-327.75 689.24,-324.25 689.24,-331.25"/>
</g>
</g>
</svg>
