<?xml version="1.0" encoding="UTF-8" standalone="no"?>
<!DOCTYPE svg PUBLIC "-//W3C//DTD SVG 1.1//EN"
 "http://www.w3.org/Graphics/SVG/1.1/DTD/svg11.dtd">
<!-- Generated by graphviz version 2.43.0 (0)
 -->
<!-- Title: Rook::possible_moves Pages: 1 -->
<svg width="287pt" height="104pt"
 viewBox="0.00 0.00 287.00 104.00" xmlns="http://www.w3.org/2000/svg" xmlns:xlink="http://www.w3.org/1999/xlink">
<g id="graph0" class="graph" transform="scale(1 1) rotate(0) translate(4 100)">
<title>Rook::possible_moves</title>
<polygon fill="white" stroke="transparent" points="-4,4 -4,-100 283,-100 283,4 -4,4"/>
<!-- Node1 -->
<g id="node1" class="node">
<title>Node1</title>
<g id="a_node1"><a xlink:title="Find all possible move based on piece type.">
<polygon fill="#bfbfbf" stroke="black" points="0,-38.5 0,-57.5 126,-57.5 126,-38.5 0,-38.5"/>
<text text-anchor="middle" x="63" y="-45.5" font-family="Helvetica,sans-Serif" font-size="10.00">Rook::possible_moves</text>
</a>
</g>
</g>
<!-- Node2 -->
<g id="node2" class="node">
<title>Node2</title>
<g id="a_node2"><a xlink:href="classPiece.html#a19446ccc1dce47aa1c77733242657f25" target="_top" xlink:title="Adds move to possible moves.">
<polygon fill="white" stroke="black" points="170.5,-76.5 170.5,-95.5 270.5,-95.5 270.5,-76.5 170.5,-76.5"/>
<text text-anchor="middle" x="220.5" y="-83.5" font-family="Helvetica,sans-Serif" font-size="10.00">Piece::add_move</text>
</a>
</g>
</g>
<!-- Node1&#45;&gt;Node2 -->
<g id="edge1" class="edge">
<title>Node1&#45;&gt;Node2</title>
<path fill="none" stroke="midnightblue" d="M103.24,-57.59C123.76,-62.6 149.07,-68.79 170.83,-74.11"/>
<polygon fill="midnightblue" stroke="midnightblue" points="170,-77.51 180.54,-76.48 171.66,-70.71 170,-77.51"/>
</g>
<!-- Node3 -->
<g id="node3" class="node">
<title>Node3</title>
<g id="a_node3"><a xlink:href="classPiece.html#a6dcc7df628eb1f8317caaa4970835517" target="_top" xlink:title=" ">
<polygon fill="white" stroke="black" points="166,-38.5 166,-57.5 275,-57.5 275,-38.5 166,-38.5"/>
<text text-anchor="middle" x="220.5" y="-45.5" font-family="Helvetica,sans-Serif" font-size="10.00">Piece::get_position</text>
</a>
</g>
</g>
<!-- Node1&#45;&gt;Node3 -->
<g id="edge2" class="edge">
<title>Node1&#45;&gt;Node3</title>
<path fill="none" stroke="midnightblue" d="M126.35,-48C135.91,-48 145.79,-48 155.38,-48"/>
<polygon fill="midnightblue" stroke="midnightblue" points="155.65,-51.5 165.65,-48 155.65,-44.5 155.65,-51.5"/>
</g>
<!-- Node4 -->
<g id="node4" class="node">
<title>Node4</title>
<g id="a_node4"><a xlink:href="classPiece.html#a0b8eee25ebeb85146ffc724a9998613c" target="_top" xlink:title="Validates Position.">
<polygon fill="white" stroke="black" points="162,-0.5 162,-19.5 279,-19.5 279,-0.5 162,-0.5"/>
<text text-anchor="middle" x="220.5" y="-7.5" font-family="Helvetica,sans-Serif" font-size="10.00">Piece::valid_position</text>
</a>
</g>
</g>
<!-- Node1&#45;&gt;Node4 -->
<g id="edge3" class="edge">
<title>Node1&#45;&gt;Node4</title>
<path fill="none" stroke="midnightblue" d="M103.24,-38.41C123.76,-33.4 149.07,-27.21 170.83,-21.89"/>
<polygon fill="midnightblue" stroke="midnightblue" points="171.66,-25.29 180.54,-19.52 170,-18.49 171.66,-25.29"/>
</g>
</g>
</svg>
