<?xml version="1.0" encoding="UTF-8" standalone="no"?>
<!DOCTYPE svg PUBLIC "-//W3C//DTD SVG 1.1//EN"
 "http://www.w3.org/Graphics/SVG/1.1/DTD/svg11.dtd">
<!-- Generated by graphviz version 2.43.0 (0)
 -->
<!-- Title: Minimax::get_piece_value Pages: 1 -->
<svg width="645pt" height="39pt"
 viewBox="0.00 0.00 645.00 39.00" xmlns="http://www.w3.org/2000/svg" xmlns:xlink="http://www.w3.org/1999/xlink">
<g id="graph0" class="graph" transform="scale(1 1) rotate(0) translate(4 35)">
<title>Minimax::get_piece_value</title>
<polygon fill="white" stroke="transparent" points="-4,4 -4,-35 641,-35 641,4 -4,4"/>
<!-- Node1 -->
<g id="node1" class="node">
<title>Node1</title>
<g id="a_node1"><a xlink:title="Gets piece&#39;s value.">
<polygon fill="#bfbfbf" stroke="black" points="524,-0.5 524,-30.5 637,-30.5 637,-0.5 524,-0.5"/>
<text text-anchor="start" x="532" y="-18.5" font-family="Helvetica,sans-Serif" font-size="10.00">Minimax::get_piece</text>
<text text-anchor="middle" x="580.5" y="-7.5" font-family="Helvetica,sans-Serif" font-size="10.00">_value</text>
</a>
</g>
</g>
<!-- Node2 -->
<g id="node2" class="node">
<title>Node2</title>
<g id="a_node2"><a xlink:href="classMinimax.html#a5778877ae8f440f49730b743e1b4ce2a" target="_top" xlink:title="Evaluates chess board.">
<polygon fill="white" stroke="black" points="347,-6 347,-25 488,-25 488,-6 347,-6"/>
<text text-anchor="middle" x="417.5" y="-13" font-family="Helvetica,sans-Serif" font-size="10.00">Minimax::evaluate_board</text>
</a>
</g>
</g>
<!-- Node1&#45;&gt;Node2 -->
<g id="edge1" class="edge">
<title>Node1&#45;&gt;Node2</title>
<path fill="none" stroke="midnightblue" d="M513.56,-15.5C505.18,-15.5 496.59,-15.5 488.16,-15.5"/>
<polygon fill="midnightblue" stroke="midnightblue" points="513.64,-19 523.64,-15.5 513.64,-12 513.64,-19"/>
</g>
<!-- Node3 -->
<g id="node3" class="node">
<title>Node3</title>
<g id="a_node3"><a xlink:href="classMinimax.html#ad75b36d8718f9ad30bb921a483413b1f" target="_top" xlink:title="Minimax algorithm.">
<polygon fill="white" stroke="black" points="150,-6 150,-25 311,-25 311,-6 150,-6"/>
<text text-anchor="middle" x="230.5" y="-13" font-family="Helvetica,sans-Serif" font-size="10.00">Minimax::minimax_algorithm</text>
</a>
</g>
</g>
<!-- Node2&#45;&gt;Node3 -->
<g id="edge2" class="edge">
<title>Node2&#45;&gt;Node3</title>
<path fill="none" stroke="midnightblue" d="M336.59,-15.5C328.12,-15.5 319.51,-15.5 311.05,-15.5"/>
<polygon fill="midnightblue" stroke="midnightblue" points="336.82,-19 346.82,-15.5 336.82,-12 336.82,-19"/>
</g>
<!-- Node4 -->
<g id="node4" class="node">
<title>Node4</title>
<g id="a_node4"><a xlink:href="classMinimax.html#af45948f65043449d3c4cfb6c4bbf8251" target="_top" xlink:title="Gets player&#39;s move.">
<polygon fill="white" stroke="black" points="0,-6 0,-25 114,-25 114,-6 0,-6"/>
<text text-anchor="middle" x="57" y="-13" font-family="Helvetica,sans-Serif" font-size="10.00">Minimax::get_move</text>
</a>
</g>
</g>
<!-- Node3&#45;&gt;Node4 -->
<g id="edge3" class="edge">
<title>Node3&#45;&gt;Node4</title>
<path fill="none" stroke="midnightblue" d="M139.57,-15.5C130.89,-15.5 122.26,-15.5 114.04,-15.5"/>
<polygon fill="midnightblue" stroke="midnightblue" points="139.77,-19 149.77,-15.5 139.77,-12 139.77,-19"/>
</g>
</g>
</svg>
