<?xml version="1.0" encoding="UTF-8" standalone="no"?>
<!DOCTYPE svg PUBLIC "-//W3C//DTD SVG 1.1//EN"
 "http://www.w3.org/Graphics/SVG/1.1/DTD/svg11.dtd">
<!-- Generated by graphviz version 2.43.0 (0)
 -->
<!-- Title: Custom_AI::possible_pieces_and_moves Pages: 1 -->
<svg width="665pt" height="393pt"
 viewBox="0.00 0.00 665.00 392.66" xmlns="http://www.w3.org/2000/svg" xmlns:xlink="http://www.w3.org/1999/xlink">
<g id="graph0" class="graph" transform="scale(1 1) rotate(0) translate(4 388.66)">
<title>Custom_AI::possible_pieces_and_moves</title>
<polygon fill="white" stroke="transparent" points="-4,4 -4,-388.66 661,-388.66 661,4 -4,4"/>
<!-- Node1 -->
<g id="node1" class="node">
<title>Node1</title>
<g id="a_node1"><a xlink:title="Counts all moves for all pieces.">
<polygon fill="#bfbfbf" stroke="black" points="0,-188.66 0,-218.66 116,-218.66 116,-188.66 0,-188.66"/>
<text text-anchor="start" x="8" y="-206.66" font-family="Helvetica,sans-Serif" font-size="10.00">Custom_AI::possible</text>
<text text-anchor="middle" x="58" y="-195.66" font-family="Helvetica,sans-Serif" font-size="10.00">_pieces_and_moves</text>
</a>
</g>
</g>
<!-- Node2 -->
<g id="node2" class="node">
<title>Node2</title>
<g id="a_node2"><a xlink:href="classRules.html#abd9b013ebba58f9757336a20b2c6bf8e" target="_top" xlink:title="Checks if king is in check.">
<polygon fill="white" stroke="black" points="178.5,-223.16 178.5,-242.16 267.5,-242.16 267.5,-223.16 178.5,-223.16"/>
<text text-anchor="middle" x="223" y="-230.16" font-family="Helvetica,sans-Serif" font-size="10.00">Rules::checked</text>
</a>
</g>
</g>
<!-- Node1&#45;&gt;Node2 -->
<g id="edge1" class="edge">
<title>Node1&#45;&gt;Node2</title>
<path fill="none" stroke="midnightblue" d="M116.01,-213.8C132.96,-216.82 151.48,-220.11 168.22,-223.09"/>
<polygon fill="midnightblue" stroke="midnightblue" points="167.92,-226.59 178.38,-224.9 169.15,-219.7 167.92,-226.59"/>
</g>
<!-- Node5 -->
<g id="node5" class="node">
<title>Node5</title>
<g id="a_node5"><a xlink:href="classValidate.html#a50364e1735875d1d74e7eb251b3fd7e5" target="_top" xlink:title="Validates position.">
<polygon fill="white" stroke="black" points="344,-289.16 344,-308.16 475,-308.16 475,-289.16 344,-289.16"/>
<text text-anchor="middle" x="409.5" y="-296.16" font-family="Helvetica,sans-Serif" font-size="10.00">Validate::valid_position</text>
</a>
</g>
</g>
<!-- Node1&#45;&gt;Node5 -->
<g id="edge17" class="edge">
<title>Node1&#45;&gt;Node5</title>
<path fill="none" stroke="midnightblue" d="M83.37,-218.78C101.64,-229.47 127.58,-243.33 152,-251.66 211.45,-271.94 281.81,-284.05 333.78,-290.88"/>
<polygon fill="midnightblue" stroke="midnightblue" points="333.56,-294.38 343.92,-292.17 334.45,-287.43 333.56,-294.38"/>
</g>
<!-- Node6 -->
<g id="node6" class="node">
<title>Node6</title>
<g id="a_node6"><a xlink:href="classMove.html#a3765dcce8a7c18e0c2f7ce42c98fa2ba" target="_top" xlink:title="Makes move with piece.">
<polygon fill="white" stroke="black" points="168,-137.16 168,-156.16 278,-156.16 278,-137.16 168,-137.16"/>
<text text-anchor="middle" x="223" y="-144.16" font-family="Helvetica,sans-Serif" font-size="10.00">Move::make_move</text>
</a>
</g>
</g>
<!-- Node1&#45;&gt;Node6 -->
<g id="edge5" class="edge">
<title>Node1&#45;&gt;Node6</title>
<path fill="none" stroke="midnightblue" d="M102.25,-188.53C127.95,-179.55 160.21,-168.27 184.77,-159.68"/>
<polygon fill="midnightblue" stroke="midnightblue" points="186.16,-162.9 194.44,-156.29 183.85,-156.29 186.16,-162.9"/>
</g>
<!-- Node12 -->
<g id="node12" class="node">
<title>Node12</title>
<g id="a_node12"><a xlink:href="classCustom__AI.html#aab7a4beec19d5a4186962fba68cdc9ce" target="_top" xlink:title=" ">
<polygon fill="white" stroke="black" points="152,-61.16 152,-80.16 294,-80.16 294,-61.16 152,-61.16"/>
<text text-anchor="middle" x="223" y="-68.16" font-family="Helvetica,sans-Serif" font-size="10.00">Custom_AI::piece_priority</text>
</a>
</g>
</g>
<!-- Node1&#45;&gt;Node12 -->
<g id="edge14" class="edge">
<title>Node1&#45;&gt;Node12</title>
<path fill="none" stroke="midnightblue" d="M67.12,-188.55C81.11,-163.98 112.15,-115.53 152,-89.66 155.29,-87.52 158.82,-85.62 162.48,-83.94"/>
<polygon fill="midnightblue" stroke="midnightblue" points="163.83,-87.17 171.78,-80.17 161.2,-80.68 163.83,-87.17"/>
</g>
<!-- Node13 -->
<g id="node13" class="node">
<title>Node13</title>
<g id="a_node13"><a xlink:href="classMove.html#afbed08d3294e3c7913dd27c3d6afd283" target="_top" xlink:title="Undo move.">
<polygon fill="white" stroke="black" points="169.5,-99.16 169.5,-118.16 276.5,-118.16 276.5,-99.16 169.5,-99.16"/>
<text text-anchor="middle" x="223" y="-106.16" font-family="Helvetica,sans-Serif" font-size="10.00">Move::undo_move</text>
</a>
</g>
</g>
<!-- Node1&#45;&gt;Node13 -->
<g id="edge15" class="edge">
<title>Node1&#45;&gt;Node13</title>
<path fill="none" stroke="midnightblue" d="M73.37,-188.57C90.53,-171.4 120.85,-143.68 152,-127.66 156.5,-125.34 161.32,-123.28 166.24,-121.46"/>
<polygon fill="midnightblue" stroke="midnightblue" points="167.42,-124.76 175.77,-118.24 165.18,-118.12 167.42,-124.76"/>
</g>
<!-- Node14 -->
<g id="node14" class="node">
<title>Node14</title>
<g id="a_node14"><a xlink:href="classValidate.html#afe077c5b0107ffc1c42670e233257b9c" target="_top" xlink:title="Validates move.">
<polygon fill="white" stroke="black" points="155.5,-327.16 155.5,-346.16 290.5,-346.16 290.5,-327.16 155.5,-327.16"/>
<text text-anchor="middle" x="223" y="-334.16" font-family="Helvetica,sans-Serif" font-size="10.00">Validate::validate_move</text>
</a>
</g>
</g>
<!-- Node1&#45;&gt;Node14 -->
<g id="edge18" class="edge">
<title>Node1&#45;&gt;Node14</title>
<path fill="none" stroke="midnightblue" d="M70.15,-218.92C86.28,-240.14 117.93,-278.76 152,-303.66 162.42,-311.28 174.89,-317.82 186.39,-323.03"/>
<polygon fill="midnightblue" stroke="midnightblue" points="185.19,-326.33 195.75,-327.09 187.97,-319.9 185.19,-326.33"/>
</g>
<!-- Node3 -->
<g id="node3" class="node">
<title>Node3</title>
<g id="a_node3"><a xlink:href="classValidate.html#a3e4b7f61bff7ee9d7d839ead34d2d61f" target="_top" xlink:title="Checks if square is empty.">
<polygon fill="white" stroke="black" points="537.5,-223.16 537.5,-242.16 644.5,-242.16 644.5,-223.16 537.5,-223.16"/>
<text text-anchor="middle" x="591" y="-230.16" font-family="Helvetica,sans-Serif" font-size="10.00">Validate::is_empty</text>
</a>
</g>
</g>
<!-- Node2&#45;&gt;Node3 -->
<g id="edge2" class="edge">
<title>Node2&#45;&gt;Node3</title>
<path fill="none" stroke="midnightblue" d="M267.78,-232.66C332.3,-232.66 453.22,-232.66 527.19,-232.66"/>
<polygon fill="midnightblue" stroke="midnightblue" points="527.3,-236.16 537.3,-232.66 527.3,-229.16 527.3,-236.16"/>
</g>
<!-- Node4 -->
<g id="node4" class="node">
<title>Node4</title>
<g id="a_node4"><a xlink:href="classValidate.html#ab5ba0f592c1cd28a57deab9ef608f2df" target="_top" xlink:title="Checks if piece is same color as player.">
<polygon fill="white" stroke="black" points="525,-280.16 525,-299.16 657,-299.16 657,-280.16 525,-280.16"/>
<text text-anchor="middle" x="591" y="-287.16" font-family="Helvetica,sans-Serif" font-size="10.00">Validate::is_same_color</text>
</a>
</g>
</g>
<!-- Node2&#45;&gt;Node4 -->
<g id="edge3" class="edge">
<title>Node2&#45;&gt;Node4</title>
<path fill="none" stroke="midnightblue" d="M267.78,-239.48C329.85,-249.14 444.13,-266.94 518.58,-278.53"/>
<polygon fill="midnightblue" stroke="midnightblue" points="518.39,-282.05 528.81,-280.13 519.46,-275.13 518.39,-282.05"/>
</g>
<!-- Node2&#45;&gt;Node5 -->
<g id="edge4" class="edge">
<title>Node2&#45;&gt;Node5</title>
<path fill="none" stroke="midnightblue" d="M246.55,-242.2C267.87,-251.09 300.86,-264.45 330,-274.66 341.34,-278.63 353.72,-282.59 365.23,-286.11"/>
<polygon fill="midnightblue" stroke="midnightblue" points="364.49,-289.54 375.08,-289.09 366.52,-282.84 364.49,-289.54"/>
</g>
<!-- Node7 -->
<g id="node7" class="node">
<title>Node7</title>
<g id="a_node7"><a xlink:href="classPlayer.html#a42e54e616455af5d9d4b6dea514ba7a0" target="_top" xlink:title="Checks player&#39;s pawn promotion.">
<polygon fill="white" stroke="black" points="347,-61.16 347,-80.16 472,-80.16 472,-61.16 347,-61.16"/>
<text text-anchor="middle" x="409.5" y="-68.16" font-family="Helvetica,sans-Serif" font-size="10.00">Player::get_promotion</text>
</a>
</g>
</g>
<!-- Node6&#45;&gt;Node7 -->
<g id="edge6" class="edge">
<title>Node6&#45;&gt;Node7</title>
<path fill="none" stroke="midnightblue" d="M272.86,-137.12C280.22,-134.64 287.51,-131.53 294,-127.66 313.97,-115.72 309.87,-101.32 330,-89.66 333.86,-87.42 337.97,-85.45 342.21,-83.71"/>
<polygon fill="midnightblue" stroke="midnightblue" points="343.47,-86.98 351.66,-80.26 341.06,-80.4 343.47,-86.98"/>
</g>
<!-- Node8 -->
<g id="node8" class="node">
<title>Node8</title>
<g id="a_node8"><a xlink:href="classMove.html#a5472b83ec6bcde0fd8c16c4508896ccd" target="_top" xlink:title="Handles casting.">
<polygon fill="white" stroke="black" points="346.5,-99.16 346.5,-118.16 472.5,-118.16 472.5,-99.16 346.5,-99.16"/>
<text text-anchor="middle" x="409.5" y="-106.16" font-family="Helvetica,sans-Serif" font-size="10.00">Move::handle_castling</text>
</a>
</g>
</g>
<!-- Node6&#45;&gt;Node8 -->
<g id="edge7" class="edge">
<title>Node6&#45;&gt;Node8</title>
<path fill="none" stroke="midnightblue" d="M270.56,-137.07C295.34,-131.96 326.02,-125.65 352.14,-120.27"/>
<polygon fill="midnightblue" stroke="midnightblue" points="353.19,-123.62 362.28,-118.18 351.78,-116.77 353.19,-123.62"/>
</g>
<!-- Node9 -->
<g id="node9" class="node">
<title>Node9</title>
<g id="a_node9"><a xlink:href="classMove.html#a5a18864c15112c49e5a93dbee3f83d1c" target="_top" xlink:title="Moves piece from start to end.">
<polygon fill="white" stroke="black" points="536.5,-61.16 536.5,-80.16 645.5,-80.16 645.5,-61.16 536.5,-61.16"/>
<text text-anchor="middle" x="591" y="-68.16" font-family="Helvetica,sans-Serif" font-size="10.00">Move::move_piece</text>
</a>
</g>
</g>
<!-- Node6&#45;&gt;Node9 -->
<g id="edge9" class="edge">
<title>Node6&#45;&gt;Node9</title>
<path fill="none" stroke="midnightblue" d="M278.01,-137.25C283.78,-134.76 289.27,-131.62 294,-127.66 322.66,-103.67 298.42,-71.64 330,-51.66 401.5,-6.41 507.23,-37.38 559.06,-57.38"/>
<polygon fill="midnightblue" stroke="midnightblue" points="557.8,-60.65 568.39,-61.09 560.39,-54.14 557.8,-60.65"/>
</g>
<!-- Node10 -->
<g id="node10" class="node">
<title>Node10</title>
<g id="a_node10"><a xlink:href="classMove.html#a9a242db5d52827dd11f81a6aa46e339e" target="_top" xlink:title="Handles pawn promotion.">
<polygon fill="white" stroke="black" points="359.5,-137.16 359.5,-156.16 459.5,-156.16 459.5,-137.16 359.5,-137.16"/>
<text text-anchor="middle" x="409.5" y="-144.16" font-family="Helvetica,sans-Serif" font-size="10.00">Move::promotion</text>
</a>
</g>
</g>
<!-- Node6&#45;&gt;Node10 -->
<g id="edge10" class="edge">
<title>Node6&#45;&gt;Node10</title>
<path fill="none" stroke="midnightblue" d="M278.36,-146.66C300.57,-146.66 326.34,-146.66 349.05,-146.66"/>
<polygon fill="midnightblue" stroke="midnightblue" points="349.25,-150.16 359.25,-146.66 349.25,-143.16 349.25,-150.16"/>
</g>
<!-- Node11 -->
<g id="node11" class="node">
<title>Node11</title>
<g id="a_node11"><a xlink:href="classPlayer.html#a620bf4cb1907eafdbcd9252a750ffa8f" target="_top" xlink:title="Update piece&#39;s position on chess board.">
<polygon fill="white" stroke="black" points="529,-156.16 529,-175.16 653,-175.16 653,-156.16 529,-156.16"/>
<text text-anchor="middle" x="591" y="-163.16" font-family="Helvetica,sans-Serif" font-size="10.00">Player::update_pieces</text>
</a>
</g>
</g>
<!-- Node6&#45;&gt;Node11 -->
<g id="edge13" class="edge">
<title>Node6&#45;&gt;Node11</title>
<path fill="none" stroke="midnightblue" d="M267.09,-156.17C286.25,-159.93 309.14,-163.8 330,-165.66 393.65,-171.32 466.41,-170.72 518.74,-169.05"/>
<polygon fill="midnightblue" stroke="midnightblue" points="519.05,-172.54 528.93,-168.7 518.81,-165.55 519.05,-172.54"/>
</g>
<!-- Node8&#45;&gt;Node9 -->
<g id="edge8" class="edge">
<title>Node8&#45;&gt;Node9</title>
<path fill="none" stroke="midnightblue" d="M455.8,-99.07C479.91,-93.96 509.75,-87.65 535.17,-82.27"/>
<polygon fill="midnightblue" stroke="midnightblue" points="535.97,-85.67 545.03,-80.18 534.52,-78.82 535.97,-85.67"/>
</g>
<!-- Node10&#45;&gt;Node9 -->
<g id="edge11" class="edge">
<title>Node10&#45;&gt;Node9</title>
<path fill="none" stroke="midnightblue" d="M459.31,-137.06C469.29,-134.48 479.61,-131.36 489,-127.66 517.3,-116.5 547.37,-98.66 567.27,-85.91"/>
<polygon fill="midnightblue" stroke="midnightblue" points="569.44,-88.67 575.91,-80.28 565.62,-82.81 569.44,-88.67"/>
</g>
<!-- Node10&#45;&gt;Node11 -->
<g id="edge12" class="edge">
<title>Node10&#45;&gt;Node11</title>
<path fill="none" stroke="midnightblue" d="M459.55,-151.85C477.84,-153.79 499,-156.03 518.88,-158.13"/>
<polygon fill="midnightblue" stroke="midnightblue" points="518.51,-161.61 528.82,-159.18 519.25,-154.65 518.51,-161.61"/>
</g>
<!-- Node13&#45;&gt;Node9 -->
<g id="edge16" class="edge">
<title>Node13&#45;&gt;Node9</title>
<path fill="none" stroke="midnightblue" d="M276.83,-99.57C283.02,-97.03 288.92,-93.79 294,-89.66 321.44,-67.32 299.85,-37.17 330,-18.66 407.04,28.66 518.91,-27.24 566.82,-55.82"/>
<polygon fill="midnightblue" stroke="midnightblue" points="565.16,-58.91 575.52,-61.14 568.81,-52.94 565.16,-58.91"/>
</g>
<!-- Node15 -->
<g id="node15" class="node">
<title>Node15</title>
<g id="a_node15"><a xlink:href="classValidate.html#ac11fdbf661a340f903a8a8b581710c34" target="_top" xlink:title="Finds all possible moves for piece.">
<polygon fill="white" stroke="black" points="330,-327.16 330,-346.16 489,-346.16 489,-327.16 330,-327.16"/>
<text text-anchor="middle" x="409.5" y="-334.16" font-family="Helvetica,sans-Serif" font-size="10.00">Validate::find_possible_move</text>
</a>
</g>
</g>
<!-- Node14&#45;&gt;Node15 -->
<g id="edge19" class="edge">
<title>Node14&#45;&gt;Node15</title>
<path fill="none" stroke="midnightblue" d="M290.61,-336.66C300.03,-336.66 309.84,-336.66 319.6,-336.66"/>
<polygon fill="midnightblue" stroke="midnightblue" points="319.74,-340.16 329.74,-336.66 319.74,-333.16 319.74,-340.16"/>
</g>
<!-- Node17 -->
<g id="node17" class="node">
<title>Node17</title>
<g id="a_node17"><a xlink:href="classValidate.html#a6c88b44fd5d40b6aba0812e2d23d8f04" target="_top" xlink:title="Checks if castling is valid.">
<polygon fill="white" stroke="black" points="344.5,-365.16 344.5,-384.16 474.5,-384.16 474.5,-365.16 344.5,-365.16"/>
<text text-anchor="middle" x="409.5" y="-372.16" font-family="Helvetica,sans-Serif" font-size="10.00">Validate::valid_castling</text>
</a>
</g>
</g>
<!-- Node14&#45;&gt;Node17 -->
<g id="edge23" class="edge">
<title>Node14&#45;&gt;Node17</title>
<path fill="none" stroke="midnightblue" d="M270.56,-346.25C295.34,-351.35 326.02,-357.67 352.14,-363.05"/>
<polygon fill="midnightblue" stroke="midnightblue" points="351.78,-366.55 362.28,-365.14 353.19,-359.69 351.78,-366.55"/>
</g>
<!-- Node15&#45;&gt;Node3 -->
<g id="edge21" class="edge">
<title>Node15&#45;&gt;Node3</title>
<path fill="none" stroke="midnightblue" d="M469.37,-327.13C476.29,-324.66 483.01,-321.56 489,-317.66 511.05,-303.3 505.27,-288.07 525,-270.66 535.44,-261.44 548.45,-253.32 560.08,-246.97"/>
<polygon fill="midnightblue" stroke="midnightblue" points="561.8,-250.02 569.03,-242.27 558.55,-243.82 561.8,-250.02"/>
</g>
<!-- Node15&#45;&gt;Node4 -->
<g id="edge22" class="edge">
<title>Node15&#45;&gt;Node4</title>
<path fill="none" stroke="midnightblue" d="M450.9,-327.15C463.16,-324.19 476.65,-320.86 489,-317.66 507.85,-312.77 528.58,-307.07 546.34,-302.1"/>
<polygon fill="midnightblue" stroke="midnightblue" points="547.73,-305.35 556.41,-299.27 545.83,-298.61 547.73,-305.35"/>
</g>
<!-- Node16 -->
<g id="node16" class="node">
<title>Node16</title>
<g id="a_node16"><a xlink:href="classValidate.html#aa7766a323b9443c69e62a05d04f0b217" target="_top" xlink:title="Finds if move is legit.">
<polygon fill="white" stroke="black" points="534.5,-327.16 534.5,-346.16 647.5,-346.16 647.5,-327.16 534.5,-327.16"/>
<text text-anchor="middle" x="591" y="-334.16" font-family="Helvetica,sans-Serif" font-size="10.00">Validate::find_move</text>
</a>
</g>
</g>
<!-- Node15&#45;&gt;Node16 -->
<g id="edge20" class="edge">
<title>Node15&#45;&gt;Node16</title>
<path fill="none" stroke="midnightblue" d="M489.23,-336.66C500.84,-336.66 512.7,-336.66 524.02,-336.66"/>
<polygon fill="midnightblue" stroke="midnightblue" points="524.24,-340.16 534.24,-336.66 524.24,-333.16 524.24,-340.16"/>
</g>
</g>
</svg>
