<?xml version="1.0" encoding="UTF-8" standalone="no"?>
<!DOCTYPE svg PUBLIC "-//W3C//DTD SVG 1.1//EN"
 "http://www.w3.org/Graphics/SVG/1.1/DTD/svg11.dtd">
<!-- Generated by graphviz version 2.43.0 (0)
 -->
<!-- Title: Tutorial::run_tutorial Pages: 1 -->
<svg width="1517pt" height="609pt"
 viewBox="0.00 0.00 1517.00 608.50" xmlns="http://www.w3.org/2000/svg" xmlns:xlink="http://www.w3.org/1999/xlink">
<g id="graph0" class="graph" transform="scale(1 1) rotate(0) translate(4 604.5)">
<title>Tutorial::run_tutorial</title>
<polygon fill="white" stroke="transparent" points="-4,4 -4,-604.5 1513,-604.5 1513,4 -4,4"/>
<!-- Node1 -->
<g id="node1" class="node">
<title>Node1</title>
<g id="a_node1"><a xlink:title="Runs tutorial.">
<polygon fill="#bfbfbf" stroke="black" points="0,-429 0,-448 115,-448 115,-429 0,-429"/>
<text text-anchor="middle" x="57.5" y="-436" font-family="Helvetica,sans-Serif" font-size="10.00">Tutorial::run_tutorial</text>
</a>
</g>
</g>
<!-- Node2 -->
<g id="node2" class="node">
<title>Node2</title>
<g id="a_node2"><a xlink:href="classTutorial.html#a2b7e25945919ea942aa6cfbd5793a1ec" target="_top" xlink:title="Prints menu.">
<polygon fill="white" stroke="black" points="155,-467 155,-486 269,-486 269,-467 155,-467"/>
<text text-anchor="middle" x="212" y="-474" font-family="Helvetica,sans-Serif" font-size="10.00">Tutorial::print_menu</text>
</a>
</g>
</g>
<!-- Node1&#45;&gt;Node2 -->
<g id="edge1" class="edge">
<title>Node1&#45;&gt;Node2</title>
<path fill="none" stroke="midnightblue" d="M96.98,-448.09C117.02,-453.08 141.7,-459.23 162.98,-464.53"/>
<polygon fill="midnightblue" stroke="midnightblue" points="162.24,-467.96 172.79,-466.98 163.94,-461.17 162.24,-467.96"/>
</g>
<!-- Node3 -->
<g id="node3" class="node">
<title>Node3</title>
<g id="a_node3"><a xlink:href="classBoard.html#a382adb3c5a58002b201993ebc7279789" target="_top" xlink:title="Resets the board.">
<polygon fill="white" stroke="black" points="157.5,-429 157.5,-448 266.5,-448 266.5,-429 157.5,-429"/>
<text text-anchor="middle" x="212" y="-436" font-family="Helvetica,sans-Serif" font-size="10.00">Board::reset_board</text>
</a>
</g>
</g>
<!-- Node1&#45;&gt;Node3 -->
<g id="edge2" class="edge">
<title>Node1&#45;&gt;Node3</title>
<path fill="none" stroke="midnightblue" d="M115.29,-438.5C125.75,-438.5 136.73,-438.5 147.38,-438.5"/>
<polygon fill="midnightblue" stroke="midnightblue" points="147.45,-442 157.45,-438.5 147.45,-435 147.45,-442"/>
</g>
<!-- Node4 -->
<g id="node4" class="node">
<title>Node4</title>
<g id="a_node4"><a xlink:href="classTutorial.html#ad4a5c074281c25791323e984dba390f2" target="_top" xlink:title="Start tutorial.">
<polygon fill="white" stroke="black" points="151,-391 151,-410 273,-410 273,-391 151,-391"/>
<text text-anchor="middle" x="212" y="-398" font-family="Helvetica,sans-Serif" font-size="10.00">Tutorial::start_tutorial</text>
</a>
</g>
</g>
<!-- Node1&#45;&gt;Node4 -->
<g id="edge3" class="edge">
<title>Node1&#45;&gt;Node4</title>
<path fill="none" stroke="midnightblue" d="M96.98,-428.91C117.02,-423.92 141.7,-417.77 162.98,-412.47"/>
<polygon fill="midnightblue" stroke="midnightblue" points="163.94,-415.83 172.79,-410.02 162.24,-409.04 163.94,-415.83"/>
</g>
<!-- Node5 -->
<g id="node5" class="node">
<title>Node5</title>
<g id="a_node5"><a xlink:href="classPlayer.html#a962ed5b79d46a442c2a933bfde0f9ce1" target="_top" xlink:title="Fill pieces on chess board.">
<polygon fill="white" stroke="black" points="324.5,-429 324.5,-448 426.5,-448 426.5,-429 324.5,-429"/>
<text text-anchor="middle" x="375.5" y="-436" font-family="Helvetica,sans-Serif" font-size="10.00">Player::fill_pieces</text>
</a>
</g>
</g>
<!-- Node4&#45;&gt;Node5 -->
<g id="edge4" class="edge">
<title>Node4&#45;&gt;Node5</title>
<path fill="none" stroke="midnightblue" d="M253.75,-410.09C275.16,-415.13 301.59,-421.34 324.25,-426.68"/>
<polygon fill="midnightblue" stroke="midnightblue" points="323.5,-430.1 334.04,-428.98 325.11,-423.28 323.5,-430.1"/>
</g>
<!-- Node6 -->
<g id="node6" class="node">
<title>Node6</title>
<g id="a_node6"><a xlink:href="classApplication.html#aa0cd4150071d630bd7b1f067878f00cd" target="_top" xlink:title="Starts and handles game.">
<polygon fill="white" stroke="black" points="323,-391 323,-410 428,-410 428,-391 323,-391"/>
<text text-anchor="middle" x="375.5" y="-398" font-family="Helvetica,sans-Serif" font-size="10.00">Application::game</text>
</a>
</g>
</g>
<!-- Node4&#45;&gt;Node6 -->
<g id="edge5" class="edge">
<title>Node4&#45;&gt;Node6</title>
<path fill="none" stroke="midnightblue" d="M273.14,-400.5C286.02,-400.5 299.64,-400.5 312.59,-400.5"/>
<polygon fill="midnightblue" stroke="midnightblue" points="312.8,-404 322.8,-400.5 312.8,-397 312.8,-404"/>
</g>
<!-- Node45 -->
<g id="node44" class="node">
<title>Node45</title>
<g id="a_node44"><a xlink:href="classFile__manager.html#ade44f79bfec1810354a04dc1829aa2a3" target="_top" xlink:title="Opens file.">
<polygon fill="white" stroke="black" points="309,-225 309,-244 442,-244 442,-225 309,-225"/>
<text text-anchor="middle" x="375.5" y="-232" font-family="Helvetica,sans-Serif" font-size="10.00">File_manager::open_file</text>
</a>
</g>
</g>
<!-- Node4&#45;&gt;Node45 -->
<g id="edge57" class="edge">
<title>Node4&#45;&gt;Node45</title>
<path fill="none" stroke="midnightblue" d="M222.62,-390.61C249.27,-363.22 324.33,-286.07 357.9,-251.56"/>
<polygon fill="midnightblue" stroke="midnightblue" points="360.67,-253.74 365.13,-244.13 355.65,-248.85 360.67,-253.74"/>
</g>
<!-- Node7 -->
<g id="node7" class="node">
<title>Node7</title>
<g id="a_node7"><a xlink:href="classApplication.html#a50559888cd4196c7cda01e0a432d609f" target="_top" xlink:title="Changes turn of game.">
<polygon fill="white" stroke="black" points="502.5,-254.5 502.5,-284.5 615.5,-284.5 615.5,-254.5 502.5,-254.5"/>
<text text-anchor="start" x="510.5" y="-272.5" font-family="Helvetica,sans-Serif" font-size="10.00">Application::change</text>
<text text-anchor="middle" x="559" y="-261.5" font-family="Helvetica,sans-Serif" font-size="10.00">_turns</text>
</a>
</g>
</g>
<!-- Node6&#45;&gt;Node7 -->
<g id="edge6" class="edge">
<title>Node6&#45;&gt;Node7</title>
<path fill="none" stroke="midnightblue" d="M383.17,-390.74C397.85,-369.96 435.12,-321.08 478,-294.5 482.64,-291.62 487.63,-289.06 492.78,-286.76"/>
<polygon fill="midnightblue" stroke="midnightblue" points="494.24,-289.95 502.17,-282.93 491.59,-283.47 494.24,-289.95"/>
</g>
<!-- Node27 -->
<g id="node27" class="node">
<title>Node27</title>
<g id="a_node27"><a xlink:href="classGameRules.html#a8d006d25138133af6fa938c758b2d12f" target="_top" xlink:title="Checks if the dead position applies.">
<polygon fill="white" stroke="black" points="485.5,-467 485.5,-486 632.5,-486 632.5,-467 485.5,-467"/>
<text text-anchor="middle" x="559" y="-474" font-family="Helvetica,sans-Serif" font-size="10.00">GameRules::dead_position</text>
</a>
</g>
</g>
<!-- Node6&#45;&gt;Node27 -->
<g id="edge37" class="edge">
<title>Node6&#45;&gt;Node27</title>
<path fill="none" stroke="midnightblue" d="M421.54,-410.11C428.66,-412.59 435.73,-415.68 442,-419.5 461.87,-431.61 457.84,-445.88 478,-457.5 481.86,-459.73 485.97,-461.69 490.21,-463.43"/>
<polygon fill="midnightblue" stroke="midnightblue" points="489.06,-466.73 499.65,-466.87 491.46,-460.15 489.06,-466.73"/>
</g>
<!-- Node28 -->
<g id="node28" class="node">
<title>Node28</title>
<g id="a_node28"><a xlink:href="classPlayer.html#a4d6bbea149ca89248c006c2a0ca140b6" target="_top" xlink:title="Delete piece from pieces_pos_.">
<polygon fill="white" stroke="black" points="501,-429 501,-448 617,-448 617,-429 501,-429"/>
<text text-anchor="middle" x="559" y="-436" font-family="Helvetica,sans-Serif" font-size="10.00">Player::delete_piece</text>
</a>
</g>
</g>
<!-- Node6&#45;&gt;Node28 -->
<g id="edge38" class="edge">
<title>Node6&#45;&gt;Node28</title>
<path fill="none" stroke="midnightblue" d="M422.3,-410.09C446.68,-415.19 476.86,-421.51 502.56,-426.89"/>
<polygon fill="midnightblue" stroke="midnightblue" points="502.02,-430.36 512.53,-428.98 503.46,-423.5 502.02,-430.36"/>
</g>
<!-- Node29 -->
<g id="node29" class="node">
<title>Node29</title>
<g id="a_node29"><a xlink:href="classGameRules.html#aa6f8bc3fd2c7b8fa5dba8dfd241d7740" target="_top" xlink:title="Checks if the half&#45;move rules applies.">
<polygon fill="white" stroke="black" points="491,-391 491,-410 627,-410 627,-391 491,-391"/>
<text text-anchor="middle" x="559" y="-398" font-family="Helvetica,sans-Serif" font-size="10.00">GameRules::half_moves</text>
</a>
</g>
</g>
<!-- Node6&#45;&gt;Node29 -->
<g id="edge39" class="edge">
<title>Node6&#45;&gt;Node29</title>
<path fill="none" stroke="midnightblue" d="M428.03,-400.5C444.32,-400.5 462.71,-400.5 480.41,-400.5"/>
<polygon fill="midnightblue" stroke="midnightblue" points="480.73,-404 490.73,-400.5 480.73,-397 480.73,-404"/>
</g>
<!-- Node30 -->
<g id="node30" class="node">
<title>Node30</title>
<g id="a_node30"><a xlink:href="classBoard.html#aa96e4fef113d4a359baf359264c0cf3f" target="_top" xlink:title="Prints chess board.">
<polygon fill="white" stroke="black" points="505.5,-353 505.5,-372 612.5,-372 612.5,-353 505.5,-353"/>
<text text-anchor="middle" x="559" y="-360" font-family="Helvetica,sans-Serif" font-size="10.00">Board::print_board</text>
</a>
</g>
</g>
<!-- Node6&#45;&gt;Node30 -->
<g id="edge40" class="edge">
<title>Node6&#45;&gt;Node30</title>
<path fill="none" stroke="midnightblue" d="M422.3,-390.91C446.68,-385.81 476.86,-379.49 502.56,-374.11"/>
<polygon fill="midnightblue" stroke="midnightblue" points="503.46,-377.5 512.53,-372.02 502.02,-370.64 503.46,-377.5"/>
</g>
<!-- Node31 -->
<g id="node31" class="node">
<title>Node31</title>
<g id="a_node31"><a xlink:href="classApplication.html#aea645938276f66ddf06cbb04d6169502" target="_top" xlink:title="Prints result of game (checkmate, tie, pat, game not finished)">
<polygon fill="white" stroke="black" points="509,-303.5 509,-333.5 609,-333.5 609,-303.5 509,-303.5"/>
<text text-anchor="start" x="517" y="-321.5" font-family="Helvetica,sans-Serif" font-size="10.00">Application::print</text>
<text text-anchor="middle" x="559" y="-310.5" font-family="Helvetica,sans-Serif" font-size="10.00">_results</text>
</a>
</g>
</g>
<!-- Node6&#45;&gt;Node31 -->
<g id="edge41" class="edge">
<title>Node6&#45;&gt;Node31</title>
<path fill="none" stroke="midnightblue" d="M391.13,-390.99C410.42,-378.76 445.71,-357.43 478,-343.5 484.71,-340.61 491.86,-337.89 499.02,-335.38"/>
<polygon fill="midnightblue" stroke="midnightblue" points="500.39,-338.62 508.76,-332.11 498.16,-331.98 500.39,-338.62"/>
</g>
<!-- Node32 -->
<g id="node32" class="node">
<title>Node32</title>
<g id="a_node32"><a xlink:href="classFile__manager.html#a0b0b101cb1941cba0e51a2c6dea0919b" target="_top" xlink:title="Saves file.">
<polygon fill="white" stroke="black" points="493,-216 493,-235 625,-235 625,-216 493,-216"/>
<text text-anchor="middle" x="559" y="-223" font-family="Helvetica,sans-Serif" font-size="10.00">File_manager::save_file</text>
</a>
</g>
</g>
<!-- Node6&#45;&gt;Node32 -->
<g id="edge42" class="edge">
<title>Node6&#45;&gt;Node32</title>
<path fill="none" stroke="midnightblue" d="M379.97,-390.68C390.23,-363.11 423.21,-284.45 478,-245.5 481.32,-243.14 484.89,-241.06 488.61,-239.22"/>
<polygon fill="midnightblue" stroke="midnightblue" points="490.31,-242.3 498.12,-235.14 487.55,-235.87 490.31,-242.3"/>
</g>
<!-- Node41 -->
<g id="node40" class="node">
<title>Node41</title>
<g id="a_node40"><a xlink:href="classGameRules.html#a515085ec1bb0e6ea5c2d12664ec7fc10" target="_top" xlink:title="Checks if the stalemate rule applies.">
<polygon fill="white" stroke="black" points="685,-505 685,-524 813,-524 813,-505 685,-505"/>
<text text-anchor="middle" x="749" y="-512" font-family="Helvetica,sans-Serif" font-size="10.00">GameRules::stalemate</text>
</a>
</g>
</g>
<!-- Node6&#45;&gt;Node41 -->
<g id="edge50" class="edge">
<title>Node6&#45;&gt;Node41</title>
<path fill="none" stroke="midnightblue" d="M426.39,-410.01C432.04,-412.48 437.4,-415.59 442,-419.5 470.46,-443.73 447.14,-474.42 478,-495.5 541.87,-539.14 635.24,-534.51 693.76,-525.65"/>
<polygon fill="midnightblue" stroke="midnightblue" points="694.6,-529.06 703.92,-524.01 693.49,-522.15 694.6,-529.06"/>
</g>
<!-- Node43 -->
<g id="node42" class="node">
<title>Node43</title>
<g id="a_node42"><a xlink:href="classGameRules.html#acbd44f6245c7a7fb0ddf2a7b0fffc923" target="_top" xlink:title="Checks if the threefold repetition rule applies.">
<polygon fill="white" stroke="black" points="497.5,-581 497.5,-600 620.5,-600 620.5,-581 497.5,-581"/>
<text text-anchor="middle" x="559" y="-588" font-family="Helvetica,sans-Serif" font-size="10.00">GameRules::threefold</text>
</a>
</g>
</g>
<!-- Node6&#45;&gt;Node43 -->
<g id="edge55" class="edge">
<title>Node6&#45;&gt;Node43</title>
<path fill="none" stroke="midnightblue" d="M428.2,-409.59C433.33,-412.14 438.08,-415.38 442,-419.5 489.85,-469.8 428.92,-522.39 478,-571.5 481.07,-574.57 484.53,-577.17 488.25,-579.39"/>
<polygon fill="midnightblue" stroke="midnightblue" points="486.84,-582.59 497.36,-583.86 489.93,-576.31 486.84,-582.59"/>
</g>
<!-- Node44 -->
<g id="node43" class="node">
<title>Node44</title>
<g id="a_node43"><a xlink:href="classGameRules.html#a07b29e4691299df2cfe680af7a59262b" target="_top" xlink:title=" ">
<polygon fill="white" stroke="black" points="478,-543 478,-562 640,-562 640,-543 478,-543"/>
<text text-anchor="middle" x="559" y="-550" font-family="Helvetica,sans-Serif" font-size="10.00">GameRules::update_threefold</text>
</a>
</g>
</g>
<!-- Node6&#45;&gt;Node44 -->
<g id="edge56" class="edge">
<title>Node6&#45;&gt;Node44</title>
<path fill="none" stroke="midnightblue" d="M428.18,-410.09C433.25,-412.55 437.99,-415.64 442,-419.5 478.73,-454.91 441.43,-492.92 478,-528.5 482.03,-532.42 486.67,-535.7 491.65,-538.45"/>
<polygon fill="midnightblue" stroke="midnightblue" points="490.37,-541.72 500.91,-542.84 493.37,-535.39 490.37,-541.72"/>
</g>
<!-- Node8 -->
<g id="node8" class="node">
<title>Node8</title>
<g id="a_node8"><a xlink:href="classApplication.html#a162a3f466352b474a10516c7f0b0ae9a" target="_top" xlink:title=" ">
<polygon fill="white" stroke="black" points="683.5,-334 683.5,-353 814.5,-353 814.5,-334 683.5,-334"/>
<text text-anchor="middle" x="749" y="-341" font-family="Helvetica,sans-Serif" font-size="10.00">Application::play_move</text>
</a>
</g>
</g>
<!-- Node7&#45;&gt;Node8 -->
<g id="edge7" class="edge">
<title>Node7&#45;&gt;Node8</title>
<path fill="none" stroke="midnightblue" d="M611.53,-284.58C621.07,-287.66 630.89,-291.03 640,-294.5 667.53,-305 698.02,-319.07 719.57,-329.44"/>
<polygon fill="midnightblue" stroke="midnightblue" points="718.27,-332.7 728.79,-333.92 721.33,-326.4 718.27,-332.7"/>
</g>
<!-- Node9 -->
<g id="node9" class="node">
<title>Node9</title>
<g id="a_node9"><a xlink:href="classRules.html#abd9b013ebba58f9757336a20b2c6bf8e" target="_top" xlink:title="Checks if king is in check.">
<polygon fill="white" stroke="black" points="1034,-543 1034,-562 1123,-562 1123,-543 1034,-543"/>
<text text-anchor="middle" x="1078.5" y="-550" font-family="Helvetica,sans-Serif" font-size="10.00">Rules::checked</text>
</a>
</g>
</g>
<!-- Node8&#45;&gt;Node9 -->
<g id="edge8" class="edge">
<title>Node8&#45;&gt;Node9</title>
<path fill="none" stroke="midnightblue" d="M754.13,-353.34C769.35,-389.09 823.18,-511.18 858,-533.5 907.35,-565.14 976.28,-565.71 1023.66,-561.06"/>
<polygon fill="midnightblue" stroke="midnightblue" points="1024.16,-564.53 1033.72,-559.97 1023.4,-557.57 1024.16,-564.53"/>
</g>
<!-- Node13 -->
<g id="node13" class="node">
<title>Node13</title>
<g id="a_node13"><a xlink:href="classRules.html#a4ec21c1bd51c73135ed26eafa0da58d3" target="_top" xlink:title="Checks if king is in checkmate.">
<polygon fill="white" stroke="black" points="864.5,-429 864.5,-448 968.5,-448 968.5,-429 864.5,-429"/>
<text text-anchor="middle" x="916.5" y="-436" font-family="Helvetica,sans-Serif" font-size="10.00">Rules::checkmate</text>
</a>
</g>
</g>
<!-- Node8&#45;&gt;Node13 -->
<g id="edge12" class="edge">
<title>Node8&#45;&gt;Node13</title>
<path fill="none" stroke="midnightblue" d="M762.82,-353.06C782.56,-367.53 821.94,-395.33 858,-414.5 865.12,-418.28 872.97,-421.9 880.52,-425.12"/>
<polygon fill="midnightblue" stroke="midnightblue" points="879.26,-428.39 889.84,-428.98 881.94,-421.92 879.26,-428.39"/>
</g>
<!-- Node14 -->
<g id="node14" class="node">
<title>Node14</title>
<g id="a_node14"><a xlink:href="classMove.html#a3765dcce8a7c18e0c2f7ce42c98fa2ba" target="_top" xlink:title="Makes move with piece.">
<polygon fill="white" stroke="black" points="1023.5,-353 1023.5,-372 1133.5,-372 1133.5,-353 1023.5,-353"/>
<text text-anchor="middle" x="1078.5" y="-360" font-family="Helvetica,sans-Serif" font-size="10.00">Move::make_move</text>
</a>
</g>
</g>
<!-- Node8&#45;&gt;Node14 -->
<g id="edge33" class="edge">
<title>Node8&#45;&gt;Node14</title>
<path fill="none" stroke="midnightblue" d="M814.7,-347.25C872.21,-350.59 955.82,-355.44 1013.2,-358.77"/>
<polygon fill="midnightblue" stroke="midnightblue" points="1013.05,-362.27 1023.24,-359.35 1013.46,-355.28 1013.05,-362.27"/>
</g>
<!-- Node20 -->
<g id="node20" class="node">
<title>Node20</title>
<g id="a_node20"><a xlink:href="classMove.html#afbed08d3294e3c7913dd27c3d6afd283" target="_top" xlink:title="Undo move.">
<polygon fill="white" stroke="black" points="1025,-315 1025,-334 1132,-334 1132,-315 1025,-315"/>
<text text-anchor="middle" x="1078.5" y="-322" font-family="Helvetica,sans-Serif" font-size="10.00">Move::undo_move</text>
</a>
</g>
</g>
<!-- Node8&#45;&gt;Node20 -->
<g id="edge35" class="edge">
<title>Node8&#45;&gt;Node20</title>
<path fill="none" stroke="midnightblue" d="M814.7,-339.75C872.74,-336.38 957.35,-331.47 1014.77,-328.14"/>
<polygon fill="midnightblue" stroke="midnightblue" points="1015.03,-331.63 1024.81,-327.56 1014.62,-324.64 1015.03,-331.63"/>
</g>
<!-- Node21 -->
<g id="node21" class="node">
<title>Node21</title>
<g id="a_node21"><a xlink:href="classValidate.html#afe077c5b0107ffc1c42670e233257b9c" target="_top" xlink:title="Validates move.">
<polygon fill="white" stroke="black" points="1011,-429 1011,-448 1146,-448 1146,-429 1011,-429"/>
<text text-anchor="middle" x="1078.5" y="-436" font-family="Helvetica,sans-Serif" font-size="10.00">Validate::validate_move</text>
</a>
</g>
</g>
<!-- Node8&#45;&gt;Node21 -->
<g id="edge36" class="edge">
<title>Node8&#45;&gt;Node21</title>
<path fill="none" stroke="midnightblue" d="M782.9,-353.04C842.61,-370.36 968.74,-406.95 1034.92,-426.15"/>
<polygon fill="midnightblue" stroke="midnightblue" points="1034.04,-429.54 1044.62,-428.96 1035.99,-422.81 1034.04,-429.54"/>
</g>
<!-- Node25 -->
<g id="node25" class="node">
<title>Node25</title>
<g id="a_node25"><a xlink:href="classPlayer.html#afca2a1d6d42d2f3a04abb9ab5bc3d323" target="_top" xlink:title="Gets player&#39;s move.">
<polygon fill="white" stroke="black" points="865.5,-277 865.5,-296 967.5,-296 967.5,-277 865.5,-277"/>
<text text-anchor="middle" x="916.5" y="-284" font-family="Helvetica,sans-Serif" font-size="10.00">Player::get_move</text>
</a>
</g>
</g>
<!-- Node8&#45;&gt;Node25 -->
<g id="edge32" class="edge">
<title>Node8&#45;&gt;Node25</title>
<path fill="none" stroke="midnightblue" d="M777.7,-333.96C805.15,-324.51 847.38,-309.96 877.86,-299.46"/>
<polygon fill="midnightblue" stroke="midnightblue" points="879.39,-302.64 887.71,-296.07 877.11,-296.02 879.39,-302.64"/>
</g>
<!-- Node26 -->
<g id="node26" class="node">
<title>Node26</title>
<g id="a_node26"><a xlink:href="classApplication.html#afef57a39fdd32b4c10464d8a9d979816" target="_top" xlink:title="Prints who plays next.">
<polygon fill="white" stroke="black" points="866.5,-227.5 866.5,-257.5 966.5,-257.5 966.5,-227.5 866.5,-227.5"/>
<text text-anchor="start" x="874.5" y="-245.5" font-family="Helvetica,sans-Serif" font-size="10.00">Application::print</text>
<text text-anchor="middle" x="916.5" y="-234.5" font-family="Helvetica,sans-Serif" font-size="10.00">_color</text>
</a>
</g>
</g>
<!-- Node8&#45;&gt;Node26 -->
<g id="edge34" class="edge">
<title>Node8&#45;&gt;Node26</title>
<path fill="none" stroke="midnightblue" d="M767.73,-333.84C782.66,-325.44 804.34,-312.58 822,-299.5 839.2,-286.76 839.96,-279.02 858,-267.5 860.93,-265.63 864.03,-263.83 867.2,-262.12"/>
<polygon fill="midnightblue" stroke="midnightblue" points="868.93,-265.18 876.28,-257.55 865.78,-258.92 868.93,-265.18"/>
</g>
<!-- Node10 -->
<g id="node10" class="node">
<title>Node10</title>
<g id="a_node10"><a xlink:href="classValidate.html#a3e4b7f61bff7ee9d7d839ead34d2d61f" target="_top" xlink:title="Checks if square is empty.">
<polygon fill="white" stroke="black" points="1389.5,-524 1389.5,-543 1496.5,-543 1496.5,-524 1389.5,-524"/>
<text text-anchor="middle" x="1443" y="-531" font-family="Helvetica,sans-Serif" font-size="10.00">Validate::is_empty</text>
</a>
</g>
</g>
<!-- Node9&#45;&gt;Node10 -->
<g id="edge9" class="edge">
<title>Node9&#45;&gt;Node10</title>
<path fill="none" stroke="midnightblue" d="M1123.23,-550.21C1187.07,-546.86 1306.15,-540.62 1379.31,-536.79"/>
<polygon fill="midnightblue" stroke="midnightblue" points="1379.52,-540.28 1389.32,-536.26 1379.15,-533.29 1379.52,-540.28"/>
</g>
<!-- Node11 -->
<g id="node11" class="node">
<title>Node11</title>
<g id="a_node11"><a xlink:href="classValidate.html#ab5ba0f592c1cd28a57deab9ef608f2df" target="_top" xlink:title="Checks if piece is same color as player.">
<polygon fill="white" stroke="black" points="1377,-571 1377,-590 1509,-590 1509,-571 1377,-571"/>
<text text-anchor="middle" x="1443" y="-578" font-family="Helvetica,sans-Serif" font-size="10.00">Validate::is_same_color</text>
</a>
</g>
</g>
<!-- Node9&#45;&gt;Node11 -->
<g id="edge10" class="edge">
<title>Node9&#45;&gt;Node11</title>
<path fill="none" stroke="midnightblue" d="M1123.23,-555.88C1183.57,-560.54 1293.23,-569.01 1366.86,-574.7"/>
<polygon fill="midnightblue" stroke="midnightblue" points="1366.76,-578.2 1377,-575.48 1367.29,-571.22 1366.76,-578.2"/>
</g>
<!-- Node12 -->
<g id="node12" class="node">
<title>Node12</title>
<g id="a_node12"><a xlink:href="classValidate.html#a50364e1735875d1d74e7eb251b3fd7e5" target="_top" xlink:title="Validates position.">
<polygon fill="white" stroke="black" points="1196,-505 1196,-524 1327,-524 1327,-505 1196,-505"/>
<text text-anchor="middle" x="1261.5" y="-512" font-family="Helvetica,sans-Serif" font-size="10.00">Validate::valid_position</text>
</a>
</g>
</g>
<!-- Node9&#45;&gt;Node12 -->
<g id="edge11" class="edge">
<title>Node9&#45;&gt;Node12</title>
<path fill="none" stroke="midnightblue" d="M1123.32,-543.3C1147.99,-538.12 1179.05,-531.6 1205.37,-526.08"/>
<polygon fill="midnightblue" stroke="midnightblue" points="1206.13,-529.49 1215.2,-524.01 1204.69,-522.64 1206.13,-529.49"/>
</g>
<!-- Node13&#45;&gt;Node9 -->
<g id="edge13" class="edge">
<title>Node13&#45;&gt;Node9</title>
<path fill="none" stroke="midnightblue" d="M930.87,-448.02C958.44,-467.67 1021.88,-512.87 1055.56,-536.87"/>
<polygon fill="midnightblue" stroke="midnightblue" points="1053.66,-539.81 1063.83,-542.76 1057.72,-534.11 1053.66,-539.81"/>
</g>
<!-- Node13&#45;&gt;Node12 -->
<g id="edge25" class="edge">
<title>Node13&#45;&gt;Node12</title>
<path fill="none" stroke="midnightblue" d="M960.59,-448.05C1023.32,-461.95 1139.66,-487.72 1207.53,-502.76"/>
<polygon fill="midnightblue" stroke="midnightblue" points="1207.06,-506.24 1217.58,-504.99 1208.58,-499.41 1207.06,-506.24"/>
</g>
<!-- Node13&#45;&gt;Node14 -->
<g id="edge14" class="edge">
<title>Node13&#45;&gt;Node14</title>
<path fill="none" stroke="midnightblue" d="M937.76,-428.87C965.66,-415.63 1016.05,-391.69 1048.09,-376.47"/>
<polygon fill="midnightblue" stroke="midnightblue" points="1049.87,-379.5 1057.4,-372.05 1046.87,-373.18 1049.87,-379.5"/>
</g>
<!-- Node13&#45;&gt;Node20 -->
<g id="edge23" class="edge">
<title>Node13&#45;&gt;Node20</title>
<path fill="none" stroke="midnightblue" d="M924.29,-428.81C938.26,-409.6 972.2,-366.54 1011,-343.5 1014.66,-341.33 1018.58,-339.39 1022.62,-337.67"/>
<polygon fill="midnightblue" stroke="midnightblue" points="1024.09,-340.86 1032.19,-334.03 1021.6,-334.31 1024.09,-340.86"/>
</g>
<!-- Node13&#45;&gt;Node21 -->
<g id="edge26" class="edge">
<title>Node13&#45;&gt;Node21</title>
<path fill="none" stroke="midnightblue" d="M968.56,-438.5C978.86,-438.5 989.89,-438.5 1000.84,-438.5"/>
<polygon fill="midnightblue" stroke="midnightblue" points="1000.84,-442 1010.84,-438.5 1000.84,-435 1000.84,-442"/>
</g>
<!-- Node15 -->
<g id="node15" class="node">
<title>Node15</title>
<g id="a_node15"><a xlink:href="classPlayer.html#a42e54e616455af5d9d4b6dea514ba7a0" target="_top" xlink:title="Checks player&#39;s pawn promotion.">
<polygon fill="white" stroke="black" points="1199,-315 1199,-334 1324,-334 1324,-315 1199,-315"/>
<text text-anchor="middle" x="1261.5" y="-322" font-family="Helvetica,sans-Serif" font-size="10.00">Player::get_promotion</text>
</a>
</g>
</g>
<!-- Node14&#45;&gt;Node15 -->
<g id="edge15" class="edge">
<title>Node14&#45;&gt;Node15</title>
<path fill="none" stroke="midnightblue" d="M1125.17,-352.91C1149.49,-347.81 1179.58,-341.49 1205.21,-336.11"/>
<polygon fill="midnightblue" stroke="midnightblue" points="1206.09,-339.5 1215.15,-334.02 1204.65,-332.65 1206.09,-339.5"/>
</g>
<!-- Node16 -->
<g id="node16" class="node">
<title>Node16</title>
<g id="a_node16"><a xlink:href="classMove.html#a5472b83ec6bcde0fd8c16c4508896ccd" target="_top" xlink:title="Handles casting.">
<polygon fill="white" stroke="black" points="1198.5,-277 1198.5,-296 1324.5,-296 1324.5,-277 1198.5,-277"/>
<text text-anchor="middle" x="1261.5" y="-284" font-family="Helvetica,sans-Serif" font-size="10.00">Move::handle_castling</text>
</a>
</g>
</g>
<!-- Node14&#45;&gt;Node16 -->
<g id="edge16" class="edge">
<title>Node14&#45;&gt;Node16</title>
<path fill="none" stroke="midnightblue" d="M1125.22,-352.96C1132.45,-350.47 1139.64,-347.36 1146,-343.5 1165.89,-331.43 1161.87,-317.16 1182,-305.5 1185.86,-303.27 1189.97,-301.29 1194.21,-299.55"/>
<polygon fill="midnightblue" stroke="midnightblue" points="1195.47,-302.82 1203.66,-296.1 1193.06,-296.25 1195.47,-302.82"/>
</g>
<!-- Node17 -->
<g id="node17" class="node">
<title>Node17</title>
<g id="a_node17"><a xlink:href="classMove.html#a5a18864c15112c49e5a93dbee3f83d1c" target="_top" xlink:title="Moves piece from start to end.">
<polygon fill="white" stroke="black" points="1388.5,-258 1388.5,-277 1497.5,-277 1497.5,-258 1388.5,-258"/>
<text text-anchor="middle" x="1443" y="-265" font-family="Helvetica,sans-Serif" font-size="10.00">Move::move_piece</text>
</a>
</g>
</g>
<!-- Node14&#45;&gt;Node17 -->
<g id="edge18" class="edge">
<title>Node14&#45;&gt;Node17</title>
<path fill="none" stroke="midnightblue" d="M1130.49,-352.93C1136.09,-350.47 1141.42,-347.38 1146,-343.5 1174.51,-319.33 1150.42,-287.49 1182,-267.5 1249.37,-224.87 1347.53,-241.06 1401.94,-255.2"/>
<polygon fill="midnightblue" stroke="midnightblue" points="1401.32,-258.66 1411.89,-257.89 1403.15,-251.9 1401.32,-258.66"/>
</g>
<!-- Node18 -->
<g id="node18" class="node">
<title>Node18</title>
<g id="a_node18"><a xlink:href="classMove.html#a9a242db5d52827dd11f81a6aa46e339e" target="_top" xlink:title="Handles pawn promotion.">
<polygon fill="white" stroke="black" points="1211.5,-353 1211.5,-372 1311.5,-372 1311.5,-353 1211.5,-353"/>
<text text-anchor="middle" x="1261.5" y="-360" font-family="Helvetica,sans-Serif" font-size="10.00">Move::promotion</text>
</a>
</g>
</g>
<!-- Node14&#45;&gt;Node18 -->
<g id="edge19" class="edge">
<title>Node14&#45;&gt;Node18</title>
<path fill="none" stroke="midnightblue" d="M1133.81,-362.5C1155.11,-362.5 1179.62,-362.5 1201.37,-362.5"/>
<polygon fill="midnightblue" stroke="midnightblue" points="1201.47,-366 1211.47,-362.5 1201.47,-359 1201.47,-366"/>
</g>
<!-- Node19 -->
<g id="node19" class="node">
<title>Node19</title>
<g id="a_node19"><a xlink:href="classPlayer.html#a620bf4cb1907eafdbcd9252a750ffa8f" target="_top" xlink:title="Update piece&#39;s position on chess board.">
<polygon fill="white" stroke="black" points="1381,-372 1381,-391 1505,-391 1505,-372 1381,-372"/>
<text text-anchor="middle" x="1443" y="-379" font-family="Helvetica,sans-Serif" font-size="10.00">Player::update_pieces</text>
</a>
</g>
</g>
<!-- Node14&#45;&gt;Node19 -->
<g id="edge22" class="edge">
<title>Node14&#45;&gt;Node19</title>
<path fill="none" stroke="midnightblue" d="M1121.15,-372.01C1139.67,-375.78 1161.81,-379.64 1182,-381.5 1245.63,-387.35 1318.39,-386.73 1370.73,-385.01"/>
<polygon fill="midnightblue" stroke="midnightblue" points="1371.05,-388.5 1380.92,-384.65 1370.8,-381.5 1371.05,-388.5"/>
</g>
<!-- Node16&#45;&gt;Node17 -->
<g id="edge17" class="edge">
<title>Node16&#45;&gt;Node17</title>
<path fill="none" stroke="midnightblue" d="M1324.53,-279.93C1341.89,-278.1 1360.79,-276.1 1378.26,-274.25"/>
<polygon fill="midnightblue" stroke="midnightblue" points="1378.77,-277.71 1388.35,-273.18 1378.04,-270.75 1378.77,-277.71"/>
</g>
<!-- Node18&#45;&gt;Node17 -->
<g id="edge20" class="edge">
<title>Node18&#45;&gt;Node17</title>
<path fill="none" stroke="midnightblue" d="M1311.72,-353.85C1321.67,-351.2 1331.87,-347.81 1341,-343.5 1373.49,-328.15 1405.75,-301.34 1424.77,-284.01"/>
<polygon fill="midnightblue" stroke="midnightblue" points="1427.36,-286.38 1432.3,-277.01 1422.6,-281.25 1427.36,-286.38"/>
</g>
<!-- Node18&#45;&gt;Node19 -->
<g id="edge21" class="edge">
<title>Node18&#45;&gt;Node19</title>
<path fill="none" stroke="midnightblue" d="M1311.55,-367.69C1329.84,-369.63 1351,-371.87 1370.88,-373.97"/>
<polygon fill="midnightblue" stroke="midnightblue" points="1370.51,-377.45 1380.82,-375.02 1371.25,-370.49 1370.51,-377.45"/>
</g>
<!-- Node20&#45;&gt;Node17 -->
<g id="edge24" class="edge">
<title>Node20&#45;&gt;Node17</title>
<path fill="none" stroke="midnightblue" d="M1086.37,-314.98C1101.18,-295.38 1138.34,-250.95 1182,-234.5 1260.44,-204.95 1360.62,-235.02 1410.64,-254.2"/>
<polygon fill="midnightblue" stroke="midnightblue" points="1409.37,-257.46 1419.95,-257.87 1411.93,-250.95 1409.37,-257.46"/>
</g>
<!-- Node22 -->
<g id="node22" class="node">
<title>Node22</title>
<g id="a_node22"><a xlink:href="classValidate.html#ac11fdbf661a340f903a8a8b581710c34" target="_top" xlink:title="Finds all possible moves for piece.">
<polygon fill="white" stroke="black" points="1182,-467 1182,-486 1341,-486 1341,-467 1182,-467"/>
<text text-anchor="middle" x="1261.5" y="-474" font-family="Helvetica,sans-Serif" font-size="10.00">Validate::find_possible_move</text>
</a>
</g>
</g>
<!-- Node21&#45;&gt;Node22 -->
<g id="edge27" class="edge">
<title>Node21&#45;&gt;Node22</title>
<path fill="none" stroke="midnightblue" d="M1125.17,-448.09C1149.49,-453.19 1179.58,-459.51 1205.21,-464.89"/>
<polygon fill="midnightblue" stroke="midnightblue" points="1204.65,-468.35 1215.15,-466.98 1206.09,-461.5 1204.65,-468.35"/>
</g>
<!-- Node24 -->
<g id="node24" class="node">
<title>Node24</title>
<g id="a_node24"><a xlink:href="classValidate.html#a6c88b44fd5d40b6aba0812e2d23d8f04" target="_top" xlink:title="Checks if castling is valid.">
<polygon fill="white" stroke="black" points="1196.5,-429 1196.5,-448 1326.5,-448 1326.5,-429 1196.5,-429"/>
<text text-anchor="middle" x="1261.5" y="-436" font-family="Helvetica,sans-Serif" font-size="10.00">Validate::valid_castling</text>
</a>
</g>
</g>
<!-- Node21&#45;&gt;Node24 -->
<g id="edge31" class="edge">
<title>Node21&#45;&gt;Node24</title>
<path fill="none" stroke="midnightblue" d="M1146.13,-438.5C1159.22,-438.5 1173.03,-438.5 1186.35,-438.5"/>
<polygon fill="midnightblue" stroke="midnightblue" points="1186.42,-442 1196.42,-438.5 1186.42,-435 1186.42,-442"/>
</g>
<!-- Node22&#45;&gt;Node10 -->
<g id="edge29" class="edge">
<title>Node22&#45;&gt;Node10</title>
<path fill="none" stroke="midnightblue" d="M1305.95,-486.01C1317.42,-488.8 1329.74,-492.03 1341,-495.5 1364.28,-502.67 1389.97,-512.36 1409.61,-520.16"/>
<polygon fill="midnightblue" stroke="midnightblue" points="1408.43,-523.45 1419.01,-523.93 1411.03,-516.96 1408.43,-523.45"/>
</g>
<!-- Node22&#45;&gt;Node11 -->
<g id="edge30" class="edge">
<title>Node22&#45;&gt;Node11</title>
<path fill="none" stroke="midnightblue" d="M1323.33,-486.13C1329.61,-488.59 1335.65,-491.66 1341,-495.5 1365.34,-512.97 1354.22,-533.03 1377,-552.5 1383.79,-558.3 1391.96,-563.06 1400.18,-566.91"/>
<polygon fill="midnightblue" stroke="midnightblue" points="1398.84,-570.15 1409.41,-570.87 1401.6,-563.71 1398.84,-570.15"/>
</g>
<!-- Node23 -->
<g id="node23" class="node">
<title>Node23</title>
<g id="a_node23"><a xlink:href="classValidate.html#aa7766a323b9443c69e62a05d04f0b217" target="_top" xlink:title="Finds if move is legit.">
<polygon fill="white" stroke="black" points="1386.5,-467 1386.5,-486 1499.5,-486 1499.5,-467 1386.5,-467"/>
<text text-anchor="middle" x="1443" y="-474" font-family="Helvetica,sans-Serif" font-size="10.00">Validate::find_move</text>
</a>
</g>
</g>
<!-- Node22&#45;&gt;Node23 -->
<g id="edge28" class="edge">
<title>Node22&#45;&gt;Node23</title>
<path fill="none" stroke="midnightblue" d="M1341.23,-476.5C1352.84,-476.5 1364.7,-476.5 1376.02,-476.5"/>
<polygon fill="midnightblue" stroke="midnightblue" points="1376.24,-480 1386.24,-476.5 1376.24,-473 1376.24,-480"/>
</g>
<!-- Node33 -->
<g id="node33" class="node">
<title>Node33</title>
<g id="a_node33"><a xlink:href="classFile__manager.html#a700ed2e80892dd11ec00b150b991db71" target="_top" xlink:title="Checks if file name ends with .txt.">
<polygon fill="white" stroke="black" points="693,-259.5 693,-289.5 805,-289.5 805,-259.5 693,-259.5"/>
<text text-anchor="start" x="701" y="-277.5" font-family="Helvetica,sans-Serif" font-size="10.00">File_manager::ends</text>
<text text-anchor="middle" x="749" y="-266.5" font-family="Helvetica,sans-Serif" font-size="10.00">_with_txt</text>
</a>
</g>
</g>
<!-- Node32&#45;&gt;Node33 -->
<g id="edge43" class="edge">
<title>Node32&#45;&gt;Node33</title>
<path fill="none" stroke="midnightblue" d="M598.69,-235.03C611.82,-238.3 626.56,-242.02 640,-245.5 653.97,-249.12 668.94,-253.09 683.14,-256.89"/>
<polygon fill="midnightblue" stroke="midnightblue" points="682.26,-260.28 692.83,-259.49 684.08,-253.52 682.26,-260.28"/>
</g>
<!-- Node34 -->
<g id="node34" class="node">
<title>Node34</title>
<g id="a_node34"><a xlink:href="classFEN.html#a42da90e2b44ecb011e7ec0d86015dffd" target="_top" xlink:title="Gets FEN notation.">
<polygon fill="white" stroke="black" points="707.5,-172 707.5,-191 790.5,-191 790.5,-172 707.5,-172"/>
<text text-anchor="middle" x="749" y="-179" font-family="Helvetica,sans-Serif" font-size="10.00">FEN::get_FEN</text>
</a>
</g>
</g>
<!-- Node32&#45;&gt;Node34 -->
<g id="edge44" class="edge">
<title>Node32&#45;&gt;Node34</title>
<path fill="none" stroke="midnightblue" d="M600.79,-215.95C629.12,-209.32 667.07,-200.44 697.34,-193.36"/>
<polygon fill="midnightblue" stroke="midnightblue" points="698.35,-196.72 707.29,-191.03 696.75,-189.9 698.35,-196.72"/>
</g>
<!-- Node40 -->
<g id="node39" class="node">
<title>Node40</title>
<g id="a_node39"><a xlink:href="classFile__manager.html#a5492c26ed8d51b69935173acf8688e80" target="_top" xlink:title="List all files in directory.">
<polygon fill="white" stroke="black" points="697,-210.5 697,-240.5 801,-240.5 801,-210.5 697,-210.5"/>
<text text-anchor="start" x="705" y="-228.5" font-family="Helvetica,sans-Serif" font-size="10.00">File_manager::list</text>
<text text-anchor="middle" x="749" y="-217.5" font-family="Helvetica,sans-Serif" font-size="10.00">_directory</text>
</a>
</g>
</g>
<!-- Node32&#45;&gt;Node40 -->
<g id="edge49" class="edge">
<title>Node32&#45;&gt;Node40</title>
<path fill="none" stroke="midnightblue" d="M625.23,-225.5C645.18,-225.5 667.06,-225.5 686.74,-225.5"/>
<polygon fill="midnightblue" stroke="midnightblue" points="686.82,-229 696.82,-225.5 686.82,-222 686.82,-229"/>
</g>
<!-- Node35 -->
<g id="node35" class="node">
<title>Node35</title>
<g id="a_node35"><a xlink:href="classInput__handler.html#a7987d8ac8708c84676dd60936341bd8c" target="_top" xlink:title="Converts int to char.">
<polygon fill="white" stroke="black" points="865.5,-126.5 865.5,-156.5 967.5,-156.5 967.5,-126.5 865.5,-126.5"/>
<text text-anchor="start" x="873.5" y="-144.5" font-family="Helvetica,sans-Serif" font-size="10.00">Input_handler::int</text>
<text text-anchor="middle" x="916.5" y="-133.5" font-family="Helvetica,sans-Serif" font-size="10.00">_to_coordinates</text>
</a>
</g>
</g>
<!-- Node34&#45;&gt;Node35 -->
<g id="edge45" class="edge">
<title>Node34&#45;&gt;Node35</title>
<path fill="none" stroke="midnightblue" d="M789.64,-171.92C809.38,-167.15 833.65,-161.28 855.6,-155.98"/>
<polygon fill="midnightblue" stroke="midnightblue" points="856.6,-159.34 865.5,-153.58 854.96,-152.53 856.6,-159.34"/>
</g>
<!-- Node36 -->
<g id="node36" class="node">
<title>Node36</title>
<g id="a_node36"><a xlink:href="classFEN.html#aa59029cbcd63802d3dddd5523f3702e9" target="_top" xlink:title="Save piece.">
<polygon fill="white" stroke="black" points="865.5,-176 865.5,-195 967.5,-195 967.5,-176 865.5,-176"/>
<text text-anchor="middle" x="916.5" y="-183" font-family="Helvetica,sans-Serif" font-size="10.00">FEN::save_pieces</text>
</a>
</g>
</g>
<!-- Node34&#45;&gt;Node36 -->
<g id="edge46" class="edge">
<title>Node34&#45;&gt;Node36</title>
<path fill="none" stroke="midnightblue" d="M790.91,-182.49C810.24,-182.96 833.71,-183.52 855.04,-184.04"/>
<polygon fill="midnightblue" stroke="midnightblue" points="855.23,-187.54 865.31,-184.29 855.4,-180.55 855.23,-187.54"/>
</g>
<!-- Node37 -->
<g id="node37" class="node">
<title>Node37</title>
<g id="a_node37"><a xlink:href="classFEN.html#a0bfe254b9c0c3e163aecf70582e47761" target="_top" xlink:title="Gets types of piece.">
<polygon fill="white" stroke="red" points="1011,-170 1011,-189 1146,-189 1146,-170 1011,-170"/>
<text text-anchor="middle" x="1078.5" y="-177" font-family="Helvetica,sans-Serif" font-size="10.00">FEN::get_piece_notation</text>
</a>
</g>
</g>
<!-- Node36&#45;&gt;Node37 -->
<g id="edge47" class="edge">
<title>Node36&#45;&gt;Node37</title>
<path fill="none" stroke="midnightblue" d="M967.69,-183.62C978.14,-183.23 989.39,-182.8 1000.56,-182.39"/>
<polygon fill="midnightblue" stroke="midnightblue" points="1000.9,-185.87 1010.77,-182 1000.64,-178.88 1000.9,-185.87"/>
</g>
<!-- Node38 -->
<g id="node38" class="node">
<title>Node38</title>
<g id="a_node38"><a xlink:href="classPiece.html#a5a18c08757a0eccdc6fd0686d4db6743" target="_top" xlink:title=" ">
<polygon fill="white" stroke="black" points="1214.5,-163 1214.5,-182 1308.5,-182 1308.5,-163 1214.5,-163"/>
<text text-anchor="middle" x="1261.5" y="-170" font-family="Helvetica,sans-Serif" font-size="10.00">Piece::get_color</text>
</a>
</g>
</g>
<!-- Node37&#45;&gt;Node38 -->
<g id="edge48" class="edge">
<title>Node37&#45;&gt;Node38</title>
<path fill="none" stroke="midnightblue" d="M1146.13,-176.92C1165.17,-176.19 1185.74,-175.39 1204.11,-174.68"/>
<polygon fill="midnightblue" stroke="midnightblue" points="1204.5,-178.17 1214.36,-174.28 1204.23,-171.17 1204.5,-178.17"/>
</g>
<!-- Node42 -->
<g id="node41" class="node">
<title>Node42</title>
<g id="a_node41"><a xlink:href="classRules.html#ac508b22d87dddf5225cf154785618413" target="_top" xlink:title="Check if stalemate occurs.">
<polygon fill="white" stroke="black" points="867,-505 867,-524 966,-524 966,-505 867,-505"/>
<text text-anchor="middle" x="916.5" y="-512" font-family="Helvetica,sans-Serif" font-size="10.00">Rules::stalemate</text>
</a>
</g>
</g>
<!-- Node41&#45;&gt;Node42 -->
<g id="edge51" class="edge">
<title>Node41&#45;&gt;Node42</title>
<path fill="none" stroke="midnightblue" d="M813.04,-514.5C827.37,-514.5 842.55,-514.5 856.7,-514.5"/>
<polygon fill="midnightblue" stroke="midnightblue" points="856.79,-518 866.79,-514.5 856.79,-511 856.79,-518"/>
</g>
<!-- Node42&#45;&gt;Node9 -->
<g id="edge52" class="edge">
<title>Node42&#45;&gt;Node9</title>
<path fill="none" stroke="midnightblue" d="M957.87,-524.09C978.99,-529.1 1005.03,-535.29 1027.42,-540.61"/>
<polygon fill="midnightblue" stroke="midnightblue" points="1026.88,-544.07 1037.42,-542.98 1028.49,-537.26 1026.88,-544.07"/>
</g>
<!-- Node42&#45;&gt;Node12 -->
<g id="edge53" class="edge">
<title>Node42&#45;&gt;Node12</title>
<path fill="none" stroke="midnightblue" d="M966.28,-514.5C1023.54,-514.5 1119.14,-514.5 1185.77,-514.5"/>
<polygon fill="midnightblue" stroke="midnightblue" points="1185.79,-518 1195.79,-514.5 1185.79,-511 1185.79,-518"/>
</g>
<!-- Node42&#45;&gt;Node21 -->
<g id="edge54" class="edge">
<title>Node42&#45;&gt;Node21</title>
<path fill="none" stroke="midnightblue" d="M937.76,-504.87C965.66,-491.63 1016.05,-467.69 1048.09,-452.47"/>
<polygon fill="midnightblue" stroke="midnightblue" points="1049.87,-455.5 1057.4,-448.05 1046.87,-449.18 1049.87,-455.5"/>
</g>
<!-- Node46 -->
<g id="node45" class="node">
<title>Node46</title>
<g id="a_node45"><a xlink:href="classFEN.html#a39f6253f19ae04797561c9fea3342cb7" target="_top" xlink:title="Reads FEN notation.">
<polygon fill="white" stroke="black" points="514.5,-88 514.5,-107 603.5,-107 603.5,-88 514.5,-88"/>
<text text-anchor="middle" x="559" y="-95" font-family="Helvetica,sans-Serif" font-size="10.00">FEN::read_FEN</text>
</a>
</g>
</g>
<!-- Node45&#45;&gt;Node46 -->
<g id="edge58" class="edge">
<title>Node45&#45;&gt;Node46</title>
<path fill="none" stroke="midnightblue" d="M389.26,-224.87C420.04,-201.64 498.61,-142.33 536.68,-113.59"/>
<polygon fill="midnightblue" stroke="midnightblue" points="539.14,-116.12 545.01,-107.31 534.92,-110.54 539.14,-116.12"/>
</g>
<!-- Node47 -->
<g id="node46" class="node">
<title>Node47</title>
<g id="a_node46"><a xlink:href="classInput__handler.html#aeee21ed8a9cdd37b4f39c530e7d2ca15" target="_top" xlink:title="Checks if char is &lt;0, 8&gt;">
<polygon fill="white" stroke="black" points="680.5,-50 680.5,-69 817.5,-69 817.5,-50 680.5,-50"/>
<text text-anchor="middle" x="749" y="-57" font-family="Helvetica,sans-Serif" font-size="10.00">Input_handler::check_col</text>
</a>
</g>
</g>
<!-- Node46&#45;&gt;Node47 -->
<g id="edge59" class="edge">
<title>Node46&#45;&gt;Node47</title>
<path fill="none" stroke="midnightblue" d="M603.6,-88.69C629.49,-83.45 662.63,-76.76 690.62,-71.1"/>
<polygon fill="midnightblue" stroke="midnightblue" points="691.57,-74.48 700.68,-69.06 690.19,-67.62 691.57,-74.48"/>
</g>
<!-- Node48 -->
<g id="node47" class="node">
<title>Node48</title>
<g id="a_node47"><a xlink:href="classInput__handler.html#ae6cc6114be79e000f8a6f7156198e0f4" target="_top" xlink:title="Converts char to int.">
<polygon fill="white" stroke="black" points="676,-0.5 676,-30.5 822,-30.5 822,-0.5 676,-0.5"/>
<text text-anchor="start" x="684" y="-18.5" font-family="Helvetica,sans-Serif" font-size="10.00">Input_handler::coordinates</text>
<text text-anchor="middle" x="749" y="-7.5" font-family="Helvetica,sans-Serif" font-size="10.00">_to_int</text>
</a>
</g>
</g>
<!-- Node46&#45;&gt;Node48 -->
<g id="edge60" class="edge">
<title>Node46&#45;&gt;Node48</title>
<path fill="none" stroke="midnightblue" d="M577.77,-87.92C600.26,-75.99 640.38,-55.37 676,-40.5 681.32,-38.28 686.91,-36.09 692.53,-33.99"/>
<polygon fill="midnightblue" stroke="midnightblue" points="693.78,-37.26 701.98,-30.54 691.38,-30.68 693.78,-37.26"/>
</g>
<!-- Node49 -->
<g id="node48" class="node">
<title>Node49</title>
<g id="a_node48"><a xlink:href="classFEN.html#ad13a4a36c9bebfaf47e275bfe1ee9084" target="_top" xlink:title="Corrects FEN pieces.">
<polygon fill="white" stroke="black" points="680.5,-126 680.5,-145 817.5,-145 817.5,-126 680.5,-126"/>
<text text-anchor="middle" x="749" y="-133" font-family="Helvetica,sans-Serif" font-size="10.00">FEN::correct_FEN_pieces</text>
</a>
</g>
</g>
<!-- Node46&#45;&gt;Node49 -->
<g id="edge61" class="edge">
<title>Node46&#45;&gt;Node49</title>
<path fill="none" stroke="midnightblue" d="M603.6,-106.31C629.49,-111.55 662.63,-118.24 690.62,-123.9"/>
<polygon fill="midnightblue" stroke="midnightblue" points="690.19,-127.38 700.68,-125.94 691.57,-120.52 690.19,-127.38"/>
</g>
<!-- Node50 -->
<g id="node49" class="node">
<title>Node50</title>
<g id="a_node49"><a xlink:href="classFEN.html#a4ce3e20e91398d07dc96524af182e034" target="_top" xlink:title="Fills chess pieces into board.">
<polygon fill="white" stroke="black" points="703.5,-88 703.5,-107 794.5,-107 794.5,-88 703.5,-88"/>
<text text-anchor="middle" x="749" y="-95" font-family="Helvetica,sans-Serif" font-size="10.00">FEN::fill_pieces</text>
</a>
</g>
</g>
<!-- Node46&#45;&gt;Node50 -->
<g id="edge62" class="edge">
<title>Node46&#45;&gt;Node50</title>
<path fill="none" stroke="midnightblue" d="M603.6,-97.5C630.27,-97.5 664.61,-97.5 693.12,-97.5"/>
<polygon fill="midnightblue" stroke="midnightblue" points="693.33,-101 703.33,-97.5 693.33,-94 693.33,-101"/>
</g>
<!-- Node51 -->
<g id="node50" class="node">
<title>Node51</title>
<g id="a_node50"><a xlink:href="classFEN.html#addf59b1321695a3fe9c8588df468954a" target="_top" xlink:title="Place pieces on chess board.">
<polygon fill="white" stroke="black" points="858,-77.5 858,-107.5 975,-107.5 975,-77.5 858,-77.5"/>
<text text-anchor="start" x="866" y="-95.5" font-family="Helvetica,sans-Serif" font-size="10.00">FEN::place_piece_on</text>
<text text-anchor="middle" x="916.5" y="-84.5" font-family="Helvetica,sans-Serif" font-size="10.00">_board</text>
</a>
</g>
</g>
<!-- Node50&#45;&gt;Node51 -->
<g id="edge63" class="edge">
<title>Node50&#45;&gt;Node51</title>
<path fill="none" stroke="midnightblue" d="M794.79,-96.15C811.03,-95.66 829.77,-95.09 847.56,-94.55"/>
<polygon fill="midnightblue" stroke="midnightblue" points="848.01,-98.04 857.9,-94.24 847.8,-91.04 848.01,-98.04"/>
</g>
</g>
</svg>
