<?xml version="1.0" encoding="UTF-8" standalone="no"?>
<!DOCTYPE svg PUBLIC "-//W3C//DTD SVG 1.1//EN"
 "http://www.w3.org/Graphics/SVG/1.1/DTD/svg11.dtd">
<!-- Generated by graphviz version 2.43.0 (0)
 -->
<!-- Title: Application::play_move Pages: 1 -->
<svg width="813pt" height="392pt"
 viewBox="0.00 0.00 813.00 392.24" xmlns="http://www.w3.org/2000/svg" xmlns:xlink="http://www.w3.org/1999/xlink">
<g id="graph0" class="graph" transform="scale(1 1) rotate(0) translate(4 388.24)">
<title>Application::play_move</title>
<polygon fill="white" stroke="transparent" points="-4,4 -4,-388.24 809,-388.24 809,4 -4,4"/>
<!-- Node1 -->
<g id="node1" class="node">
<title>Node1</title>
<g id="a_node1"><a xlink:title=" ">
<polygon fill="#bfbfbf" stroke="black" points="0,-155.74 0,-174.74 131,-174.74 131,-155.74 0,-155.74"/>
<text text-anchor="middle" x="65.5" y="-162.74" font-family="Helvetica,sans-Serif" font-size="10.00">Application::play_move</text>
</a>
</g>
</g>
<!-- Node2 -->
<g id="node2" class="node">
<title>Node2</title>
<g id="a_node2"><a xlink:href="classRules.html#abd9b013ebba58f9757336a20b2c6bf8e" target="_top" xlink:title="Checks if king is in check.">
<polygon fill="white" stroke="black" points="330,-231.74 330,-250.74 419,-250.74 419,-231.74 330,-231.74"/>
<text text-anchor="middle" x="374.5" y="-238.74" font-family="Helvetica,sans-Serif" font-size="10.00">Rules::checked</text>
</a>
</g>
</g>
<!-- Node1&#45;&gt;Node2 -->
<g id="edge1" class="edge">
<title>Node1&#45;&gt;Node2</title>
<path fill="none" stroke="midnightblue" d="M79.32,-174.92C97.65,-188.18 132.93,-211.56 167,-222.24 217.14,-237.97 277.24,-241.94 319.64,-242.44"/>
<polygon fill="midnightblue" stroke="midnightblue" points="319.73,-245.94 329.75,-242.5 319.77,-238.94 319.73,-245.94"/>
</g>
<!-- Node6 -->
<g id="node6" class="node">
<title>Node6</title>
<g id="a_node6"><a xlink:href="classRules.html#a4ec21c1bd51c73135ed26eafa0da58d3" target="_top" xlink:title="Checks if king is in checkmate.">
<polygon fill="white" stroke="black" points="167,-193.74 167,-212.74 271,-212.74 271,-193.74 167,-193.74"/>
<text text-anchor="middle" x="219" y="-200.74" font-family="Helvetica,sans-Serif" font-size="10.00">Rules::checkmate</text>
</a>
</g>
</g>
<!-- Node1&#45;&gt;Node6 -->
<g id="edge5" class="edge">
<title>Node1&#45;&gt;Node6</title>
<path fill="none" stroke="midnightblue" d="M104.73,-174.83C124.63,-179.82 149.16,-185.98 170.29,-191.28"/>
<polygon fill="midnightblue" stroke="midnightblue" points="169.49,-194.68 180.05,-193.72 171.2,-187.9 169.49,-194.68"/>
</g>
<!-- Node7 -->
<g id="node7" class="node">
<title>Node7</title>
<g id="a_node7"><a xlink:href="classMove.html#a3765dcce8a7c18e0c2f7ce42c98fa2ba" target="_top" xlink:title="Makes move with piece.">
<polygon fill="white" stroke="black" points="319.5,-145.74 319.5,-164.74 429.5,-164.74 429.5,-145.74 319.5,-145.74"/>
<text text-anchor="middle" x="374.5" y="-152.74" font-family="Helvetica,sans-Serif" font-size="10.00">Move::make_move</text>
</a>
</g>
</g>
<!-- Node1&#45;&gt;Node7 -->
<g id="edge26" class="edge">
<title>Node1&#45;&gt;Node7</title>
<path fill="none" stroke="midnightblue" d="M131.23,-163.13C183.51,-161.43 256.73,-159.05 308.96,-157.35"/>
<polygon fill="midnightblue" stroke="midnightblue" points="309.23,-160.84 319.11,-157.01 309,-153.84 309.23,-160.84"/>
</g>
<!-- Node13 -->
<g id="node13" class="node">
<title>Node13</title>
<g id="a_node13"><a xlink:href="classMove.html#afbed08d3294e3c7913dd27c3d6afd283" target="_top" xlink:title="Undo move.">
<polygon fill="white" stroke="black" points="321,-107.74 321,-126.74 428,-126.74 428,-107.74 321,-107.74"/>
<text text-anchor="middle" x="374.5" y="-114.74" font-family="Helvetica,sans-Serif" font-size="10.00">Move::undo_move</text>
</a>
</g>
</g>
<!-- Node1&#45;&gt;Node13 -->
<g id="edge28" class="edge">
<title>Node1&#45;&gt;Node13</title>
<path fill="none" stroke="midnightblue" d="M127.52,-155.7C180.58,-147.41 257.15,-135.43 310.72,-127.06"/>
<polygon fill="midnightblue" stroke="midnightblue" points="311.44,-130.49 320.78,-125.49 310.36,-123.57 311.44,-130.49"/>
</g>
<!-- Node14 -->
<g id="node14" class="node">
<title>Node14</title>
<g id="a_node14"><a xlink:href="classValidate.html#afe077c5b0107ffc1c42670e233257b9c" target="_top" xlink:title="Validates move.">
<polygon fill="white" stroke="black" points="307,-307.74 307,-326.74 442,-326.74 442,-307.74 307,-307.74"/>
<text text-anchor="middle" x="374.5" y="-314.74" font-family="Helvetica,sans-Serif" font-size="10.00">Validate::validate_move</text>
</a>
</g>
</g>
<!-- Node1&#45;&gt;Node14 -->
<g id="edge29" class="edge">
<title>Node1&#45;&gt;Node14</title>
<path fill="none" stroke="midnightblue" d="M76.27,-174.75C93.38,-190.95 130.44,-224.13 167,-244.24 218.15,-272.39 282.23,-293.03 325.32,-305.05"/>
<polygon fill="midnightblue" stroke="midnightblue" points="324.43,-308.43 335,-307.7 326.28,-301.68 324.43,-308.43"/>
</g>
<!-- Node18 -->
<g id="node18" class="node">
<title>Node18</title>
<g id="a_node18"><a xlink:href="classPlayer.html#afca2a1d6d42d2f3a04abb9ab5bc3d323" target="_top" xlink:title="Gets player&#39;s move.">
<polygon fill="white" stroke="black" points="168,-79.74 168,-98.74 270,-98.74 270,-79.74 168,-79.74"/>
<text text-anchor="middle" x="219" y="-86.74" font-family="Helvetica,sans-Serif" font-size="10.00">Player::get_move</text>
</a>
</g>
</g>
<!-- Node1&#45;&gt;Node18 -->
<g id="edge25" class="edge">
<title>Node1&#45;&gt;Node18</title>
<path fill="none" stroke="midnightblue" d="M84.55,-155.64C104.59,-145.05 137.94,-127.59 167,-113.24 173.76,-109.91 181.06,-106.41 187.98,-103.14"/>
<polygon fill="midnightblue" stroke="midnightblue" points="189.5,-106.29 197.07,-98.88 186.53,-99.95 189.5,-106.29"/>
</g>
<!-- Node19 -->
<g id="node19" class="node">
<title>Node19</title>
<g id="a_node19"><a xlink:href="classApplication.html#afef57a39fdd32b4c10464d8a9d979816" target="_top" xlink:title="Prints who plays next.">
<polygon fill="white" stroke="black" points="169,-30.24 169,-60.24 269,-60.24 269,-30.24 169,-30.24"/>
<text text-anchor="start" x="177" y="-48.24" font-family="Helvetica,sans-Serif" font-size="10.00">Application::print</text>
<text text-anchor="middle" x="219" y="-37.24" font-family="Helvetica,sans-Serif" font-size="10.00">_color</text>
</a>
</g>
</g>
<!-- Node1&#45;&gt;Node19 -->
<g id="edge27" class="edge">
<title>Node1&#45;&gt;Node19</title>
<path fill="none" stroke="midnightblue" d="M74.85,-155.61C91.14,-137.24 128.93,-96.66 167,-70.24 169.51,-68.5 172.16,-66.81 174.88,-65.19"/>
<polygon fill="midnightblue" stroke="midnightblue" points="176.69,-68.19 183.72,-60.27 173.28,-62.08 176.69,-68.19"/>
</g>
<!-- Node3 -->
<g id="node3" class="node">
<title>Node3</title>
<g id="a_node3"><a xlink:href="classValidate.html#a3e4b7f61bff7ee9d7d839ead34d2d61f" target="_top" xlink:title="Checks if square is empty.">
<polygon fill="white" stroke="black" points="685.5,-250.74 685.5,-269.74 792.5,-269.74 792.5,-250.74 685.5,-250.74"/>
<text text-anchor="middle" x="739" y="-257.74" font-family="Helvetica,sans-Serif" font-size="10.00">Validate::is_empty</text>
</a>
</g>
</g>
<!-- Node2&#45;&gt;Node3 -->
<g id="edge2" class="edge">
<title>Node2&#45;&gt;Node3</title>
<path fill="none" stroke="midnightblue" d="M419.23,-243.53C483.07,-246.88 602.15,-253.12 675.31,-256.96"/>
<polygon fill="midnightblue" stroke="midnightblue" points="675.15,-260.45 685.32,-257.48 675.52,-253.46 675.15,-260.45"/>
</g>
<!-- Node4 -->
<g id="node4" class="node">
<title>Node4</title>
<g id="a_node4"><a xlink:href="classValidate.html#ab5ba0f592c1cd28a57deab9ef608f2df" target="_top" xlink:title="Checks if piece is same color as player.">
<polygon fill="white" stroke="black" points="673,-288.74 673,-307.74 805,-307.74 805,-288.74 673,-288.74"/>
<text text-anchor="middle" x="739" y="-295.74" font-family="Helvetica,sans-Serif" font-size="10.00">Validate::is_same_color</text>
</a>
</g>
</g>
<!-- Node2&#45;&gt;Node4 -->
<g id="edge3" class="edge">
<title>Node2&#45;&gt;Node4</title>
<path fill="none" stroke="midnightblue" d="M414.27,-250.81C433.38,-255.31 456.81,-260.49 478,-264.24 539.88,-275.21 610.63,-284.23 662.68,-290.22"/>
<polygon fill="midnightblue" stroke="midnightblue" points="662.51,-293.73 672.84,-291.38 663.3,-286.77 662.51,-293.73"/>
</g>
<!-- Node5 -->
<g id="node5" class="node">
<title>Node5</title>
<g id="a_node5"><a xlink:href="classValidate.html#a50364e1735875d1d74e7eb251b3fd7e5" target="_top" xlink:title="Validates position.">
<polygon fill="white" stroke="black" points="492,-212.74 492,-231.74 623,-231.74 623,-212.74 492,-212.74"/>
<text text-anchor="middle" x="557.5" y="-219.74" font-family="Helvetica,sans-Serif" font-size="10.00">Validate::valid_position</text>
</a>
</g>
</g>
<!-- Node2&#45;&gt;Node5 -->
<g id="edge4" class="edge">
<title>Node2&#45;&gt;Node5</title>
<path fill="none" stroke="midnightblue" d="M419.32,-236.64C438.1,-234.67 460.58,-232.31 481.86,-230.08"/>
<polygon fill="midnightblue" stroke="midnightblue" points="482.28,-233.55 491.86,-229.03 481.55,-226.59 482.28,-233.55"/>
</g>
<!-- Node6&#45;&gt;Node2 -->
<g id="edge6" class="edge">
<title>Node6&#45;&gt;Node2</title>
<path fill="none" stroke="midnightblue" d="M258.73,-212.83C278.9,-217.82 303.75,-223.98 325.16,-229.28"/>
<polygon fill="midnightblue" stroke="midnightblue" points="324.5,-232.72 335.04,-231.72 326.18,-225.92 324.5,-232.72"/>
</g>
<!-- Node6&#45;&gt;Node5 -->
<g id="edge18" class="edge">
<title>Node6&#45;&gt;Node5</title>
<path fill="none" stroke="midnightblue" d="M271.11,-206.13C327.22,-209.3 417.83,-214.41 481.88,-218.03"/>
<polygon fill="midnightblue" stroke="midnightblue" points="481.74,-221.53 491.92,-218.6 482.14,-214.54 481.74,-221.53"/>
</g>
<!-- Node6&#45;&gt;Node7 -->
<g id="edge7" class="edge">
<title>Node6&#45;&gt;Node7</title>
<path fill="none" stroke="midnightblue" d="M250.69,-193.64C274.33,-186.25 307.21,-175.97 333,-167.91"/>
<polygon fill="midnightblue" stroke="midnightblue" points="334.36,-171.15 342.86,-164.82 332.27,-164.47 334.36,-171.15"/>
</g>
<!-- Node6&#45;&gt;Node13 -->
<g id="edge16" class="edge">
<title>Node6&#45;&gt;Node13</title>
<path fill="none" stroke="midnightblue" d="M229.84,-193.6C245.12,-179.14 276.02,-151.87 307,-136.24 311.57,-133.94 316.47,-131.87 321.45,-130.03"/>
<polygon fill="midnightblue" stroke="midnightblue" points="322.74,-133.29 331.08,-126.76 320.49,-126.66 322.74,-133.29"/>
</g>
<!-- Node6&#45;&gt;Node14 -->
<g id="edge19" class="edge">
<title>Node6&#45;&gt;Node14</title>
<path fill="none" stroke="midnightblue" d="M232.82,-212.77C259.17,-232.33 319.63,-277.23 352.04,-301.31"/>
<polygon fill="midnightblue" stroke="midnightblue" points="350.27,-304.35 360.39,-307.5 354.45,-298.73 350.27,-304.35"/>
</g>
<!-- Node8 -->
<g id="node8" class="node">
<title>Node8</title>
<g id="a_node8"><a xlink:href="classPlayer.html#a42e54e616455af5d9d4b6dea514ba7a0" target="_top" xlink:title="Checks player&#39;s pawn promotion.">
<polygon fill="white" stroke="black" points="495,-60.74 495,-79.74 620,-79.74 620,-60.74 495,-60.74"/>
<text text-anchor="middle" x="557.5" y="-67.74" font-family="Helvetica,sans-Serif" font-size="10.00">Player::get_promotion</text>
</a>
</g>
</g>
<!-- Node7&#45;&gt;Node8 -->
<g id="edge8" class="edge">
<title>Node7&#45;&gt;Node8</title>
<path fill="none" stroke="midnightblue" d="M423.32,-145.63C429.91,-143.17 436.34,-140.09 442,-136.24 463.75,-121.44 455.95,-103.6 478,-89.24 481.18,-87.17 484.57,-85.32 488.09,-83.68"/>
<polygon fill="midnightblue" stroke="midnightblue" points="489.7,-86.8 497.63,-79.77 487.05,-80.32 489.7,-86.8"/>
</g>
<!-- Node9 -->
<g id="node9" class="node">
<title>Node9</title>
<g id="a_node9"><a xlink:href="classMove.html#a5472b83ec6bcde0fd8c16c4508896ccd" target="_top" xlink:title="Handles casting.">
<polygon fill="white" stroke="black" points="494.5,-98.74 494.5,-117.74 620.5,-117.74 620.5,-98.74 494.5,-98.74"/>
<text text-anchor="middle" x="557.5" y="-105.74" font-family="Helvetica,sans-Serif" font-size="10.00">Move::handle_castling</text>
</a>
</g>
</g>
<!-- Node7&#45;&gt;Node9 -->
<g id="edge9" class="edge">
<title>Node7&#45;&gt;Node9</title>
<path fill="none" stroke="midnightblue" d="M409.6,-145.66C429.51,-140.13 455.13,-133.13 478,-127.24 487.07,-124.91 496.76,-122.49 506.12,-120.21"/>
<polygon fill="midnightblue" stroke="midnightblue" points="507.21,-123.54 516.11,-117.78 505.56,-116.74 507.21,-123.54"/>
</g>
<!-- Node10 -->
<g id="node10" class="node">
<title>Node10</title>
<g id="a_node10"><a xlink:href="classMove.html#a5a18864c15112c49e5a93dbee3f83d1c" target="_top" xlink:title="Moves piece from start to end.">
<polygon fill="white" stroke="black" points="684.5,-79.74 684.5,-98.74 793.5,-98.74 793.5,-79.74 684.5,-79.74"/>
<text text-anchor="middle" x="739" y="-86.74" font-family="Helvetica,sans-Serif" font-size="10.00">Move::move_piece</text>
</a>
</g>
</g>
<!-- Node7&#45;&gt;Node10 -->
<g id="edge11" class="edge">
<title>Node7&#45;&gt;Node10</title>
<path fill="none" stroke="midnightblue" d="M426.98,-145.71C432.44,-143.24 437.59,-140.14 442,-136.24 472.73,-109.06 443.8,-73.9 478,-51.24 551.62,-2.47 662.58,-49.19 712.31,-74.87"/>
<polygon fill="midnightblue" stroke="midnightblue" points="710.93,-78.11 721.41,-79.69 714.21,-71.92 710.93,-78.11"/>
</g>
<!-- Node11 -->
<g id="node11" class="node">
<title>Node11</title>
<g id="a_node11"><a xlink:href="classMove.html#a9a242db5d52827dd11f81a6aa46e339e" target="_top" xlink:title="Handles pawn promotion.">
<polygon fill="white" stroke="black" points="507.5,-136.74 507.5,-155.74 607.5,-155.74 607.5,-136.74 507.5,-136.74"/>
<text text-anchor="middle" x="557.5" y="-143.74" font-family="Helvetica,sans-Serif" font-size="10.00">Move::promotion</text>
</a>
</g>
</g>
<!-- Node7&#45;&gt;Node11 -->
<g id="edge12" class="edge">
<title>Node7&#45;&gt;Node11</title>
<path fill="none" stroke="midnightblue" d="M429.81,-152.54C451.11,-151.48 475.62,-150.26 497.37,-149.18"/>
<polygon fill="midnightblue" stroke="midnightblue" points="497.66,-152.67 507.47,-148.68 497.31,-145.68 497.66,-152.67"/>
</g>
<!-- Node12 -->
<g id="node12" class="node">
<title>Node12</title>
<g id="a_node12"><a xlink:href="classPlayer.html#a620bf4cb1907eafdbcd9252a750ffa8f" target="_top" xlink:title="Update piece&#39;s position on chess board.">
<polygon fill="white" stroke="black" points="677,-155.74 677,-174.74 801,-174.74 801,-155.74 677,-155.74"/>
<text text-anchor="middle" x="739" y="-162.74" font-family="Helvetica,sans-Serif" font-size="10.00">Player::update_pieces</text>
</a>
</g>
</g>
<!-- Node7&#45;&gt;Node12 -->
<g id="edge15" class="edge">
<title>Node7&#45;&gt;Node12</title>
<path fill="none" stroke="midnightblue" d="M429.69,-161.52C445.26,-163.06 462.28,-164.48 478,-165.24 541.72,-168.34 614.32,-168.02 666.59,-167.11"/>
<polygon fill="midnightblue" stroke="midnightblue" points="666.83,-170.61 676.76,-166.92 666.69,-163.61 666.83,-170.61"/>
</g>
<!-- Node9&#45;&gt;Node10 -->
<g id="edge10" class="edge">
<title>Node9&#45;&gt;Node10</title>
<path fill="none" stroke="midnightblue" d="M620.53,-101.68C637.89,-99.84 656.79,-97.84 674.26,-95.99"/>
<polygon fill="midnightblue" stroke="midnightblue" points="674.77,-99.46 684.35,-94.92 674.04,-92.49 674.77,-99.46"/>
</g>
<!-- Node11&#45;&gt;Node10 -->
<g id="edge13" class="edge">
<title>Node11&#45;&gt;Node10</title>
<path fill="none" stroke="midnightblue" d="M601.95,-136.73C613.42,-133.95 625.74,-130.71 637,-127.24 660.28,-120.07 685.97,-110.38 705.61,-102.58"/>
<polygon fill="midnightblue" stroke="midnightblue" points="707.03,-105.79 715.01,-98.81 704.43,-99.29 707.03,-105.79"/>
</g>
<!-- Node11&#45;&gt;Node12 -->
<g id="edge14" class="edge">
<title>Node11&#45;&gt;Node12</title>
<path fill="none" stroke="midnightblue" d="M607.55,-151.43C625.84,-153.37 647,-155.61 666.88,-157.71"/>
<polygon fill="midnightblue" stroke="midnightblue" points="666.51,-161.2 676.82,-158.77 667.25,-154.23 666.51,-161.2"/>
</g>
<!-- Node13&#45;&gt;Node10 -->
<g id="edge17" class="edge">
<title>Node13&#45;&gt;Node10</title>
<path fill="none" stroke="midnightblue" d="M381.69,-107.45C395.74,-86.28 432.35,-36.69 478,-18.24 543.52,8.23 569.62,3.07 637,-18.24 670.64,-28.89 702.79,-55.2 721.45,-72.63"/>
<polygon fill="midnightblue" stroke="midnightblue" points="719.17,-75.3 728.8,-79.71 724.02,-70.26 719.17,-75.3"/>
</g>
<!-- Node15 -->
<g id="node15" class="node">
<title>Node15</title>
<g id="a_node15"><a xlink:href="classValidate.html#ac11fdbf661a340f903a8a8b581710c34" target="_top" xlink:title="Finds all possible moves for piece.">
<polygon fill="white" stroke="black" points="478,-326.74 478,-345.74 637,-345.74 637,-326.74 478,-326.74"/>
<text text-anchor="middle" x="557.5" y="-333.74" font-family="Helvetica,sans-Serif" font-size="10.00">Validate::find_possible_move</text>
</a>
</g>
</g>
<!-- Node14&#45;&gt;Node15 -->
<g id="edge20" class="edge">
<title>Node14&#45;&gt;Node15</title>
<path fill="none" stroke="midnightblue" d="M442.13,-324.24C450.46,-325.11 459.08,-326.02 467.68,-326.92"/>
<polygon fill="midnightblue" stroke="midnightblue" points="467.44,-330.41 477.75,-327.98 468.17,-323.45 467.44,-330.41"/>
</g>
<!-- Node17 -->
<g id="node17" class="node">
<title>Node17</title>
<g id="a_node17"><a xlink:href="classValidate.html#a6c88b44fd5d40b6aba0812e2d23d8f04" target="_top" xlink:title="Checks if castling is valid.">
<polygon fill="white" stroke="black" points="492.5,-364.74 492.5,-383.74 622.5,-383.74 622.5,-364.74 492.5,-364.74"/>
<text text-anchor="middle" x="557.5" y="-371.74" font-family="Helvetica,sans-Serif" font-size="10.00">Validate::valid_castling</text>
</a>
</g>
</g>
<!-- Node14&#45;&gt;Node17 -->
<g id="edge24" class="edge">
<title>Node14&#45;&gt;Node17</title>
<path fill="none" stroke="midnightblue" d="M398.84,-326.79C419.45,-335 450.41,-346.82 478,-355.24 486.1,-357.71 494.74,-360.08 503.22,-362.24"/>
<polygon fill="midnightblue" stroke="midnightblue" points="502.52,-365.67 513.06,-364.69 504.21,-358.88 502.52,-365.67"/>
</g>
<!-- Node15&#45;&gt;Node3 -->
<g id="edge22" class="edge">
<title>Node15&#45;&gt;Node3</title>
<path fill="none" stroke="midnightblue" d="M575.52,-326.57C597.51,-314.35 637.23,-293.25 673,-279.24 678.89,-276.94 685.18,-274.76 691.43,-272.76"/>
<polygon fill="midnightblue" stroke="midnightblue" points="692.64,-276.05 701.18,-269.77 690.59,-269.36 692.64,-276.05"/>
</g>
<!-- Node15&#45;&gt;Node4 -->
<g id="edge23" class="edge">
<title>Node15&#45;&gt;Node4</title>
<path fill="none" stroke="midnightblue" d="M603.8,-326.65C627.91,-321.55 657.75,-315.23 683.17,-309.85"/>
<polygon fill="midnightblue" stroke="midnightblue" points="683.97,-313.26 693.03,-307.76 682.52,-306.41 683.97,-313.26"/>
</g>
<!-- Node16 -->
<g id="node16" class="node">
<title>Node16</title>
<g id="a_node16"><a xlink:href="classValidate.html#aa7766a323b9443c69e62a05d04f0b217" target="_top" xlink:title="Finds if move is legit.">
<polygon fill="white" stroke="black" points="682.5,-326.74 682.5,-345.74 795.5,-345.74 795.5,-326.74 682.5,-326.74"/>
<text text-anchor="middle" x="739" y="-333.74" font-family="Helvetica,sans-Serif" font-size="10.00">Validate::find_move</text>
</a>
</g>
</g>
<!-- Node15&#45;&gt;Node16 -->
<g id="edge21" class="edge">
<title>Node15&#45;&gt;Node16</title>
<path fill="none" stroke="midnightblue" d="M637.23,-336.24C648.84,-336.24 660.7,-336.24 672.02,-336.24"/>
<polygon fill="midnightblue" stroke="midnightblue" points="672.24,-339.74 682.24,-336.24 672.24,-332.74 672.24,-339.74"/>
</g>
</g>
</svg>
