<?xml version="1.0" encoding="UTF-8" standalone="no"?>
<!DOCTYPE svg PUBLIC "-//W3C//DTD SVG 1.1//EN"
 "http://www.w3.org/Graphics/SVG/1.1/DTD/svg11.dtd">
<!-- Generated by graphviz version 2.43.0 (0)
 -->
<!-- Title: Rules::checkmate Pages: 1 -->
<svg width="646pt" height="384pt"
 viewBox="0.00 0.00 646.00 383.75" xmlns="http://www.w3.org/2000/svg" xmlns:xlink="http://www.w3.org/1999/xlink">
<g id="graph0" class="graph" transform="scale(1 1) rotate(0) translate(4 379.75)">
<title>Rules::checkmate</title>
<polygon fill="white" stroke="transparent" points="-4,4 -4,-379.75 642,-379.75 642,4 -4,4"/>
<!-- Node1 -->
<g id="node1" class="node">
<title>Node1</title>
<g id="a_node1"><a xlink:title="Checks if king is in checkmate.">
<polygon fill="#bfbfbf" stroke="black" points="0,-204.25 0,-223.25 104,-223.25 104,-204.25 0,-204.25"/>
<text text-anchor="middle" x="52" y="-211.25" font-family="Helvetica,sans-Serif" font-size="10.00">Rules::checkmate</text>
</a>
</g>
</g>
<!-- Node2 -->
<g id="node2" class="node">
<title>Node2</title>
<g id="a_node2"><a xlink:href="classRules.html#abd9b013ebba58f9757336a20b2c6bf8e" target="_top" xlink:title="Checks if king is in check.">
<polygon fill="white" stroke="black" points="163,-242.25 163,-261.25 252,-261.25 252,-242.25 163,-242.25"/>
<text text-anchor="middle" x="207.5" y="-249.25" font-family="Helvetica,sans-Serif" font-size="10.00">Rules::checked</text>
</a>
</g>
</g>
<!-- Node1&#45;&gt;Node2 -->
<g id="edge1" class="edge">
<title>Node1&#45;&gt;Node2</title>
<path fill="none" stroke="midnightblue" d="M91.73,-223.33C111.9,-228.33 136.75,-234.48 158.16,-239.78"/>
<polygon fill="midnightblue" stroke="midnightblue" points="157.5,-243.22 168.04,-242.23 159.18,-236.43 157.5,-243.22"/>
</g>
<!-- Node5 -->
<g id="node5" class="node">
<title>Node5</title>
<g id="a_node5"><a xlink:href="classValidate.html#a50364e1735875d1d74e7eb251b3fd7e5" target="_top" xlink:title="Validates position.">
<polygon fill="white" stroke="black" points="325,-204.25 325,-223.25 456,-223.25 456,-204.25 325,-204.25"/>
<text text-anchor="middle" x="390.5" y="-211.25" font-family="Helvetica,sans-Serif" font-size="10.00">Validate::valid_position</text>
</a>
</g>
</g>
<!-- Node1&#45;&gt;Node5 -->
<g id="edge16" class="edge">
<title>Node1&#45;&gt;Node5</title>
<path fill="none" stroke="midnightblue" d="M104.11,-213.75C160.22,-213.75 250.83,-213.75 314.88,-213.75"/>
<polygon fill="midnightblue" stroke="midnightblue" points="314.92,-217.25 324.92,-213.75 314.92,-210.25 314.92,-217.25"/>
</g>
<!-- Node6 -->
<g id="node6" class="node">
<title>Node6</title>
<g id="a_node6"><a xlink:href="classMove.html#a3765dcce8a7c18e0c2f7ce42c98fa2ba" target="_top" xlink:title="Makes move with piece.">
<polygon fill="white" stroke="black" points="152.5,-109.25 152.5,-128.25 262.5,-128.25 262.5,-109.25 152.5,-109.25"/>
<text text-anchor="middle" x="207.5" y="-116.25" font-family="Helvetica,sans-Serif" font-size="10.00">Move::make_move</text>
</a>
</g>
</g>
<!-- Node1&#45;&gt;Node6 -->
<g id="edge5" class="edge">
<title>Node1&#45;&gt;Node6</title>
<path fill="none" stroke="midnightblue" d="M68.56,-204.11C95.34,-187.54 150.32,-153.52 182.18,-133.8"/>
<polygon fill="midnightblue" stroke="midnightblue" points="184.23,-136.64 190.9,-128.4 180.55,-130.69 184.23,-136.64"/>
</g>
<!-- Node12 -->
<g id="node12" class="node">
<title>Node12</title>
<g id="a_node12"><a xlink:href="classMove.html#afbed08d3294e3c7913dd27c3d6afd283" target="_top" xlink:title="Undo move.">
<polygon fill="white" stroke="black" points="154,-14.25 154,-33.25 261,-33.25 261,-14.25 154,-14.25"/>
<text text-anchor="middle" x="207.5" y="-21.25" font-family="Helvetica,sans-Serif" font-size="10.00">Move::undo_move</text>
</a>
</g>
</g>
<!-- Node1&#45;&gt;Node12 -->
<g id="edge14" class="edge">
<title>Node1&#45;&gt;Node12</title>
<path fill="none" stroke="midnightblue" d="M60.01,-204.12C74.52,-184.28 109.11,-137.52 140,-99.75 156.85,-79.13 177.12,-56.23 190.81,-41.01"/>
<polygon fill="midnightblue" stroke="midnightblue" points="193.57,-43.17 197.68,-33.4 188.38,-38.48 193.57,-43.17"/>
</g>
<!-- Node13 -->
<g id="node13" class="node">
<title>Node13</title>
<g id="a_node13"><a xlink:href="classValidate.html#afe077c5b0107ffc1c42670e233257b9c" target="_top" xlink:title="Validates move.">
<polygon fill="white" stroke="black" points="140,-318.25 140,-337.25 275,-337.25 275,-318.25 140,-318.25"/>
<text text-anchor="middle" x="207.5" y="-325.25" font-family="Helvetica,sans-Serif" font-size="10.00">Validate::validate_move</text>
</a>
</g>
</g>
<!-- Node1&#45;&gt;Node13 -->
<g id="edge17" class="edge">
<title>Node1&#45;&gt;Node13</title>
<path fill="none" stroke="midnightblue" d="M65.82,-223.27C92.17,-242.84 152.63,-287.74 185.04,-311.81"/>
<polygon fill="midnightblue" stroke="midnightblue" points="183.27,-314.86 193.39,-318.01 187.45,-309.24 183.27,-314.86"/>
</g>
<!-- Node3 -->
<g id="node3" class="node">
<title>Node3</title>
<g id="a_node3"><a xlink:href="classValidate.html#a3e4b7f61bff7ee9d7d839ead34d2d61f" target="_top" xlink:title="Checks if square is empty.">
<polygon fill="white" stroke="black" points="518.5,-242.25 518.5,-261.25 625.5,-261.25 625.5,-242.25 518.5,-242.25"/>
<text text-anchor="middle" x="572" y="-249.25" font-family="Helvetica,sans-Serif" font-size="10.00">Validate::is_empty</text>
</a>
</g>
</g>
<!-- Node2&#45;&gt;Node3 -->
<g id="edge2" class="edge">
<title>Node2&#45;&gt;Node3</title>
<path fill="none" stroke="midnightblue" d="M252.23,-251.75C316.07,-251.75 435.15,-251.75 508.31,-251.75"/>
<polygon fill="midnightblue" stroke="midnightblue" points="508.32,-255.25 518.32,-251.75 508.32,-248.25 508.32,-255.25"/>
</g>
<!-- Node4 -->
<g id="node4" class="node">
<title>Node4</title>
<g id="a_node4"><a xlink:href="classValidate.html#ab5ba0f592c1cd28a57deab9ef608f2df" target="_top" xlink:title="Checks if piece is same color as player.">
<polygon fill="white" stroke="black" points="506,-280.25 506,-299.25 638,-299.25 638,-280.25 506,-280.25"/>
<text text-anchor="middle" x="572" y="-287.25" font-family="Helvetica,sans-Serif" font-size="10.00">Validate::is_same_color</text>
</a>
</g>
</g>
<!-- Node2&#45;&gt;Node4 -->
<g id="edge3" class="edge">
<title>Node2&#45;&gt;Node4</title>
<path fill="none" stroke="midnightblue" d="M252.09,-258.13C270.28,-260.68 291.64,-263.53 311,-265.75 373.07,-272.85 443.66,-279.26 495.61,-283.66"/>
<polygon fill="midnightblue" stroke="midnightblue" points="495.48,-287.16 505.74,-284.52 496.07,-280.19 495.48,-287.16"/>
</g>
<!-- Node2&#45;&gt;Node5 -->
<g id="edge4" class="edge">
<title>Node2&#45;&gt;Node5</title>
<path fill="none" stroke="midnightblue" d="M252.32,-242.55C276.99,-237.37 308.05,-230.85 334.37,-225.32"/>
<polygon fill="midnightblue" stroke="midnightblue" points="335.13,-228.74 344.2,-223.26 333.69,-221.89 335.13,-228.74"/>
</g>
<!-- Node7 -->
<g id="node7" class="node">
<title>Node7</title>
<g id="a_node7"><a xlink:href="classPlayer.html#a42e54e616455af5d9d4b6dea514ba7a0" target="_top" xlink:title="Checks player&#39;s pawn promotion.">
<polygon fill="white" stroke="black" points="328,-52.25 328,-71.25 453,-71.25 453,-52.25 328,-52.25"/>
<text text-anchor="middle" x="390.5" y="-59.25" font-family="Helvetica,sans-Serif" font-size="10.00">Player::get_promotion</text>
</a>
</g>
</g>
<!-- Node6&#45;&gt;Node7 -->
<g id="edge6" class="edge">
<title>Node6&#45;&gt;Node7</title>
<path fill="none" stroke="midnightblue" d="M231.84,-109.2C252.45,-100.98 283.41,-89.17 311,-80.75 319.1,-78.27 327.74,-75.91 336.22,-73.74"/>
<polygon fill="midnightblue" stroke="midnightblue" points="337.21,-77.11 346.06,-71.29 335.52,-70.31 337.21,-77.11"/>
</g>
<!-- Node8 -->
<g id="node8" class="node">
<title>Node8</title>
<g id="a_node8"><a xlink:href="classMove.html#a5472b83ec6bcde0fd8c16c4508896ccd" target="_top" xlink:title="Handles casting.">
<polygon fill="white" stroke="black" points="327.5,-90.25 327.5,-109.25 453.5,-109.25 453.5,-90.25 327.5,-90.25"/>
<text text-anchor="middle" x="390.5" y="-97.25" font-family="Helvetica,sans-Serif" font-size="10.00">Move::handle_castling</text>
</a>
</g>
</g>
<!-- Node6&#45;&gt;Node8 -->
<g id="edge7" class="edge">
<title>Node6&#45;&gt;Node8</title>
<path fill="none" stroke="midnightblue" d="M262.81,-113.05C279.94,-111.25 299.14,-109.23 317.32,-107.32"/>
<polygon fill="midnightblue" stroke="midnightblue" points="317.71,-110.8 327.29,-106.28 316.98,-103.84 317.71,-110.8"/>
</g>
<!-- Node9 -->
<g id="node9" class="node">
<title>Node9</title>
<g id="a_node9"><a xlink:href="classMove.html#a5a18864c15112c49e5a93dbee3f83d1c" target="_top" xlink:title="Moves piece from start to end.">
<polygon fill="white" stroke="black" points="517.5,-52.25 517.5,-71.25 626.5,-71.25 626.5,-52.25 517.5,-52.25"/>
<text text-anchor="middle" x="572" y="-59.25" font-family="Helvetica,sans-Serif" font-size="10.00">Move::move_piece</text>
</a>
</g>
</g>
<!-- Node6&#45;&gt;Node9 -->
<g id="edge9" class="edge">
<title>Node6&#45;&gt;Node9</title>
<path fill="none" stroke="midnightblue" d="M217.2,-109.1C233.54,-91.79 270.82,-56.02 311,-42.75 385.74,-18.06 478.92,-35.68 530.99,-49.52"/>
<polygon fill="midnightblue" stroke="midnightblue" points="530.27,-52.95 540.84,-52.23 532.13,-46.2 530.27,-52.95"/>
</g>
<!-- Node10 -->
<g id="node10" class="node">
<title>Node10</title>
<g id="a_node10"><a xlink:href="classMove.html#a9a242db5d52827dd11f81a6aa46e339e" target="_top" xlink:title="Handles pawn promotion.">
<polygon fill="white" stroke="black" points="340.5,-128.25 340.5,-147.25 440.5,-147.25 440.5,-128.25 340.5,-128.25"/>
<text text-anchor="middle" x="390.5" y="-135.25" font-family="Helvetica,sans-Serif" font-size="10.00">Move::promotion</text>
</a>
</g>
</g>
<!-- Node6&#45;&gt;Node10 -->
<g id="edge10" class="edge">
<title>Node6&#45;&gt;Node10</title>
<path fill="none" stroke="midnightblue" d="M262.81,-124.45C284.11,-126.68 308.62,-129.26 330.37,-131.54"/>
<polygon fill="midnightblue" stroke="midnightblue" points="330.16,-135.04 340.47,-132.6 330.89,-128.07 330.16,-135.04"/>
</g>
<!-- Node11 -->
<g id="node11" class="node">
<title>Node11</title>
<g id="a_node11"><a xlink:href="classPlayer.html#a620bf4cb1907eafdbcd9252a750ffa8f" target="_top" xlink:title="Update piece&#39;s position on chess board.">
<polygon fill="white" stroke="black" points="510,-147.25 510,-166.25 634,-166.25 634,-147.25 510,-147.25"/>
<text text-anchor="middle" x="572" y="-154.25" font-family="Helvetica,sans-Serif" font-size="10.00">Player::update_pieces</text>
</a>
</g>
</g>
<!-- Node6&#45;&gt;Node11 -->
<g id="edge13" class="edge">
<title>Node6&#45;&gt;Node11</title>
<path fill="none" stroke="midnightblue" d="M227.94,-128.33C248.14,-137.71 280.92,-151.35 311,-156.75 374,-168.05 446.98,-166.83 499.55,-163.49"/>
<polygon fill="midnightblue" stroke="midnightblue" points="500.04,-166.97 509.78,-162.8 499.57,-159.98 500.04,-166.97"/>
</g>
<!-- Node8&#45;&gt;Node9 -->
<g id="edge8" class="edge">
<title>Node8&#45;&gt;Node9</title>
<path fill="none" stroke="midnightblue" d="M436.8,-90.16C460.91,-85.05 490.75,-78.73 516.17,-73.35"/>
<polygon fill="midnightblue" stroke="midnightblue" points="516.97,-76.76 526.03,-71.27 515.52,-69.91 516.97,-76.76"/>
</g>
<!-- Node10&#45;&gt;Node9 -->
<g id="edge11" class="edge">
<title>Node10&#45;&gt;Node9</title>
<path fill="none" stroke="midnightblue" d="M440.31,-128.15C450.29,-125.57 460.61,-122.45 470,-118.75 498.3,-107.59 528.37,-89.75 548.27,-77"/>
<polygon fill="midnightblue" stroke="midnightblue" points="550.44,-79.76 556.91,-71.37 546.62,-73.9 550.44,-79.76"/>
</g>
<!-- Node10&#45;&gt;Node11 -->
<g id="edge12" class="edge">
<title>Node10&#45;&gt;Node11</title>
<path fill="none" stroke="midnightblue" d="M440.55,-142.94C458.84,-144.87 480,-147.11 499.88,-149.22"/>
<polygon fill="midnightblue" stroke="midnightblue" points="499.51,-152.7 509.82,-150.27 500.25,-145.74 499.51,-152.7"/>
</g>
<!-- Node12&#45;&gt;Node9 -->
<g id="edge15" class="edge">
<title>Node12&#45;&gt;Node9</title>
<path fill="none" stroke="midnightblue" d="M250.4,-14.18C302.61,-3.91 394.22,8.62 470,-9.75 499.12,-16.8 529.25,-33.8 548.94,-46.45"/>
<polygon fill="midnightblue" stroke="midnightblue" points="547.18,-49.49 557.46,-52.08 551.04,-43.65 547.18,-49.49"/>
</g>
<!-- Node14 -->
<g id="node14" class="node">
<title>Node14</title>
<g id="a_node14"><a xlink:href="classValidate.html#ac11fdbf661a340f903a8a8b581710c34" target="_top" xlink:title="Finds all possible moves for piece.">
<polygon fill="white" stroke="black" points="311,-318.25 311,-337.25 470,-337.25 470,-318.25 311,-318.25"/>
<text text-anchor="middle" x="390.5" y="-325.25" font-family="Helvetica,sans-Serif" font-size="10.00">Validate::find_possible_move</text>
</a>
</g>
</g>
<!-- Node13&#45;&gt;Node14 -->
<g id="edge18" class="edge">
<title>Node13&#45;&gt;Node14</title>
<path fill="none" stroke="midnightblue" d="M275.13,-327.75C283.46,-327.75 292.08,-327.75 300.68,-327.75"/>
<polygon fill="midnightblue" stroke="midnightblue" points="300.75,-331.25 310.75,-327.75 300.75,-324.25 300.75,-331.25"/>
</g>
<!-- Node16 -->
<g id="node16" class="node">
<title>Node16</title>
<g id="a_node16"><a xlink:href="classValidate.html#a6c88b44fd5d40b6aba0812e2d23d8f04" target="_top" xlink:title="Checks if castling is valid.">
<polygon fill="white" stroke="black" points="325.5,-356.25 325.5,-375.25 455.5,-375.25 455.5,-356.25 325.5,-356.25"/>
<text text-anchor="middle" x="390.5" y="-363.25" font-family="Helvetica,sans-Serif" font-size="10.00">Validate::valid_castling</text>
</a>
</g>
</g>
<!-- Node13&#45;&gt;Node16 -->
<g id="edge22" class="edge">
<title>Node13&#45;&gt;Node16</title>
<path fill="none" stroke="midnightblue" d="M254.17,-337.33C278.49,-342.44 308.58,-348.76 334.21,-354.14"/>
<polygon fill="midnightblue" stroke="midnightblue" points="333.65,-357.6 344.15,-356.23 335.09,-350.75 333.65,-357.6"/>
</g>
<!-- Node14&#45;&gt;Node3 -->
<g id="edge20" class="edge">
<title>Node14&#45;&gt;Node3</title>
<path fill="none" stroke="midnightblue" d="M408.52,-318.07C430.51,-305.86 470.23,-284.75 506,-270.75 511.89,-268.44 518.18,-266.26 524.43,-264.26"/>
<polygon fill="midnightblue" stroke="midnightblue" points="525.64,-267.55 534.18,-261.28 523.59,-260.86 525.64,-267.55"/>
</g>
<!-- Node14&#45;&gt;Node4 -->
<g id="edge21" class="edge">
<title>Node14&#45;&gt;Node4</title>
<path fill="none" stroke="midnightblue" d="M436.8,-318.16C460.91,-313.05 490.75,-306.73 516.17,-301.35"/>
<polygon fill="midnightblue" stroke="midnightblue" points="516.97,-304.76 526.03,-299.27 515.52,-297.91 516.97,-304.76"/>
</g>
<!-- Node15 -->
<g id="node15" class="node">
<title>Node15</title>
<g id="a_node15"><a xlink:href="classValidate.html#aa7766a323b9443c69e62a05d04f0b217" target="_top" xlink:title="Finds if move is legit.">
<polygon fill="white" stroke="black" points="515.5,-318.25 515.5,-337.25 628.5,-337.25 628.5,-318.25 515.5,-318.25"/>
<text text-anchor="middle" x="572" y="-325.25" font-family="Helvetica,sans-Serif" font-size="10.00">Validate::find_move</text>
</a>
</g>
</g>
<!-- Node14&#45;&gt;Node15 -->
<g id="edge19" class="edge">
<title>Node14&#45;&gt;Node15</title>
<path fill="none" stroke="midnightblue" d="M470.23,-327.75C481.84,-327.75 493.7,-327.75 505.02,-327.75"/>
<polygon fill="midnightblue" stroke="midnightblue" points="505.24,-331.25 515.24,-327.75 505.24,-324.25 505.24,-331.25"/>
</g>
</g>
</svg>
