<?xml version="1.0" encoding="UTF-8" standalone="no"?>
<!DOCTYPE svg PUBLIC "-//W3C//DTD SVG 1.1//EN"
 "http://www.w3.org/Graphics/SVG/1.1/DTD/svg11.dtd">
<!-- Generated by graphviz version 2.43.0 (0)
 -->
<!-- Title: Custom_AI::get_move Pages: 1 -->
<svg width="825pt" height="393pt"
 viewBox="0.00 0.00 825.00 392.66" xmlns="http://www.w3.org/2000/svg" xmlns:xlink="http://www.w3.org/1999/xlink">
<g id="graph0" class="graph" transform="scale(1 1) rotate(0) translate(4 388.66)">
<title>Custom_AI::get_move</title>
<polygon fill="white" stroke="transparent" points="-4,4 -4,-388.66 821,-388.66 821,4 -4,4"/>
<!-- Node1 -->
<g id="node1" class="node">
<title>Node1</title>
<g id="a_node1"><a xlink:title="Gets player&#39;s move.">
<polygon fill="#bfbfbf" stroke="black" points="0,-194.16 0,-213.16 124,-213.16 124,-194.16 0,-194.16"/>
<text text-anchor="middle" x="62" y="-201.16" font-family="Helvetica,sans-Serif" font-size="10.00">Custom_AI::get_move</text>
</a>
</g>
</g>
<!-- Node2 -->
<g id="node2" class="node">
<title>Node2</title>
<g id="a_node2"><a xlink:href="classCustom__AI.html#a6d5240fd3f5919086dc0bb74aa02329a" target="_top" xlink:title="Counts all moves for all pieces.">
<polygon fill="white" stroke="black" points="160,-188.66 160,-218.66 276,-218.66 276,-188.66 160,-188.66"/>
<text text-anchor="start" x="168" y="-206.66" font-family="Helvetica,sans-Serif" font-size="10.00">Custom_AI::possible</text>
<text text-anchor="middle" x="218" y="-195.66" font-family="Helvetica,sans-Serif" font-size="10.00">_pieces_and_moves</text>
</a>
</g>
</g>
<!-- Node1&#45;&gt;Node2 -->
<g id="edge1" class="edge">
<title>Node1&#45;&gt;Node2</title>
<path fill="none" stroke="midnightblue" d="M124.31,-203.66C132.66,-203.66 141.26,-203.66 149.71,-203.66"/>
<polygon fill="midnightblue" stroke="midnightblue" points="149.91,-207.16 159.91,-203.66 149.91,-200.16 149.91,-207.16"/>
</g>
<!-- Node3 -->
<g id="node3" class="node">
<title>Node3</title>
<g id="a_node3"><a xlink:href="classRules.html#abd9b013ebba58f9757336a20b2c6bf8e" target="_top" xlink:title="Checks if king is in check.">
<polygon fill="white" stroke="black" points="338.5,-223.16 338.5,-242.16 427.5,-242.16 427.5,-223.16 338.5,-223.16"/>
<text text-anchor="middle" x="383" y="-230.16" font-family="Helvetica,sans-Serif" font-size="10.00">Rules::checked</text>
</a>
</g>
</g>
<!-- Node2&#45;&gt;Node3 -->
<g id="edge2" class="edge">
<title>Node2&#45;&gt;Node3</title>
<path fill="none" stroke="midnightblue" d="M276.01,-213.8C292.96,-216.82 311.48,-220.11 328.22,-223.09"/>
<polygon fill="midnightblue" stroke="midnightblue" points="327.92,-226.59 338.38,-224.9 329.15,-219.7 327.92,-226.59"/>
</g>
<!-- Node6 -->
<g id="node6" class="node">
<title>Node6</title>
<g id="a_node6"><a xlink:href="classValidate.html#a50364e1735875d1d74e7eb251b3fd7e5" target="_top" xlink:title="Validates position.">
<polygon fill="white" stroke="black" points="504,-289.16 504,-308.16 635,-308.16 635,-289.16 504,-289.16"/>
<text text-anchor="middle" x="569.5" y="-296.16" font-family="Helvetica,sans-Serif" font-size="10.00">Validate::valid_position</text>
</a>
</g>
</g>
<!-- Node2&#45;&gt;Node6 -->
<g id="edge18" class="edge">
<title>Node2&#45;&gt;Node6</title>
<path fill="none" stroke="midnightblue" d="M243.37,-218.78C261.64,-229.47 287.58,-243.33 312,-251.66 371.45,-271.94 441.81,-284.05 493.78,-290.88"/>
<polygon fill="midnightblue" stroke="midnightblue" points="493.56,-294.38 503.92,-292.17 494.45,-287.43 493.56,-294.38"/>
</g>
<!-- Node7 -->
<g id="node7" class="node">
<title>Node7</title>
<g id="a_node7"><a xlink:href="classMove.html#a3765dcce8a7c18e0c2f7ce42c98fa2ba" target="_top" xlink:title="Makes move with piece.">
<polygon fill="white" stroke="black" points="328,-137.16 328,-156.16 438,-156.16 438,-137.16 328,-137.16"/>
<text text-anchor="middle" x="383" y="-144.16" font-family="Helvetica,sans-Serif" font-size="10.00">Move::make_move</text>
</a>
</g>
</g>
<!-- Node2&#45;&gt;Node7 -->
<g id="edge6" class="edge">
<title>Node2&#45;&gt;Node7</title>
<path fill="none" stroke="midnightblue" d="M262.25,-188.53C287.95,-179.55 320.21,-168.27 344.77,-159.68"/>
<polygon fill="midnightblue" stroke="midnightblue" points="346.16,-162.9 354.44,-156.29 343.85,-156.29 346.16,-162.9"/>
</g>
<!-- Node13 -->
<g id="node13" class="node">
<title>Node13</title>
<g id="a_node13"><a xlink:href="classCustom__AI.html#aab7a4beec19d5a4186962fba68cdc9ce" target="_top" xlink:title=" ">
<polygon fill="white" stroke="black" points="312,-61.16 312,-80.16 454,-80.16 454,-61.16 312,-61.16"/>
<text text-anchor="middle" x="383" y="-68.16" font-family="Helvetica,sans-Serif" font-size="10.00">Custom_AI::piece_priority</text>
</a>
</g>
</g>
<!-- Node2&#45;&gt;Node13 -->
<g id="edge15" class="edge">
<title>Node2&#45;&gt;Node13</title>
<path fill="none" stroke="midnightblue" d="M227.12,-188.55C241.11,-163.98 272.15,-115.53 312,-89.66 315.29,-87.52 318.82,-85.62 322.48,-83.94"/>
<polygon fill="midnightblue" stroke="midnightblue" points="323.83,-87.17 331.78,-80.17 321.2,-80.68 323.83,-87.17"/>
</g>
<!-- Node14 -->
<g id="node14" class="node">
<title>Node14</title>
<g id="a_node14"><a xlink:href="classMove.html#afbed08d3294e3c7913dd27c3d6afd283" target="_top" xlink:title="Undo move.">
<polygon fill="white" stroke="black" points="329.5,-99.16 329.5,-118.16 436.5,-118.16 436.5,-99.16 329.5,-99.16"/>
<text text-anchor="middle" x="383" y="-106.16" font-family="Helvetica,sans-Serif" font-size="10.00">Move::undo_move</text>
</a>
</g>
</g>
<!-- Node2&#45;&gt;Node14 -->
<g id="edge16" class="edge">
<title>Node2&#45;&gt;Node14</title>
<path fill="none" stroke="midnightblue" d="M233.37,-188.57C250.53,-171.4 280.85,-143.68 312,-127.66 316.5,-125.34 321.32,-123.28 326.24,-121.46"/>
<polygon fill="midnightblue" stroke="midnightblue" points="327.42,-124.76 335.77,-118.24 325.18,-118.12 327.42,-124.76"/>
</g>
<!-- Node15 -->
<g id="node15" class="node">
<title>Node15</title>
<g id="a_node15"><a xlink:href="classValidate.html#afe077c5b0107ffc1c42670e233257b9c" target="_top" xlink:title="Validates move.">
<polygon fill="white" stroke="black" points="315.5,-327.16 315.5,-346.16 450.5,-346.16 450.5,-327.16 315.5,-327.16"/>
<text text-anchor="middle" x="383" y="-334.16" font-family="Helvetica,sans-Serif" font-size="10.00">Validate::validate_move</text>
</a>
</g>
</g>
<!-- Node2&#45;&gt;Node15 -->
<g id="edge19" class="edge">
<title>Node2&#45;&gt;Node15</title>
<path fill="none" stroke="midnightblue" d="M230.15,-218.92C246.28,-240.14 277.93,-278.76 312,-303.66 322.42,-311.28 334.89,-317.82 346.39,-323.03"/>
<polygon fill="midnightblue" stroke="midnightblue" points="345.19,-326.33 355.75,-327.09 347.97,-319.9 345.19,-326.33"/>
</g>
<!-- Node4 -->
<g id="node4" class="node">
<title>Node4</title>
<g id="a_node4"><a xlink:href="classValidate.html#a3e4b7f61bff7ee9d7d839ead34d2d61f" target="_top" xlink:title="Checks if square is empty.">
<polygon fill="white" stroke="black" points="697.5,-223.16 697.5,-242.16 804.5,-242.16 804.5,-223.16 697.5,-223.16"/>
<text text-anchor="middle" x="751" y="-230.16" font-family="Helvetica,sans-Serif" font-size="10.00">Validate::is_empty</text>
</a>
</g>
</g>
<!-- Node3&#45;&gt;Node4 -->
<g id="edge3" class="edge">
<title>Node3&#45;&gt;Node4</title>
<path fill="none" stroke="midnightblue" d="M427.78,-232.66C492.3,-232.66 613.22,-232.66 687.19,-232.66"/>
<polygon fill="midnightblue" stroke="midnightblue" points="687.3,-236.16 697.3,-232.66 687.3,-229.16 687.3,-236.16"/>
</g>
<!-- Node5 -->
<g id="node5" class="node">
<title>Node5</title>
<g id="a_node5"><a xlink:href="classValidate.html#ab5ba0f592c1cd28a57deab9ef608f2df" target="_top" xlink:title="Checks if piece is same color as player.">
<polygon fill="white" stroke="black" points="685,-280.16 685,-299.16 817,-299.16 817,-280.16 685,-280.16"/>
<text text-anchor="middle" x="751" y="-287.16" font-family="Helvetica,sans-Serif" font-size="10.00">Validate::is_same_color</text>
</a>
</g>
</g>
<!-- Node3&#45;&gt;Node5 -->
<g id="edge4" class="edge">
<title>Node3&#45;&gt;Node5</title>
<path fill="none" stroke="midnightblue" d="M427.78,-239.48C489.85,-249.14 604.13,-266.94 678.58,-278.53"/>
<polygon fill="midnightblue" stroke="midnightblue" points="678.39,-282.05 688.81,-280.13 679.46,-275.13 678.39,-282.05"/>
</g>
<!-- Node3&#45;&gt;Node6 -->
<g id="edge5" class="edge">
<title>Node3&#45;&gt;Node6</title>
<path fill="none" stroke="midnightblue" d="M406.55,-242.2C427.87,-251.09 460.86,-264.45 490,-274.66 501.34,-278.63 513.72,-282.59 525.23,-286.11"/>
<polygon fill="midnightblue" stroke="midnightblue" points="524.49,-289.54 535.08,-289.09 526.52,-282.84 524.49,-289.54"/>
</g>
<!-- Node8 -->
<g id="node8" class="node">
<title>Node8</title>
<g id="a_node8"><a xlink:href="classPlayer.html#a42e54e616455af5d9d4b6dea514ba7a0" target="_top" xlink:title="Checks player&#39;s pawn promotion.">
<polygon fill="white" stroke="black" points="507,-61.16 507,-80.16 632,-80.16 632,-61.16 507,-61.16"/>
<text text-anchor="middle" x="569.5" y="-68.16" font-family="Helvetica,sans-Serif" font-size="10.00">Player::get_promotion</text>
</a>
</g>
</g>
<!-- Node7&#45;&gt;Node8 -->
<g id="edge7" class="edge">
<title>Node7&#45;&gt;Node8</title>
<path fill="none" stroke="midnightblue" d="M432.86,-137.12C440.22,-134.64 447.51,-131.53 454,-127.66 473.97,-115.72 469.87,-101.32 490,-89.66 493.86,-87.42 497.97,-85.45 502.21,-83.71"/>
<polygon fill="midnightblue" stroke="midnightblue" points="503.47,-86.98 511.66,-80.26 501.06,-80.4 503.47,-86.98"/>
</g>
<!-- Node9 -->
<g id="node9" class="node">
<title>Node9</title>
<g id="a_node9"><a xlink:href="classMove.html#a5472b83ec6bcde0fd8c16c4508896ccd" target="_top" xlink:title="Handles casting.">
<polygon fill="white" stroke="black" points="506.5,-99.16 506.5,-118.16 632.5,-118.16 632.5,-99.16 506.5,-99.16"/>
<text text-anchor="middle" x="569.5" y="-106.16" font-family="Helvetica,sans-Serif" font-size="10.00">Move::handle_castling</text>
</a>
</g>
</g>
<!-- Node7&#45;&gt;Node9 -->
<g id="edge8" class="edge">
<title>Node7&#45;&gt;Node9</title>
<path fill="none" stroke="midnightblue" d="M430.56,-137.07C455.34,-131.96 486.02,-125.65 512.14,-120.27"/>
<polygon fill="midnightblue" stroke="midnightblue" points="513.19,-123.62 522.28,-118.18 511.78,-116.77 513.19,-123.62"/>
</g>
<!-- Node10 -->
<g id="node10" class="node">
<title>Node10</title>
<g id="a_node10"><a xlink:href="classMove.html#a5a18864c15112c49e5a93dbee3f83d1c" target="_top" xlink:title="Moves piece from start to end.">
<polygon fill="white" stroke="black" points="696.5,-61.16 696.5,-80.16 805.5,-80.16 805.5,-61.16 696.5,-61.16"/>
<text text-anchor="middle" x="751" y="-68.16" font-family="Helvetica,sans-Serif" font-size="10.00">Move::move_piece</text>
</a>
</g>
</g>
<!-- Node7&#45;&gt;Node10 -->
<g id="edge10" class="edge">
<title>Node7&#45;&gt;Node10</title>
<path fill="none" stroke="midnightblue" d="M438.01,-137.25C443.78,-134.76 449.27,-131.62 454,-127.66 482.66,-103.67 458.42,-71.64 490,-51.66 561.5,-6.41 667.23,-37.38 719.06,-57.38"/>
<polygon fill="midnightblue" stroke="midnightblue" points="717.8,-60.65 728.39,-61.09 720.39,-54.14 717.8,-60.65"/>
</g>
<!-- Node11 -->
<g id="node11" class="node">
<title>Node11</title>
<g id="a_node11"><a xlink:href="classMove.html#a9a242db5d52827dd11f81a6aa46e339e" target="_top" xlink:title="Handles pawn promotion.">
<polygon fill="white" stroke="black" points="519.5,-137.16 519.5,-156.16 619.5,-156.16 619.5,-137.16 519.5,-137.16"/>
<text text-anchor="middle" x="569.5" y="-144.16" font-family="Helvetica,sans-Serif" font-size="10.00">Move::promotion</text>
</a>
</g>
</g>
<!-- Node7&#45;&gt;Node11 -->
<g id="edge11" class="edge">
<title>Node7&#45;&gt;Node11</title>
<path fill="none" stroke="midnightblue" d="M438.36,-146.66C460.57,-146.66 486.34,-146.66 509.05,-146.66"/>
<polygon fill="midnightblue" stroke="midnightblue" points="509.25,-150.16 519.25,-146.66 509.25,-143.16 509.25,-150.16"/>
</g>
<!-- Node12 -->
<g id="node12" class="node">
<title>Node12</title>
<g id="a_node12"><a xlink:href="classPlayer.html#a620bf4cb1907eafdbcd9252a750ffa8f" target="_top" xlink:title="Update piece&#39;s position on chess board.">
<polygon fill="white" stroke="black" points="689,-156.16 689,-175.16 813,-175.16 813,-156.16 689,-156.16"/>
<text text-anchor="middle" x="751" y="-163.16" font-family="Helvetica,sans-Serif" font-size="10.00">Player::update_pieces</text>
</a>
</g>
</g>
<!-- Node7&#45;&gt;Node12 -->
<g id="edge14" class="edge">
<title>Node7&#45;&gt;Node12</title>
<path fill="none" stroke="midnightblue" d="M427.09,-156.17C446.25,-159.93 469.14,-163.8 490,-165.66 553.65,-171.32 626.41,-170.72 678.74,-169.05"/>
<polygon fill="midnightblue" stroke="midnightblue" points="679.05,-172.54 688.93,-168.7 678.81,-165.55 679.05,-172.54"/>
</g>
<!-- Node9&#45;&gt;Node10 -->
<g id="edge9" class="edge">
<title>Node9&#45;&gt;Node10</title>
<path fill="none" stroke="midnightblue" d="M615.8,-99.07C639.91,-93.96 669.75,-87.65 695.17,-82.27"/>
<polygon fill="midnightblue" stroke="midnightblue" points="695.97,-85.67 705.03,-80.18 694.52,-78.82 695.97,-85.67"/>
</g>
<!-- Node11&#45;&gt;Node10 -->
<g id="edge12" class="edge">
<title>Node11&#45;&gt;Node10</title>
<path fill="none" stroke="midnightblue" d="M619.31,-137.06C629.29,-134.48 639.61,-131.36 649,-127.66 677.3,-116.5 707.37,-98.66 727.27,-85.91"/>
<polygon fill="midnightblue" stroke="midnightblue" points="729.44,-88.67 735.91,-80.28 725.62,-82.81 729.44,-88.67"/>
</g>
<!-- Node11&#45;&gt;Node12 -->
<g id="edge13" class="edge">
<title>Node11&#45;&gt;Node12</title>
<path fill="none" stroke="midnightblue" d="M619.55,-151.85C637.84,-153.79 659,-156.03 678.88,-158.13"/>
<polygon fill="midnightblue" stroke="midnightblue" points="678.51,-161.61 688.82,-159.18 679.25,-154.65 678.51,-161.61"/>
</g>
<!-- Node14&#45;&gt;Node10 -->
<g id="edge17" class="edge">
<title>Node14&#45;&gt;Node10</title>
<path fill="none" stroke="midnightblue" d="M436.83,-99.57C443.02,-97.03 448.92,-93.79 454,-89.66 481.44,-67.32 459.85,-37.17 490,-18.66 567.04,28.66 678.91,-27.24 726.82,-55.82"/>
<polygon fill="midnightblue" stroke="midnightblue" points="725.16,-58.91 735.52,-61.14 728.81,-52.94 725.16,-58.91"/>
</g>
<!-- Node16 -->
<g id="node16" class="node">
<title>Node16</title>
<g id="a_node16"><a xlink:href="classValidate.html#ac11fdbf661a340f903a8a8b581710c34" target="_top" xlink:title="Finds all possible moves for piece.">
<polygon fill="white" stroke="black" points="490,-327.16 490,-346.16 649,-346.16 649,-327.16 490,-327.16"/>
<text text-anchor="middle" x="569.5" y="-334.16" font-family="Helvetica,sans-Serif" font-size="10.00">Validate::find_possible_move</text>
</a>
</g>
</g>
<!-- Node15&#45;&gt;Node16 -->
<g id="edge20" class="edge">
<title>Node15&#45;&gt;Node16</title>
<path fill="none" stroke="midnightblue" d="M450.61,-336.66C460.03,-336.66 469.84,-336.66 479.6,-336.66"/>
<polygon fill="midnightblue" stroke="midnightblue" points="479.74,-340.16 489.74,-336.66 479.74,-333.16 479.74,-340.16"/>
</g>
<!-- Node18 -->
<g id="node18" class="node">
<title>Node18</title>
<g id="a_node18"><a xlink:href="classValidate.html#a6c88b44fd5d40b6aba0812e2d23d8f04" target="_top" xlink:title="Checks if castling is valid.">
<polygon fill="white" stroke="black" points="504.5,-365.16 504.5,-384.16 634.5,-384.16 634.5,-365.16 504.5,-365.16"/>
<text text-anchor="middle" x="569.5" y="-372.16" font-family="Helvetica,sans-Serif" font-size="10.00">Validate::valid_castling</text>
</a>
</g>
</g>
<!-- Node15&#45;&gt;Node18 -->
<g id="edge24" class="edge">
<title>Node15&#45;&gt;Node18</title>
<path fill="none" stroke="midnightblue" d="M430.56,-346.25C455.34,-351.35 486.02,-357.67 512.14,-363.05"/>
<polygon fill="midnightblue" stroke="midnightblue" points="511.78,-366.55 522.28,-365.14 513.19,-359.69 511.78,-366.55"/>
</g>
<!-- Node16&#45;&gt;Node4 -->
<g id="edge22" class="edge">
<title>Node16&#45;&gt;Node4</title>
<path fill="none" stroke="midnightblue" d="M629.37,-327.13C636.29,-324.66 643.01,-321.56 649,-317.66 671.05,-303.3 665.27,-288.07 685,-270.66 695.44,-261.44 708.45,-253.32 720.08,-246.97"/>
<polygon fill="midnightblue" stroke="midnightblue" points="721.8,-250.02 729.03,-242.27 718.55,-243.82 721.8,-250.02"/>
</g>
<!-- Node16&#45;&gt;Node5 -->
<g id="edge23" class="edge">
<title>Node16&#45;&gt;Node5</title>
<path fill="none" stroke="midnightblue" d="M610.9,-327.15C623.16,-324.19 636.65,-320.86 649,-317.66 667.85,-312.77 688.58,-307.07 706.34,-302.1"/>
<polygon fill="midnightblue" stroke="midnightblue" points="707.73,-305.35 716.41,-299.27 705.83,-298.61 707.73,-305.35"/>
</g>
<!-- Node17 -->
<g id="node17" class="node">
<title>Node17</title>
<g id="a_node17"><a xlink:href="classValidate.html#aa7766a323b9443c69e62a05d04f0b217" target="_top" xlink:title="Finds if move is legit.">
<polygon fill="white" stroke="black" points="694.5,-327.16 694.5,-346.16 807.5,-346.16 807.5,-327.16 694.5,-327.16"/>
<text text-anchor="middle" x="751" y="-334.16" font-family="Helvetica,sans-Serif" font-size="10.00">Validate::find_move</text>
</a>
</g>
</g>
<!-- Node16&#45;&gt;Node17 -->
<g id="edge21" class="edge">
<title>Node16&#45;&gt;Node17</title>
<path fill="none" stroke="midnightblue" d="M649.23,-336.66C660.84,-336.66 672.7,-336.66 684.02,-336.66"/>
<polygon fill="midnightblue" stroke="midnightblue" points="684.24,-340.16 694.24,-336.66 684.24,-333.16 684.24,-340.16"/>
</g>
</g>
</svg>
