<?xml version="1.0" encoding="UTF-8" standalone="no"?>
<!DOCTYPE svg PUBLIC "-//W3C//DTD SVG 1.1//EN"
 "http://www.w3.org/Graphics/SVG/1.1/DTD/svg11.dtd">
<!-- Generated by graphviz version 2.43.0 (0)
 -->
<!-- Title: Menu::start_AI_game Pages: 1 -->
<svg width="1308pt" height="512pt"
 viewBox="0.00 0.00 1308.00 512.00" xmlns="http://www.w3.org/2000/svg" xmlns:xlink="http://www.w3.org/1999/xlink">
<g id="graph0" class="graph" transform="scale(1 1) rotate(0) translate(4 508)">
<title>Menu::start_AI_game</title>
<polygon fill="white" stroke="transparent" points="-4,4 -4,-508 1304,-508 1304,4 -4,4"/>
<!-- Node1 -->
<g id="node1" class="node">
<title>Node1</title>
<g id="a_node1"><a xlink:title="Starts game with AI.">
<polygon fill="#bfbfbf" stroke="black" points="0,-183.5 0,-202.5 120,-202.5 120,-183.5 0,-183.5"/>
<text text-anchor="middle" x="60" y="-190.5" font-family="Helvetica,sans-Serif" font-size="10.00">Menu::start_AI_game</text>
</a>
</g>
</g>
<!-- Node2 -->
<g id="node2" class="node">
<title>Node2</title>
<g id="a_node2"><a xlink:href="classPlayer.html#a962ed5b79d46a442c2a933bfde0f9ce1" target="_top" xlink:title="Fill pieces on chess board.">
<polygon fill="white" stroke="black" points="157.5,-221.5 157.5,-240.5 259.5,-240.5 259.5,-221.5 157.5,-221.5"/>
<text text-anchor="middle" x="208.5" y="-228.5" font-family="Helvetica,sans-Serif" font-size="10.00">Player::fill_pieces</text>
</a>
</g>
</g>
<!-- Node1&#45;&gt;Node2 -->
<g id="edge1" class="edge">
<title>Node1&#45;&gt;Node2</title>
<path fill="none" stroke="midnightblue" d="M97.97,-202.59C117.13,-207.56 140.71,-213.68 161.09,-218.96"/>
<polygon fill="midnightblue" stroke="midnightblue" points="160.24,-222.36 170.8,-221.48 162,-215.58 160.24,-222.36"/>
</g>
<!-- Node3 -->
<g id="node3" class="node">
<title>Node3</title>
<g id="a_node3"><a xlink:href="classApplication.html#aa0cd4150071d630bd7b1f067878f00cd" target="_top" xlink:title="Starts and handles game.">
<polygon fill="white" stroke="black" points="156,-183.5 156,-202.5 261,-202.5 261,-183.5 156,-183.5"/>
<text text-anchor="middle" x="208.5" y="-190.5" font-family="Helvetica,sans-Serif" font-size="10.00">Application::game</text>
</a>
</g>
</g>
<!-- Node1&#45;&gt;Node3 -->
<g id="edge2" class="edge">
<title>Node1&#45;&gt;Node3</title>
<path fill="none" stroke="midnightblue" d="M120.16,-193C128.52,-193 137.13,-193 145.54,-193"/>
<polygon fill="midnightblue" stroke="midnightblue" points="145.66,-196.5 155.66,-193 145.66,-189.5 145.66,-196.5"/>
</g>
<!-- Node42 -->
<g id="node42" class="node">
<title>Node42</title>
<g id="a_node42"><a xlink:href="classBoard.html#aba53aef1597d5a8ed4c8895e86267e26" target="_top" xlink:title=" ">
<polygon fill="white" stroke="black" points="158.5,-145.5 158.5,-164.5 258.5,-164.5 258.5,-145.5 158.5,-145.5"/>
<text text-anchor="middle" x="208.5" y="-152.5" font-family="Helvetica,sans-Serif" font-size="10.00">Board::init_board</text>
</a>
</g>
</g>
<!-- Node1&#45;&gt;Node42 -->
<g id="edge55" class="edge">
<title>Node1&#45;&gt;Node42</title>
<path fill="none" stroke="midnightblue" d="M97.97,-183.41C117.13,-178.44 140.71,-172.32 161.09,-167.04"/>
<polygon fill="midnightblue" stroke="midnightblue" points="162,-170.42 170.8,-164.52 160.24,-163.64 162,-170.42"/>
</g>
<!-- Node4 -->
<g id="node4" class="node">
<title>Node4</title>
<g id="a_node4"><a xlink:href="classApplication.html#a50559888cd4196c7cda01e0a432d609f" target="_top" xlink:title="Changes turn of game.">
<polygon fill="white" stroke="black" points="321.5,-317 321.5,-347 434.5,-347 434.5,-317 321.5,-317"/>
<text text-anchor="start" x="329.5" y="-335" font-family="Helvetica,sans-Serif" font-size="10.00">Application::change</text>
<text text-anchor="middle" x="378" y="-324" font-family="Helvetica,sans-Serif" font-size="10.00">_turns</text>
</a>
</g>
</g>
<!-- Node3&#45;&gt;Node4 -->
<g id="edge3" class="edge">
<title>Node3&#45;&gt;Node4</title>
<path fill="none" stroke="midnightblue" d="M247.22,-202.53C252.28,-205.01 257.07,-208.11 261,-212 293.07,-243.79 264.14,-276.03 297,-307 301.41,-311.16 306.5,-314.62 311.94,-317.51"/>
<polygon fill="midnightblue" stroke="midnightblue" points="310.8,-320.84 321.35,-321.85 313.73,-314.48 310.8,-320.84"/>
</g>
<!-- Node24 -->
<g id="node24" class="node">
<title>Node24</title>
<g id="a_node24"><a xlink:href="classGameRules.html#a8d006d25138133af6fa938c758b2d12f" target="_top" xlink:title="Checks if the dead position applies.">
<polygon fill="white" stroke="black" points="304.5,-278.5 304.5,-297.5 451.5,-297.5 451.5,-278.5 304.5,-278.5"/>
<text text-anchor="middle" x="378" y="-285.5" font-family="Helvetica,sans-Serif" font-size="10.00">GameRules::dead_position</text>
</a>
</g>
</g>
<!-- Node3&#45;&gt;Node24 -->
<g id="edge34" class="edge">
<title>Node3&#45;&gt;Node24</title>
<path fill="none" stroke="midnightblue" d="M244.95,-202.56C250.67,-205.06 256.26,-208.16 261,-212 284.29,-230.85 272.62,-251.58 297,-269 299.73,-270.95 302.63,-272.7 305.65,-274.28"/>
<polygon fill="midnightblue" stroke="midnightblue" points="304.46,-277.58 315.02,-278.48 307.33,-271.19 304.46,-277.58"/>
</g>
<!-- Node25 -->
<g id="node25" class="node">
<title>Node25</title>
<g id="a_node25"><a xlink:href="classPlayer.html#a4d6bbea149ca89248c006c2a0ca140b6" target="_top" xlink:title="Delete piece from pieces_pos_.">
<polygon fill="white" stroke="black" points="320,-240.5 320,-259.5 436,-259.5 436,-240.5 320,-240.5"/>
<text text-anchor="middle" x="378" y="-247.5" font-family="Helvetica,sans-Serif" font-size="10.00">Player::delete_piece</text>
</a>
</g>
</g>
<!-- Node3&#45;&gt;Node25 -->
<g id="edge35" class="edge">
<title>Node3&#45;&gt;Node25</title>
<path fill="none" stroke="midnightblue" d="M237.57,-202.59C245.25,-205.42 253.51,-208.66 261,-212 277.52,-219.37 280.06,-224.64 297,-231 303.8,-233.55 311.05,-235.84 318.32,-237.87"/>
<polygon fill="midnightblue" stroke="midnightblue" points="317.62,-241.31 328.18,-240.48 319.41,-234.54 317.62,-241.31"/>
</g>
<!-- Node26 -->
<g id="node26" class="node">
<title>Node26</title>
<g id="a_node26"><a xlink:href="classGameRules.html#aa6f8bc3fd2c7b8fa5dba8dfd241d7740" target="_top" xlink:title="Checks if the half&#45;move rules applies.">
<polygon fill="white" stroke="black" points="310,-202.5 310,-221.5 446,-221.5 446,-202.5 310,-202.5"/>
<text text-anchor="middle" x="378" y="-209.5" font-family="Helvetica,sans-Serif" font-size="10.00">GameRules::half_moves</text>
</a>
</g>
</g>
<!-- Node3&#45;&gt;Node26 -->
<g id="edge36" class="edge">
<title>Node3&#45;&gt;Node26</title>
<path fill="none" stroke="midnightblue" d="M261.12,-198.86C273.38,-200.25 286.72,-201.76 299.84,-203.25"/>
<polygon fill="midnightblue" stroke="midnightblue" points="299.48,-206.73 309.81,-204.38 300.26,-199.77 299.48,-206.73"/>
</g>
<!-- Node27 -->
<g id="node27" class="node">
<title>Node27</title>
<g id="a_node27"><a xlink:href="classBoard.html#aa96e4fef113d4a359baf359264c0cf3f" target="_top" xlink:title="Prints chess board.">
<polygon fill="white" stroke="black" points="324.5,-164.5 324.5,-183.5 431.5,-183.5 431.5,-164.5 324.5,-164.5"/>
<text text-anchor="middle" x="378" y="-171.5" font-family="Helvetica,sans-Serif" font-size="10.00">Board::print_board</text>
</a>
</g>
</g>
<!-- Node3&#45;&gt;Node27 -->
<g id="edge37" class="edge">
<title>Node3&#45;&gt;Node27</title>
<path fill="none" stroke="midnightblue" d="M261.12,-187.14C277.92,-185.24 296.74,-183.1 314.26,-181.12"/>
<polygon fill="midnightblue" stroke="midnightblue" points="314.85,-184.57 324.39,-179.97 314.06,-177.62 314.85,-184.57"/>
</g>
<!-- Node28 -->
<g id="node28" class="node">
<title>Node28</title>
<g id="a_node28"><a xlink:href="classApplication.html#aea645938276f66ddf06cbb04d6169502" target="_top" xlink:title="Prints result of game (checkmate, tie, pat, game not finished)">
<polygon fill="white" stroke="black" points="328,-115 328,-145 428,-145 428,-115 328,-115"/>
<text text-anchor="start" x="336" y="-133" font-family="Helvetica,sans-Serif" font-size="10.00">Application::print</text>
<text text-anchor="middle" x="378" y="-122" font-family="Helvetica,sans-Serif" font-size="10.00">_results</text>
</a>
</g>
</g>
<!-- Node3&#45;&gt;Node28 -->
<g id="edge38" class="edge">
<title>Node3&#45;&gt;Node28</title>
<path fill="none" stroke="midnightblue" d="M237.57,-183.41C245.25,-180.58 253.51,-177.34 261,-174 277.52,-166.63 280.3,-161.95 297,-155 303.74,-152.19 310.92,-149.53 318.09,-147.05"/>
<polygon fill="midnightblue" stroke="midnightblue" points="319.46,-150.29 327.84,-143.81 317.25,-143.65 319.46,-150.29"/>
</g>
<!-- Node29 -->
<g id="node29" class="node">
<title>Node29</title>
<g id="a_node29"><a xlink:href="classFile__manager.html#a0b0b101cb1941cba0e51a2c6dea0919b" target="_top" xlink:title="Saves file.">
<polygon fill="white" stroke="black" points="312,-76.5 312,-95.5 444,-95.5 444,-76.5 312,-76.5"/>
<text text-anchor="middle" x="378" y="-83.5" font-family="Helvetica,sans-Serif" font-size="10.00">File_manager::save_file</text>
</a>
</g>
</g>
<!-- Node3&#45;&gt;Node29 -->
<g id="edge39" class="edge">
<title>Node3&#45;&gt;Node29</title>
<path fill="none" stroke="midnightblue" d="M246,-183.38C251.41,-180.91 256.62,-177.83 261,-174 286.74,-151.49 270.08,-127.09 297,-106 299.93,-103.7 303.1,-101.66 306.42,-99.86"/>
<polygon fill="midnightblue" stroke="midnightblue" points="307.93,-103.01 315.5,-95.6 304.96,-96.67 307.93,-103.01"/>
</g>
<!-- Node38 -->
<g id="node38" class="node">
<title>Node38</title>
<g id="a_node38"><a xlink:href="classGameRules.html#a515085ec1bb0e6ea5c2d12664ec7fc10" target="_top" xlink:title="Checks if the stalemate rule applies.">
<polygon fill="white" stroke="black" points="496.5,-397.5 496.5,-416.5 624.5,-416.5 624.5,-397.5 496.5,-397.5"/>
<text text-anchor="middle" x="560.5" y="-404.5" font-family="Helvetica,sans-Serif" font-size="10.00">GameRules::stalemate</text>
</a>
</g>
</g>
<!-- Node3&#45;&gt;Node38 -->
<g id="edge48" class="edge">
<title>Node3&#45;&gt;Node38</title>
<path fill="none" stroke="midnightblue" d="M248.42,-202.52C253.13,-204.99 257.5,-208.1 261,-212 305.3,-261.46 248.77,-311.36 297,-357 347.07,-404.38 427.44,-413.6 486.08,-413"/>
<polygon fill="midnightblue" stroke="midnightblue" points="486.46,-416.5 496.39,-412.8 486.32,-409.5 486.46,-416.5"/>
</g>
<!-- Node40 -->
<g id="node40" class="node">
<title>Node40</title>
<g id="a_node40"><a xlink:href="classGameRules.html#acbd44f6245c7a7fb0ddf2a7b0fffc923" target="_top" xlink:title="Checks if the threefold repetition rule applies.">
<polygon fill="white" stroke="black" points="316.5,-38.5 316.5,-57.5 439.5,-57.5 439.5,-38.5 316.5,-38.5"/>
<text text-anchor="middle" x="378" y="-45.5" font-family="Helvetica,sans-Serif" font-size="10.00">GameRules::threefold</text>
</a>
</g>
</g>
<!-- Node3&#45;&gt;Node40 -->
<g id="edge53" class="edge">
<title>Node3&#45;&gt;Node40</title>
<path fill="none" stroke="midnightblue" d="M247.62,-183.47C252.56,-181 257.21,-177.9 261,-174 295.96,-138.01 259.94,-100.82 297,-67 300.14,-64.13 303.64,-61.67 307.36,-59.57"/>
<polygon fill="midnightblue" stroke="midnightblue" points="308.88,-62.72 316.41,-55.27 305.87,-56.4 308.88,-62.72"/>
</g>
<!-- Node41 -->
<g id="node41" class="node">
<title>Node41</title>
<g id="a_node41"><a xlink:href="classGameRules.html#a07b29e4691299df2cfe680af7a59262b" target="_top" xlink:title=" ">
<polygon fill="white" stroke="black" points="297,-0.5 297,-19.5 459,-19.5 459,-0.5 297,-0.5"/>
<text text-anchor="middle" x="378" y="-7.5" font-family="Helvetica,sans-Serif" font-size="10.00">GameRules::update_threefold</text>
</a>
</g>
</g>
<!-- Node3&#45;&gt;Node41 -->
<g id="edge54" class="edge">
<title>Node3&#45;&gt;Node41</title>
<path fill="none" stroke="midnightblue" d="M248.42,-183.48C253.13,-181.01 257.5,-177.9 261,-174 305.3,-124.54 249.81,-75.71 297,-29 298.45,-27.57 299.98,-26.24 301.58,-25"/>
<polygon fill="midnightblue" stroke="midnightblue" points="303.58,-27.88 310.15,-19.57 299.83,-21.97 303.58,-27.88"/>
</g>
<!-- Node5 -->
<g id="node5" class="node">
<title>Node5</title>
<g id="a_node5"><a xlink:href="classApplication.html#a162a3f466352b474a10516c7f0b0ae9a" target="_top" xlink:title=" ">
<polygon fill="white" stroke="black" points="495,-308.5 495,-327.5 626,-327.5 626,-308.5 495,-308.5"/>
<text text-anchor="middle" x="560.5" y="-315.5" font-family="Helvetica,sans-Serif" font-size="10.00">Application::play_move</text>
</a>
</g>
</g>
<!-- Node4&#45;&gt;Node5 -->
<g id="edge4" class="edge">
<title>Node4&#45;&gt;Node5</title>
<path fill="none" stroke="midnightblue" d="M434.63,-327.69C450.41,-326.46 467.86,-325.11 484.59,-323.81"/>
<polygon fill="midnightblue" stroke="midnightblue" points="485.19,-327.27 494.88,-323.01 484.64,-320.3 485.19,-327.27"/>
</g>
<!-- Node6 -->
<g id="node6" class="node">
<title>Node6</title>
<g id="a_node6"><a xlink:href="classRules.html#abd9b013ebba58f9757336a20b2c6bf8e" target="_top" xlink:title="Checks if king is in check.">
<polygon fill="white" stroke="black" points="825,-370.5 825,-389.5 914,-389.5 914,-370.5 825,-370.5"/>
<text text-anchor="middle" x="869.5" y="-377.5" font-family="Helvetica,sans-Serif" font-size="10.00">Rules::checked</text>
</a>
</g>
</g>
<!-- Node5&#45;&gt;Node6 -->
<g id="edge5" class="edge">
<title>Node5&#45;&gt;Node6</title>
<path fill="none" stroke="midnightblue" d="M579.06,-327.52C598.67,-337.67 631.64,-353.31 662,-361 712.78,-373.86 772.55,-378.24 814.68,-379.62"/>
<polygon fill="midnightblue" stroke="midnightblue" points="814.63,-383.12 824.73,-379.91 814.83,-376.13 814.63,-383.12"/>
</g>
<!-- Node10 -->
<g id="node10" class="node">
<title>Node10</title>
<g id="a_node10"><a xlink:href="classRules.html#a4ec21c1bd51c73135ed26eafa0da58d3" target="_top" xlink:title="Checks if king is in checkmate.">
<polygon fill="white" stroke="black" points="662,-332.5 662,-351.5 766,-351.5 766,-332.5 662,-332.5"/>
<text text-anchor="middle" x="714" y="-339.5" font-family="Helvetica,sans-Serif" font-size="10.00">Rules::checkmate</text>
</a>
</g>
</g>
<!-- Node5&#45;&gt;Node10 -->
<g id="edge9" class="edge">
<title>Node5&#45;&gt;Node10</title>
<path fill="none" stroke="midnightblue" d="M621.81,-327.55C631.61,-329.11 641.77,-330.72 651.59,-332.27"/>
<polygon fill="midnightblue" stroke="midnightblue" points="651.26,-335.76 661.68,-333.87 652.35,-328.85 651.26,-335.76"/>
</g>
<!-- Node11 -->
<g id="node11" class="node">
<title>Node11</title>
<g id="a_node11"><a xlink:href="classMove.html#a3765dcce8a7c18e0c2f7ce42c98fa2ba" target="_top" xlink:title="Makes move with piece.">
<polygon fill="white" stroke="black" points="814.5,-218.5 814.5,-237.5 924.5,-237.5 924.5,-218.5 814.5,-218.5"/>
<text text-anchor="middle" x="869.5" y="-225.5" font-family="Helvetica,sans-Serif" font-size="10.00">Move::make_move</text>
</a>
</g>
</g>
<!-- Node5&#45;&gt;Node11 -->
<g id="edge30" class="edge">
<title>Node5&#45;&gt;Node11</title>
<path fill="none" stroke="midnightblue" d="M571.3,-308.32C588.17,-292.34 624.52,-260.83 662,-247 707.56,-230.19 762.43,-225.82 804.16,-225.45"/>
<polygon fill="midnightblue" stroke="midnightblue" points="804.21,-228.95 814.2,-225.43 804.2,-221.95 804.21,-228.95"/>
</g>
<!-- Node17 -->
<g id="node17" class="node">
<title>Node17</title>
<g id="a_node17"><a xlink:href="classMove.html#afbed08d3294e3c7913dd27c3d6afd283" target="_top" xlink:title="Undo move.">
<polygon fill="white" stroke="black" points="816,-294.5 816,-313.5 923,-313.5 923,-294.5 816,-294.5"/>
<text text-anchor="middle" x="869.5" y="-301.5" font-family="Helvetica,sans-Serif" font-size="10.00">Move::undo_move</text>
</a>
</g>
</g>
<!-- Node5&#45;&gt;Node17 -->
<g id="edge32" class="edge">
<title>Node5&#45;&gt;Node17</title>
<path fill="none" stroke="midnightblue" d="M626.23,-315.05C679.01,-312.64 753.11,-309.26 805.43,-306.88"/>
<polygon fill="midnightblue" stroke="midnightblue" points="805.76,-310.36 815.59,-306.41 805.44,-303.37 805.76,-310.36"/>
</g>
<!-- Node18 -->
<g id="node18" class="node">
<title>Node18</title>
<g id="a_node18"><a xlink:href="classValidate.html#afe077c5b0107ffc1c42670e233257b9c" target="_top" xlink:title="Validates move.">
<polygon fill="white" stroke="black" points="802,-446.5 802,-465.5 937,-465.5 937,-446.5 802,-446.5"/>
<text text-anchor="middle" x="869.5" y="-453.5" font-family="Helvetica,sans-Serif" font-size="10.00">Validate::validate_move</text>
</a>
</g>
</g>
<!-- Node5&#45;&gt;Node18 -->
<g id="edge33" class="edge">
<title>Node5&#45;&gt;Node18</title>
<path fill="none" stroke="midnightblue" d="M571.04,-327.66C583.96,-340.88 607.51,-365.55 626,-388 643.18,-408.86 638.47,-423.7 662,-437 700.86,-458.97 750.52,-464.11 791.4,-463.58"/>
<polygon fill="midnightblue" stroke="midnightblue" points="791.68,-467.07 801.59,-463.32 791.51,-460.07 791.68,-467.07"/>
</g>
<!-- Node22 -->
<g id="node22" class="node">
<title>Node22</title>
<g id="a_node22"><a xlink:href="classPlayer.html#afca2a1d6d42d2f3a04abb9ab5bc3d323" target="_top" xlink:title="Gets player&#39;s move.">
<polygon fill="white" stroke="black" points="663,-256.5 663,-275.5 765,-275.5 765,-256.5 663,-256.5"/>
<text text-anchor="middle" x="714" y="-263.5" font-family="Helvetica,sans-Serif" font-size="10.00">Player::get_move</text>
</a>
</g>
</g>
<!-- Node5&#45;&gt;Node22 -->
<g id="edge29" class="edge">
<title>Node5&#45;&gt;Node22</title>
<path fill="none" stroke="midnightblue" d="M589.29,-308.46C613.45,-300.17 648.67,-288.08 675.36,-278.92"/>
<polygon fill="midnightblue" stroke="midnightblue" points="676.81,-282.12 685.13,-275.57 674.54,-275.5 676.81,-282.12"/>
</g>
<!-- Node23 -->
<g id="node23" class="node">
<title>Node23</title>
<g id="a_node23"><a xlink:href="classApplication.html#afef57a39fdd32b4c10464d8a9d979816" target="_top" xlink:title="Prints who plays next.">
<polygon fill="white" stroke="black" points="664,-169 664,-199 764,-199 764,-169 664,-169"/>
<text text-anchor="start" x="672" y="-187" font-family="Helvetica,sans-Serif" font-size="10.00">Application::print</text>
<text text-anchor="middle" x="714" y="-176" font-family="Helvetica,sans-Serif" font-size="10.00">_color</text>
</a>
</g>
</g>
<!-- Node5&#45;&gt;Node23 -->
<g id="edge31" class="edge">
<title>Node5&#45;&gt;Node23</title>
<path fill="none" stroke="midnightblue" d="M569.35,-308.26C585.36,-288.78 623.54,-244.29 662,-214 666.29,-210.62 670.99,-207.36 675.75,-204.3"/>
<polygon fill="midnightblue" stroke="midnightblue" points="677.62,-207.26 684.32,-199.04 673.96,-201.29 677.62,-207.26"/>
</g>
<!-- Node7 -->
<g id="node7" class="node">
<title>Node7</title>
<g id="a_node7"><a xlink:href="classValidate.html#a3e4b7f61bff7ee9d7d839ead34d2d61f" target="_top" xlink:title="Checks if square is empty.">
<polygon fill="white" stroke="black" points="1180.5,-370.5 1180.5,-389.5 1287.5,-389.5 1287.5,-370.5 1180.5,-370.5"/>
<text text-anchor="middle" x="1234" y="-377.5" font-family="Helvetica,sans-Serif" font-size="10.00">Validate::is_empty</text>
</a>
</g>
</g>
<!-- Node6&#45;&gt;Node7 -->
<g id="edge6" class="edge">
<title>Node6&#45;&gt;Node7</title>
<path fill="none" stroke="midnightblue" d="M914.23,-380C978.07,-380 1097.15,-380 1170.31,-380"/>
<polygon fill="midnightblue" stroke="midnightblue" points="1170.32,-383.5 1180.32,-380 1170.32,-376.5 1170.32,-383.5"/>
</g>
<!-- Node8 -->
<g id="node8" class="node">
<title>Node8</title>
<g id="a_node8"><a xlink:href="classValidate.html#ab5ba0f592c1cd28a57deab9ef608f2df" target="_top" xlink:title="Checks if piece is same color as player.">
<polygon fill="white" stroke="black" points="1168,-408.5 1168,-427.5 1300,-427.5 1300,-408.5 1168,-408.5"/>
<text text-anchor="middle" x="1234" y="-415.5" font-family="Helvetica,sans-Serif" font-size="10.00">Validate::is_same_color</text>
</a>
</g>
</g>
<!-- Node6&#45;&gt;Node8 -->
<g id="edge7" class="edge">
<title>Node6&#45;&gt;Node8</title>
<path fill="none" stroke="midnightblue" d="M914.09,-386.38C932.28,-388.93 953.64,-391.79 973,-394 1035.07,-401.1 1105.66,-407.51 1157.61,-411.92"/>
<polygon fill="midnightblue" stroke="midnightblue" points="1157.48,-415.42 1167.74,-412.77 1158.07,-408.44 1157.48,-415.42"/>
</g>
<!-- Node9 -->
<g id="node9" class="node">
<title>Node9</title>
<g id="a_node9"><a xlink:href="classValidate.html#a50364e1735875d1d74e7eb251b3fd7e5" target="_top" xlink:title="Validates position.">
<polygon fill="white" stroke="black" points="987,-332.5 987,-351.5 1118,-351.5 1118,-332.5 987,-332.5"/>
<text text-anchor="middle" x="1052.5" y="-339.5" font-family="Helvetica,sans-Serif" font-size="10.00">Validate::valid_position</text>
</a>
</g>
</g>
<!-- Node6&#45;&gt;Node9 -->
<g id="edge8" class="edge">
<title>Node6&#45;&gt;Node9</title>
<path fill="none" stroke="midnightblue" d="M914.32,-370.8C938.99,-365.62 970.05,-359.1 996.37,-353.58"/>
<polygon fill="midnightblue" stroke="midnightblue" points="997.13,-356.99 1006.2,-351.51 995.69,-350.14 997.13,-356.99"/>
</g>
<!-- Node10&#45;&gt;Node6 -->
<g id="edge10" class="edge">
<title>Node10&#45;&gt;Node6</title>
<path fill="none" stroke="midnightblue" d="M753.73,-351.59C773.9,-356.58 798.75,-362.73 820.16,-368.03"/>
<polygon fill="midnightblue" stroke="midnightblue" points="819.5,-371.47 830.04,-370.48 821.18,-364.68 819.5,-371.47"/>
</g>
<!-- Node10&#45;&gt;Node9 -->
<g id="edge22" class="edge">
<title>Node10&#45;&gt;Node9</title>
<path fill="none" stroke="midnightblue" d="M766.11,-342C822.22,-342 912.83,-342 976.88,-342"/>
<polygon fill="midnightblue" stroke="midnightblue" points="976.92,-345.5 986.92,-342 976.92,-338.5 976.92,-345.5"/>
</g>
<!-- Node10&#45;&gt;Node11 -->
<g id="edge11" class="edge">
<title>Node10&#45;&gt;Node11</title>
<path fill="none" stroke="midnightblue" d="M727.82,-332.48C754.17,-312.91 814.63,-268.01 847.04,-243.94"/>
<polygon fill="midnightblue" stroke="midnightblue" points="849.45,-246.51 855.39,-237.74 845.27,-240.89 849.45,-246.51"/>
</g>
<!-- Node10&#45;&gt;Node17 -->
<g id="edge20" class="edge">
<title>Node10&#45;&gt;Node17</title>
<path fill="none" stroke="midnightblue" d="M753.73,-332.41C773.9,-327.42 798.75,-321.27 820.16,-315.97"/>
<polygon fill="midnightblue" stroke="midnightblue" points="821.18,-319.32 830.04,-313.52 819.5,-312.53 821.18,-319.32"/>
</g>
<!-- Node10&#45;&gt;Node18 -->
<g id="edge23" class="edge">
<title>Node10&#45;&gt;Node18</title>
<path fill="none" stroke="midnightblue" d="M727.82,-351.52C754.17,-371.09 814.63,-415.99 847.04,-440.06"/>
<polygon fill="midnightblue" stroke="midnightblue" points="845.27,-443.11 855.39,-446.26 849.45,-437.49 845.27,-443.11"/>
</g>
<!-- Node12 -->
<g id="node12" class="node">
<title>Node12</title>
<g id="a_node12"><a xlink:href="classPlayer.html#a42e54e616455af5d9d4b6dea514ba7a0" target="_top" xlink:title="Checks player&#39;s pawn promotion.">
<polygon fill="white" stroke="black" points="990,-256.5 990,-275.5 1115,-275.5 1115,-256.5 990,-256.5"/>
<text text-anchor="middle" x="1052.5" y="-263.5" font-family="Helvetica,sans-Serif" font-size="10.00">Player::get_promotion</text>
</a>
</g>
</g>
<!-- Node11&#45;&gt;Node12 -->
<g id="edge12" class="edge">
<title>Node11&#45;&gt;Node12</title>
<path fill="none" stroke="midnightblue" d="M916.17,-237.59C940.49,-242.69 970.58,-249.01 996.21,-254.39"/>
<polygon fill="midnightblue" stroke="midnightblue" points="995.65,-257.85 1006.15,-256.48 997.09,-251 995.65,-257.85"/>
</g>
<!-- Node13 -->
<g id="node13" class="node">
<title>Node13</title>
<g id="a_node13"><a xlink:href="classMove.html#a5472b83ec6bcde0fd8c16c4508896ccd" target="_top" xlink:title="Handles casting.">
<polygon fill="white" stroke="black" points="989.5,-180.5 989.5,-199.5 1115.5,-199.5 1115.5,-180.5 989.5,-180.5"/>
<text text-anchor="middle" x="1052.5" y="-187.5" font-family="Helvetica,sans-Serif" font-size="10.00">Move::handle_castling</text>
</a>
</g>
</g>
<!-- Node11&#45;&gt;Node13 -->
<g id="edge13" class="edge">
<title>Node11&#45;&gt;Node13</title>
<path fill="none" stroke="midnightblue" d="M916.17,-218.41C940.49,-213.31 970.58,-206.99 996.21,-201.61"/>
<polygon fill="midnightblue" stroke="midnightblue" points="997.09,-205 1006.15,-199.52 995.65,-198.15 997.09,-205"/>
</g>
<!-- Node14 -->
<g id="node14" class="node">
<title>Node14</title>
<g id="a_node14"><a xlink:href="classMove.html#a5a18864c15112c49e5a93dbee3f83d1c" target="_top" xlink:title="Moves piece from start to end.">
<polygon fill="white" stroke="black" points="1179.5,-189.5 1179.5,-208.5 1288.5,-208.5 1288.5,-189.5 1179.5,-189.5"/>
<text text-anchor="middle" x="1234" y="-196.5" font-family="Helvetica,sans-Serif" font-size="10.00">Move::move_piece</text>
</a>
</g>
</g>
<!-- Node11&#45;&gt;Node14 -->
<g id="edge15" class="edge">
<title>Node11&#45;&gt;Node14</title>
<path fill="none" stroke="midnightblue" d="M924.62,-224.48C977.53,-220.95 1060.34,-215.15 1132,-209 1144,-207.97 1156.79,-206.78 1169.1,-205.58"/>
<polygon fill="midnightblue" stroke="midnightblue" points="1169.69,-209.04 1179.3,-204.58 1169,-202.07 1169.69,-209.04"/>
</g>
<!-- Node15 -->
<g id="node15" class="node">
<title>Node15</title>
<g id="a_node15"><a xlink:href="classMove.html#a9a242db5d52827dd11f81a6aa46e339e" target="_top" xlink:title="Handles pawn promotion.">
<polygon fill="white" stroke="black" points="1002.5,-142.5 1002.5,-161.5 1102.5,-161.5 1102.5,-142.5 1002.5,-142.5"/>
<text text-anchor="middle" x="1052.5" y="-149.5" font-family="Helvetica,sans-Serif" font-size="10.00">Move::promotion</text>
</a>
</g>
</g>
<!-- Node11&#45;&gt;Node15 -->
<g id="edge16" class="edge">
<title>Node11&#45;&gt;Node15</title>
<path fill="none" stroke="midnightblue" d="M884.82,-218.39C904.1,-205.84 939.81,-183.97 973,-171 979.41,-168.5 986.24,-166.26 993.1,-164.27"/>
<polygon fill="midnightblue" stroke="midnightblue" points="994.4,-167.54 1003.12,-161.54 992.56,-160.79 994.4,-167.54"/>
</g>
<!-- Node16 -->
<g id="node16" class="node">
<title>Node16</title>
<g id="a_node16"><a xlink:href="classPlayer.html#a620bf4cb1907eafdbcd9252a750ffa8f" target="_top" xlink:title="Update piece&#39;s position on chess board.">
<polygon fill="white" stroke="black" points="1172,-132.5 1172,-151.5 1296,-151.5 1296,-132.5 1172,-132.5"/>
<text text-anchor="middle" x="1234" y="-139.5" font-family="Helvetica,sans-Serif" font-size="10.00">Player::update_pieces</text>
</a>
</g>
</g>
<!-- Node11&#45;&gt;Node16 -->
<g id="edge19" class="edge">
<title>Node11&#45;&gt;Node16</title>
<path fill="none" stroke="midnightblue" d="M877.01,-218.28C891.42,-197.78 928.28,-150.54 973,-133 1044.5,-104.96 1135.73,-118.14 1188.93,-130.15"/>
<polygon fill="midnightblue" stroke="midnightblue" points="1188.19,-133.58 1198.72,-132.45 1189.79,-126.76 1188.19,-133.58"/>
</g>
<!-- Node13&#45;&gt;Node14 -->
<g id="edge14" class="edge">
<title>Node13&#45;&gt;Node14</title>
<path fill="none" stroke="midnightblue" d="M1115.53,-193.11C1132.89,-193.98 1151.79,-194.93 1169.26,-195.8"/>
<polygon fill="midnightblue" stroke="midnightblue" points="1169.19,-199.3 1179.35,-196.31 1169.54,-192.31 1169.19,-199.3"/>
</g>
<!-- Node15&#45;&gt;Node14 -->
<g id="edge17" class="edge">
<title>Node15&#45;&gt;Node14</title>
<path fill="none" stroke="midnightblue" d="M1093.9,-161.51C1106.16,-164.47 1119.65,-167.79 1132,-171 1150.85,-175.89 1171.58,-181.59 1189.34,-186.56"/>
<polygon fill="midnightblue" stroke="midnightblue" points="1188.83,-190.05 1199.41,-189.39 1190.73,-183.31 1188.83,-190.05"/>
</g>
<!-- Node15&#45;&gt;Node16 -->
<g id="edge18" class="edge">
<title>Node15&#45;&gt;Node16</title>
<path fill="none" stroke="midnightblue" d="M1102.55,-149.27C1120.76,-148.25 1141.8,-147.08 1161.6,-145.98"/>
<polygon fill="midnightblue" stroke="midnightblue" points="1162.03,-149.46 1171.82,-145.41 1161.64,-142.47 1162.03,-149.46"/>
</g>
<!-- Node17&#45;&gt;Node14 -->
<g id="edge21" class="edge">
<title>Node17&#45;&gt;Node14</title>
<path fill="none" stroke="midnightblue" d="M923.03,-309.52C977.44,-313.14 1063.87,-312.92 1132,-285 1168.34,-270.11 1201.07,-236.9 1218.89,-216.39"/>
<polygon fill="midnightblue" stroke="midnightblue" points="1221.59,-218.61 1225.37,-208.71 1216.25,-214.09 1221.59,-218.61"/>
</g>
<!-- Node19 -->
<g id="node19" class="node">
<title>Node19</title>
<g id="a_node19"><a xlink:href="classValidate.html#ac11fdbf661a340f903a8a8b581710c34" target="_top" xlink:title="Finds all possible moves for piece.">
<polygon fill="white" stroke="black" points="973,-446.5 973,-465.5 1132,-465.5 1132,-446.5 973,-446.5"/>
<text text-anchor="middle" x="1052.5" y="-453.5" font-family="Helvetica,sans-Serif" font-size="10.00">Validate::find_possible_move</text>
</a>
</g>
</g>
<!-- Node18&#45;&gt;Node19 -->
<g id="edge24" class="edge">
<title>Node18&#45;&gt;Node19</title>
<path fill="none" stroke="midnightblue" d="M937.13,-456C945.46,-456 954.08,-456 962.68,-456"/>
<polygon fill="midnightblue" stroke="midnightblue" points="962.75,-459.5 972.75,-456 962.75,-452.5 962.75,-459.5"/>
</g>
<!-- Node21 -->
<g id="node21" class="node">
<title>Node21</title>
<g id="a_node21"><a xlink:href="classValidate.html#a6c88b44fd5d40b6aba0812e2d23d8f04" target="_top" xlink:title="Checks if castling is valid.">
<polygon fill="white" stroke="black" points="987.5,-484.5 987.5,-503.5 1117.5,-503.5 1117.5,-484.5 987.5,-484.5"/>
<text text-anchor="middle" x="1052.5" y="-491.5" font-family="Helvetica,sans-Serif" font-size="10.00">Validate::valid_castling</text>
</a>
</g>
</g>
<!-- Node18&#45;&gt;Node21 -->
<g id="edge28" class="edge">
<title>Node18&#45;&gt;Node21</title>
<path fill="none" stroke="midnightblue" d="M916.17,-465.59C940.49,-470.69 970.58,-477.01 996.21,-482.39"/>
<polygon fill="midnightblue" stroke="midnightblue" points="995.65,-485.85 1006.15,-484.48 997.09,-479 995.65,-485.85"/>
</g>
<!-- Node19&#45;&gt;Node7 -->
<g id="edge26" class="edge">
<title>Node19&#45;&gt;Node7</title>
<path fill="none" stroke="midnightblue" d="M1070.52,-446.33C1092.51,-434.11 1132.23,-413 1168,-399 1173.89,-396.69 1180.18,-394.52 1186.43,-392.52"/>
<polygon fill="midnightblue" stroke="midnightblue" points="1187.64,-395.81 1196.18,-389.53 1185.59,-389.12 1187.64,-395.81"/>
</g>
<!-- Node19&#45;&gt;Node8 -->
<g id="edge27" class="edge">
<title>Node19&#45;&gt;Node8</title>
<path fill="none" stroke="midnightblue" d="M1098.8,-446.41C1122.91,-441.31 1152.75,-434.99 1178.17,-429.61"/>
<polygon fill="midnightblue" stroke="midnightblue" points="1178.97,-433.02 1188.03,-427.52 1177.52,-426.17 1178.97,-433.02"/>
</g>
<!-- Node20 -->
<g id="node20" class="node">
<title>Node20</title>
<g id="a_node20"><a xlink:href="classValidate.html#aa7766a323b9443c69e62a05d04f0b217" target="_top" xlink:title="Finds if move is legit.">
<polygon fill="white" stroke="black" points="1177.5,-446.5 1177.5,-465.5 1290.5,-465.5 1290.5,-446.5 1177.5,-446.5"/>
<text text-anchor="middle" x="1234" y="-453.5" font-family="Helvetica,sans-Serif" font-size="10.00">Validate::find_move</text>
</a>
</g>
</g>
<!-- Node19&#45;&gt;Node20 -->
<g id="edge25" class="edge">
<title>Node19&#45;&gt;Node20</title>
<path fill="none" stroke="midnightblue" d="M1132.23,-456C1143.84,-456 1155.7,-456 1167.02,-456"/>
<polygon fill="midnightblue" stroke="midnightblue" points="1167.24,-459.5 1177.24,-456 1167.24,-452.5 1167.24,-459.5"/>
</g>
<!-- Node30 -->
<g id="node30" class="node">
<title>Node30</title>
<g id="a_node30"><a xlink:href="classFile__manager.html#a700ed2e80892dd11ec00b150b991db71" target="_top" xlink:title="Checks if file name ends with .txt.">
<polygon fill="white" stroke="black" points="504.5,-71 504.5,-101 616.5,-101 616.5,-71 504.5,-71"/>
<text text-anchor="start" x="512.5" y="-89" font-family="Helvetica,sans-Serif" font-size="10.00">File_manager::ends</text>
<text text-anchor="middle" x="560.5" y="-78" font-family="Helvetica,sans-Serif" font-size="10.00">_with_txt</text>
</a>
</g>
</g>
<!-- Node29&#45;&gt;Node30 -->
<g id="edge40" class="edge">
<title>Node29&#45;&gt;Node30</title>
<path fill="none" stroke="midnightblue" d="M444.16,-86C460.32,-86 477.64,-86 493.81,-86"/>
<polygon fill="midnightblue" stroke="midnightblue" points="494.26,-89.5 504.26,-86 494.26,-82.5 494.26,-89.5"/>
</g>
<!-- Node31 -->
<g id="node31" class="node">
<title>Node31</title>
<g id="a_node31"><a xlink:href="classFEN.html#a42da90e2b44ecb011e7ec0d86015dffd" target="_top" xlink:title="Gets FEN notation.">
<polygon fill="white" stroke="black" points="519,-32.5 519,-51.5 602,-51.5 602,-32.5 519,-32.5"/>
<text text-anchor="middle" x="560.5" y="-39.5" font-family="Helvetica,sans-Serif" font-size="10.00">FEN::get_FEN</text>
</a>
</g>
</g>
<!-- Node29&#45;&gt;Node31 -->
<g id="edge41" class="edge">
<title>Node29&#45;&gt;Node31</title>
<path fill="none" stroke="midnightblue" d="M419.72,-76.42C432.32,-73.43 446.24,-70.1 459,-67 476.07,-62.85 494.75,-58.22 511.33,-54.09"/>
<polygon fill="midnightblue" stroke="midnightblue" points="512.49,-57.41 521.35,-51.59 510.8,-50.62 512.49,-57.41"/>
</g>
<!-- Node37 -->
<g id="node37" class="node">
<title>Node37</title>
<g id="a_node37"><a xlink:href="classFile__manager.html#a5492c26ed8d51b69935173acf8688e80" target="_top" xlink:title="List all files in directory.">
<polygon fill="white" stroke="black" points="508.5,-120 508.5,-150 612.5,-150 612.5,-120 508.5,-120"/>
<text text-anchor="start" x="516.5" y="-138" font-family="Helvetica,sans-Serif" font-size="10.00">File_manager::list</text>
<text text-anchor="middle" x="560.5" y="-127" font-family="Helvetica,sans-Serif" font-size="10.00">_directory</text>
</a>
</g>
</g>
<!-- Node29&#45;&gt;Node37 -->
<g id="edge47" class="edge">
<title>Node29&#45;&gt;Node37</title>
<path fill="none" stroke="midnightblue" d="M418.54,-95.59C431.46,-98.8 445.87,-102.46 459,-106 471.93,-109.48 485.74,-113.36 498.86,-117.12"/>
<polygon fill="midnightblue" stroke="midnightblue" points="498.15,-120.56 508.73,-119.97 500.09,-113.83 498.15,-120.56"/>
</g>
<!-- Node32 -->
<g id="node32" class="node">
<title>Node32</title>
<g id="a_node32"><a xlink:href="classInput__handler.html#a7987d8ac8708c84676dd60936341bd8c" target="_top" xlink:title="Converts int to char.">
<polygon fill="white" stroke="black" points="663,-58 663,-88 765,-88 765,-58 663,-58"/>
<text text-anchor="start" x="671" y="-76" font-family="Helvetica,sans-Serif" font-size="10.00">Input_handler::int</text>
<text text-anchor="middle" x="714" y="-65" font-family="Helvetica,sans-Serif" font-size="10.00">_to_coordinates</text>
</a>
</g>
</g>
<!-- Node31&#45;&gt;Node32 -->
<g id="edge42" class="edge">
<title>Node31&#45;&gt;Node32</title>
<path fill="none" stroke="midnightblue" d="M602.1,-50.31C617.71,-53.5 635.87,-57.22 652.92,-60.71"/>
<polygon fill="midnightblue" stroke="midnightblue" points="652.31,-64.15 662.81,-62.73 653.72,-57.3 652.31,-64.15"/>
</g>
<!-- Node33 -->
<g id="node33" class="node">
<title>Node33</title>
<g id="a_node33"><a xlink:href="classFEN.html#aa59029cbcd63802d3dddd5523f3702e9" target="_top" xlink:title="Save piece.">
<polygon fill="white" stroke="black" points="663,-19.5 663,-38.5 765,-38.5 765,-19.5 663,-19.5"/>
<text text-anchor="middle" x="714" y="-26.5" font-family="Helvetica,sans-Serif" font-size="10.00">FEN::save_pieces</text>
</a>
</g>
</g>
<!-- Node31&#45;&gt;Node33 -->
<g id="edge43" class="edge">
<title>Node31&#45;&gt;Node33</title>
<path fill="none" stroke="midnightblue" d="M602.1,-38.52C617.56,-37.19 635.53,-35.65 652.45,-34.2"/>
<polygon fill="midnightblue" stroke="midnightblue" points="653.15,-37.65 662.81,-33.31 652.55,-30.67 653.15,-37.65"/>
</g>
<!-- Node34 -->
<g id="node34" class="node">
<title>Node34</title>
<g id="a_node34"><a xlink:href="classFEN.html#a0bfe254b9c0c3e163aecf70582e47761" target="_top" xlink:title="Gets types of piece.">
<polygon fill="white" stroke="black" points="802,-19.5 802,-38.5 937,-38.5 937,-19.5 802,-19.5"/>
<text text-anchor="middle" x="869.5" y="-26.5" font-family="Helvetica,sans-Serif" font-size="10.00">FEN::get_piece_notation</text>
</a>
</g>
</g>
<!-- Node33&#45;&gt;Node34 -->
<g id="edge44" class="edge">
<title>Node33&#45;&gt;Node34</title>
<path fill="none" stroke="midnightblue" d="M765.26,-29C773.77,-29 782.78,-29 791.79,-29"/>
<polygon fill="midnightblue" stroke="midnightblue" points="791.93,-32.5 801.93,-29 791.93,-25.5 791.93,-32.5"/>
</g>
<!-- Node35 -->
<g id="node35" class="node">
<title>Node35</title>
<g id="a_node35"><a xlink:href="classPiece.html#a5a18c08757a0eccdc6fd0686d4db6743" target="_top" xlink:title=" ">
<polygon fill="white" stroke="black" points="1005.5,-38.5 1005.5,-57.5 1099.5,-57.5 1099.5,-38.5 1005.5,-38.5"/>
<text text-anchor="middle" x="1052.5" y="-45.5" font-family="Helvetica,sans-Serif" font-size="10.00">Piece::get_color</text>
</a>
</g>
</g>
<!-- Node34&#45;&gt;Node35 -->
<g id="edge45" class="edge">
<title>Node34&#45;&gt;Node35</title>
<path fill="none" stroke="midnightblue" d="M937.13,-35.99C956.26,-38 976.93,-40.17 995.37,-42.11"/>
<polygon fill="midnightblue" stroke="midnightblue" points="995.04,-45.59 1005.36,-43.16 995.78,-38.63 995.04,-45.59"/>
</g>
<!-- Node36 -->
<g id="node36" class="node">
<title>Node36</title>
<g id="a_node36"><a xlink:href="classPiece.html#af5e0b1b9ea85bcb3e61bb180005aa28a" target="_top" xlink:title=" ">
<polygon fill="white" stroke="black" points="1004.5,-0.5 1004.5,-19.5 1100.5,-19.5 1100.5,-0.5 1004.5,-0.5"/>
<text text-anchor="middle" x="1052.5" y="-7.5" font-family="Helvetica,sans-Serif" font-size="10.00">Piece::get_piece</text>
</a>
</g>
</g>
<!-- Node34&#45;&gt;Node36 -->
<g id="edge46" class="edge">
<title>Node34&#45;&gt;Node36</title>
<path fill="none" stroke="midnightblue" d="M937.13,-22.01C955.84,-20.04 976.01,-17.92 994.13,-16.02"/>
<polygon fill="midnightblue" stroke="midnightblue" points="994.67,-19.49 1004.25,-14.96 993.94,-12.52 994.67,-19.49"/>
</g>
<!-- Node39 -->
<g id="node39" class="node">
<title>Node39</title>
<g id="a_node39"><a xlink:href="classRules.html#ac508b22d87dddf5225cf154785618413" target="_top" xlink:title="Check if stalemate occurs.">
<polygon fill="white" stroke="black" points="664.5,-408.5 664.5,-427.5 763.5,-427.5 763.5,-408.5 664.5,-408.5"/>
<text text-anchor="middle" x="714" y="-415.5" font-family="Helvetica,sans-Serif" font-size="10.00">Rules::stalemate</text>
</a>
</g>
</g>
<!-- Node38&#45;&gt;Node39 -->
<g id="edge49" class="edge">
<title>Node38&#45;&gt;Node39</title>
<path fill="none" stroke="midnightblue" d="M624.87,-411.6C634.52,-412.3 644.44,-413.02 653.99,-413.72"/>
<polygon fill="midnightblue" stroke="midnightblue" points="653.94,-417.22 664.17,-414.45 654.45,-410.24 653.94,-417.22"/>
</g>
<!-- Node39&#45;&gt;Node6 -->
<g id="edge50" class="edge">
<title>Node39&#45;&gt;Node6</title>
<path fill="none" stroke="midnightblue" d="M753.73,-408.41C773.9,-403.42 798.75,-397.27 820.16,-391.97"/>
<polygon fill="midnightblue" stroke="midnightblue" points="821.18,-395.32 830.04,-389.52 819.5,-388.53 821.18,-395.32"/>
</g>
<!-- Node39&#45;&gt;Node9 -->
<g id="edge51" class="edge">
<title>Node39&#45;&gt;Node9</title>
<path fill="none" stroke="midnightblue" d="M763.56,-419.03C809.17,-418.8 878.9,-415.31 937,-399 970.3,-389.65 1005.46,-370.58 1027.89,-357.08"/>
<polygon fill="midnightblue" stroke="midnightblue" points="1030,-359.89 1036.69,-351.68 1026.33,-353.93 1030,-359.89"/>
</g>
<!-- Node39&#45;&gt;Node18 -->
<g id="edge52" class="edge">
<title>Node39&#45;&gt;Node18</title>
<path fill="none" stroke="midnightblue" d="M753.73,-427.59C773.9,-432.58 798.75,-438.73 820.16,-444.03"/>
<polygon fill="midnightblue" stroke="midnightblue" points="819.5,-447.47 830.04,-446.48 821.18,-440.68 819.5,-447.47"/>
</g>
</g>
</svg>
