<?xml version="1.0" encoding="UTF-8" standalone="no"?>
<!DOCTYPE svg PUBLIC "-//W3C//DTD SVG 1.1//EN"
 "http://www.w3.org/Graphics/SVG/1.1/DTD/svg11.dtd">
<!-- Generated by graphviz version 2.43.0 (0)
 -->
<!-- Title: src/custom_ai.h Pages: 1 -->
<svg width="719pt" height="420pt"
 viewBox="0.00 0.00 719.00 420.00" xmlns="http://www.w3.org/2000/svg" xmlns:xlink="http://www.w3.org/1999/xlink">
<g id="graph0" class="graph" transform="scale(1 1) rotate(0) translate(4 416)">
<title>src/custom_ai.h</title>
<polygon fill="white" stroke="transparent" points="-4,4 -4,-416 715,-416 715,4 -4,4"/>
<!-- Node1 -->
<g id="node1" class="node">
<title>Node1</title>
<g id="a_node1"><a xlink:title=" ">
<polygon fill="#bfbfbf" stroke="black" points="242.5,-392.5 242.5,-411.5 335.5,-411.5 335.5,-392.5 242.5,-392.5"/>
<text text-anchor="middle" x="289" y="-399.5" font-family="Helvetica,sans-Serif" font-size="10.00">src/custom_ai.h</text>
</a>
</g>
</g>
<!-- Node2 -->
<g id="node2" class="node">
<title>Node2</title>
<g id="a_node2"><a xlink:href="player_8h.html" target="_top" xlink:title=" ">
<polygon fill="white" stroke="black" points="234,-280.5 234,-299.5 290,-299.5 290,-280.5 234,-280.5"/>
<text text-anchor="middle" x="262" y="-287.5" font-family="Helvetica,sans-Serif" font-size="10.00">player.h</text>
</a>
</g>
</g>
<!-- Node1&#45;&gt;Node2 -->
<g id="edge1" class="edge">
<title>Node1&#45;&gt;Node2</title>
<path fill="none" stroke="midnightblue" d="M286.88,-392.37C282.52,-374.62 272.47,-333.67 266.56,-309.6"/>
<polygon fill="midnightblue" stroke="midnightblue" points="269.89,-308.47 264.11,-299.59 263.09,-310.14 269.89,-308.47"/>
</g>
<!-- Node16 -->
<g id="node16" class="node">
<title>Node16</title>
<g id="a_node16"><a xlink:href="move_8h.html" target="_top" xlink:title=" ">
<polygon fill="white" stroke="black" points="290.5,-336.5 290.5,-355.5 343.5,-355.5 343.5,-336.5 290.5,-336.5"/>
<text text-anchor="middle" x="317" y="-343.5" font-family="Helvetica,sans-Serif" font-size="10.00">move.h</text>
</a>
</g>
</g>
<!-- Node1&#45;&gt;Node16 -->
<g id="edge28" class="edge">
<title>Node1&#45;&gt;Node16</title>
<path fill="none" stroke="midnightblue" d="M293.62,-392.08C297.46,-384.69 303.02,-373.95 307.76,-364.81"/>
<polygon fill="midnightblue" stroke="midnightblue" points="310.97,-366.24 312.46,-355.75 304.75,-363.02 310.97,-366.24"/>
</g>
<!-- Node3 -->
<g id="node3" class="node">
<title>Node3</title>
<g id="a_node3"><a xlink:title=" ">
<polygon fill="white" stroke="#bfbfbf" points="390,-0.5 390,-19.5 450,-19.5 450,-0.5 390,-0.5"/>
<text text-anchor="middle" x="420" y="-7.5" font-family="Helvetica,sans-Serif" font-size="10.00">iostream</text>
</a>
</g>
</g>
<!-- Node2&#45;&gt;Node3 -->
<g id="edge2" class="edge">
<title>Node2&#45;&gt;Node3</title>
<path fill="none" stroke="midnightblue" d="M233.96,-289.68C166.37,-289.74 0,-279.64 0,-179 0,-179 0,-179 0,-121 0,-75.87 36.66,-74.1 78,-56 131.31,-32.65 300.8,-18.82 379.34,-13.51"/>
<polygon fill="midnightblue" stroke="midnightblue" points="380.04,-16.97 389.79,-12.82 379.58,-9.99 380.04,-16.97"/>
</g>
<!-- Node4 -->
<g id="node4" class="node">
<title>Node4</title>
<g id="a_node4"><a xlink:title=" ">
<polygon fill="white" stroke="#bfbfbf" points="104.5,-56.5 104.5,-75.5 151.5,-75.5 151.5,-56.5 104.5,-56.5"/>
<text text-anchor="middle" x="128" y="-63.5" font-family="Helvetica,sans-Serif" font-size="10.00">vector</text>
</a>
</g>
</g>
<!-- Node2&#45;&gt;Node4 -->
<g id="edge3" class="edge">
<title>Node2&#45;&gt;Node4</title>
<path fill="none" stroke="midnightblue" d="M239.29,-280.39C206.19,-266.53 145.66,-235.85 118,-188 99.26,-155.58 111.34,-109.9 120.49,-84.96"/>
<polygon fill="midnightblue" stroke="midnightblue" points="123.75,-86.24 124.14,-75.65 117.24,-83.69 123.75,-86.24"/>
</g>
<!-- Node5 -->
<g id="node5" class="node">
<title>Node5</title>
<g id="a_node5"><a xlink:href="board_8h.html" target="_top" xlink:title=" ">
<polygon fill="white" stroke="black" points="291.5,-224.5 291.5,-243.5 344.5,-243.5 344.5,-224.5 291.5,-224.5"/>
<text text-anchor="middle" x="318" y="-231.5" font-family="Helvetica,sans-Serif" font-size="10.00">board.h</text>
</a>
</g>
</g>
<!-- Node2&#45;&gt;Node5 -->
<g id="edge4" class="edge">
<title>Node2&#45;&gt;Node5</title>
<path fill="none" stroke="midnightblue" d="M271,-280.32C279.19,-272.42 291.51,-260.55 301.47,-250.94"/>
<polygon fill="midnightblue" stroke="midnightblue" points="304.07,-253.29 308.84,-243.83 299.21,-248.26 304.07,-253.29"/>
</g>
<!-- Node5&#45;&gt;Node3 -->
<g id="edge5" class="edge">
<title>Node5&#45;&gt;Node3</title>
<path fill="none" stroke="midnightblue" d="M291.24,-230.54C242.47,-225.51 141.93,-212.39 118,-188 76.29,-145.5 55.89,-100.9 95,-56 131.52,-14.07 301.36,-9.92 379.93,-10.32"/>
<polygon fill="midnightblue" stroke="midnightblue" points="379.92,-13.82 389.94,-10.39 379.97,-6.82 379.92,-13.82"/>
</g>
<!-- Node5&#45;&gt;Node4 -->
<g id="edge6" class="edge">
<title>Node5&#45;&gt;Node4</title>
<path fill="none" stroke="midnightblue" d="M291.42,-230.41C245.17,-225.31 152.91,-212.28 133,-188 109.09,-158.84 116.23,-111.14 122.65,-85.19"/>
<polygon fill="midnightblue" stroke="midnightblue" points="126.03,-86.09 125.26,-75.52 119.27,-84.27 126.03,-86.09"/>
</g>
<!-- Node6 -->
<g id="node6" class="node">
<title>Node6</title>
<g id="a_node6"><a xlink:href="square_8h.html" target="_top" xlink:title=" ">
<polygon fill="white" stroke="black" points="605.5,-168.5 605.5,-187.5 664.5,-187.5 664.5,-168.5 605.5,-168.5"/>
<text text-anchor="middle" x="635" y="-175.5" font-family="Helvetica,sans-Serif" font-size="10.00">square.h</text>
</a>
</g>
</g>
<!-- Node5&#45;&gt;Node6 -->
<g id="edge7" class="edge">
<title>Node5&#45;&gt;Node6</title>
<path fill="none" stroke="midnightblue" d="M344.8,-228.93C393.78,-221.42 501.01,-204.61 591,-188 592.44,-187.73 593.9,-187.46 595.38,-187.18"/>
<polygon fill="midnightblue" stroke="midnightblue" points="596.07,-190.61 605.21,-185.25 594.72,-183.74 596.07,-190.61"/>
</g>
<!-- Node9 -->
<g id="node9" class="node">
<title>Node9</title>
<g id="a_node9"><a xlink:href="position_8h.html" target="_top" xlink:title=" ">
<polygon fill="white" stroke="black" points="418.5,-56.5 418.5,-75.5 483.5,-75.5 483.5,-56.5 418.5,-56.5"/>
<text text-anchor="middle" x="451" y="-63.5" font-family="Helvetica,sans-Serif" font-size="10.00">position.h</text>
</a>
</g>
</g>
<!-- Node5&#45;&gt;Node9 -->
<g id="edge15" class="edge">
<title>Node5&#45;&gt;Node9</title>
<path fill="none" stroke="midnightblue" d="M344.71,-232.09C401.29,-229.55 530.25,-220.26 557,-188 590.16,-148.01 519.17,-102.25 477.87,-80.22"/>
<polygon fill="midnightblue" stroke="midnightblue" points="479.31,-77.02 468.83,-75.52 476.08,-83.24 479.31,-77.02"/>
</g>
<!-- Node10 -->
<g id="node10" class="node">
<title>Node10</title>
<g id="a_node10"><a xlink:href="pawn_8h.html" target="_top" xlink:title=" ">
<polygon fill="white" stroke="black" points="292,-168.5 292,-187.5 344,-187.5 344,-168.5 292,-168.5"/>
<text text-anchor="middle" x="318" y="-175.5" font-family="Helvetica,sans-Serif" font-size="10.00">pawn.h</text>
</a>
</g>
</g>
<!-- Node5&#45;&gt;Node10 -->
<g id="edge16" class="edge">
<title>Node5&#45;&gt;Node10</title>
<path fill="none" stroke="midnightblue" d="M318,-224.08C318,-217.01 318,-206.86 318,-197.99"/>
<polygon fill="midnightblue" stroke="midnightblue" points="321.5,-197.75 318,-187.75 314.5,-197.75 321.5,-197.75"/>
</g>
<!-- Node11 -->
<g id="node11" class="node">
<title>Node11</title>
<g id="a_node11"><a xlink:href="queen_8h.html" target="_top" xlink:title=" ">
<polygon fill="white" stroke="black" points="362,-168.5 362,-187.5 418,-187.5 418,-168.5 362,-168.5"/>
<text text-anchor="middle" x="390" y="-175.5" font-family="Helvetica,sans-Serif" font-size="10.00">queen.h</text>
</a>
</g>
</g>
<!-- Node5&#45;&gt;Node11 -->
<g id="edge18" class="edge">
<title>Node5&#45;&gt;Node11</title>
<path fill="none" stroke="midnightblue" d="M329.57,-224.32C340.42,-216.18 356.88,-203.84 369.88,-194.09"/>
<polygon fill="midnightblue" stroke="midnightblue" points="372.32,-196.63 378.22,-187.83 368.12,-191.03 372.32,-196.63"/>
</g>
<!-- Node12 -->
<g id="node12" class="node">
<title>Node12</title>
<g id="a_node12"><a xlink:href="king_8h.html" target="_top" xlink:title=" ">
<polygon fill="white" stroke="black" points="436.5,-168.5 436.5,-187.5 483.5,-187.5 483.5,-168.5 436.5,-168.5"/>
<text text-anchor="middle" x="460" y="-175.5" font-family="Helvetica,sans-Serif" font-size="10.00">king.h</text>
</a>
</g>
</g>
<!-- Node5&#45;&gt;Node12 -->
<g id="edge20" class="edge">
<title>Node5&#45;&gt;Node12</title>
<path fill="none" stroke="midnightblue" d="M340.5,-224.44C364.08,-215.48 401.32,-201.31 427.96,-191.18"/>
<polygon fill="midnightblue" stroke="midnightblue" points="429.5,-194.34 437.6,-187.52 427.01,-187.8 429.5,-194.34"/>
</g>
<!-- Node13 -->
<g id="node13" class="node">
<title>Node13</title>
<g id="a_node13"><a xlink:href="rook_8h.html" target="_top" xlink:title=" ">
<polygon fill="white" stroke="black" points="501.5,-168.5 501.5,-187.5 548.5,-187.5 548.5,-168.5 501.5,-168.5"/>
<text text-anchor="middle" x="525" y="-175.5" font-family="Helvetica,sans-Serif" font-size="10.00">rook.h</text>
</a>
</g>
</g>
<!-- Node5&#45;&gt;Node13 -->
<g id="edge22" class="edge">
<title>Node5&#45;&gt;Node13</title>
<path fill="none" stroke="midnightblue" d="M344.56,-226.25C376.91,-218 433.46,-203.49 491.51,-188.1"/>
<polygon fill="midnightblue" stroke="midnightblue" points="492.45,-191.48 501.22,-185.53 490.65,-184.71 492.45,-191.48"/>
</g>
<!-- Node14 -->
<g id="node14" class="node">
<title>Node14</title>
<g id="a_node14"><a xlink:href="bishop_8h.html" target="_top" xlink:title=" ">
<polygon fill="white" stroke="black" points="142,-168.5 142,-187.5 200,-187.5 200,-168.5 142,-168.5"/>
<text text-anchor="middle" x="171" y="-175.5" font-family="Helvetica,sans-Serif" font-size="10.00">bishop.h</text>
</a>
</g>
</g>
<!-- Node5&#45;&gt;Node14 -->
<g id="edge24" class="edge">
<title>Node5&#45;&gt;Node14</title>
<path fill="none" stroke="midnightblue" d="M294.71,-224.44C270.19,-215.44 231.4,-201.19 203.8,-191.05"/>
<polygon fill="midnightblue" stroke="midnightblue" points="204.78,-187.68 194.18,-187.52 202.36,-194.25 204.78,-187.68"/>
</g>
<!-- Node15 -->
<g id="node15" class="node">
<title>Node15</title>
<g id="a_node15"><a xlink:href="knight_8h.html" target="_top" xlink:title=" ">
<polygon fill="white" stroke="black" points="218,-168.5 218,-187.5 274,-187.5 274,-168.5 218,-168.5"/>
<text text-anchor="middle" x="246" y="-175.5" font-family="Helvetica,sans-Serif" font-size="10.00">knight.h</text>
</a>
</g>
</g>
<!-- Node5&#45;&gt;Node15 -->
<g id="edge26" class="edge">
<title>Node5&#45;&gt;Node15</title>
<path fill="none" stroke="midnightblue" d="M306.43,-224.32C295.58,-216.18 279.12,-203.84 266.12,-194.09"/>
<polygon fill="midnightblue" stroke="midnightblue" points="267.88,-191.03 257.78,-187.83 263.68,-196.63 267.88,-191.03"/>
</g>
<!-- Node6&#45;&gt;Node3 -->
<g id="edge8" class="edge">
<title>Node6&#45;&gt;Node3</title>
<path fill="none" stroke="midnightblue" d="M625.68,-168.29C603.42,-147.67 545.07,-94.73 492,-56 476.47,-44.67 458.07,-33.2 443.77,-24.68"/>
<polygon fill="midnightblue" stroke="midnightblue" points="445.42,-21.59 435.02,-19.54 441.87,-27.62 445.42,-21.59"/>
</g>
<!-- Node7 -->
<g id="node7" class="node">
<title>Node7</title>
<g id="a_node7"><a xlink:title=" ">
<polygon fill="white" stroke="#bfbfbf" points="625,-112.5 625,-131.5 683,-131.5 683,-112.5 625,-112.5"/>
<text text-anchor="middle" x="654" y="-119.5" font-family="Helvetica,sans-Serif" font-size="10.00">memory</text>
</a>
</g>
</g>
<!-- Node6&#45;&gt;Node7 -->
<g id="edge9" class="edge">
<title>Node6&#45;&gt;Node7</title>
<path fill="none" stroke="midnightblue" d="M638.14,-168.08C640.68,-160.85 644.36,-150.41 647.53,-141.4"/>
<polygon fill="midnightblue" stroke="midnightblue" points="650.9,-142.35 650.92,-131.75 644.3,-140.02 650.9,-142.35"/>
</g>
<!-- Node8 -->
<g id="node8" class="node">
<title>Node8</title>
<g id="a_node8"><a xlink:href="piece_8h.html" target="_top" xlink:title=" ">
<polygon fill="white" stroke="black" points="364,-112.5 364,-131.5 416,-131.5 416,-112.5 364,-112.5"/>
<text text-anchor="middle" x="390" y="-119.5" font-family="Helvetica,sans-Serif" font-size="10.00">piece.h</text>
</a>
</g>
</g>
<!-- Node6&#45;&gt;Node8 -->
<g id="edge10" class="edge">
<title>Node6&#45;&gt;Node8</title>
<path fill="none" stroke="midnightblue" d="M605.45,-170.49C560.41,-160.56 474.73,-141.67 426.09,-130.95"/>
<polygon fill="midnightblue" stroke="midnightblue" points="426.82,-127.53 416.3,-128.8 425.31,-134.37 426.82,-127.53"/>
</g>
<!-- Node8&#45;&gt;Node3 -->
<g id="edge11" class="edge">
<title>Node8&#45;&gt;Node3</title>
<path fill="none" stroke="midnightblue" d="M392.35,-112.37C397.22,-94.54 408.46,-53.3 415.02,-29.27"/>
<polygon fill="midnightblue" stroke="midnightblue" points="418.4,-30.16 417.66,-19.59 411.65,-28.32 418.4,-30.16"/>
</g>
<!-- Node8&#45;&gt;Node4 -->
<g id="edge12" class="edge">
<title>Node8&#45;&gt;Node4</title>
<path fill="none" stroke="midnightblue" d="M363.92,-115.62C316.11,-105.77 214.5,-84.83 161.59,-73.92"/>
<polygon fill="midnightblue" stroke="midnightblue" points="162.19,-70.47 151.69,-71.88 160.78,-77.33 162.19,-70.47"/>
</g>
<!-- Node8&#45;&gt;Node9 -->
<g id="edge13" class="edge">
<title>Node8&#45;&gt;Node9</title>
<path fill="none" stroke="midnightblue" d="M399.8,-112.32C408.82,-104.34 422.41,-92.31 433.32,-82.65"/>
<polygon fill="midnightblue" stroke="midnightblue" points="435.85,-85.08 441.02,-75.83 431.21,-79.84 435.85,-85.08"/>
</g>
<!-- Node9&#45;&gt;Node3 -->
<g id="edge14" class="edge">
<title>Node9&#45;&gt;Node3</title>
<path fill="none" stroke="midnightblue" d="M445.88,-56.08C441.59,-48.61 435.34,-37.72 430.06,-28.52"/>
<polygon fill="midnightblue" stroke="midnightblue" points="433.04,-26.68 425.02,-19.75 426.97,-30.17 433.04,-26.68"/>
</g>
<!-- Node10&#45;&gt;Node8 -->
<g id="edge17" class="edge">
<title>Node10&#45;&gt;Node8</title>
<path fill="none" stroke="midnightblue" d="M329.57,-168.32C340.42,-160.18 356.88,-147.84 369.88,-138.09"/>
<polygon fill="midnightblue" stroke="midnightblue" points="372.32,-140.63 378.22,-131.83 368.12,-135.03 372.32,-140.63"/>
</g>
<!-- Node11&#45;&gt;Node8 -->
<g id="edge19" class="edge">
<title>Node11&#45;&gt;Node8</title>
<path fill="none" stroke="midnightblue" d="M390,-168.08C390,-161.01 390,-150.86 390,-141.99"/>
<polygon fill="midnightblue" stroke="midnightblue" points="393.5,-141.75 390,-131.75 386.5,-141.75 393.5,-141.75"/>
</g>
<!-- Node12&#45;&gt;Node8 -->
<g id="edge21" class="edge">
<title>Node12&#45;&gt;Node8</title>
<path fill="none" stroke="midnightblue" d="M448.75,-168.32C438.2,-160.18 422.2,-147.84 409.56,-138.09"/>
<polygon fill="midnightblue" stroke="midnightblue" points="411.51,-135.17 401.45,-131.83 407.23,-140.71 411.51,-135.17"/>
</g>
<!-- Node13&#45;&gt;Node8 -->
<g id="edge23" class="edge">
<title>Node13&#45;&gt;Node8</title>
<path fill="none" stroke="midnightblue" d="M503.61,-168.44C481.29,-159.52 446.1,-145.44 420.79,-135.32"/>
<polygon fill="midnightblue" stroke="midnightblue" points="421.88,-131.98 411.29,-131.52 419.28,-138.48 421.88,-131.98"/>
</g>
<!-- Node14&#45;&gt;Node8 -->
<g id="edge25" class="edge">
<title>Node14&#45;&gt;Node8</title>
<path fill="none" stroke="midnightblue" d="M200.08,-169.83C239.83,-160.03 311.08,-142.46 354.11,-131.85"/>
<polygon fill="midnightblue" stroke="midnightblue" points="355.01,-135.23 363.88,-129.44 353.33,-128.44 355.01,-135.23"/>
</g>
<!-- Node15&#45;&gt;Node8 -->
<g id="edge27" class="edge">
<title>Node15&#45;&gt;Node8</title>
<path fill="none" stroke="midnightblue" d="M268.82,-168.44C292.83,-159.44 330.83,-145.19 357.87,-135.05"/>
<polygon fill="midnightblue" stroke="midnightblue" points="359.16,-138.3 367.29,-131.52 356.7,-131.75 359.16,-138.3"/>
</g>
<!-- Node16&#45;&gt;Node2 -->
<g id="edge31" class="edge">
<title>Node16&#45;&gt;Node2</title>
<path fill="none" stroke="midnightblue" d="M307.92,-336.08C299.83,-328.14 287.8,-316.34 278.09,-306.8"/>
<polygon fill="midnightblue" stroke="midnightblue" points="280.5,-304.26 270.91,-299.75 275.6,-309.25 280.5,-304.26"/>
</g>
<!-- Node16&#45;&gt;Node3 -->
<g id="edge29" class="edge">
<title>Node16&#45;&gt;Node3</title>
<path fill="none" stroke="midnightblue" d="M343.77,-343.34C432.45,-337.1 711,-311.43 711,-235 711,-235 711,-235 711,-121 711,-68.02 540.09,-31.64 460.23,-17.53"/>
<polygon fill="midnightblue" stroke="midnightblue" points="460.5,-14.03 450.05,-15.77 459.3,-20.92 460.5,-14.03"/>
</g>
<!-- Node16&#45;&gt;Node5 -->
<g id="edge30" class="edge">
<title>Node16&#45;&gt;Node5</title>
<path fill="none" stroke="midnightblue" d="M317.08,-336.37C317.24,-318.62 317.61,-277.67 317.83,-253.6"/>
<polygon fill="midnightblue" stroke="midnightblue" points="321.33,-253.62 317.92,-243.59 314.33,-253.56 321.33,-253.62"/>
</g>
</g>
</svg>
