<?xml version="1.0" encoding="UTF-8" standalone="no"?>
<!DOCTYPE svg PUBLIC "-//W3C//DTD SVG 1.1//EN"
 "http://www.w3.org/Graphics/SVG/1.1/DTD/svg11.dtd">
<!-- Generated by graphviz version 2.43.0 (0)
 -->
<!-- Title: src/custom_ai.cpp Pages: 1 -->
<svg width="777pt" height="476pt"
 viewBox="0.00 0.00 777.00 476.00" xmlns="http://www.w3.org/2000/svg" xmlns:xlink="http://www.w3.org/1999/xlink">
<g id="graph0" class="graph" transform="scale(1 1) rotate(0) translate(4 472)">
<title>src/custom_ai.cpp</title>
<polygon fill="white" stroke="transparent" points="-4,4 -4,-472 773,-472 773,4 -4,4"/>
<!-- Node1 -->
<g id="node1" class="node">
<title>Node1</title>
<g id="a_node1"><a xlink:title=" ">
<polygon fill="#bfbfbf" stroke="black" points="477,-448.5 477,-467.5 581,-467.5 581,-448.5 477,-448.5"/>
<text text-anchor="middle" x="529" y="-455.5" font-family="Helvetica,sans-Serif" font-size="10.00">src/custom_ai.cpp</text>
</a>
</g>
</g>
<!-- Node2 -->
<g id="node2" class="node">
<title>Node2</title>
<g id="a_node2"><a xlink:href="custom__ai_8h.html" target="_top" xlink:title=" ">
<polygon fill="white" stroke="black" points="524,-392.5 524,-411.5 600,-411.5 600,-392.5 524,-392.5"/>
<text text-anchor="middle" x="562" y="-399.5" font-family="Helvetica,sans-Serif" font-size="10.00">custom_ai.h</text>
</a>
</g>
</g>
<!-- Node1&#45;&gt;Node2 -->
<g id="edge1" class="edge">
<title>Node1&#45;&gt;Node2</title>
<path fill="none" stroke="midnightblue" d="M534.45,-448.08C539.01,-440.61 545.67,-429.72 551.29,-420.52"/>
<polygon fill="midnightblue" stroke="midnightblue" points="554.42,-422.11 556.65,-411.75 548.45,-418.46 554.42,-422.11"/>
</g>
<!-- Node17 -->
<g id="node17" class="node">
<title>Node17</title>
<g id="a_node17"><a xlink:href="move_8h.html" target="_top" xlink:title=" ">
<polygon fill="white" stroke="black" points="482.5,-336.5 482.5,-355.5 535.5,-355.5 535.5,-336.5 482.5,-336.5"/>
<text text-anchor="middle" x="509" y="-343.5" font-family="Helvetica,sans-Serif" font-size="10.00">move.h</text>
</a>
</g>
</g>
<!-- Node1&#45;&gt;Node17 -->
<g id="edge42" class="edge">
<title>Node1&#45;&gt;Node17</title>
<path fill="none" stroke="midnightblue" d="M525.65,-448.18C522.39,-439.21 517.56,-424.84 515,-412 511.95,-396.7 510.44,-379.06 509.7,-366.02"/>
<polygon fill="midnightblue" stroke="midnightblue" points="513.2,-365.74 509.23,-355.92 506.2,-366.07 513.2,-365.74"/>
</g>
<!-- Node18 -->
<g id="node18" class="node">
<title>Node18</title>
<g id="a_node18"><a xlink:href="rules_8h.html" target="_top" xlink:title=" ">
<polygon fill="white" stroke="black" points="418,-392.5 418,-411.5 468,-411.5 468,-392.5 418,-392.5"/>
<text text-anchor="middle" x="443" y="-399.5" font-family="Helvetica,sans-Serif" font-size="10.00">rules.h</text>
</a>
</g>
</g>
<!-- Node1&#45;&gt;Node18 -->
<g id="edge33" class="edge">
<title>Node1&#45;&gt;Node18</title>
<path fill="none" stroke="midnightblue" d="M515.18,-448.32C501.77,-439.9 481.18,-426.97 465.41,-417.07"/>
<polygon fill="midnightblue" stroke="midnightblue" points="467.11,-414.01 456.78,-411.65 463.39,-419.94 467.11,-414.01"/>
</g>
<!-- Node19 -->
<g id="node19" class="node">
<title>Node19</title>
<g id="a_node19"><a xlink:href="validate_8h.html" target="_top" xlink:title=" ">
<polygon fill="white" stroke="black" points="594.5,-336.5 594.5,-355.5 659.5,-355.5 659.5,-336.5 594.5,-336.5"/>
<text text-anchor="middle" x="627" y="-343.5" font-family="Helvetica,sans-Serif" font-size="10.00">validate.h</text>
</a>
</g>
</g>
<!-- Node1&#45;&gt;Node19 -->
<g id="edge38" class="edge">
<title>Node1&#45;&gt;Node19</title>
<path fill="none" stroke="midnightblue" d="M554.92,-448.47C572.61,-441.38 595.25,-429.57 609,-412 619.48,-398.61 623.86,-379.5 625.69,-365.47"/>
<polygon fill="midnightblue" stroke="midnightblue" points="629.18,-365.8 626.68,-355.51 622.21,-365.11 629.18,-365.8"/>
</g>
<!-- Node3 -->
<g id="node3" class="node">
<title>Node3</title>
<g id="a_node3"><a xlink:href="player_8h.html" target="_top" xlink:title=" ">
<polygon fill="white" stroke="black" points="536,-280.5 536,-299.5 592,-299.5 592,-280.5 536,-280.5"/>
<text text-anchor="middle" x="564" y="-287.5" font-family="Helvetica,sans-Serif" font-size="10.00">player.h</text>
</a>
</g>
</g>
<!-- Node2&#45;&gt;Node3 -->
<g id="edge2" class="edge">
<title>Node2&#45;&gt;Node3</title>
<path fill="none" stroke="midnightblue" d="M562.16,-392.37C562.48,-374.62 563.22,-333.67 563.66,-309.6"/>
<polygon fill="midnightblue" stroke="midnightblue" points="567.16,-309.65 563.84,-299.59 560.16,-309.53 567.16,-309.65"/>
</g>
<!-- Node2&#45;&gt;Node17 -->
<g id="edge29" class="edge">
<title>Node2&#45;&gt;Node17</title>
<path fill="none" stroke="midnightblue" d="M553.25,-392.08C545.53,-384.22 534.1,-372.57 524.78,-363.08"/>
<polygon fill="midnightblue" stroke="midnightblue" points="527.09,-360.44 517.59,-355.75 522.1,-365.34 527.09,-360.44"/>
</g>
<!-- Node4 -->
<g id="node4" class="node">
<title>Node4</title>
<g id="a_node4"><a xlink:title=" ">
<polygon fill="white" stroke="#bfbfbf" points="284,-0.5 284,-19.5 344,-19.5 344,-0.5 284,-0.5"/>
<text text-anchor="middle" x="314" y="-7.5" font-family="Helvetica,sans-Serif" font-size="10.00">iostream</text>
</a>
</g>
</g>
<!-- Node3&#45;&gt;Node4 -->
<g id="edge3" class="edge">
<title>Node3&#45;&gt;Node4</title>
<path fill="none" stroke="midnightblue" d="M589.49,-280.41C627.08,-265.93 693,-232.86 693,-179 693,-179 693,-179 693,-121 693,-86.36 679.35,-74.39 650,-56 601.53,-25.63 432.99,-15.44 354.63,-12.29"/>
<polygon fill="midnightblue" stroke="midnightblue" points="354.32,-8.77 344.19,-11.89 354.05,-15.77 354.32,-8.77"/>
</g>
<!-- Node5 -->
<g id="node5" class="node">
<title>Node5</title>
<g id="a_node5"><a xlink:title=" ">
<polygon fill="white" stroke="#bfbfbf" points="593.5,-56.5 593.5,-75.5 640.5,-75.5 640.5,-56.5 593.5,-56.5"/>
<text text-anchor="middle" x="617" y="-63.5" font-family="Helvetica,sans-Serif" font-size="10.00">vector</text>
</a>
</g>
</g>
<!-- Node3&#45;&gt;Node5 -->
<g id="edge4" class="edge">
<title>Node3&#45;&gt;Node5</title>
<path fill="none" stroke="midnightblue" d="M569.99,-280.34C585.34,-257.44 625.47,-192.88 634,-132 635.23,-123.2 635.6,-120.74 634,-112 632.31,-102.76 628.83,-92.95 625.45,-84.85"/>
<polygon fill="midnightblue" stroke="midnightblue" points="628.63,-83.4 621.37,-75.69 622.24,-86.25 628.63,-83.4"/>
</g>
<!-- Node6 -->
<g id="node6" class="node">
<title>Node6</title>
<g id="a_node6"><a xlink:href="board_8h.html" target="_top" xlink:title=" ">
<polygon fill="white" stroke="black" points="389.5,-224.5 389.5,-243.5 442.5,-243.5 442.5,-224.5 389.5,-224.5"/>
<text text-anchor="middle" x="416" y="-231.5" font-family="Helvetica,sans-Serif" font-size="10.00">board.h</text>
</a>
</g>
</g>
<!-- Node3&#45;&gt;Node6 -->
<g id="edge5" class="edge">
<title>Node3&#45;&gt;Node6</title>
<path fill="none" stroke="midnightblue" d="M540.55,-280.44C515.87,-271.44 476.81,-257.19 449.02,-247.05"/>
<polygon fill="midnightblue" stroke="midnightblue" points="449.94,-243.66 439.34,-243.52 447.54,-250.23 449.94,-243.66"/>
</g>
<!-- Node6&#45;&gt;Node4 -->
<g id="edge6" class="edge">
<title>Node6&#45;&gt;Node4</title>
<path fill="none" stroke="midnightblue" d="M389.32,-233.69C317.22,-234.93 121.18,-233.94 81,-188 14.56,-112.03 191.57,-47.37 274.19,-22.22"/>
<polygon fill="midnightblue" stroke="midnightblue" points="275.19,-25.58 283.77,-19.35 273.19,-18.87 275.19,-25.58"/>
</g>
<!-- Node6&#45;&gt;Node5 -->
<g id="edge7" class="edge">
<title>Node6&#45;&gt;Node5</title>
<path fill="none" stroke="midnightblue" d="M442.6,-230.03C487.92,-224.39 577.21,-210.67 598,-188 623.66,-160.01 622.77,-112.19 619.88,-85.83"/>
<polygon fill="midnightblue" stroke="midnightblue" points="623.32,-85.13 618.55,-75.67 616.38,-86.04 623.32,-85.13"/>
</g>
<!-- Node7 -->
<g id="node7" class="node">
<title>Node7</title>
<g id="a_node7"><a xlink:href="square_8h.html" target="_top" xlink:title=" ">
<polygon fill="white" stroke="black" points="104.5,-168.5 104.5,-187.5 163.5,-187.5 163.5,-168.5 104.5,-168.5"/>
<text text-anchor="middle" x="134" y="-175.5" font-family="Helvetica,sans-Serif" font-size="10.00">square.h</text>
</a>
</g>
</g>
<!-- Node6&#45;&gt;Node7 -->
<g id="edge8" class="edge">
<title>Node6&#45;&gt;Node7</title>
<path fill="none" stroke="midnightblue" d="M389.32,-228.45C346.21,-221.02 258.37,-205.53 173.81,-188.09"/>
<polygon fill="midnightblue" stroke="midnightblue" points="174.28,-184.62 163.78,-186.01 172.86,-191.47 174.28,-184.62"/>
</g>
<!-- Node10 -->
<g id="node10" class="node">
<title>Node10</title>
<g id="a_node10"><a xlink:href="position_8h.html" target="_top" xlink:title=" ">
<polygon fill="white" stroke="black" points="251.5,-56.5 251.5,-75.5 316.5,-75.5 316.5,-56.5 251.5,-56.5"/>
<text text-anchor="middle" x="284" y="-63.5" font-family="Helvetica,sans-Serif" font-size="10.00">position.h</text>
</a>
</g>
</g>
<!-- Node6&#45;&gt;Node10 -->
<g id="edge16" class="edge">
<title>Node6&#45;&gt;Node10</title>
<path fill="none" stroke="midnightblue" d="M389.42,-233.52C319.51,-234.25 133.22,-231.95 95,-188 46.75,-132.52 172.35,-93.08 241.7,-76.18"/>
<polygon fill="midnightblue" stroke="midnightblue" points="242.58,-79.57 251.5,-73.85 240.96,-72.76 242.58,-79.57"/>
</g>
<!-- Node11 -->
<g id="node11" class="node">
<title>Node11</title>
<g id="a_node11"><a xlink:href="pawn_8h.html" target="_top" xlink:title=" ">
<polygon fill="white" stroke="black" points="537,-168.5 537,-187.5 589,-187.5 589,-168.5 537,-168.5"/>
<text text-anchor="middle" x="563" y="-175.5" font-family="Helvetica,sans-Serif" font-size="10.00">pawn.h</text>
</a>
</g>
</g>
<!-- Node6&#45;&gt;Node11 -->
<g id="edge17" class="edge">
<title>Node6&#45;&gt;Node11</title>
<path fill="none" stroke="midnightblue" d="M439.29,-224.44C463.81,-215.44 502.6,-201.19 530.2,-191.05"/>
<polygon fill="midnightblue" stroke="midnightblue" points="531.64,-194.25 539.82,-187.52 529.22,-187.68 531.64,-194.25"/>
</g>
<!-- Node12 -->
<g id="node12" class="node">
<title>Node12</title>
<g id="a_node12"><a xlink:href="queen_8h.html" target="_top" xlink:title=" ">
<polygon fill="white" stroke="black" points="182,-168.5 182,-187.5 238,-187.5 238,-168.5 182,-168.5"/>
<text text-anchor="middle" x="210" y="-175.5" font-family="Helvetica,sans-Serif" font-size="10.00">queen.h</text>
</a>
</g>
</g>
<!-- Node6&#45;&gt;Node12 -->
<g id="edge19" class="edge">
<title>Node6&#45;&gt;Node12</title>
<path fill="none" stroke="midnightblue" d="M389.49,-226.05C353.53,-216.62 289.06,-199.72 247.97,-188.95"/>
<polygon fill="midnightblue" stroke="midnightblue" points="248.62,-185.5 238.05,-186.35 246.84,-192.28 248.62,-185.5"/>
</g>
<!-- Node13 -->
<g id="node13" class="node">
<title>Node13</title>
<g id="a_node13"><a xlink:href="king_8h.html" target="_top" xlink:title=" ">
<polygon fill="white" stroke="black" points="256.5,-168.5 256.5,-187.5 303.5,-187.5 303.5,-168.5 256.5,-168.5"/>
<text text-anchor="middle" x="280" y="-175.5" font-family="Helvetica,sans-Serif" font-size="10.00">king.h</text>
</a>
</g>
</g>
<!-- Node6&#45;&gt;Node13 -->
<g id="edge21" class="edge">
<title>Node6&#45;&gt;Node13</title>
<path fill="none" stroke="midnightblue" d="M394.45,-224.44C371.97,-215.52 336.51,-201.44 311.02,-191.32"/>
<polygon fill="midnightblue" stroke="midnightblue" points="312.03,-187.95 301.45,-187.52 309.45,-194.46 312.03,-187.95"/>
</g>
<!-- Node14 -->
<g id="node14" class="node">
<title>Node14</title>
<g id="a_node14"><a xlink:href="rook_8h.html" target="_top" xlink:title=" ">
<polygon fill="white" stroke="black" points="321.5,-168.5 321.5,-187.5 368.5,-187.5 368.5,-168.5 321.5,-168.5"/>
<text text-anchor="middle" x="345" y="-175.5" font-family="Helvetica,sans-Serif" font-size="10.00">rook.h</text>
</a>
</g>
</g>
<!-- Node6&#45;&gt;Node14 -->
<g id="edge23" class="edge">
<title>Node6&#45;&gt;Node14</title>
<path fill="none" stroke="midnightblue" d="M404.59,-224.32C393.89,-216.18 377.66,-203.84 364.84,-194.09"/>
<polygon fill="midnightblue" stroke="midnightblue" points="366.69,-191.1 356.61,-187.83 362.46,-196.67 366.69,-191.1"/>
</g>
<!-- Node15 -->
<g id="node15" class="node">
<title>Node15</title>
<g id="a_node15"><a xlink:href="bishop_8h.html" target="_top" xlink:title=" ">
<polygon fill="white" stroke="black" points="387,-168.5 387,-187.5 445,-187.5 445,-168.5 387,-168.5"/>
<text text-anchor="middle" x="416" y="-175.5" font-family="Helvetica,sans-Serif" font-size="10.00">bishop.h</text>
</a>
</g>
</g>
<!-- Node6&#45;&gt;Node15 -->
<g id="edge25" class="edge">
<title>Node6&#45;&gt;Node15</title>
<path fill="none" stroke="midnightblue" d="M416,-224.08C416,-217.01 416,-206.86 416,-197.99"/>
<polygon fill="midnightblue" stroke="midnightblue" points="419.5,-197.75 416,-187.75 412.5,-197.75 419.5,-197.75"/>
</g>
<!-- Node16 -->
<g id="node16" class="node">
<title>Node16</title>
<g id="a_node16"><a xlink:href="knight_8h.html" target="_top" xlink:title=" ">
<polygon fill="white" stroke="black" points="463,-168.5 463,-187.5 519,-187.5 519,-168.5 463,-168.5"/>
<text text-anchor="middle" x="491" y="-175.5" font-family="Helvetica,sans-Serif" font-size="10.00">knight.h</text>
</a>
</g>
</g>
<!-- Node6&#45;&gt;Node16 -->
<g id="edge27" class="edge">
<title>Node6&#45;&gt;Node16</title>
<path fill="none" stroke="midnightblue" d="M428.05,-224.32C439.46,-216.11 456.83,-203.6 470.43,-193.81"/>
<polygon fill="midnightblue" stroke="midnightblue" points="472.66,-196.52 478.73,-187.83 468.57,-190.84 472.66,-196.52"/>
</g>
<!-- Node7&#45;&gt;Node4 -->
<g id="edge9" class="edge">
<title>Node7&#45;&gt;Node4</title>
<path fill="none" stroke="midnightblue" d="M134.61,-168.13C135.94,-154.73 140.11,-129.08 153,-112 185.99,-68.31 243.84,-38.83 280.47,-23.49"/>
<polygon fill="midnightblue" stroke="midnightblue" points="282.25,-26.55 290.2,-19.54 279.62,-20.06 282.25,-26.55"/>
</g>
<!-- Node8 -->
<g id="node8" class="node">
<title>Node8</title>
<g id="a_node8"><a xlink:title=" ">
<polygon fill="white" stroke="#bfbfbf" points="162,-112.5 162,-131.5 220,-131.5 220,-112.5 162,-112.5"/>
<text text-anchor="middle" x="191" y="-119.5" font-family="Helvetica,sans-Serif" font-size="10.00">memory</text>
</a>
</g>
</g>
<!-- Node7&#45;&gt;Node8 -->
<g id="edge10" class="edge">
<title>Node7&#45;&gt;Node8</title>
<path fill="none" stroke="midnightblue" d="M143.16,-168.32C151.5,-160.42 164.03,-148.55 174.18,-138.94"/>
<polygon fill="midnightblue" stroke="midnightblue" points="176.82,-141.25 181.68,-131.83 172.01,-136.17 176.82,-141.25"/>
</g>
<!-- Node9 -->
<g id="node9" class="node">
<title>Node9</title>
<g id="a_node9"><a xlink:href="piece_8h.html" target="_top" xlink:title=" ">
<polygon fill="white" stroke="black" points="319,-112.5 319,-131.5 371,-131.5 371,-112.5 319,-112.5"/>
<text text-anchor="middle" x="345" y="-119.5" font-family="Helvetica,sans-Serif" font-size="10.00">piece.h</text>
</a>
</g>
</g>
<!-- Node7&#45;&gt;Node9 -->
<g id="edge11" class="edge">
<title>Node7&#45;&gt;Node9</title>
<path fill="none" stroke="midnightblue" d="M163.78,-169.38C201.9,-159.62 267.9,-142.73 308.85,-132.25"/>
<polygon fill="midnightblue" stroke="midnightblue" points="309.87,-135.6 318.69,-129.73 308.14,-128.82 309.87,-135.6"/>
</g>
<!-- Node9&#45;&gt;Node4 -->
<g id="edge12" class="edge">
<title>Node9&#45;&gt;Node4</title>
<path fill="none" stroke="midnightblue" d="M342.57,-112.37C337.54,-94.54 325.92,-53.3 319.15,-29.27"/>
<polygon fill="midnightblue" stroke="midnightblue" points="322.5,-28.27 316.42,-19.59 315.77,-30.17 322.5,-28.27"/>
</g>
<!-- Node9&#45;&gt;Node5 -->
<g id="edge13" class="edge">
<title>Node9&#45;&gt;Node5</title>
<path fill="none" stroke="midnightblue" d="M371.08,-115.82C420.67,-105.98 528.51,-84.57 583.42,-73.67"/>
<polygon fill="midnightblue" stroke="midnightblue" points="584.22,-77.08 593.34,-71.7 582.85,-70.21 584.22,-77.08"/>
</g>
<!-- Node9&#45;&gt;Node10 -->
<g id="edge14" class="edge">
<title>Node9&#45;&gt;Node10</title>
<path fill="none" stroke="midnightblue" d="M335.2,-112.32C326.18,-104.34 312.59,-92.31 301.68,-82.65"/>
<polygon fill="midnightblue" stroke="midnightblue" points="303.79,-79.84 293.98,-75.83 299.15,-85.08 303.79,-79.84"/>
</g>
<!-- Node10&#45;&gt;Node4 -->
<g id="edge15" class="edge">
<title>Node10&#45;&gt;Node4</title>
<path fill="none" stroke="midnightblue" d="M288.95,-56.08C293.1,-48.61 299.15,-37.72 304.27,-28.52"/>
<polygon fill="midnightblue" stroke="midnightblue" points="307.34,-30.19 309.14,-19.75 301.22,-26.79 307.34,-30.19"/>
</g>
<!-- Node11&#45;&gt;Node9 -->
<g id="edge18" class="edge">
<title>Node11&#45;&gt;Node9</title>
<path fill="none" stroke="midnightblue" d="M536.63,-170.19C533.72,-169.45 530.8,-168.7 528,-168 476.96,-155.16 417.8,-140.69 380.88,-131.7"/>
<polygon fill="midnightblue" stroke="midnightblue" points="381.63,-128.28 371.08,-129.32 379.97,-135.09 381.63,-128.28"/>
</g>
<!-- Node12&#45;&gt;Node9 -->
<g id="edge20" class="edge">
<title>Node12&#45;&gt;Node9</title>
<path fill="none" stroke="midnightblue" d="M231.39,-168.44C253.71,-159.52 288.9,-145.44 314.21,-135.32"/>
<polygon fill="midnightblue" stroke="midnightblue" points="315.72,-138.48 323.71,-131.52 313.12,-131.98 315.72,-138.48"/>
</g>
<!-- Node13&#45;&gt;Node9 -->
<g id="edge22" class="edge">
<title>Node13&#45;&gt;Node9</title>
<path fill="none" stroke="midnightblue" d="M290.44,-168.32C300.15,-160.26 314.82,-148.08 326.5,-138.37"/>
<polygon fill="midnightblue" stroke="midnightblue" points="328.91,-140.92 334.37,-131.83 324.44,-135.53 328.91,-140.92"/>
</g>
<!-- Node14&#45;&gt;Node9 -->
<g id="edge24" class="edge">
<title>Node14&#45;&gt;Node9</title>
<path fill="none" stroke="midnightblue" d="M345,-168.08C345,-161.01 345,-150.86 345,-141.99"/>
<polygon fill="midnightblue" stroke="midnightblue" points="348.5,-141.75 345,-131.75 341.5,-141.75 348.5,-141.75"/>
</g>
<!-- Node15&#45;&gt;Node9 -->
<g id="edge26" class="edge">
<title>Node15&#45;&gt;Node9</title>
<path fill="none" stroke="midnightblue" d="M404.59,-168.32C393.89,-160.18 377.66,-147.84 364.84,-138.09"/>
<polygon fill="midnightblue" stroke="midnightblue" points="366.69,-135.1 356.61,-131.83 362.46,-140.67 366.69,-135.1"/>
</g>
<!-- Node16&#45;&gt;Node9 -->
<g id="edge28" class="edge">
<title>Node16&#45;&gt;Node9</title>
<path fill="none" stroke="midnightblue" d="M467.87,-168.44C443.52,-159.44 404.99,-145.19 377.58,-135.05"/>
<polygon fill="midnightblue" stroke="midnightblue" points="378.62,-131.7 368.03,-131.52 376.19,-138.27 378.62,-131.7"/>
</g>
<!-- Node17&#45;&gt;Node3 -->
<g id="edge32" class="edge">
<title>Node17&#45;&gt;Node3</title>
<path fill="none" stroke="midnightblue" d="M518.08,-336.08C526.17,-328.14 538.2,-316.34 547.91,-306.8"/>
<polygon fill="midnightblue" stroke="midnightblue" points="550.4,-309.25 555.09,-299.75 545.5,-304.26 550.4,-309.25"/>
</g>
<!-- Node17&#45;&gt;Node4 -->
<g id="edge30" class="edge">
<title>Node17&#45;&gt;Node4</title>
<path fill="none" stroke="midnightblue" d="M535.78,-337.81C594.82,-321.17 731,-278.12 731,-235 731,-235 731,-235 731,-121 731,-83.44 709.95,-74.02 677,-56 622.1,-25.98 436.61,-15.51 354.12,-12.28"/>
<polygon fill="midnightblue" stroke="midnightblue" points="354.25,-8.79 344.12,-11.91 353.98,-15.78 354.25,-8.79"/>
</g>
<!-- Node17&#45;&gt;Node6 -->
<g id="edge31" class="edge">
<title>Node17&#45;&gt;Node6</title>
<path fill="none" stroke="midnightblue" d="M501.7,-336.37C486.22,-318.05 449.86,-275.05 429.83,-251.36"/>
<polygon fill="midnightblue" stroke="midnightblue" points="432.39,-248.97 423.26,-243.59 427.05,-253.49 432.39,-248.97"/>
</g>
<!-- Node18&#45;&gt;Node3 -->
<g id="edge36" class="edge">
<title>Node18&#45;&gt;Node3</title>
<path fill="none" stroke="midnightblue" d="M445.15,-392.36C448.92,-378.81 457.89,-352.42 474,-336 488.46,-321.27 508.73,-310.56 526.38,-303.28"/>
<polygon fill="midnightblue" stroke="midnightblue" points="527.81,-306.48 535.86,-299.59 525.27,-299.96 527.81,-306.48"/>
</g>
<!-- Node18&#45;&gt;Node4 -->
<g id="edge34" class="edge">
<title>Node18&#45;&gt;Node4</title>
<path fill="none" stroke="midnightblue" d="M417.91,-400.21C324.2,-396.58 0,-377.77 0,-291 0,-291 0,-291 0,-121 0,-63.61 189.19,-29.04 273.86,-16.44"/>
<polygon fill="midnightblue" stroke="midnightblue" points="274.5,-19.88 283.89,-14.98 273.49,-12.96 274.5,-19.88"/>
</g>
<!-- Node18&#45;&gt;Node6 -->
<g id="edge35" class="edge">
<title>Node18&#45;&gt;Node6</title>
<path fill="none" stroke="midnightblue" d="M441.55,-392.08C437.3,-365.95 424.82,-289.21 419.02,-253.58"/>
<polygon fill="midnightblue" stroke="midnightblue" points="422.45,-252.88 417.39,-243.57 415.54,-254 422.45,-252.88"/>
</g>
<!-- Node18&#45;&gt;Node17 -->
<g id="edge37" class="edge">
<title>Node18&#45;&gt;Node17</title>
<path fill="none" stroke="midnightblue" d="M453.6,-392.32C463.46,-384.26 478.35,-372.08 490.22,-362.37"/>
<polygon fill="midnightblue" stroke="midnightblue" points="492.68,-364.88 498.2,-355.83 488.25,-359.46 492.68,-364.88"/>
</g>
<!-- Node19&#45;&gt;Node3 -->
<g id="edge41" class="edge">
<title>Node19&#45;&gt;Node3</title>
<path fill="none" stroke="midnightblue" d="M616.88,-336.32C607.47,-328.26 593.26,-316.08 581.93,-306.37"/>
<polygon fill="midnightblue" stroke="midnightblue" points="584.18,-303.68 574.31,-299.83 579.62,-309 584.18,-303.68"/>
</g>
<!-- Node19&#45;&gt;Node4 -->
<g id="edge39" class="edge">
<title>Node19&#45;&gt;Node4</title>
<path fill="none" stroke="midnightblue" d="M657.46,-336.4C699.19,-322.53 769,-290.98 769,-235 769,-235 769,-235 769,-121 769,-81.08 742.75,-73.78 707,-56 645.7,-25.51 441.47,-15.22 354.15,-12.16"/>
<polygon fill="midnightblue" stroke="midnightblue" points="354.22,-8.66 344.1,-11.82 353.98,-15.65 354.22,-8.66"/>
</g>
<!-- Node19&#45;&gt;Node6 -->
<g id="edge40" class="edge">
<title>Node19&#45;&gt;Node6</title>
<path fill="none" stroke="midnightblue" d="M626.06,-336.4C624.06,-322.41 618.08,-294.81 601,-280 559.42,-243.94 493.67,-235.75 452.78,-234.43"/>
<polygon fill="midnightblue" stroke="midnightblue" points="452.76,-230.93 442.69,-234.23 452.62,-237.93 452.76,-230.93"/>
</g>
</g>
</svg>
