<?xml version="1.0" encoding="UTF-8" standalone="no"?>
<!DOCTYPE svg PUBLIC "-//W3C//DTD SVG 1.1//EN"
 "http://www.w3.org/Graphics/SVG/1.1/DTD/svg11.dtd">
<!-- Generated by graphviz version 2.43.0 (0)
 -->
<!-- Title: src/fen.cpp Pages: 1 -->
<svg width="812pt" height="420pt"
 viewBox="0.00 0.00 812.00 420.00" xmlns="http://www.w3.org/2000/svg" xmlns:xlink="http://www.w3.org/1999/xlink">
<g id="graph0" class="graph" transform="scale(1 1) rotate(0) translate(4 416)">
<title>src/fen.cpp</title>
<polygon fill="white" stroke="transparent" points="-4,4 -4,-416 808,-416 808,4 -4,4"/>
<!-- Node1 -->
<g id="node1" class="node">
<title>Node1</title>
<g id="a_node1"><a xlink:title=" ">
<polygon fill="#bfbfbf" stroke="black" points="372,-392.5 372,-411.5 442,-411.5 442,-392.5 372,-392.5"/>
<text text-anchor="middle" x="407" y="-399.5" font-family="Helvetica,sans-Serif" font-size="10.00">src/fen.cpp</text>
</a>
</g>
</g>
<!-- Node2 -->
<g id="node2" class="node">
<title>Node2</title>
<g id="a_node2"><a xlink:href="fen_8h.html" target="_top" xlink:title=" ">
<polygon fill="white" stroke="black" points="156.5,-336.5 156.5,-355.5 197.5,-355.5 197.5,-336.5 156.5,-336.5"/>
<text text-anchor="middle" x="177" y="-343.5" font-family="Helvetica,sans-Serif" font-size="10.00">fen.h</text>
</a>
</g>
</g>
<!-- Node1&#45;&gt;Node2 -->
<g id="edge1" class="edge">
<title>Node1&#45;&gt;Node2</title>
<path fill="none" stroke="midnightblue" d="M371.82,-392.74C326.94,-382.2 250.07,-364.16 207.55,-354.17"/>
<polygon fill="midnightblue" stroke="midnightblue" points="208.3,-350.75 197.76,-351.87 206.7,-357.57 208.3,-350.75"/>
</g>
<!-- Node17 -->
<g id="node17" class="node">
<title>Node17</title>
<g id="a_node17"><a xlink:title=" ">
<polygon fill="white" stroke="#bfbfbf" points="374.5,-336.5 374.5,-355.5 439.5,-355.5 439.5,-336.5 374.5,-336.5"/>
<text text-anchor="middle" x="407" y="-343.5" font-family="Helvetica,sans-Serif" font-size="10.00">stdexcept</text>
</a>
</g>
</g>
<!-- Node1&#45;&gt;Node17 -->
<g id="edge31" class="edge">
<title>Node1&#45;&gt;Node17</title>
<path fill="none" stroke="midnightblue" d="M407,-392.08C407,-385.01 407,-374.86 407,-365.99"/>
<polygon fill="midnightblue" stroke="midnightblue" points="410.5,-365.75 407,-355.75 403.5,-365.75 410.5,-365.75"/>
</g>
<!-- Node18 -->
<g id="node18" class="node">
<title>Node18</title>
<g id="a_node18"><a xlink:href="input__handler_8h.html" target="_top" xlink:title=" ">
<polygon fill="white" stroke="black" points="712,-112.5 712,-131.5 804,-131.5 804,-112.5 712,-112.5"/>
<text text-anchor="middle" x="758" y="-119.5" font-family="Helvetica,sans-Serif" font-size="10.00">input_handler.h</text>
</a>
</g>
</g>
<!-- Node1&#45;&gt;Node18 -->
<g id="edge32" class="edge">
<title>Node1&#45;&gt;Node18</title>
<path fill="none" stroke="midnightblue" d="M442.31,-397.25C529.69,-387.01 749,-354.93 749,-291 749,-291 749,-291 749,-233 749,-200.84 752.87,-163.57 755.53,-141.71"/>
<polygon fill="midnightblue" stroke="midnightblue" points="759.04,-141.9 756.82,-131.54 752.09,-141.02 759.04,-141.9"/>
</g>
<!-- Node3 -->
<g id="node3" class="node">
<title>Node3</title>
<g id="a_node3"><a xlink:title=" ">
<polygon fill="white" stroke="#bfbfbf" points="170,-0.5 170,-19.5 230,-19.5 230,-0.5 170,-0.5"/>
<text text-anchor="middle" x="200" y="-7.5" font-family="Helvetica,sans-Serif" font-size="10.00">iostream</text>
</a>
</g>
</g>
<!-- Node2&#45;&gt;Node3 -->
<g id="edge2" class="edge">
<title>Node2&#45;&gt;Node3</title>
<path fill="none" stroke="midnightblue" d="M156.35,-342.08C109.66,-334.19 0,-307.9 0,-235 0,-235 0,-235 0,-121 0,-48.85 101.16,-23.69 159.59,-15.17"/>
<polygon fill="midnightblue" stroke="midnightblue" points="160.19,-18.62 169.62,-13.81 159.24,-11.69 160.19,-18.62"/>
</g>
<!-- Node4 -->
<g id="node4" class="node">
<title>Node4</title>
<g id="a_node4"><a xlink:href="board_8h.html" target="_top" xlink:title=" ">
<polygon fill="white" stroke="black" points="289.5,-224.5 289.5,-243.5 342.5,-243.5 342.5,-224.5 289.5,-224.5"/>
<text text-anchor="middle" x="316" y="-231.5" font-family="Helvetica,sans-Serif" font-size="10.00">board.h</text>
</a>
</g>
</g>
<!-- Node2&#45;&gt;Node4 -->
<g id="edge3" class="edge">
<title>Node2&#45;&gt;Node4</title>
<path fill="none" stroke="midnightblue" d="M187.91,-336.37C211.56,-317.65 267.79,-273.15 297.26,-249.83"/>
<polygon fill="midnightblue" stroke="midnightblue" points="299.47,-252.54 305.14,-243.59 295.13,-247.05 299.47,-252.54"/>
</g>
<!-- Node16 -->
<g id="node16" class="node">
<title>Node16</title>
<g id="a_node16"><a xlink:href="player_8h.html" target="_top" xlink:title=" ">
<polygon fill="white" stroke="black" points="98,-280.5 98,-299.5 154,-299.5 154,-280.5 98,-280.5"/>
<text text-anchor="middle" x="126" y="-287.5" font-family="Helvetica,sans-Serif" font-size="10.00">player.h</text>
</a>
</g>
</g>
<!-- Node2&#45;&gt;Node16 -->
<g id="edge27" class="edge">
<title>Node2&#45;&gt;Node16</title>
<path fill="none" stroke="midnightblue" d="M168.58,-336.08C161.15,-328.22 150.15,-316.57 141.19,-307.08"/>
<polygon fill="midnightblue" stroke="midnightblue" points="143.68,-304.62 134.26,-299.75 138.59,-309.42 143.68,-304.62"/>
</g>
<!-- Node4&#45;&gt;Node3 -->
<g id="edge4" class="edge">
<title>Node4&#45;&gt;Node3</title>
<path fill="none" stroke="midnightblue" d="M289.45,-233.41C255.82,-232.31 199,-224.72 172,-188 136.27,-139.41 170.71,-62.91 189.54,-28.63"/>
<polygon fill="midnightblue" stroke="midnightblue" points="192.67,-30.21 194.57,-19.78 186.59,-26.74 192.67,-30.21"/>
</g>
<!-- Node5 -->
<g id="node5" class="node">
<title>Node5</title>
<g id="a_node5"><a xlink:title=" ">
<polygon fill="white" stroke="#bfbfbf" points="76.5,-56.5 76.5,-75.5 123.5,-75.5 123.5,-56.5 76.5,-56.5"/>
<text text-anchor="middle" x="100" y="-63.5" font-family="Helvetica,sans-Serif" font-size="10.00">vector</text>
</a>
</g>
</g>
<!-- Node4&#45;&gt;Node5 -->
<g id="edge5" class="edge">
<title>Node4&#45;&gt;Node5</title>
<path fill="none" stroke="midnightblue" d="M289.28,-233.88C250.76,-233.64 179.7,-227.4 138,-188 109.42,-161 102.22,-112.79 100.48,-86.1"/>
<polygon fill="midnightblue" stroke="midnightblue" points="103.97,-85.63 100.02,-75.8 96.97,-85.95 103.97,-85.63"/>
</g>
<!-- Node6 -->
<g id="node6" class="node">
<title>Node6</title>
<g id="a_node6"><a xlink:href="square_8h.html" target="_top" xlink:title=" ">
<polygon fill="white" stroke="black" points="180.5,-168.5 180.5,-187.5 239.5,-187.5 239.5,-168.5 180.5,-168.5"/>
<text text-anchor="middle" x="210" y="-175.5" font-family="Helvetica,sans-Serif" font-size="10.00">square.h</text>
</a>
</g>
</g>
<!-- Node4&#45;&gt;Node6 -->
<g id="edge6" class="edge">
<title>Node4&#45;&gt;Node6</title>
<path fill="none" stroke="midnightblue" d="M298.97,-224.32C281.97,-215.66 255.62,-202.24 236.01,-192.25"/>
<polygon fill="midnightblue" stroke="midnightblue" points="237.49,-189.08 226.99,-187.65 234.31,-195.31 237.49,-189.08"/>
</g>
<!-- Node9 -->
<g id="node9" class="node">
<title>Node9</title>
<g id="a_node9"><a xlink:href="position_8h.html" target="_top" xlink:title=" ">
<polygon fill="white" stroke="black" points="399.5,-56.5 399.5,-75.5 464.5,-75.5 464.5,-56.5 399.5,-56.5"/>
<text text-anchor="middle" x="432" y="-63.5" font-family="Helvetica,sans-Serif" font-size="10.00">position.h</text>
</a>
</g>
</g>
<!-- Node4&#45;&gt;Node9 -->
<g id="edge14" class="edge">
<title>Node4&#45;&gt;Node9</title>
<path fill="none" stroke="midnightblue" d="M342.71,-231.65C422.03,-227.35 652.09,-212.84 674,-188 679.88,-181.33 678.93,-175.4 674,-168 650.82,-133.21 536.33,-96.35 473.48,-78.3"/>
<polygon fill="midnightblue" stroke="midnightblue" points="474.44,-74.93 463.86,-75.57 472.53,-81.66 474.44,-74.93"/>
</g>
<!-- Node10 -->
<g id="node10" class="node">
<title>Node10</title>
<g id="a_node10"><a xlink:href="pawn_8h.html" target="_top" xlink:title=" ">
<polygon fill="white" stroke="black" points="473,-168.5 473,-187.5 525,-187.5 525,-168.5 473,-168.5"/>
<text text-anchor="middle" x="499" y="-175.5" font-family="Helvetica,sans-Serif" font-size="10.00">pawn.h</text>
</a>
</g>
</g>
<!-- Node4&#45;&gt;Node10 -->
<g id="edge15" class="edge">
<title>Node4&#45;&gt;Node10</title>
<path fill="none" stroke="midnightblue" d="M342.61,-225.15C374.37,-215.78 427.62,-200.06 463.02,-189.62"/>
<polygon fill="midnightblue" stroke="midnightblue" points="464.35,-192.87 472.95,-186.69 462.37,-186.16 464.35,-192.87"/>
</g>
<!-- Node11 -->
<g id="node11" class="node">
<title>Node11</title>
<g id="a_node11"><a xlink:href="queen_8h.html" target="_top" xlink:title=" ">
<polygon fill="white" stroke="black" points="543,-168.5 543,-187.5 599,-187.5 599,-168.5 543,-168.5"/>
<text text-anchor="middle" x="571" y="-175.5" font-family="Helvetica,sans-Serif" font-size="10.00">queen.h</text>
</a>
</g>
</g>
<!-- Node4&#45;&gt;Node11 -->
<g id="edge17" class="edge">
<title>Node4&#45;&gt;Node11</title>
<path fill="none" stroke="midnightblue" d="M342.58,-227.83C381.93,-220.1 458.26,-204.85 532.73,-188.23"/>
<polygon fill="midnightblue" stroke="midnightblue" points="533.75,-191.59 542.74,-185.98 532.22,-184.76 533.75,-191.59"/>
</g>
<!-- Node12 -->
<g id="node12" class="node">
<title>Node12</title>
<g id="a_node12"><a xlink:href="king_8h.html" target="_top" xlink:title=" ">
<polygon fill="white" stroke="black" points="617.5,-168.5 617.5,-187.5 664.5,-187.5 664.5,-168.5 617.5,-168.5"/>
<text text-anchor="middle" x="641" y="-175.5" font-family="Helvetica,sans-Serif" font-size="10.00">king.h</text>
</a>
</g>
</g>
<!-- Node4&#45;&gt;Node12 -->
<g id="edge19" class="edge">
<title>Node4&#45;&gt;Node12</title>
<path fill="none" stroke="midnightblue" d="M342.76,-229.91C392.76,-223.91 503.93,-209.53 607.31,-187.93"/>
<polygon fill="midnightblue" stroke="midnightblue" points="608.23,-191.31 617.29,-185.81 606.78,-184.46 608.23,-191.31"/>
</g>
<!-- Node13 -->
<g id="node13" class="node">
<title>Node13</title>
<g id="a_node13"><a xlink:href="rook_8h.html" target="_top" xlink:title=" ">
<polygon fill="white" stroke="black" points="257.5,-168.5 257.5,-187.5 304.5,-187.5 304.5,-168.5 257.5,-168.5"/>
<text text-anchor="middle" x="281" y="-175.5" font-family="Helvetica,sans-Serif" font-size="10.00">rook.h</text>
</a>
</g>
</g>
<!-- Node4&#45;&gt;Node13 -->
<g id="edge21" class="edge">
<title>Node4&#45;&gt;Node13</title>
<path fill="none" stroke="midnightblue" d="M310.22,-224.08C305.33,-216.53 298.17,-205.49 292.17,-196.23"/>
<polygon fill="midnightblue" stroke="midnightblue" points="295.05,-194.24 286.67,-187.75 289.17,-198.05 295.05,-194.24"/>
</g>
<!-- Node14 -->
<g id="node14" class="node">
<title>Node14</title>
<g id="a_node14"><a xlink:href="bishop_8h.html" target="_top" xlink:title=" ">
<polygon fill="white" stroke="black" points="323,-168.5 323,-187.5 381,-187.5 381,-168.5 323,-168.5"/>
<text text-anchor="middle" x="352" y="-175.5" font-family="Helvetica,sans-Serif" font-size="10.00">bishop.h</text>
</a>
</g>
</g>
<!-- Node4&#45;&gt;Node14 -->
<g id="edge23" class="edge">
<title>Node4&#45;&gt;Node14</title>
<path fill="none" stroke="midnightblue" d="M321.94,-224.08C326.98,-216.53 334.34,-205.49 340.51,-196.23"/>
<polygon fill="midnightblue" stroke="midnightblue" points="343.53,-198.01 346.17,-187.75 337.71,-194.13 343.53,-198.01"/>
</g>
<!-- Node15 -->
<g id="node15" class="node">
<title>Node15</title>
<g id="a_node15"><a xlink:href="knight_8h.html" target="_top" xlink:title=" ">
<polygon fill="white" stroke="black" points="399,-168.5 399,-187.5 455,-187.5 455,-168.5 399,-168.5"/>
<text text-anchor="middle" x="427" y="-175.5" font-family="Helvetica,sans-Serif" font-size="10.00">knight.h</text>
</a>
</g>
</g>
<!-- Node4&#45;&gt;Node15 -->
<g id="edge25" class="edge">
<title>Node4&#45;&gt;Node15</title>
<path fill="none" stroke="midnightblue" d="M333.83,-224.32C351.72,-215.62 379.48,-202.12 400.05,-192.11"/>
<polygon fill="midnightblue" stroke="midnightblue" points="401.75,-195.18 409.21,-187.65 398.69,-188.88 401.75,-195.18"/>
</g>
<!-- Node6&#45;&gt;Node3 -->
<g id="edge7" class="edge">
<title>Node6&#45;&gt;Node3</title>
<path fill="none" stroke="midnightblue" d="M209.46,-168.08C207.89,-141.95 203.27,-65.21 201.12,-29.58"/>
<polygon fill="midnightblue" stroke="midnightblue" points="204.61,-29.34 200.52,-19.57 197.62,-29.76 204.61,-29.34"/>
</g>
<!-- Node7 -->
<g id="node7" class="node">
<title>Node7</title>
<g id="a_node7"><a xlink:title=" ">
<polygon fill="white" stroke="#bfbfbf" points="228,-112.5 228,-131.5 286,-131.5 286,-112.5 228,-112.5"/>
<text text-anchor="middle" x="257" y="-119.5" font-family="Helvetica,sans-Serif" font-size="10.00">memory</text>
</a>
</g>
</g>
<!-- Node6&#45;&gt;Node7 -->
<g id="edge8" class="edge">
<title>Node6&#45;&gt;Node7</title>
<path fill="none" stroke="midnightblue" d="M217.76,-168.08C224.54,-160.3 234.54,-148.8 242.76,-139.37"/>
<polygon fill="midnightblue" stroke="midnightblue" points="245.46,-141.59 249.38,-131.75 240.18,-137 245.46,-141.59"/>
</g>
<!-- Node8 -->
<g id="node8" class="node">
<title>Node8</title>
<g id="a_node8"><a xlink:href="piece_8h.html" target="_top" xlink:title=" ">
<polygon fill="white" stroke="black" points="363,-112.5 363,-131.5 415,-131.5 415,-112.5 363,-112.5"/>
<text text-anchor="middle" x="389" y="-119.5" font-family="Helvetica,sans-Serif" font-size="10.00">piece.h</text>
</a>
</g>
</g>
<!-- Node6&#45;&gt;Node8 -->
<g id="edge9" class="edge">
<title>Node6&#45;&gt;Node8</title>
<path fill="none" stroke="midnightblue" d="M238.36,-168.44C269.36,-159.09 319.11,-144.08 352.88,-133.9"/>
<polygon fill="midnightblue" stroke="midnightblue" points="354.24,-137.14 362.81,-130.9 352.22,-130.44 354.24,-137.14"/>
</g>
<!-- Node8&#45;&gt;Node3 -->
<g id="edge10" class="edge">
<title>Node8&#45;&gt;Node3</title>
<path fill="none" stroke="midnightblue" d="M374.17,-112.37C341.46,-93.33 262.91,-47.62 223.45,-24.65"/>
<polygon fill="midnightblue" stroke="midnightblue" points="225.16,-21.6 214.76,-19.59 221.64,-27.65 225.16,-21.6"/>
</g>
<!-- Node8&#45;&gt;Node5 -->
<g id="edge11" class="edge">
<title>Node8&#45;&gt;Node5</title>
<path fill="none" stroke="midnightblue" d="M362.84,-116.11C310.39,-106.31 192.4,-84.26 134.03,-73.36"/>
<polygon fill="midnightblue" stroke="midnightblue" points="134.32,-69.85 123.85,-71.46 133.04,-76.73 134.32,-69.85"/>
</g>
<!-- Node8&#45;&gt;Node9 -->
<g id="edge12" class="edge">
<title>Node8&#45;&gt;Node9</title>
<path fill="none" stroke="midnightblue" d="M396.1,-112.08C402.24,-104.38 411.27,-93.03 418.74,-83.65"/>
<polygon fill="midnightblue" stroke="midnightblue" points="421.54,-85.75 425.03,-75.75 416.06,-81.39 421.54,-85.75"/>
</g>
<!-- Node9&#45;&gt;Node3 -->
<g id="edge13" class="edge">
<title>Node9&#45;&gt;Node3</title>
<path fill="none" stroke="midnightblue" d="M399.25,-57.38C357.42,-47.64 285.06,-30.8 240.01,-20.31"/>
<polygon fill="midnightblue" stroke="midnightblue" points="240.54,-16.84 230,-17.98 238.95,-23.66 240.54,-16.84"/>
</g>
<!-- Node10&#45;&gt;Node8 -->
<g id="edge16" class="edge">
<title>Node10&#45;&gt;Node8</title>
<path fill="none" stroke="midnightblue" d="M481.33,-168.32C463.61,-159.62 436.1,-146.12 415.71,-136.11"/>
<polygon fill="midnightblue" stroke="midnightblue" points="417.15,-132.92 406.63,-131.65 414.06,-139.2 417.15,-132.92"/>
</g>
<!-- Node11&#45;&gt;Node8 -->
<g id="edge18" class="edge">
<title>Node11&#45;&gt;Node8</title>
<path fill="none" stroke="midnightblue" d="M542.96,-168.68C511.2,-159.26 459.36,-143.88 424.72,-133.6"/>
<polygon fill="midnightblue" stroke="midnightblue" points="425.59,-130.2 415.01,-130.72 423.6,-136.92 425.59,-130.2"/>
</g>
<!-- Node12&#45;&gt;Node8 -->
<g id="edge20" class="edge">
<title>Node12&#45;&gt;Node8</title>
<path fill="none" stroke="midnightblue" d="M617.25,-170.33C614.15,-169.51 611,-168.72 608,-168 544,-152.71 468.73,-137.94 425.18,-129.7"/>
<polygon fill="midnightblue" stroke="midnightblue" points="425.55,-126.21 415.08,-127.8 424.26,-133.09 425.55,-126.21"/>
</g>
<!-- Node13&#45;&gt;Node8 -->
<g id="edge22" class="edge">
<title>Node13&#45;&gt;Node8</title>
<path fill="none" stroke="midnightblue" d="M298.35,-168.32C315.67,-159.66 342.52,-146.24 362.5,-136.25"/>
<polygon fill="midnightblue" stroke="midnightblue" points="364.31,-139.26 371.69,-131.65 361.18,-133 364.31,-139.26"/>
</g>
<!-- Node14&#45;&gt;Node8 -->
<g id="edge24" class="edge">
<title>Node14&#45;&gt;Node8</title>
<path fill="none" stroke="midnightblue" d="M358.11,-168.08C363.28,-160.53 370.85,-149.49 377.19,-140.23"/>
<polygon fill="midnightblue" stroke="midnightblue" points="380.24,-141.98 383,-131.75 374.46,-138.02 380.24,-141.98"/>
</g>
<!-- Node15&#45;&gt;Node8 -->
<g id="edge26" class="edge">
<title>Node15&#45;&gt;Node8</title>
<path fill="none" stroke="midnightblue" d="M420.73,-168.08C415.36,-160.46 407.48,-149.26 400.92,-139.94"/>
<polygon fill="midnightblue" stroke="midnightblue" points="403.78,-137.91 395.16,-131.75 398.05,-141.94 403.78,-137.91"/>
</g>
<!-- Node16&#45;&gt;Node3 -->
<g id="edge28" class="edge">
<title>Node16&#45;&gt;Node3</title>
<path fill="none" stroke="midnightblue" d="M111.86,-280.36C86.99,-263.95 38,-225.71 38,-179 38,-179 38,-179 38,-121 38,-89.37 43.61,-77.3 67,-56 92.6,-32.68 130.74,-21.39 159.62,-15.95"/>
<polygon fill="midnightblue" stroke="midnightblue" points="160.54,-19.35 169.81,-14.2 159.36,-12.45 160.54,-19.35"/>
</g>
<!-- Node16&#45;&gt;Node4 -->
<g id="edge30" class="edge">
<title>Node16&#45;&gt;Node4</title>
<path fill="none" stroke="midnightblue" d="M154.04,-281.03C187.34,-271.57 242.99,-255.75 279.6,-245.35"/>
<polygon fill="midnightblue" stroke="midnightblue" points="280.72,-248.67 289.38,-242.56 278.81,-241.93 280.72,-248.67"/>
</g>
<!-- Node16&#45;&gt;Node5 -->
<g id="edge29" class="edge">
<title>Node16&#45;&gt;Node5</title>
<path fill="none" stroke="midnightblue" d="M124.02,-280.21C118.79,-256.47 104.69,-189 100,-132 98.73,-116.52 98.82,-98.89 99.18,-85.9"/>
<polygon fill="midnightblue" stroke="midnightblue" points="102.68,-85.97 99.54,-75.85 95.69,-85.72 102.68,-85.97"/>
</g>
<!-- Node18&#45;&gt;Node3 -->
<g id="edge33" class="edge">
<title>Node18&#45;&gt;Node3</title>
<path fill="none" stroke="midnightblue" d="M723.61,-112.4C670.35,-99.25 564.58,-73.79 474,-56 391.29,-39.76 293.75,-24.71 240.22,-16.8"/>
<polygon fill="midnightblue" stroke="midnightblue" points="240.52,-13.31 230.11,-15.32 239.5,-20.24 240.52,-13.31"/>
</g>
<!-- Node18&#45;&gt;Node9 -->
<g id="edge34" class="edge">
<title>Node18&#45;&gt;Node9</title>
<path fill="none" stroke="midnightblue" d="M711.98,-113.38C648.94,-102.93 536.54,-84.32 475.07,-74.13"/>
<polygon fill="midnightblue" stroke="midnightblue" points="475.37,-70.64 464.93,-72.46 474.23,-77.54 475.37,-70.64"/>
</g>
</g>
</svg>
