<?xml version="1.0" encoding="UTF-8" standalone="no"?>
<!DOCTYPE svg PUBLIC "-//W3C//DTD SVG 1.1//EN"
 "http://www.w3.org/Graphics/SVG/1.1/DTD/svg11.dtd">
<!-- Generated by graphviz version 2.43.0 (0)
 -->
<!-- Title: src/file_manager.cpp Pages: 1 -->
<svg width="1090pt" height="420pt"
 viewBox="0.00 0.00 1090.00 420.00" xmlns="http://www.w3.org/2000/svg" xmlns:xlink="http://www.w3.org/1999/xlink">
<g id="graph0" class="graph" transform="scale(1 1) rotate(0) translate(4 416)">
<title>src/file_manager.cpp</title>
<polygon fill="white" stroke="transparent" points="-4,4 -4,-416 1086,-416 1086,4 -4,4"/>
<!-- Node1 -->
<g id="node1" class="node">
<title>Node1</title>
<g id="a_node1"><a xlink:title=" ">
<polygon fill="#bfbfbf" stroke="black" points="844,-392.5 844,-411.5 961,-411.5 961,-392.5 844,-392.5"/>
<text text-anchor="middle" x="902.5" y="-399.5" font-family="Helvetica,sans-Serif" font-size="10.00">src/file_manager.cpp</text>
</a>
</g>
</g>
<!-- Node2 -->
<g id="node2" class="node">
<title>Node2</title>
<g id="a_node2"><a xlink:href="file__manager_8h.html" target="_top" xlink:title=" ">
<polygon fill="white" stroke="black" points="179,-336.5 179,-355.5 268,-355.5 268,-336.5 179,-336.5"/>
<text text-anchor="middle" x="223.5" y="-343.5" font-family="Helvetica,sans-Serif" font-size="10.00">file_manager.h</text>
</a>
</g>
</g>
<!-- Node1&#45;&gt;Node2 -->
<g id="edge1" class="edge">
<title>Node1&#45;&gt;Node2</title>
<path fill="none" stroke="midnightblue" d="M843.73,-396.33C714,-386.01 404.68,-361.41 278.51,-351.37"/>
<polygon fill="midnightblue" stroke="midnightblue" points="278.56,-347.87 268.31,-350.56 278,-354.85 278.56,-347.87"/>
</g>
<!-- Node19 -->
<g id="node19" class="node">
<title>Node19</title>
<g id="a_node19"><a xlink:title=" ">
<polygon fill="white" stroke="#bfbfbf" points="930.5,-336.5 930.5,-355.5 998.5,-355.5 998.5,-336.5 930.5,-336.5"/>
<text text-anchor="middle" x="964.5" y="-343.5" font-family="Helvetica,sans-Serif" font-size="10.00">filesystem</text>
</a>
</g>
</g>
<!-- Node1&#45;&gt;Node19 -->
<g id="edge33" class="edge">
<title>Node1&#45;&gt;Node19</title>
<path fill="none" stroke="midnightblue" d="M912.46,-392.32C921.63,-384.34 935.44,-372.31 946.53,-362.65"/>
<polygon fill="midnightblue" stroke="midnightblue" points="949.12,-365.04 954.36,-355.83 944.52,-359.76 949.12,-365.04"/>
</g>
<!-- Node20 -->
<g id="node20" class="node">
<title>Node20</title>
<g id="a_node20"><a xlink:title=" ">
<polygon fill="white" stroke="#bfbfbf" points="1017,-336.5 1017,-355.5 1082,-355.5 1082,-336.5 1017,-336.5"/>
<text text-anchor="middle" x="1049.5" y="-343.5" font-family="Helvetica,sans-Serif" font-size="10.00">stdexcept</text>
</a>
</g>
</g>
<!-- Node1&#45;&gt;Node20 -->
<g id="edge34" class="edge">
<title>Node1&#45;&gt;Node20</title>
<path fill="none" stroke="midnightblue" d="M925.79,-392.44C950.31,-383.44 989.1,-369.19 1016.7,-359.05"/>
<polygon fill="midnightblue" stroke="midnightblue" points="1018.14,-362.25 1026.32,-355.52 1015.72,-355.68 1018.14,-362.25"/>
</g>
<!-- Node21 -->
<g id="node21" class="node">
<title>Node21</title>
<g id="a_node21"><a xlink:href="input__handler_8h.html" target="_top" xlink:title=" ">
<polygon fill="white" stroke="black" points="892.5,-112.5 892.5,-131.5 984.5,-131.5 984.5,-112.5 892.5,-112.5"/>
<text text-anchor="middle" x="938.5" y="-119.5" font-family="Helvetica,sans-Serif" font-size="10.00">input_handler.h</text>
</a>
</g>
</g>
<!-- Node1&#45;&gt;Node21 -->
<g id="edge35" class="edge">
<title>Node1&#45;&gt;Node21</title>
<path fill="none" stroke="midnightblue" d="M902.5,-392.44C902.5,-373.94 902.5,-328.81 902.5,-291 902.5,-291 902.5,-291 902.5,-233 902.5,-198.98 918.24,-161.85 928.91,-140.6"/>
<polygon fill="midnightblue" stroke="midnightblue" points="932.12,-142.01 933.64,-131.53 925.91,-138.77 932.12,-142.01"/>
</g>
<!-- Node22 -->
<g id="node22" class="node">
<title>Node22</title>
<g id="a_node22"><a xlink:href="fen_8h.html" target="_top" xlink:title=" ">
<polygon fill="white" stroke="black" points="801,-336.5 801,-355.5 842,-355.5 842,-336.5 801,-336.5"/>
<text text-anchor="middle" x="821.5" y="-343.5" font-family="Helvetica,sans-Serif" font-size="10.00">fen.h</text>
</a>
</g>
</g>
<!-- Node1&#45;&gt;Node22 -->
<g id="edge38" class="edge">
<title>Node1&#45;&gt;Node22</title>
<path fill="none" stroke="midnightblue" d="M889.49,-392.32C876.97,-383.98 857.82,-371.21 843.03,-361.35"/>
<polygon fill="midnightblue" stroke="midnightblue" points="844.74,-358.29 834.48,-355.65 840.86,-364.11 844.74,-358.29"/>
</g>
<!-- Node3 -->
<g id="node3" class="node">
<title>Node3</title>
<g id="a_node3"><a xlink:title=" ">
<polygon fill="white" stroke="#bfbfbf" points="626.5,-0.5 626.5,-19.5 686.5,-19.5 686.5,-0.5 626.5,-0.5"/>
<text text-anchor="middle" x="656.5" y="-7.5" font-family="Helvetica,sans-Serif" font-size="10.00">iostream</text>
</a>
</g>
</g>
<!-- Node2&#45;&gt;Node3 -->
<g id="edge2" class="edge">
<title>Node2&#45;&gt;Node3</title>
<path fill="none" stroke="midnightblue" d="M209.04,-336.44C183.6,-320.16 133.5,-282.13 133.5,-235 133.5,-235 133.5,-235 133.5,-121 133.5,-22.5 493.23,-11.72 616,-10.91"/>
<polygon fill="midnightblue" stroke="midnightblue" points="616.14,-14.41 626.12,-10.86 616.1,-7.41 616.14,-14.41"/>
</g>
<!-- Node4 -->
<g id="node4" class="node">
<title>Node4</title>
<g id="a_node4"><a xlink:title=" ">
<polygon fill="white" stroke="#bfbfbf" points="0,-280.5 0,-299.5 55,-299.5 55,-280.5 0,-280.5"/>
<text text-anchor="middle" x="27.5" y="-287.5" font-family="Helvetica,sans-Serif" font-size="10.00">fstream</text>
</a>
</g>
</g>
<!-- Node2&#45;&gt;Node4 -->
<g id="edge3" class="edge">
<title>Node2&#45;&gt;Node4</title>
<path fill="none" stroke="midnightblue" d="M192.44,-336.44C157.91,-326.93 102.13,-311.56 65.14,-301.37"/>
<polygon fill="midnightblue" stroke="midnightblue" points="65.81,-297.93 55.24,-298.64 63.95,-304.67 65.81,-297.93"/>
</g>
<!-- Node5 -->
<g id="node5" class="node">
<title>Node5</title>
<g id="a_node5"><a xlink:title=" ">
<polygon fill="white" stroke="#bfbfbf" points="73.5,-280.5 73.5,-299.5 105.5,-299.5 105.5,-280.5 73.5,-280.5"/>
<text text-anchor="middle" x="89.5" y="-287.5" font-family="Helvetica,sans-Serif" font-size="10.00">set</text>
</a>
</g>
</g>
<!-- Node2&#45;&gt;Node5 -->
<g id="edge4" class="edge">
<title>Node2&#45;&gt;Node5</title>
<path fill="none" stroke="midnightblue" d="M202.27,-336.44C178.55,-326.89 140.19,-311.43 114.9,-301.24"/>
<polygon fill="midnightblue" stroke="midnightblue" points="116.17,-297.97 105.59,-297.48 113.55,-304.47 116.17,-297.97"/>
</g>
<!-- Node6 -->
<g id="node6" class="node">
<title>Node6</title>
<g id="a_node6"><a xlink:href="board_8h.html" target="_top" xlink:title=" ">
<polygon fill="white" stroke="black" points="465,-224.5 465,-243.5 518,-243.5 518,-224.5 465,-224.5"/>
<text text-anchor="middle" x="491.5" y="-231.5" font-family="Helvetica,sans-Serif" font-size="10.00">board.h</text>
</a>
</g>
</g>
<!-- Node2&#45;&gt;Node6 -->
<g id="edge5" class="edge">
<title>Node2&#45;&gt;Node6</title>
<path fill="none" stroke="midnightblue" d="M244.53,-336.37C291.69,-317.01 406.07,-270.06 461.03,-247.51"/>
<polygon fill="midnightblue" stroke="midnightblue" points="462.65,-250.63 470.57,-243.59 459.99,-244.15 462.65,-250.63"/>
</g>
<!-- Node18 -->
<g id="node18" class="node">
<title>Node18</title>
<g id="a_node18"><a xlink:href="player_8h.html" target="_top" xlink:title=" ">
<polygon fill="white" stroke="black" points="760.5,-280.5 760.5,-299.5 816.5,-299.5 816.5,-280.5 760.5,-280.5"/>
<text text-anchor="middle" x="788.5" y="-287.5" font-family="Helvetica,sans-Serif" font-size="10.00">player.h</text>
</a>
</g>
</g>
<!-- Node2&#45;&gt;Node18 -->
<g id="edge29" class="edge">
<title>Node2&#45;&gt;Node18</title>
<path fill="none" stroke="midnightblue" d="M268.31,-340.72C376.32,-330.39 649.59,-304.28 750.39,-294.64"/>
<polygon fill="midnightblue" stroke="midnightblue" points="750.81,-298.12 760.43,-293.68 750.14,-291.15 750.81,-298.12"/>
</g>
<!-- Node6&#45;&gt;Node3 -->
<g id="edge6" class="edge">
<title>Node6&#45;&gt;Node3</title>
<path fill="none" stroke="midnightblue" d="M464.67,-232.73C402.7,-231.47 252.52,-224.62 221.5,-188 215.75,-181.22 219.1,-176.56 221.5,-168 239.72,-102.87 262.43,-82.85 324.5,-56 376.19,-33.64 539.64,-19.36 616.2,-13.73"/>
<polygon fill="midnightblue" stroke="midnightblue" points="616.68,-17.2 626.41,-12.99 616.18,-10.22 616.68,-17.2"/>
</g>
<!-- Node7 -->
<g id="node7" class="node">
<title>Node7</title>
<g id="a_node7"><a xlink:title=" ">
<polygon fill="white" stroke="#bfbfbf" points="592,-56.5 592,-75.5 639,-75.5 639,-56.5 592,-56.5"/>
<text text-anchor="middle" x="615.5" y="-63.5" font-family="Helvetica,sans-Serif" font-size="10.00">vector</text>
</a>
</g>
</g>
<!-- Node6&#45;&gt;Node7 -->
<g id="edge7" class="edge">
<title>Node6&#45;&gt;Node7</title>
<path fill="none" stroke="midnightblue" d="M464.91,-232.6C404.25,-231.07 258.59,-223.68 228.5,-188 222.77,-181.21 225.89,-176.5 228.5,-168 237.33,-139.25 240.88,-127.76 266.5,-112 318.81,-79.83 504.2,-70.43 581.39,-67.88"/>
<polygon fill="midnightblue" stroke="midnightblue" points="581.65,-71.38 591.54,-67.57 581.43,-64.38 581.65,-71.38"/>
</g>
<!-- Node8 -->
<g id="node8" class="node">
<title>Node8</title>
<g id="a_node8"><a xlink:href="square_8h.html" target="_top" xlink:title=" ">
<polygon fill="white" stroke="black" points="238,-168.5 238,-187.5 297,-187.5 297,-168.5 238,-168.5"/>
<text text-anchor="middle" x="267.5" y="-175.5" font-family="Helvetica,sans-Serif" font-size="10.00">square.h</text>
</a>
</g>
</g>
<!-- Node6&#45;&gt;Node8 -->
<g id="edge8" class="edge">
<title>Node6&#45;&gt;Node8</title>
<path fill="none" stroke="midnightblue" d="M464.92,-226.59C425.81,-217.17 352.49,-199.49 307.05,-188.53"/>
<polygon fill="midnightblue" stroke="midnightblue" points="307.78,-185.11 297.24,-186.17 306.14,-191.92 307.78,-185.11"/>
</g>
<!-- Node11 -->
<g id="node11" class="node">
<title>Node11</title>
<g id="a_node11"><a xlink:href="position_8h.html" target="_top" xlink:title=" ">
<polygon fill="white" stroke="black" points="688,-56.5 688,-75.5 753,-75.5 753,-56.5 688,-56.5"/>
<text text-anchor="middle" x="720.5" y="-63.5" font-family="Helvetica,sans-Serif" font-size="10.00">position.h</text>
</a>
</g>
</g>
<!-- Node6&#45;&gt;Node11 -->
<g id="edge16" class="edge">
<title>Node6&#45;&gt;Node11</title>
<path fill="none" stroke="midnightblue" d="M518.32,-232.11C575.13,-229.6 704.63,-220.38 731.5,-188 755.77,-158.75 740.43,-110.74 729.21,-84.86"/>
<polygon fill="midnightblue" stroke="midnightblue" points="732.28,-83.16 724.92,-75.53 725.92,-86.08 732.28,-83.16"/>
</g>
<!-- Node12 -->
<g id="node12" class="node">
<title>Node12</title>
<g id="a_node12"><a xlink:href="pawn_8h.html" target="_top" xlink:title=" ">
<polygon fill="white" stroke="black" points="465.5,-168.5 465.5,-187.5 517.5,-187.5 517.5,-168.5 465.5,-168.5"/>
<text text-anchor="middle" x="491.5" y="-175.5" font-family="Helvetica,sans-Serif" font-size="10.00">pawn.h</text>
</a>
</g>
</g>
<!-- Node6&#45;&gt;Node12 -->
<g id="edge17" class="edge">
<title>Node6&#45;&gt;Node12</title>
<path fill="none" stroke="midnightblue" d="M491.5,-224.08C491.5,-217.01 491.5,-206.86 491.5,-197.99"/>
<polygon fill="midnightblue" stroke="midnightblue" points="495,-197.75 491.5,-187.75 488,-197.75 495,-197.75"/>
</g>
<!-- Node13 -->
<g id="node13" class="node">
<title>Node13</title>
<g id="a_node13"><a xlink:href="queen_8h.html" target="_top" xlink:title=" ">
<polygon fill="white" stroke="black" points="535.5,-168.5 535.5,-187.5 591.5,-187.5 591.5,-168.5 535.5,-168.5"/>
<text text-anchor="middle" x="563.5" y="-175.5" font-family="Helvetica,sans-Serif" font-size="10.00">queen.h</text>
</a>
</g>
</g>
<!-- Node6&#45;&gt;Node13 -->
<g id="edge19" class="edge">
<title>Node6&#45;&gt;Node13</title>
<path fill="none" stroke="midnightblue" d="M503.07,-224.32C513.92,-216.18 530.38,-203.84 543.38,-194.09"/>
<polygon fill="midnightblue" stroke="midnightblue" points="545.82,-196.63 551.72,-187.83 541.62,-191.03 545.82,-196.63"/>
</g>
<!-- Node14 -->
<g id="node14" class="node">
<title>Node14</title>
<g id="a_node14"><a xlink:href="king_8h.html" target="_top" xlink:title=" ">
<polygon fill="white" stroke="black" points="610,-168.5 610,-187.5 657,-187.5 657,-168.5 610,-168.5"/>
<text text-anchor="middle" x="633.5" y="-175.5" font-family="Helvetica,sans-Serif" font-size="10.00">king.h</text>
</a>
</g>
</g>
<!-- Node6&#45;&gt;Node14 -->
<g id="edge21" class="edge">
<title>Node6&#45;&gt;Node14</title>
<path fill="none" stroke="midnightblue" d="M514,-224.44C537.58,-215.48 574.82,-201.31 601.46,-191.18"/>
<polygon fill="midnightblue" stroke="midnightblue" points="603,-194.34 611.1,-187.52 600.51,-187.8 603,-194.34"/>
</g>
<!-- Node15 -->
<g id="node15" class="node">
<title>Node15</title>
<g id="a_node15"><a xlink:href="rook_8h.html" target="_top" xlink:title=" ">
<polygon fill="white" stroke="black" points="675,-168.5 675,-187.5 722,-187.5 722,-168.5 675,-168.5"/>
<text text-anchor="middle" x="698.5" y="-175.5" font-family="Helvetica,sans-Serif" font-size="10.00">rook.h</text>
</a>
</g>
</g>
<!-- Node6&#45;&gt;Node15 -->
<g id="edge23" class="edge">
<title>Node6&#45;&gt;Node15</title>
<path fill="none" stroke="midnightblue" d="M518.23,-226.32C550.72,-218.17 607.45,-203.79 664.8,-188.42"/>
<polygon fill="midnightblue" stroke="midnightblue" points="666,-191.72 674.75,-185.74 664.18,-184.96 666,-191.72"/>
</g>
<!-- Node16 -->
<g id="node16" class="node">
<title>Node16</title>
<g id="a_node16"><a xlink:href="bishop_8h.html" target="_top" xlink:title=" ">
<polygon fill="white" stroke="black" points="315.5,-168.5 315.5,-187.5 373.5,-187.5 373.5,-168.5 315.5,-168.5"/>
<text text-anchor="middle" x="344.5" y="-175.5" font-family="Helvetica,sans-Serif" font-size="10.00">bishop.h</text>
</a>
</g>
</g>
<!-- Node6&#45;&gt;Node16 -->
<g id="edge25" class="edge">
<title>Node6&#45;&gt;Node16</title>
<path fill="none" stroke="midnightblue" d="M468.21,-224.44C443.69,-215.44 404.9,-201.19 377.3,-191.05"/>
<polygon fill="midnightblue" stroke="midnightblue" points="378.28,-187.68 367.68,-187.52 375.86,-194.25 378.28,-187.68"/>
</g>
<!-- Node17 -->
<g id="node17" class="node">
<title>Node17</title>
<g id="a_node17"><a xlink:href="knight_8h.html" target="_top" xlink:title=" ">
<polygon fill="white" stroke="black" points="391.5,-168.5 391.5,-187.5 447.5,-187.5 447.5,-168.5 391.5,-168.5"/>
<text text-anchor="middle" x="419.5" y="-175.5" font-family="Helvetica,sans-Serif" font-size="10.00">knight.h</text>
</a>
</g>
</g>
<!-- Node6&#45;&gt;Node17 -->
<g id="edge27" class="edge">
<title>Node6&#45;&gt;Node17</title>
<path fill="none" stroke="midnightblue" d="M479.93,-224.32C469.08,-216.18 452.62,-203.84 439.62,-194.09"/>
<polygon fill="midnightblue" stroke="midnightblue" points="441.38,-191.03 431.28,-187.83 437.18,-196.63 441.38,-191.03"/>
</g>
<!-- Node8&#45;&gt;Node3 -->
<g id="edge9" class="edge">
<title>Node8&#45;&gt;Node3</title>
<path fill="none" stroke="midnightblue" d="M264.29,-168.36C259.87,-154.82 253.79,-128.42 266.5,-112 309.53,-56.4 525.5,-25.84 616.24,-15.28"/>
<polygon fill="midnightblue" stroke="midnightblue" points="616.88,-18.73 626.41,-14.12 616.08,-11.77 616.88,-18.73"/>
</g>
<!-- Node9 -->
<g id="node9" class="node">
<title>Node9</title>
<g id="a_node9"><a xlink:title=" ">
<polygon fill="white" stroke="#bfbfbf" points="275.5,-112.5 275.5,-131.5 333.5,-131.5 333.5,-112.5 275.5,-112.5"/>
<text text-anchor="middle" x="304.5" y="-119.5" font-family="Helvetica,sans-Serif" font-size="10.00">memory</text>
</a>
</g>
</g>
<!-- Node8&#45;&gt;Node9 -->
<g id="edge10" class="edge">
<title>Node8&#45;&gt;Node9</title>
<path fill="none" stroke="midnightblue" d="M273.61,-168.08C278.78,-160.53 286.35,-149.49 292.69,-140.23"/>
<polygon fill="midnightblue" stroke="midnightblue" points="295.74,-141.98 298.5,-131.75 289.96,-138.02 295.74,-141.98"/>
</g>
<!-- Node10 -->
<g id="node10" class="node">
<title>Node10</title>
<g id="a_node10"><a xlink:href="piece_8h.html" target="_top" xlink:title=" ">
<polygon fill="white" stroke="black" points="537.5,-112.5 537.5,-131.5 589.5,-131.5 589.5,-112.5 537.5,-112.5"/>
<text text-anchor="middle" x="563.5" y="-119.5" font-family="Helvetica,sans-Serif" font-size="10.00">piece.h</text>
</a>
</g>
</g>
<!-- Node8&#45;&gt;Node10 -->
<g id="edge11" class="edge">
<title>Node8&#45;&gt;Node10</title>
<path fill="none" stroke="midnightblue" d="M297.27,-169.96C300.38,-169.27 303.5,-168.61 306.5,-168 384.83,-152.12 477.28,-136.75 527.17,-128.73"/>
<polygon fill="midnightblue" stroke="midnightblue" points="527.82,-132.17 537.14,-127.14 526.72,-125.26 527.82,-132.17"/>
</g>
<!-- Node10&#45;&gt;Node3 -->
<g id="edge12" class="edge">
<title>Node10&#45;&gt;Node3</title>
<path fill="none" stroke="midnightblue" d="M564.25,-112.11C565.79,-98.68 570.35,-73 583.5,-56 594.26,-42.09 610.63,-31.44 625.15,-23.99"/>
<polygon fill="midnightblue" stroke="midnightblue" points="626.85,-27.06 634.34,-19.57 623.81,-20.75 626.85,-27.06"/>
</g>
<!-- Node10&#45;&gt;Node7 -->
<g id="edge13" class="edge">
<title>Node10&#45;&gt;Node7</title>
<path fill="none" stroke="midnightblue" d="M572.09,-112.08C579.66,-104.22 590.88,-92.57 600.01,-83.08"/>
<polygon fill="midnightblue" stroke="midnightblue" points="602.66,-85.38 607.07,-75.75 597.62,-80.53 602.66,-85.38"/>
</g>
<!-- Node10&#45;&gt;Node11 -->
<g id="edge14" class="edge">
<title>Node10&#45;&gt;Node11</title>
<path fill="none" stroke="midnightblue" d="M588.38,-112.44C614.79,-103.36 656.72,-88.94 686.24,-78.78"/>
<polygon fill="midnightblue" stroke="midnightblue" points="687.42,-82.08 695.74,-75.52 685.14,-75.46 687.42,-82.08"/>
</g>
<!-- Node11&#45;&gt;Node3 -->
<g id="edge15" class="edge">
<title>Node11&#45;&gt;Node3</title>
<path fill="none" stroke="midnightblue" d="M710.22,-56.32C700.66,-48.26 686.22,-36.08 674.72,-26.37"/>
<polygon fill="midnightblue" stroke="midnightblue" points="676.87,-23.61 666.97,-19.83 672.36,-28.96 676.87,-23.61"/>
</g>
<!-- Node12&#45;&gt;Node10 -->
<g id="edge18" class="edge">
<title>Node12&#45;&gt;Node10</title>
<path fill="none" stroke="midnightblue" d="M503.07,-168.32C513.92,-160.18 530.38,-147.84 543.38,-138.09"/>
<polygon fill="midnightblue" stroke="midnightblue" points="545.82,-140.63 551.72,-131.83 541.62,-135.03 545.82,-140.63"/>
</g>
<!-- Node13&#45;&gt;Node10 -->
<g id="edge20" class="edge">
<title>Node13&#45;&gt;Node10</title>
<path fill="none" stroke="midnightblue" d="M563.5,-168.08C563.5,-161.01 563.5,-150.86 563.5,-141.99"/>
<polygon fill="midnightblue" stroke="midnightblue" points="567,-141.75 563.5,-131.75 560,-141.75 567,-141.75"/>
</g>
<!-- Node14&#45;&gt;Node10 -->
<g id="edge22" class="edge">
<title>Node14&#45;&gt;Node10</title>
<path fill="none" stroke="midnightblue" d="M622.25,-168.32C611.7,-160.18 595.7,-147.84 583.06,-138.09"/>
<polygon fill="midnightblue" stroke="midnightblue" points="585.01,-135.17 574.95,-131.83 580.73,-140.71 585.01,-135.17"/>
</g>
<!-- Node15&#45;&gt;Node10 -->
<g id="edge24" class="edge">
<title>Node15&#45;&gt;Node10</title>
<path fill="none" stroke="midnightblue" d="M677.11,-168.44C654.79,-159.52 619.6,-145.44 594.29,-135.32"/>
<polygon fill="midnightblue" stroke="midnightblue" points="595.38,-131.98 584.79,-131.52 592.78,-138.48 595.38,-131.98"/>
</g>
<!-- Node16&#45;&gt;Node10 -->
<g id="edge26" class="edge">
<title>Node16&#45;&gt;Node10</title>
<path fill="none" stroke="midnightblue" d="M373.58,-169.83C413.33,-160.03 484.58,-142.46 527.61,-131.85"/>
<polygon fill="midnightblue" stroke="midnightblue" points="528.51,-135.23 537.38,-129.44 526.83,-128.44 528.51,-135.23"/>
</g>
<!-- Node17&#45;&gt;Node10 -->
<g id="edge28" class="edge">
<title>Node17&#45;&gt;Node10</title>
<path fill="none" stroke="midnightblue" d="M442.32,-168.44C466.33,-159.44 504.33,-145.19 531.37,-135.05"/>
<polygon fill="midnightblue" stroke="midnightblue" points="532.66,-138.3 540.79,-131.52 530.2,-131.75 532.66,-138.3"/>
</g>
<!-- Node18&#45;&gt;Node3 -->
<g id="edge30" class="edge">
<title>Node18&#45;&gt;Node3</title>
<path fill="none" stroke="midnightblue" d="M793.78,-280.23C804.23,-262.04 826.5,-218.6 826.5,-179 826.5,-179 826.5,-179 826.5,-121 826.5,-59.34 746.68,-30.53 696.43,-18.51"/>
<polygon fill="midnightblue" stroke="midnightblue" points="697.03,-15.05 686.5,-16.25 695.48,-21.88 697.03,-15.05"/>
</g>
<!-- Node18&#45;&gt;Node6 -->
<g id="edge32" class="edge">
<title>Node18&#45;&gt;Node6</title>
<path fill="none" stroke="midnightblue" d="M760.29,-283.87C706.34,-274.06 588.54,-252.64 528.41,-241.71"/>
<polygon fill="midnightblue" stroke="midnightblue" points="528.7,-238.21 518.23,-239.86 527.45,-245.09 528.7,-238.21"/>
</g>
<!-- Node18&#45;&gt;Node7 -->
<g id="edge31" class="edge">
<title>Node18&#45;&gt;Node7</title>
<path fill="none" stroke="midnightblue" d="M785.84,-280.42C779.11,-259.65 759.93,-205.6 731.5,-168 704.25,-131.96 662.34,-99.43 637.06,-81.52"/>
<polygon fill="midnightblue" stroke="midnightblue" points="638.76,-78.45 628.55,-75.61 634.76,-84.19 638.76,-78.45"/>
</g>
<!-- Node21&#45;&gt;Node3 -->
<g id="edge36" class="edge">
<title>Node21&#45;&gt;Node3</title>
<path fill="none" stroke="midnightblue" d="M933.08,-112.22C923.79,-97.98 903.39,-70.01 878.5,-56 820.83,-23.54 743.06,-14.31 696.53,-11.8"/>
<polygon fill="midnightblue" stroke="midnightblue" points="696.68,-8.3 686.53,-11.33 696.35,-15.29 696.68,-8.3"/>
</g>
<!-- Node21&#45;&gt;Node11 -->
<g id="edge37" class="edge">
<title>Node21&#45;&gt;Node11</title>
<path fill="none" stroke="midnightblue" d="M903.96,-112.44C865.69,-102.96 803.98,-87.68 762.83,-77.49"/>
<polygon fill="midnightblue" stroke="midnightblue" points="763.65,-74.08 753.1,-75.08 761.97,-80.88 763.65,-74.08"/>
</g>
<!-- Node22&#45;&gt;Node3 -->
<g id="edge39" class="edge">
<title>Node22&#45;&gt;Node3</title>
<path fill="none" stroke="midnightblue" d="M827.48,-336.33C839.29,-318.32 864.5,-275.19 864.5,-235 864.5,-235 864.5,-235 864.5,-121 864.5,-45.89 757.21,-21.93 696.74,-14.39"/>
<polygon fill="midnightblue" stroke="midnightblue" points="697.08,-10.91 686.74,-13.24 696.28,-17.86 697.08,-10.91"/>
</g>
<!-- Node22&#45;&gt;Node6 -->
<g id="edge40" class="edge">
<title>Node22&#45;&gt;Node6</title>
<path fill="none" stroke="midnightblue" d="M800.86,-338.12C745.85,-319.78 595.27,-269.59 526.54,-246.68"/>
<polygon fill="midnightblue" stroke="midnightblue" points="527.61,-243.35 517.02,-243.51 525.4,-249.99 527.61,-243.35"/>
</g>
<!-- Node22&#45;&gt;Node18 -->
<g id="edge41" class="edge">
<title>Node22&#45;&gt;Node18</title>
<path fill="none" stroke="midnightblue" d="M816.05,-336.08C811.49,-328.61 804.83,-317.72 799.21,-308.52"/>
<polygon fill="midnightblue" stroke="midnightblue" points="802.05,-306.46 793.85,-299.75 796.08,-310.11 802.05,-306.46"/>
</g>
</g>
</svg>
