<?xml version="1.0" encoding="UTF-8" standalone="no"?>
<!DOCTYPE svg PUBLIC "-//W3C//DTD SVG 1.1//EN"
 "http://www.w3.org/Graphics/SVG/1.1/DTD/svg11.dtd">
<!-- Generated by graphviz version 2.43.0 (0)
 -->
<!-- Title: src/game_rules.cpp Pages: 1 -->
<svg width="814pt" height="476pt"
 viewBox="0.00 0.00 814.00 476.00" xmlns="http://www.w3.org/2000/svg" xmlns:xlink="http://www.w3.org/1999/xlink">
<g id="graph0" class="graph" transform="scale(1 1) rotate(0) translate(4 472)">
<title>src/game_rules.cpp</title>
<polygon fill="white" stroke="transparent" points="-4,4 -4,-472 810,-472 810,4 -4,4"/>
<!-- Node1 -->
<g id="node1" class="node">
<title>Node1</title>
<g id="a_node1"><a xlink:title=" ">
<polygon fill="#bfbfbf" stroke="black" points="280.5,-448.5 280.5,-467.5 391.5,-467.5 391.5,-448.5 280.5,-448.5"/>
<text text-anchor="middle" x="336" y="-455.5" font-family="Helvetica,sans-Serif" font-size="10.00">src/game_rules.cpp</text>
</a>
</g>
</g>
<!-- Node2 -->
<g id="node2" class="node">
<title>Node2</title>
<g id="a_node2"><a xlink:href="game__rules_8h.html" target="_top" xlink:title=" ">
<polygon fill="white" stroke="black" points="393.5,-336.5 393.5,-355.5 476.5,-355.5 476.5,-336.5 393.5,-336.5"/>
<text text-anchor="middle" x="435" y="-343.5" font-family="Helvetica,sans-Serif" font-size="10.00">game_rules.h</text>
</a>
</g>
</g>
<!-- Node1&#45;&gt;Node2 -->
<g id="edge1" class="edge">
<title>Node1&#45;&gt;Node2</title>
<path fill="none" stroke="midnightblue" d="M343.77,-448.37C360.32,-429.97 399.3,-386.67 420.55,-363.05"/>
<polygon fill="midnightblue" stroke="midnightblue" points="423.18,-365.37 427.27,-355.59 417.98,-360.68 423.18,-365.37"/>
</g>
<!-- Node17 -->
<g id="node17" class="node">
<title>Node17</title>
<g id="a_node17"><a xlink:href="rules_8h.html" target="_top" xlink:title=" ">
<polygon fill="white" stroke="black" points="285,-392.5 285,-411.5 335,-411.5 335,-392.5 285,-392.5"/>
<text text-anchor="middle" x="310" y="-399.5" font-family="Helvetica,sans-Serif" font-size="10.00">rules.h</text>
</a>
</g>
</g>
<!-- Node1&#45;&gt;Node17 -->
<g id="edge32" class="edge">
<title>Node1&#45;&gt;Node17</title>
<path fill="none" stroke="midnightblue" d="M331.71,-448.08C328.15,-440.69 322.98,-429.95 318.58,-420.81"/>
<polygon fill="midnightblue" stroke="midnightblue" points="321.71,-419.24 314.21,-411.75 315.4,-422.28 321.71,-419.24"/>
</g>
<!-- Node3 -->
<g id="node3" class="node">
<title>Node3</title>
<g id="a_node3"><a xlink:title=" ">
<polygon fill="white" stroke="#bfbfbf" points="137,-0.5 137,-19.5 197,-19.5 197,-0.5 137,-0.5"/>
<text text-anchor="middle" x="167" y="-7.5" font-family="Helvetica,sans-Serif" font-size="10.00">iostream</text>
</a>
</g>
</g>
<!-- Node2&#45;&gt;Node3 -->
<g id="edge2" class="edge">
<title>Node2&#45;&gt;Node3</title>
<path fill="none" stroke="midnightblue" d="M476.84,-341.51C573.86,-332.26 806,-303.02 806,-235 806,-235 806,-235 806,-121 806,-74.15 766.64,-73.06 723,-56 628.85,-19.2 318.5,-12.5 207.18,-11.27"/>
<polygon fill="midnightblue" stroke="midnightblue" points="207.08,-7.77 197.05,-11.17 207.01,-14.77 207.08,-7.77"/>
</g>
<!-- Node4 -->
<g id="node4" class="node">
<title>Node4</title>
<g id="a_node4"><a xlink:title=" ">
<polygon fill="white" stroke="#bfbfbf" points="642.5,-56.5 642.5,-75.5 689.5,-75.5 689.5,-56.5 642.5,-56.5"/>
<text text-anchor="middle" x="666" y="-63.5" font-family="Helvetica,sans-Serif" font-size="10.00">vector</text>
</a>
</g>
</g>
<!-- Node2&#45;&gt;Node4 -->
<g id="edge3" class="edge">
<title>Node2&#45;&gt;Node4</title>
<path fill="none" stroke="midnightblue" d="M476.5,-340.17C565.77,-328.61 768,-295.73 768,-235 768,-235 768,-235 768,-177 768,-132.39 722.34,-98.23 692.12,-80.51"/>
<polygon fill="midnightblue" stroke="midnightblue" points="693.73,-77.4 683.3,-75.55 690.3,-83.5 693.73,-77.4"/>
</g>
<!-- Node5 -->
<g id="node5" class="node">
<title>Node5</title>
<g id="a_node5"><a xlink:href="board_8h.html" target="_top" xlink:title=" ">
<polygon fill="white" stroke="black" points="316.5,-224.5 316.5,-243.5 369.5,-243.5 369.5,-224.5 316.5,-224.5"/>
<text text-anchor="middle" x="343" y="-231.5" font-family="Helvetica,sans-Serif" font-size="10.00">board.h</text>
</a>
</g>
</g>
<!-- Node2&#45;&gt;Node5 -->
<g id="edge4" class="edge">
<title>Node2&#45;&gt;Node5</title>
<path fill="none" stroke="midnightblue" d="M433.55,-336.15C430.99,-322.77 424.59,-297.16 411,-280 400.43,-266.66 384.79,-255.92 371.17,-248.28"/>
<polygon fill="midnightblue" stroke="midnightblue" points="372.62,-245.1 362.15,-243.5 369.34,-251.28 372.62,-245.1"/>
</g>
<!-- Node16 -->
<g id="node16" class="node">
<title>Node16</title>
<g id="a_node16"><a xlink:href="player_8h.html" target="_top" xlink:title=" ">
<polygon fill="white" stroke="black" points="346,-280.5 346,-299.5 402,-299.5 402,-280.5 346,-280.5"/>
<text text-anchor="middle" x="374" y="-287.5" font-family="Helvetica,sans-Serif" font-size="10.00">player.h</text>
</a>
</g>
</g>
<!-- Node2&#45;&gt;Node16 -->
<g id="edge28" class="edge">
<title>Node2&#45;&gt;Node16</title>
<path fill="none" stroke="midnightblue" d="M425.2,-336.32C416.18,-328.34 402.59,-316.31 391.68,-306.65"/>
<polygon fill="midnightblue" stroke="midnightblue" points="393.79,-303.84 383.98,-299.83 389.15,-309.08 393.79,-303.84"/>
</g>
<!-- Node5&#45;&gt;Node3 -->
<g id="edge5" class="edge">
<title>Node5&#45;&gt;Node3</title>
<path fill="none" stroke="midnightblue" d="M316.41,-231.24C263.27,-227.18 146.66,-215.31 119,-188 76.57,-146.11 66.09,-108.15 95,-56 103.09,-41.41 118.1,-30.92 132.34,-23.76"/>
<polygon fill="midnightblue" stroke="midnightblue" points="133.89,-26.9 141.5,-19.53 130.95,-20.55 133.89,-26.9"/>
</g>
<!-- Node5&#45;&gt;Node4 -->
<g id="edge6" class="edge">
<title>Node5&#45;&gt;Node4</title>
<path fill="none" stroke="midnightblue" d="M369.93,-232.52C434.63,-230.81 596.33,-223.05 635,-188 663.96,-161.75 667.51,-112.48 667.07,-85.62"/>
<polygon fill="midnightblue" stroke="midnightblue" points="670.57,-85.48 666.7,-75.61 663.57,-85.73 670.57,-85.48"/>
</g>
<!-- Node6 -->
<g id="node6" class="node">
<title>Node6</title>
<g id="a_node6"><a xlink:href="square_8h.html" target="_top" xlink:title=" ">
<polygon fill="white" stroke="black" points="142.5,-168.5 142.5,-187.5 201.5,-187.5 201.5,-168.5 142.5,-168.5"/>
<text text-anchor="middle" x="172" y="-175.5" font-family="Helvetica,sans-Serif" font-size="10.00">square.h</text>
</a>
</g>
</g>
<!-- Node5&#45;&gt;Node6 -->
<g id="edge7" class="edge">
<title>Node5&#45;&gt;Node6</title>
<path fill="none" stroke="midnightblue" d="M316.28,-224.56C287.34,-215.42 240.98,-200.78 208.64,-190.57"/>
<polygon fill="midnightblue" stroke="midnightblue" points="209.69,-187.23 199.1,-187.56 207.58,-193.91 209.69,-187.23"/>
</g>
<!-- Node9 -->
<g id="node9" class="node">
<title>Node9</title>
<g id="a_node9"><a xlink:href="position_8h.html" target="_top" xlink:title=" ">
<polygon fill="white" stroke="black" points="104.5,-56.5 104.5,-75.5 169.5,-75.5 169.5,-56.5 104.5,-56.5"/>
<text text-anchor="middle" x="137" y="-63.5" font-family="Helvetica,sans-Serif" font-size="10.00">position.h</text>
</a>
</g>
</g>
<!-- Node5&#45;&gt;Node9 -->
<g id="edge15" class="edge">
<title>Node5&#45;&gt;Node9</title>
<path fill="none" stroke="midnightblue" d="M316.41,-231.34C265.17,-227.52 155.8,-216.2 133,-188 109.3,-158.68 120.77,-111.04 129.77,-85.15"/>
<polygon fill="midnightblue" stroke="midnightblue" points="133.15,-86.1 133.36,-75.5 126.59,-83.65 133.15,-86.1"/>
</g>
<!-- Node10 -->
<g id="node10" class="node">
<title>Node10</title>
<g id="a_node10"><a xlink:href="pawn_8h.html" target="_top" xlink:title=" ">
<polygon fill="white" stroke="black" points="500,-168.5 500,-187.5 552,-187.5 552,-168.5 500,-168.5"/>
<text text-anchor="middle" x="526" y="-175.5" font-family="Helvetica,sans-Serif" font-size="10.00">pawn.h</text>
</a>
</g>
</g>
<!-- Node5&#45;&gt;Node10 -->
<g id="edge16" class="edge">
<title>Node5&#45;&gt;Node10</title>
<path fill="none" stroke="midnightblue" d="M369.61,-225.15C401.37,-215.78 454.62,-200.06 490.02,-189.62"/>
<polygon fill="midnightblue" stroke="midnightblue" points="491.35,-192.87 499.95,-186.69 489.37,-186.16 491.35,-192.87"/>
</g>
<!-- Node11 -->
<g id="node11" class="node">
<title>Node11</title>
<g id="a_node11"><a xlink:href="queen_8h.html" target="_top" xlink:title=" ">
<polygon fill="white" stroke="black" points="570,-168.5 570,-187.5 626,-187.5 626,-168.5 570,-168.5"/>
<text text-anchor="middle" x="598" y="-175.5" font-family="Helvetica,sans-Serif" font-size="10.00">queen.h</text>
</a>
</g>
</g>
<!-- Node5&#45;&gt;Node11 -->
<g id="edge18" class="edge">
<title>Node5&#45;&gt;Node11</title>
<path fill="none" stroke="midnightblue" d="M369.58,-227.83C408.93,-220.1 485.26,-204.85 559.73,-188.23"/>
<polygon fill="midnightblue" stroke="midnightblue" points="560.75,-191.59 569.74,-185.98 559.22,-184.76 560.75,-191.59"/>
</g>
<!-- Node12 -->
<g id="node12" class="node">
<title>Node12</title>
<g id="a_node12"><a xlink:href="king_8h.html" target="_top" xlink:title=" ">
<polygon fill="white" stroke="black" points="219.5,-168.5 219.5,-187.5 266.5,-187.5 266.5,-168.5 219.5,-168.5"/>
<text text-anchor="middle" x="243" y="-175.5" font-family="Helvetica,sans-Serif" font-size="10.00">king.h</text>
</a>
</g>
</g>
<!-- Node5&#45;&gt;Node12 -->
<g id="edge20" class="edge">
<title>Node5&#45;&gt;Node12</title>
<path fill="none" stroke="midnightblue" d="M326.93,-224.32C311.04,-215.74 286.49,-202.49 268.04,-192.52"/>
<polygon fill="midnightblue" stroke="midnightblue" points="269.49,-189.33 259.03,-187.65 266.16,-195.49 269.49,-189.33"/>
</g>
<!-- Node13 -->
<g id="node13" class="node">
<title>Node13</title>
<g id="a_node13"><a xlink:href="rook_8h.html" target="_top" xlink:title=" ">
<polygon fill="white" stroke="black" points="284.5,-168.5 284.5,-187.5 331.5,-187.5 331.5,-168.5 284.5,-168.5"/>
<text text-anchor="middle" x="308" y="-175.5" font-family="Helvetica,sans-Serif" font-size="10.00">rook.h</text>
</a>
</g>
</g>
<!-- Node5&#45;&gt;Node13 -->
<g id="edge22" class="edge">
<title>Node5&#45;&gt;Node13</title>
<path fill="none" stroke="midnightblue" d="M337.22,-224.08C332.33,-216.53 325.17,-205.49 319.17,-196.23"/>
<polygon fill="midnightblue" stroke="midnightblue" points="322.05,-194.24 313.67,-187.75 316.17,-198.05 322.05,-194.24"/>
</g>
<!-- Node14 -->
<g id="node14" class="node">
<title>Node14</title>
<g id="a_node14"><a xlink:href="bishop_8h.html" target="_top" xlink:title=" ">
<polygon fill="white" stroke="black" points="350,-168.5 350,-187.5 408,-187.5 408,-168.5 350,-168.5"/>
<text text-anchor="middle" x="379" y="-175.5" font-family="Helvetica,sans-Serif" font-size="10.00">bishop.h</text>
</a>
</g>
</g>
<!-- Node5&#45;&gt;Node14 -->
<g id="edge24" class="edge">
<title>Node5&#45;&gt;Node14</title>
<path fill="none" stroke="midnightblue" d="M348.94,-224.08C353.98,-216.53 361.34,-205.49 367.51,-196.23"/>
<polygon fill="midnightblue" stroke="midnightblue" points="370.53,-198.01 373.17,-187.75 364.71,-194.13 370.53,-198.01"/>
</g>
<!-- Node15 -->
<g id="node15" class="node">
<title>Node15</title>
<g id="a_node15"><a xlink:href="knight_8h.html" target="_top" xlink:title=" ">
<polygon fill="white" stroke="black" points="426,-168.5 426,-187.5 482,-187.5 482,-168.5 426,-168.5"/>
<text text-anchor="middle" x="454" y="-175.5" font-family="Helvetica,sans-Serif" font-size="10.00">knight.h</text>
</a>
</g>
</g>
<!-- Node5&#45;&gt;Node15 -->
<g id="edge26" class="edge">
<title>Node5&#45;&gt;Node15</title>
<path fill="none" stroke="midnightblue" d="M360.83,-224.32C378.72,-215.62 406.48,-202.12 427.05,-192.11"/>
<polygon fill="midnightblue" stroke="midnightblue" points="428.75,-195.18 436.21,-187.65 425.69,-188.88 428.75,-195.18"/>
</g>
<!-- Node6&#45;&gt;Node3 -->
<g id="edge8" class="edge">
<title>Node6&#45;&gt;Node3</title>
<path fill="none" stroke="midnightblue" d="M173.41,-168.46C176.47,-148.63 183.06,-97.97 178,-56 176.93,-47.11 174.71,-37.43 172.54,-29.34"/>
<polygon fill="midnightblue" stroke="midnightblue" points="175.84,-28.17 169.73,-19.51 169.11,-30.09 175.84,-28.17"/>
</g>
<!-- Node7 -->
<g id="node7" class="node">
<title>Node7</title>
<g id="a_node7"><a xlink:title=" ">
<polygon fill="white" stroke="#bfbfbf" points="226,-112.5 226,-131.5 284,-131.5 284,-112.5 226,-112.5"/>
<text text-anchor="middle" x="255" y="-119.5" font-family="Helvetica,sans-Serif" font-size="10.00">memory</text>
</a>
</g>
</g>
<!-- Node6&#45;&gt;Node7 -->
<g id="edge9" class="edge">
<title>Node6&#45;&gt;Node7</title>
<path fill="none" stroke="midnightblue" d="M185.34,-168.32C198.16,-159.98 217.78,-147.21 232.94,-137.35"/>
<polygon fill="midnightblue" stroke="midnightblue" points="235.22,-140.04 241.7,-131.65 231.41,-134.17 235.22,-140.04"/>
</g>
<!-- Node8 -->
<g id="node8" class="node">
<title>Node8</title>
<g id="a_node8"><a xlink:href="piece_8h.html" target="_top" xlink:title=" ">
<polygon fill="white" stroke="black" points="328,-112.5 328,-131.5 380,-131.5 380,-112.5 328,-112.5"/>
<text text-anchor="middle" x="354" y="-119.5" font-family="Helvetica,sans-Serif" font-size="10.00">piece.h</text>
</a>
</g>
</g>
<!-- Node6&#45;&gt;Node8 -->
<g id="edge10" class="edge">
<title>Node6&#45;&gt;Node8</title>
<path fill="none" stroke="midnightblue" d="M200.84,-168.44C232.68,-159 283.96,-143.78 318.31,-133.59"/>
<polygon fill="midnightblue" stroke="midnightblue" points="319.36,-136.93 327.95,-130.73 317.37,-130.22 319.36,-136.93"/>
</g>
<!-- Node8&#45;&gt;Node3 -->
<g id="edge11" class="edge">
<title>Node8&#45;&gt;Node3</title>
<path fill="none" stroke="midnightblue" d="M339.33,-112.37C307.1,-93.41 229.9,-48 190.7,-24.94"/>
<polygon fill="midnightblue" stroke="midnightblue" points="192,-21.64 181.61,-19.59 188.45,-27.68 192,-21.64"/>
</g>
<!-- Node8&#45;&gt;Node4 -->
<g id="edge12" class="edge">
<title>Node8&#45;&gt;Node4</title>
<path fill="none" stroke="midnightblue" d="M380.06,-116.49C436.41,-106.74 569.54,-83.7 632.23,-72.84"/>
<polygon fill="midnightblue" stroke="midnightblue" points="633.12,-76.24 642.38,-71.09 631.93,-69.35 633.12,-76.24"/>
</g>
<!-- Node8&#45;&gt;Node9 -->
<g id="edge13" class="edge">
<title>Node8&#45;&gt;Node9</title>
<path fill="none" stroke="midnightblue" d="M327.82,-114.49C291.01,-105.33 223.53,-88.53 179.48,-77.57"/>
<polygon fill="midnightblue" stroke="midnightblue" points="180.18,-74.14 169.63,-75.12 178.49,-80.93 180.18,-74.14"/>
</g>
<!-- Node9&#45;&gt;Node3 -->
<g id="edge14" class="edge">
<title>Node9&#45;&gt;Node3</title>
<path fill="none" stroke="midnightblue" d="M141.95,-56.08C146.1,-48.61 152.15,-37.72 157.27,-28.52"/>
<polygon fill="midnightblue" stroke="midnightblue" points="160.34,-30.19 162.14,-19.75 154.22,-26.79 160.34,-30.19"/>
</g>
<!-- Node10&#45;&gt;Node8 -->
<g id="edge17" class="edge">
<title>Node10&#45;&gt;Node8</title>
<path fill="none" stroke="midnightblue" d="M499.88,-168.8C470.49,-159.57 422.6,-144.54 389.76,-134.23"/>
<polygon fill="midnightblue" stroke="midnightblue" points="390.68,-130.85 380.09,-131.19 388.58,-137.52 390.68,-130.85"/>
</g>
<!-- Node11&#45;&gt;Node8 -->
<g id="edge19" class="edge">
<title>Node11&#45;&gt;Node8</title>
<path fill="none" stroke="midnightblue" d="M569.74,-170.05C566.79,-169.35 563.83,-168.65 561,-168 501.2,-154.23 431.41,-139.29 390.06,-130.56"/>
<polygon fill="midnightblue" stroke="midnightblue" points="390.69,-127.12 380.19,-128.48 389.25,-133.97 390.69,-127.12"/>
</g>
<!-- Node12&#45;&gt;Node8 -->
<g id="edge21" class="edge">
<title>Node12&#45;&gt;Node8</title>
<path fill="none" stroke="midnightblue" d="M260.83,-168.32C278.72,-159.62 306.48,-146.12 327.05,-136.11"/>
<polygon fill="midnightblue" stroke="midnightblue" points="328.75,-139.18 336.21,-131.65 325.69,-132.88 328.75,-139.18"/>
</g>
<!-- Node13&#45;&gt;Node8 -->
<g id="edge23" class="edge">
<title>Node13&#45;&gt;Node8</title>
<path fill="none" stroke="midnightblue" d="M315.6,-168.08C322.23,-160.3 332.02,-148.8 340.06,-139.37"/>
<polygon fill="midnightblue" stroke="midnightblue" points="342.73,-141.63 346.55,-131.75 337.4,-137.09 342.73,-141.63"/>
</g>
<!-- Node14&#45;&gt;Node8 -->
<g id="edge25" class="edge">
<title>Node14&#45;&gt;Node8</title>
<path fill="none" stroke="midnightblue" d="M374.87,-168.08C371.49,-160.77 366.58,-150.18 362.38,-141.1"/>
<polygon fill="midnightblue" stroke="midnightblue" points="365.43,-139.36 358.05,-131.75 359.08,-142.3 365.43,-139.36"/>
</g>
<!-- Node15&#45;&gt;Node8 -->
<g id="edge27" class="edge">
<title>Node15&#45;&gt;Node8</title>
<path fill="none" stroke="midnightblue" d="M437.93,-168.32C422.04,-159.74 397.49,-146.49 379.04,-136.52"/>
<polygon fill="midnightblue" stroke="midnightblue" points="380.49,-133.33 370.03,-131.65 377.16,-139.49 380.49,-133.33"/>
</g>
<!-- Node16&#45;&gt;Node3 -->
<g id="edge29" class="edge">
<title>Node16&#45;&gt;Node3</title>
<path fill="none" stroke="midnightblue" d="M402.23,-286.42C486.43,-277.94 730,-247.49 730,-179 730,-179 730,-179 730,-121 730,-88.99 725.32,-74.21 699,-56 658.85,-28.23 324.49,-15.69 207.35,-12.12"/>
<polygon fill="midnightblue" stroke="midnightblue" points="207.13,-8.61 197.03,-11.81 206.92,-15.61 207.13,-8.61"/>
</g>
<!-- Node16&#45;&gt;Node4 -->
<g id="edge30" class="edge">
<title>Node16&#45;&gt;Node4</title>
<path fill="none" stroke="midnightblue" d="M402.01,-286.56C457.69,-280.25 583.21,-258.61 656,-188 681.24,-163.52 682.57,-146.87 678,-112 676.84,-103.18 674.47,-93.63 672.13,-85.61"/>
<polygon fill="midnightblue" stroke="midnightblue" points="675.4,-84.34 669.09,-75.83 668.71,-86.42 675.4,-84.34"/>
</g>
<!-- Node16&#45;&gt;Node5 -->
<g id="edge31" class="edge">
<title>Node16&#45;&gt;Node5</title>
<path fill="none" stroke="midnightblue" d="M368.88,-280.08C364.59,-272.61 358.34,-261.72 353.06,-252.52"/>
<polygon fill="midnightblue" stroke="midnightblue" points="356.04,-250.68 348.02,-243.75 349.97,-254.17 356.04,-250.68"/>
</g>
<!-- Node17&#45;&gt;Node3 -->
<g id="edge33" class="edge">
<title>Node17&#45;&gt;Node3</title>
<path fill="none" stroke="midnightblue" d="M284.89,-397.62C211.09,-386.99 0,-351.32 0,-291 0,-291 0,-291 0,-121 0,-60.43 77.58,-31.32 126.98,-18.93"/>
<polygon fill="midnightblue" stroke="midnightblue" points="127.84,-22.33 136.76,-16.6 126.22,-15.52 127.84,-22.33"/>
</g>
<!-- Node17&#45;&gt;Node5 -->
<g id="edge34" class="edge">
<title>Node17&#45;&gt;Node5</title>
<path fill="none" stroke="midnightblue" d="M299.84,-392.19C291.09,-383.87 279.1,-370.54 274,-356 271.06,-347.61 271.38,-344.49 274,-336 284.43,-302.24 310.45,-269.7 327.39,-251.06"/>
<polygon fill="midnightblue" stroke="midnightblue" points="329.96,-253.43 334.23,-243.73 324.85,-248.65 329.96,-253.43"/>
</g>
<!-- Node17&#45;&gt;Node16 -->
<g id="edge35" class="edge">
<title>Node17&#45;&gt;Node16</title>
<path fill="none" stroke="midnightblue" d="M317.64,-392.49C325.22,-383.76 336.85,-369.58 345,-356 354.03,-340.95 361.97,-322.59 367.24,-309.23"/>
<polygon fill="midnightblue" stroke="midnightblue" points="370.57,-310.33 370.88,-299.74 364.03,-307.83 370.57,-310.33"/>
</g>
<!-- Node18 -->
<g id="node18" class="node">
<title>Node18</title>
<g id="a_node18"><a xlink:href="move_8h.html" target="_top" xlink:title=" ">
<polygon fill="white" stroke="black" points="283.5,-336.5 283.5,-355.5 336.5,-355.5 336.5,-336.5 283.5,-336.5"/>
<text text-anchor="middle" x="310" y="-343.5" font-family="Helvetica,sans-Serif" font-size="10.00">move.h</text>
</a>
</g>
</g>
<!-- Node17&#45;&gt;Node18 -->
<g id="edge36" class="edge">
<title>Node17&#45;&gt;Node18</title>
<path fill="none" stroke="midnightblue" d="M310,-392.08C310,-385.01 310,-374.86 310,-365.99"/>
<polygon fill="midnightblue" stroke="midnightblue" points="313.5,-365.75 310,-355.75 306.5,-365.75 313.5,-365.75"/>
</g>
<!-- Node18&#45;&gt;Node3 -->
<g id="edge37" class="edge">
<title>Node18&#45;&gt;Node3</title>
<path fill="none" stroke="midnightblue" d="M292.68,-336.43C252.99,-316 154.55,-260.64 98,-188 61.73,-141.41 49.15,-104.38 83,-56 93.62,-40.81 111.03,-30.3 127.26,-23.28"/>
<polygon fill="midnightblue" stroke="midnightblue" points="128.62,-26.5 136.61,-19.54 126.02,-20 128.62,-26.5"/>
</g>
<!-- Node18&#45;&gt;Node5 -->
<g id="edge38" class="edge">
<title>Node18&#45;&gt;Node5</title>
<path fill="none" stroke="midnightblue" d="M312.59,-336.37C317.94,-318.54 330.31,-277.3 337.52,-253.27"/>
<polygon fill="midnightblue" stroke="midnightblue" points="340.9,-254.18 340.42,-243.59 334.2,-252.16 340.9,-254.18"/>
</g>
<!-- Node18&#45;&gt;Node16 -->
<g id="edge39" class="edge">
<title>Node18&#45;&gt;Node16</title>
<path fill="none" stroke="midnightblue" d="M320.28,-336.32C329.84,-328.26 344.28,-316.08 355.78,-306.37"/>
<polygon fill="midnightblue" stroke="midnightblue" points="358.14,-308.96 363.53,-299.83 353.63,-303.61 358.14,-308.96"/>
</g>
</g>
</svg>
