<?xml version="1.0" encoding="UTF-8" standalone="no"?>
<!DOCTYPE svg PUBLIC "-//W3C//DTD SVG 1.1//EN"
 "http://www.w3.org/Graphics/SVG/1.1/DTD/svg11.dtd">
<!-- Generated by graphviz version 2.43.0 (0)
 -->
<!-- Title: src/game_rules.h Pages: 1 -->
<svg width="737pt" height="364pt"
 viewBox="0.00 0.00 737.22 364.00" xmlns="http://www.w3.org/2000/svg" xmlns:xlink="http://www.w3.org/1999/xlink">
<g id="graph0" class="graph" transform="scale(1 1) rotate(0) translate(4 360)">
<title>src/game_rules.h</title>
<polygon fill="white" stroke="transparent" points="-4,4 -4,-360 733.22,-360 733.22,4 -4,4"/>
<!-- Node1 -->
<g id="node1" class="node">
<title>Node1</title>
<g id="a_node1"><a xlink:title=" ">
<polygon fill="#bfbfbf" stroke="black" points="603.22,-336.5 603.22,-355.5 703.22,-355.5 703.22,-336.5 603.22,-336.5"/>
<text text-anchor="middle" x="653.22" y="-343.5" font-family="Helvetica,sans-Serif" font-size="10.00">src/game_rules.h</text>
</a>
</g>
</g>
<!-- Node2 -->
<g id="node2" class="node">
<title>Node2</title>
<g id="a_node2"><a xlink:title=" ">
<polygon fill="white" stroke="#bfbfbf" points="241.22,-0.5 241.22,-19.5 301.22,-19.5 301.22,-0.5 241.22,-0.5"/>
<text text-anchor="middle" x="271.22" y="-7.5" font-family="Helvetica,sans-Serif" font-size="10.00">iostream</text>
</a>
</g>
</g>
<!-- Node1&#45;&gt;Node2 -->
<g id="edge1" class="edge">
<title>Node1&#45;&gt;Node2</title>
<path fill="none" stroke="midnightblue" d="M664.76,-336.43C686.02,-319.57 729.22,-279.8 729.22,-235 729.22,-235 729.22,-235 729.22,-121 729.22,-35.44 423.22,-16.26 311.46,-12.11"/>
<polygon fill="midnightblue" stroke="midnightblue" points="311.39,-8.6 301.27,-11.75 311.14,-15.6 311.39,-8.6"/>
</g>
<!-- Node3 -->
<g id="node3" class="node">
<title>Node3</title>
<g id="a_node3"><a xlink:title=" ">
<polygon fill="white" stroke="#bfbfbf" points="565.72,-56.5 565.72,-75.5 612.72,-75.5 612.72,-56.5 565.72,-56.5"/>
<text text-anchor="middle" x="589.22" y="-63.5" font-family="Helvetica,sans-Serif" font-size="10.00">vector</text>
</a>
</g>
</g>
<!-- Node1&#45;&gt;Node3 -->
<g id="edge2" class="edge">
<title>Node1&#45;&gt;Node3</title>
<path fill="none" stroke="midnightblue" d="M658.51,-336.23C668.95,-318.04 691.22,-274.6 691.22,-235 691.22,-235 691.22,-235 691.22,-177 691.22,-132.39 645.56,-98.23 615.34,-80.51"/>
<polygon fill="midnightblue" stroke="midnightblue" points="616.95,-77.4 606.52,-75.55 613.52,-83.5 616.95,-77.4"/>
</g>
<!-- Node4 -->
<g id="node4" class="node">
<title>Node4</title>
<g id="a_node4"><a xlink:href="board_8h.html" target="_top" xlink:title=" ">
<polygon fill="white" stroke="black" points="313.72,-224.5 313.72,-243.5 366.72,-243.5 366.72,-224.5 313.72,-224.5"/>
<text text-anchor="middle" x="340.22" y="-231.5" font-family="Helvetica,sans-Serif" font-size="10.00">board.h</text>
</a>
</g>
</g>
<!-- Node1&#45;&gt;Node4 -->
<g id="edge3" class="edge">
<title>Node1&#45;&gt;Node4</title>
<path fill="none" stroke="midnightblue" d="M628.92,-336.46C573.57,-317.01 437.98,-269.36 374.3,-246.98"/>
<polygon fill="midnightblue" stroke="midnightblue" points="375.32,-243.62 364.72,-243.61 373,-250.23 375.32,-243.62"/>
</g>
<!-- Node15 -->
<g id="node15" class="node">
<title>Node15</title>
<g id="a_node15"><a xlink:href="player_8h.html" target="_top" xlink:title=" ">
<polygon fill="white" stroke="black" points="597.22,-280.5 597.22,-299.5 653.22,-299.5 653.22,-280.5 597.22,-280.5"/>
<text text-anchor="middle" x="625.22" y="-287.5" font-family="Helvetica,sans-Serif" font-size="10.00">player.h</text>
</a>
</g>
</g>
<!-- Node1&#45;&gt;Node15 -->
<g id="edge27" class="edge">
<title>Node1&#45;&gt;Node15</title>
<path fill="none" stroke="midnightblue" d="M648.6,-336.08C644.77,-328.69 639.2,-317.95 634.46,-308.81"/>
<polygon fill="midnightblue" stroke="midnightblue" points="637.47,-307.02 629.76,-299.75 631.26,-310.24 637.47,-307.02"/>
</g>
<!-- Node4&#45;&gt;Node2 -->
<g id="edge4" class="edge">
<title>Node4&#45;&gt;Node2</title>
<path fill="none" stroke="midnightblue" d="M313.48,-233.54C243.13,-234.34 55.69,-232.2 17.22,-188 -24.28,-140.31 17.33,-90.62 70.22,-56 119.29,-23.89 187.96,-14.45 231,-11.82"/>
<polygon fill="midnightblue" stroke="midnightblue" points="231.29,-15.31 241.09,-11.29 230.93,-8.31 231.29,-15.31"/>
</g>
<!-- Node4&#45;&gt;Node3 -->
<g id="edge5" class="edge">
<title>Node4&#45;&gt;Node3</title>
<path fill="none" stroke="midnightblue" d="M366.81,-230.98C418.74,-226.5 530.96,-214.01 558.22,-188 586.38,-161.14 590.29,-112.48 590.12,-85.78"/>
<polygon fill="midnightblue" stroke="midnightblue" points="593.61,-85.42 589.84,-75.52 586.61,-85.61 593.61,-85.42"/>
</g>
<!-- Node5 -->
<g id="node5" class="node">
<title>Node5</title>
<g id="a_node5"><a xlink:href="square_8h.html" target="_top" xlink:title=" ">
<polygon fill="white" stroke="black" points="26.72,-168.5 26.72,-187.5 85.72,-187.5 85.72,-168.5 26.72,-168.5"/>
<text text-anchor="middle" x="56.22" y="-175.5" font-family="Helvetica,sans-Serif" font-size="10.00">square.h</text>
</a>
</g>
</g>
<!-- Node4&#45;&gt;Node5 -->
<g id="edge6" class="edge">
<title>Node4&#45;&gt;Node5</title>
<path fill="none" stroke="midnightblue" d="M313.56,-228.15C269.23,-220.05 177.6,-203.17 100.22,-188 98.79,-187.72 97.33,-187.43 95.85,-187.14"/>
<polygon fill="midnightblue" stroke="midnightblue" points="96.52,-183.7 86.03,-185.17 95.15,-190.57 96.52,-183.7"/>
</g>
<!-- Node8 -->
<g id="node8" class="node">
<title>Node8</title>
<g id="a_node8"><a xlink:href="position_8h.html" target="_top" xlink:title=" ">
<polygon fill="white" stroke="black" points="208.72,-56.5 208.72,-75.5 273.72,-75.5 273.72,-56.5 208.72,-56.5"/>
<text text-anchor="middle" x="241.22" y="-63.5" font-family="Helvetica,sans-Serif" font-size="10.00">position.h</text>
</a>
</g>
</g>
<!-- Node4&#45;&gt;Node8 -->
<g id="edge14" class="edge">
<title>Node4&#45;&gt;Node8</title>
<path fill="none" stroke="midnightblue" d="M313.62,-231.25C262.94,-227.3 155.61,-215.78 133.22,-188 100.44,-147.32 171.91,-102.05 213.73,-80.21"/>
<polygon fill="midnightblue" stroke="midnightblue" points="215.58,-83.2 222.91,-75.54 212.41,-76.96 215.58,-83.2"/>
</g>
<!-- Node9 -->
<g id="node9" class="node">
<title>Node9</title>
<g id="a_node9"><a xlink:href="pawn_8h.html" target="_top" xlink:title=" ">
<polygon fill="white" stroke="black" points="423.22,-168.5 423.22,-187.5 475.22,-187.5 475.22,-168.5 423.22,-168.5"/>
<text text-anchor="middle" x="449.22" y="-175.5" font-family="Helvetica,sans-Serif" font-size="10.00">pawn.h</text>
</a>
</g>
</g>
<!-- Node4&#45;&gt;Node9 -->
<g id="edge15" class="edge">
<title>Node4&#45;&gt;Node9</title>
<path fill="none" stroke="midnightblue" d="M357.73,-224.32C375.29,-215.62 402.55,-202.12 422.75,-192.11"/>
<polygon fill="midnightblue" stroke="midnightblue" points="424.35,-195.23 431.75,-187.65 421.24,-188.96 424.35,-195.23"/>
</g>
<!-- Node10 -->
<g id="node10" class="node">
<title>Node10</title>
<g id="a_node10"><a xlink:href="queen_8h.html" target="_top" xlink:title=" ">
<polygon fill="white" stroke="black" points="493.22,-168.5 493.22,-187.5 549.22,-187.5 549.22,-168.5 493.22,-168.5"/>
<text text-anchor="middle" x="521.22" y="-175.5" font-family="Helvetica,sans-Serif" font-size="10.00">queen.h</text>
</a>
</g>
</g>
<!-- Node4&#45;&gt;Node10 -->
<g id="edge17" class="edge">
<title>Node4&#45;&gt;Node10</title>
<path fill="none" stroke="midnightblue" d="M366.93,-225.03C397.72,-215.85 448.55,-200.68 483.4,-190.29"/>
<polygon fill="midnightblue" stroke="midnightblue" points="484.63,-193.57 493.21,-187.36 482.63,-186.86 484.63,-193.57"/>
</g>
<!-- Node11 -->
<g id="node11" class="node">
<title>Node11</title>
<g id="a_node11"><a xlink:href="king_8h.html" target="_top" xlink:title=" ">
<polygon fill="white" stroke="black" points="142.72,-168.5 142.72,-187.5 189.72,-187.5 189.72,-168.5 142.72,-168.5"/>
<text text-anchor="middle" x="166.22" y="-175.5" font-family="Helvetica,sans-Serif" font-size="10.00">king.h</text>
</a>
</g>
</g>
<!-- Node4&#45;&gt;Node11 -->
<g id="edge19" class="edge">
<title>Node4&#45;&gt;Node11</title>
<path fill="none" stroke="midnightblue" d="M313.42,-224.68C282.83,-215.19 232.79,-199.66 199.67,-189.38"/>
<polygon fill="midnightblue" stroke="midnightblue" points="200.57,-185.99 189.98,-186.37 198.49,-192.68 200.57,-185.99"/>
</g>
<!-- Node12 -->
<g id="node12" class="node">
<title>Node12</title>
<g id="a_node12"><a xlink:href="rook_8h.html" target="_top" xlink:title=" ">
<polygon fill="white" stroke="black" points="207.72,-168.5 207.72,-187.5 254.72,-187.5 254.72,-168.5 207.72,-168.5"/>
<text text-anchor="middle" x="231.22" y="-175.5" font-family="Helvetica,sans-Serif" font-size="10.00">rook.h</text>
</a>
</g>
</g>
<!-- Node4&#45;&gt;Node12 -->
<g id="edge21" class="edge">
<title>Node4&#45;&gt;Node12</title>
<path fill="none" stroke="midnightblue" d="M322.71,-224.32C305.15,-215.62 277.89,-202.12 257.69,-192.11"/>
<polygon fill="midnightblue" stroke="midnightblue" points="259.21,-188.96 248.69,-187.65 256.1,-195.23 259.21,-188.96"/>
</g>
<!-- Node13 -->
<g id="node13" class="node">
<title>Node13</title>
<g id="a_node13"><a xlink:href="bishop_8h.html" target="_top" xlink:title=" ">
<polygon fill="white" stroke="black" points="273.22,-168.5 273.22,-187.5 331.22,-187.5 331.22,-168.5 273.22,-168.5"/>
<text text-anchor="middle" x="302.22" y="-175.5" font-family="Helvetica,sans-Serif" font-size="10.00">bishop.h</text>
</a>
</g>
</g>
<!-- Node4&#45;&gt;Node13 -->
<g id="edge23" class="edge">
<title>Node4&#45;&gt;Node13</title>
<path fill="none" stroke="midnightblue" d="M333.95,-224.08C328.58,-216.46 320.7,-205.26 314.14,-195.94"/>
<polygon fill="midnightblue" stroke="midnightblue" points="317,-193.91 308.38,-187.75 311.27,-197.94 317,-193.91"/>
</g>
<!-- Node14 -->
<g id="node14" class="node">
<title>Node14</title>
<g id="a_node14"><a xlink:href="knight_8h.html" target="_top" xlink:title=" ">
<polygon fill="white" stroke="black" points="349.22,-168.5 349.22,-187.5 405.22,-187.5 405.22,-168.5 349.22,-168.5"/>
<text text-anchor="middle" x="377.22" y="-175.5" font-family="Helvetica,sans-Serif" font-size="10.00">knight.h</text>
</a>
</g>
</g>
<!-- Node4&#45;&gt;Node14 -->
<g id="edge25" class="edge">
<title>Node4&#45;&gt;Node14</title>
<path fill="none" stroke="midnightblue" d="M346.33,-224.08C351.5,-216.53 359.07,-205.49 365.42,-196.23"/>
<polygon fill="midnightblue" stroke="midnightblue" points="368.46,-197.98 371.23,-187.75 362.69,-194.02 368.46,-197.98"/>
</g>
<!-- Node5&#45;&gt;Node2 -->
<g id="edge7" class="edge">
<title>Node5&#45;&gt;Node2</title>
<path fill="none" stroke="midnightblue" d="M49.43,-168.33C40.03,-155.19 25.47,-129.88 37.22,-112 80.39,-46.36 176.24,-23.18 230.93,-15.15"/>
<polygon fill="midnightblue" stroke="midnightblue" points="231.53,-18.6 240.97,-13.77 230.59,-11.66 231.53,-18.6"/>
</g>
<!-- Node6 -->
<g id="node6" class="node">
<title>Node6</title>
<g id="a_node6"><a xlink:title=" ">
<polygon fill="white" stroke="#bfbfbf" points="46.22,-112.5 46.22,-131.5 104.22,-131.5 104.22,-112.5 46.22,-112.5"/>
<text text-anchor="middle" x="75.22" y="-119.5" font-family="Helvetica,sans-Serif" font-size="10.00">memory</text>
</a>
</g>
</g>
<!-- Node5&#45;&gt;Node6 -->
<g id="edge8" class="edge">
<title>Node5&#45;&gt;Node6</title>
<path fill="none" stroke="midnightblue" d="M59.36,-168.08C61.9,-160.85 65.58,-150.41 68.75,-141.4"/>
<polygon fill="midnightblue" stroke="midnightblue" points="72.12,-142.35 72.14,-131.75 65.52,-140.02 72.12,-142.35"/>
</g>
<!-- Node7 -->
<g id="node7" class="node">
<title>Node7</title>
<g id="a_node7"><a xlink:href="piece_8h.html" target="_top" xlink:title=" ">
<polygon fill="white" stroke="black" points="276.22,-112.5 276.22,-131.5 328.22,-131.5 328.22,-112.5 276.22,-112.5"/>
<text text-anchor="middle" x="302.22" y="-119.5" font-family="Helvetica,sans-Serif" font-size="10.00">piece.h</text>
</a>
</g>
</g>
<!-- Node5&#45;&gt;Node7 -->
<g id="edge9" class="edge">
<title>Node5&#45;&gt;Node7</title>
<path fill="none" stroke="midnightblue" d="M85.89,-170.49C131.23,-160.53 217.6,-141.58 266.37,-130.87"/>
<polygon fill="midnightblue" stroke="midnightblue" points="267.17,-134.28 276.18,-128.72 265.66,-127.44 267.17,-134.28"/>
</g>
<!-- Node7&#45;&gt;Node2 -->
<g id="edge10" class="edge">
<title>Node7&#45;&gt;Node2</title>
<path fill="none" stroke="midnightblue" d="M299.79,-112.37C294.76,-94.54 283.14,-53.3 276.37,-29.27"/>
<polygon fill="midnightblue" stroke="midnightblue" points="279.72,-28.27 273.64,-19.59 272.99,-30.17 279.72,-28.27"/>
</g>
<!-- Node7&#45;&gt;Node3 -->
<g id="edge11" class="edge">
<title>Node7&#45;&gt;Node3</title>
<path fill="none" stroke="midnightblue" d="M328.45,-116.06C380.69,-106.24 497.66,-84.23 555.51,-73.34"/>
<polygon fill="midnightblue" stroke="midnightblue" points="556.41,-76.74 565.59,-71.45 555.12,-69.86 556.41,-76.74"/>
</g>
<!-- Node7&#45;&gt;Node8 -->
<g id="edge12" class="edge">
<title>Node7&#45;&gt;Node8</title>
<path fill="none" stroke="midnightblue" d="M292.42,-112.32C283.4,-104.34 269.82,-92.31 258.9,-82.65"/>
<polygon fill="midnightblue" stroke="midnightblue" points="261.01,-79.84 251.2,-75.83 256.37,-85.08 261.01,-79.84"/>
</g>
<!-- Node8&#45;&gt;Node2 -->
<g id="edge13" class="edge">
<title>Node8&#45;&gt;Node2</title>
<path fill="none" stroke="midnightblue" d="M246.18,-56.08C250.33,-48.61 256.37,-37.72 261.49,-28.52"/>
<polygon fill="midnightblue" stroke="midnightblue" points="264.56,-30.19 266.36,-19.75 258.44,-26.79 264.56,-30.19"/>
</g>
<!-- Node9&#45;&gt;Node7 -->
<g id="edge16" class="edge">
<title>Node9&#45;&gt;Node7</title>
<path fill="none" stroke="midnightblue" d="M425.93,-168.44C401.41,-159.44 362.63,-145.19 335.02,-135.05"/>
<polygon fill="midnightblue" stroke="midnightblue" points="336,-131.68 325.41,-131.52 333.58,-138.25 336,-131.68"/>
</g>
<!-- Node10&#45;&gt;Node7 -->
<g id="edge18" class="edge">
<title>Node10&#45;&gt;Node7</title>
<path fill="none" stroke="midnightblue" d="M493.04,-170.05C453.47,-160.29 381.44,-142.53 338.09,-131.84"/>
<polygon fill="midnightblue" stroke="midnightblue" points="338.8,-128.41 328.25,-129.42 337.12,-135.21 338.8,-128.41"/>
</g>
<!-- Node11&#45;&gt;Node7 -->
<g id="edge20" class="edge">
<title>Node11&#45;&gt;Node7</title>
<path fill="none" stroke="midnightblue" d="M187.77,-168.44C210.25,-159.52 245.71,-145.44 271.2,-135.32"/>
<polygon fill="midnightblue" stroke="midnightblue" points="272.77,-138.46 280.77,-131.52 270.19,-131.95 272.77,-138.46"/>
</g>
<!-- Node12&#45;&gt;Node7 -->
<g id="edge22" class="edge">
<title>Node12&#45;&gt;Node7</title>
<path fill="none" stroke="midnightblue" d="M242.63,-168.32C253.33,-160.18 269.56,-147.84 282.38,-138.09"/>
<polygon fill="midnightblue" stroke="midnightblue" points="284.77,-140.67 290.61,-131.83 280.53,-135.1 284.77,-140.67"/>
</g>
<!-- Node13&#45;&gt;Node7 -->
<g id="edge24" class="edge">
<title>Node13&#45;&gt;Node7</title>
<path fill="none" stroke="midnightblue" d="M302.22,-168.08C302.22,-161.01 302.22,-150.86 302.22,-141.99"/>
<polygon fill="midnightblue" stroke="midnightblue" points="305.72,-141.75 302.22,-131.75 298.72,-141.75 305.72,-141.75"/>
</g>
<!-- Node14&#45;&gt;Node7 -->
<g id="edge26" class="edge">
<title>Node14&#45;&gt;Node7</title>
<path fill="none" stroke="midnightblue" d="M365.17,-168.32C353.76,-160.11 336.39,-147.6 322.79,-137.81"/>
<polygon fill="midnightblue" stroke="midnightblue" points="324.65,-134.84 314.49,-131.83 320.56,-140.52 324.65,-134.84"/>
</g>
<!-- Node15&#45;&gt;Node2 -->
<g id="edge28" class="edge">
<title>Node15&#45;&gt;Node2</title>
<path fill="none" stroke="midnightblue" d="M629,-280.35C636.64,-262.03 653.22,-217.82 653.22,-179 653.22,-179 653.22,-179 653.22,-121 653.22,-88.99 648.15,-74.77 622.22,-56 573.41,-20.66 393.26,-13.06 311.75,-11.43"/>
<polygon fill="midnightblue" stroke="midnightblue" points="311.45,-7.93 301.39,-11.25 311.33,-14.93 311.45,-7.93"/>
</g>
<!-- Node15&#45;&gt;Node3 -->
<g id="edge29" class="edge">
<title>Node15&#45;&gt;Node3</title>
<path fill="none" stroke="midnightblue" d="M624.45,-280.46C622.04,-254.8 614.07,-176.16 601.22,-112 599.45,-103.17 596.95,-93.51 594.69,-85.4"/>
<polygon fill="midnightblue" stroke="midnightblue" points="597.98,-84.19 591.85,-75.55 591.26,-86.13 597.98,-84.19"/>
</g>
<!-- Node15&#45;&gt;Node4 -->
<g id="edge30" class="edge">
<title>Node15&#45;&gt;Node4</title>
<path fill="none" stroke="midnightblue" d="M597.11,-283.67C545.29,-273.86 434.72,-252.9 377,-241.97"/>
<polygon fill="midnightblue" stroke="midnightblue" points="377.35,-238.47 366.87,-240.05 376.04,-245.35 377.35,-238.47"/>
</g>
</g>
</svg>
