<?xml version="1.0" encoding="UTF-8" standalone="no"?>
<!DOCTYPE svg PUBLIC "-//W3C//DTD SVG 1.1//EN"
 "http://www.w3.org/Graphics/SVG/1.1/DTD/svg11.dtd">
<!-- Generated by graphviz version 2.43.0 (0)
 -->
<!-- Title: src/human_player.cpp Pages: 1 -->
<svg width="774pt" height="420pt"
 viewBox="0.00 0.00 774.00 420.00" xmlns="http://www.w3.org/2000/svg" xmlns:xlink="http://www.w3.org/1999/xlink">
<g id="graph0" class="graph" transform="scale(1 1) rotate(0) translate(4 416)">
<title>src/human_player.cpp</title>
<polygon fill="white" stroke="transparent" points="-4,4 -4,-416 770,-416 770,4 -4,4"/>
<!-- Node1 -->
<g id="node1" class="node">
<title>Node1</title>
<g id="a_node1"><a xlink:title=" ">
<polygon fill="#bfbfbf" stroke="black" points="322.5,-392.5 322.5,-411.5 445.5,-411.5 445.5,-392.5 322.5,-392.5"/>
<text text-anchor="middle" x="384" y="-399.5" font-family="Helvetica,sans-Serif" font-size="10.00">src/human_player.cpp</text>
</a>
</g>
</g>
<!-- Node2 -->
<g id="node2" class="node">
<title>Node2</title>
<g id="a_node2"><a xlink:href="human__player_8h.html" target="_top" xlink:title=" ">
<polygon fill="white" stroke="black" points="298.5,-336.5 298.5,-355.5 393.5,-355.5 393.5,-336.5 298.5,-336.5"/>
<text text-anchor="middle" x="346" y="-343.5" font-family="Helvetica,sans-Serif" font-size="10.00">human_player.h</text>
</a>
</g>
</g>
<!-- Node1&#45;&gt;Node2 -->
<g id="edge1" class="edge">
<title>Node1&#45;&gt;Node2</title>
<path fill="none" stroke="midnightblue" d="M377.73,-392.08C372.36,-384.46 364.48,-373.26 357.92,-363.94"/>
<polygon fill="midnightblue" stroke="midnightblue" points="360.78,-361.91 352.16,-355.75 355.05,-365.94 360.78,-361.91"/>
</g>
<!-- Node17 -->
<g id="node17" class="node">
<title>Node17</title>
<g id="a_node17"><a xlink:href="input__handler_8h.html" target="_top" xlink:title=" ">
<polygon fill="white" stroke="black" points="674,-112.5 674,-131.5 766,-131.5 766,-112.5 674,-112.5"/>
<text text-anchor="middle" x="720" y="-119.5" font-family="Helvetica,sans-Serif" font-size="10.00">input_handler.h</text>
</a>
</g>
</g>
<!-- Node1&#45;&gt;Node17 -->
<g id="edge29" class="edge">
<title>Node1&#45;&gt;Node17</title>
<path fill="none" stroke="midnightblue" d="M445.51,-393.09C540.23,-379.18 711,-346.4 711,-291 711,-291 711,-291 711,-233 711,-200.84 714.87,-163.57 717.53,-141.71"/>
<polygon fill="midnightblue" stroke="midnightblue" points="721.04,-141.9 718.82,-131.54 714.09,-141.02 721.04,-141.9"/>
</g>
<!-- Node3 -->
<g id="node3" class="node">
<title>Node3</title>
<g id="a_node3"><a xlink:href="player_8h.html" target="_top" xlink:title=" ">
<polygon fill="white" stroke="black" points="150,-280.5 150,-299.5 206,-299.5 206,-280.5 150,-280.5"/>
<text text-anchor="middle" x="178" y="-287.5" font-family="Helvetica,sans-Serif" font-size="10.00">player.h</text>
</a>
</g>
</g>
<!-- Node2&#45;&gt;Node3 -->
<g id="edge2" class="edge">
<title>Node2&#45;&gt;Node3</title>
<path fill="none" stroke="midnightblue" d="M319.38,-336.44C290.99,-327.32 245.86,-312.81 214.25,-302.65"/>
<polygon fill="midnightblue" stroke="midnightblue" points="215.09,-299.24 204.5,-299.52 212.94,-305.91 215.09,-299.24"/>
</g>
<!-- Node4 -->
<g id="node4" class="node">
<title>Node4</title>
<g id="a_node4"><a xlink:title=" ">
<polygon fill="white" stroke="#bfbfbf" points="188,-0.5 188,-19.5 248,-19.5 248,-0.5 188,-0.5"/>
<text text-anchor="middle" x="218" y="-7.5" font-family="Helvetica,sans-Serif" font-size="10.00">iostream</text>
</a>
</g>
</g>
<!-- Node3&#45;&gt;Node4 -->
<g id="edge3" class="edge">
<title>Node3&#45;&gt;Node4</title>
<path fill="none" stroke="midnightblue" d="M149.8,-284.82C99.6,-275.61 0,-248.57 0,-179 0,-179 0,-179 0,-121 0,-42.29 114.67,-19.89 177.67,-13.52"/>
<polygon fill="midnightblue" stroke="midnightblue" points="178.05,-17 187.69,-12.6 177.41,-10.03 178.05,-17"/>
</g>
<!-- Node5 -->
<g id="node5" class="node">
<title>Node5</title>
<g id="a_node5"><a xlink:title=" ">
<polygon fill="white" stroke="#bfbfbf" points="104.5,-56.5 104.5,-75.5 151.5,-75.5 151.5,-56.5 104.5,-56.5"/>
<text text-anchor="middle" x="128" y="-63.5" font-family="Helvetica,sans-Serif" font-size="10.00">vector</text>
</a>
</g>
</g>
<!-- Node3&#45;&gt;Node5 -->
<g id="edge4" class="edge">
<title>Node3&#45;&gt;Node5</title>
<path fill="none" stroke="midnightblue" d="M171.09,-280.47C158.06,-263.84 130.1,-225.46 118,-188 107.59,-155.79 107.58,-145.41 113,-112 114.47,-102.96 117.49,-93.28 120.44,-85.22"/>
<polygon fill="midnightblue" stroke="midnightblue" points="123.76,-86.34 124.14,-75.75 117.24,-83.79 123.76,-86.34"/>
</g>
<!-- Node6 -->
<g id="node6" class="node">
<title>Node6</title>
<g id="a_node6"><a xlink:href="board_8h.html" target="_top" xlink:title=" ">
<polygon fill="white" stroke="black" points="291.5,-224.5 291.5,-243.5 344.5,-243.5 344.5,-224.5 291.5,-224.5"/>
<text text-anchor="middle" x="318" y="-231.5" font-family="Helvetica,sans-Serif" font-size="10.00">board.h</text>
</a>
</g>
</g>
<!-- Node3&#45;&gt;Node6 -->
<g id="edge5" class="edge">
<title>Node3&#45;&gt;Node6</title>
<path fill="none" stroke="midnightblue" d="M200.18,-280.44C223.43,-271.48 260.15,-257.31 286.42,-247.18"/>
<polygon fill="midnightblue" stroke="midnightblue" points="287.85,-250.38 295.92,-243.52 285.33,-243.85 287.85,-250.38"/>
</g>
<!-- Node6&#45;&gt;Node4 -->
<g id="edge6" class="edge">
<title>Node6&#45;&gt;Node4</title>
<path fill="none" stroke="midnightblue" d="M291.24,-230.54C242.47,-225.51 141.93,-212.39 118,-188 76.29,-145.5 60.88,-104.81 95,-56 113.56,-29.44 149.57,-18.51 177.85,-14.03"/>
<polygon fill="midnightblue" stroke="midnightblue" points="178.44,-17.48 187.88,-12.66 177.49,-10.55 178.44,-17.48"/>
</g>
<!-- Node6&#45;&gt;Node5 -->
<g id="edge7" class="edge">
<title>Node6&#45;&gt;Node5</title>
<path fill="none" stroke="midnightblue" d="M291.42,-230.41C245.17,-225.31 152.91,-212.28 133,-188 109.09,-158.84 116.23,-111.14 122.65,-85.19"/>
<polygon fill="midnightblue" stroke="midnightblue" points="126.03,-86.09 125.26,-75.52 119.27,-84.27 126.03,-86.09"/>
</g>
<!-- Node7 -->
<g id="node7" class="node">
<title>Node7</title>
<g id="a_node7"><a xlink:href="square_8h.html" target="_top" xlink:title=" ">
<polygon fill="white" stroke="black" points="142.5,-168.5 142.5,-187.5 201.5,-187.5 201.5,-168.5 142.5,-168.5"/>
<text text-anchor="middle" x="172" y="-175.5" font-family="Helvetica,sans-Serif" font-size="10.00">square.h</text>
</a>
</g>
</g>
<!-- Node6&#45;&gt;Node7 -->
<g id="edge8" class="edge">
<title>Node6&#45;&gt;Node7</title>
<path fill="none" stroke="midnightblue" d="M294.87,-224.44C270.52,-215.44 231.99,-201.19 204.58,-191.05"/>
<polygon fill="midnightblue" stroke="midnightblue" points="205.62,-187.7 195.03,-187.52 203.19,-194.27 205.62,-187.7"/>
</g>
<!-- Node10 -->
<g id="node10" class="node">
<title>Node10</title>
<g id="a_node10"><a xlink:href="position_8h.html" target="_top" xlink:title=" ">
<polygon fill="white" stroke="black" points="360.5,-56.5 360.5,-75.5 425.5,-75.5 425.5,-56.5 360.5,-56.5"/>
<text text-anchor="middle" x="393" y="-63.5" font-family="Helvetica,sans-Serif" font-size="10.00">position.h</text>
</a>
</g>
</g>
<!-- Node6&#45;&gt;Node10 -->
<g id="edge16" class="edge">
<title>Node6&#45;&gt;Node10</title>
<path fill="none" stroke="midnightblue" d="M344.58,-233.48C414.04,-234.1 598.21,-231.52 636,-188 641.83,-181.29 640.93,-175.39 636,-168 612.71,-133.1 497.75,-96.29 434.65,-78.27"/>
<polygon fill="midnightblue" stroke="midnightblue" points="435.57,-74.89 424.99,-75.55 433.67,-81.63 435.57,-74.89"/>
</g>
<!-- Node11 -->
<g id="node11" class="node">
<title>Node11</title>
<g id="a_node11"><a xlink:href="pawn_8h.html" target="_top" xlink:title=" ">
<polygon fill="white" stroke="black" points="220,-168.5 220,-187.5 272,-187.5 272,-168.5 220,-168.5"/>
<text text-anchor="middle" x="246" y="-175.5" font-family="Helvetica,sans-Serif" font-size="10.00">pawn.h</text>
</a>
</g>
</g>
<!-- Node6&#45;&gt;Node11 -->
<g id="edge17" class="edge">
<title>Node6&#45;&gt;Node11</title>
<path fill="none" stroke="midnightblue" d="M306.43,-224.32C295.58,-216.18 279.12,-203.84 266.12,-194.09"/>
<polygon fill="midnightblue" stroke="midnightblue" points="267.88,-191.03 257.78,-187.83 263.68,-196.63 267.88,-191.03"/>
</g>
<!-- Node12 -->
<g id="node12" class="node">
<title>Node12</title>
<g id="a_node12"><a xlink:href="queen_8h.html" target="_top" xlink:title=" ">
<polygon fill="white" stroke="black" points="290,-168.5 290,-187.5 346,-187.5 346,-168.5 290,-168.5"/>
<text text-anchor="middle" x="318" y="-175.5" font-family="Helvetica,sans-Serif" font-size="10.00">queen.h</text>
</a>
</g>
</g>
<!-- Node6&#45;&gt;Node12 -->
<g id="edge19" class="edge">
<title>Node6&#45;&gt;Node12</title>
<path fill="none" stroke="midnightblue" d="M318,-224.08C318,-217.01 318,-206.86 318,-197.99"/>
<polygon fill="midnightblue" stroke="midnightblue" points="321.5,-197.75 318,-187.75 314.5,-197.75 321.5,-197.75"/>
</g>
<!-- Node13 -->
<g id="node13" class="node">
<title>Node13</title>
<g id="a_node13"><a xlink:href="king_8h.html" target="_top" xlink:title=" ">
<polygon fill="white" stroke="black" points="364.5,-168.5 364.5,-187.5 411.5,-187.5 411.5,-168.5 364.5,-168.5"/>
<text text-anchor="middle" x="388" y="-175.5" font-family="Helvetica,sans-Serif" font-size="10.00">king.h</text>
</a>
</g>
</g>
<!-- Node6&#45;&gt;Node13 -->
<g id="edge21" class="edge">
<title>Node6&#45;&gt;Node13</title>
<path fill="none" stroke="midnightblue" d="M329.25,-224.32C339.8,-216.18 355.8,-203.84 368.44,-194.09"/>
<polygon fill="midnightblue" stroke="midnightblue" points="370.77,-196.71 376.55,-187.83 366.49,-191.17 370.77,-196.71"/>
</g>
<!-- Node14 -->
<g id="node14" class="node">
<title>Node14</title>
<g id="a_node14"><a xlink:href="rook_8h.html" target="_top" xlink:title=" ">
<polygon fill="white" stroke="black" points="429.5,-168.5 429.5,-187.5 476.5,-187.5 476.5,-168.5 429.5,-168.5"/>
<text text-anchor="middle" x="453" y="-175.5" font-family="Helvetica,sans-Serif" font-size="10.00">rook.h</text>
</a>
</g>
</g>
<!-- Node6&#45;&gt;Node14 -->
<g id="edge23" class="edge">
<title>Node6&#45;&gt;Node14</title>
<path fill="none" stroke="midnightblue" d="M339.39,-224.44C361.71,-215.52 396.9,-201.44 422.21,-191.32"/>
<polygon fill="midnightblue" stroke="midnightblue" points="423.72,-194.48 431.71,-187.52 421.12,-187.98 423.72,-194.48"/>
</g>
<!-- Node15 -->
<g id="node15" class="node">
<title>Node15</title>
<g id="a_node15"><a xlink:href="bishop_8h.html" target="_top" xlink:title=" ">
<polygon fill="white" stroke="black" points="495,-168.5 495,-187.5 553,-187.5 553,-168.5 495,-168.5"/>
<text text-anchor="middle" x="524" y="-175.5" font-family="Helvetica,sans-Serif" font-size="10.00">bishop.h</text>
</a>
</g>
</g>
<!-- Node6&#45;&gt;Node15 -->
<g id="edge25" class="edge">
<title>Node6&#45;&gt;Node15</title>
<path fill="none" stroke="midnightblue" d="M344.51,-226.05C380.25,-216.68 444.13,-199.94 485.26,-189.16"/>
<polygon fill="midnightblue" stroke="midnightblue" points="486.15,-192.54 494.94,-186.62 484.38,-185.77 486.15,-192.54"/>
</g>
<!-- Node16 -->
<g id="node16" class="node">
<title>Node16</title>
<g id="a_node16"><a xlink:href="knight_8h.html" target="_top" xlink:title=" ">
<polygon fill="white" stroke="black" points="571,-168.5 571,-187.5 627,-187.5 627,-168.5 571,-168.5"/>
<text text-anchor="middle" x="599" y="-175.5" font-family="Helvetica,sans-Serif" font-size="10.00">knight.h</text>
</a>
</g>
</g>
<!-- Node6&#45;&gt;Node16 -->
<g id="edge27" class="edge">
<title>Node6&#45;&gt;Node16</title>
<path fill="none" stroke="midnightblue" d="M344.82,-228.56C388.13,-221.29 476.38,-206.01 560.75,-188.17"/>
<polygon fill="midnightblue" stroke="midnightblue" points="561.7,-191.55 570.76,-186.04 560.25,-184.7 561.7,-191.55"/>
</g>
<!-- Node7&#45;&gt;Node4 -->
<g id="edge9" class="edge">
<title>Node7&#45;&gt;Node4</title>
<path fill="none" stroke="midnightblue" d="M174.47,-168.08C181.71,-141.95 202.98,-65.21 212.85,-29.58"/>
<polygon fill="midnightblue" stroke="midnightblue" points="216.33,-30.14 215.63,-19.57 209.58,-28.27 216.33,-30.14"/>
</g>
<!-- Node8 -->
<g id="node8" class="node">
<title>Node8</title>
<g id="a_node8"><a xlink:title=" ">
<polygon fill="white" stroke="#bfbfbf" points="208,-112.5 208,-131.5 266,-131.5 266,-112.5 208,-112.5"/>
<text text-anchor="middle" x="237" y="-119.5" font-family="Helvetica,sans-Serif" font-size="10.00">memory</text>
</a>
</g>
</g>
<!-- Node7&#45;&gt;Node8 -->
<g id="edge10" class="edge">
<title>Node7&#45;&gt;Node8</title>
<path fill="none" stroke="midnightblue" d="M182.44,-168.32C192.15,-160.26 206.82,-148.08 218.5,-138.37"/>
<polygon fill="midnightblue" stroke="midnightblue" points="220.91,-140.92 226.37,-131.83 216.44,-135.53 220.91,-140.92"/>
</g>
<!-- Node9 -->
<g id="node9" class="node">
<title>Node9</title>
<g id="a_node9"><a xlink:href="piece_8h.html" target="_top" xlink:title=" ">
<polygon fill="white" stroke="black" points="327,-112.5 327,-131.5 379,-131.5 379,-112.5 327,-112.5"/>
<text text-anchor="middle" x="353" y="-119.5" font-family="Helvetica,sans-Serif" font-size="10.00">piece.h</text>
</a>
</g>
</g>
<!-- Node7&#45;&gt;Node9 -->
<g id="edge11" class="edge">
<title>Node7&#45;&gt;Node9</title>
<path fill="none" stroke="midnightblue" d="M200.68,-168.44C232.25,-159.02 283.05,-143.87 317.21,-133.68"/>
<polygon fill="midnightblue" stroke="midnightblue" points="318.22,-137.03 326.8,-130.82 316.22,-130.32 318.22,-137.03"/>
</g>
<!-- Node9&#45;&gt;Node4 -->
<g id="edge12" class="edge">
<title>Node9&#45;&gt;Node4</title>
<path fill="none" stroke="midnightblue" d="M342.41,-112.37C319.54,-93.73 265.29,-49.53 236.57,-26.13"/>
<polygon fill="midnightblue" stroke="midnightblue" points="238.51,-23.19 228.54,-19.59 234.09,-28.62 238.51,-23.19"/>
</g>
<!-- Node9&#45;&gt;Node5 -->
<g id="edge13" class="edge">
<title>Node9&#45;&gt;Node5</title>
<path fill="none" stroke="midnightblue" d="M326.75,-114.7C285.77,-104.87 206.65,-85.88 161.58,-75.06"/>
<polygon fill="midnightblue" stroke="midnightblue" points="162.24,-71.62 151.7,-72.69 160.61,-78.43 162.24,-71.62"/>
</g>
<!-- Node9&#45;&gt;Node10 -->
<g id="edge14" class="edge">
<title>Node9&#45;&gt;Node10</title>
<path fill="none" stroke="midnightblue" d="M359.61,-112.08C365.26,-104.46 373.54,-93.26 380.45,-83.94"/>
<polygon fill="midnightblue" stroke="midnightblue" points="383.38,-85.87 386.52,-75.75 377.75,-81.7 383.38,-85.87"/>
</g>
<!-- Node10&#45;&gt;Node4 -->
<g id="edge15" class="edge">
<title>Node10&#45;&gt;Node4</title>
<path fill="none" stroke="midnightblue" d="M365.27,-56.44C335.57,-47.28 288.28,-32.69 255.33,-22.52"/>
<polygon fill="midnightblue" stroke="midnightblue" points="256.19,-19.12 245.6,-19.52 254.12,-25.81 256.19,-19.12"/>
</g>
<!-- Node11&#45;&gt;Node9 -->
<g id="edge18" class="edge">
<title>Node11&#45;&gt;Node9</title>
<path fill="none" stroke="midnightblue" d="M263.19,-168.32C280.35,-159.66 306.95,-146.24 326.75,-136.25"/>
<polygon fill="midnightblue" stroke="midnightblue" points="328.5,-139.28 335.85,-131.65 325.35,-133.04 328.5,-139.28"/>
</g>
<!-- Node12&#45;&gt;Node9 -->
<g id="edge20" class="edge">
<title>Node12&#45;&gt;Node9</title>
<path fill="none" stroke="midnightblue" d="M323.78,-168.08C328.67,-160.53 335.83,-149.49 341.83,-140.23"/>
<polygon fill="midnightblue" stroke="midnightblue" points="344.83,-142.05 347.33,-131.75 338.95,-138.24 344.83,-142.05"/>
</g>
<!-- Node13&#45;&gt;Node9 -->
<g id="edge22" class="edge">
<title>Node13&#45;&gt;Node9</title>
<path fill="none" stroke="midnightblue" d="M382.22,-168.08C377.33,-160.53 370.17,-149.49 364.17,-140.23"/>
<polygon fill="midnightblue" stroke="midnightblue" points="367.05,-138.24 358.67,-131.75 361.17,-142.05 367.05,-138.24"/>
</g>
<!-- Node14&#45;&gt;Node9 -->
<g id="edge24" class="edge">
<title>Node14&#45;&gt;Node9</title>
<path fill="none" stroke="midnightblue" d="M436.93,-168.32C421.04,-159.74 396.49,-146.49 378.04,-136.52"/>
<polygon fill="midnightblue" stroke="midnightblue" points="379.49,-133.33 369.03,-131.65 376.16,-139.49 379.49,-133.33"/>
</g>
<!-- Node15&#45;&gt;Node9 -->
<g id="edge26" class="edge">
<title>Node15&#45;&gt;Node9</title>
<path fill="none" stroke="midnightblue" d="M496.9,-168.44C467.76,-159.24 421.26,-144.56 389.05,-134.38"/>
<polygon fill="midnightblue" stroke="midnightblue" points="389.72,-130.92 379.13,-131.25 387.61,-137.6 389.72,-130.92"/>
</g>
<!-- Node16&#45;&gt;Node9 -->
<g id="edge28" class="edge">
<title>Node16&#45;&gt;Node9</title>
<path fill="none" stroke="midnightblue" d="M570.74,-170.04C567.79,-169.34 564.84,-168.65 562,-168 501.47,-154.12 430.78,-139.16 389.07,-130.46"/>
<polygon fill="midnightblue" stroke="midnightblue" points="389.62,-127 379.12,-128.39 388.19,-133.86 389.62,-127"/>
</g>
<!-- Node17&#45;&gt;Node4 -->
<g id="edge30" class="edge">
<title>Node17&#45;&gt;Node4</title>
<path fill="none" stroke="midnightblue" d="M683.61,-112.46C629.48,-99.81 524.51,-75.49 435,-56 373.4,-42.59 301.75,-27.91 258.15,-19.08"/>
<polygon fill="midnightblue" stroke="midnightblue" points="258.73,-15.62 248.23,-17.07 257.34,-22.49 258.73,-15.62"/>
</g>
<!-- Node17&#45;&gt;Node10 -->
<g id="edge31" class="edge">
<title>Node17&#45;&gt;Node10</title>
<path fill="none" stroke="midnightblue" d="M673.84,-113.38C610.44,-102.91 497.26,-84.22 435.72,-74.05"/>
<polygon fill="midnightblue" stroke="midnightblue" points="436.01,-70.56 425.57,-72.38 434.87,-77.46 436.01,-70.56"/>
</g>
</g>
</svg>
