<?xml version="1.0" encoding="UTF-8" standalone="no"?>
<!DOCTYPE svg PUBLIC "-//W3C//DTD SVG 1.1//EN"
 "http://www.w3.org/Graphics/SVG/1.1/DTD/svg11.dtd">
<!-- Generated by graphviz version 2.43.0 (0)
 -->
<!-- Title: Graphical Class Hierarchy Pages: 1 -->
<svg width="137pt" height="218pt"
 viewBox="0.00 0.00 137.00 218.00" xmlns="http://www.w3.org/2000/svg" xmlns:xlink="http://www.w3.org/1999/xlink">
<g id="graph0" class="graph" transform="scale(1 1) rotate(0) translate(4 214)">
<title>Graphical Class Hierarchy</title>
<polygon fill="white" stroke="transparent" points="-4,4 -4,-214 133,-214 133,4 -4,4"/>
<!-- Node0 -->
<g id="node1" class="node">
<title>Node0</title>
<g id="a_node1"><a xlink:href="classPiece.html" target="_top" xlink:title=" ">
<polygon fill="white" stroke="black" points="0,-95.5 0,-114.5 43,-114.5 43,-95.5 0,-95.5"/>
<text text-anchor="middle" x="21.5" y="-102.5" font-family="Helvetica,sans-Serif" font-size="10.00">Piece</text>
</a>
</g>
</g>
<!-- Node1 -->
<g id="node2" class="node">
<title>Node1</title>
<g id="a_node2"><a xlink:href="classBishop.html" target="_top" xlink:title="Represents BISHOP.">
<polygon fill="white" stroke="black" points="79,-190.5 79,-209.5 129,-209.5 129,-190.5 79,-190.5"/>
<text text-anchor="middle" x="104" y="-197.5" font-family="Helvetica,sans-Serif" font-size="10.00">Bishop</text>
</a>
</g>
</g>
<!-- Node0&#45;&gt;Node1 -->
<g id="edge1" class="edge">
<title>Node0&#45;&gt;Node1</title>
<path fill="none" stroke="midnightblue" d="M33.9,-122.98C44.55,-139.07 61.39,-162.85 79,-181 82.11,-184.2 85.76,-187.35 89.27,-190.13"/>
<polygon fill="midnightblue" stroke="midnightblue" points="36.78,-120.98 28.4,-114.5 30.91,-124.79 36.78,-120.98"/>
</g>
<!-- Node2 -->
<g id="node3" class="node">
<title>Node2</title>
<g id="a_node3"><a xlink:href="classKing.html" target="_top" xlink:title=" ">
<polygon fill="white" stroke="black" points="85,-152.5 85,-171.5 123,-171.5 123,-152.5 85,-152.5"/>
<text text-anchor="middle" x="104" y="-159.5" font-family="Helvetica,sans-Serif" font-size="10.00">King</text>
</a>
</g>
</g>
<!-- Node0&#45;&gt;Node2 -->
<g id="edge2" class="edge">
<title>Node0&#45;&gt;Node2</title>
<path fill="none" stroke="midnightblue" d="M44.52,-120.59C58.93,-130.79 77.28,-143.79 89.55,-152.47"/>
<polygon fill="midnightblue" stroke="midnightblue" points="46.34,-117.59 36.16,-114.67 42.29,-123.3 46.34,-117.59"/>
</g>
<!-- Node3 -->
<g id="node4" class="node">
<title>Node3</title>
<g id="a_node4"><a xlink:href="classKnight.html" target="_top" xlink:title=" ">
<polygon fill="white" stroke="black" points="80,-114.5 80,-133.5 128,-133.5 128,-114.5 80,-114.5"/>
<text text-anchor="middle" x="104" y="-121.5" font-family="Helvetica,sans-Serif" font-size="10.00">Knight</text>
</a>
</g>
</g>
<!-- Node0&#45;&gt;Node3 -->
<g id="edge3" class="edge">
<title>Node0&#45;&gt;Node3</title>
<path fill="none" stroke="midnightblue" d="M53.18,-112.24C62.01,-114.33 71.49,-116.56 79.78,-118.52"/>
<polygon fill="midnightblue" stroke="midnightblue" points="53.77,-108.78 43.23,-109.89 52.16,-115.6 53.77,-108.78"/>
</g>
<!-- Node4 -->
<g id="node5" class="node">
<title>Node4</title>
<g id="a_node5"><a xlink:href="classPawn.html" target="_top" xlink:title=" ">
<polygon fill="white" stroke="black" points="83,-76.5 83,-95.5 125,-95.5 125,-76.5 83,-76.5"/>
<text text-anchor="middle" x="104" y="-83.5" font-family="Helvetica,sans-Serif" font-size="10.00">Pawn</text>
</a>
</g>
</g>
<!-- Node0&#45;&gt;Node4 -->
<g id="edge4" class="edge">
<title>Node0&#45;&gt;Node4</title>
<path fill="none" stroke="midnightblue" d="M53.19,-97.76C63.14,-95.41 73.92,-92.86 82.9,-90.75"/>
<polygon fill="midnightblue" stroke="midnightblue" points="52.16,-94.4 43.23,-100.11 53.77,-101.22 52.16,-94.4"/>
</g>
<!-- Node5 -->
<g id="node6" class="node">
<title>Node5</title>
<g id="a_node6"><a xlink:href="classQueen.html" target="_top" xlink:title=" ">
<polygon fill="white" stroke="black" points="80,-38.5 80,-57.5 128,-57.5 128,-38.5 80,-38.5"/>
<text text-anchor="middle" x="104" y="-45.5" font-family="Helvetica,sans-Serif" font-size="10.00">Queen</text>
</a>
</g>
</g>
<!-- Node0&#45;&gt;Node5 -->
<g id="edge5" class="edge">
<title>Node0&#45;&gt;Node5</title>
<path fill="none" stroke="midnightblue" d="M44.52,-89.41C58.93,-79.21 77.28,-66.21 89.55,-57.53"/>
<polygon fill="midnightblue" stroke="midnightblue" points="42.29,-86.7 36.16,-95.33 46.34,-92.41 42.29,-86.7"/>
</g>
<!-- Node6 -->
<g id="node7" class="node">
<title>Node6</title>
<g id="a_node7"><a xlink:href="classRook.html" target="_top" xlink:title=" ">
<polygon fill="white" stroke="black" points="83.5,-0.5 83.5,-19.5 124.5,-19.5 124.5,-0.5 83.5,-0.5"/>
<text text-anchor="middle" x="104" y="-7.5" font-family="Helvetica,sans-Serif" font-size="10.00">Rook</text>
</a>
</g>
</g>
<!-- Node0&#45;&gt;Node6 -->
<g id="edge6" class="edge">
<title>Node0&#45;&gt;Node6</title>
<path fill="none" stroke="midnightblue" d="M33.9,-87.02C44.55,-70.93 61.39,-47.15 79,-29 82.11,-25.8 85.76,-22.65 89.27,-19.87"/>
<polygon fill="midnightblue" stroke="midnightblue" points="30.91,-85.21 28.4,-95.5 36.78,-89.02 30.91,-85.21"/>
</g>
</g>
</svg>
