<?xml version="1.0" encoding="UTF-8" standalone="no"?>
<!DOCTYPE svg PUBLIC "-//W3C//DTD SVG 1.1//EN"
 "http://www.w3.org/Graphics/SVG/1.1/DTD/svg11.dtd">
<!-- Generated by graphviz version 2.43.0 (0)
 -->
<!-- Title: src/input_handler.h Pages: 1 -->
<svg width="493pt" height="84pt"
 viewBox="0.00 0.00 493.00 84.00" xmlns="http://www.w3.org/2000/svg" xmlns:xlink="http://www.w3.org/1999/xlink">
<g id="graph0" class="graph" transform="scale(1 1) rotate(0) translate(4 80)">
<title>src/input_handler.h</title>
<polygon fill="white" stroke="transparent" points="-4,4 -4,-80 489,-80 489,4 -4,4"/>
<!-- Node1 -->
<g id="node1" class="node">
<title>Node1</title>
<g id="a_node1"><a xlink:title=" ">
<polygon fill="#bfbfbf" stroke="black" points="161.5,-56.5 161.5,-75.5 270.5,-75.5 270.5,-56.5 161.5,-56.5"/>
<text text-anchor="middle" x="216" y="-63.5" font-family="Helvetica,sans-Serif" font-size="10.00">src/input_handler.h</text>
</a>
</g>
</g>
<!-- Node2 -->
<g id="node2" class="node">
<title>Node2</title>
<g id="a_node2"><a xlink:href="fen_8cpp.html" target="_top" xlink:title=" ">
<polygon fill="white" stroke="black" points="0,-0.5 0,-19.5 70,-19.5 70,-0.5 0,-0.5"/>
<text text-anchor="middle" x="35" y="-7.5" font-family="Helvetica,sans-Serif" font-size="10.00">src/fen.cpp</text>
</a>
</g>
</g>
<!-- Node1&#45;&gt;Node2 -->
<g id="edge1" class="edge">
<title>Node1&#45;&gt;Node2</title>
<path fill="none" stroke="midnightblue" d="M177.68,-53.57C143.54,-43.38 94.34,-28.7 63.55,-19.52"/>
<polygon fill="midnightblue" stroke="midnightblue" points="176.74,-56.94 187.32,-56.44 178.74,-50.23 176.74,-56.94"/>
</g>
<!-- Node3 -->
<g id="node3" class="node">
<title>Node3</title>
<g id="a_node3"><a xlink:href="file__manager_8cpp.html" target="_top" xlink:title=" ">
<polygon fill="white" stroke="black" points="88.5,-0.5 88.5,-19.5 205.5,-19.5 205.5,-0.5 88.5,-0.5"/>
<text text-anchor="middle" x="147" y="-7.5" font-family="Helvetica,sans-Serif" font-size="10.00">src/file_manager.cpp</text>
</a>
</g>
</g>
<!-- Node1&#45;&gt;Node3 -->
<g id="edge2" class="edge">
<title>Node1&#45;&gt;Node3</title>
<path fill="none" stroke="midnightblue" d="M196.96,-50.1C184.54,-40.38 168.76,-28.03 158.29,-19.83"/>
<polygon fill="midnightblue" stroke="midnightblue" points="194.88,-52.92 204.91,-56.32 199.2,-47.4 194.88,-52.92"/>
</g>
<!-- Node4 -->
<g id="node4" class="node">
<title>Node4</title>
<g id="a_node4"><a xlink:href="human__player_8cpp.html" target="_top" xlink:title=" ">
<polygon fill="white" stroke="black" points="223.5,-0.5 223.5,-19.5 346.5,-19.5 346.5,-0.5 223.5,-0.5"/>
<text text-anchor="middle" x="285" y="-7.5" font-family="Helvetica,sans-Serif" font-size="10.00">src/human_player.cpp</text>
</a>
</g>
</g>
<!-- Node1&#45;&gt;Node4 -->
<g id="edge3" class="edge">
<title>Node1&#45;&gt;Node4</title>
<path fill="none" stroke="midnightblue" d="M235.04,-50.1C247.46,-40.38 263.24,-28.03 273.71,-19.83"/>
<polygon fill="midnightblue" stroke="midnightblue" points="232.8,-47.4 227.09,-56.32 237.12,-52.92 232.8,-47.4"/>
</g>
<!-- Node5 -->
<g id="node5" class="node">
<title>Node5</title>
<g id="a_node5"><a xlink:href="input__handler_8cpp.html" target="_top" xlink:title=" ">
<polygon fill="white" stroke="black" points="365,-0.5 365,-19.5 485,-19.5 485,-0.5 365,-0.5"/>
<text text-anchor="middle" x="425" y="-7.5" font-family="Helvetica,sans-Serif" font-size="10.00">src/input_handler.cpp</text>
</a>
</g>
</g>
<!-- Node1&#45;&gt;Node5 -->
<g id="edge4" class="edge">
<title>Node1&#45;&gt;Node5</title>
<path fill="none" stroke="midnightblue" d="M258.98,-53.89C298.45,-43.7 356.1,-28.8 392.04,-19.52"/>
<polygon fill="midnightblue" stroke="midnightblue" points="257.92,-50.55 249.12,-56.44 259.67,-57.33 257.92,-50.55"/>
</g>
</g>
</svg>
