<?xml version="1.0" encoding="UTF-8" standalone="no"?>
<!DOCTYPE svg PUBLIC "-//W3C//DTD SVG 1.1//EN"
 "http://www.w3.org/Graphics/SVG/1.1/DTD/svg11.dtd">
<!-- Generated by graphviz version 2.43.0 (0)
 -->
<!-- Title: src/input_handler.h Pages: 1 -->
<svg width="126pt" height="140pt"
 viewBox="0.00 0.00 126.00 140.00" xmlns="http://www.w3.org/2000/svg" xmlns:xlink="http://www.w3.org/1999/xlink">
<g id="graph0" class="graph" transform="scale(1 1) rotate(0) translate(4 136)">
<title>src/input_handler.h</title>
<polygon fill="white" stroke="transparent" points="-4,4 -4,-136 122,-136 122,4 -4,4"/>
<!-- Node1 -->
<g id="node1" class="node">
<title>Node1</title>
<g id="a_node1"><a xlink:title=" ">
<polygon fill="#bfbfbf" stroke="black" points="0,-112.5 0,-131.5 109,-131.5 109,-112.5 0,-112.5"/>
<text text-anchor="middle" x="54.5" y="-119.5" font-family="Helvetica,sans-Serif" font-size="10.00">src/input_handler.h</text>
</a>
</g>
</g>
<!-- Node2 -->
<g id="node2" class="node">
<title>Node2</title>
<g id="a_node2"><a xlink:title=" ">
<polygon fill="white" stroke="#bfbfbf" points="24.5,-0.5 24.5,-19.5 84.5,-19.5 84.5,-0.5 24.5,-0.5"/>
<text text-anchor="middle" x="54.5" y="-7.5" font-family="Helvetica,sans-Serif" font-size="10.00">iostream</text>
</a>
</g>
</g>
<!-- Node1&#45;&gt;Node2 -->
<g id="edge1" class="edge">
<title>Node1&#45;&gt;Node2</title>
<path fill="none" stroke="midnightblue" d="M51.77,-112.49C49.05,-103.52 45.06,-88.94 43.5,-76 41.6,-60.2 45.01,-42.38 48.52,-29.41"/>
<polygon fill="midnightblue" stroke="midnightblue" points="51.88,-30.38 51.38,-19.79 45.17,-28.38 51.88,-30.38"/>
</g>
<!-- Node3 -->
<g id="node3" class="node">
<title>Node3</title>
<g id="a_node3"><a xlink:href="position_8h.html" target="_top" xlink:title=" ">
<polygon fill="white" stroke="black" points="53,-56.5 53,-75.5 118,-75.5 118,-56.5 53,-56.5"/>
<text text-anchor="middle" x="85.5" y="-63.5" font-family="Helvetica,sans-Serif" font-size="10.00">position.h</text>
</a>
</g>
</g>
<!-- Node1&#45;&gt;Node3 -->
<g id="edge2" class="edge">
<title>Node1&#45;&gt;Node3</title>
<path fill="none" stroke="midnightblue" d="M59.62,-112.08C63.91,-104.61 70.16,-93.72 75.44,-84.52"/>
<polygon fill="midnightblue" stroke="midnightblue" points="78.53,-86.17 80.48,-75.75 72.46,-82.68 78.53,-86.17"/>
</g>
<!-- Node3&#45;&gt;Node2 -->
<g id="edge3" class="edge">
<title>Node3&#45;&gt;Node2</title>
<path fill="none" stroke="midnightblue" d="M80.38,-56.08C76.09,-48.61 69.84,-37.72 64.56,-28.52"/>
<polygon fill="midnightblue" stroke="midnightblue" points="67.54,-26.68 59.52,-19.75 61.47,-30.17 67.54,-26.68"/>
</g>
</g>
</svg>
