<?xml version="1.0" encoding="UTF-8" standalone="no"?>
<!DOCTYPE svg PUBLIC "-//W3C//DTD SVG 1.1//EN"
 "http://www.w3.org/Graphics/SVG/1.1/DTD/svg11.dtd">
<!-- Generated by graphviz version 2.43.0 (0)
 -->
<!-- Title: src/knight.cpp Pages: 1 -->
<svg width="157pt" height="252pt"
 viewBox="0.00 0.00 157.00 252.00" xmlns="http://www.w3.org/2000/svg" xmlns:xlink="http://www.w3.org/1999/xlink">
<g id="graph0" class="graph" transform="scale(1 1) rotate(0) translate(4 248)">
<title>src/knight.cpp</title>
<polygon fill="white" stroke="transparent" points="-4,4 -4,-248 153,-248 153,4 -4,4"/>
<!-- Node1 -->
<g id="node1" class="node">
<title>Node1</title>
<g id="a_node1"><a xlink:title=" ">
<polygon fill="#bfbfbf" stroke="black" points="0,-224.5 0,-243.5 85,-243.5 85,-224.5 0,-224.5"/>
<text text-anchor="middle" x="42.5" y="-231.5" font-family="Helvetica,sans-Serif" font-size="10.00">src/knight.cpp</text>
</a>
</g>
</g>
<!-- Node2 -->
<g id="node2" class="node">
<title>Node2</title>
<g id="a_node2"><a xlink:href="knight_8h.html" target="_top" xlink:title=" ">
<polygon fill="white" stroke="black" points="14.5,-168.5 14.5,-187.5 70.5,-187.5 70.5,-168.5 14.5,-168.5"/>
<text text-anchor="middle" x="42.5" y="-175.5" font-family="Helvetica,sans-Serif" font-size="10.00">knight.h</text>
</a>
</g>
</g>
<!-- Node1&#45;&gt;Node2 -->
<g id="edge1" class="edge">
<title>Node1&#45;&gt;Node2</title>
<path fill="none" stroke="midnightblue" d="M42.5,-224.08C42.5,-217.01 42.5,-206.86 42.5,-197.99"/>
<polygon fill="midnightblue" stroke="midnightblue" points="46,-197.75 42.5,-187.75 39,-197.75 46,-197.75"/>
</g>
<!-- Node3 -->
<g id="node3" class="node">
<title>Node3</title>
<g id="a_node3"><a xlink:href="piece_8h.html" target="_top" xlink:title=" ">
<polygon fill="white" stroke="black" points="16.5,-112.5 16.5,-131.5 68.5,-131.5 68.5,-112.5 16.5,-112.5"/>
<text text-anchor="middle" x="42.5" y="-119.5" font-family="Helvetica,sans-Serif" font-size="10.00">piece.h</text>
</a>
</g>
</g>
<!-- Node2&#45;&gt;Node3 -->
<g id="edge2" class="edge">
<title>Node2&#45;&gt;Node3</title>
<path fill="none" stroke="midnightblue" d="M42.5,-168.08C42.5,-161.01 42.5,-150.86 42.5,-141.99"/>
<polygon fill="midnightblue" stroke="midnightblue" points="46,-141.75 42.5,-131.75 39,-141.75 46,-141.75"/>
</g>
<!-- Node4 -->
<g id="node4" class="node">
<title>Node4</title>
<g id="a_node4"><a xlink:title=" ">
<polygon fill="white" stroke="#bfbfbf" points="23.5,-0.5 23.5,-19.5 83.5,-19.5 83.5,-0.5 23.5,-0.5"/>
<text text-anchor="middle" x="53.5" y="-7.5" font-family="Helvetica,sans-Serif" font-size="10.00">iostream</text>
</a>
</g>
</g>
<!-- Node3&#45;&gt;Node4 -->
<g id="edge3" class="edge">
<title>Node3&#45;&gt;Node4</title>
<path fill="none" stroke="midnightblue" d="M32.81,-112.38C20.27,-100.14 1,-76.86 9.5,-56 14.3,-44.23 23.83,-33.86 32.79,-26.05"/>
<polygon fill="midnightblue" stroke="midnightblue" points="35.15,-28.64 40.72,-19.63 30.75,-23.2 35.15,-28.64"/>
</g>
<!-- Node5 -->
<g id="node5" class="node">
<title>Node5</title>
<g id="a_node5"><a xlink:title=" ">
<polygon fill="white" stroke="#bfbfbf" points="19,-56.5 19,-75.5 66,-75.5 66,-56.5 19,-56.5"/>
<text text-anchor="middle" x="42.5" y="-63.5" font-family="Helvetica,sans-Serif" font-size="10.00">vector</text>
</a>
</g>
</g>
<!-- Node3&#45;&gt;Node5 -->
<g id="edge4" class="edge">
<title>Node3&#45;&gt;Node5</title>
<path fill="none" stroke="midnightblue" d="M42.5,-112.08C42.5,-105.01 42.5,-94.86 42.5,-85.99"/>
<polygon fill="midnightblue" stroke="midnightblue" points="46,-85.75 42.5,-75.75 39,-85.75 46,-85.75"/>
</g>
<!-- Node6 -->
<g id="node6" class="node">
<title>Node6</title>
<g id="a_node6"><a xlink:href="position_8h.html" target="_top" xlink:title=" ">
<polygon fill="white" stroke="black" points="84,-56.5 84,-75.5 149,-75.5 149,-56.5 84,-56.5"/>
<text text-anchor="middle" x="116.5" y="-63.5" font-family="Helvetica,sans-Serif" font-size="10.00">position.h</text>
</a>
</g>
</g>
<!-- Node3&#45;&gt;Node6 -->
<g id="edge5" class="edge">
<title>Node3&#45;&gt;Node6</title>
<path fill="none" stroke="midnightblue" d="M54.39,-112.32C65.65,-104.11 82.79,-91.6 96.21,-81.81"/>
<polygon fill="midnightblue" stroke="midnightblue" points="98.38,-84.56 104.39,-75.83 94.25,-78.9 98.38,-84.56"/>
</g>
<!-- Node6&#45;&gt;Node4 -->
<g id="edge6" class="edge">
<title>Node6&#45;&gt;Node4</title>
<path fill="none" stroke="midnightblue" d="M106.38,-56.32C96.97,-48.26 82.76,-36.08 71.43,-26.37"/>
<polygon fill="midnightblue" stroke="midnightblue" points="73.68,-23.68 63.81,-19.83 69.12,-29 73.68,-23.68"/>
</g>
</g>
</svg>
