<?xml version="1.0" encoding="UTF-8" standalone="no"?>
<!DOCTYPE svg PUBLIC "-//W3C//DTD SVG 1.1//EN"
 "http://www.w3.org/Graphics/SVG/1.1/DTD/svg11.dtd">
<!-- Generated by graphviz version 2.43.0 (0)
 -->
<!-- Title: main Pages: 1 -->
<svg width="1542pt" height="639pt"
 viewBox="0.00 0.00 1542.00 638.50" xmlns="http://www.w3.org/2000/svg" xmlns:xlink="http://www.w3.org/1999/xlink">
<g id="graph0" class="graph" transform="scale(1 1) rotate(0) translate(4 634.5)">
<title>main</title>
<polygon fill="white" stroke="transparent" points="-4,4 -4,-634.5 1538,-634.5 1538,4 -4,4"/>
<!-- Node1 -->
<g id="node1" class="node">
<title>Node1</title>
<g id="a_node1"><a xlink:title=" ">
<polygon fill="#bfbfbf" stroke="black" points="0,-302.5 0,-321.5 41,-321.5 41,-302.5 0,-302.5"/>
<text text-anchor="middle" x="20.5" y="-309.5" font-family="Helvetica,sans-Serif" font-size="10.00">main</text>
</a>
</g>
</g>
<!-- Node2 -->
<g id="node2" class="node">
<title>Node2</title>
<g id="a_node2"><a xlink:href="classMenu.html#a35656cd130e24d69383a5c9d0a73a38c" target="_top" xlink:title="Runs menu.">
<polygon fill="white" stroke="black" points="77,-302.5 77,-321.5 142,-321.5 142,-302.5 77,-302.5"/>
<text text-anchor="middle" x="109.5" y="-309.5" font-family="Helvetica,sans-Serif" font-size="10.00">Menu::run</text>
</a>
</g>
</g>
<!-- Node1&#45;&gt;Node2 -->
<g id="edge1" class="edge">
<title>Node1&#45;&gt;Node2</title>
<path fill="none" stroke="midnightblue" d="M41.24,-312C48.81,-312 57.76,-312 66.62,-312"/>
<polygon fill="midnightblue" stroke="midnightblue" points="66.89,-315.5 76.89,-312 66.89,-308.5 66.89,-315.5"/>
</g>
<!-- Node3 -->
<g id="node3" class="node">
<title>Node3</title>
<g id="a_node3"><a xlink:href="classMenu.html#ac90e451d94eb82769cf58eea174667be" target="_top" xlink:title="Load game.">
<polygon fill="white" stroke="black" points="186,-381.5 186,-400.5 290,-400.5 290,-381.5 186,-381.5"/>
<text text-anchor="middle" x="238" y="-388.5" font-family="Helvetica,sans-Serif" font-size="10.00">Menu::load_game</text>
</a>
</g>
</g>
<!-- Node2&#45;&gt;Node3 -->
<g id="edge2" class="edge">
<title>Node2&#45;&gt;Node3</title>
<path fill="none" stroke="midnightblue" d="M126.01,-321.69C147.75,-335.26 187.48,-360.08 213.04,-376.04"/>
<polygon fill="midnightblue" stroke="midnightblue" points="211.42,-379.15 221.76,-381.48 215.13,-373.21 211.42,-379.15"/>
</g>
<!-- Node51 -->
<g id="node47" class="node">
<title>Node51</title>
<g id="a_node47"><a xlink:href="classMenu.html#a68710aa5133ced607246c679ec2d2bb4" target="_top" xlink:title="Prints menu.">
<polygon fill="white" stroke="black" points="185.5,-321.5 185.5,-340.5 290.5,-340.5 290.5,-321.5 185.5,-321.5"/>
<text text-anchor="middle" x="238" y="-328.5" font-family="Helvetica,sans-Serif" font-size="10.00">Menu::print_menu</text>
</a>
</g>
</g>
<!-- Node2&#45;&gt;Node51 -->
<g id="edge62" class="edge">
<title>Node2&#45;&gt;Node51</title>
<path fill="none" stroke="midnightblue" d="M142.09,-316.75C152.17,-318.26 163.69,-319.99 175.15,-321.71"/>
<polygon fill="midnightblue" stroke="midnightblue" points="174.75,-325.19 185.16,-323.21 175.79,-318.27 174.75,-325.19"/>
</g>
<!-- Node52 -->
<g id="node48" class="node">
<title>Node52</title>
<g id="a_node48"><a xlink:href="classMenu.html#a196d4b882280b81c81409beb8a1a6780" target="_top" xlink:title="Starts game with AI.">
<polygon fill="white" stroke="black" points="178,-283.5 178,-302.5 298,-302.5 298,-283.5 178,-283.5"/>
<text text-anchor="middle" x="238" y="-290.5" font-family="Helvetica,sans-Serif" font-size="10.00">Menu::start_AI_game</text>
</a>
</g>
</g>
<!-- Node2&#45;&gt;Node52 -->
<g id="edge63" class="edge">
<title>Node2&#45;&gt;Node52</title>
<path fill="none" stroke="midnightblue" d="M142.09,-307.25C149.96,-306.07 158.71,-304.76 167.63,-303.42"/>
<polygon fill="midnightblue" stroke="midnightblue" points="168.35,-306.85 177.72,-301.9 167.31,-299.93 168.35,-306.85"/>
</g>
<!-- Node54 -->
<g id="node50" class="node">
<title>Node54</title>
<g id="a_node50"><a xlink:href="classMenu.html#a4e25526f20b92932d0adf9a489356dac" target="_top" xlink:title="Starts game with 2 human players.">
<polygon fill="white" stroke="black" points="185.5,-245.5 185.5,-264.5 290.5,-264.5 290.5,-245.5 185.5,-245.5"/>
<text text-anchor="middle" x="238" y="-252.5" font-family="Helvetica,sans-Serif" font-size="10.00">Menu::start_game</text>
</a>
</g>
</g>
<!-- Node2&#45;&gt;Node54 -->
<g id="edge67" class="edge">
<title>Node2&#45;&gt;Node54</title>
<path fill="none" stroke="midnightblue" d="M125.33,-302.5C138.72,-294.21 159.15,-282.24 178,-274 183.05,-271.79 188.45,-269.7 193.84,-267.78"/>
<polygon fill="midnightblue" stroke="midnightblue" points="195.15,-271.03 203.49,-264.5 192.89,-264.41 195.15,-271.03"/>
</g>
<!-- Node4 -->
<g id="node4" class="node">
<title>Node4</title>
<g id="a_node4"><a xlink:href="classFile__manager.html#a700ed2e80892dd11ec00b150b991db71" target="_top" xlink:title="Checks if file name ends with .txt.">
<polygon fill="white" stroke="black" points="718,-436 718,-466 830,-466 830,-436 718,-436"/>
<text text-anchor="start" x="726" y="-454" font-family="Helvetica,sans-Serif" font-size="10.00">File_manager::ends</text>
<text text-anchor="middle" x="774" y="-443" font-family="Helvetica,sans-Serif" font-size="10.00">_with_txt</text>
</a>
</g>
</g>
<!-- Node3&#45;&gt;Node4 -->
<g id="edge3" class="edge">
<title>Node3&#45;&gt;Node4</title>
<path fill="none" stroke="midnightblue" d="M284.76,-400.55C300.34,-403.57 317.88,-406.71 334,-409 466.02,-427.78 621.6,-440.45 707.58,-446.63"/>
<polygon fill="midnightblue" stroke="midnightblue" points="707.49,-450.13 717.71,-447.35 707.99,-443.15 707.49,-450.13"/>
</g>
<!-- Node5 -->
<g id="node5" class="node">
<title>Node5</title>
<g id="a_node5"><a xlink:href="classPlayer.html#a962ed5b79d46a442c2a933bfde0f9ce1" target="_top" xlink:title="Fill pieces on chess board.">
<polygon fill="white" stroke="black" points="349.5,-283.5 349.5,-302.5 451.5,-302.5 451.5,-283.5 349.5,-283.5"/>
<text text-anchor="middle" x="400.5" y="-290.5" font-family="Helvetica,sans-Serif" font-size="10.00">Player::fill_pieces</text>
</a>
</g>
</g>
<!-- Node3&#45;&gt;Node5 -->
<g id="edge4" class="edge">
<title>Node3&#45;&gt;Node5</title>
<path fill="none" stroke="midnightblue" d="M254.68,-381.42C282.66,-364.34 341.36,-328.5 374.8,-308.08"/>
<polygon fill="midnightblue" stroke="midnightblue" points="376.81,-310.96 383.52,-302.76 373.16,-304.98 376.81,-310.96"/>
</g>
<!-- Node6 -->
<g id="node6" class="node">
<title>Node6</title>
<g id="a_node6"><a xlink:href="classApplication.html#aa0cd4150071d630bd7b1f067878f00cd" target="_top" xlink:title="Starts and handles game.">
<polygon fill="white" stroke="black" points="348,-245.5 348,-264.5 453,-264.5 453,-245.5 348,-245.5"/>
<text text-anchor="middle" x="400.5" y="-252.5" font-family="Helvetica,sans-Serif" font-size="10.00">Application::game</text>
</a>
</g>
</g>
<!-- Node3&#45;&gt;Node6 -->
<g id="edge5" class="edge">
<title>Node3&#45;&gt;Node6</title>
<path fill="none" stroke="midnightblue" d="M257.68,-381.43C270.36,-374.18 286.79,-363.23 298,-350 322.16,-321.48 305.54,-298.23 334,-274 336.01,-272.29 338.17,-270.73 340.43,-269.31"/>
<polygon fill="midnightblue" stroke="midnightblue" points="342.37,-272.25 349.61,-264.51 339.12,-266.05 342.37,-272.25"/>
</g>
<!-- Node39 -->
<g id="node35" class="node">
<title>Node39</title>
<g id="a_node35"><a xlink:href="classFile__manager.html#a5492c26ed8d51b69935173acf8688e80" target="_top" xlink:title="List all files in directory.">
<polygon fill="white" stroke="black" points="722,-387 722,-417 826,-417 826,-387 722,-387"/>
<text text-anchor="start" x="730" y="-405" font-family="Helvetica,sans-Serif" font-size="10.00">File_manager::list</text>
<text text-anchor="middle" x="774" y="-394" font-family="Helvetica,sans-Serif" font-size="10.00">_directory</text>
</a>
</g>
</g>
<!-- Node3&#45;&gt;Node39 -->
<g id="edge54" class="edge">
<title>Node3&#45;&gt;Node39</title>
<path fill="none" stroke="midnightblue" d="M290.2,-392.05C388.98,-394.09 605.46,-398.55 711.71,-400.74"/>
<polygon fill="midnightblue" stroke="midnightblue" points="711.88,-404.24 721.95,-400.95 712.03,-397.24 711.88,-404.24"/>
</g>
<!-- Node44 -->
<g id="node40" class="node">
<title>Node44</title>
<g id="a_node40"><a xlink:href="classFile__manager.html#ade44f79bfec1810354a04dc1829aa2a3" target="_top" xlink:title="Opens file.">
<polygon fill="white" stroke="black" points="334,-501.5 334,-520.5 467,-520.5 467,-501.5 334,-501.5"/>
<text text-anchor="middle" x="400.5" y="-508.5" font-family="Helvetica,sans-Serif" font-size="10.00">File_manager::open_file</text>
</a>
</g>
</g>
<!-- Node3&#45;&gt;Node44 -->
<g id="edge55" class="edge">
<title>Node3&#45;&gt;Node44</title>
<path fill="none" stroke="midnightblue" d="M250.85,-400.54C268.69,-414.82 303.58,-442.49 334,-465 348.02,-475.38 364.04,-486.64 376.73,-495.42"/>
<polygon fill="midnightblue" stroke="midnightblue" points="375.08,-498.53 385.3,-501.33 379.05,-492.77 375.08,-498.53"/>
</g>
<!-- Node7 -->
<g id="node7" class="node">
<title>Node7</title>
<g id="a_node7"><a xlink:href="classApplication.html#a50559888cd4196c7cda01e0a432d609f" target="_top" xlink:title="Changes turn of game.">
<polygon fill="white" stroke="black" points="527.5,-191 527.5,-221 640.5,-221 640.5,-191 527.5,-191"/>
<text text-anchor="start" x="535.5" y="-209" font-family="Helvetica,sans-Serif" font-size="10.00">Application::change</text>
<text text-anchor="middle" x="584" y="-198" font-family="Helvetica,sans-Serif" font-size="10.00">_turns</text>
</a>
</g>
</g>
<!-- Node6&#45;&gt;Node7 -->
<g id="edge6" class="edge">
<title>Node6&#45;&gt;Node7</title>
<path fill="none" stroke="midnightblue" d="M436.93,-245.44C459.8,-239.26 490.27,-231.04 517.45,-223.7"/>
<polygon fill="midnightblue" stroke="midnightblue" points="518.56,-227.02 527.3,-221.04 516.74,-220.26 518.56,-227.02"/>
</g>
<!-- Node27 -->
<g id="node26" class="node">
<title>Node27</title>
<g id="a_node26"><a xlink:href="classGameRules.html#a8d006d25138133af6fa938c758b2d12f" target="_top" xlink:title="Checks if the dead position applies.">
<polygon fill="white" stroke="black" points="510.5,-38.5 510.5,-57.5 657.5,-57.5 657.5,-38.5 510.5,-38.5"/>
<text text-anchor="middle" x="584" y="-45.5" font-family="Helvetica,sans-Serif" font-size="10.00">GameRules::dead_position</text>
</a>
</g>
</g>
<!-- Node6&#45;&gt;Node27 -->
<g id="edge36" class="edge">
<title>Node6&#45;&gt;Node27</title>
<path fill="none" stroke="midnightblue" d="M453.29,-246C458.41,-243.43 463.13,-240.16 467,-236 519.3,-179.77 449.33,-121.93 503,-67 504.27,-65.7 505.61,-64.48 507.01,-63.35"/>
<polygon fill="midnightblue" stroke="midnightblue" points="509.23,-66.07 515.63,-57.63 505.37,-60.24 509.23,-66.07"/>
</g>
<!-- Node28 -->
<g id="node27" class="node">
<title>Node28</title>
<g id="a_node27"><a xlink:href="classPlayer.html#a4d6bbea149ca89248c006c2a0ca140b6" target="_top" xlink:title="Delete piece from pieces_pos_.">
<polygon fill="white" stroke="black" points="526,-0.5 526,-19.5 642,-19.5 642,-0.5 526,-0.5"/>
<text text-anchor="middle" x="584" y="-7.5" font-family="Helvetica,sans-Serif" font-size="10.00">Player::delete_piece</text>
</a>
</g>
</g>
<!-- Node6&#45;&gt;Node28 -->
<g id="edge37" class="edge">
<title>Node6&#45;&gt;Node28</title>
<path fill="none" stroke="midnightblue" d="M453.13,-246.3C458.34,-243.69 463.13,-240.32 467,-236 529.3,-166.44 439.01,-97.01 503,-29 506.85,-24.91 511.41,-21.62 516.37,-19"/>
<polygon fill="midnightblue" stroke="midnightblue" points="517.89,-22.15 525.66,-14.95 515.09,-15.73 517.89,-22.15"/>
</g>
<!-- Node29 -->
<g id="node28" class="node">
<title>Node29</title>
<g id="a_node28"><a xlink:href="classGameRules.html#aa6f8bc3fd2c7b8fa5dba8dfd241d7740" target="_top" xlink:title="Checks if the half&#45;move rules applies.">
<polygon fill="white" stroke="black" points="516,-327.5 516,-346.5 652,-346.5 652,-327.5 516,-327.5"/>
<text text-anchor="middle" x="584" y="-334.5" font-family="Helvetica,sans-Serif" font-size="10.00">GameRules::half_moves</text>
</a>
</g>
</g>
<!-- Node6&#45;&gt;Node29 -->
<g id="edge38" class="edge">
<title>Node6&#45;&gt;Node29</title>
<path fill="none" stroke="midnightblue" d="M447.81,-264.6C454.55,-267.07 461.17,-270.15 467,-274 488.08,-287.92 481.58,-304.6 503,-318 506.38,-320.11 509.96,-321.99 513.68,-323.66"/>
<polygon fill="midnightblue" stroke="midnightblue" points="512.55,-326.97 523.13,-327.39 515.12,-320.46 512.55,-326.97"/>
</g>
<!-- Node30 -->
<g id="node29" class="node">
<title>Node30</title>
<g id="a_node29"><a xlink:href="classBoard.html#aa96e4fef113d4a359baf359264c0cf3f" target="_top" xlink:title="Prints chess board.">
<polygon fill="white" stroke="black" points="530.5,-289.5 530.5,-308.5 637.5,-308.5 637.5,-289.5 530.5,-289.5"/>
<text text-anchor="middle" x="584" y="-296.5" font-family="Helvetica,sans-Serif" font-size="10.00">Board::print_board</text>
</a>
</g>
</g>
<!-- Node6&#45;&gt;Node30 -->
<g id="edge39" class="edge">
<title>Node6&#45;&gt;Node30</title>
<path fill="none" stroke="midnightblue" d="M440.88,-264.55C468.12,-271.15 504.55,-279.98 533.71,-287.05"/>
<polygon fill="midnightblue" stroke="midnightblue" points="533.15,-290.52 543.69,-289.47 534.8,-283.71 533.15,-290.52"/>
</g>
<!-- Node31 -->
<g id="node30" class="node">
<title>Node31</title>
<g id="a_node30"><a xlink:href="classApplication.html#aea645938276f66ddf06cbb04d6169502" target="_top" xlink:title="Prints result of game (checkmate, tie, pat, game not finished)">
<polygon fill="white" stroke="black" points="534,-240 534,-270 634,-270 634,-240 534,-240"/>
<text text-anchor="start" x="542" y="-258" font-family="Helvetica,sans-Serif" font-size="10.00">Application::print</text>
<text text-anchor="middle" x="584" y="-247" font-family="Helvetica,sans-Serif" font-size="10.00">_results</text>
</a>
</g>
</g>
<!-- Node6&#45;&gt;Node31 -->
<g id="edge40" class="edge">
<title>Node6&#45;&gt;Node31</title>
<path fill="none" stroke="midnightblue" d="M453.03,-255C475.02,-255 500.82,-255 523.61,-255"/>
<polygon fill="midnightblue" stroke="midnightblue" points="523.85,-258.5 533.85,-255 523.85,-251.5 523.85,-258.5"/>
</g>
<!-- Node32 -->
<g id="node31" class="node">
<title>Node32</title>
<g id="a_node31"><a xlink:href="classFile__manager.html#a0b0b101cb1941cba0e51a2c6dea0919b" target="_top" xlink:title="Saves file.">
<polygon fill="white" stroke="black" points="518,-365.5 518,-384.5 650,-384.5 650,-365.5 518,-365.5"/>
<text text-anchor="middle" x="584" y="-372.5" font-family="Helvetica,sans-Serif" font-size="10.00">File_manager::save_file</text>
</a>
</g>
</g>
<!-- Node6&#45;&gt;Node32 -->
<g id="edge41" class="edge">
<title>Node6&#45;&gt;Node32</title>
<path fill="none" stroke="midnightblue" d="M451.83,-264.53C457.34,-266.99 462.55,-270.1 467,-274 496.93,-300.24 472.43,-330.51 503,-356 505.01,-357.68 507.15,-359.22 509.38,-360.62"/>
<polygon fill="midnightblue" stroke="midnightblue" points="507.93,-363.81 518.41,-365.42 511.22,-357.63 507.93,-363.81"/>
</g>
<!-- Node40 -->
<g id="node36" class="node">
<title>Node40</title>
<g id="a_node36"><a xlink:href="classGameRules.html#a515085ec1bb0e6ea5c2d12664ec7fc10" target="_top" xlink:title="Checks if the stalemate rule applies.">
<polygon fill="white" stroke="black" points="710,-111.5 710,-130.5 838,-130.5 838,-111.5 710,-111.5"/>
<text text-anchor="middle" x="774" y="-118.5" font-family="Helvetica,sans-Serif" font-size="10.00">GameRules::stalemate</text>
</a>
</g>
</g>
<!-- Node6&#45;&gt;Node40 -->
<g id="edge47" class="edge">
<title>Node6&#45;&gt;Node40</title>
<path fill="none" stroke="midnightblue" d="M449.55,-245.42C455.75,-242.96 461.76,-239.87 467,-236 490.49,-218.63 478.97,-197.62 503,-181 511.8,-174.92 639.24,-148.22 715.84,-132.56"/>
<polygon fill="midnightblue" stroke="midnightblue" points="716.74,-135.95 725.84,-130.52 715.34,-129.09 716.74,-135.95"/>
</g>
<!-- Node42 -->
<g id="node38" class="node">
<title>Node42</title>
<g id="a_node38"><a xlink:href="classGameRules.html#acbd44f6245c7a7fb0ddf2a7b0fffc923" target="_top" xlink:title="Checks if the threefold repetition rule applies.">
<polygon fill="white" stroke="black" points="522.5,-114.5 522.5,-133.5 645.5,-133.5 645.5,-114.5 522.5,-114.5"/>
<text text-anchor="middle" x="584" y="-121.5" font-family="Helvetica,sans-Serif" font-size="10.00">GameRules::threefold</text>
</a>
</g>
</g>
<!-- Node6&#45;&gt;Node42 -->
<g id="edge52" class="edge">
<title>Node6&#45;&gt;Node42</title>
<path fill="none" stroke="midnightblue" d="M452.26,-245.43C457.62,-242.97 462.69,-239.88 467,-236 498.42,-207.74 471.71,-176.4 503,-148 507.47,-143.94 512.6,-140.57 518.07,-137.77"/>
<polygon fill="midnightblue" stroke="midnightblue" points="519.79,-140.83 527.51,-133.57 516.95,-134.43 519.79,-140.83"/>
</g>
<!-- Node43 -->
<g id="node39" class="node">
<title>Node43</title>
<g id="a_node39"><a xlink:href="classGameRules.html#a07b29e4691299df2cfe680af7a59262b" target="_top" xlink:title=" ">
<polygon fill="white" stroke="black" points="503,-76.5 503,-95.5 665,-95.5 665,-76.5 503,-76.5"/>
<text text-anchor="middle" x="584" y="-83.5" font-family="Helvetica,sans-Serif" font-size="10.00">GameRules::update_threefold</text>
</a>
</g>
</g>
<!-- Node6&#45;&gt;Node43 -->
<g id="edge53" class="edge">
<title>Node6&#45;&gt;Node43</title>
<path fill="none" stroke="midnightblue" d="M453.05,-245.77C458.21,-243.24 463.01,-240.05 467,-236 509.39,-193 459.56,-146.94 503,-105 504.46,-103.59 506.01,-102.27 507.63,-101.05"/>
<polygon fill="midnightblue" stroke="midnightblue" points="509.62,-103.93 516.25,-95.67 505.92,-97.99 509.62,-103.93"/>
</g>
<!-- Node8 -->
<g id="node8" class="node">
<title>Node8</title>
<g id="a_node8"><a xlink:href="classApplication.html#a162a3f466352b474a10516c7f0b0ae9a" target="_top" xlink:title=" ">
<polygon fill="white" stroke="black" points="708.5,-196.5 708.5,-215.5 839.5,-215.5 839.5,-196.5 708.5,-196.5"/>
<text text-anchor="middle" x="774" y="-203.5" font-family="Helvetica,sans-Serif" font-size="10.00">Application::play_move</text>
</a>
</g>
</g>
<!-- Node7&#45;&gt;Node8 -->
<g id="edge7" class="edge">
<title>Node7&#45;&gt;Node8</title>
<path fill="none" stroke="midnightblue" d="M640.64,-206C658.63,-206 678.88,-206 698.03,-206"/>
<polygon fill="midnightblue" stroke="midnightblue" points="698.23,-209.5 708.23,-206 698.23,-202.5 698.23,-209.5"/>
</g>
<!-- Node9 -->
<g id="node9" class="node">
<title>Node9</title>
<g id="a_node9"><a xlink:href="classRules.html#abd9b013ebba58f9757336a20b2c6bf8e" target="_top" xlink:title="Checks if king is in check.">
<polygon fill="white" stroke="black" points="1059,-127.5 1059,-146.5 1148,-146.5 1148,-127.5 1059,-127.5"/>
<text text-anchor="middle" x="1103.5" y="-134.5" font-family="Helvetica,sans-Serif" font-size="10.00">Rules::checked</text>
</a>
</g>
</g>
<!-- Node8&#45;&gt;Node9 -->
<g id="edge8" class="edge">
<title>Node8&#45;&gt;Node9</title>
<path fill="none" stroke="midnightblue" d="M785.31,-196.46C803.42,-180.44 842.85,-148.73 883,-137 937.64,-121.04 1003.24,-123.7 1048.41,-128.69"/>
<polygon fill="midnightblue" stroke="midnightblue" points="1048.24,-132.19 1058.58,-129.89 1049.06,-125.24 1048.24,-132.19"/>
</g>
<!-- Node13 -->
<g id="node13" class="node">
<title>Node13</title>
<g id="a_node13"><a xlink:href="classRules.html#a4ec21c1bd51c73135ed26eafa0da58d3" target="_top" xlink:title="Checks if king is in checkmate.">
<polygon fill="white" stroke="black" points="889.5,-234.5 889.5,-253.5 993.5,-253.5 993.5,-234.5 889.5,-234.5"/>
<text text-anchor="middle" x="941.5" y="-241.5" font-family="Helvetica,sans-Serif" font-size="10.00">Rules::checkmate</text>
</a>
</g>
</g>
<!-- Node8&#45;&gt;Node13 -->
<g id="edge12" class="edge">
<title>Node8&#45;&gt;Node13</title>
<path fill="none" stroke="midnightblue" d="M816.76,-215.59C838.7,-220.63 865.78,-226.84 889.01,-232.18"/>
<polygon fill="midnightblue" stroke="midnightblue" points="888.51,-235.65 899.04,-234.48 890.07,-228.83 888.51,-235.65"/>
</g>
<!-- Node14 -->
<g id="node14" class="node">
<title>Node14</title>
<g id="a_node14"><a xlink:href="classMove.html#a3765dcce8a7c18e0c2f7ce42c98fa2ba" target="_top" xlink:title="Makes move with piece.">
<polygon fill="white" stroke="black" points="1048.5,-310.5 1048.5,-329.5 1158.5,-329.5 1158.5,-310.5 1048.5,-310.5"/>
<text text-anchor="middle" x="1103.5" y="-317.5" font-family="Helvetica,sans-Serif" font-size="10.00">Move::make_move</text>
</a>
</g>
</g>
<!-- Node8&#45;&gt;Node14 -->
<g id="edge32" class="edge">
<title>Node8&#45;&gt;Node14</title>
<path fill="none" stroke="midnightblue" d="M785.42,-215.6C803.68,-231.85 843.33,-264.63 883,-281 932.79,-301.55 993.31,-311.28 1038.18,-315.88"/>
<polygon fill="midnightblue" stroke="midnightblue" points="1038.08,-319.39 1048.37,-316.87 1038.75,-312.42 1038.08,-319.39"/>
</g>
<!-- Node20 -->
<g id="node20" class="node">
<title>Node20</title>
<g id="a_node20"><a xlink:href="classMove.html#afbed08d3294e3c7913dd27c3d6afd283" target="_top" xlink:title="Undo move.">
<polygon fill="white" stroke="black" points="1050,-234.5 1050,-253.5 1157,-253.5 1157,-234.5 1050,-234.5"/>
<text text-anchor="middle" x="1103.5" y="-241.5" font-family="Helvetica,sans-Serif" font-size="10.00">Move::undo_move</text>
</a>
</g>
</g>
<!-- Node8&#45;&gt;Node20 -->
<g id="edge34" class="edge">
<title>Node8&#45;&gt;Node20</title>
<path fill="none" stroke="midnightblue" d="M788.11,-215.66C807.61,-229.37 845.96,-253.82 883,-263 942.93,-277.85 1014.56,-266.41 1059.3,-255.94"/>
<polygon fill="midnightblue" stroke="midnightblue" points="1060.36,-259.29 1069.25,-253.52 1058.71,-252.48 1060.36,-259.29"/>
</g>
<!-- Node21 -->
<g id="node21" class="node">
<title>Node21</title>
<g id="a_node21"><a xlink:href="classValidate.html#afe077c5b0107ffc1c42670e233257b9c" target="_top" xlink:title="Validates move.">
<polygon fill="white" stroke="black" points="1036,-51.5 1036,-70.5 1171,-70.5 1171,-51.5 1036,-51.5"/>
<text text-anchor="middle" x="1103.5" y="-58.5" font-family="Helvetica,sans-Serif" font-size="10.00">Validate::validate_move</text>
</a>
</g>
</g>
<!-- Node8&#45;&gt;Node21 -->
<g id="edge35" class="edge">
<title>Node8&#45;&gt;Node21</title>
<path fill="none" stroke="midnightblue" d="M788.46,-196.35C804.17,-184.52 830.16,-163.19 847,-140 869.68,-108.78 850.55,-81.87 883,-61 937.19,-26.14 1015.56,-37.33 1062.52,-48.95"/>
<polygon fill="midnightblue" stroke="midnightblue" points="1061.77,-52.37 1072.33,-51.49 1063.53,-45.59 1061.77,-52.37"/>
</g>
<!-- Node25 -->
<g id="node24" class="node">
<title>Node25</title>
<g id="a_node24"><a xlink:href="classPlayer.html#afca2a1d6d42d2f3a04abb9ab5bc3d323" target="_top" xlink:title="Gets player&#39;s move.">
<polygon fill="white" stroke="black" points="890.5,-196.5 890.5,-215.5 992.5,-215.5 992.5,-196.5 890.5,-196.5"/>
<text text-anchor="middle" x="941.5" y="-203.5" font-family="Helvetica,sans-Serif" font-size="10.00">Player::get_move</text>
</a>
</g>
</g>
<!-- Node8&#45;&gt;Node25 -->
<g id="edge31" class="edge">
<title>Node8&#45;&gt;Node25</title>
<path fill="none" stroke="midnightblue" d="M839.93,-206C853.15,-206 867.01,-206 880.07,-206"/>
<polygon fill="midnightblue" stroke="midnightblue" points="880.34,-209.5 890.34,-206 880.34,-202.5 880.34,-209.5"/>
</g>
<!-- Node26 -->
<g id="node25" class="node">
<title>Node26</title>
<g id="a_node25"><a xlink:href="classApplication.html#afef57a39fdd32b4c10464d8a9d979816" target="_top" xlink:title="Prints who plays next.">
<polygon fill="white" stroke="black" points="891.5,-147 891.5,-177 991.5,-177 991.5,-147 891.5,-147"/>
<text text-anchor="start" x="899.5" y="-165" font-family="Helvetica,sans-Serif" font-size="10.00">Application::print</text>
<text text-anchor="middle" x="941.5" y="-154" font-family="Helvetica,sans-Serif" font-size="10.00">_color</text>
</a>
</g>
</g>
<!-- Node8&#45;&gt;Node26 -->
<g id="edge33" class="edge">
<title>Node8&#45;&gt;Node26</title>
<path fill="none" stroke="midnightblue" d="M810.91,-196.45C831.54,-190.97 857.96,-183.94 881.56,-177.67"/>
<polygon fill="midnightblue" stroke="midnightblue" points="882.71,-180.99 891.47,-175.03 880.91,-174.22 882.71,-180.99"/>
</g>
<!-- Node10 -->
<g id="node10" class="node">
<title>Node10</title>
<g id="a_node10"><a xlink:href="classValidate.html#a3e4b7f61bff7ee9d7d839ead34d2d61f" target="_top" xlink:title="Checks if square is empty.">
<polygon fill="white" stroke="black" points="1414.5,-70.5 1414.5,-89.5 1521.5,-89.5 1521.5,-70.5 1414.5,-70.5"/>
<text text-anchor="middle" x="1468" y="-77.5" font-family="Helvetica,sans-Serif" font-size="10.00">Validate::is_empty</text>
</a>
</g>
</g>
<!-- Node9&#45;&gt;Node10 -->
<g id="edge9" class="edge">
<title>Node9&#45;&gt;Node10</title>
<path fill="none" stroke="midnightblue" d="M1148.08,-128.54C1166.26,-125.11 1187.63,-121.21 1207,-118 1274.09,-106.88 1351.2,-95.83 1403.92,-88.53"/>
<polygon fill="midnightblue" stroke="midnightblue" points="1404.7,-91.96 1414.12,-87.13 1403.74,-85.02 1404.7,-91.96"/>
</g>
<!-- Node11 -->
<g id="node11" class="node">
<title>Node11</title>
<g id="a_node11"><a xlink:href="classValidate.html#ab5ba0f592c1cd28a57deab9ef608f2df" target="_top" xlink:title="Checks if piece is same color as player.">
<polygon fill="white" stroke="black" points="1402,-137.5 1402,-156.5 1534,-156.5 1534,-137.5 1402,-137.5"/>
<text text-anchor="middle" x="1468" y="-144.5" font-family="Helvetica,sans-Serif" font-size="10.00">Validate::is_same_color</text>
</a>
</g>
</g>
<!-- Node9&#45;&gt;Node11 -->
<g id="edge10" class="edge">
<title>Node9&#45;&gt;Node11</title>
<path fill="none" stroke="midnightblue" d="M1146.15,-146.51C1164.67,-150.28 1186.81,-154.14 1207,-156 1269.09,-161.71 1339.82,-158.64 1391.82,-154.61"/>
<polygon fill="midnightblue" stroke="midnightblue" points="1392.27,-158.08 1401.96,-153.79 1391.71,-151.1 1392.27,-158.08"/>
</g>
<!-- Node12 -->
<g id="node12" class="node">
<title>Node12</title>
<g id="a_node12"><a xlink:href="classValidate.html#a50364e1735875d1d74e7eb251b3fd7e5" target="_top" xlink:title="Validates position.">
<polygon fill="white" stroke="black" points="1221,-127.5 1221,-146.5 1352,-146.5 1352,-127.5 1221,-127.5"/>
<text text-anchor="middle" x="1286.5" y="-134.5" font-family="Helvetica,sans-Serif" font-size="10.00">Validate::valid_position</text>
</a>
</g>
</g>
<!-- Node9&#45;&gt;Node12 -->
<g id="edge11" class="edge">
<title>Node9&#45;&gt;Node12</title>
<path fill="none" stroke="midnightblue" d="M1148.32,-137C1167.02,-137 1189.38,-137 1210.57,-137"/>
<polygon fill="midnightblue" stroke="midnightblue" points="1210.86,-140.5 1220.86,-137 1210.86,-133.5 1210.86,-140.5"/>
</g>
<!-- Node13&#45;&gt;Node9 -->
<g id="edge13" class="edge">
<title>Node13&#45;&gt;Node9</title>
<path fill="none" stroke="midnightblue" d="M982.1,-234.48C988.41,-231.98 994.62,-228.87 1000,-225 1021.65,-209.44 1016.21,-194.87 1036,-177 1047.08,-167 1061.02,-158.16 1073.27,-151.36"/>
<polygon fill="midnightblue" stroke="midnightblue" points="1075.07,-154.37 1082.24,-146.56 1071.77,-148.19 1075.07,-154.37"/>
</g>
<!-- Node13&#45;&gt;Node12 -->
<g id="edge25" class="edge">
<title>Node13&#45;&gt;Node12</title>
<path fill="none" stroke="midnightblue" d="M973.24,-234.41C1035.3,-215.05 1175.56,-171.3 1244.99,-149.64"/>
<polygon fill="midnightblue" stroke="midnightblue" points="1246.2,-152.93 1254.7,-146.61 1244.12,-146.24 1246.2,-152.93"/>
</g>
<!-- Node13&#45;&gt;Node14 -->
<g id="edge14" class="edge">
<title>Node13&#45;&gt;Node14</title>
<path fill="none" stroke="midnightblue" d="M962.76,-253.63C990.66,-266.87 1041.05,-290.81 1073.09,-306.03"/>
<polygon fill="midnightblue" stroke="midnightblue" points="1071.87,-309.32 1082.4,-310.45 1074.87,-303 1071.87,-309.32"/>
</g>
<!-- Node13&#45;&gt;Node20 -->
<g id="edge23" class="edge">
<title>Node13&#45;&gt;Node20</title>
<path fill="none" stroke="midnightblue" d="M993.56,-244C1008.2,-244 1024.34,-244 1039.6,-244"/>
<polygon fill="midnightblue" stroke="midnightblue" points="1039.99,-247.5 1049.99,-244 1039.99,-240.5 1039.99,-247.5"/>
</g>
<!-- Node13&#45;&gt;Node21 -->
<g id="edge26" class="edge">
<title>Node13&#45;&gt;Node21</title>
<path fill="none" stroke="midnightblue" d="M986.46,-234.38C991.45,-231.93 996.12,-228.86 1000,-225 1035.57,-189.62 1007.94,-159.6 1036,-118 1047.27,-101.3 1064.68,-86.61 1078.87,-76.34"/>
<polygon fill="midnightblue" stroke="midnightblue" points="1081,-79.12 1087.2,-70.53 1076.99,-73.38 1081,-79.12"/>
</g>
<!-- Node15 -->
<g id="node15" class="node">
<title>Node15</title>
<g id="a_node15"><a xlink:href="classPlayer.html#a42e54e616455af5d9d4b6dea514ba7a0" target="_top" xlink:title="Checks player&#39;s pawn promotion.">
<polygon fill="white" stroke="black" points="1224,-295.5 1224,-314.5 1349,-314.5 1349,-295.5 1224,-295.5"/>
<text text-anchor="middle" x="1286.5" y="-302.5" font-family="Helvetica,sans-Serif" font-size="10.00">Player::get_promotion</text>
</a>
</g>
</g>
<!-- Node14&#45;&gt;Node15 -->
<g id="edge15" class="edge">
<title>Node14&#45;&gt;Node15</title>
<path fill="none" stroke="midnightblue" d="M1158.81,-315.5C1176.11,-314.07 1195.54,-312.46 1213.88,-310.94"/>
<polygon fill="midnightblue" stroke="midnightblue" points="1214.26,-314.42 1223.94,-310.1 1213.68,-307.44 1214.26,-314.42"/>
</g>
<!-- Node16 -->
<g id="node16" class="node">
<title>Node16</title>
<g id="a_node16"><a xlink:href="classMove.html#a5472b83ec6bcde0fd8c16c4508896ccd" target="_top" xlink:title="Handles casting.">
<polygon fill="white" stroke="black" points="1223.5,-257.5 1223.5,-276.5 1349.5,-276.5 1349.5,-257.5 1223.5,-257.5"/>
<text text-anchor="middle" x="1286.5" y="-264.5" font-family="Helvetica,sans-Serif" font-size="10.00">Move::handle_castling</text>
</a>
</g>
</g>
<!-- Node14&#45;&gt;Node16 -->
<g id="edge16" class="edge">
<title>Node14&#45;&gt;Node16</title>
<path fill="none" stroke="midnightblue" d="M1131.29,-310.44C1151.86,-303.26 1181.05,-293.43 1207,-286 1215.52,-283.56 1224.62,-281.17 1233.49,-278.95"/>
<polygon fill="midnightblue" stroke="midnightblue" points="1234.49,-282.3 1243.37,-276.52 1232.82,-275.51 1234.49,-282.3"/>
</g>
<!-- Node17 -->
<g id="node17" class="node">
<title>Node17</title>
<g id="a_node17"><a xlink:href="classMove.html#a5a18864c15112c49e5a93dbee3f83d1c" target="_top" xlink:title="Moves piece from start to end.">
<polygon fill="white" stroke="black" points="1413.5,-295.5 1413.5,-314.5 1522.5,-314.5 1522.5,-295.5 1413.5,-295.5"/>
<text text-anchor="middle" x="1468" y="-302.5" font-family="Helvetica,sans-Serif" font-size="10.00">Move::move_piece</text>
</a>
</g>
</g>
<!-- Node14&#45;&gt;Node17 -->
<g id="edge18" class="edge">
<title>Node14&#45;&gt;Node17</title>
<path fill="none" stroke="midnightblue" d="M1158.72,-324.24C1211.7,-327.58 1294.57,-330.66 1366,-324 1382.32,-322.48 1399.94,-319.6 1415.82,-316.54"/>
<polygon fill="midnightblue" stroke="midnightblue" points="1416.85,-319.9 1425.97,-314.51 1415.48,-313.04 1416.85,-319.9"/>
</g>
<!-- Node18 -->
<g id="node18" class="node">
<title>Node18</title>
<g id="a_node18"><a xlink:href="classMove.html#a9a242db5d52827dd11f81a6aa46e339e" target="_top" xlink:title="Handles pawn promotion.">
<polygon fill="white" stroke="black" points="1236.5,-371.5 1236.5,-390.5 1336.5,-390.5 1336.5,-371.5 1236.5,-371.5"/>
<text text-anchor="middle" x="1286.5" y="-378.5" font-family="Helvetica,sans-Serif" font-size="10.00">Move::promotion</text>
</a>
</g>
</g>
<!-- Node14&#45;&gt;Node18 -->
<g id="edge19" class="edge">
<title>Node14&#45;&gt;Node18</title>
<path fill="none" stroke="midnightblue" d="M1130.07,-329.63C1150.73,-337.32 1180.61,-348.21 1207,-357 1218.72,-360.91 1231.51,-364.92 1243.3,-368.52"/>
<polygon fill="midnightblue" stroke="midnightblue" points="1242.34,-371.88 1252.92,-371.44 1244.37,-365.19 1242.34,-371.88"/>
</g>
<!-- Node19 -->
<g id="node19" class="node">
<title>Node19</title>
<g id="a_node19"><a xlink:href="classPlayer.html#a620bf4cb1907eafdbcd9252a750ffa8f" target="_top" xlink:title="Update piece&#39;s position on chess board.">
<polygon fill="white" stroke="black" points="1406,-390.5 1406,-409.5 1530,-409.5 1530,-390.5 1406,-390.5"/>
<text text-anchor="middle" x="1468" y="-397.5" font-family="Helvetica,sans-Serif" font-size="10.00">Player::update_pieces</text>
</a>
</g>
</g>
<!-- Node14&#45;&gt;Node19 -->
<g id="edge22" class="edge">
<title>Node14&#45;&gt;Node19</title>
<path fill="none" stroke="midnightblue" d="M1112.58,-329.58C1128.46,-347.55 1165.8,-385.83 1207,-400 1272.16,-422.42 1352.07,-418.1 1405.96,-410.96"/>
<polygon fill="midnightblue" stroke="midnightblue" points="1406.62,-414.4 1416.04,-409.55 1405.65,-407.47 1406.62,-414.4"/>
</g>
<!-- Node16&#45;&gt;Node17 -->
<g id="edge17" class="edge">
<title>Node16&#45;&gt;Node17</title>
<path fill="none" stroke="midnightblue" d="M1332.8,-276.59C1356.91,-281.69 1386.75,-288.01 1412.17,-293.39"/>
<polygon fill="midnightblue" stroke="midnightblue" points="1411.52,-296.83 1422.03,-295.48 1412.97,-289.98 1411.52,-296.83"/>
</g>
<!-- Node18&#45;&gt;Node17 -->
<g id="edge20" class="edge">
<title>Node18&#45;&gt;Node17</title>
<path fill="none" stroke="midnightblue" d="M1323.53,-371.45C1337.04,-367.49 1352.4,-362.53 1366,-357 1392.66,-346.16 1421.73,-330.79 1441.81,-319.57"/>
<polygon fill="midnightblue" stroke="midnightblue" points="1443.65,-322.55 1450.63,-314.59 1440.2,-316.46 1443.65,-322.55"/>
</g>
<!-- Node18&#45;&gt;Node19 -->
<g id="edge21" class="edge">
<title>Node18&#45;&gt;Node19</title>
<path fill="none" stroke="midnightblue" d="M1336.55,-386.19C1354.84,-388.13 1376,-390.37 1395.88,-392.47"/>
<polygon fill="midnightblue" stroke="midnightblue" points="1395.51,-395.95 1405.82,-393.52 1396.25,-388.99 1395.51,-395.95"/>
</g>
<!-- Node20&#45;&gt;Node17 -->
<g id="edge24" class="edge">
<title>Node20&#45;&gt;Node17</title>
<path fill="none" stroke="midnightblue" d="M1157.16,-237.3C1210.73,-232.21 1295.66,-228.95 1366,-248 1396.34,-256.22 1427.23,-275.61 1446.72,-289.49"/>
<polygon fill="midnightblue" stroke="midnightblue" points="1444.69,-292.34 1454.83,-295.42 1448.82,-286.69 1444.69,-292.34"/>
</g>
<!-- Node22 -->
<g id="node22" class="node">
<title>Node22</title>
<g id="a_node22"><a xlink:href="classValidate.html#ac11fdbf661a340f903a8a8b581710c34" target="_top" xlink:title="Finds all possible moves for piece.">
<polygon fill="white" stroke="red" points="1207,-51.5 1207,-70.5 1366,-70.5 1366,-51.5 1207,-51.5"/>
<text text-anchor="middle" x="1286.5" y="-58.5" font-family="Helvetica,sans-Serif" font-size="10.00">Validate::find_possible_move</text>
</a>
</g>
</g>
<!-- Node21&#45;&gt;Node22 -->
<g id="edge27" class="edge">
<title>Node21&#45;&gt;Node22</title>
<path fill="none" stroke="midnightblue" d="M1171.13,-61C1179.46,-61 1188.08,-61 1196.68,-61"/>
<polygon fill="midnightblue" stroke="midnightblue" points="1196.75,-64.5 1206.75,-61 1196.75,-57.5 1196.75,-64.5"/>
</g>
<!-- Node24 -->
<g id="node23" class="node">
<title>Node24</title>
<g id="a_node23"><a xlink:href="classValidate.html#a6c88b44fd5d40b6aba0812e2d23d8f04" target="_top" xlink:title="Checks if castling is valid.">
<polygon fill="white" stroke="black" points="1221.5,-13.5 1221.5,-32.5 1351.5,-32.5 1351.5,-13.5 1221.5,-13.5"/>
<text text-anchor="middle" x="1286.5" y="-20.5" font-family="Helvetica,sans-Serif" font-size="10.00">Validate::valid_castling</text>
</a>
</g>
</g>
<!-- Node21&#45;&gt;Node24 -->
<g id="edge30" class="edge">
<title>Node21&#45;&gt;Node24</title>
<path fill="none" stroke="midnightblue" d="M1150.17,-51.41C1174.49,-46.31 1204.58,-39.99 1230.21,-34.61"/>
<polygon fill="midnightblue" stroke="midnightblue" points="1231.09,-38 1240.15,-32.52 1229.65,-31.15 1231.09,-38"/>
</g>
<!-- Node22&#45;&gt;Node10 -->
<g id="edge28" class="edge">
<title>Node22&#45;&gt;Node10</title>
<path fill="none" stroke="midnightblue" d="M1366.23,-69.33C1378.96,-70.68 1391.99,-72.06 1404.28,-73.36"/>
<polygon fill="midnightblue" stroke="midnightblue" points="1404.09,-76.86 1414.4,-74.43 1404.83,-69.9 1404.09,-76.86"/>
</g>
<!-- Node22&#45;&gt;Node11 -->
<g id="edge29" class="edge">
<title>Node22&#45;&gt;Node11</title>
<path fill="none" stroke="midnightblue" d="M1307.4,-70.53C1339.07,-85.71 1401.12,-115.44 1437.82,-133.02"/>
<polygon fill="midnightblue" stroke="midnightblue" points="1436.48,-136.26 1447.02,-137.43 1439.51,-129.95 1436.48,-136.26"/>
</g>
<!-- Node32&#45;&gt;Node4 -->
<g id="edge42" class="edge">
<title>Node32&#45;&gt;Node4</title>
<path fill="none" stroke="midnightblue" d="M605.33,-384.53C628.32,-395.17 667.01,-412.65 701,-426 706.52,-428.17 712.32,-430.35 718.13,-432.46"/>
<polygon fill="midnightblue" stroke="midnightblue" points="717.27,-435.87 727.86,-435.95 719.63,-429.28 717.27,-435.87"/>
</g>
<!-- Node33 -->
<g id="node32" class="node">
<title>Node33</title>
<g id="a_node32"><a xlink:href="classFEN.html#a42da90e2b44ecb011e7ec0d86015dffd" target="_top" xlink:title="Gets FEN notation.">
<polygon fill="white" stroke="black" points="732.5,-348.5 732.5,-367.5 815.5,-367.5 815.5,-348.5 732.5,-348.5"/>
<text text-anchor="middle" x="774" y="-355.5" font-family="Helvetica,sans-Serif" font-size="10.00">FEN::get_FEN</text>
</a>
</g>
</g>
<!-- Node32&#45;&gt;Node33 -->
<g id="edge43" class="edge">
<title>Node32&#45;&gt;Node33</title>
<path fill="none" stroke="midnightblue" d="M650.23,-369.1C673.75,-366.97 699.95,-364.61 722.07,-362.61"/>
<polygon fill="midnightblue" stroke="midnightblue" points="722.61,-366.07 732.25,-361.68 721.98,-359.1 722.61,-366.07"/>
</g>
<!-- Node32&#45;&gt;Node39 -->
<g id="edge46" class="edge">
<title>Node32&#45;&gt;Node39</title>
<path fill="none" stroke="midnightblue" d="M650.23,-384.37C670.18,-387.23 692.06,-390.38 711.74,-393.2"/>
<polygon fill="midnightblue" stroke="midnightblue" points="711.42,-396.69 721.82,-394.65 712.41,-389.76 711.42,-396.69"/>
</g>
<!-- Node34 -->
<g id="node33" class="node">
<title>Node34</title>
<g id="a_node33"><a xlink:href="classInput__handler.html#a7987d8ac8708c84676dd60936341bd8c" target="_top" xlink:title="Converts int to char.">
<polygon fill="white" stroke="black" points="890.5,-387 890.5,-417 992.5,-417 992.5,-387 890.5,-387"/>
<text text-anchor="start" x="898.5" y="-405" font-family="Helvetica,sans-Serif" font-size="10.00">Input_handler::int</text>
<text text-anchor="middle" x="941.5" y="-394" font-family="Helvetica,sans-Serif" font-size="10.00">_to_coordinates</text>
</a>
</g>
</g>
<!-- Node33&#45;&gt;Node34 -->
<g id="edge44" class="edge">
<title>Node33&#45;&gt;Node34</title>
<path fill="none" stroke="midnightblue" d="M811.27,-367.55C822.7,-370.56 835.38,-373.91 847,-377 857.69,-379.84 869.07,-382.87 880.07,-385.81"/>
<polygon fill="midnightblue" stroke="midnightblue" points="879.48,-389.28 890.04,-388.48 881.29,-382.51 879.48,-389.28"/>
</g>
<!-- Node35 -->
<g id="node34" class="node">
<title>Node35</title>
<g id="a_node34"><a xlink:href="classFEN.html#aa59029cbcd63802d3dddd5523f3702e9" target="_top" xlink:title="Save piece.">
<polygon fill="white" stroke="red" points="890.5,-348.5 890.5,-367.5 992.5,-367.5 992.5,-348.5 890.5,-348.5"/>
<text text-anchor="middle" x="941.5" y="-355.5" font-family="Helvetica,sans-Serif" font-size="10.00">FEN::save_pieces</text>
</a>
</g>
</g>
<!-- Node33&#45;&gt;Node35 -->
<g id="edge45" class="edge">
<title>Node33&#45;&gt;Node35</title>
<path fill="none" stroke="midnightblue" d="M815.91,-358C835.24,-358 858.71,-358 880.04,-358"/>
<polygon fill="midnightblue" stroke="midnightblue" points="880.31,-361.5 890.31,-358 880.31,-354.5 880.31,-361.5"/>
</g>
<!-- Node41 -->
<g id="node37" class="node">
<title>Node41</title>
<g id="a_node37"><a xlink:href="classRules.html#ac508b22d87dddf5225cf154785618413" target="_top" xlink:title="Check if stalemate occurs.">
<polygon fill="white" stroke="black" points="892,-70.5 892,-89.5 991,-89.5 991,-70.5 892,-70.5"/>
<text text-anchor="middle" x="941.5" y="-77.5" font-family="Helvetica,sans-Serif" font-size="10.00">Rules::stalemate</text>
</a>
</g>
</g>
<!-- Node40&#45;&gt;Node41 -->
<g id="edge48" class="edge">
<title>Node40&#45;&gt;Node41</title>
<path fill="none" stroke="midnightblue" d="M813.39,-111.49C836.8,-105.69 866.94,-98.22 892,-92.01"/>
<polygon fill="midnightblue" stroke="midnightblue" points="893.17,-95.33 902.04,-89.53 891.49,-88.54 893.17,-95.33"/>
</g>
<!-- Node41&#45;&gt;Node9 -->
<g id="edge49" class="edge">
<title>Node41&#45;&gt;Node9</title>
<path fill="none" stroke="midnightblue" d="M969.28,-89.54C995.82,-98.99 1036.65,-113.54 1066.11,-124.04"/>
<polygon fill="midnightblue" stroke="midnightblue" points="1065.04,-127.37 1075.63,-127.43 1067.39,-120.78 1065.04,-127.37"/>
</g>
<!-- Node41&#45;&gt;Node12 -->
<g id="edge50" class="edge">
<title>Node41&#45;&gt;Node12</title>
<path fill="none" stroke="midnightblue" d="M991.28,-88.11C1050.74,-97.99 1151.54,-114.74 1218.31,-125.83"/>
<polygon fill="midnightblue" stroke="midnightblue" points="1217.88,-129.31 1228.31,-127.5 1219.02,-122.4 1217.88,-129.31"/>
</g>
<!-- Node41&#45;&gt;Node21 -->
<g id="edge51" class="edge">
<title>Node41&#45;&gt;Node21</title>
<path fill="none" stroke="midnightblue" d="M991.37,-74.2C1002.25,-72.9 1014.03,-71.51 1025.73,-70.12"/>
<polygon fill="midnightblue" stroke="midnightblue" points="1026.43,-73.56 1035.95,-68.9 1025.61,-66.61 1026.43,-73.56"/>
</g>
<!-- Node45 -->
<g id="node41" class="node">
<title>Node45</title>
<g id="a_node41"><a xlink:href="classFEN.html#a39f6253f19ae04797561c9fea3342cb7" target="_top" xlink:title="Reads FEN notation.">
<polygon fill="white" stroke="black" points="539.5,-523.5 539.5,-542.5 628.5,-542.5 628.5,-523.5 539.5,-523.5"/>
<text text-anchor="middle" x="584" y="-530.5" font-family="Helvetica,sans-Serif" font-size="10.00">FEN::read_FEN</text>
</a>
</g>
</g>
<!-- Node44&#45;&gt;Node45 -->
<g id="edge56" class="edge">
<title>Node44&#45;&gt;Node45</title>
<path fill="none" stroke="midnightblue" d="M467.03,-518.94C487.52,-521.43 509.88,-524.14 529.44,-526.51"/>
<polygon fill="midnightblue" stroke="midnightblue" points="529.05,-529.99 539.4,-527.71 529.89,-523.04 529.05,-529.99"/>
</g>
<!-- Node46 -->
<g id="node42" class="node">
<title>Node46</title>
<g id="a_node42"><a xlink:href="classInput__handler.html#aeee21ed8a9cdd37b4f39c530e7d2ca15" target="_top" xlink:title="Checks if char is &lt;0, 8&gt;">
<polygon fill="white" stroke="black" points="705.5,-485.5 705.5,-504.5 842.5,-504.5 842.5,-485.5 705.5,-485.5"/>
<text text-anchor="middle" x="774" y="-492.5" font-family="Helvetica,sans-Serif" font-size="10.00">Input_handler::check_col</text>
</a>
</g>
</g>
<!-- Node45&#45;&gt;Node46 -->
<g id="edge57" class="edge">
<title>Node45&#45;&gt;Node46</title>
<path fill="none" stroke="midnightblue" d="M628.6,-524.19C654.49,-518.95 687.63,-512.26 715.62,-506.6"/>
<polygon fill="midnightblue" stroke="midnightblue" points="716.57,-509.98 725.68,-504.56 715.19,-503.12 716.57,-509.98"/>
</g>
<!-- Node47 -->
<g id="node43" class="node">
<title>Node47</title>
<g id="a_node43"><a xlink:href="classInput__handler.html#ae6cc6114be79e000f8a6f7156198e0f4" target="_top" xlink:title="Converts char to int.">
<polygon fill="white" stroke="black" points="701,-600 701,-630 847,-630 847,-600 701,-600"/>
<text text-anchor="start" x="709" y="-618" font-family="Helvetica,sans-Serif" font-size="10.00">Input_handler::coordinates</text>
<text text-anchor="middle" x="774" y="-607" font-family="Helvetica,sans-Serif" font-size="10.00">_to_int</text>
</a>
</g>
</g>
<!-- Node45&#45;&gt;Node47 -->
<g id="edge58" class="edge">
<title>Node45&#45;&gt;Node47</title>
<path fill="none" stroke="midnightblue" d="M602.77,-542.58C625.26,-554.51 665.38,-575.13 701,-590 706.32,-592.22 711.91,-594.41 717.53,-596.51"/>
<polygon fill="midnightblue" stroke="midnightblue" points="716.38,-599.82 726.98,-599.96 718.78,-593.24 716.38,-599.82"/>
</g>
<!-- Node48 -->
<g id="node44" class="node">
<title>Node48</title>
<g id="a_node44"><a xlink:href="classFEN.html#ad13a4a36c9bebfaf47e275bfe1ee9084" target="_top" xlink:title="Corrects FEN pieces.">
<polygon fill="white" stroke="black" points="705.5,-561.5 705.5,-580.5 842.5,-580.5 842.5,-561.5 705.5,-561.5"/>
<text text-anchor="middle" x="774" y="-568.5" font-family="Helvetica,sans-Serif" font-size="10.00">FEN::correct_FEN_pieces</text>
</a>
</g>
</g>
<!-- Node45&#45;&gt;Node48 -->
<g id="edge59" class="edge">
<title>Node45&#45;&gt;Node48</title>
<path fill="none" stroke="midnightblue" d="M628.6,-541.81C654.49,-547.05 687.63,-553.74 715.62,-559.4"/>
<polygon fill="midnightblue" stroke="midnightblue" points="715.19,-562.88 725.68,-561.44 716.57,-556.02 715.19,-562.88"/>
</g>
<!-- Node49 -->
<g id="node45" class="node">
<title>Node49</title>
<g id="a_node45"><a xlink:href="classFEN.html#a4ce3e20e91398d07dc96524af182e034" target="_top" xlink:title="Fills chess pieces into board.">
<polygon fill="white" stroke="black" points="728.5,-523.5 728.5,-542.5 819.5,-542.5 819.5,-523.5 728.5,-523.5"/>
<text text-anchor="middle" x="774" y="-530.5" font-family="Helvetica,sans-Serif" font-size="10.00">FEN::fill_pieces</text>
</a>
</g>
</g>
<!-- Node45&#45;&gt;Node49 -->
<g id="edge60" class="edge">
<title>Node45&#45;&gt;Node49</title>
<path fill="none" stroke="midnightblue" d="M628.6,-533C655.27,-533 689.61,-533 718.12,-533"/>
<polygon fill="midnightblue" stroke="midnightblue" points="718.33,-536.5 728.33,-533 718.33,-529.5 718.33,-536.5"/>
</g>
<!-- Node50 -->
<g id="node46" class="node">
<title>Node50</title>
<g id="a_node46"><a xlink:href="classFEN.html#addf59b1321695a3fe9c8588df468954a" target="_top" xlink:title="Place pieces on chess board.">
<polygon fill="white" stroke="black" points="883,-518 883,-548 1000,-548 1000,-518 883,-518"/>
<text text-anchor="start" x="891" y="-536" font-family="Helvetica,sans-Serif" font-size="10.00">FEN::place_piece_on</text>
<text text-anchor="middle" x="941.5" y="-525" font-family="Helvetica,sans-Serif" font-size="10.00">_board</text>
</a>
</g>
</g>
<!-- Node49&#45;&gt;Node50 -->
<g id="edge61" class="edge">
<title>Node49&#45;&gt;Node50</title>
<path fill="none" stroke="midnightblue" d="M819.79,-533C836.03,-533 854.77,-533 872.56,-533"/>
<polygon fill="midnightblue" stroke="midnightblue" points="872.9,-536.5 882.9,-533 872.9,-529.5 872.9,-536.5"/>
</g>
<!-- Node52&#45;&gt;Node5 -->
<g id="edge64" class="edge">
<title>Node52&#45;&gt;Node5</title>
<path fill="none" stroke="midnightblue" d="M298.31,-293C311.69,-293 325.9,-293 339.31,-293"/>
<polygon fill="midnightblue" stroke="midnightblue" points="339.39,-296.5 349.39,-293 339.39,-289.5 339.39,-296.5"/>
</g>
<!-- Node52&#45;&gt;Node6 -->
<g id="edge65" class="edge">
<title>Node52&#45;&gt;Node6</title>
<path fill="none" stroke="midnightblue" d="M279.5,-283.41C300.68,-278.4 326.8,-272.21 349.26,-266.89"/>
<polygon fill="midnightblue" stroke="midnightblue" points="350.37,-270.23 359.29,-264.52 348.75,-263.42 350.37,-270.23"/>
</g>
<!-- Node53 -->
<g id="node49" class="node">
<title>Node53</title>
<g id="a_node49"><a xlink:href="classBoard.html#aba53aef1597d5a8ed4c8895e86267e26" target="_top" xlink:title=" ">
<polygon fill="white" stroke="black" points="350.5,-207.5 350.5,-226.5 450.5,-226.5 450.5,-207.5 350.5,-207.5"/>
<text text-anchor="middle" x="400.5" y="-214.5" font-family="Helvetica,sans-Serif" font-size="10.00">Board::init_board</text>
</a>
</g>
</g>
<!-- Node52&#45;&gt;Node53 -->
<g id="edge66" class="edge">
<title>Node52&#45;&gt;Node53</title>
<path fill="none" stroke="midnightblue" d="M278.33,-283.39C285.16,-280.88 291.99,-277.78 298,-274 317.69,-261.6 314.13,-248.11 334,-236 337.43,-233.91 341.1,-232.04 344.88,-230.37"/>
<polygon fill="midnightblue" stroke="midnightblue" points="346.43,-233.52 354.46,-226.61 343.88,-227.01 346.43,-233.52"/>
</g>
<!-- Node54&#45;&gt;Node5 -->
<g id="edge68" class="edge">
<title>Node54&#45;&gt;Node5</title>
<path fill="none" stroke="midnightblue" d="M279.5,-264.59C300.68,-269.6 326.8,-275.79 349.26,-281.11"/>
<polygon fill="midnightblue" stroke="midnightblue" points="348.75,-284.58 359.29,-283.48 350.37,-277.77 348.75,-284.58"/>
</g>
<!-- Node54&#45;&gt;Node6 -->
<g id="edge69" class="edge">
<title>Node54&#45;&gt;Node6</title>
<path fill="none" stroke="midnightblue" d="M290.67,-255C305.7,-255 322.28,-255 337.86,-255"/>
<polygon fill="midnightblue" stroke="midnightblue" points="337.93,-258.5 347.93,-255 337.93,-251.5 337.93,-258.5"/>
</g>
<!-- Node54&#45;&gt;Node53 -->
<g id="edge70" class="edge">
<title>Node54&#45;&gt;Node53</title>
<path fill="none" stroke="midnightblue" d="M279.5,-245.41C300.68,-240.4 326.8,-234.21 349.26,-228.89"/>
<polygon fill="midnightblue" stroke="midnightblue" points="350.37,-232.23 359.29,-226.52 348.75,-225.42 350.37,-232.23"/>
</g>
</g>
</svg>
