<?xml version="1.0" encoding="UTF-8" standalone="no"?>
<!DOCTYPE svg PUBLIC "-//W3C//DTD SVG 1.1//EN"
 "http://www.w3.org/Graphics/SVG/1.1/DTD/svg11.dtd">
<!-- Generated by graphviz version 2.43.0 (0)
 -->
<!-- Title: src/main.cpp Pages: 1 -->
<svg width="1108pt" height="644pt"
 viewBox="0.00 0.00 1107.50 644.00" xmlns="http://www.w3.org/2000/svg" xmlns:xlink="http://www.w3.org/1999/xlink">
<g id="graph0" class="graph" transform="scale(1 1) rotate(0) translate(4 640)">
<title>src/main.cpp</title>
<polygon fill="white" stroke="transparent" points="-4,4 -4,-640 1103.5,-640 1103.5,4 -4,4"/>
<!-- Node1 -->
<g id="node1" class="node">
<title>Node1</title>
<g id="a_node1"><a xlink:title=" ">
<polygon fill="#bfbfbf" stroke="black" points="966.5,-616.5 966.5,-635.5 1045.5,-635.5 1045.5,-616.5 966.5,-616.5"/>
<text text-anchor="middle" x="1006" y="-623.5" font-family="Helvetica,sans-Serif" font-size="10.00">src/main.cpp</text>
</a>
</g>
</g>
<!-- Node2 -->
<g id="node2" class="node">
<title>Node2</title>
<g id="a_node2"><a xlink:title=" ">
<polygon fill="white" stroke="#bfbfbf" points="298,-0.5 298,-19.5 358,-19.5 358,-0.5 298,-0.5"/>
<text text-anchor="middle" x="328" y="-7.5" font-family="Helvetica,sans-Serif" font-size="10.00">iostream</text>
</a>
</g>
</g>
<!-- Node1&#45;&gt;Node2 -->
<g id="edge1" class="edge">
<title>Node1&#45;&gt;Node2</title>
<path fill="none" stroke="midnightblue" d="M1006,-616.44C1006,-597.94 1006,-552.81 1006,-515 1006,-515 1006,-515 1006,-121 1006,-84 986.75,-73.21 954,-56 902.34,-28.85 498.77,-15.63 368.44,-12.03"/>
<polygon fill="midnightblue" stroke="midnightblue" points="368.2,-8.53 358.11,-11.75 368.01,-15.52 368.2,-8.53"/>
</g>
<!-- Node3 -->
<g id="node3" class="node">
<title>Node3</title>
<g id="a_node3"><a xlink:title=" ">
<polygon fill="white" stroke="#bfbfbf" points="1034.5,-560.5 1034.5,-579.5 1099.5,-579.5 1099.5,-560.5 1034.5,-560.5"/>
<text text-anchor="middle" x="1067" y="-567.5" font-family="Helvetica,sans-Serif" font-size="10.00">exception</text>
</a>
</g>
</g>
<!-- Node1&#45;&gt;Node3 -->
<g id="edge2" class="edge">
<title>Node1&#45;&gt;Node3</title>
<path fill="none" stroke="midnightblue" d="M1015.8,-616.32C1024.82,-608.34 1038.41,-596.31 1049.32,-586.65"/>
<polygon fill="midnightblue" stroke="midnightblue" points="1051.85,-589.08 1057.02,-579.83 1047.21,-583.84 1051.85,-589.08"/>
</g>
<!-- Node4 -->
<g id="node4" class="node">
<title>Node4</title>
<g id="a_node4"><a xlink:href="menu_8h.html" target="_top" xlink:title=" ">
<polygon fill="white" stroke="black" points="833.5,-560.5 833.5,-579.5 886.5,-579.5 886.5,-560.5 833.5,-560.5"/>
<text text-anchor="middle" x="860" y="-567.5" font-family="Helvetica,sans-Serif" font-size="10.00">menu.h</text>
</a>
</g>
</g>
<!-- Node1&#45;&gt;Node4 -->
<g id="edge3" class="edge">
<title>Node1&#45;&gt;Node4</title>
<path fill="none" stroke="midnightblue" d="M982.87,-616.44C958.52,-607.44 919.99,-593.19 892.58,-583.05"/>
<polygon fill="midnightblue" stroke="midnightblue" points="893.62,-579.7 883.03,-579.52 891.19,-586.27 893.62,-579.7"/>
</g>
<!-- Node4&#45;&gt;Node2 -->
<g id="edge4" class="edge">
<title>Node4&#45;&gt;Node2</title>
<path fill="none" stroke="midnightblue" d="M878.81,-560.49C909.75,-545.05 968,-509.31 968,-459 968,-459 968,-459 968,-121 968,-87.08 956.97,-73.64 928,-56 880.38,-27 494.88,-15.07 368.19,-11.91"/>
<polygon fill="midnightblue" stroke="midnightblue" points="368.21,-8.41 358.13,-11.67 368.04,-15.41 368.21,-8.41"/>
</g>
<!-- Node5 -->
<g id="node5" class="node">
<title>Node5</title>
<g id="a_node5"><a xlink:href="application_8h.html" target="_top" xlink:title=" ">
<polygon fill="white" stroke="black" points="506,-448.5 506,-467.5 586,-467.5 586,-448.5 506,-448.5"/>
<text text-anchor="middle" x="546" y="-455.5" font-family="Helvetica,sans-Serif" font-size="10.00">application.h</text>
</a>
</g>
</g>
<!-- Node4&#45;&gt;Node5 -->
<g id="edge5" class="edge">
<title>Node4&#45;&gt;Node5</title>
<path fill="none" stroke="midnightblue" d="M834.86,-560.45C808.47,-551.46 765.78,-536.85 729,-524 676.78,-505.76 616.32,-484.2 579.64,-471.07"/>
<polygon fill="midnightblue" stroke="midnightblue" points="580.55,-467.67 569.95,-467.6 578.19,-474.26 580.55,-467.67"/>
</g>
<!-- Node22 -->
<g id="node22" class="node">
<title>Node22</title>
<g id="a_node22"><a xlink:href="tutorial_8h.html" target="_top" xlink:title=" ">
<polygon fill="white" stroke="black" points="737.5,-504.5 737.5,-523.5 798.5,-523.5 798.5,-504.5 737.5,-504.5"/>
<text text-anchor="middle" x="768" y="-511.5" font-family="Helvetica,sans-Serif" font-size="10.00">tutorial.h</text>
</a>
</g>
</g>
<!-- Node4&#45;&gt;Node22 -->
<g id="edge47" class="edge">
<title>Node4&#45;&gt;Node22</title>
<path fill="none" stroke="midnightblue" d="M845.22,-560.32C830.73,-551.82 808.43,-538.73 791.51,-528.8"/>
<polygon fill="midnightblue" stroke="midnightblue" points="793.14,-525.7 782.74,-523.65 789.6,-531.74 793.14,-525.7"/>
</g>
<!-- Node5&#45;&gt;Node2 -->
<g id="edge6" class="edge">
<title>Node5&#45;&gt;Node2</title>
<path fill="none" stroke="midnightblue" d="M505.85,-457.45C379.76,-457.78 0,-450.22 0,-347 0,-347 0,-347 0,-121 0,-82.87 22.75,-74.67 56,-56 95.02,-34.08 222.16,-20.17 287.87,-14.27"/>
<polygon fill="midnightblue" stroke="midnightblue" points="288.21,-17.75 297.87,-13.39 287.6,-10.78 288.21,-17.75"/>
</g>
<!-- Node6 -->
<g id="node6" class="node">
<title>Node6</title>
<g id="a_node6"><a xlink:href="rules_8h.html" target="_top" xlink:title=" ">
<polygon fill="white" stroke="black" points="449,-392.5 449,-411.5 499,-411.5 499,-392.5 449,-392.5"/>
<text text-anchor="middle" x="474" y="-399.5" font-family="Helvetica,sans-Serif" font-size="10.00">rules.h</text>
</a>
</g>
</g>
<!-- Node5&#45;&gt;Node6 -->
<g id="edge7" class="edge">
<title>Node5&#45;&gt;Node6</title>
<path fill="none" stroke="midnightblue" d="M534.43,-448.32C523.58,-440.18 507.12,-427.84 494.12,-418.09"/>
<polygon fill="midnightblue" stroke="midnightblue" points="495.88,-415.03 485.78,-411.83 491.68,-420.63 495.88,-415.03"/>
</g>
<!-- Node20 -->
<g id="node20" class="node">
<title>Node20</title>
<g id="a_node20"><a xlink:href="move_8h.html" target="_top" xlink:title=" ">
<polygon fill="white" stroke="black" points="449.5,-336.5 449.5,-355.5 502.5,-355.5 502.5,-336.5 449.5,-336.5"/>
<text text-anchor="middle" x="476" y="-343.5" font-family="Helvetica,sans-Serif" font-size="10.00">move.h</text>
</a>
</g>
</g>
<!-- Node5&#45;&gt;Node20 -->
<g id="edge41" class="edge">
<title>Node5&#45;&gt;Node20</title>
<path fill="none" stroke="midnightblue" d="M541.32,-448.44C534.37,-435.87 520.77,-411.76 508,-392 501.89,-382.54 494.64,-372.28 488.6,-363.95"/>
<polygon fill="midnightblue" stroke="midnightblue" points="491.35,-361.79 482.61,-355.8 485.71,-365.94 491.35,-361.79"/>
</g>
<!-- Node21 -->
<g id="node21" class="node">
<title>Node21</title>
<g id="a_node21"><a xlink:href="game__rules_8h.html" target="_top" xlink:title=" ">
<polygon fill="white" stroke="black" points="523.5,-336.5 523.5,-355.5 606.5,-355.5 606.5,-336.5 523.5,-336.5"/>
<text text-anchor="middle" x="565" y="-343.5" font-family="Helvetica,sans-Serif" font-size="10.00">game_rules.h</text>
</a>
</g>
</g>
<!-- Node5&#45;&gt;Node21 -->
<g id="edge42" class="edge">
<title>Node5&#45;&gt;Node21</title>
<path fill="none" stroke="midnightblue" d="M547.49,-448.37C550.56,-430.62 557.63,-389.67 561.79,-365.6"/>
<polygon fill="midnightblue" stroke="midnightblue" points="565.26,-366.04 563.52,-355.59 558.36,-364.85 565.26,-366.04"/>
</g>
<!-- Node6&#45;&gt;Node2 -->
<g id="edge8" class="edge">
<title>Node6&#45;&gt;Node2</title>
<path fill="none" stroke="midnightblue" d="M448.99,-400.11C356.35,-396.17 38,-376.39 38,-291 38,-291 38,-291 38,-121 38,-83.72 58.98,-75.07 91,-56 152.64,-19.28 237.92,-11.56 287.59,-10.46"/>
<polygon fill="midnightblue" stroke="midnightblue" points="287.68,-13.96 297.63,-10.32 287.58,-6.96 287.68,-13.96"/>
</g>
<!-- Node7 -->
<g id="node7" class="node">
<title>Node7</title>
<g id="a_node7"><a xlink:href="board_8h.html" target="_top" xlink:title=" ">
<polygon fill="white" stroke="black" points="449.5,-224.5 449.5,-243.5 502.5,-243.5 502.5,-224.5 449.5,-224.5"/>
<text text-anchor="middle" x="476" y="-231.5" font-family="Helvetica,sans-Serif" font-size="10.00">board.h</text>
</a>
</g>
</g>
<!-- Node6&#45;&gt;Node7 -->
<g id="edge9" class="edge">
<title>Node6&#45;&gt;Node7</title>
<path fill="none" stroke="midnightblue" d="M464.71,-392.39C456.42,-384.02 444.86,-370.48 440,-356 427.69,-319.29 449.51,-275.62 464.22,-252.08"/>
<polygon fill="midnightblue" stroke="midnightblue" points="467.25,-253.86 469.79,-243.57 461.39,-250.03 467.25,-253.86"/>
</g>
<!-- Node19 -->
<g id="node19" class="node">
<title>Node19</title>
<g id="a_node19"><a xlink:href="player_8h.html" target="_top" xlink:title=" ">
<polygon fill="white" stroke="black" points="608,-280.5 608,-299.5 664,-299.5 664,-280.5 608,-280.5"/>
<text text-anchor="middle" x="636" y="-287.5" font-family="Helvetica,sans-Serif" font-size="10.00">player.h</text>
</a>
</g>
</g>
<!-- Node6&#45;&gt;Node19 -->
<g id="edge33" class="edge">
<title>Node6&#45;&gt;Node19</title>
<path fill="none" stroke="midnightblue" d="M499.17,-399.89C530.72,-397.15 584.5,-387.77 616,-356 628.07,-343.83 632.88,-324.56 634.79,-310.15"/>
<polygon fill="midnightblue" stroke="midnightblue" points="638.3,-310.16 635.77,-299.87 631.33,-309.49 638.3,-310.16"/>
</g>
<!-- Node6&#45;&gt;Node20 -->
<g id="edge37" class="edge">
<title>Node6&#45;&gt;Node20</title>
<path fill="none" stroke="midnightblue" d="M474.33,-392.08C474.59,-385.01 474.97,-374.86 475.3,-365.99"/>
<polygon fill="midnightblue" stroke="midnightblue" points="478.8,-365.87 475.68,-355.75 471.81,-365.61 478.8,-365.87"/>
</g>
<!-- Node7&#45;&gt;Node2 -->
<g id="edge10" class="edge">
<title>Node7&#45;&gt;Node2</title>
<path fill="none" stroke="midnightblue" d="M449.17,-232.73C387.2,-231.47 237.02,-224.62 206,-188 158.05,-131.4 258.09,-56 305.23,-25.11"/>
<polygon fill="midnightblue" stroke="midnightblue" points="307.37,-27.89 313.89,-19.54 303.59,-22 307.37,-27.89"/>
</g>
<!-- Node8 -->
<g id="node8" class="node">
<title>Node8</title>
<g id="a_node8"><a xlink:title=" ">
<polygon fill="white" stroke="#bfbfbf" points="735.5,-56.5 735.5,-75.5 782.5,-75.5 782.5,-56.5 735.5,-56.5"/>
<text text-anchor="middle" x="759" y="-63.5" font-family="Helvetica,sans-Serif" font-size="10.00">vector</text>
</a>
</g>
</g>
<!-- Node7&#45;&gt;Node8 -->
<g id="edge11" class="edge">
<title>Node7&#45;&gt;Node8</title>
<path fill="none" stroke="midnightblue" d="M502.66,-231.51C559.25,-227.83 688.85,-216.43 721,-188 750.73,-161.71 757.43,-112.45 758.8,-85.61"/>
<polygon fill="midnightblue" stroke="midnightblue" points="762.3,-85.71 759.11,-75.61 755.3,-85.49 762.3,-85.71"/>
</g>
<!-- Node9 -->
<g id="node9" class="node">
<title>Node9</title>
<g id="a_node9"><a xlink:href="square_8h.html" target="_top" xlink:title=" ">
<polygon fill="white" stroke="black" points="227.5,-168.5 227.5,-187.5 286.5,-187.5 286.5,-168.5 227.5,-168.5"/>
<text text-anchor="middle" x="257" y="-175.5" font-family="Helvetica,sans-Serif" font-size="10.00">square.h</text>
</a>
</g>
</g>
<!-- Node7&#45;&gt;Node9 -->
<g id="edge12" class="edge">
<title>Node7&#45;&gt;Node9</title>
<path fill="none" stroke="midnightblue" d="M449.15,-226.38C410.89,-216.95 340.47,-199.58 296.33,-188.7"/>
<polygon fill="midnightblue" stroke="midnightblue" points="297.07,-185.28 286.52,-186.28 295.39,-192.07 297.07,-185.28"/>
</g>
<!-- Node12 -->
<g id="node12" class="node">
<title>Node12</title>
<g id="a_node12"><a xlink:href="position_8h.html" target="_top" xlink:title=" ">
<polygon fill="white" stroke="black" points="295.5,-56.5 295.5,-75.5 360.5,-75.5 360.5,-56.5 295.5,-56.5"/>
<text text-anchor="middle" x="328" y="-63.5" font-family="Helvetica,sans-Serif" font-size="10.00">position.h</text>
</a>
</g>
</g>
<!-- Node7&#45;&gt;Node12 -->
<g id="edge20" class="edge">
<title>Node7&#45;&gt;Node12</title>
<path fill="none" stroke="midnightblue" d="M449.46,-232.5C389.68,-230.77 247.4,-222.98 218,-188 184.03,-147.59 257.44,-102.05 300.16,-80.15"/>
<polygon fill="midnightblue" stroke="midnightblue" points="301.89,-83.2 309.27,-75.6 298.76,-76.94 301.89,-83.2"/>
</g>
<!-- Node13 -->
<g id="node13" class="node">
<title>Node13</title>
<g id="a_node13"><a xlink:href="pawn_8h.html" target="_top" xlink:title=" ">
<polygon fill="white" stroke="black" points="520,-168.5 520,-187.5 572,-187.5 572,-168.5 520,-168.5"/>
<text text-anchor="middle" x="546" y="-175.5" font-family="Helvetica,sans-Serif" font-size="10.00">pawn.h</text>
</a>
</g>
</g>
<!-- Node7&#45;&gt;Node13 -->
<g id="edge21" class="edge">
<title>Node7&#45;&gt;Node13</title>
<path fill="none" stroke="midnightblue" d="M487.25,-224.32C497.8,-216.18 513.8,-203.84 526.44,-194.09"/>
<polygon fill="midnightblue" stroke="midnightblue" points="528.77,-196.71 534.55,-187.83 524.49,-191.17 528.77,-196.71"/>
</g>
<!-- Node14 -->
<g id="node14" class="node">
<title>Node14</title>
<g id="a_node14"><a xlink:href="queen_8h.html" target="_top" xlink:title=" ">
<polygon fill="white" stroke="black" points="590,-168.5 590,-187.5 646,-187.5 646,-168.5 590,-168.5"/>
<text text-anchor="middle" x="618" y="-175.5" font-family="Helvetica,sans-Serif" font-size="10.00">queen.h</text>
</a>
</g>
</g>
<!-- Node7&#45;&gt;Node14 -->
<g id="edge23" class="edge">
<title>Node7&#45;&gt;Node14</title>
<path fill="none" stroke="midnightblue" d="M498.5,-224.44C522.08,-215.48 559.32,-201.31 585.96,-191.18"/>
<polygon fill="midnightblue" stroke="midnightblue" points="587.5,-194.34 595.6,-187.52 585.01,-187.8 587.5,-194.34"/>
</g>
<!-- Node15 -->
<g id="node15" class="node">
<title>Node15</title>
<g id="a_node15"><a xlink:href="king_8h.html" target="_top" xlink:title=" ">
<polygon fill="white" stroke="black" points="664.5,-168.5 664.5,-187.5 711.5,-187.5 711.5,-168.5 664.5,-168.5"/>
<text text-anchor="middle" x="688" y="-175.5" font-family="Helvetica,sans-Serif" font-size="10.00">king.h</text>
</a>
</g>
</g>
<!-- Node7&#45;&gt;Node15 -->
<g id="edge25" class="edge">
<title>Node7&#45;&gt;Node15</title>
<path fill="none" stroke="midnightblue" d="M502.73,-226.46C535.91,-218.3 594.47,-203.77 654.23,-188.16"/>
<polygon fill="midnightblue" stroke="midnightblue" points="655.44,-191.47 664.22,-185.55 653.66,-184.69 655.44,-191.47"/>
</g>
<!-- Node16 -->
<g id="node16" class="node">
<title>Node16</title>
<g id="a_node16"><a xlink:href="rook_8h.html" target="_top" xlink:title=" ">
<polygon fill="white" stroke="black" points="304.5,-168.5 304.5,-187.5 351.5,-187.5 351.5,-168.5 304.5,-168.5"/>
<text text-anchor="middle" x="328" y="-175.5" font-family="Helvetica,sans-Serif" font-size="10.00">rook.h</text>
</a>
</g>
</g>
<!-- Node7&#45;&gt;Node16 -->
<g id="edge27" class="edge">
<title>Node7&#45;&gt;Node16</title>
<path fill="none" stroke="midnightblue" d="M452.55,-224.44C427.87,-215.44 388.81,-201.19 361.02,-191.05"/>
<polygon fill="midnightblue" stroke="midnightblue" points="361.94,-187.66 351.34,-187.52 359.54,-194.23 361.94,-187.66"/>
</g>
<!-- Node17 -->
<g id="node17" class="node">
<title>Node17</title>
<g id="a_node17"><a xlink:href="bishop_8h.html" target="_top" xlink:title=" ">
<polygon fill="white" stroke="black" points="370,-168.5 370,-187.5 428,-187.5 428,-168.5 370,-168.5"/>
<text text-anchor="middle" x="399" y="-175.5" font-family="Helvetica,sans-Serif" font-size="10.00">bishop.h</text>
</a>
</g>
</g>
<!-- Node7&#45;&gt;Node17 -->
<g id="edge29" class="edge">
<title>Node7&#45;&gt;Node17</title>
<path fill="none" stroke="midnightblue" d="M463.63,-224.32C451.84,-216.06 433.87,-203.45 419.86,-193.63"/>
<polygon fill="midnightblue" stroke="midnightblue" points="421.54,-190.53 411.34,-187.65 417.52,-196.26 421.54,-190.53"/>
</g>
<!-- Node18 -->
<g id="node18" class="node">
<title>Node18</title>
<g id="a_node18"><a xlink:href="knight_8h.html" target="_top" xlink:title=" ">
<polygon fill="white" stroke="black" points="446,-168.5 446,-187.5 502,-187.5 502,-168.5 446,-168.5"/>
<text text-anchor="middle" x="474" y="-175.5" font-family="Helvetica,sans-Serif" font-size="10.00">knight.h</text>
</a>
</g>
</g>
<!-- Node7&#45;&gt;Node18 -->
<g id="edge31" class="edge">
<title>Node7&#45;&gt;Node18</title>
<path fill="none" stroke="midnightblue" d="M475.67,-224.08C475.41,-217.01 475.03,-206.86 474.7,-197.99"/>
<polygon fill="midnightblue" stroke="midnightblue" points="478.19,-197.61 474.32,-187.75 471.2,-197.87 478.19,-197.61"/>
</g>
<!-- Node9&#45;&gt;Node2 -->
<g id="edge13" class="edge">
<title>Node9&#45;&gt;Node2</title>
<path fill="none" stroke="midnightblue" d="M257.57,-168.25C259.23,-147.55 265.35,-94.44 286,-56 291.98,-44.87 301.39,-34.42 309.79,-26.4"/>
<polygon fill="midnightblue" stroke="midnightblue" points="312.34,-28.82 317.39,-19.51 307.63,-23.64 312.34,-28.82"/>
</g>
<!-- Node10 -->
<g id="node10" class="node">
<title>Node10</title>
<g id="a_node10"><a xlink:title=" ">
<polygon fill="white" stroke="#bfbfbf" points="285,-112.5 285,-131.5 343,-131.5 343,-112.5 285,-112.5"/>
<text text-anchor="middle" x="314" y="-119.5" font-family="Helvetica,sans-Serif" font-size="10.00">memory</text>
</a>
</g>
</g>
<!-- Node9&#45;&gt;Node10 -->
<g id="edge14" class="edge">
<title>Node9&#45;&gt;Node10</title>
<path fill="none" stroke="midnightblue" d="M266.16,-168.32C274.5,-160.42 287.03,-148.55 297.18,-138.94"/>
<polygon fill="midnightblue" stroke="midnightblue" points="299.82,-141.25 304.68,-131.83 295.01,-136.17 299.82,-141.25"/>
</g>
<!-- Node11 -->
<g id="node11" class="node">
<title>Node11</title>
<g id="a_node11"><a xlink:href="piece_8h.html" target="_top" xlink:title=" ">
<polygon fill="white" stroke="black" points="410,-112.5 410,-131.5 462,-131.5 462,-112.5 410,-112.5"/>
<text text-anchor="middle" x="436" y="-119.5" font-family="Helvetica,sans-Serif" font-size="10.00">piece.h</text>
</a>
</g>
</g>
<!-- Node9&#45;&gt;Node11 -->
<g id="edge15" class="edge">
<title>Node9&#45;&gt;Node11</title>
<path fill="none" stroke="midnightblue" d="M285.36,-168.44C316.36,-159.09 366.11,-144.08 399.88,-133.9"/>
<polygon fill="midnightblue" stroke="midnightblue" points="401.24,-137.14 409.81,-130.9 399.22,-130.44 401.24,-137.14"/>
</g>
<!-- Node11&#45;&gt;Node2 -->
<g id="edge16" class="edge">
<title>Node11&#45;&gt;Node2</title>
<path fill="none" stroke="midnightblue" d="M427.53,-112.37C409.39,-93.89 366.58,-50.29 343.46,-26.74"/>
<polygon fill="midnightblue" stroke="midnightblue" points="345.94,-24.28 336.44,-19.59 340.94,-29.18 345.94,-24.28"/>
</g>
<!-- Node11&#45;&gt;Node8 -->
<g id="edge17" class="edge">
<title>Node11&#45;&gt;Node8</title>
<path fill="none" stroke="midnightblue" d="M462.16,-116.63C520.35,-106.9 660.44,-83.48 725.17,-72.66"/>
<polygon fill="midnightblue" stroke="midnightblue" points="725.97,-76.07 735.25,-70.97 724.81,-69.17 725.97,-76.07"/>
</g>
<!-- Node11&#45;&gt;Node12 -->
<g id="edge18" class="edge">
<title>Node11&#45;&gt;Node12</title>
<path fill="none" stroke="midnightblue" d="M418.65,-112.32C401.33,-103.66 374.48,-90.24 354.5,-80.25"/>
<polygon fill="midnightblue" stroke="midnightblue" points="355.82,-77 345.31,-75.65 352.69,-83.26 355.82,-77"/>
</g>
<!-- Node12&#45;&gt;Node2 -->
<g id="edge19" class="edge">
<title>Node12&#45;&gt;Node2</title>
<path fill="none" stroke="midnightblue" d="M328,-56.08C328,-49.01 328,-38.86 328,-29.99"/>
<polygon fill="midnightblue" stroke="midnightblue" points="331.5,-29.75 328,-19.75 324.5,-29.75 331.5,-29.75"/>
</g>
<!-- Node13&#45;&gt;Node11 -->
<g id="edge22" class="edge">
<title>Node13&#45;&gt;Node11</title>
<path fill="none" stroke="midnightblue" d="M528.33,-168.32C510.61,-159.62 483.1,-146.12 462.71,-136.11"/>
<polygon fill="midnightblue" stroke="midnightblue" points="464.15,-132.92 453.63,-131.65 461.06,-139.2 464.15,-132.92"/>
</g>
<!-- Node14&#45;&gt;Node11 -->
<g id="edge24" class="edge">
<title>Node14&#45;&gt;Node11</title>
<path fill="none" stroke="midnightblue" d="M589.96,-168.68C558.2,-159.26 506.36,-143.88 471.72,-133.6"/>
<polygon fill="midnightblue" stroke="midnightblue" points="472.59,-130.2 462.01,-130.72 470.6,-136.92 472.59,-130.2"/>
</g>
<!-- Node15&#45;&gt;Node11 -->
<g id="edge26" class="edge">
<title>Node15&#45;&gt;Node11</title>
<path fill="none" stroke="midnightblue" d="M664.25,-170.33C661.15,-169.51 658,-168.72 655,-168 591,-152.71 515.73,-137.94 472.18,-129.7"/>
<polygon fill="midnightblue" stroke="midnightblue" points="472.55,-126.21 462.08,-127.8 471.26,-133.09 472.55,-126.21"/>
</g>
<!-- Node16&#45;&gt;Node11 -->
<g id="edge28" class="edge">
<title>Node16&#45;&gt;Node11</title>
<path fill="none" stroke="midnightblue" d="M345.35,-168.32C362.67,-159.66 389.52,-146.24 409.5,-136.25"/>
<polygon fill="midnightblue" stroke="midnightblue" points="411.31,-139.26 418.69,-131.65 408.18,-133 411.31,-139.26"/>
</g>
<!-- Node17&#45;&gt;Node11 -->
<g id="edge30" class="edge">
<title>Node17&#45;&gt;Node11</title>
<path fill="none" stroke="midnightblue" d="M405.11,-168.08C410.28,-160.53 417.85,-149.49 424.19,-140.23"/>
<polygon fill="midnightblue" stroke="midnightblue" points="427.24,-141.98 430,-131.75 421.46,-138.02 427.24,-141.98"/>
</g>
<!-- Node18&#45;&gt;Node11 -->
<g id="edge32" class="edge">
<title>Node18&#45;&gt;Node11</title>
<path fill="none" stroke="midnightblue" d="M467.73,-168.08C462.36,-160.46 454.48,-149.26 447.92,-139.94"/>
<polygon fill="midnightblue" stroke="midnightblue" points="450.78,-137.91 442.16,-131.75 445.05,-141.94 450.78,-137.91"/>
</g>
<!-- Node19&#45;&gt;Node2 -->
<g id="edge34" class="edge">
<title>Node19&#45;&gt;Node2</title>
<path fill="none" stroke="midnightblue" d="M656.33,-280.4C673.58,-272.5 698.43,-259.66 717,-244 785.78,-186.01 852.46,-122.61 792,-56 763.77,-24.9 476.22,-14.65 368.48,-11.88"/>
<polygon fill="midnightblue" stroke="midnightblue" points="368.41,-8.38 358.33,-11.63 368.24,-15.38 368.41,-8.38"/>
</g>
<!-- Node19&#45;&gt;Node7 -->
<g id="edge36" class="edge">
<title>Node19&#45;&gt;Node7</title>
<path fill="none" stroke="midnightblue" d="M610.65,-280.44C583.73,-271.36 541,-256.94 510.91,-246.78"/>
<polygon fill="midnightblue" stroke="midnightblue" points="511.83,-243.4 501.23,-243.52 509.59,-250.03 511.83,-243.4"/>
</g>
<!-- Node19&#45;&gt;Node8 -->
<g id="edge35" class="edge">
<title>Node19&#45;&gt;Node8</title>
<path fill="none" stroke="midnightblue" d="M648.13,-280.31C669.72,-264.3 715.05,-228.08 742,-188 761.62,-158.82 765.94,-147.11 764,-112 763.52,-103.36 762.53,-93.83 761.55,-85.77"/>
<polygon fill="midnightblue" stroke="midnightblue" points="764.99,-85.07 760.24,-75.6 758.05,-85.97 764.99,-85.07"/>
</g>
<!-- Node20&#45;&gt;Node2 -->
<g id="edge38" class="edge">
<title>Node20&#45;&gt;Node2</title>
<path fill="none" stroke="midnightblue" d="M449.41,-345.15C377.95,-345.01 184.03,-340.77 138,-300 56.25,-227.59 39.99,-140.64 109,-56 131.11,-28.88 230.69,-17.64 287.66,-13.36"/>
<polygon fill="midnightblue" stroke="midnightblue" points="288.05,-16.85 297.77,-12.64 287.55,-9.86 288.05,-16.85"/>
</g>
<!-- Node20&#45;&gt;Node7 -->
<g id="edge39" class="edge">
<title>Node20&#45;&gt;Node7</title>
<path fill="none" stroke="midnightblue" d="M476,-336.37C476,-318.62 476,-277.67 476,-253.6"/>
<polygon fill="midnightblue" stroke="midnightblue" points="479.5,-253.59 476,-243.59 472.5,-253.59 479.5,-253.59"/>
</g>
<!-- Node20&#45;&gt;Node19 -->
<g id="edge40" class="edge">
<title>Node20&#45;&gt;Node19</title>
<path fill="none" stroke="midnightblue" d="M501.35,-336.44C528.27,-327.36 571,-312.94 601.09,-302.78"/>
<polygon fill="midnightblue" stroke="midnightblue" points="602.41,-306.03 610.77,-299.52 600.17,-299.4 602.41,-306.03"/>
</g>
<!-- Node21&#45;&gt;Node2 -->
<g id="edge43" class="edge">
<title>Node21&#45;&gt;Node2</title>
<path fill="none" stroke="midnightblue" d="M533.06,-336.44C450.22,-313.53 232.13,-248.43 192,-188 157.63,-136.25 190.08,-95.54 238,-56 254.71,-42.21 276.36,-31.22 294.23,-23.55"/>
<polygon fill="midnightblue" stroke="midnightblue" points="295.81,-26.69 303.72,-19.64 293.14,-20.22 295.81,-26.69"/>
</g>
<!-- Node21&#45;&gt;Node7 -->
<g id="edge45" class="edge">
<title>Node21&#45;&gt;Node7</title>
<path fill="none" stroke="midnightblue" d="M558.02,-336.37C543.26,-318.14 508.71,-275.43 489.49,-251.68"/>
<polygon fill="midnightblue" stroke="midnightblue" points="491.96,-249.16 482.95,-243.59 486.52,-253.57 491.96,-249.16"/>
</g>
<!-- Node21&#45;&gt;Node8 -->
<g id="edge44" class="edge">
<title>Node21&#45;&gt;Node8</title>
<path fill="none" stroke="midnightblue" d="M596.97,-336.37C619.71,-329.16 650.15,-317.27 673,-300 723.73,-261.67 732.93,-244.55 762,-188 777.78,-157.3 784.85,-145.83 778,-112 776.11,-102.65 772.21,-92.83 768.43,-84.75"/>
<polygon fill="midnightblue" stroke="midnightblue" points="771.47,-83.01 763.88,-75.63 765.21,-86.14 771.47,-83.01"/>
</g>
<!-- Node21&#45;&gt;Node19 -->
<g id="edge46" class="edge">
<title>Node21&#45;&gt;Node19</title>
<path fill="none" stroke="midnightblue" d="M576.41,-336.32C587.11,-328.18 603.34,-315.84 616.16,-306.09"/>
<polygon fill="midnightblue" stroke="midnightblue" points="618.54,-308.67 624.39,-299.83 614.31,-303.1 618.54,-308.67"/>
</g>
<!-- Node22&#45;&gt;Node2 -->
<g id="edge48" class="edge">
<title>Node22&#45;&gt;Node2</title>
<path fill="none" stroke="midnightblue" d="M768,-504.44C768,-485.94 768,-440.81 768,-403 768,-403 768,-403 768,-345 768,-314.77 772.22,-305.78 788,-280 821.64,-225.05 892,-243.43 892,-179 892,-179 892,-179 892,-121 892,-14.26 497.94,-9.11 368.59,-10.29"/>
<polygon fill="midnightblue" stroke="midnightblue" points="368.28,-6.79 358.32,-10.4 368.36,-13.79 368.28,-6.79"/>
</g>
<!-- Node22&#45;&gt;Node5 -->
<g id="edge57" class="edge">
<title>Node22&#45;&gt;Node5</title>
<path fill="none" stroke="midnightblue" d="M737.13,-505.49C699.11,-496.24 634.23,-480.46 590.74,-469.88"/>
<polygon fill="midnightblue" stroke="midnightblue" points="591.54,-466.47 580.99,-467.51 589.88,-473.28 591.54,-466.47"/>
</g>
<!-- Node23 -->
<g id="node23" class="node">
<title>Node23</title>
<g id="a_node23"><a xlink:href="file__manager_8h.html" target="_top" xlink:title=" ">
<polygon fill="white" stroke="black" points="796.5,-336.5 796.5,-355.5 885.5,-355.5 885.5,-336.5 796.5,-336.5"/>
<text text-anchor="middle" x="841" y="-343.5" font-family="Helvetica,sans-Serif" font-size="10.00">file_manager.h</text>
</a>
</g>
</g>
<!-- Node22&#45;&gt;Node23 -->
<g id="edge49" class="edge">
<title>Node22&#45;&gt;Node23</title>
<path fill="none" stroke="midnightblue" d="M771.92,-504.08C783.47,-477.83 817.45,-400.55 833.03,-365.12"/>
<polygon fill="midnightblue" stroke="midnightblue" points="836.41,-366.13 837.23,-355.57 830,-363.31 836.41,-366.13"/>
</g>
<!-- Node26 -->
<g id="node26" class="node">
<title>Node26</title>
<g id="a_node26"><a xlink:href="human__player_8h.html" target="_top" xlink:title=" ">
<polygon fill="white" stroke="black" points="635.5,-392.5 635.5,-411.5 730.5,-411.5 730.5,-392.5 635.5,-392.5"/>
<text text-anchor="middle" x="683" y="-399.5" font-family="Helvetica,sans-Serif" font-size="10.00">human_player.h</text>
</a>
</g>
</g>
<!-- Node22&#45;&gt;Node26 -->
<g id="edge55" class="edge">
<title>Node22&#45;&gt;Node26</title>
<path fill="none" stroke="midnightblue" d="M761.33,-504.37C747.24,-486.14 714.24,-443.43 695.89,-419.68"/>
<polygon fill="midnightblue" stroke="midnightblue" points="698.52,-417.36 689.64,-411.59 692.98,-421.64 698.52,-417.36"/>
</g>
<!-- Node23&#45;&gt;Node2 -->
<g id="edge50" class="edge">
<title>Node23&#45;&gt;Node2</title>
<path fill="none" stroke="midnightblue" d="M861.99,-336.42C877.67,-328.99 898.46,-316.78 911,-300 929.02,-275.89 930,-265.1 930,-235 930,-235 930,-235 930,-121 930,-90.2 930.56,-74.57 906,-56 863.34,-23.74 493.05,-14.03 368.6,-11.66"/>
<polygon fill="midnightblue" stroke="midnightblue" points="368.43,-8.16 358.36,-11.47 368.3,-15.16 368.43,-8.16"/>
</g>
<!-- Node23&#45;&gt;Node7 -->
<g id="edge53" class="edge">
<title>Node23&#45;&gt;Node7</title>
<path fill="none" stroke="midnightblue" d="M821.67,-336.46C790.74,-323.05 728.03,-296.83 673,-280 618.03,-263.18 552.72,-249.46 512.83,-241.76"/>
<polygon fill="midnightblue" stroke="midnightblue" points="513.25,-238.27 502.77,-239.84 511.94,-245.15 513.25,-238.27"/>
</g>
<!-- Node23&#45;&gt;Node19 -->
<g id="edge54" class="edge">
<title>Node23&#45;&gt;Node19</title>
<path fill="none" stroke="midnightblue" d="M808.52,-336.44C771.93,-326.81 712.55,-311.17 673.89,-300.98"/>
<polygon fill="midnightblue" stroke="midnightblue" points="674.61,-297.55 664.05,-298.39 672.83,-304.32 674.61,-297.55"/>
</g>
<!-- Node24 -->
<g id="node24" class="node">
<title>Node24</title>
<g id="a_node24"><a xlink:title=" ">
<polygon fill="white" stroke="#bfbfbf" points="796.5,-280.5 796.5,-299.5 851.5,-299.5 851.5,-280.5 796.5,-280.5"/>
<text text-anchor="middle" x="824" y="-287.5" font-family="Helvetica,sans-Serif" font-size="10.00">fstream</text>
</a>
</g>
</g>
<!-- Node23&#45;&gt;Node24 -->
<g id="edge51" class="edge">
<title>Node23&#45;&gt;Node24</title>
<path fill="none" stroke="midnightblue" d="M838.19,-336.08C835.92,-328.85 832.63,-318.41 829.79,-309.4"/>
<polygon fill="midnightblue" stroke="midnightblue" points="833.1,-308.24 826.75,-299.75 826.42,-310.34 833.1,-308.24"/>
</g>
<!-- Node25 -->
<g id="node25" class="node">
<title>Node25</title>
<g id="a_node25"><a xlink:title=" ">
<polygon fill="white" stroke="#bfbfbf" points="870,-280.5 870,-299.5 902,-299.5 902,-280.5 870,-280.5"/>
<text text-anchor="middle" x="886" y="-287.5" font-family="Helvetica,sans-Serif" font-size="10.00">set</text>
</a>
</g>
</g>
<!-- Node23&#45;&gt;Node25 -->
<g id="edge52" class="edge">
<title>Node23&#45;&gt;Node25</title>
<path fill="none" stroke="midnightblue" d="M848.43,-336.08C854.85,-328.38 864.31,-317.03 872.12,-307.65"/>
<polygon fill="midnightblue" stroke="midnightblue" points="874.99,-309.67 878.71,-299.75 869.62,-305.19 874.99,-309.67"/>
</g>
<!-- Node26&#45;&gt;Node19 -->
<g id="edge56" class="edge">
<title>Node26&#45;&gt;Node19</title>
<path fill="none" stroke="midnightblue" d="M679.31,-392.37C671.66,-374.46 653.91,-332.92 643.67,-308.95"/>
<polygon fill="midnightblue" stroke="midnightblue" points="646.82,-307.41 639.67,-299.59 640.38,-310.16 646.82,-307.41"/>
</g>
</g>
</svg>
