<?xml version="1.0" encoding="UTF-8" standalone="no"?>
<!DOCTYPE svg PUBLIC "-//W3C//DTD SVG 1.1//EN"
 "http://www.w3.org/Graphics/SVG/1.1/DTD/svg11.dtd">
<!-- Generated by graphviz version 2.43.0 (0)
 -->
<!-- Title: src/menu.cpp Pages: 1 -->
<svg width="967pt" height="644pt"
 viewBox="0.00 0.00 967.00 644.00" xmlns="http://www.w3.org/2000/svg" xmlns:xlink="http://www.w3.org/1999/xlink">
<g id="graph0" class="graph" transform="scale(1 1) rotate(0) translate(4 640)">
<title>src/menu.cpp</title>
<polygon fill="white" stroke="transparent" points="-4,4 -4,-640 963,-640 963,4 -4,4"/>
<!-- Node1 -->
<g id="node1" class="node">
<title>Node1</title>
<g id="a_node1"><a xlink:title=" ">
<polygon fill="#bfbfbf" stroke="black" points="329,-616.5 329,-635.5 411,-635.5 411,-616.5 329,-616.5"/>
<text text-anchor="middle" x="370" y="-623.5" font-family="Helvetica,sans-Serif" font-size="10.00">src/menu.cpp</text>
</a>
</g>
</g>
<!-- Node2 -->
<g id="node2" class="node">
<title>Node2</title>
<g id="a_node2"><a xlink:href="menu_8h.html" target="_top" xlink:title=" ">
<polygon fill="white" stroke="black" points="635.5,-560.5 635.5,-579.5 688.5,-579.5 688.5,-560.5 635.5,-560.5"/>
<text text-anchor="middle" x="662" y="-567.5" font-family="Helvetica,sans-Serif" font-size="10.00">menu.h</text>
</a>
</g>
</g>
<!-- Node1&#45;&gt;Node2 -->
<g id="edge1" class="edge">
<title>Node1&#45;&gt;Node2</title>
<path fill="none" stroke="midnightblue" d="M411.22,-617.38C468.37,-606.81 570.81,-587.86 625.4,-577.77"/>
<polygon fill="midnightblue" stroke="midnightblue" points="626.14,-581.19 635.33,-575.93 624.86,-574.31 626.14,-581.19"/>
</g>
<!-- Node26 -->
<g id="node26" class="node">
<title>Node26</title>
<g id="a_node26"><a xlink:href="minimax_8h.html" target="_top" xlink:title=" ">
<polygon fill="white" stroke="black" points="302.5,-392.5 302.5,-411.5 371.5,-411.5 371.5,-392.5 302.5,-392.5"/>
<text text-anchor="middle" x="337" y="-399.5" font-family="Helvetica,sans-Serif" font-size="10.00">minimax.h</text>
</a>
</g>
</g>
<!-- Node1&#45;&gt;Node26 -->
<g id="edge56" class="edge">
<title>Node1&#45;&gt;Node26</title>
<path fill="none" stroke="midnightblue" d="M368.71,-616.3C363.85,-583.63 346.64,-467.87 339.82,-421.96"/>
<polygon fill="midnightblue" stroke="midnightblue" points="343.25,-421.26 338.32,-411.88 336.33,-422.29 343.25,-421.26"/>
</g>
<!-- Node27 -->
<g id="node27" class="node">
<title>Node27</title>
<g id="a_node27"><a xlink:href="custom__ai_8h.html" target="_top" xlink:title=" ">
<polygon fill="white" stroke="black" points="208,-392.5 208,-411.5 284,-411.5 284,-392.5 208,-392.5"/>
<text text-anchor="middle" x="246" y="-399.5" font-family="Helvetica,sans-Serif" font-size="10.00">custom_ai.h</text>
</a>
</g>
</g>
<!-- Node1&#45;&gt;Node27 -->
<g id="edge59" class="edge">
<title>Node1&#45;&gt;Node27</title>
<path fill="none" stroke="midnightblue" d="M365.14,-616.3C346.74,-583.36 281.13,-465.9 255.95,-420.81"/>
<polygon fill="midnightblue" stroke="midnightblue" points="258.89,-418.91 250.96,-411.88 252.78,-422.32 258.89,-418.91"/>
</g>
<!-- Node28 -->
<g id="node28" class="node">
<title>Node28</title>
<g id="a_node28"><a xlink:href="custom__ai2_8h.html" target="_top" xlink:title=" ">
<polygon fill="white" stroke="black" points="390,-392.5 390,-411.5 472,-411.5 472,-392.5 390,-392.5"/>
<text text-anchor="middle" x="431" y="-399.5" font-family="Helvetica,sans-Serif" font-size="10.00">custom_ai2.h</text>
</a>
</g>
</g>
<!-- Node1&#45;&gt;Node28 -->
<g id="edge62" class="edge">
<title>Node1&#45;&gt;Node28</title>
<path fill="none" stroke="midnightblue" d="M372.39,-616.3C381.39,-583.56 413.31,-467.38 425.87,-421.67"/>
<polygon fill="midnightblue" stroke="midnightblue" points="429.28,-422.45 428.56,-411.88 422.53,-420.6 429.28,-422.45"/>
</g>
<!-- Node3 -->
<g id="node3" class="node">
<title>Node3</title>
<g id="a_node3"><a xlink:title=" ">
<polygon fill="white" stroke="#bfbfbf" points="674,-0.5 674,-19.5 734,-19.5 734,-0.5 674,-0.5"/>
<text text-anchor="middle" x="704" y="-7.5" font-family="Helvetica,sans-Serif" font-size="10.00">iostream</text>
</a>
</g>
</g>
<!-- Node2&#45;&gt;Node3 -->
<g id="edge2" class="edge">
<title>Node2&#45;&gt;Node3</title>
<path fill="none" stroke="midnightblue" d="M688.62,-565.01C761.52,-553.33 959,-516.39 959,-459 959,-459 959,-459 959,-121 959,-28.52 815.84,-12.87 744.05,-10.84"/>
<polygon fill="midnightblue" stroke="midnightblue" points="744.07,-7.34 734,-10.63 743.93,-14.33 744.07,-7.34"/>
</g>
<!-- Node4 -->
<g id="node4" class="node">
<title>Node4</title>
<g id="a_node4"><a xlink:href="application_8h.html" target="_top" xlink:title=" ">
<polygon fill="white" stroke="black" points="652,-448.5 652,-467.5 732,-467.5 732,-448.5 652,-448.5"/>
<text text-anchor="middle" x="692" y="-455.5" font-family="Helvetica,sans-Serif" font-size="10.00">application.h</text>
</a>
</g>
</g>
<!-- Node2&#45;&gt;Node4 -->
<g id="edge3" class="edge">
<title>Node2&#45;&gt;Node4</title>
<path fill="none" stroke="midnightblue" d="M664.35,-560.37C669.22,-542.54 680.46,-501.3 687.02,-477.27"/>
<polygon fill="midnightblue" stroke="midnightblue" points="690.4,-478.16 689.66,-467.59 683.65,-476.32 690.4,-478.16"/>
</g>
<!-- Node21 -->
<g id="node21" class="node">
<title>Node21</title>
<g id="a_node21"><a xlink:href="tutorial_8h.html" target="_top" xlink:title=" ">
<polygon fill="white" stroke="black" points="602.5,-504.5 602.5,-523.5 663.5,-523.5 663.5,-504.5 602.5,-504.5"/>
<text text-anchor="middle" x="633" y="-511.5" font-family="Helvetica,sans-Serif" font-size="10.00">tutorial.h</text>
</a>
</g>
</g>
<!-- Node2&#45;&gt;Node21 -->
<g id="edge45" class="edge">
<title>Node2&#45;&gt;Node21</title>
<path fill="none" stroke="midnightblue" d="M657.21,-560.08C653.24,-552.69 647.47,-541.95 642.57,-532.81"/>
<polygon fill="midnightblue" stroke="midnightblue" points="645.51,-530.91 637.7,-523.75 639.35,-534.22 645.51,-530.91"/>
</g>
<!-- Node4&#45;&gt;Node3 -->
<g id="edge4" class="edge">
<title>Node4&#45;&gt;Node3</title>
<path fill="none" stroke="midnightblue" d="M732.04,-451.96C788.05,-442.43 883,-416.07 883,-347 883,-347 883,-347 883,-121 883,-56.37 797.25,-28.51 744.45,-17.48"/>
<polygon fill="midnightblue" stroke="midnightblue" points="744.85,-13.99 734.36,-15.49 743.5,-20.86 744.85,-13.99"/>
</g>
<!-- Node5 -->
<g id="node5" class="node">
<title>Node5</title>
<g id="a_node5"><a xlink:href="rules_8h.html" target="_top" xlink:title=" ">
<polygon fill="white" stroke="black" points="667,-392.5 667,-411.5 717,-411.5 717,-392.5 667,-392.5"/>
<text text-anchor="middle" x="692" y="-399.5" font-family="Helvetica,sans-Serif" font-size="10.00">rules.h</text>
</a>
</g>
</g>
<!-- Node4&#45;&gt;Node5 -->
<g id="edge5" class="edge">
<title>Node4&#45;&gt;Node5</title>
<path fill="none" stroke="midnightblue" d="M692,-448.08C692,-441.01 692,-430.86 692,-421.99"/>
<polygon fill="midnightblue" stroke="midnightblue" points="695.5,-421.75 692,-411.75 688.5,-421.75 695.5,-421.75"/>
</g>
<!-- Node19 -->
<g id="node19" class="node">
<title>Node19</title>
<g id="a_node19"><a xlink:href="move_8h.html" target="_top" xlink:title=" ">
<polygon fill="white" stroke="black" points="357.5,-336.5 357.5,-355.5 410.5,-355.5 410.5,-336.5 357.5,-336.5"/>
<text text-anchor="middle" x="384" y="-343.5" font-family="Helvetica,sans-Serif" font-size="10.00">move.h</text>
</a>
</g>
</g>
<!-- Node4&#45;&gt;Node19 -->
<g id="edge39" class="edge">
<title>Node4&#45;&gt;Node19</title>
<path fill="none" stroke="midnightblue" d="M668.09,-448.46C613.62,-429.01 480.19,-381.36 417.54,-358.98"/>
<polygon fill="midnightblue" stroke="midnightblue" points="418.7,-355.68 408.11,-355.61 416.35,-362.27 418.7,-355.68"/>
</g>
<!-- Node20 -->
<g id="node20" class="node">
<title>Node20</title>
<g id="a_node20"><a xlink:href="game__rules_8h.html" target="_top" xlink:title=" ">
<polygon fill="white" stroke="black" points="721.5,-336.5 721.5,-355.5 804.5,-355.5 804.5,-336.5 721.5,-336.5"/>
<text text-anchor="middle" x="763" y="-343.5" font-family="Helvetica,sans-Serif" font-size="10.00">game_rules.h</text>
</a>
</g>
</g>
<!-- Node4&#45;&gt;Node20 -->
<g id="edge40" class="edge">
<title>Node4&#45;&gt;Node20</title>
<path fill="none" stroke="midnightblue" d="M699.12,-448.28C706.26,-439.39 717.38,-425.09 726,-412 736.24,-396.44 746.62,-377.91 753.77,-364.63"/>
<polygon fill="midnightblue" stroke="midnightblue" points="756.95,-366.1 758.55,-355.62 750.77,-362.81 756.95,-366.1"/>
</g>
<!-- Node5&#45;&gt;Node3 -->
<g id="edge6" class="edge">
<title>Node5&#45;&gt;Node3</title>
<path fill="none" stroke="midnightblue" d="M717.35,-397.41C744.27,-392.4 786.65,-380.95 814,-356 837.64,-334.43 845,-323.01 845,-291 845,-291 845,-291 845,-121 845,-69.26 785.26,-38.27 743.55,-22.94"/>
<polygon fill="midnightblue" stroke="midnightblue" points="744.5,-19.56 733.9,-19.55 742.18,-26.17 744.5,-19.56"/>
</g>
<!-- Node6 -->
<g id="node6" class="node">
<title>Node6</title>
<g id="a_node6"><a xlink:href="board_8h.html" target="_top" xlink:title=" ">
<polygon fill="white" stroke="black" points="410.5,-224.5 410.5,-243.5 463.5,-243.5 463.5,-224.5 410.5,-224.5"/>
<text text-anchor="middle" x="437" y="-231.5" font-family="Helvetica,sans-Serif" font-size="10.00">board.h</text>
</a>
</g>
</g>
<!-- Node5&#45;&gt;Node6 -->
<g id="edge7" class="edge">
<title>Node5&#45;&gt;Node6</title>
<path fill="none" stroke="midnightblue" d="M690.98,-392.37C687.77,-369.45 675.59,-307 636,-280 586.77,-246.43 516.29,-237.55 473.77,-235.4"/>
<polygon fill="midnightblue" stroke="midnightblue" points="473.72,-231.9 463.58,-234.99 473.44,-238.89 473.72,-231.9"/>
</g>
<!-- Node18 -->
<g id="node18" class="node">
<title>Node18</title>
<g id="a_node18"><a xlink:href="player_8h.html" target="_top" xlink:title=" ">
<polygon fill="white" stroke="black" points="409,-280.5 409,-299.5 465,-299.5 465,-280.5 409,-280.5"/>
<text text-anchor="middle" x="437" y="-287.5" font-family="Helvetica,sans-Serif" font-size="10.00">player.h</text>
</a>
</g>
</g>
<!-- Node5&#45;&gt;Node18 -->
<g id="edge31" class="edge">
<title>Node5&#45;&gt;Node18</title>
<path fill="none" stroke="midnightblue" d="M666.76,-392.89C641.27,-384.47 600.92,-370.53 567,-356 529.57,-339.97 487.67,-318.32 461.81,-304.5"/>
<polygon fill="midnightblue" stroke="midnightblue" points="463.19,-301.27 452.72,-299.62 459.88,-307.44 463.19,-301.27"/>
</g>
<!-- Node5&#45;&gt;Node19 -->
<g id="edge35" class="edge">
<title>Node5&#45;&gt;Node19</title>
<path fill="none" stroke="midnightblue" d="M666.8,-396.58C612.49,-387.06 484.26,-364.58 420.83,-353.46"/>
<polygon fill="midnightblue" stroke="midnightblue" points="421.32,-349.99 410.87,-351.71 420.11,-356.88 421.32,-349.99"/>
</g>
<!-- Node6&#45;&gt;Node3 -->
<g id="edge8" class="edge">
<title>Node6&#45;&gt;Node3</title>
<path fill="none" stroke="midnightblue" d="M410.25,-233.5C340.36,-234.19 155.05,-231.77 117,-188 111.17,-181.29 114.14,-176.42 117,-168 139.54,-101.64 163.22,-82.75 228,-56 306.55,-23.57 563.95,-14.23 663.86,-11.79"/>
<polygon fill="midnightblue" stroke="midnightblue" points="663.94,-15.29 673.86,-11.55 663.78,-8.29 663.94,-15.29"/>
</g>
<!-- Node7 -->
<g id="node7" class="node">
<title>Node7</title>
<g id="a_node7"><a xlink:title=" ">
<polygon fill="white" stroke="#bfbfbf" points="650.5,-56.5 650.5,-75.5 697.5,-75.5 697.5,-56.5 650.5,-56.5"/>
<text text-anchor="middle" x="674" y="-63.5" font-family="Helvetica,sans-Serif" font-size="10.00">vector</text>
</a>
</g>
</g>
<!-- Node6&#45;&gt;Node7 -->
<g id="edge9" class="edge">
<title>Node6&#45;&gt;Node7</title>
<path fill="none" stroke="midnightblue" d="M463.78,-230.25C512.08,-224.76 611.06,-210.98 636,-188 665.06,-161.23 672.05,-112.54 673.63,-85.81"/>
<polygon fill="midnightblue" stroke="midnightblue" points="677.14,-85.66 674.04,-75.53 670.15,-85.38 677.14,-85.66"/>
</g>
<!-- Node8 -->
<g id="node8" class="node">
<title>Node8</title>
<g id="a_node8"><a xlink:href="square_8h.html" target="_top" xlink:title=" ">
<polygon fill="white" stroke="black" points="142.5,-168.5 142.5,-187.5 201.5,-187.5 201.5,-168.5 142.5,-168.5"/>
<text text-anchor="middle" x="172" y="-175.5" font-family="Helvetica,sans-Serif" font-size="10.00">square.h</text>
</a>
</g>
</g>
<!-- Node6&#45;&gt;Node8 -->
<g id="edge10" class="edge">
<title>Node6&#45;&gt;Node8</title>
<path fill="none" stroke="midnightblue" d="M410.16,-227.93C369.51,-220.19 289.67,-204.76 211.77,-188.11"/>
<polygon fill="midnightblue" stroke="midnightblue" points="212.3,-184.65 201.79,-185.97 210.83,-191.49 212.3,-184.65"/>
</g>
<!-- Node11 -->
<g id="node11" class="node">
<title>Node11</title>
<g id="a_node11"><a xlink:href="position_8h.html" target="_top" xlink:title=" ">
<polygon fill="white" stroke="black" points="420.5,-56.5 420.5,-75.5 485.5,-75.5 485.5,-56.5 420.5,-56.5"/>
<text text-anchor="middle" x="453" y="-63.5" font-family="Helvetica,sans-Serif" font-size="10.00">position.h</text>
</a>
</g>
</g>
<!-- Node6&#45;&gt;Node11 -->
<g id="edge18" class="edge">
<title>Node6&#45;&gt;Node11</title>
<path fill="none" stroke="midnightblue" d="M410.36,-233.28C343.02,-233.37 168.81,-229.5 133,-188 53.57,-95.94 305.81,-73.74 410.06,-68.54"/>
<polygon fill="midnightblue" stroke="midnightblue" points="410.43,-72.03 420.26,-68.06 410.11,-65.03 410.43,-72.03"/>
</g>
<!-- Node12 -->
<g id="node12" class="node">
<title>Node12</title>
<g id="a_node12"><a xlink:href="pawn_8h.html" target="_top" xlink:title=" ">
<polygon fill="white" stroke="black" points="220,-168.5 220,-187.5 272,-187.5 272,-168.5 220,-168.5"/>
<text text-anchor="middle" x="246" y="-175.5" font-family="Helvetica,sans-Serif" font-size="10.00">pawn.h</text>
</a>
</g>
</g>
<!-- Node6&#45;&gt;Node12 -->
<g id="edge19" class="edge">
<title>Node6&#45;&gt;Node12</title>
<path fill="none" stroke="midnightblue" d="M410.44,-225.49C376.99,-216.03 319.38,-199.75 282,-189.18"/>
<polygon fill="midnightblue" stroke="midnightblue" points="282.6,-185.71 272.03,-186.36 280.7,-192.45 282.6,-185.71"/>
</g>
<!-- Node13 -->
<g id="node13" class="node">
<title>Node13</title>
<g id="a_node13"><a xlink:href="queen_8h.html" target="_top" xlink:title=" ">
<polygon fill="white" stroke="black" points="290,-168.5 290,-187.5 346,-187.5 346,-168.5 290,-168.5"/>
<text text-anchor="middle" x="318" y="-175.5" font-family="Helvetica,sans-Serif" font-size="10.00">queen.h</text>
</a>
</g>
</g>
<!-- Node6&#45;&gt;Node13 -->
<g id="edge21" class="edge">
<title>Node6&#45;&gt;Node13</title>
<path fill="none" stroke="midnightblue" d="M418.14,-224.44C398.73,-215.64 368.27,-201.81 346.04,-191.72"/>
<polygon fill="midnightblue" stroke="midnightblue" points="347.32,-188.46 336.77,-187.52 344.43,-194.84 347.32,-188.46"/>
</g>
<!-- Node14 -->
<g id="node14" class="node">
<title>Node14</title>
<g id="a_node14"><a xlink:href="king_8h.html" target="_top" xlink:title=" ">
<polygon fill="white" stroke="black" points="364.5,-168.5 364.5,-187.5 411.5,-187.5 411.5,-168.5 364.5,-168.5"/>
<text text-anchor="middle" x="388" y="-175.5" font-family="Helvetica,sans-Serif" font-size="10.00">king.h</text>
</a>
</g>
</g>
<!-- Node6&#45;&gt;Node14 -->
<g id="edge23" class="edge">
<title>Node6&#45;&gt;Node14</title>
<path fill="none" stroke="midnightblue" d="M428.91,-224.08C421.84,-216.3 411.41,-204.8 402.85,-195.37"/>
<polygon fill="midnightblue" stroke="midnightblue" points="405.25,-192.8 395.94,-187.75 400.07,-197.51 405.25,-192.8"/>
</g>
<!-- Node15 -->
<g id="node15" class="node">
<title>Node15</title>
<g id="a_node15"><a xlink:href="rook_8h.html" target="_top" xlink:title=" ">
<polygon fill="white" stroke="black" points="429.5,-168.5 429.5,-187.5 476.5,-187.5 476.5,-168.5 429.5,-168.5"/>
<text text-anchor="middle" x="453" y="-175.5" font-family="Helvetica,sans-Serif" font-size="10.00">rook.h</text>
</a>
</g>
</g>
<!-- Node6&#45;&gt;Node15 -->
<g id="edge25" class="edge">
<title>Node6&#45;&gt;Node15</title>
<path fill="none" stroke="midnightblue" d="M439.64,-224.08C441.79,-216.85 444.88,-206.41 447.55,-197.4"/>
<polygon fill="midnightblue" stroke="midnightblue" points="450.92,-198.33 450.41,-187.75 444.21,-196.34 450.92,-198.33"/>
</g>
<!-- Node16 -->
<g id="node16" class="node">
<title>Node16</title>
<g id="a_node16"><a xlink:href="bishop_8h.html" target="_top" xlink:title=" ">
<polygon fill="white" stroke="black" points="495,-168.5 495,-187.5 553,-187.5 553,-168.5 495,-168.5"/>
<text text-anchor="middle" x="524" y="-175.5" font-family="Helvetica,sans-Serif" font-size="10.00">bishop.h</text>
</a>
</g>
</g>
<!-- Node6&#45;&gt;Node16 -->
<g id="edge27" class="edge">
<title>Node6&#45;&gt;Node16</title>
<path fill="none" stroke="midnightblue" d="M450.98,-224.32C464.55,-215.9 485.38,-202.97 501.32,-193.07"/>
<polygon fill="midnightblue" stroke="midnightblue" points="503.41,-195.9 510.06,-187.65 499.71,-189.95 503.41,-195.9"/>
</g>
<!-- Node17 -->
<g id="node17" class="node">
<title>Node17</title>
<g id="a_node17"><a xlink:href="knight_8h.html" target="_top" xlink:title=" ">
<polygon fill="white" stroke="black" points="571,-168.5 571,-187.5 627,-187.5 627,-168.5 571,-168.5"/>
<text text-anchor="middle" x="599" y="-175.5" font-family="Helvetica,sans-Serif" font-size="10.00">knight.h</text>
</a>
</g>
</g>
<!-- Node6&#45;&gt;Node17 -->
<g id="edge29" class="edge">
<title>Node6&#45;&gt;Node17</title>
<path fill="none" stroke="midnightblue" d="M462.67,-224.44C489.92,-215.36 533.18,-200.94 563.65,-190.78"/>
<polygon fill="midnightblue" stroke="midnightblue" points="565.07,-194 573.45,-187.52 562.86,-187.36 565.07,-194"/>
</g>
<!-- Node8&#45;&gt;Node3 -->
<g id="edge11" class="edge">
<title>Node8&#45;&gt;Node3</title>
<path fill="none" stroke="midnightblue" d="M168.74,-168.33C164.26,-154.73 158.09,-128.27 171,-112 232.31,-34.73 550.12,-16.29 663.64,-12.14"/>
<polygon fill="midnightblue" stroke="midnightblue" points="663.79,-15.64 673.66,-11.79 663.54,-8.64 663.79,-15.64"/>
</g>
<!-- Node9 -->
<g id="node9" class="node">
<title>Node9</title>
<g id="a_node9"><a xlink:title=" ">
<polygon fill="white" stroke="#bfbfbf" points="180,-112.5 180,-131.5 238,-131.5 238,-112.5 180,-112.5"/>
<text text-anchor="middle" x="209" y="-119.5" font-family="Helvetica,sans-Serif" font-size="10.00">memory</text>
</a>
</g>
</g>
<!-- Node8&#45;&gt;Node9 -->
<g id="edge12" class="edge">
<title>Node8&#45;&gt;Node9</title>
<path fill="none" stroke="midnightblue" d="M178.11,-168.08C183.28,-160.53 190.85,-149.49 197.19,-140.23"/>
<polygon fill="midnightblue" stroke="midnightblue" points="200.24,-141.98 203,-131.75 194.46,-138.02 200.24,-141.98"/>
</g>
<!-- Node10 -->
<g id="node10" class="node">
<title>Node10</title>
<g id="a_node10"><a xlink:href="piece_8h.html" target="_top" xlink:title=" ">
<polygon fill="white" stroke="black" points="427,-112.5 427,-131.5 479,-131.5 479,-112.5 427,-112.5"/>
<text text-anchor="middle" x="453" y="-119.5" font-family="Helvetica,sans-Serif" font-size="10.00">piece.h</text>
</a>
</g>
</g>
<!-- Node8&#45;&gt;Node10 -->
<g id="edge13" class="edge">
<title>Node8&#45;&gt;Node10</title>
<path fill="none" stroke="midnightblue" d="M201.78,-169.99C204.89,-169.3 208.01,-168.62 211,-168 283.73,-152.85 369.29,-137.53 416.7,-129.25"/>
<polygon fill="midnightblue" stroke="midnightblue" points="417.53,-132.66 426.79,-127.49 416.33,-125.76 417.53,-132.66"/>
</g>
<!-- Node10&#45;&gt;Node3 -->
<g id="edge14" class="edge">
<title>Node10&#45;&gt;Node3</title>
<path fill="none" stroke="midnightblue" d="M472.7,-112.37C516.78,-93.05 623.54,-46.26 675.14,-23.65"/>
<polygon fill="midnightblue" stroke="midnightblue" points="676.64,-26.81 684.4,-19.59 673.83,-20.4 676.64,-26.81"/>
</g>
<!-- Node10&#45;&gt;Node7 -->
<g id="edge15" class="edge">
<title>Node10&#45;&gt;Node7</title>
<path fill="none" stroke="midnightblue" d="M479.22,-114.59C519.44,-104.77 596.35,-85.97 640.54,-75.18"/>
<polygon fill="midnightblue" stroke="midnightblue" points="641.62,-78.52 650.5,-72.74 639.95,-71.72 641.62,-78.52"/>
</g>
<!-- Node10&#45;&gt;Node11 -->
<g id="edge16" class="edge">
<title>Node10&#45;&gt;Node11</title>
<path fill="none" stroke="midnightblue" d="M453,-112.08C453,-105.01 453,-94.86 453,-85.99"/>
<polygon fill="midnightblue" stroke="midnightblue" points="456.5,-85.75 453,-75.75 449.5,-85.75 456.5,-85.75"/>
</g>
<!-- Node11&#45;&gt;Node3 -->
<g id="edge17" class="edge">
<title>Node11&#45;&gt;Node3</title>
<path fill="none" stroke="midnightblue" d="M485.56,-58C531.25,-48.16 614.35,-30.29 663.83,-19.64"/>
<polygon fill="midnightblue" stroke="midnightblue" points="664.81,-23.01 673.85,-17.49 663.34,-16.17 664.81,-23.01"/>
</g>
<!-- Node12&#45;&gt;Node10 -->
<g id="edge20" class="edge">
<title>Node12&#45;&gt;Node10</title>
<path fill="none" stroke="midnightblue" d="M272.22,-170.16C308.92,-160.59 375.76,-143.15 417.08,-132.37"/>
<polygon fill="midnightblue" stroke="midnightblue" points="418.2,-135.69 427,-129.78 416.44,-128.92 418.2,-135.69"/>
</g>
<!-- Node13&#45;&gt;Node10 -->
<g id="edge22" class="edge">
<title>Node13&#45;&gt;Node10</title>
<path fill="none" stroke="midnightblue" d="M339.39,-168.44C361.71,-159.52 396.9,-145.44 422.21,-135.32"/>
<polygon fill="midnightblue" stroke="midnightblue" points="423.72,-138.48 431.71,-131.52 421.12,-131.98 423.72,-138.48"/>
</g>
<!-- Node14&#45;&gt;Node10 -->
<g id="edge24" class="edge">
<title>Node14&#45;&gt;Node10</title>
<path fill="none" stroke="midnightblue" d="M398.44,-168.32C408.15,-160.26 422.82,-148.08 434.5,-138.37"/>
<polygon fill="midnightblue" stroke="midnightblue" points="436.91,-140.92 442.37,-131.83 432.44,-135.53 436.91,-140.92"/>
</g>
<!-- Node15&#45;&gt;Node10 -->
<g id="edge26" class="edge">
<title>Node15&#45;&gt;Node10</title>
<path fill="none" stroke="midnightblue" d="M453,-168.08C453,-161.01 453,-150.86 453,-141.99"/>
<polygon fill="midnightblue" stroke="midnightblue" points="456.5,-141.75 453,-131.75 449.5,-141.75 456.5,-141.75"/>
</g>
<!-- Node16&#45;&gt;Node10 -->
<g id="edge28" class="edge">
<title>Node16&#45;&gt;Node10</title>
<path fill="none" stroke="midnightblue" d="M512.59,-168.32C501.89,-160.18 485.66,-147.84 472.84,-138.09"/>
<polygon fill="midnightblue" stroke="midnightblue" points="474.69,-135.1 464.61,-131.83 470.46,-140.67 474.69,-135.1"/>
</g>
<!-- Node17&#45;&gt;Node10 -->
<g id="edge30" class="edge">
<title>Node17&#45;&gt;Node10</title>
<path fill="none" stroke="midnightblue" d="M575.87,-168.44C551.52,-159.44 512.99,-145.19 485.58,-135.05"/>
<polygon fill="midnightblue" stroke="midnightblue" points="486.62,-131.7 476.03,-131.52 484.19,-138.27 486.62,-131.7"/>
</g>
<!-- Node18&#45;&gt;Node3 -->
<g id="edge32" class="edge">
<title>Node18&#45;&gt;Node3</title>
<path fill="none" stroke="midnightblue" d="M408.94,-287.34C318.12,-281.21 38,-256.06 38,-179 38,-179 38,-179 38,-121 38,-50.78 114.05,-73.71 182,-56 272.95,-32.29 557.21,-17.54 663.43,-12.73"/>
<polygon fill="midnightblue" stroke="midnightblue" points="663.89,-16.21 673.73,-12.27 663.58,-9.22 663.89,-16.21"/>
</g>
<!-- Node18&#45;&gt;Node6 -->
<g id="edge34" class="edge">
<title>Node18&#45;&gt;Node6</title>
<path fill="none" stroke="midnightblue" d="M437,-280.08C437,-273.01 437,-262.86 437,-253.99"/>
<polygon fill="midnightblue" stroke="midnightblue" points="440.5,-253.75 437,-243.75 433.5,-253.75 440.5,-253.75"/>
</g>
<!-- Node18&#45;&gt;Node7 -->
<g id="edge33" class="edge">
<title>Node18&#45;&gt;Node7</title>
<path fill="none" stroke="midnightblue" d="M465.31,-283.22C511.49,-272.38 603.3,-244.8 657,-188 681.16,-162.45 680.94,-147.11 679,-112 678.52,-103.36 677.53,-93.83 676.55,-85.77"/>
<polygon fill="midnightblue" stroke="midnightblue" points="679.99,-85.07 675.24,-75.6 673.05,-85.97 679.99,-85.07"/>
</g>
<!-- Node19&#45;&gt;Node3 -->
<g id="edge36" class="edge">
<title>Node19&#45;&gt;Node3</title>
<path fill="none" stroke="midnightblue" d="M357.3,-343.15C270.22,-336.4 0,-309.46 0,-235 0,-235 0,-235 0,-121 0,-81.68 24.56,-73.01 60,-56 114.29,-29.94 531.36,-15.92 663.78,-12.09"/>
<polygon fill="midnightblue" stroke="midnightblue" points="664.01,-15.59 673.9,-11.8 663.81,-8.59 664.01,-15.59"/>
</g>
<!-- Node19&#45;&gt;Node6 -->
<g id="edge37" class="edge">
<title>Node19&#45;&gt;Node6</title>
<path fill="none" stroke="midnightblue" d="M384.91,-336.16C386.52,-323.24 390.62,-298.7 400,-280 405.3,-269.42 413.49,-259.11 420.81,-251.04"/>
<polygon fill="midnightblue" stroke="midnightblue" points="423.36,-253.44 427.71,-243.78 418.28,-248.62 423.36,-253.44"/>
</g>
<!-- Node19&#45;&gt;Node18 -->
<g id="edge38" class="edge">
<title>Node19&#45;&gt;Node18</title>
<path fill="none" stroke="midnightblue" d="M392.75,-336.08C400.47,-328.22 411.9,-316.57 421.22,-307.08"/>
<polygon fill="midnightblue" stroke="midnightblue" points="423.9,-309.34 428.41,-299.75 418.91,-304.44 423.9,-309.34"/>
</g>
<!-- Node20&#45;&gt;Node3 -->
<g id="edge41" class="edge">
<title>Node20&#45;&gt;Node3</title>
<path fill="none" stroke="midnightblue" d="M769.12,-336.35C781.21,-318.38 807,-275.31 807,-235 807,-235 807,-235 807,-121 807,-90.2 802.92,-79.49 783,-56 770.91,-41.74 753.1,-31.05 737.45,-23.67"/>
<polygon fill="midnightblue" stroke="midnightblue" points="738.62,-20.36 728.06,-19.5 735.78,-26.76 738.62,-20.36"/>
</g>
<!-- Node20&#45;&gt;Node6 -->
<g id="edge43" class="edge">
<title>Node20&#45;&gt;Node6</title>
<path fill="none" stroke="midnightblue" d="M758.15,-336.12C749.77,-321.74 731.15,-293.58 707,-280 667.67,-257.88 538.08,-243.81 473.81,-238.02"/>
<polygon fill="midnightblue" stroke="midnightblue" points="473.98,-234.53 463.71,-237.13 473.37,-241.5 473.98,-234.53"/>
</g>
<!-- Node20&#45;&gt;Node7 -->
<g id="edge42" class="edge">
<title>Node20&#45;&gt;Node7</title>
<path fill="none" stroke="midnightblue" d="M760.78,-336.43C752.76,-305.69 724.06,-198.23 693,-112 689.73,-102.91 685.6,-93 682.04,-84.8"/>
<polygon fill="midnightblue" stroke="midnightblue" points="685.17,-83.24 677.92,-75.52 678.78,-86.08 685.17,-83.24"/>
</g>
<!-- Node20&#45;&gt;Node18 -->
<g id="edge44" class="edge">
<title>Node20&#45;&gt;Node18</title>
<path fill="none" stroke="midnightblue" d="M721.38,-338.11C657.61,-327.54 536.66,-307.51 475.08,-297.31"/>
<polygon fill="midnightblue" stroke="midnightblue" points="475.45,-293.82 465.01,-295.64 474.31,-300.73 475.45,-293.82"/>
</g>
<!-- Node21&#45;&gt;Node3 -->
<g id="edge46" class="edge">
<title>Node21&#45;&gt;Node3</title>
<path fill="none" stroke="midnightblue" d="M663.55,-508.03C737.67,-495.12 921,-457.66 921,-403 921,-403 921,-403 921,-121 921,-42.58 806.86,-20.05 744.14,-13.59"/>
<polygon fill="midnightblue" stroke="midnightblue" points="744.46,-10.1 734.17,-12.65 743.8,-17.07 744.46,-10.1"/>
</g>
<!-- Node21&#45;&gt;Node4 -->
<g id="edge55" class="edge">
<title>Node21&#45;&gt;Node4</title>
<path fill="none" stroke="midnightblue" d="M642.48,-504.32C651.2,-496.34 664.34,-484.31 674.9,-474.65"/>
<polygon fill="midnightblue" stroke="midnightblue" points="677.33,-477.17 682.35,-467.83 672.61,-472 677.33,-477.17"/>
</g>
<!-- Node22 -->
<g id="node22" class="node">
<title>Node22</title>
<g id="a_node22"><a xlink:href="file__manager_8h.html" target="_top" xlink:title=" ">
<polygon fill="white" stroke="black" points="575.5,-336.5 575.5,-355.5 664.5,-355.5 664.5,-336.5 575.5,-336.5"/>
<text text-anchor="middle" x="620" y="-343.5" font-family="Helvetica,sans-Serif" font-size="10.00">file_manager.h</text>
</a>
</g>
</g>
<!-- Node21&#45;&gt;Node22 -->
<g id="edge47" class="edge">
<title>Node21&#45;&gt;Node22</title>
<path fill="none" stroke="midnightblue" d="M632.3,-504.08C630.25,-477.95 624.25,-401.21 621.45,-365.58"/>
<polygon fill="midnightblue" stroke="midnightblue" points="624.94,-365.26 620.67,-355.57 617.96,-365.81 624.94,-365.26"/>
</g>
<!-- Node25 -->
<g id="node25" class="node">
<title>Node25</title>
<g id="a_node25"><a xlink:href="human__player_8h.html" target="_top" xlink:title=" ">
<polygon fill="white" stroke="black" points="492.5,-448.5 492.5,-467.5 587.5,-467.5 587.5,-448.5 492.5,-448.5"/>
<text text-anchor="middle" x="540" y="-455.5" font-family="Helvetica,sans-Serif" font-size="10.00">human_player.h</text>
</a>
</g>
</g>
<!-- Node21&#45;&gt;Node25 -->
<g id="edge53" class="edge">
<title>Node21&#45;&gt;Node25</title>
<path fill="none" stroke="midnightblue" d="M618.06,-504.32C603.41,-495.82 580.87,-482.73 563.76,-472.8"/>
<polygon fill="midnightblue" stroke="midnightblue" points="565.31,-469.65 554.9,-467.65 561.8,-475.7 565.31,-469.65"/>
</g>
<!-- Node22&#45;&gt;Node3 -->
<g id="edge48" class="edge">
<title>Node22&#45;&gt;Node3</title>
<path fill="none" stroke="midnightblue" d="M624.1,-336.45C639.53,-303.7 693.87,-182.69 707,-76 708.9,-60.56 707.89,-42.93 706.55,-29.93"/>
<polygon fill="midnightblue" stroke="midnightblue" points="710.01,-29.38 705.35,-19.87 703.06,-30.21 710.01,-29.38"/>
</g>
<!-- Node22&#45;&gt;Node6 -->
<g id="edge51" class="edge">
<title>Node22&#45;&gt;Node6</title>
<path fill="none" stroke="midnightblue" d="M593.11,-336.49C570.53,-328.73 537.9,-316.04 512,-300 489.26,-285.92 466.52,-265.01 452.14,-250.73"/>
<polygon fill="midnightblue" stroke="midnightblue" points="454.58,-248.23 445.06,-243.57 449.6,-253.15 454.58,-248.23"/>
</g>
<!-- Node22&#45;&gt;Node18 -->
<g id="edge52" class="edge">
<title>Node22&#45;&gt;Node18</title>
<path fill="none" stroke="midnightblue" d="M591,-336.44C559.63,-327.19 509.48,-312.39 474.99,-302.21"/>
<polygon fill="midnightblue" stroke="midnightblue" points="475.84,-298.81 465.26,-299.34 473.86,-305.53 475.84,-298.81"/>
</g>
<!-- Node23 -->
<g id="node23" class="node">
<title>Node23</title>
<g id="a_node23"><a xlink:title=" ">
<polygon fill="white" stroke="#bfbfbf" points="521.5,-280.5 521.5,-299.5 576.5,-299.5 576.5,-280.5 521.5,-280.5"/>
<text text-anchor="middle" x="549" y="-287.5" font-family="Helvetica,sans-Serif" font-size="10.00">fstream</text>
</a>
</g>
</g>
<!-- Node22&#45;&gt;Node23 -->
<g id="edge49" class="edge">
<title>Node22&#45;&gt;Node23</title>
<path fill="none" stroke="midnightblue" d="M608.59,-336.32C597.89,-328.18 581.66,-315.84 568.84,-306.09"/>
<polygon fill="midnightblue" stroke="midnightblue" points="570.69,-303.1 560.61,-299.83 566.46,-308.67 570.69,-303.1"/>
</g>
<!-- Node24 -->
<g id="node24" class="node">
<title>Node24</title>
<g id="a_node24"><a xlink:title=" ">
<polygon fill="white" stroke="#bfbfbf" points="595,-280.5 595,-299.5 627,-299.5 627,-280.5 595,-280.5"/>
<text text-anchor="middle" x="611" y="-287.5" font-family="Helvetica,sans-Serif" font-size="10.00">set</text>
</a>
</g>
</g>
<!-- Node22&#45;&gt;Node24 -->
<g id="edge50" class="edge">
<title>Node22&#45;&gt;Node24</title>
<path fill="none" stroke="midnightblue" d="M618.51,-336.08C617.32,-328.93 615.61,-318.64 614.12,-309.69"/>
<polygon fill="midnightblue" stroke="midnightblue" points="617.55,-309.04 612.46,-299.75 610.65,-310.19 617.55,-309.04"/>
</g>
<!-- Node25&#45;&gt;Node18 -->
<g id="edge54" class="edge">
<title>Node25&#45;&gt;Node18</title>
<path fill="none" stroke="midnightblue" d="M534.46,-448.08C518.04,-421.61 469.39,-343.21 447.68,-308.21"/>
<polygon fill="midnightblue" stroke="midnightblue" points="450.56,-306.22 442.32,-299.57 444.61,-309.91 450.56,-306.22"/>
</g>
<!-- Node26&#45;&gt;Node18 -->
<g id="edge57" class="edge">
<title>Node26&#45;&gt;Node18</title>
<path fill="none" stroke="midnightblue" d="M336.16,-392.49C335.29,-379.11 335.51,-352.95 348,-336 360.45,-319.11 381.07,-308.12 399.32,-301.24"/>
<polygon fill="midnightblue" stroke="midnightblue" points="400.58,-304.51 408.87,-297.91 398.28,-297.89 400.58,-304.51"/>
</g>
<!-- Node26&#45;&gt;Node19 -->
<g id="edge58" class="edge">
<title>Node26&#45;&gt;Node19</title>
<path fill="none" stroke="midnightblue" d="M344.76,-392.08C351.54,-384.3 361.54,-372.8 369.76,-363.37"/>
<polygon fill="midnightblue" stroke="midnightblue" points="372.46,-365.59 376.38,-355.75 367.18,-361 372.46,-365.59"/>
</g>
<!-- Node27&#45;&gt;Node18 -->
<g id="edge60" class="edge">
<title>Node27&#45;&gt;Node18</title>
<path fill="none" stroke="midnightblue" d="M256.32,-392.45C272.58,-379.25 305.43,-353.6 336,-336 358.16,-323.24 384.6,-311.58 404.87,-303.32"/>
<polygon fill="midnightblue" stroke="midnightblue" points="406.3,-306.52 414.28,-299.55 403.7,-300.02 406.3,-306.52"/>
</g>
<!-- Node27&#45;&gt;Node19 -->
<g id="edge61" class="edge">
<title>Node27&#45;&gt;Node19</title>
<path fill="none" stroke="midnightblue" d="M267.87,-392.44C290.78,-383.48 326.98,-369.31 352.87,-359.18"/>
<polygon fill="midnightblue" stroke="midnightblue" points="354.2,-362.42 362.24,-355.52 351.65,-355.9 354.2,-362.42"/>
</g>
<!-- Node28&#45;&gt;Node18 -->
<g id="edge63" class="edge">
<title>Node28&#45;&gt;Node18</title>
<path fill="none" stroke="midnightblue" d="M431.47,-392.37C432.44,-374.62 434.67,-333.67 435.99,-309.6"/>
<polygon fill="midnightblue" stroke="midnightblue" points="439.48,-309.77 436.53,-299.59 432.49,-309.39 439.48,-309.77"/>
</g>
<!-- Node28&#45;&gt;Node19 -->
<g id="edge64" class="edge">
<title>Node28&#45;&gt;Node19</title>
<path fill="none" stroke="midnightblue" d="M423.24,-392.08C416.46,-384.3 406.46,-372.8 398.24,-363.37"/>
<polygon fill="midnightblue" stroke="midnightblue" points="400.82,-361 391.62,-355.75 395.54,-365.59 400.82,-361"/>
</g>
</g>
</svg>
