<?xml version="1.0" encoding="UTF-8" standalone="no"?>
<!DOCTYPE svg PUBLIC "-//W3C//DTD SVG 1.1//EN"
 "http://www.w3.org/Graphics/SVG/1.1/DTD/svg11.dtd">
<!-- Generated by graphviz version 2.43.0 (0)
 -->
<!-- Title: src/minimax.cpp Pages: 1 -->
<svg width="777pt" height="476pt"
 viewBox="0.00 0.00 777.00 476.00" xmlns="http://www.w3.org/2000/svg" xmlns:xlink="http://www.w3.org/1999/xlink">
<g id="graph0" class="graph" transform="scale(1 1) rotate(0) translate(4 472)">
<title>src/minimax.cpp</title>
<polygon fill="white" stroke="transparent" points="-4,4 -4,-472 773,-472 773,4 -4,4"/>
<!-- Node1 -->
<g id="node1" class="node">
<title>Node1</title>
<g id="a_node1"><a xlink:title=" ">
<polygon fill="#bfbfbf" stroke="black" points="431,-448.5 431,-467.5 529,-467.5 529,-448.5 431,-448.5"/>
<text text-anchor="middle" x="480" y="-455.5" font-family="Helvetica,sans-Serif" font-size="10.00">src/minimax.cpp</text>
</a>
</g>
</g>
<!-- Node2 -->
<g id="node2" class="node">
<title>Node2</title>
<g id="a_node2"><a xlink:href="minimax_8h.html" target="_top" xlink:title=" ">
<polygon fill="white" stroke="black" points="445.5,-392.5 445.5,-411.5 514.5,-411.5 514.5,-392.5 445.5,-392.5"/>
<text text-anchor="middle" x="480" y="-399.5" font-family="Helvetica,sans-Serif" font-size="10.00">minimax.h</text>
</a>
</g>
</g>
<!-- Node1&#45;&gt;Node2 -->
<g id="edge1" class="edge">
<title>Node1&#45;&gt;Node2</title>
<path fill="none" stroke="midnightblue" d="M480,-448.08C480,-441.01 480,-430.86 480,-421.99"/>
<polygon fill="midnightblue" stroke="midnightblue" points="483.5,-421.75 480,-411.75 476.5,-421.75 483.5,-421.75"/>
</g>
<!-- Node18 -->
<g id="node18" class="node">
<title>Node18</title>
<g id="a_node18"><a xlink:href="rules_8h.html" target="_top" xlink:title=" ">
<polygon fill="white" stroke="black" points="371,-392.5 371,-411.5 421,-411.5 421,-392.5 371,-392.5"/>
<text text-anchor="middle" x="396" y="-399.5" font-family="Helvetica,sans-Serif" font-size="10.00">rules.h</text>
</a>
</g>
</g>
<!-- Node1&#45;&gt;Node18 -->
<g id="edge33" class="edge">
<title>Node1&#45;&gt;Node18</title>
<path fill="none" stroke="midnightblue" d="M466.5,-448.32C453.4,-439.9 433.29,-426.97 417.89,-417.07"/>
<polygon fill="midnightblue" stroke="midnightblue" points="419.77,-414.12 409.46,-411.65 415.98,-420.01 419.77,-414.12"/>
</g>
<!-- Node19 -->
<g id="node19" class="node">
<title>Node19</title>
<g id="a_node19"><a xlink:href="validate_8h.html" target="_top" xlink:title=" ">
<polygon fill="white" stroke="black" points="517.5,-336.5 517.5,-355.5 582.5,-355.5 582.5,-336.5 517.5,-336.5"/>
<text text-anchor="middle" x="550" y="-343.5" font-family="Helvetica,sans-Serif" font-size="10.00">validate.h</text>
</a>
</g>
</g>
<!-- Node1&#45;&gt;Node19 -->
<g id="edge38" class="edge">
<title>Node1&#45;&gt;Node19</title>
<path fill="none" stroke="midnightblue" d="M490.64,-448.3C500.39,-439.87 514.7,-426.28 524,-412 533.53,-397.37 540.55,-378.7 544.87,-365.13"/>
<polygon fill="midnightblue" stroke="midnightblue" points="548.24,-366.09 547.76,-355.51 541.54,-364.08 548.24,-366.09"/>
</g>
<!-- Node3 -->
<g id="node3" class="node">
<title>Node3</title>
<g id="a_node3"><a xlink:href="player_8h.html" target="_top" xlink:title=" ">
<polygon fill="white" stroke="black" points="461,-280.5 461,-299.5 517,-299.5 517,-280.5 461,-280.5"/>
<text text-anchor="middle" x="489" y="-287.5" font-family="Helvetica,sans-Serif" font-size="10.00">player.h</text>
</a>
</g>
</g>
<!-- Node2&#45;&gt;Node3 -->
<g id="edge2" class="edge">
<title>Node2&#45;&gt;Node3</title>
<path fill="none" stroke="midnightblue" d="M480.71,-392.37C482.16,-374.62 485.51,-333.67 487.48,-309.6"/>
<polygon fill="midnightblue" stroke="midnightblue" points="490.97,-309.84 488.3,-299.59 483.99,-309.27 490.97,-309.84"/>
</g>
<!-- Node17 -->
<g id="node17" class="node">
<title>Node17</title>
<g id="a_node17"><a xlink:href="move_8h.html" target="_top" xlink:title=" ">
<polygon fill="white" stroke="black" points="369.5,-336.5 369.5,-355.5 422.5,-355.5 422.5,-336.5 369.5,-336.5"/>
<text text-anchor="middle" x="396" y="-343.5" font-family="Helvetica,sans-Serif" font-size="10.00">move.h</text>
</a>
</g>
</g>
<!-- Node2&#45;&gt;Node17 -->
<g id="edge29" class="edge">
<title>Node2&#45;&gt;Node17</title>
<path fill="none" stroke="midnightblue" d="M466.5,-392.32C453.4,-383.9 433.29,-370.97 417.89,-361.07"/>
<polygon fill="midnightblue" stroke="midnightblue" points="419.77,-358.12 409.46,-355.65 415.98,-364.01 419.77,-358.12"/>
</g>
<!-- Node4 -->
<g id="node4" class="node">
<title>Node4</title>
<g id="a_node4"><a xlink:title=" ">
<polygon fill="white" stroke="#bfbfbf" points="162,-0.5 162,-19.5 222,-19.5 222,-0.5 162,-0.5"/>
<text text-anchor="middle" x="192" y="-7.5" font-family="Helvetica,sans-Serif" font-size="10.00">iostream</text>
</a>
</g>
</g>
<!-- Node3&#45;&gt;Node4 -->
<g id="edge3" class="edge">
<title>Node3&#45;&gt;Node4</title>
<path fill="none" stroke="midnightblue" d="M517.23,-288.81C581.07,-286.74 731,-271.99 731,-179 731,-179 731,-179 731,-121 731,-86.36 717.74,-73.76 688,-56 649.26,-32.86 343.85,-17.53 232.47,-12.67"/>
<polygon fill="midnightblue" stroke="midnightblue" points="232.45,-9.16 222.31,-12.23 232.15,-16.16 232.45,-9.16"/>
</g>
<!-- Node5 -->
<g id="node5" class="node">
<title>Node5</title>
<g id="a_node5"><a xlink:title=" ">
<polygon fill="white" stroke="#bfbfbf" points="631.5,-56.5 631.5,-75.5 678.5,-75.5 678.5,-56.5 631.5,-56.5"/>
<text text-anchor="middle" x="655" y="-63.5" font-family="Helvetica,sans-Serif" font-size="10.00">vector</text>
</a>
</g>
</g>
<!-- Node3&#45;&gt;Node5 -->
<g id="edge4" class="edge">
<title>Node3&#45;&gt;Node5</title>
<path fill="none" stroke="midnightblue" d="M514.21,-280.43C550.84,-266.69 618.46,-236.29 656,-188 677.24,-160.67 679.55,-145.99 673,-112 671.21,-102.7 667.52,-92.89 663.94,-84.8"/>
<polygon fill="midnightblue" stroke="midnightblue" points="667.06,-83.21 659.62,-75.66 660.73,-86.2 667.06,-83.21"/>
</g>
<!-- Node6 -->
<g id="node6" class="node">
<title>Node6</title>
<g id="a_node6"><a xlink:href="board_8h.html" target="_top" xlink:title=" ">
<polygon fill="white" stroke="black" points="369.5,-224.5 369.5,-243.5 422.5,-243.5 422.5,-224.5 369.5,-224.5"/>
<text text-anchor="middle" x="396" y="-231.5" font-family="Helvetica,sans-Serif" font-size="10.00">board.h</text>
</a>
</g>
</g>
<!-- Node3&#45;&gt;Node6 -->
<g id="edge5" class="edge">
<title>Node3&#45;&gt;Node6</title>
<path fill="none" stroke="midnightblue" d="M474.06,-280.32C459.41,-271.82 436.87,-258.73 419.76,-248.8"/>
<polygon fill="midnightblue" stroke="midnightblue" points="421.31,-245.65 410.9,-243.65 417.8,-251.7 421.31,-245.65"/>
</g>
<!-- Node6&#45;&gt;Node4 -->
<g id="edge6" class="edge">
<title>Node6&#45;&gt;Node4</title>
<path fill="none" stroke="midnightblue" d="M369.14,-232.82C306.33,-231.76 152.72,-225.33 121,-188 78.9,-138.46 143.16,-60.78 175.38,-27.28"/>
<polygon fill="midnightblue" stroke="midnightblue" points="178.27,-29.33 182.8,-19.75 173.28,-24.42 178.27,-29.33"/>
</g>
<!-- Node6&#45;&gt;Node5 -->
<g id="edge7" class="edge">
<title>Node6&#45;&gt;Node5</title>
<path fill="none" stroke="midnightblue" d="M422.87,-231.75C479.18,-228.56 606.77,-218.11 636,-188 662.57,-160.63 661.23,-112.21 658.05,-85.68"/>
<polygon fill="midnightblue" stroke="midnightblue" points="661.52,-85.18 656.65,-75.77 654.59,-86.16 661.52,-85.18"/>
</g>
<!-- Node7 -->
<g id="node7" class="node">
<title>Node7</title>
<g id="a_node7"><a xlink:href="square_8h.html" target="_top" xlink:title=" ">
<polygon fill="white" stroke="black" points="142.5,-168.5 142.5,-187.5 201.5,-187.5 201.5,-168.5 142.5,-168.5"/>
<text text-anchor="middle" x="172" y="-175.5" font-family="Helvetica,sans-Serif" font-size="10.00">square.h</text>
</a>
</g>
</g>
<!-- Node6&#45;&gt;Node7 -->
<g id="edge8" class="edge">
<title>Node6&#45;&gt;Node7</title>
<path fill="none" stroke="midnightblue" d="M369.42,-226.59C330.31,-217.17 256.99,-199.49 211.55,-188.53"/>
<polygon fill="midnightblue" stroke="midnightblue" points="212.28,-185.11 201.74,-186.17 210.64,-191.92 212.28,-185.11"/>
</g>
<!-- Node10 -->
<g id="node10" class="node">
<title>Node10</title>
<g id="a_node10"><a xlink:href="position_8h.html" target="_top" xlink:title=" ">
<polygon fill="white" stroke="black" points="190.5,-56.5 190.5,-75.5 255.5,-75.5 255.5,-56.5 190.5,-56.5"/>
<text text-anchor="middle" x="223" y="-63.5" font-family="Helvetica,sans-Serif" font-size="10.00">position.h</text>
</a>
</g>
</g>
<!-- Node6&#45;&gt;Node10 -->
<g id="edge16" class="edge">
<title>Node6&#45;&gt;Node10</title>
<path fill="none" stroke="midnightblue" d="M369.41,-232.6C308.75,-231.07 163.09,-223.68 133,-188 101.65,-150.82 163.18,-103.89 199.31,-80.93"/>
<polygon fill="midnightblue" stroke="midnightblue" points="201.21,-83.87 207.88,-75.63 197.53,-77.92 201.21,-83.87"/>
</g>
<!-- Node11 -->
<g id="node11" class="node">
<title>Node11</title>
<g id="a_node11"><a xlink:href="pawn_8h.html" target="_top" xlink:title=" ">
<polygon fill="white" stroke="black" points="370,-168.5 370,-187.5 422,-187.5 422,-168.5 370,-168.5"/>
<text text-anchor="middle" x="396" y="-175.5" font-family="Helvetica,sans-Serif" font-size="10.00">pawn.h</text>
</a>
</g>
</g>
<!-- Node6&#45;&gt;Node11 -->
<g id="edge17" class="edge">
<title>Node6&#45;&gt;Node11</title>
<path fill="none" stroke="midnightblue" d="M396,-224.08C396,-217.01 396,-206.86 396,-197.99"/>
<polygon fill="midnightblue" stroke="midnightblue" points="399.5,-197.75 396,-187.75 392.5,-197.75 399.5,-197.75"/>
</g>
<!-- Node12 -->
<g id="node12" class="node">
<title>Node12</title>
<g id="a_node12"><a xlink:href="queen_8h.html" target="_top" xlink:title=" ">
<polygon fill="white" stroke="black" points="440,-168.5 440,-187.5 496,-187.5 496,-168.5 440,-168.5"/>
<text text-anchor="middle" x="468" y="-175.5" font-family="Helvetica,sans-Serif" font-size="10.00">queen.h</text>
</a>
</g>
</g>
<!-- Node6&#45;&gt;Node12 -->
<g id="edge19" class="edge">
<title>Node6&#45;&gt;Node12</title>
<path fill="none" stroke="midnightblue" d="M407.57,-224.32C418.42,-216.18 434.88,-203.84 447.88,-194.09"/>
<polygon fill="midnightblue" stroke="midnightblue" points="450.32,-196.63 456.22,-187.83 446.12,-191.03 450.32,-196.63"/>
</g>
<!-- Node13 -->
<g id="node13" class="node">
<title>Node13</title>
<g id="a_node13"><a xlink:href="king_8h.html" target="_top" xlink:title=" ">
<polygon fill="white" stroke="black" points="514.5,-168.5 514.5,-187.5 561.5,-187.5 561.5,-168.5 514.5,-168.5"/>
<text text-anchor="middle" x="538" y="-175.5" font-family="Helvetica,sans-Serif" font-size="10.00">king.h</text>
</a>
</g>
</g>
<!-- Node6&#45;&gt;Node13 -->
<g id="edge21" class="edge">
<title>Node6&#45;&gt;Node13</title>
<path fill="none" stroke="midnightblue" d="M418.5,-224.44C442.08,-215.48 479.32,-201.31 505.96,-191.18"/>
<polygon fill="midnightblue" stroke="midnightblue" points="507.5,-194.34 515.6,-187.52 505.01,-187.8 507.5,-194.34"/>
</g>
<!-- Node14 -->
<g id="node14" class="node">
<title>Node14</title>
<g id="a_node14"><a xlink:href="rook_8h.html" target="_top" xlink:title=" ">
<polygon fill="white" stroke="black" points="579.5,-168.5 579.5,-187.5 626.5,-187.5 626.5,-168.5 579.5,-168.5"/>
<text text-anchor="middle" x="603" y="-175.5" font-family="Helvetica,sans-Serif" font-size="10.00">rook.h</text>
</a>
</g>
</g>
<!-- Node6&#45;&gt;Node14 -->
<g id="edge23" class="edge">
<title>Node6&#45;&gt;Node14</title>
<path fill="none" stroke="midnightblue" d="M422.73,-226.32C455.22,-218.17 511.95,-203.79 569.3,-188.42"/>
<polygon fill="midnightblue" stroke="midnightblue" points="570.5,-191.72 579.25,-185.74 568.68,-184.96 570.5,-191.72"/>
</g>
<!-- Node15 -->
<g id="node15" class="node">
<title>Node15</title>
<g id="a_node15"><a xlink:href="bishop_8h.html" target="_top" xlink:title=" ">
<polygon fill="white" stroke="black" points="220,-168.5 220,-187.5 278,-187.5 278,-168.5 220,-168.5"/>
<text text-anchor="middle" x="249" y="-175.5" font-family="Helvetica,sans-Serif" font-size="10.00">bishop.h</text>
</a>
</g>
</g>
<!-- Node6&#45;&gt;Node15 -->
<g id="edge25" class="edge">
<title>Node6&#45;&gt;Node15</title>
<path fill="none" stroke="midnightblue" d="M372.71,-224.44C348.19,-215.44 309.4,-201.19 281.8,-191.05"/>
<polygon fill="midnightblue" stroke="midnightblue" points="282.78,-187.68 272.18,-187.52 280.36,-194.25 282.78,-187.68"/>
</g>
<!-- Node16 -->
<g id="node16" class="node">
<title>Node16</title>
<g id="a_node16"><a xlink:href="knight_8h.html" target="_top" xlink:title=" ">
<polygon fill="white" stroke="black" points="296,-168.5 296,-187.5 352,-187.5 352,-168.5 296,-168.5"/>
<text text-anchor="middle" x="324" y="-175.5" font-family="Helvetica,sans-Serif" font-size="10.00">knight.h</text>
</a>
</g>
</g>
<!-- Node6&#45;&gt;Node16 -->
<g id="edge27" class="edge">
<title>Node6&#45;&gt;Node16</title>
<path fill="none" stroke="midnightblue" d="M384.43,-224.32C373.58,-216.18 357.12,-203.84 344.12,-194.09"/>
<polygon fill="midnightblue" stroke="midnightblue" points="345.88,-191.03 335.78,-187.83 341.68,-196.63 345.88,-191.03"/>
</g>
<!-- Node7&#45;&gt;Node4 -->
<g id="edge9" class="edge">
<title>Node7&#45;&gt;Node4</title>
<path fill="none" stroke="midnightblue" d="M172.15,-168.44C172.61,-148.56 174.38,-97.82 181,-56 182.4,-47.15 184.66,-37.49 186.78,-29.39"/>
<polygon fill="midnightblue" stroke="midnightblue" points="190.21,-30.11 189.46,-19.54 183.45,-28.27 190.21,-30.11"/>
</g>
<!-- Node8 -->
<g id="node8" class="node">
<title>Node8</title>
<g id="a_node8"><a xlink:title=" ">
<polygon fill="white" stroke="#bfbfbf" points="190,-112.5 190,-131.5 248,-131.5 248,-112.5 190,-112.5"/>
<text text-anchor="middle" x="219" y="-119.5" font-family="Helvetica,sans-Serif" font-size="10.00">memory</text>
</a>
</g>
</g>
<!-- Node7&#45;&gt;Node8 -->
<g id="edge10" class="edge">
<title>Node7&#45;&gt;Node8</title>
<path fill="none" stroke="midnightblue" d="M179.76,-168.08C186.54,-160.3 196.54,-148.8 204.76,-139.37"/>
<polygon fill="midnightblue" stroke="midnightblue" points="207.46,-141.59 211.38,-131.75 202.18,-137 207.46,-141.59"/>
</g>
<!-- Node9 -->
<g id="node9" class="node">
<title>Node9</title>
<g id="a_node9"><a xlink:href="piece_8h.html" target="_top" xlink:title=" ">
<polygon fill="white" stroke="black" points="342,-112.5 342,-131.5 394,-131.5 394,-112.5 342,-112.5"/>
<text text-anchor="middle" x="368" y="-119.5" font-family="Helvetica,sans-Serif" font-size="10.00">piece.h</text>
</a>
</g>
</g>
<!-- Node7&#45;&gt;Node9 -->
<g id="edge11" class="edge">
<title>Node7&#45;&gt;Node9</title>
<path fill="none" stroke="midnightblue" d="M201.77,-168.8C236.62,-159.2 294.32,-143.3 331.74,-132.99"/>
<polygon fill="midnightblue" stroke="midnightblue" points="333.01,-136.27 341.73,-130.24 331.16,-129.52 333.01,-136.27"/>
</g>
<!-- Node9&#45;&gt;Node4 -->
<g id="edge12" class="edge">
<title>Node9&#45;&gt;Node4</title>
<path fill="none" stroke="midnightblue" d="M354.19,-112.37C323.86,-93.41 251.2,-48 214.31,-24.94"/>
<polygon fill="midnightblue" stroke="midnightblue" points="216.08,-21.92 205.75,-19.59 212.37,-27.86 216.08,-21.92"/>
</g>
<!-- Node9&#45;&gt;Node5 -->
<g id="edge13" class="edge">
<title>Node9&#45;&gt;Node5</title>
<path fill="none" stroke="midnightblue" d="M394.23,-116.06C446.47,-106.24 563.44,-84.23 621.28,-73.34"/>
<polygon fill="midnightblue" stroke="midnightblue" points="622.19,-76.74 631.37,-71.45 620.89,-69.86 622.19,-76.74"/>
</g>
<!-- Node9&#45;&gt;Node10 -->
<g id="edge14" class="edge">
<title>Node9&#45;&gt;Node10</title>
<path fill="none" stroke="midnightblue" d="M345.02,-112.44C320.84,-103.44 282.58,-89.19 255.35,-79.05"/>
<polygon fill="midnightblue" stroke="midnightblue" points="256.46,-75.73 245.87,-75.52 254.02,-82.29 256.46,-75.73"/>
</g>
<!-- Node10&#45;&gt;Node4 -->
<g id="edge15" class="edge">
<title>Node10&#45;&gt;Node4</title>
<path fill="none" stroke="midnightblue" d="M217.88,-56.08C213.59,-48.61 207.34,-37.72 202.06,-28.52"/>
<polygon fill="midnightblue" stroke="midnightblue" points="205.04,-26.68 197.02,-19.75 198.97,-30.17 205.04,-26.68"/>
</g>
<!-- Node11&#45;&gt;Node9 -->
<g id="edge18" class="edge">
<title>Node11&#45;&gt;Node9</title>
<path fill="none" stroke="midnightblue" d="M391.38,-168.08C387.54,-160.69 381.98,-149.95 377.24,-140.81"/>
<polygon fill="midnightblue" stroke="midnightblue" points="380.25,-139.02 372.54,-131.75 374.03,-142.24 380.25,-139.02"/>
</g>
<!-- Node12&#45;&gt;Node9 -->
<g id="edge20" class="edge">
<title>Node12&#45;&gt;Node9</title>
<path fill="none" stroke="midnightblue" d="M451.93,-168.32C436.04,-159.74 411.49,-146.49 393.04,-136.52"/>
<polygon fill="midnightblue" stroke="midnightblue" points="394.49,-133.33 384.03,-131.65 391.16,-139.49 394.49,-133.33"/>
</g>
<!-- Node13&#45;&gt;Node9 -->
<g id="edge22" class="edge">
<title>Node13&#45;&gt;Node9</title>
<path fill="none" stroke="midnightblue" d="M514.36,-169.49C485.75,-160.4 437.29,-145.01 404.02,-134.44"/>
<polygon fill="midnightblue" stroke="midnightblue" points="404.82,-131.02 394.22,-131.33 402.7,-137.69 404.82,-131.02"/>
</g>
<!-- Node14&#45;&gt;Node9 -->
<g id="edge24" class="edge">
<title>Node14&#45;&gt;Node9</title>
<path fill="none" stroke="midnightblue" d="M579.27,-170.17C576.49,-169.41 573.69,-168.68 571,-168 512.87,-153.39 444.74,-138.8 404.05,-130.35"/>
<polygon fill="midnightblue" stroke="midnightblue" points="404.57,-126.89 394.07,-128.29 403.15,-133.74 404.57,-126.89"/>
</g>
<!-- Node15&#45;&gt;Node9 -->
<g id="edge26" class="edge">
<title>Node15&#45;&gt;Node9</title>
<path fill="none" stroke="midnightblue" d="M267.86,-168.44C287.27,-159.64 317.73,-145.81 339.96,-135.72"/>
<polygon fill="midnightblue" stroke="midnightblue" points="341.57,-138.84 349.23,-131.52 338.68,-132.46 341.57,-138.84"/>
</g>
<!-- Node16&#45;&gt;Node9 -->
<g id="edge28" class="edge">
<title>Node16&#45;&gt;Node9</title>
<path fill="none" stroke="midnightblue" d="M331.27,-168.08C337.54,-160.38 346.79,-149.03 354.43,-139.65"/>
<polygon fill="midnightblue" stroke="midnightblue" points="357.27,-141.71 360.87,-131.75 351.84,-137.29 357.27,-141.71"/>
</g>
<!-- Node17&#45;&gt;Node3 -->
<g id="edge32" class="edge">
<title>Node17&#45;&gt;Node3</title>
<path fill="none" stroke="midnightblue" d="M410.94,-336.32C425.59,-327.82 448.13,-314.73 465.24,-304.8"/>
<polygon fill="midnightblue" stroke="midnightblue" points="467.2,-307.7 474.1,-299.65 463.69,-301.65 467.2,-307.7"/>
</g>
<!-- Node17&#45;&gt;Node4 -->
<g id="edge30" class="edge">
<title>Node17&#45;&gt;Node4</title>
<path fill="none" stroke="midnightblue" d="M369.38,-342.62C286.42,-334.48 38,-304.33 38,-235 38,-235 38,-235 38,-121 38,-64.83 106.68,-34.63 152.31,-20.76"/>
<polygon fill="midnightblue" stroke="midnightblue" points="153.31,-24.11 161.94,-17.96 151.36,-17.39 153.31,-24.11"/>
</g>
<!-- Node17&#45;&gt;Node6 -->
<g id="edge31" class="edge">
<title>Node17&#45;&gt;Node6</title>
<path fill="none" stroke="midnightblue" d="M396,-336.37C396,-318.62 396,-277.67 396,-253.6"/>
<polygon fill="midnightblue" stroke="midnightblue" points="399.5,-253.59 396,-243.59 392.5,-253.59 399.5,-253.59"/>
</g>
<!-- Node18&#45;&gt;Node3 -->
<g id="edge36" class="edge">
<title>Node18&#45;&gt;Node3</title>
<path fill="none" stroke="midnightblue" d="M403.3,-392.37C418.78,-374.05 455.14,-331.05 475.17,-307.36"/>
<polygon fill="midnightblue" stroke="midnightblue" points="477.95,-309.49 481.74,-299.59 472.61,-304.97 477.95,-309.49"/>
</g>
<!-- Node18&#45;&gt;Node4 -->
<g id="edge34" class="edge">
<title>Node18&#45;&gt;Node4</title>
<path fill="none" stroke="midnightblue" d="M370.93,-399.49C283.88,-393.57 0,-368.33 0,-291 0,-291 0,-291 0,-121 0,-51.74 95.22,-25.48 151.54,-16"/>
<polygon fill="midnightblue" stroke="midnightblue" points="152.24,-19.43 161.58,-14.42 151.15,-12.52 152.24,-19.43"/>
</g>
<!-- Node18&#45;&gt;Node6 -->
<g id="edge35" class="edge">
<title>Node18&#45;&gt;Node6</title>
<path fill="none" stroke="midnightblue" d="M385.84,-392.19C377.09,-383.87 365.1,-370.54 360,-356 347.18,-319.46 369.2,-275.73 384.08,-252.13"/>
<polygon fill="midnightblue" stroke="midnightblue" points="387.12,-253.87 389.71,-243.6 381.28,-250.02 387.12,-253.87"/>
</g>
<!-- Node18&#45;&gt;Node17 -->
<g id="edge37" class="edge">
<title>Node18&#45;&gt;Node17</title>
<path fill="none" stroke="midnightblue" d="M396,-392.08C396,-385.01 396,-374.86 396,-365.99"/>
<polygon fill="midnightblue" stroke="midnightblue" points="399.5,-365.75 396,-355.75 392.5,-365.75 399.5,-365.75"/>
</g>
<!-- Node19&#45;&gt;Node3 -->
<g id="edge41" class="edge">
<title>Node19&#45;&gt;Node3</title>
<path fill="none" stroke="midnightblue" d="M540.2,-336.32C531.18,-328.34 517.59,-316.31 506.68,-306.65"/>
<polygon fill="midnightblue" stroke="midnightblue" points="508.79,-303.84 498.98,-299.83 504.15,-309.08 508.79,-303.84"/>
</g>
<!-- Node19&#45;&gt;Node4 -->
<g id="edge39" class="edge">
<title>Node19&#45;&gt;Node4</title>
<path fill="none" stroke="midnightblue" d="M582.79,-343.25C643.88,-338.05 769,-317.33 769,-235 769,-235 769,-235 769,-121 769,-83.44 748.28,-73.4 715,-56 631.27,-12.23 340.08,-9.84 232.42,-10.52"/>
<polygon fill="midnightblue" stroke="midnightblue" points="232.26,-7.02 222.29,-10.59 232.32,-14.02 232.26,-7.02"/>
</g>
<!-- Node19&#45;&gt;Node6 -->
<g id="edge40" class="edge">
<title>Node19&#45;&gt;Node6</title>
<path fill="none" stroke="midnightblue" d="M549.12,-336.14C547.29,-322.29 541.81,-295.49 526,-280 500.85,-255.36 461.57,-244.18 432.76,-239.12"/>
<polygon fill="midnightblue" stroke="midnightblue" points="433.09,-235.63 422.67,-237.52 432,-242.55 433.09,-235.63"/>
</g>
</g>
</svg>
