<?xml version="1.0" encoding="UTF-8" standalone="no"?>
<!DOCTYPE svg PUBLIC "-//W3C//DTD SVG 1.1//EN"
 "http://www.w3.org/Graphics/SVG/1.1/DTD/svg11.dtd">
<!-- Generated by graphviz version 2.43.0 (0)
 -->
<!-- Title: src/move.h Pages: 1 -->
<svg width="761pt" height="308pt"
 viewBox="0.00 0.00 760.87 308.00" xmlns="http://www.w3.org/2000/svg" xmlns:xlink="http://www.w3.org/1999/xlink">
<g id="graph0" class="graph" transform="scale(1 1) rotate(0) translate(4 304)">
<title>src/move.h</title>
<polygon fill="white" stroke="transparent" points="-4,4 -4,-304 756.87,-304 756.87,4 -4,4"/>
<!-- Node1 -->
<g id="node1" class="node">
<title>Node1</title>
<g id="a_node1"><a xlink:title=" ">
<polygon fill="#bfbfbf" stroke="black" points="332.31,-280.5 332.31,-299.5 403.31,-299.5 403.31,-280.5 332.31,-280.5"/>
<text text-anchor="middle" x="367.81" y="-287.5" font-family="Helvetica,sans-Serif" font-size="10.00">src/move.h</text>
</a>
</g>
</g>
<!-- Node2 -->
<g id="node2" class="node">
<title>Node2</title>
<g id="a_node2"><a xlink:href="application_8h.html" target="_top" xlink:title=" ">
<polygon fill="white" stroke="black" points="288.31,-168.5 288.31,-187.5 385.31,-187.5 385.31,-168.5 288.31,-168.5"/>
<text text-anchor="middle" x="336.81" y="-175.5" font-family="Helvetica,sans-Serif" font-size="10.00">src/application.h</text>
</a>
</g>
</g>
<!-- Node1&#45;&gt;Node2 -->
<g id="edge1" class="edge">
<title>Node1&#45;&gt;Node2</title>
<path fill="none" stroke="midnightblue" d="M362.64,-270.67C355.87,-246.62 344.25,-205.39 339.23,-187.59"/>
<polygon fill="midnightblue" stroke="midnightblue" points="359.3,-271.69 365.38,-280.37 366.03,-269.79 359.3,-271.69"/>
</g>
<!-- Node9 -->
<g id="node9" class="node">
<title>Node9</title>
<g id="a_node9"><a xlink:href="custom__ai_8cpp.html" target="_top" xlink:title=" ">
<polygon fill="white" stroke="black" points="11.81,-168.5 11.81,-187.5 115.81,-187.5 115.81,-168.5 11.81,-168.5"/>
<text text-anchor="middle" x="63.81" y="-175.5" font-family="Helvetica,sans-Serif" font-size="10.00">src/custom_ai.cpp</text>
</a>
</g>
</g>
<!-- Node1&#45;&gt;Node9 -->
<g id="edge9" class="edge">
<title>Node1&#45;&gt;Node9</title>
<path fill="none" stroke="midnightblue" d="M322.22,-283.09C281.02,-276.74 219.28,-264.65 168.81,-244 131.9,-228.9 93.2,-201.43 74.79,-187.54"/>
<polygon fill="midnightblue" stroke="midnightblue" points="321.82,-286.57 332.23,-284.59 322.85,-279.65 321.82,-286.57"/>
</g>
<!-- Node10 -->
<g id="node10" class="node">
<title>Node10</title>
<g id="a_node10"><a xlink:href="custom__ai_8h.html" target="_top" xlink:title=" ">
<polygon fill="white" stroke="black" points="17.31,-224.5 17.31,-243.5 110.31,-243.5 110.31,-224.5 17.31,-224.5"/>
<text text-anchor="middle" x="63.81" y="-231.5" font-family="Helvetica,sans-Serif" font-size="10.00">src/custom_ai.h</text>
</a>
</g>
</g>
<!-- Node1&#45;&gt;Node10 -->
<g id="edge10" class="edge">
<title>Node1&#45;&gt;Node10</title>
<path fill="none" stroke="midnightblue" d="M321.86,-280.84C264.73,-270.69 167.76,-253.46 110.36,-243.27"/>
<polygon fill="midnightblue" stroke="midnightblue" points="321.58,-284.34 332.04,-282.65 322.81,-277.45 321.58,-284.34"/>
</g>
<!-- Node11 -->
<g id="node11" class="node">
<title>Node11</title>
<g id="a_node11"><a xlink:href="custom__ai2_8cpp.html" target="_top" xlink:title=" ">
<polygon fill="white" stroke="black" points="629.81,-168.5 629.81,-187.5 739.81,-187.5 739.81,-168.5 629.81,-168.5"/>
<text text-anchor="middle" x="684.81" y="-175.5" font-family="Helvetica,sans-Serif" font-size="10.00">src/custom_ai2.cpp</text>
</a>
</g>
</g>
<!-- Node1&#45;&gt;Node11 -->
<g id="edge13" class="edge">
<title>Node1&#45;&gt;Node11</title>
<path fill="none" stroke="midnightblue" d="M413.6,-287.61C486.59,-284.48 624.84,-274.59 661.81,-244 678.96,-229.81 683.33,-201.92 684.44,-187.74"/>
<polygon fill="midnightblue" stroke="midnightblue" points="413.18,-284.12 403.33,-288.02 413.46,-291.11 413.18,-284.12"/>
</g>
<!-- Node12 -->
<g id="node12" class="node">
<title>Node12</title>
<g id="a_node12"><a xlink:href="custom__ai2_8h.html" target="_top" xlink:title=" ">
<polygon fill="white" stroke="black" points="453.31,-224.5 453.31,-243.5 552.31,-243.5 552.31,-224.5 453.31,-224.5"/>
<text text-anchor="middle" x="502.81" y="-231.5" font-family="Helvetica,sans-Serif" font-size="10.00">src/custom_ai2.h</text>
</a>
</g>
</g>
<!-- Node1&#45;&gt;Node12 -->
<g id="edge14" class="edge">
<title>Node1&#45;&gt;Node12</title>
<path fill="none" stroke="midnightblue" d="M398.71,-276.64C424.05,-266.5 459.24,-252.43 481.52,-243.52"/>
<polygon fill="midnightblue" stroke="midnightblue" points="397.19,-273.48 389.2,-280.44 399.79,-279.98 397.19,-273.48"/>
</g>
<!-- Node13 -->
<g id="node13" class="node">
<title>Node13</title>
<g id="a_node13"><a xlink:href="minimax_8h.html" target="_top" xlink:title=" ">
<polygon fill="white" stroke="black" points="177.81,-224.5 177.81,-243.5 263.81,-243.5 263.81,-224.5 177.81,-224.5"/>
<text text-anchor="middle" x="220.81" y="-231.5" font-family="Helvetica,sans-Serif" font-size="10.00">src/minimax.h</text>
</a>
</g>
</g>
<!-- Node1&#45;&gt;Node13 -->
<g id="edge17" class="edge">
<title>Node1&#45;&gt;Node13</title>
<path fill="none" stroke="midnightblue" d="M334.89,-276.91C307.25,-266.75 268.47,-252.51 243.99,-243.52"/>
<polygon fill="midnightblue" stroke="midnightblue" points="333.92,-280.28 344.52,-280.44 336.34,-273.71 333.92,-280.28"/>
</g>
<!-- Node15 -->
<g id="node15" class="node">
<title>Node15</title>
<g id="a_node15"><a xlink:href="move_8cpp.html" target="_top" xlink:title=" ">
<polygon fill="white" stroke="black" points="570.81,-224.5 570.81,-243.5 652.81,-243.5 652.81,-224.5 570.81,-224.5"/>
<text text-anchor="middle" x="611.81" y="-231.5" font-family="Helvetica,sans-Serif" font-size="10.00">src/move.cpp</text>
</a>
</g>
</g>
<!-- Node1&#45;&gt;Node15 -->
<g id="edge20" class="edge">
<title>Node1&#45;&gt;Node15</title>
<path fill="none" stroke="midnightblue" d="M413.56,-278.88C459.6,-268.69 529.81,-253.15 573.15,-243.56"/>
<polygon fill="midnightblue" stroke="midnightblue" points="412.56,-275.51 403.55,-281.09 414.07,-282.35 412.56,-275.51"/>
</g>
<!-- Node16 -->
<g id="node16" class="node">
<title>Node16</title>
<g id="a_node16"><a xlink:href="rules_8h.html" target="_top" xlink:title=" ">
<polygon fill="white" stroke="black" points="365.31,-224.5 365.31,-243.5 432.31,-243.5 432.31,-224.5 365.31,-224.5"/>
<text text-anchor="middle" x="398.81" y="-231.5" font-family="Helvetica,sans-Serif" font-size="10.00">src/rules.h</text>
</a>
</g>
</g>
<!-- Node1&#45;&gt;Node16 -->
<g id="edge21" class="edge">
<title>Node1&#45;&gt;Node16</title>
<path fill="none" stroke="midnightblue" d="M377.98,-271.27C383.28,-262.05 389.53,-251.17 393.79,-243.75"/>
<polygon fill="midnightblue" stroke="midnightblue" points="374.87,-269.67 372.93,-280.08 380.94,-273.15 374.87,-269.67"/>
</g>
<!-- Node3 -->
<g id="node3" class="node">
<title>Node3</title>
<g id="a_node3"><a xlink:href="application_8cpp.html" target="_top" xlink:title=" ">
<polygon fill="white" stroke="black" points="276.81,-112.5 276.81,-131.5 384.81,-131.5 384.81,-112.5 276.81,-112.5"/>
<text text-anchor="middle" x="330.81" y="-119.5" font-family="Helvetica,sans-Serif" font-size="10.00">src/application.cpp</text>
</a>
</g>
</g>
<!-- Node2&#45;&gt;Node3 -->
<g id="edge2" class="edge">
<title>Node2&#45;&gt;Node3</title>
<path fill="none" stroke="midnightblue" d="M334.71,-158.1C333.71,-149.14 332.57,-138.86 331.78,-131.75"/>
<polygon fill="midnightblue" stroke="midnightblue" points="331.24,-158.53 335.82,-168.08 338.19,-157.76 331.24,-158.53"/>
</g>
<!-- Node4 -->
<g id="node4" class="node">
<title>Node4</title>
<g id="a_node4"><a xlink:href="menu_8h.html" target="_top" xlink:title=" ">
<polygon fill="white" stroke="black" points="213.31,-56.5 213.31,-75.5 284.31,-75.5 284.31,-56.5 213.31,-56.5"/>
<text text-anchor="middle" x="248.81" y="-63.5" font-family="Helvetica,sans-Serif" font-size="10.00">src/menu.h</text>
</a>
</g>
</g>
<!-- Node2&#45;&gt;Node4 -->
<g id="edge3" class="edge">
<title>Node2&#45;&gt;Node4</title>
<path fill="none" stroke="midnightblue" d="M306.98,-163.65C293.27,-156.14 277.85,-145.53 267.81,-132 255.05,-114.82 250.83,-89.21 249.46,-75.85"/>
<polygon fill="midnightblue" stroke="midnightblue" points="305.62,-166.88 316.11,-168.35 308.82,-160.66 305.62,-166.88"/>
</g>
<!-- Node7 -->
<g id="node7" class="node">
<title>Node7</title>
<g id="a_node7"><a xlink:href="tutorial_8h.html" target="_top" xlink:title=" ">
<polygon fill="white" stroke="black" points="402.81,-112.5 402.81,-131.5 480.81,-131.5 480.81,-112.5 402.81,-112.5"/>
<text text-anchor="middle" x="441.81" y="-119.5" font-family="Helvetica,sans-Serif" font-size="10.00">src/tutorial.h</text>
</a>
</g>
</g>
<!-- Node2&#45;&gt;Node7 -->
<g id="edge6" class="edge">
<title>Node2&#45;&gt;Node7</title>
<path fill="none" stroke="midnightblue" d="M362.62,-163.73C382.06,-153.73 408.16,-140.31 424.98,-131.65"/>
<polygon fill="midnightblue" stroke="midnightblue" points="360.97,-160.64 353.68,-168.32 364.17,-166.86 360.97,-160.64"/>
</g>
<!-- Node5 -->
<g id="node5" class="node">
<title>Node5</title>
<g id="a_node5"><a xlink:href="main_8cpp.html" target="_top" xlink:title=" ">
<polygon fill="white" stroke="black" points="209.31,-0.5 209.31,-19.5 288.31,-19.5 288.31,-0.5 209.31,-0.5"/>
<text text-anchor="middle" x="248.81" y="-7.5" font-family="Helvetica,sans-Serif" font-size="10.00">src/main.cpp</text>
</a>
</g>
</g>
<!-- Node4&#45;&gt;Node5 -->
<g id="edge4" class="edge">
<title>Node4&#45;&gt;Node5</title>
<path fill="none" stroke="midnightblue" d="M248.81,-45.8C248.81,-36.91 248.81,-26.78 248.81,-19.75"/>
<polygon fill="midnightblue" stroke="midnightblue" points="245.31,-46.08 248.81,-56.08 252.31,-46.08 245.31,-46.08"/>
</g>
<!-- Node6 -->
<g id="node6" class="node">
<title>Node6</title>
<g id="a_node6"><a xlink:href="menu_8cpp.html" target="_top" xlink:title=" ">
<polygon fill="white" stroke="black" points="105.81,-0.5 105.81,-19.5 187.81,-19.5 187.81,-0.5 105.81,-0.5"/>
<text text-anchor="middle" x="146.81" y="-7.5" font-family="Helvetica,sans-Serif" font-size="10.00">src/menu.cpp</text>
</a>
</g>
</g>
<!-- Node4&#45;&gt;Node6 -->
<g id="edge5" class="edge">
<title>Node4&#45;&gt;Node6</title>
<path fill="none" stroke="midnightblue" d="M223.48,-51.59C204.62,-41.61 179.43,-28.27 163.16,-19.65"/>
<polygon fill="midnightblue" stroke="midnightblue" points="221.95,-54.74 232.42,-56.32 225.22,-48.55 221.95,-54.74"/>
</g>
<!-- Node7&#45;&gt;Node4 -->
<g id="edge7" class="edge">
<title>Node7&#45;&gt;Node4</title>
<path fill="none" stroke="midnightblue" d="M401.42,-109.7C364.99,-99.51 312.22,-84.74 279.25,-75.52"/>
<polygon fill="midnightblue" stroke="midnightblue" points="400.65,-113.12 411.23,-112.44 402.54,-106.38 400.65,-113.12"/>
</g>
<!-- Node8 -->
<g id="node8" class="node">
<title>Node8</title>
<g id="a_node8"><a xlink:href="tutorial_8cpp.html" target="_top" xlink:title=" ">
<polygon fill="white" stroke="black" points="397.31,-56.5 397.31,-75.5 486.31,-75.5 486.31,-56.5 397.31,-56.5"/>
<text text-anchor="middle" x="441.81" y="-63.5" font-family="Helvetica,sans-Serif" font-size="10.00">src/tutorial.cpp</text>
</a>
</g>
</g>
<!-- Node7&#45;&gt;Node8 -->
<g id="edge8" class="edge">
<title>Node7&#45;&gt;Node8</title>
<path fill="none" stroke="midnightblue" d="M441.81,-101.8C441.81,-92.91 441.81,-82.78 441.81,-75.75"/>
<polygon fill="midnightblue" stroke="midnightblue" points="438.31,-102.08 441.81,-112.08 445.31,-102.08 438.31,-102.08"/>
</g>
<!-- Node10&#45;&gt;Node6 -->
<g id="edge12" class="edge">
<title>Node10&#45;&gt;Node6</title>
<path fill="none" stroke="midnightblue" d="M34.81,-219.33C22.58,-211.92 9.62,-201.48 2.81,-188 -1.2,-180.07 -0.41,-176.28 2.81,-168 29.9,-98.38 103.9,-40.88 133.91,-19.72"/>
<polygon fill="midnightblue" stroke="midnightblue" points="33.47,-222.59 43.9,-224.41 36.88,-216.48 33.47,-222.59"/>
</g>
<!-- Node10&#45;&gt;Node9 -->
<g id="edge11" class="edge">
<title>Node10&#45;&gt;Node9</title>
<path fill="none" stroke="midnightblue" d="M63.81,-213.8C63.81,-204.91 63.81,-194.78 63.81,-187.75"/>
<polygon fill="midnightblue" stroke="midnightblue" points="60.31,-214.08 63.81,-224.08 67.31,-214.08 60.31,-214.08"/>
</g>
<!-- Node12&#45;&gt;Node6 -->
<g id="edge16" class="edge">
<title>Node12&#45;&gt;Node6</title>
<path fill="none" stroke="midnightblue" d="M562.68,-223.01C634.53,-210.89 745.8,-191.61 748.81,-188 754.5,-181.17 753.66,-175.45 748.81,-168 610.95,43.79 449.88,-56.42 199.81,-20 195.93,-19.44 191.9,-18.81 187.87,-18.17"/>
<polygon fill="midnightblue" stroke="midnightblue" points="561.66,-219.63 552.38,-224.75 562.83,-226.54 561.66,-219.63"/>
</g>
<!-- Node12&#45;&gt;Node11 -->
<g id="edge15" class="edge">
<title>Node12&#45;&gt;Node11</title>
<path fill="none" stroke="midnightblue" d="M541.34,-221.57C575.67,-211.38 625.14,-196.7 656.11,-187.52"/>
<polygon fill="midnightblue" stroke="midnightblue" points="540.24,-218.24 531.65,-224.44 542.23,-224.95 540.24,-218.24"/>
</g>
<!-- Node13&#45;&gt;Node6 -->
<g id="edge18" class="edge">
<title>Node13&#45;&gt;Node6</title>
<path fill="none" stroke="midnightblue" d="M194.45,-219.2C182.73,-211.63 169.97,-201.1 162.81,-188 131.42,-130.61 141.05,-46.89 145.28,-19.8"/>
<polygon fill="midnightblue" stroke="midnightblue" points="192.74,-222.26 203.11,-224.41 196.34,-216.26 192.74,-222.26"/>
</g>
<!-- Node14 -->
<g id="node14" class="node">
<title>Node14</title>
<g id="a_node14"><a xlink:href="minimax_8cpp.html" target="_top" xlink:title=" ">
<polygon fill="white" stroke="black" points="171.81,-168.5 171.81,-187.5 269.81,-187.5 269.81,-168.5 171.81,-168.5"/>
<text text-anchor="middle" x="220.81" y="-175.5" font-family="Helvetica,sans-Serif" font-size="10.00">src/minimax.cpp</text>
</a>
</g>
</g>
<!-- Node13&#45;&gt;Node14 -->
<g id="edge19" class="edge">
<title>Node13&#45;&gt;Node14</title>
<path fill="none" stroke="midnightblue" d="M220.81,-213.8C220.81,-204.91 220.81,-194.78 220.81,-187.75"/>
<polygon fill="midnightblue" stroke="midnightblue" points="217.31,-214.08 220.81,-224.08 224.31,-214.08 217.31,-214.08"/>
</g>
<!-- Node16&#45;&gt;Node2 -->
<g id="edge22" class="edge">
<title>Node16&#45;&gt;Node2</title>
<path fill="none" stroke="midnightblue" d="M381.06,-217.54C370,-207.91 356.18,-195.87 346.95,-187.83"/>
<polygon fill="midnightblue" stroke="midnightblue" points="379.01,-220.4 388.85,-224.32 383.61,-215.12 379.01,-220.4"/>
</g>
<!-- Node16&#45;&gt;Node9 -->
<g id="edge23" class="edge">
<title>Node16&#45;&gt;Node9</title>
<path fill="none" stroke="midnightblue" d="M355,-225.94C293.5,-216.02 181.73,-198.01 116,-187.41"/>
<polygon fill="midnightblue" stroke="midnightblue" points="354.72,-229.44 365.15,-227.58 355.84,-222.53 354.72,-229.44"/>
</g>
<!-- Node16&#45;&gt;Node11 -->
<g id="edge24" class="edge">
<title>Node16&#45;&gt;Node11</title>
<path fill="none" stroke="midnightblue" d="M442.54,-224.43C443.3,-224.29 444.06,-224.14 444.81,-224 512.26,-211.08 590.45,-196.49 638.78,-187.52"/>
<polygon fill="midnightblue" stroke="midnightblue" points="441.62,-221.05 432.47,-226.38 442.95,-227.92 441.62,-221.05"/>
</g>
<!-- Node16&#45;&gt;Node14 -->
<g id="edge26" class="edge">
<title>Node16&#45;&gt;Node14</title>
<path fill="none" stroke="midnightblue" d="M360.69,-221.44C327.13,-211.26 279.04,-196.66 248.88,-187.52"/>
<polygon fill="midnightblue" stroke="midnightblue" points="360.02,-224.89 370.6,-224.44 362.05,-218.19 360.02,-224.89"/>
</g>
<!-- Node17 -->
<g id="node17" class="node">
<title>Node17</title>
<g id="a_node17"><a xlink:href="game__rules_8cpp.html" target="_top" xlink:title=" ">
<polygon fill="white" stroke="black" points="500.31,-168.5 500.31,-187.5 611.31,-187.5 611.31,-168.5 500.31,-168.5"/>
<text text-anchor="middle" x="555.81" y="-175.5" font-family="Helvetica,sans-Serif" font-size="10.00">src/game_rules.cpp</text>
</a>
</g>
</g>
<!-- Node16&#45;&gt;Node17 -->
<g id="edge25" class="edge">
<title>Node16&#45;&gt;Node17</title>
<path fill="none" stroke="midnightblue" d="M433.2,-221.17C462.76,-211 504.68,-196.59 531.05,-187.52"/>
<polygon fill="midnightblue" stroke="midnightblue" points="432,-217.88 423.69,-224.44 434.28,-224.5 432,-217.88"/>
</g>
<!-- Node18 -->
<g id="node18" class="node">
<title>Node18</title>
<g id="a_node18"><a xlink:href="rules_8cpp.html" target="_top" xlink:title=" ">
<polygon fill="white" stroke="black" points="403.81,-168.5 403.81,-187.5 481.81,-187.5 481.81,-168.5 403.81,-168.5"/>
<text text-anchor="middle" x="442.81" y="-175.5" font-family="Helvetica,sans-Serif" font-size="10.00">src/rules.cpp</text>
</a>
</g>
</g>
<!-- Node16&#45;&gt;Node18 -->
<g id="edge27" class="edge">
<title>Node16&#45;&gt;Node18</title>
<path fill="none" stroke="midnightblue" d="M412.54,-216.14C420.21,-206.74 429.44,-195.4 435.68,-187.75"/>
<polygon fill="midnightblue" stroke="midnightblue" points="409.68,-214.12 406.07,-224.08 415.11,-218.54 409.68,-214.12"/>
</g>
</g>
</svg>
