<?xml version="1.0" encoding="UTF-8" standalone="no"?>
<!DOCTYPE svg PUBLIC "-//W3C//DTD SVG 1.1//EN"
 "http://www.w3.org/Graphics/SVG/1.1/DTD/svg11.dtd">
<!-- Generated by graphviz version 2.43.0 (0)
 -->
<!-- Title: src/move.h Pages: 1 -->
<svg width="747pt" height="364pt"
 viewBox="0.00 0.00 746.50 364.00" xmlns="http://www.w3.org/2000/svg" xmlns:xlink="http://www.w3.org/1999/xlink">
<g id="graph0" class="graph" transform="scale(1 1) rotate(0) translate(4 360)">
<title>src/move.h</title>
<polygon fill="white" stroke="transparent" points="-4,4 -4,-360 742.5,-360 742.5,4 -4,4"/>
<!-- Node1 -->
<g id="node1" class="node">
<title>Node1</title>
<g id="a_node1"><a xlink:title=" ">
<polygon fill="#bfbfbf" stroke="black" points="627,-336.5 627,-355.5 698,-355.5 698,-336.5 627,-336.5"/>
<text text-anchor="middle" x="662.5" y="-343.5" font-family="Helvetica,sans-Serif" font-size="10.00">src/move.h</text>
</a>
</g>
</g>
<!-- Node2 -->
<g id="node2" class="node">
<title>Node2</title>
<g id="a_node2"><a xlink:title=" ">
<polygon fill="white" stroke="#bfbfbf" points="450.5,-0.5 450.5,-19.5 510.5,-19.5 510.5,-0.5 450.5,-0.5"/>
<text text-anchor="middle" x="480.5" y="-7.5" font-family="Helvetica,sans-Serif" font-size="10.00">iostream</text>
</a>
</g>
</g>
<!-- Node1&#45;&gt;Node2 -->
<g id="edge1" class="edge">
<title>Node1&#45;&gt;Node2</title>
<path fill="none" stroke="midnightblue" d="M674.04,-336.43C695.3,-319.57 738.5,-279.8 738.5,-235 738.5,-235 738.5,-235 738.5,-121 738.5,-27.48 593.29,-12.37 520.75,-10.66"/>
<polygon fill="midnightblue" stroke="midnightblue" points="520.66,-7.15 510.6,-10.49 520.54,-14.15 520.66,-7.15"/>
</g>
<!-- Node3 -->
<g id="node3" class="node">
<title>Node3</title>
<g id="a_node3"><a xlink:href="board_8h.html" target="_top" xlink:title=" ">
<polygon fill="white" stroke="black" points="369,-224.5 369,-243.5 422,-243.5 422,-224.5 369,-224.5"/>
<text text-anchor="middle" x="395.5" y="-231.5" font-family="Helvetica,sans-Serif" font-size="10.00">board.h</text>
</a>
</g>
</g>
<!-- Node1&#45;&gt;Node3 -->
<g id="edge2" class="edge">
<title>Node1&#45;&gt;Node3</title>
<path fill="none" stroke="midnightblue" d="M641.55,-336.37C594.56,-317.01 480.61,-270.06 425.86,-247.51"/>
<polygon fill="midnightblue" stroke="midnightblue" points="426.93,-244.16 416.35,-243.59 424.27,-250.64 426.93,-244.16"/>
</g>
<!-- Node15 -->
<g id="node15" class="node">
<title>Node15</title>
<g id="a_node15"><a xlink:href="player_8h.html" target="_top" xlink:title=" ">
<polygon fill="white" stroke="black" points="634.5,-280.5 634.5,-299.5 690.5,-299.5 690.5,-280.5 634.5,-280.5"/>
<text text-anchor="middle" x="662.5" y="-287.5" font-family="Helvetica,sans-Serif" font-size="10.00">player.h</text>
</a>
</g>
</g>
<!-- Node1&#45;&gt;Node15 -->
<g id="edge26" class="edge">
<title>Node1&#45;&gt;Node15</title>
<path fill="none" stroke="midnightblue" d="M662.5,-336.08C662.5,-329.01 662.5,-318.86 662.5,-309.99"/>
<polygon fill="midnightblue" stroke="midnightblue" points="666,-309.75 662.5,-299.75 659,-309.75 666,-309.75"/>
</g>
<!-- Node3&#45;&gt;Node2 -->
<g id="edge3" class="edge">
<title>Node3&#45;&gt;Node2</title>
<path fill="none" stroke="midnightblue" d="M368.95,-233.1C303.57,-232.73 137.64,-227.81 103.5,-188 97.71,-181.25 98.57,-175.4 103.5,-168 180.39,-52.69 359.66,-21.94 440.14,-13.84"/>
<polygon fill="midnightblue" stroke="midnightblue" points="440.73,-17.3 450.36,-12.88 440.08,-10.33 440.73,-17.3"/>
</g>
<!-- Node4 -->
<g id="node4" class="node">
<title>Node4</title>
<g id="a_node4"><a xlink:title=" ">
<polygon fill="white" stroke="#bfbfbf" points="601,-56.5 601,-75.5 648,-75.5 648,-56.5 601,-56.5"/>
<text text-anchor="middle" x="624.5" y="-63.5" font-family="Helvetica,sans-Serif" font-size="10.00">vector</text>
</a>
</g>
</g>
<!-- Node3&#45;&gt;Node4 -->
<g id="edge4" class="edge">
<title>Node3&#45;&gt;Node4</title>
<path fill="none" stroke="midnightblue" d="M422.36,-230.91C473,-226.4 579.73,-214 604.5,-188 630.73,-160.47 630.1,-112.47 627.32,-85.96"/>
<polygon fill="midnightblue" stroke="midnightblue" points="630.75,-85.21 626.02,-75.73 623.81,-86.09 630.75,-85.21"/>
</g>
<!-- Node5 -->
<g id="node5" class="node">
<title>Node5</title>
<g id="a_node5"><a xlink:href="square_8h.html" target="_top" xlink:title=" ">
<polygon fill="white" stroke="black" points="537,-168.5 537,-187.5 596,-187.5 596,-168.5 537,-168.5"/>
<text text-anchor="middle" x="566.5" y="-175.5" font-family="Helvetica,sans-Serif" font-size="10.00">square.h</text>
</a>
</g>
</g>
<!-- Node3&#45;&gt;Node5 -->
<g id="edge5" class="edge">
<title>Node3&#45;&gt;Node5</title>
<path fill="none" stroke="midnightblue" d="M422.22,-224.56C451.16,-215.42 497.52,-200.78 529.86,-190.57"/>
<polygon fill="midnightblue" stroke="midnightblue" points="530.92,-193.91 539.4,-187.56 528.81,-187.23 530.92,-193.91"/>
</g>
<!-- Node8 -->
<g id="node8" class="node">
<title>Node8</title>
<g id="a_node8"><a xlink:href="position_8h.html" target="_top" xlink:title=" ">
<polygon fill="white" stroke="black" points="0,-56.5 0,-75.5 65,-75.5 65,-56.5 0,-56.5"/>
<text text-anchor="middle" x="32.5" y="-63.5" font-family="Helvetica,sans-Serif" font-size="10.00">position.h</text>
</a>
</g>
</g>
<!-- Node3&#45;&gt;Node8 -->
<g id="edge13" class="edge">
<title>Node3&#45;&gt;Node8</title>
<path fill="none" stroke="midnightblue" d="M368.78,-232.86C299.33,-231.97 115.41,-225.98 70.5,-188 40.2,-162.37 33.73,-112.85 32.55,-85.78"/>
<polygon fill="midnightblue" stroke="midnightblue" points="36.05,-85.61 32.32,-75.69 29.05,-85.77 36.05,-85.61"/>
</g>
<!-- Node9 -->
<g id="node9" class="node">
<title>Node9</title>
<g id="a_node9"><a xlink:href="pawn_8h.html" target="_top" xlink:title=" ">
<polygon fill="white" stroke="black" points="262.5,-168.5 262.5,-187.5 314.5,-187.5 314.5,-168.5 262.5,-168.5"/>
<text text-anchor="middle" x="288.5" y="-175.5" font-family="Helvetica,sans-Serif" font-size="10.00">pawn.h</text>
</a>
</g>
</g>
<!-- Node3&#45;&gt;Node9 -->
<g id="edge14" class="edge">
<title>Node3&#45;&gt;Node9</title>
<path fill="none" stroke="midnightblue" d="M378.31,-224.32C361.15,-215.66 334.55,-202.24 314.75,-192.25"/>
<polygon fill="midnightblue" stroke="midnightblue" points="316.15,-189.04 305.65,-187.65 313,-195.28 316.15,-189.04"/>
</g>
<!-- Node10 -->
<g id="node10" class="node">
<title>Node10</title>
<g id="a_node10"><a xlink:href="queen_8h.html" target="_top" xlink:title=" ">
<polygon fill="white" stroke="black" points="332.5,-168.5 332.5,-187.5 388.5,-187.5 388.5,-168.5 332.5,-168.5"/>
<text text-anchor="middle" x="360.5" y="-175.5" font-family="Helvetica,sans-Serif" font-size="10.00">queen.h</text>
</a>
</g>
</g>
<!-- Node3&#45;&gt;Node10 -->
<g id="edge16" class="edge">
<title>Node3&#45;&gt;Node10</title>
<path fill="none" stroke="midnightblue" d="M389.72,-224.08C384.83,-216.53 377.67,-205.49 371.67,-196.23"/>
<polygon fill="midnightblue" stroke="midnightblue" points="374.55,-194.24 366.17,-187.75 368.67,-198.05 374.55,-194.24"/>
</g>
<!-- Node11 -->
<g id="node11" class="node">
<title>Node11</title>
<g id="a_node11"><a xlink:href="king_8h.html" target="_top" xlink:title=" ">
<polygon fill="white" stroke="black" points="407,-168.5 407,-187.5 454,-187.5 454,-168.5 407,-168.5"/>
<text text-anchor="middle" x="430.5" y="-175.5" font-family="Helvetica,sans-Serif" font-size="10.00">king.h</text>
</a>
</g>
</g>
<!-- Node3&#45;&gt;Node11 -->
<g id="edge18" class="edge">
<title>Node3&#45;&gt;Node11</title>
<path fill="none" stroke="midnightblue" d="M401.28,-224.08C406.17,-216.53 413.33,-205.49 419.33,-196.23"/>
<polygon fill="midnightblue" stroke="midnightblue" points="422.33,-198.05 424.83,-187.75 416.45,-194.24 422.33,-198.05"/>
</g>
<!-- Node12 -->
<g id="node12" class="node">
<title>Node12</title>
<g id="a_node12"><a xlink:href="rook_8h.html" target="_top" xlink:title=" ">
<polygon fill="white" stroke="black" points="472,-168.5 472,-187.5 519,-187.5 519,-168.5 472,-168.5"/>
<text text-anchor="middle" x="495.5" y="-175.5" font-family="Helvetica,sans-Serif" font-size="10.00">rook.h</text>
</a>
</g>
</g>
<!-- Node3&#45;&gt;Node12 -->
<g id="edge20" class="edge">
<title>Node3&#45;&gt;Node12</title>
<path fill="none" stroke="midnightblue" d="M411.57,-224.32C427.46,-215.74 452.01,-202.49 470.46,-192.52"/>
<polygon fill="midnightblue" stroke="midnightblue" points="472.34,-195.49 479.47,-187.65 469.01,-189.33 472.34,-195.49"/>
</g>
<!-- Node13 -->
<g id="node13" class="node">
<title>Node13</title>
<g id="a_node13"><a xlink:href="bishop_8h.html" target="_top" xlink:title=" ">
<polygon fill="white" stroke="black" points="112.5,-168.5 112.5,-187.5 170.5,-187.5 170.5,-168.5 112.5,-168.5"/>
<text text-anchor="middle" x="141.5" y="-175.5" font-family="Helvetica,sans-Serif" font-size="10.00">bishop.h</text>
</a>
</g>
</g>
<!-- Node3&#45;&gt;Node13 -->
<g id="edge22" class="edge">
<title>Node3&#45;&gt;Node13</title>
<path fill="none" stroke="midnightblue" d="M368.85,-227.69C329.77,-219.85 254.39,-204.53 180.47,-188.17"/>
<polygon fill="midnightblue" stroke="midnightblue" points="181.05,-184.71 170.53,-185.96 179.53,-191.55 181.05,-184.71"/>
</g>
<!-- Node14 -->
<g id="node14" class="node">
<title>Node14</title>
<g id="a_node14"><a xlink:href="knight_8h.html" target="_top" xlink:title=" ">
<polygon fill="white" stroke="black" points="188.5,-168.5 188.5,-187.5 244.5,-187.5 244.5,-168.5 188.5,-168.5"/>
<text text-anchor="middle" x="216.5" y="-175.5" font-family="Helvetica,sans-Serif" font-size="10.00">knight.h</text>
</a>
</g>
</g>
<!-- Node3&#45;&gt;Node14 -->
<g id="edge24" class="edge">
<title>Node3&#45;&gt;Node14</title>
<path fill="none" stroke="midnightblue" d="M368.7,-224.92C338.34,-215.76 288.64,-200.76 254.34,-190.42"/>
<polygon fill="midnightblue" stroke="midnightblue" points="255.25,-187.03 244.66,-187.5 253.23,-193.74 255.25,-187.03"/>
</g>
<!-- Node5&#45;&gt;Node2 -->
<g id="edge6" class="edge">
<title>Node5&#45;&gt;Node2</title>
<path fill="none" stroke="midnightblue" d="M557.71,-168.36C549.33,-159.75 536.8,-145.86 528.5,-132 508.16,-98.03 493.18,-53.9 485.75,-29.41"/>
<polygon fill="midnightblue" stroke="midnightblue" points="489.06,-28.25 482.88,-19.65 482.35,-30.23 489.06,-28.25"/>
</g>
<!-- Node6 -->
<g id="node6" class="node">
<title>Node6</title>
<g id="a_node6"><a xlink:title=" ">
<polygon fill="white" stroke="#bfbfbf" points="537.5,-112.5 537.5,-131.5 595.5,-131.5 595.5,-112.5 537.5,-112.5"/>
<text text-anchor="middle" x="566.5" y="-119.5" font-family="Helvetica,sans-Serif" font-size="10.00">memory</text>
</a>
</g>
</g>
<!-- Node5&#45;&gt;Node6 -->
<g id="edge7" class="edge">
<title>Node5&#45;&gt;Node6</title>
<path fill="none" stroke="midnightblue" d="M566.5,-168.08C566.5,-161.01 566.5,-150.86 566.5,-141.99"/>
<polygon fill="midnightblue" stroke="midnightblue" points="570,-141.75 566.5,-131.75 563,-141.75 570,-141.75"/>
</g>
<!-- Node7 -->
<g id="node7" class="node">
<title>Node7</title>
<g id="a_node7"><a xlink:href="piece_8h.html" target="_top" xlink:title=" ">
<polygon fill="white" stroke="black" points="343.5,-112.5 343.5,-131.5 395.5,-131.5 395.5,-112.5 343.5,-112.5"/>
<text text-anchor="middle" x="369.5" y="-119.5" font-family="Helvetica,sans-Serif" font-size="10.00">piece.h</text>
</a>
</g>
</g>
<!-- Node5&#45;&gt;Node7 -->
<g id="edge8" class="edge">
<title>Node5&#45;&gt;Node7</title>
<path fill="none" stroke="midnightblue" d="M536.58,-168.8C501.46,-159.17 443.23,-143.21 405.63,-132.9"/>
<polygon fill="midnightblue" stroke="midnightblue" points="406.17,-129.42 395.6,-130.15 404.32,-136.17 406.17,-129.42"/>
</g>
<!-- Node7&#45;&gt;Node2 -->
<g id="edge9" class="edge">
<title>Node7&#45;&gt;Node2</title>
<path fill="none" stroke="midnightblue" d="M378.21,-112.37C396.85,-93.89 440.85,-50.29 464.61,-26.74"/>
<polygon fill="midnightblue" stroke="midnightblue" points="467.19,-29.12 471.83,-19.59 462.26,-24.14 467.19,-29.12"/>
</g>
<!-- Node7&#45;&gt;Node4 -->
<g id="edge10" class="edge">
<title>Node7&#45;&gt;Node4</title>
<path fill="none" stroke="midnightblue" d="M395.83,-115.42C442.5,-105.54 539.63,-84.97 590.99,-74.1"/>
<polygon fill="midnightblue" stroke="midnightblue" points="591.87,-77.49 600.92,-71.99 590.42,-70.64 591.87,-77.49"/>
</g>
<!-- Node7&#45;&gt;Node8 -->
<g id="edge11" class="edge">
<title>Node7&#45;&gt;Node8</title>
<path fill="none" stroke="midnightblue" d="M343.34,-116.81C285.41,-107.53 145.87,-85.17 75.14,-73.83"/>
<polygon fill="midnightblue" stroke="midnightblue" points="75.65,-70.37 65.22,-72.24 74.54,-77.28 75.65,-70.37"/>
</g>
<!-- Node8&#45;&gt;Node2 -->
<g id="edge12" class="edge">
<title>Node8&#45;&gt;Node2</title>
<path fill="none" stroke="midnightblue" d="M65.06,-58.43C69.89,-57.55 74.82,-56.71 79.5,-56 211.04,-36.06 368.1,-20.94 440.42,-14.46"/>
<polygon fill="midnightblue" stroke="midnightblue" points="440.81,-17.94 450.46,-13.57 440.19,-10.97 440.81,-17.94"/>
</g>
<!-- Node9&#45;&gt;Node7 -->
<g id="edge15" class="edge">
<title>Node9&#45;&gt;Node7</title>
<path fill="none" stroke="midnightblue" d="M301.51,-168.32C314.03,-159.98 333.18,-147.21 347.97,-137.35"/>
<polygon fill="midnightblue" stroke="midnightblue" points="350.14,-140.11 356.52,-131.65 346.26,-134.29 350.14,-140.11"/>
</g>
<!-- Node10&#45;&gt;Node7 -->
<g id="edge17" class="edge">
<title>Node10&#45;&gt;Node7</title>
<path fill="none" stroke="midnightblue" d="M361.99,-168.08C363.18,-160.93 364.89,-150.64 366.38,-141.69"/>
<polygon fill="midnightblue" stroke="midnightblue" points="369.85,-142.19 368.04,-131.75 362.95,-141.04 369.85,-142.19"/>
</g>
<!-- Node11&#45;&gt;Node7 -->
<g id="edge19" class="edge">
<title>Node11&#45;&gt;Node7</title>
<path fill="none" stroke="midnightblue" d="M420.7,-168.32C411.68,-160.34 398.09,-148.31 387.18,-138.65"/>
<polygon fill="midnightblue" stroke="midnightblue" points="389.29,-135.84 379.48,-131.83 384.65,-141.08 389.29,-135.84"/>
</g>
<!-- Node12&#45;&gt;Node7 -->
<g id="edge21" class="edge">
<title>Node12&#45;&gt;Node7</title>
<path fill="none" stroke="midnightblue" d="M475.53,-168.44C454.89,-159.6 422.44,-145.69 398.87,-135.59"/>
<polygon fill="midnightblue" stroke="midnightblue" points="399.94,-132.24 389.37,-131.52 397.18,-138.67 399.94,-132.24"/>
</g>
<!-- Node13&#45;&gt;Node7 -->
<g id="edge23" class="edge">
<title>Node13&#45;&gt;Node7</title>
<path fill="none" stroke="midnightblue" d="M170.84,-170.05C212.46,-160.19 288.57,-142.17 333.53,-131.52"/>
<polygon fill="midnightblue" stroke="midnightblue" points="334.52,-134.88 343.44,-129.17 332.91,-128.07 334.52,-134.88"/>
</g>
<!-- Node14&#45;&gt;Node7 -->
<g id="edge25" class="edge">
<title>Node14&#45;&gt;Node7</title>
<path fill="none" stroke="midnightblue" d="M240.74,-168.44C266.37,-159.4 306.99,-145.06 335.74,-134.92"/>
<polygon fill="midnightblue" stroke="midnightblue" points="337.11,-138.15 345.37,-131.52 334.78,-131.54 337.11,-138.15"/>
</g>
<!-- Node15&#45;&gt;Node2 -->
<g id="edge27" class="edge">
<title>Node15&#45;&gt;Node2</title>
<path fill="none" stroke="midnightblue" d="M667.78,-280.23C678.23,-262.04 700.5,-218.6 700.5,-179 700.5,-179 700.5,-179 700.5,-121 700.5,-41.51 584.19,-19.46 520.71,-13.35"/>
<polygon fill="midnightblue" stroke="midnightblue" points="520.9,-9.85 510.63,-12.47 520.29,-16.82 520.9,-9.85"/>
</g>
<!-- Node15&#45;&gt;Node3 -->
<g id="edge29" class="edge">
<title>Node15&#45;&gt;Node3</title>
<path fill="none" stroke="midnightblue" d="M634.43,-283.32C585.75,-273.48 485.73,-253.25 431.83,-242.35"/>
<polygon fill="midnightblue" stroke="midnightblue" points="432.5,-238.91 422.01,-240.36 431.11,-245.77 432.5,-238.91"/>
</g>
<!-- Node15&#45;&gt;Node4 -->
<g id="edge28" class="edge">
<title>Node15&#45;&gt;Node4</title>
<path fill="none" stroke="midnightblue" d="M662.34,-280.38C661.68,-254.49 658.42,-175.28 642.5,-112 640.19,-102.82 636.43,-93.02 632.95,-84.91"/>
<polygon fill="midnightblue" stroke="midnightblue" points="636.11,-83.41 628.81,-75.73 629.73,-86.29 636.11,-83.41"/>
</g>
</g>
</svg>
