<?xml version="1.0" encoding="UTF-8" standalone="no"?>
<!DOCTYPE svg PUBLIC "-//W3C//DTD SVG 1.1//EN"
 "http://www.w3.org/Graphics/SVG/1.1/DTD/svg11.dtd">
<!-- Generated by graphviz version 2.43.0 (0)
 -->
<!-- Title: src/pawn.h Pages: 1 -->
<svg width="150pt" height="196pt"
 viewBox="0.00 0.00 150.02 196.00" xmlns="http://www.w3.org/2000/svg" xmlns:xlink="http://www.w3.org/1999/xlink">
<g id="graph0" class="graph" transform="scale(1 1) rotate(0) translate(4 192)">
<title>src/pawn.h</title>
<polygon fill="white" stroke="transparent" points="-4,4 -4,-192 146.02,-192 146.02,4 -4,4"/>
<!-- Node1 -->
<g id="node1" class="node">
<title>Node1</title>
<g id="a_node1"><a xlink:title=" ">
<polygon fill="#bfbfbf" stroke="black" points="1.02,-168.5 1.02,-187.5 70.02,-187.5 70.02,-168.5 1.02,-168.5"/>
<text text-anchor="middle" x="35.52" y="-175.5" font-family="Helvetica,sans-Serif" font-size="10.00">src/pawn.h</text>
</a>
</g>
</g>
<!-- Node2 -->
<g id="node2" class="node">
<title>Node2</title>
<g id="a_node2"><a xlink:href="piece_8h.html" target="_top" xlink:title=" ">
<polygon fill="white" stroke="black" points="9.52,-112.5 9.52,-131.5 61.52,-131.5 61.52,-112.5 9.52,-112.5"/>
<text text-anchor="middle" x="35.52" y="-119.5" font-family="Helvetica,sans-Serif" font-size="10.00">piece.h</text>
</a>
</g>
</g>
<!-- Node1&#45;&gt;Node2 -->
<g id="edge1" class="edge">
<title>Node1&#45;&gt;Node2</title>
<path fill="none" stroke="midnightblue" d="M35.52,-168.08C35.52,-161.01 35.52,-150.86 35.52,-141.99"/>
<polygon fill="midnightblue" stroke="midnightblue" points="39.02,-141.75 35.52,-131.75 32.02,-141.75 39.02,-141.75"/>
</g>
<!-- Node3 -->
<g id="node3" class="node">
<title>Node3</title>
<g id="a_node3"><a xlink:title=" ">
<polygon fill="white" stroke="#bfbfbf" points="16.52,-0.5 16.52,-19.5 76.52,-19.5 76.52,-0.5 16.52,-0.5"/>
<text text-anchor="middle" x="46.52" y="-7.5" font-family="Helvetica,sans-Serif" font-size="10.00">iostream</text>
</a>
</g>
</g>
<!-- Node2&#45;&gt;Node3 -->
<g id="edge2" class="edge">
<title>Node2&#45;&gt;Node3</title>
<path fill="none" stroke="midnightblue" d="M25.82,-112.38C13.29,-100.14 -5.99,-76.86 2.52,-56 7.32,-44.23 16.84,-33.86 25.81,-26.05"/>
<polygon fill="midnightblue" stroke="midnightblue" points="28.17,-28.64 33.73,-19.63 23.76,-23.2 28.17,-28.64"/>
</g>
<!-- Node4 -->
<g id="node4" class="node">
<title>Node4</title>
<g id="a_node4"><a xlink:title=" ">
<polygon fill="white" stroke="#bfbfbf" points="12.02,-56.5 12.02,-75.5 59.02,-75.5 59.02,-56.5 12.02,-56.5"/>
<text text-anchor="middle" x="35.52" y="-63.5" font-family="Helvetica,sans-Serif" font-size="10.00">vector</text>
</a>
</g>
</g>
<!-- Node2&#45;&gt;Node4 -->
<g id="edge3" class="edge">
<title>Node2&#45;&gt;Node4</title>
<path fill="none" stroke="midnightblue" d="M35.52,-112.08C35.52,-105.01 35.52,-94.86 35.52,-85.99"/>
<polygon fill="midnightblue" stroke="midnightblue" points="39.02,-85.75 35.52,-75.75 32.02,-85.75 39.02,-85.75"/>
</g>
<!-- Node5 -->
<g id="node5" class="node">
<title>Node5</title>
<g id="a_node5"><a xlink:href="position_8h.html" target="_top" xlink:title=" ">
<polygon fill="white" stroke="black" points="77.02,-56.5 77.02,-75.5 142.02,-75.5 142.02,-56.5 77.02,-56.5"/>
<text text-anchor="middle" x="109.52" y="-63.5" font-family="Helvetica,sans-Serif" font-size="10.00">position.h</text>
</a>
</g>
</g>
<!-- Node2&#45;&gt;Node5 -->
<g id="edge4" class="edge">
<title>Node2&#45;&gt;Node5</title>
<path fill="none" stroke="midnightblue" d="M47.41,-112.32C58.67,-104.11 75.8,-91.6 89.22,-81.81"/>
<polygon fill="midnightblue" stroke="midnightblue" points="91.4,-84.56 97.41,-75.83 87.27,-78.9 91.4,-84.56"/>
</g>
<!-- Node5&#45;&gt;Node3 -->
<g id="edge5" class="edge">
<title>Node5&#45;&gt;Node3</title>
<path fill="none" stroke="midnightblue" d="M99.39,-56.32C89.99,-48.26 75.77,-36.08 64.45,-26.37"/>
<polygon fill="midnightblue" stroke="midnightblue" points="66.69,-23.68 56.82,-19.83 62.14,-29 66.69,-23.68"/>
</g>
</g>
</svg>
