<?xml version="1.0" encoding="UTF-8" standalone="no"?>
<!DOCTYPE svg PUBLIC "-//W3C//DTD SVG 1.1//EN"
 "http://www.w3.org/Graphics/SVG/1.1/DTD/svg11.dtd">
<!-- Generated by graphviz version 2.43.0 (0)
 -->
<!-- Title: src/player.h Pages: 1 -->
<svg width="622pt" height="308pt"
 viewBox="0.00 0.00 622.15 308.00" xmlns="http://www.w3.org/2000/svg" xmlns:xlink="http://www.w3.org/1999/xlink">
<g id="graph0" class="graph" transform="scale(1 1) rotate(0) translate(4 304)">
<title>src/player.h</title>
<polygon fill="white" stroke="transparent" points="-4,4 -4,-304 618.15,-304 618.15,4 -4,4"/>
<!-- Node1 -->
<g id="node1" class="node">
<title>Node1</title>
<g id="a_node1"><a xlink:title=" ">
<polygon fill="#bfbfbf" stroke="black" points="539.65,-280.5 539.65,-299.5 612.65,-299.5 612.65,-280.5 539.65,-280.5"/>
<text text-anchor="middle" x="576.15" y="-287.5" font-family="Helvetica,sans-Serif" font-size="10.00">src/player.h</text>
</a>
</g>
</g>
<!-- Node2 -->
<g id="node2" class="node">
<title>Node2</title>
<g id="a_node2"><a xlink:title=" ">
<polygon fill="white" stroke="#bfbfbf" points="291.15,-0.5 291.15,-19.5 351.15,-19.5 351.15,-0.5 291.15,-0.5"/>
<text text-anchor="middle" x="321.15" y="-7.5" font-family="Helvetica,sans-Serif" font-size="10.00">iostream</text>
</a>
</g>
</g>
<!-- Node1&#45;&gt;Node2 -->
<g id="edge1" class="edge">
<title>Node1&#45;&gt;Node2</title>
<path fill="none" stroke="midnightblue" d="M581.43,-280.23C591.87,-262.04 614.15,-218.6 614.15,-179 614.15,-179 614.15,-179 614.15,-121 614.15,-86.36 600.08,-75.05 571.15,-56 537.28,-33.71 423.1,-20.22 361.44,-14.4"/>
<polygon fill="midnightblue" stroke="midnightblue" points="361.57,-10.89 351.3,-13.46 360.93,-17.86 361.57,-10.89"/>
</g>
<!-- Node3 -->
<g id="node3" class="node">
<title>Node3</title>
<g id="a_node3"><a xlink:title=" ">
<polygon fill="white" stroke="#bfbfbf" points="514.65,-56.5 514.65,-75.5 561.65,-75.5 561.65,-56.5 514.65,-56.5"/>
<text text-anchor="middle" x="538.15" y="-63.5" font-family="Helvetica,sans-Serif" font-size="10.00">vector</text>
</a>
</g>
</g>
<!-- Node1&#45;&gt;Node3 -->
<g id="edge2" class="edge">
<title>Node1&#45;&gt;Node3</title>
<path fill="none" stroke="midnightblue" d="M575.98,-280.38C575.33,-254.49 572.07,-175.28 556.15,-112 553.84,-102.82 550.08,-93.02 546.59,-84.91"/>
<polygon fill="midnightblue" stroke="midnightblue" points="549.76,-83.41 542.45,-75.73 543.37,-86.29 549.76,-83.41"/>
</g>
<!-- Node4 -->
<g id="node4" class="node">
<title>Node4</title>
<g id="a_node4"><a xlink:href="board_8h.html" target="_top" xlink:title=" ">
<polygon fill="white" stroke="black" points="247.65,-224.5 247.65,-243.5 300.65,-243.5 300.65,-224.5 247.65,-224.5"/>
<text text-anchor="middle" x="274.15" y="-231.5" font-family="Helvetica,sans-Serif" font-size="10.00">board.h</text>
</a>
</g>
</g>
<!-- Node1&#45;&gt;Node4 -->
<g id="edge3" class="edge">
<title>Node1&#45;&gt;Node4</title>
<path fill="none" stroke="midnightblue" d="M539.42,-282.43C481.41,-272.06 369.21,-252 311.08,-241.6"/>
<polygon fill="midnightblue" stroke="midnightblue" points="311.34,-238.09 300.88,-239.78 310.1,-244.99 311.34,-238.09"/>
</g>
<!-- Node4&#45;&gt;Node2 -->
<g id="edge4" class="edge">
<title>Node4&#45;&gt;Node2</title>
<path fill="none" stroke="midnightblue" d="M247.22,-232.74C185.02,-231.52 34.29,-224.75 3.15,-188 -2.6,-181.22 2.06,-176.82 3.15,-168 6.28,-142.54 -0.3,-130.81 17.15,-112 87.34,-36.27 215.62,-17.26 280.81,-12.53"/>
<polygon fill="midnightblue" stroke="midnightblue" points="281.33,-16.01 291.09,-11.87 280.88,-9.02 281.33,-16.01"/>
</g>
<!-- Node4&#45;&gt;Node3 -->
<g id="edge5" class="edge">
<title>Node4&#45;&gt;Node3</title>
<path fill="none" stroke="midnightblue" d="M300.71,-231.88C357.73,-228.92 489.11,-218.82 519.15,-188 545.76,-160.68 544.41,-112.24 541.21,-85.69"/>
<polygon fill="midnightblue" stroke="midnightblue" points="544.68,-85.19 539.81,-75.78 537.75,-86.17 544.68,-85.19"/>
</g>
<!-- Node5 -->
<g id="node5" class="node">
<title>Node5</title>
<g id="a_node5"><a xlink:href="square_8h.html" target="_top" xlink:title=" ">
<polygon fill="white" stroke="black" points="450.65,-168.5 450.65,-187.5 509.65,-187.5 509.65,-168.5 450.65,-168.5"/>
<text text-anchor="middle" x="480.15" y="-175.5" font-family="Helvetica,sans-Serif" font-size="10.00">square.h</text>
</a>
</g>
</g>
<!-- Node4&#45;&gt;Node5 -->
<g id="edge6" class="edge">
<title>Node4&#45;&gt;Node5</title>
<path fill="none" stroke="midnightblue" d="M300.65,-226.05C336.19,-216.74 399.56,-200.12 440.71,-189.34"/>
<polygon fill="midnightblue" stroke="midnightblue" points="441.62,-192.72 450.41,-186.8 439.85,-185.95 441.62,-192.72"/>
</g>
<!-- Node8 -->
<g id="node8" class="node">
<title>Node8</title>
<g id="a_node8"><a xlink:href="position_8h.html" target="_top" xlink:title=" ">
<polygon fill="white" stroke="black" points="227.65,-56.5 227.65,-75.5 292.65,-75.5 292.65,-56.5 227.65,-56.5"/>
<text text-anchor="middle" x="260.15" y="-63.5" font-family="Helvetica,sans-Serif" font-size="10.00">position.h</text>
</a>
</g>
</g>
<!-- Node4&#45;&gt;Node8 -->
<g id="edge14" class="edge">
<title>Node4&#45;&gt;Node8</title>
<path fill="none" stroke="midnightblue" d="M247.26,-232.47C187.46,-230.68 46.36,-222.77 17.15,-188 -42.44,-117.08 132.72,-83.73 217.28,-72.07"/>
<polygon fill="midnightblue" stroke="midnightblue" points="217.92,-75.52 227.36,-70.72 216.99,-68.58 217.92,-75.52"/>
</g>
<!-- Node9 -->
<g id="node9" class="node">
<title>Node9</title>
<g id="a_node9"><a xlink:href="pawn_8h.html" target="_top" xlink:title=" ">
<polygon fill="white" stroke="black" points="176.15,-168.5 176.15,-187.5 228.15,-187.5 228.15,-168.5 176.15,-168.5"/>
<text text-anchor="middle" x="202.15" y="-175.5" font-family="Helvetica,sans-Serif" font-size="10.00">pawn.h</text>
</a>
</g>
</g>
<!-- Node4&#45;&gt;Node9 -->
<g id="edge15" class="edge">
<title>Node4&#45;&gt;Node9</title>
<path fill="none" stroke="midnightblue" d="M262.58,-224.32C251.73,-216.18 235.26,-203.84 222.26,-194.09"/>
<polygon fill="midnightblue" stroke="midnightblue" points="224.02,-191.03 213.92,-187.83 219.82,-196.63 224.02,-191.03"/>
</g>
<!-- Node10 -->
<g id="node10" class="node">
<title>Node10</title>
<g id="a_node10"><a xlink:href="queen_8h.html" target="_top" xlink:title=" ">
<polygon fill="white" stroke="black" points="246.15,-168.5 246.15,-187.5 302.15,-187.5 302.15,-168.5 246.15,-168.5"/>
<text text-anchor="middle" x="274.15" y="-175.5" font-family="Helvetica,sans-Serif" font-size="10.00">queen.h</text>
</a>
</g>
</g>
<!-- Node4&#45;&gt;Node10 -->
<g id="edge17" class="edge">
<title>Node4&#45;&gt;Node10</title>
<path fill="none" stroke="midnightblue" d="M274.15,-224.08C274.15,-217.01 274.15,-206.86 274.15,-197.99"/>
<polygon fill="midnightblue" stroke="midnightblue" points="277.65,-197.75 274.15,-187.75 270.65,-197.75 277.65,-197.75"/>
</g>
<!-- Node11 -->
<g id="node11" class="node">
<title>Node11</title>
<g id="a_node11"><a xlink:href="king_8h.html" target="_top" xlink:title=" ">
<polygon fill="white" stroke="black" points="320.65,-168.5 320.65,-187.5 367.65,-187.5 367.65,-168.5 320.65,-168.5"/>
<text text-anchor="middle" x="344.15" y="-175.5" font-family="Helvetica,sans-Serif" font-size="10.00">king.h</text>
</a>
</g>
</g>
<!-- Node4&#45;&gt;Node11 -->
<g id="edge19" class="edge">
<title>Node4&#45;&gt;Node11</title>
<path fill="none" stroke="midnightblue" d="M285.39,-224.32C295.94,-216.18 311.95,-203.84 324.59,-194.09"/>
<polygon fill="midnightblue" stroke="midnightblue" points="326.91,-196.71 332.69,-187.83 322.64,-191.17 326.91,-196.71"/>
</g>
<!-- Node12 -->
<g id="node12" class="node">
<title>Node12</title>
<g id="a_node12"><a xlink:href="rook_8h.html" target="_top" xlink:title=" ">
<polygon fill="white" stroke="black" points="385.65,-168.5 385.65,-187.5 432.65,-187.5 432.65,-168.5 385.65,-168.5"/>
<text text-anchor="middle" x="409.15" y="-175.5" font-family="Helvetica,sans-Serif" font-size="10.00">rook.h</text>
</a>
</g>
</g>
<!-- Node4&#45;&gt;Node12 -->
<g id="edge21" class="edge">
<title>Node4&#45;&gt;Node12</title>
<path fill="none" stroke="midnightblue" d="M295.54,-224.44C317.85,-215.52 353.05,-201.44 378.35,-191.32"/>
<polygon fill="midnightblue" stroke="midnightblue" points="379.87,-194.48 387.85,-187.52 377.27,-187.98 379.87,-194.48"/>
</g>
<!-- Node13 -->
<g id="node13" class="node">
<title>Node13</title>
<g id="a_node13"><a xlink:href="bishop_8h.html" target="_top" xlink:title=" ">
<polygon fill="white" stroke="black" points="26.15,-168.5 26.15,-187.5 84.15,-187.5 84.15,-168.5 26.15,-168.5"/>
<text text-anchor="middle" x="55.15" y="-175.5" font-family="Helvetica,sans-Serif" font-size="10.00">bishop.h</text>
</a>
</g>
</g>
<!-- Node4&#45;&gt;Node13 -->
<g id="edge23" class="edge">
<title>Node4&#45;&gt;Node13</title>
<path fill="none" stroke="midnightblue" d="M247.29,-226.38C208.93,-216.92 138.22,-199.49 94.11,-188.61"/>
<polygon fill="midnightblue" stroke="midnightblue" points="94.86,-185.19 84.31,-186.19 93.18,-191.98 94.86,-185.19"/>
</g>
<!-- Node14 -->
<g id="node14" class="node">
<title>Node14</title>
<g id="a_node14"><a xlink:href="knight_8h.html" target="_top" xlink:title=" ">
<polygon fill="white" stroke="black" points="102.15,-168.5 102.15,-187.5 158.15,-187.5 158.15,-168.5 102.15,-168.5"/>
<text text-anchor="middle" x="130.15" y="-175.5" font-family="Helvetica,sans-Serif" font-size="10.00">knight.h</text>
</a>
</g>
</g>
<!-- Node4&#45;&gt;Node14 -->
<g id="edge25" class="edge">
<title>Node4&#45;&gt;Node14</title>
<path fill="none" stroke="midnightblue" d="M251.33,-224.44C227.31,-215.44 189.32,-201.19 162.28,-191.05"/>
<polygon fill="midnightblue" stroke="midnightblue" points="163.45,-187.75 152.86,-187.52 160.99,-194.3 163.45,-187.75"/>
</g>
<!-- Node5&#45;&gt;Node2 -->
<g id="edge7" class="edge">
<title>Node5&#45;&gt;Node2</title>
<path fill="none" stroke="midnightblue" d="M471.6,-168.08C445.92,-141.27 369.22,-61.19 336.36,-26.89"/>
<polygon fill="midnightblue" stroke="midnightblue" points="338.8,-24.37 329.35,-19.57 333.74,-29.21 338.8,-24.37"/>
</g>
<!-- Node6 -->
<g id="node6" class="node">
<title>Node6</title>
<g id="a_node6"><a xlink:title=" ">
<polygon fill="white" stroke="#bfbfbf" points="451.15,-112.5 451.15,-131.5 509.15,-131.5 509.15,-112.5 451.15,-112.5"/>
<text text-anchor="middle" x="480.15" y="-119.5" font-family="Helvetica,sans-Serif" font-size="10.00">memory</text>
</a>
</g>
</g>
<!-- Node5&#45;&gt;Node6 -->
<g id="edge8" class="edge">
<title>Node5&#45;&gt;Node6</title>
<path fill="none" stroke="midnightblue" d="M480.15,-168.08C480.15,-161.01 480.15,-150.86 480.15,-141.99"/>
<polygon fill="midnightblue" stroke="midnightblue" points="483.65,-141.75 480.15,-131.75 476.65,-141.75 483.65,-141.75"/>
</g>
<!-- Node7 -->
<g id="node7" class="node">
<title>Node7</title>
<g id="a_node7"><a xlink:href="piece_8h.html" target="_top" xlink:title=" ">
<polygon fill="white" stroke="black" points="265.15,-112.5 265.15,-131.5 317.15,-131.5 317.15,-112.5 265.15,-112.5"/>
<text text-anchor="middle" x="291.15" y="-119.5" font-family="Helvetica,sans-Serif" font-size="10.00">piece.h</text>
</a>
</g>
</g>
<!-- Node5&#45;&gt;Node7 -->
<g id="edge9" class="edge">
<title>Node5&#45;&gt;Node7</title>
<path fill="none" stroke="midnightblue" d="M450.61,-168.56C417.35,-159.06 363.28,-143.61 327.46,-133.38"/>
<polygon fill="midnightblue" stroke="midnightblue" points="328,-129.89 317.42,-130.51 326.08,-136.62 328,-129.89"/>
</g>
<!-- Node7&#45;&gt;Node2 -->
<g id="edge10" class="edge">
<title>Node7&#45;&gt;Node2</title>
<path fill="none" stroke="midnightblue" d="M293.5,-112.37C298.36,-94.54 309.61,-53.3 316.16,-29.27"/>
<polygon fill="midnightblue" stroke="midnightblue" points="319.55,-30.16 318.8,-19.59 312.79,-28.32 319.55,-30.16"/>
</g>
<!-- Node7&#45;&gt;Node3 -->
<g id="edge11" class="edge">
<title>Node7&#45;&gt;Node3</title>
<path fill="none" stroke="midnightblue" d="M317.58,-115.22C362.78,-105.34 454.83,-85.22 504.52,-74.35"/>
<polygon fill="midnightblue" stroke="midnightblue" points="505.43,-77.73 514.45,-72.18 503.94,-70.9 505.43,-77.73"/>
</g>
<!-- Node7&#45;&gt;Node8 -->
<g id="edge12" class="edge">
<title>Node7&#45;&gt;Node8</title>
<path fill="none" stroke="midnightblue" d="M286.03,-112.08C281.74,-104.61 275.49,-93.72 270.2,-84.52"/>
<polygon fill="midnightblue" stroke="midnightblue" points="273.18,-82.68 265.17,-75.75 267.11,-86.17 273.18,-82.68"/>
</g>
<!-- Node8&#45;&gt;Node2 -->
<g id="edge13" class="edge">
<title>Node8&#45;&gt;Node2</title>
<path fill="none" stroke="midnightblue" d="M269.95,-56.32C278.96,-48.34 292.55,-36.31 303.46,-26.65"/>
<polygon fill="midnightblue" stroke="midnightblue" points="306,-29.08 311.17,-19.83 301.36,-23.84 306,-29.08"/>
</g>
<!-- Node9&#45;&gt;Node7 -->
<g id="edge16" class="edge">
<title>Node9&#45;&gt;Node7</title>
<path fill="none" stroke="midnightblue" d="M216.44,-168.32C230.33,-159.9 251.64,-146.97 267.95,-137.07"/>
<polygon fill="midnightblue" stroke="midnightblue" points="270.15,-139.83 276.88,-131.65 266.52,-133.85 270.15,-139.83"/>
</g>
<!-- Node10&#45;&gt;Node7 -->
<g id="edge18" class="edge">
<title>Node10&#45;&gt;Node7</title>
<path fill="none" stroke="midnightblue" d="M276.95,-168.08C279.23,-160.85 282.52,-150.41 285.35,-141.4"/>
<polygon fill="midnightblue" stroke="midnightblue" points="288.73,-142.34 288.39,-131.75 282.05,-140.24 288.73,-142.34"/>
</g>
<!-- Node11&#45;&gt;Node7 -->
<g id="edge20" class="edge">
<title>Node11&#45;&gt;Node7</title>
<path fill="none" stroke="midnightblue" d="M335.39,-168.08C327.68,-160.22 316.24,-148.57 306.93,-139.08"/>
<polygon fill="midnightblue" stroke="midnightblue" points="309.24,-136.44 299.73,-131.75 304.24,-141.34 309.24,-136.44"/>
</g>
<!-- Node12&#45;&gt;Node7 -->
<g id="edge22" class="edge">
<title>Node12&#45;&gt;Node7</title>
<path fill="none" stroke="midnightblue" d="M390.45,-168.44C371.2,-159.64 340.99,-145.81 318.95,-135.72"/>
<polygon fill="midnightblue" stroke="midnightblue" points="320.3,-132.5 309.76,-131.52 317.39,-138.86 320.3,-132.5"/>
</g>
<!-- Node13&#45;&gt;Node7 -->
<g id="edge24" class="edge">
<title>Node13&#45;&gt;Node7</title>
<path fill="none" stroke="midnightblue" d="M84.19,-170.09C87.21,-169.38 90.24,-168.67 93.15,-168 149.57,-154.91 215.13,-140.08 254.86,-131.14"/>
<polygon fill="midnightblue" stroke="midnightblue" points="255.88,-134.5 264.86,-128.89 254.34,-127.67 255.88,-134.5"/>
</g>
<!-- Node14&#45;&gt;Node7 -->
<g id="edge26" class="edge">
<title>Node14&#45;&gt;Node7</title>
<path fill="none" stroke="midnightblue" d="M155.66,-168.44C182.74,-159.36 225.74,-144.94 256.01,-134.78"/>
<polygon fill="midnightblue" stroke="midnightblue" points="257.39,-138.01 265.75,-131.52 255.16,-131.38 257.39,-138.01"/>
</g>
</g>
</svg>
