<?xml version="1.0" encoding="UTF-8" standalone="no"?>
<!DOCTYPE svg PUBLIC "-//W3C//DTD SVG 1.1//EN"
 "http://www.w3.org/Graphics/SVG/1.1/DTD/svg11.dtd">
<!-- Generated by graphviz version 2.43.0 (0)
 -->
<!-- Title: src/queen.cpp Pages: 1 -->
<svg width="157pt" height="252pt"
 viewBox="0.00 0.00 156.50 252.00" xmlns="http://www.w3.org/2000/svg" xmlns:xlink="http://www.w3.org/1999/xlink">
<g id="graph0" class="graph" transform="scale(1 1) rotate(0) translate(4 248)">
<title>src/queen.cpp</title>
<polygon fill="white" stroke="transparent" points="-4,4 -4,-248 152.5,-248 152.5,4 -4,4"/>
<!-- Node1 -->
<g id="node1" class="node">
<title>Node1</title>
<g id="a_node1"><a xlink:title=" ">
<polygon fill="#bfbfbf" stroke="black" points="0,-224.5 0,-243.5 84,-243.5 84,-224.5 0,-224.5"/>
<text text-anchor="middle" x="42" y="-231.5" font-family="Helvetica,sans-Serif" font-size="10.00">src/queen.cpp</text>
</a>
</g>
</g>
<!-- Node2 -->
<g id="node2" class="node">
<title>Node2</title>
<g id="a_node2"><a xlink:href="queen_8h.html" target="_top" xlink:title=" ">
<polygon fill="white" stroke="black" points="14,-168.5 14,-187.5 70,-187.5 70,-168.5 14,-168.5"/>
<text text-anchor="middle" x="42" y="-175.5" font-family="Helvetica,sans-Serif" font-size="10.00">queen.h</text>
</a>
</g>
</g>
<!-- Node1&#45;&gt;Node2 -->
<g id="edge1" class="edge">
<title>Node1&#45;&gt;Node2</title>
<path fill="none" stroke="midnightblue" d="M42,-224.08C42,-217.01 42,-206.86 42,-197.99"/>
<polygon fill="midnightblue" stroke="midnightblue" points="45.5,-197.75 42,-187.75 38.5,-197.75 45.5,-197.75"/>
</g>
<!-- Node3 -->
<g id="node3" class="node">
<title>Node3</title>
<g id="a_node3"><a xlink:href="piece_8h.html" target="_top" xlink:title=" ">
<polygon fill="white" stroke="black" points="16,-112.5 16,-131.5 68,-131.5 68,-112.5 16,-112.5"/>
<text text-anchor="middle" x="42" y="-119.5" font-family="Helvetica,sans-Serif" font-size="10.00">piece.h</text>
</a>
</g>
</g>
<!-- Node2&#45;&gt;Node3 -->
<g id="edge2" class="edge">
<title>Node2&#45;&gt;Node3</title>
<path fill="none" stroke="midnightblue" d="M42,-168.08C42,-161.01 42,-150.86 42,-141.99"/>
<polygon fill="midnightblue" stroke="midnightblue" points="45.5,-141.75 42,-131.75 38.5,-141.75 45.5,-141.75"/>
</g>
<!-- Node4 -->
<g id="node4" class="node">
<title>Node4</title>
<g id="a_node4"><a xlink:title=" ">
<polygon fill="white" stroke="#bfbfbf" points="23,-0.5 23,-19.5 83,-19.5 83,-0.5 23,-0.5"/>
<text text-anchor="middle" x="53" y="-7.5" font-family="Helvetica,sans-Serif" font-size="10.00">iostream</text>
</a>
</g>
</g>
<!-- Node3&#45;&gt;Node4 -->
<g id="edge3" class="edge">
<title>Node3&#45;&gt;Node4</title>
<path fill="none" stroke="midnightblue" d="M32.31,-112.38C19.77,-100.14 0.5,-76.86 9,-56 13.8,-44.23 23.33,-33.86 32.29,-26.05"/>
<polygon fill="midnightblue" stroke="midnightblue" points="34.65,-28.64 40.22,-19.63 30.25,-23.2 34.65,-28.64"/>
</g>
<!-- Node5 -->
<g id="node5" class="node">
<title>Node5</title>
<g id="a_node5"><a xlink:title=" ">
<polygon fill="white" stroke="#bfbfbf" points="18.5,-56.5 18.5,-75.5 65.5,-75.5 65.5,-56.5 18.5,-56.5"/>
<text text-anchor="middle" x="42" y="-63.5" font-family="Helvetica,sans-Serif" font-size="10.00">vector</text>
</a>
</g>
</g>
<!-- Node3&#45;&gt;Node5 -->
<g id="edge4" class="edge">
<title>Node3&#45;&gt;Node5</title>
<path fill="none" stroke="midnightblue" d="M42,-112.08C42,-105.01 42,-94.86 42,-85.99"/>
<polygon fill="midnightblue" stroke="midnightblue" points="45.5,-85.75 42,-75.75 38.5,-85.75 45.5,-85.75"/>
</g>
<!-- Node6 -->
<g id="node6" class="node">
<title>Node6</title>
<g id="a_node6"><a xlink:href="position_8h.html" target="_top" xlink:title=" ">
<polygon fill="white" stroke="black" points="83.5,-56.5 83.5,-75.5 148.5,-75.5 148.5,-56.5 83.5,-56.5"/>
<text text-anchor="middle" x="116" y="-63.5" font-family="Helvetica,sans-Serif" font-size="10.00">position.h</text>
</a>
</g>
</g>
<!-- Node3&#45;&gt;Node6 -->
<g id="edge5" class="edge">
<title>Node3&#45;&gt;Node6</title>
<path fill="none" stroke="midnightblue" d="M53.89,-112.32C65.15,-104.11 82.29,-91.6 95.71,-81.81"/>
<polygon fill="midnightblue" stroke="midnightblue" points="97.88,-84.56 103.89,-75.83 93.75,-78.9 97.88,-84.56"/>
</g>
<!-- Node6&#45;&gt;Node4 -->
<g id="edge6" class="edge">
<title>Node6&#45;&gt;Node4</title>
<path fill="none" stroke="midnightblue" d="M105.88,-56.32C96.47,-48.26 82.26,-36.08 70.93,-26.37"/>
<polygon fill="midnightblue" stroke="midnightblue" points="73.18,-23.68 63.31,-19.83 68.62,-29 73.18,-23.68"/>
</g>
</g>
</svg>
