<?xml version="1.0" encoding="UTF-8" standalone="no"?>
<!DOCTYPE svg PUBLIC "-//W3C//DTD SVG 1.1//EN"
 "http://www.w3.org/Graphics/SVG/1.1/DTD/svg11.dtd">
<!-- Generated by graphviz version 2.43.0 (0)
 -->
<!-- Title: src/queen.h Pages: 1 -->
<svg width="151pt" height="196pt"
 viewBox="0.00 0.00 151.00 196.00" xmlns="http://www.w3.org/2000/svg" xmlns:xlink="http://www.w3.org/1999/xlink">
<g id="graph0" class="graph" transform="scale(1 1) rotate(0) translate(4 192)">
<title>src/queen.h</title>
<polygon fill="white" stroke="transparent" points="-4,4 -4,-192 147,-192 147,4 -4,4"/>
<!-- Node1 -->
<g id="node1" class="node">
<title>Node1</title>
<g id="a_node1"><a xlink:title=" ">
<polygon fill="#bfbfbf" stroke="black" points="0,-168.5 0,-187.5 73,-187.5 73,-168.5 0,-168.5"/>
<text text-anchor="middle" x="36.5" y="-175.5" font-family="Helvetica,sans-Serif" font-size="10.00">src/queen.h</text>
</a>
</g>
</g>
<!-- Node2 -->
<g id="node2" class="node">
<title>Node2</title>
<g id="a_node2"><a xlink:href="piece_8h.html" target="_top" xlink:title=" ">
<polygon fill="white" stroke="black" points="10.5,-112.5 10.5,-131.5 62.5,-131.5 62.5,-112.5 10.5,-112.5"/>
<text text-anchor="middle" x="36.5" y="-119.5" font-family="Helvetica,sans-Serif" font-size="10.00">piece.h</text>
</a>
</g>
</g>
<!-- Node1&#45;&gt;Node2 -->
<g id="edge1" class="edge">
<title>Node1&#45;&gt;Node2</title>
<path fill="none" stroke="midnightblue" d="M36.5,-168.08C36.5,-161.01 36.5,-150.86 36.5,-141.99"/>
<polygon fill="midnightblue" stroke="midnightblue" points="40,-141.75 36.5,-131.75 33,-141.75 40,-141.75"/>
</g>
<!-- Node3 -->
<g id="node3" class="node">
<title>Node3</title>
<g id="a_node3"><a xlink:title=" ">
<polygon fill="white" stroke="#bfbfbf" points="17.5,-0.5 17.5,-19.5 77.5,-19.5 77.5,-0.5 17.5,-0.5"/>
<text text-anchor="middle" x="47.5" y="-7.5" font-family="Helvetica,sans-Serif" font-size="10.00">iostream</text>
</a>
</g>
</g>
<!-- Node2&#45;&gt;Node3 -->
<g id="edge2" class="edge">
<title>Node2&#45;&gt;Node3</title>
<path fill="none" stroke="midnightblue" d="M26.81,-112.38C14.27,-100.14 -5,-76.86 3.5,-56 8.3,-44.23 17.83,-33.86 26.79,-26.05"/>
<polygon fill="midnightblue" stroke="midnightblue" points="29.15,-28.64 34.72,-19.63 24.75,-23.2 29.15,-28.64"/>
</g>
<!-- Node4 -->
<g id="node4" class="node">
<title>Node4</title>
<g id="a_node4"><a xlink:title=" ">
<polygon fill="white" stroke="#bfbfbf" points="13,-56.5 13,-75.5 60,-75.5 60,-56.5 13,-56.5"/>
<text text-anchor="middle" x="36.5" y="-63.5" font-family="Helvetica,sans-Serif" font-size="10.00">vector</text>
</a>
</g>
</g>
<!-- Node2&#45;&gt;Node4 -->
<g id="edge3" class="edge">
<title>Node2&#45;&gt;Node4</title>
<path fill="none" stroke="midnightblue" d="M36.5,-112.08C36.5,-105.01 36.5,-94.86 36.5,-85.99"/>
<polygon fill="midnightblue" stroke="midnightblue" points="40,-85.75 36.5,-75.75 33,-85.75 40,-85.75"/>
</g>
<!-- Node5 -->
<g id="node5" class="node">
<title>Node5</title>
<g id="a_node5"><a xlink:href="position_8h.html" target="_top" xlink:title=" ">
<polygon fill="white" stroke="black" points="78,-56.5 78,-75.5 143,-75.5 143,-56.5 78,-56.5"/>
<text text-anchor="middle" x="110.5" y="-63.5" font-family="Helvetica,sans-Serif" font-size="10.00">position.h</text>
</a>
</g>
</g>
<!-- Node2&#45;&gt;Node5 -->
<g id="edge4" class="edge">
<title>Node2&#45;&gt;Node5</title>
<path fill="none" stroke="midnightblue" d="M48.39,-112.32C59.65,-104.11 76.79,-91.6 90.21,-81.81"/>
<polygon fill="midnightblue" stroke="midnightblue" points="92.38,-84.56 98.39,-75.83 88.25,-78.9 92.38,-84.56"/>
</g>
<!-- Node5&#45;&gt;Node3 -->
<g id="edge5" class="edge">
<title>Node5&#45;&gt;Node3</title>
<path fill="none" stroke="midnightblue" d="M100.38,-56.32C90.97,-48.26 76.76,-36.08 65.43,-26.37"/>
<polygon fill="midnightblue" stroke="midnightblue" points="67.68,-23.68 57.81,-19.83 63.12,-29 67.68,-23.68"/>
</g>
</g>
</svg>
