<?xml version="1.0" encoding="UTF-8" standalone="no"?>
<!DOCTYPE svg PUBLIC "-//W3C//DTD SVG 1.1//EN"
 "http://www.w3.org/Graphics/SVG/1.1/DTD/svg11.dtd">
<!-- Generated by graphviz version 2.43.0 (0)
 -->
<!-- Title: src/rook.cpp Pages: 1 -->
<svg width="153pt" height="252pt"
 viewBox="0.00 0.00 152.50 252.00" xmlns="http://www.w3.org/2000/svg" xmlns:xlink="http://www.w3.org/1999/xlink">
<g id="graph0" class="graph" transform="scale(1 1) rotate(0) translate(4 248)">
<title>src/rook.cpp</title>
<polygon fill="white" stroke="transparent" points="-4,4 -4,-248 148.5,-248 148.5,4 -4,4"/>
<!-- Node1 -->
<g id="node1" class="node">
<title>Node1</title>
<g id="a_node1"><a xlink:title=" ">
<polygon fill="#bfbfbf" stroke="black" points="0,-224.5 0,-243.5 76,-243.5 76,-224.5 0,-224.5"/>
<text text-anchor="middle" x="38" y="-231.5" font-family="Helvetica,sans-Serif" font-size="10.00">src/rook.cpp</text>
</a>
</g>
</g>
<!-- Node2 -->
<g id="node2" class="node">
<title>Node2</title>
<g id="a_node2"><a xlink:href="rook_8h.html" target="_top" xlink:title=" ">
<polygon fill="white" stroke="black" points="14.5,-168.5 14.5,-187.5 61.5,-187.5 61.5,-168.5 14.5,-168.5"/>
<text text-anchor="middle" x="38" y="-175.5" font-family="Helvetica,sans-Serif" font-size="10.00">rook.h</text>
</a>
</g>
</g>
<!-- Node1&#45;&gt;Node2 -->
<g id="edge1" class="edge">
<title>Node1&#45;&gt;Node2</title>
<path fill="none" stroke="midnightblue" d="M38,-224.08C38,-217.01 38,-206.86 38,-197.99"/>
<polygon fill="midnightblue" stroke="midnightblue" points="41.5,-197.75 38,-187.75 34.5,-197.75 41.5,-197.75"/>
</g>
<!-- Node3 -->
<g id="node3" class="node">
<title>Node3</title>
<g id="a_node3"><a xlink:href="piece_8h.html" target="_top" xlink:title=" ">
<polygon fill="white" stroke="black" points="12,-112.5 12,-131.5 64,-131.5 64,-112.5 12,-112.5"/>
<text text-anchor="middle" x="38" y="-119.5" font-family="Helvetica,sans-Serif" font-size="10.00">piece.h</text>
</a>
</g>
</g>
<!-- Node2&#45;&gt;Node3 -->
<g id="edge2" class="edge">
<title>Node2&#45;&gt;Node3</title>
<path fill="none" stroke="midnightblue" d="M38,-168.08C38,-161.01 38,-150.86 38,-141.99"/>
<polygon fill="midnightblue" stroke="midnightblue" points="41.5,-141.75 38,-131.75 34.5,-141.75 41.5,-141.75"/>
</g>
<!-- Node4 -->
<g id="node4" class="node">
<title>Node4</title>
<g id="a_node4"><a xlink:title=" ">
<polygon fill="white" stroke="#bfbfbf" points="19,-0.5 19,-19.5 79,-19.5 79,-0.5 19,-0.5"/>
<text text-anchor="middle" x="49" y="-7.5" font-family="Helvetica,sans-Serif" font-size="10.00">iostream</text>
</a>
</g>
</g>
<!-- Node3&#45;&gt;Node4 -->
<g id="edge3" class="edge">
<title>Node3&#45;&gt;Node4</title>
<path fill="none" stroke="midnightblue" d="M28.31,-112.38C15.77,-100.14 -3.5,-76.86 5,-56 9.8,-44.23 19.33,-33.86 28.29,-26.05"/>
<polygon fill="midnightblue" stroke="midnightblue" points="30.65,-28.64 36.22,-19.63 26.25,-23.2 30.65,-28.64"/>
</g>
<!-- Node5 -->
<g id="node5" class="node">
<title>Node5</title>
<g id="a_node5"><a xlink:title=" ">
<polygon fill="white" stroke="#bfbfbf" points="14.5,-56.5 14.5,-75.5 61.5,-75.5 61.5,-56.5 14.5,-56.5"/>
<text text-anchor="middle" x="38" y="-63.5" font-family="Helvetica,sans-Serif" font-size="10.00">vector</text>
</a>
</g>
</g>
<!-- Node3&#45;&gt;Node5 -->
<g id="edge4" class="edge">
<title>Node3&#45;&gt;Node5</title>
<path fill="none" stroke="midnightblue" d="M38,-112.08C38,-105.01 38,-94.86 38,-85.99"/>
<polygon fill="midnightblue" stroke="midnightblue" points="41.5,-85.75 38,-75.75 34.5,-85.75 41.5,-85.75"/>
</g>
<!-- Node6 -->
<g id="node6" class="node">
<title>Node6</title>
<g id="a_node6"><a xlink:href="position_8h.html" target="_top" xlink:title=" ">
<polygon fill="white" stroke="black" points="79.5,-56.5 79.5,-75.5 144.5,-75.5 144.5,-56.5 79.5,-56.5"/>
<text text-anchor="middle" x="112" y="-63.5" font-family="Helvetica,sans-Serif" font-size="10.00">position.h</text>
</a>
</g>
</g>
<!-- Node3&#45;&gt;Node6 -->
<g id="edge5" class="edge">
<title>Node3&#45;&gt;Node6</title>
<path fill="none" stroke="midnightblue" d="M49.89,-112.32C61.15,-104.11 78.29,-91.6 91.71,-81.81"/>
<polygon fill="midnightblue" stroke="midnightblue" points="93.88,-84.56 99.89,-75.83 89.75,-78.9 93.88,-84.56"/>
</g>
<!-- Node6&#45;&gt;Node4 -->
<g id="edge6" class="edge">
<title>Node6&#45;&gt;Node4</title>
<path fill="none" stroke="midnightblue" d="M101.88,-56.32C92.47,-48.26 78.26,-36.08 66.93,-26.37"/>
<polygon fill="midnightblue" stroke="midnightblue" points="69.18,-23.68 59.31,-19.83 64.62,-29 69.18,-23.68"/>
</g>
</g>
</svg>
