<?xml version="1.0" encoding="UTF-8" standalone="no"?>
<!DOCTYPE svg PUBLIC "-//W3C//DTD SVG 1.1//EN"
 "http://www.w3.org/Graphics/SVG/1.1/DTD/svg11.dtd">
<!-- Generated by graphviz version 2.43.0 (0)
 -->
<!-- Title: src/rules.h Pages: 1 -->
<svg width="700pt" height="420pt"
 viewBox="0.00 0.00 700.12 420.00" xmlns="http://www.w3.org/2000/svg" xmlns:xlink="http://www.w3.org/1999/xlink">
<g id="graph0" class="graph" transform="scale(1 1) rotate(0) translate(4 416)">
<title>src/rules.h</title>
<polygon fill="white" stroke="transparent" points="-4,4 -4,-416 696.12,-416 696.12,4 -4,4"/>
<!-- Node1 -->
<g id="node1" class="node">
<title>Node1</title>
<g id="a_node1"><a xlink:title=" ">
<polygon fill="#bfbfbf" stroke="black" points="543.62,-392.5 543.62,-411.5 610.62,-411.5 610.62,-392.5 543.62,-392.5"/>
<text text-anchor="middle" x="577.12" y="-399.5" font-family="Helvetica,sans-Serif" font-size="10.00">src/rules.h</text>
</a>
</g>
</g>
<!-- Node2 -->
<g id="node2" class="node">
<title>Node2</title>
<g id="a_node2"><a xlink:title=" ">
<polygon fill="white" stroke="#bfbfbf" points="396.12,-0.5 396.12,-19.5 456.12,-19.5 456.12,-0.5 396.12,-0.5"/>
<text text-anchor="middle" x="426.12" y="-7.5" font-family="Helvetica,sans-Serif" font-size="10.00">iostream</text>
</a>
</g>
</g>
<!-- Node1&#45;&gt;Node2 -->
<g id="edge1" class="edge">
<title>Node1&#45;&gt;Node2</title>
<path fill="none" stroke="midnightblue" d="M597.94,-392.47C631.08,-377.36 692.12,-342.53 692.12,-291 692.12,-291 692.12,-291 692.12,-121 692.12,-24.67 541.29,-11.04 466.78,-10.19"/>
<polygon fill="midnightblue" stroke="midnightblue" points="466.39,-6.68 456.37,-10.14 466.36,-13.68 466.39,-6.68"/>
</g>
<!-- Node3 -->
<g id="node3" class="node">
<title>Node3</title>
<g id="a_node3"><a xlink:href="board_8h.html" target="_top" xlink:title=" ">
<polygon fill="white" stroke="black" points="304.62,-224.5 304.62,-243.5 357.62,-243.5 357.62,-224.5 304.62,-224.5"/>
<text text-anchor="middle" x="331.12" y="-231.5" font-family="Helvetica,sans-Serif" font-size="10.00">board.h</text>
</a>
</g>
</g>
<!-- Node1&#45;&gt;Node3 -->
<g id="edge2" class="edge">
<title>Node1&#45;&gt;Node3</title>
<path fill="none" stroke="midnightblue" d="M564.24,-392.31C524.22,-365.3 401.76,-282.67 352.23,-249.25"/>
<polygon fill="midnightblue" stroke="midnightblue" points="354.12,-246.3 343.87,-243.61 350.2,-252.1 354.12,-246.3"/>
</g>
<!-- Node15 -->
<g id="node15" class="node">
<title>Node15</title>
<g id="a_node15"><a xlink:href="player_8h.html" target="_top" xlink:title=" ">
<polygon fill="white" stroke="black" points="550.12,-280.5 550.12,-299.5 606.12,-299.5 606.12,-280.5 550.12,-280.5"/>
<text text-anchor="middle" x="578.12" y="-287.5" font-family="Helvetica,sans-Serif" font-size="10.00">player.h</text>
</a>
</g>
</g>
<!-- Node1&#45;&gt;Node15 -->
<g id="edge26" class="edge">
<title>Node1&#45;&gt;Node15</title>
<path fill="none" stroke="midnightblue" d="M574.79,-392.18C571.77,-379.7 567.12,-356.14 569.12,-336 569.99,-327.17 571.81,-317.51 573.58,-309.4"/>
<polygon fill="midnightblue" stroke="midnightblue" points="577.02,-310.08 575.88,-299.55 570.2,-308.49 577.02,-310.08"/>
</g>
<!-- Node16 -->
<g id="node16" class="node">
<title>Node16</title>
<g id="a_node16"><a xlink:href="move_8h.html" target="_top" xlink:title=" ">
<polygon fill="white" stroke="black" points="578.62,-336.5 578.62,-355.5 631.62,-355.5 631.62,-336.5 578.62,-336.5"/>
<text text-anchor="middle" x="605.12" y="-343.5" font-family="Helvetica,sans-Serif" font-size="10.00">move.h</text>
</a>
</g>
</g>
<!-- Node1&#45;&gt;Node16 -->
<g id="edge30" class="edge">
<title>Node1&#45;&gt;Node16</title>
<path fill="none" stroke="midnightblue" d="M581.74,-392.08C585.57,-384.69 591.14,-373.95 595.88,-364.81"/>
<polygon fill="midnightblue" stroke="midnightblue" points="599.08,-366.24 600.58,-355.75 592.87,-363.02 599.08,-366.24"/>
</g>
<!-- Node3&#45;&gt;Node2 -->
<g id="edge3" class="edge">
<title>Node3&#45;&gt;Node2</title>
<path fill="none" stroke="midnightblue" d="M304.48,-233.61C233.46,-234.59 42.31,-232.94 3.12,-188 -2.73,-181.3 2.33,-176.85 3.12,-168 5.35,-142.82 -4.19,-130.43 13.12,-112 64.2,-57.59 292.25,-26.12 385.84,-15.3"/>
<polygon fill="midnightblue" stroke="midnightblue" points="386.5,-18.74 396.04,-14.14 385.71,-11.79 386.5,-18.74"/>
</g>
<!-- Node4 -->
<g id="node4" class="node">
<title>Node4</title>
<g id="a_node4"><a xlink:title=" ">
<polygon fill="white" stroke="#bfbfbf" points="516.62,-56.5 516.62,-75.5 563.62,-75.5 563.62,-56.5 516.62,-56.5"/>
<text text-anchor="middle" x="540.12" y="-63.5" font-family="Helvetica,sans-Serif" font-size="10.00">vector</text>
</a>
</g>
</g>
<!-- Node3&#45;&gt;Node4 -->
<g id="edge4" class="edge">
<title>Node3&#45;&gt;Node4</title>
<path fill="none" stroke="midnightblue" d="M357.97,-230.24C404.74,-224.87 498.27,-211.44 520.12,-188 546.05,-160.19 545.53,-112.3 542.85,-85.88"/>
<polygon fill="midnightblue" stroke="midnightblue" points="546.29,-85.19 541.6,-75.69 539.35,-86.05 546.29,-85.19"/>
</g>
<!-- Node5 -->
<g id="node5" class="node">
<title>Node5</title>
<g id="a_node5"><a xlink:href="square_8h.html" target="_top" xlink:title=" ">
<polygon fill="white" stroke="black" points="452.62,-168.5 452.62,-187.5 511.62,-187.5 511.62,-168.5 452.62,-168.5"/>
<text text-anchor="middle" x="482.12" y="-175.5" font-family="Helvetica,sans-Serif" font-size="10.00">square.h</text>
</a>
</g>
</g>
<!-- Node3&#45;&gt;Node5 -->
<g id="edge5" class="edge">
<title>Node3&#45;&gt;Node5</title>
<path fill="none" stroke="midnightblue" d="M355.04,-224.44C380.34,-215.4 420.42,-201.06 448.8,-190.92"/>
<polygon fill="midnightblue" stroke="midnightblue" points="450.07,-194.18 458.3,-187.52 447.71,-187.59 450.07,-194.18"/>
</g>
<!-- Node8 -->
<g id="node8" class="node">
<title>Node8</title>
<g id="a_node8"><a xlink:href="position_8h.html" target="_top" xlink:title=" ">
<polygon fill="white" stroke="black" points="294.62,-56.5 294.62,-75.5 359.62,-75.5 359.62,-56.5 294.62,-56.5"/>
<text text-anchor="middle" x="327.12" y="-63.5" font-family="Helvetica,sans-Serif" font-size="10.00">position.h</text>
</a>
</g>
</g>
<!-- Node3&#45;&gt;Node8 -->
<g id="edge13" class="edge">
<title>Node3&#45;&gt;Node8</title>
<path fill="none" stroke="midnightblue" d="M304.2,-233.41C235.26,-233.83 55.15,-230.73 18.12,-188 -58.77,-99.27 182.57,-75.13 284.21,-68.97"/>
<polygon fill="midnightblue" stroke="midnightblue" points="284.67,-72.45 294.45,-68.39 284.27,-65.46 284.67,-72.45"/>
</g>
<!-- Node9 -->
<g id="node9" class="node">
<title>Node9</title>
<g id="a_node9"><a xlink:href="pawn_8h.html" target="_top" xlink:title=" ">
<polygon fill="white" stroke="black" points="27.12,-168.5 27.12,-187.5 79.12,-187.5 79.12,-168.5 27.12,-168.5"/>
<text text-anchor="middle" x="53.12" y="-175.5" font-family="Helvetica,sans-Serif" font-size="10.00">pawn.h</text>
</a>
</g>
</g>
<!-- Node3&#45;&gt;Node9 -->
<g id="edge14" class="edge">
<title>Node3&#45;&gt;Node9</title>
<path fill="none" stroke="midnightblue" d="M304.39,-228.67C261.22,-221.54 173.28,-206.47 89.39,-188.16"/>
<polygon fill="midnightblue" stroke="midnightblue" points="89.96,-184.71 79.44,-185.98 88.46,-191.54 89.96,-184.71"/>
</g>
<!-- Node10 -->
<g id="node10" class="node">
<title>Node10</title>
<g id="a_node10"><a xlink:href="queen_8h.html" target="_top" xlink:title=" ">
<polygon fill="white" stroke="black" points="97.12,-168.5 97.12,-187.5 153.12,-187.5 153.12,-168.5 97.12,-168.5"/>
<text text-anchor="middle" x="125.12" y="-175.5" font-family="Helvetica,sans-Serif" font-size="10.00">queen.h</text>
</a>
</g>
</g>
<!-- Node3&#45;&gt;Node10 -->
<g id="edge16" class="edge">
<title>Node3&#45;&gt;Node10</title>
<path fill="none" stroke="midnightblue" d="M304.61,-226.05C268.64,-216.62 204.18,-199.72 163.08,-188.95"/>
<polygon fill="midnightblue" stroke="midnightblue" points="163.73,-185.5 153.17,-186.35 161.96,-192.28 163.73,-185.5"/>
</g>
<!-- Node11 -->
<g id="node11" class="node">
<title>Node11</title>
<g id="a_node11"><a xlink:href="king_8h.html" target="_top" xlink:title=" ">
<polygon fill="white" stroke="black" points="171.62,-168.5 171.62,-187.5 218.62,-187.5 218.62,-168.5 171.62,-168.5"/>
<text text-anchor="middle" x="195.12" y="-175.5" font-family="Helvetica,sans-Serif" font-size="10.00">king.h</text>
</a>
</g>
</g>
<!-- Node3&#45;&gt;Node11 -->
<g id="edge18" class="edge">
<title>Node3&#45;&gt;Node11</title>
<path fill="none" stroke="midnightblue" d="M309.57,-224.44C287.09,-215.52 251.63,-201.44 226.14,-191.32"/>
<polygon fill="midnightblue" stroke="midnightblue" points="227.15,-187.95 216.57,-187.52 224.57,-194.46 227.15,-187.95"/>
</g>
<!-- Node12 -->
<g id="node12" class="node">
<title>Node12</title>
<g id="a_node12"><a xlink:href="rook_8h.html" target="_top" xlink:title=" ">
<polygon fill="white" stroke="black" points="236.62,-168.5 236.62,-187.5 283.62,-187.5 283.62,-168.5 236.62,-168.5"/>
<text text-anchor="middle" x="260.12" y="-175.5" font-family="Helvetica,sans-Serif" font-size="10.00">rook.h</text>
</a>
</g>
</g>
<!-- Node3&#45;&gt;Node12 -->
<g id="edge20" class="edge">
<title>Node3&#45;&gt;Node12</title>
<path fill="none" stroke="midnightblue" d="M319.71,-224.32C309.01,-216.18 292.78,-203.84 279.95,-194.09"/>
<polygon fill="midnightblue" stroke="midnightblue" points="281.81,-191.1 271.73,-187.83 277.57,-196.67 281.81,-191.1"/>
</g>
<!-- Node13 -->
<g id="node13" class="node">
<title>Node13</title>
<g id="a_node13"><a xlink:href="bishop_8h.html" target="_top" xlink:title=" ">
<polygon fill="white" stroke="black" points="302.12,-168.5 302.12,-187.5 360.12,-187.5 360.12,-168.5 302.12,-168.5"/>
<text text-anchor="middle" x="331.12" y="-175.5" font-family="Helvetica,sans-Serif" font-size="10.00">bishop.h</text>
</a>
</g>
</g>
<!-- Node3&#45;&gt;Node13 -->
<g id="edge22" class="edge">
<title>Node3&#45;&gt;Node13</title>
<path fill="none" stroke="midnightblue" d="M331.12,-224.08C331.12,-217.01 331.12,-206.86 331.12,-197.99"/>
<polygon fill="midnightblue" stroke="midnightblue" points="334.62,-197.75 331.12,-187.75 327.62,-197.75 334.62,-197.75"/>
</g>
<!-- Node14 -->
<g id="node14" class="node">
<title>Node14</title>
<g id="a_node14"><a xlink:href="knight_8h.html" target="_top" xlink:title=" ">
<polygon fill="white" stroke="black" points="378.12,-168.5 378.12,-187.5 434.12,-187.5 434.12,-168.5 378.12,-168.5"/>
<text text-anchor="middle" x="406.12" y="-175.5" font-family="Helvetica,sans-Serif" font-size="10.00">knight.h</text>
</a>
</g>
</g>
<!-- Node3&#45;&gt;Node14 -->
<g id="edge24" class="edge">
<title>Node3&#45;&gt;Node14</title>
<path fill="none" stroke="midnightblue" d="M343.17,-224.32C354.58,-216.11 371.95,-203.6 385.55,-193.81"/>
<polygon fill="midnightblue" stroke="midnightblue" points="387.78,-196.52 393.85,-187.83 383.69,-190.84 387.78,-196.52"/>
</g>
<!-- Node5&#45;&gt;Node2 -->
<g id="edge6" class="edge">
<title>Node5&#45;&gt;Node2</title>
<path fill="none" stroke="midnightblue" d="M472.55,-168.35C463.91,-159.96 451.58,-146.39 445.12,-132 429.93,-98.17 426.62,-54.28 426.05,-29.74"/>
<polygon fill="midnightblue" stroke="midnightblue" points="429.55,-29.61 425.95,-19.65 422.55,-29.68 429.55,-29.61"/>
</g>
<!-- Node6 -->
<g id="node6" class="node">
<title>Node6</title>
<g id="a_node6"><a xlink:title=" ">
<polygon fill="white" stroke="#bfbfbf" points="454.12,-112.5 454.12,-131.5 512.12,-131.5 512.12,-112.5 454.12,-112.5"/>
<text text-anchor="middle" x="483.12" y="-119.5" font-family="Helvetica,sans-Serif" font-size="10.00">memory</text>
</a>
</g>
</g>
<!-- Node5&#45;&gt;Node6 -->
<g id="edge7" class="edge">
<title>Node5&#45;&gt;Node6</title>
<path fill="none" stroke="midnightblue" d="M482.28,-168.08C482.41,-161.01 482.6,-150.86 482.77,-141.99"/>
<polygon fill="midnightblue" stroke="midnightblue" points="486.27,-141.81 482.96,-131.75 479.27,-141.68 486.27,-141.81"/>
</g>
<!-- Node7 -->
<g id="node7" class="node">
<title>Node7</title>
<g id="a_node7"><a xlink:href="piece_8h.html" target="_top" xlink:title=" ">
<polygon fill="white" stroke="black" points="303.12,-112.5 303.12,-131.5 355.12,-131.5 355.12,-112.5 303.12,-112.5"/>
<text text-anchor="middle" x="329.12" y="-119.5" font-family="Helvetica,sans-Serif" font-size="10.00">piece.h</text>
</a>
</g>
</g>
<!-- Node5&#45;&gt;Node7 -->
<g id="edge8" class="edge">
<title>Node5&#45;&gt;Node7</title>
<path fill="none" stroke="midnightblue" d="M457.87,-168.44C432.25,-159.4 391.63,-145.06 362.88,-134.92"/>
<polygon fill="midnightblue" stroke="midnightblue" points="363.84,-131.54 353.25,-131.52 361.51,-138.15 363.84,-131.54"/>
</g>
<!-- Node7&#45;&gt;Node2 -->
<g id="edge9" class="edge">
<title>Node7&#45;&gt;Node2</title>
<path fill="none" stroke="midnightblue" d="M336.73,-112.37C352.88,-94.05 390.8,-51.05 411.69,-27.36"/>
<polygon fill="midnightblue" stroke="midnightblue" points="414.55,-29.41 418.54,-19.59 409.3,-24.78 414.55,-29.41"/>
</g>
<!-- Node7&#45;&gt;Node4 -->
<g id="edge10" class="edge">
<title>Node7&#45;&gt;Node4</title>
<path fill="none" stroke="midnightblue" d="M355.41,-114.27C393.69,-104.48 464.73,-86.29 506.67,-75.56"/>
<polygon fill="midnightblue" stroke="midnightblue" points="507.6,-78.93 516.42,-73.06 505.86,-72.15 507.6,-78.93"/>
</g>
<!-- Node7&#45;&gt;Node8 -->
<g id="edge11" class="edge">
<title>Node7&#45;&gt;Node8</title>
<path fill="none" stroke="midnightblue" d="M328.79,-112.08C328.53,-105.01 328.15,-94.86 327.82,-85.99"/>
<polygon fill="midnightblue" stroke="midnightblue" points="331.31,-85.61 327.44,-75.75 324.31,-85.87 331.31,-85.61"/>
</g>
<!-- Node8&#45;&gt;Node2 -->
<g id="edge12" class="edge">
<title>Node8&#45;&gt;Node2</title>
<path fill="none" stroke="midnightblue" d="M343.02,-56.32C358.76,-47.74 383.06,-34.49 401.33,-24.52"/>
<polygon fill="midnightblue" stroke="midnightblue" points="403.15,-27.52 410.25,-19.65 399.8,-21.37 403.15,-27.52"/>
</g>
<!-- Node9&#45;&gt;Node7 -->
<g id="edge15" class="edge">
<title>Node9&#45;&gt;Node7</title>
<path fill="none" stroke="midnightblue" d="M79.45,-170.03C82.36,-169.32 85.3,-168.62 88.12,-168 160.36,-151.99 245.63,-136.97 292.91,-128.98"/>
<polygon fill="midnightblue" stroke="midnightblue" points="293.69,-132.4 302.97,-127.29 292.53,-125.5 293.69,-132.4"/>
</g>
<!-- Node10&#45;&gt;Node7 -->
<g id="edge17" class="edge">
<title>Node10&#45;&gt;Node7</title>
<path fill="none" stroke="midnightblue" d="M153.48,-169.49C189.94,-159.84 253.27,-143.08 293.1,-132.53"/>
<polygon fill="midnightblue" stroke="midnightblue" points="294.16,-135.87 302.93,-129.93 292.37,-129.11 294.16,-135.87"/>
</g>
<!-- Node11&#45;&gt;Node7 -->
<g id="edge19" class="edge">
<title>Node11&#45;&gt;Node7</title>
<path fill="none" stroke="midnightblue" d="M216.35,-168.44C238.5,-159.52 273.44,-145.44 298.55,-135.32"/>
<polygon fill="midnightblue" stroke="midnightblue" points="300.02,-138.5 307.98,-131.52 297.4,-132.01 300.02,-138.5"/>
</g>
<!-- Node12&#45;&gt;Node7 -->
<g id="edge21" class="edge">
<title>Node12&#45;&gt;Node7</title>
<path fill="none" stroke="midnightblue" d="M271.2,-168.32C281.6,-160.18 297.38,-147.84 309.84,-138.09"/>
<polygon fill="midnightblue" stroke="midnightblue" points="312.11,-140.75 317.83,-131.83 307.8,-135.24 312.11,-140.75"/>
</g>
<!-- Node13&#45;&gt;Node7 -->
<g id="edge23" class="edge">
<title>Node13&#45;&gt;Node7</title>
<path fill="none" stroke="midnightblue" d="M330.79,-168.08C330.53,-161.01 330.15,-150.86 329.82,-141.99"/>
<polygon fill="midnightblue" stroke="midnightblue" points="333.31,-141.61 329.44,-131.75 326.31,-141.87 333.31,-141.61"/>
</g>
<!-- Node14&#45;&gt;Node7 -->
<g id="edge25" class="edge">
<title>Node14&#45;&gt;Node7</title>
<path fill="none" stroke="midnightblue" d="M393.75,-168.32C381.96,-160.06 363.99,-147.45 349.98,-137.63"/>
<polygon fill="midnightblue" stroke="midnightblue" points="351.66,-134.53 341.46,-131.65 347.64,-140.26 351.66,-134.53"/>
</g>
<!-- Node15&#45;&gt;Node2 -->
<g id="edge27" class="edge">
<title>Node15&#45;&gt;Node2</title>
<path fill="none" stroke="midnightblue" d="M583.4,-280.23C593.84,-262.04 616.12,-218.6 616.12,-179 616.12,-179 616.12,-179 616.12,-121 616.12,-52.29 521.89,-25.8 466.15,-16.14"/>
<polygon fill="midnightblue" stroke="midnightblue" points="466.66,-12.68 456.22,-14.53 465.53,-19.59 466.66,-12.68"/>
</g>
<!-- Node15&#45;&gt;Node3 -->
<g id="edge29" class="edge">
<title>Node15&#45;&gt;Node3</title>
<path fill="none" stroke="midnightblue" d="M549.78,-282.81C504.83,-272.98 417.19,-253.82 367.6,-242.98"/>
<polygon fill="midnightblue" stroke="midnightblue" points="368.14,-239.51 357.62,-240.79 366.65,-246.35 368.14,-239.51"/>
</g>
<!-- Node15&#45;&gt;Node4 -->
<g id="edge28" class="edge">
<title>Node15&#45;&gt;Node4</title>
<path fill="none" stroke="midnightblue" d="M577.96,-280.38C577.3,-254.49 574.04,-175.28 558.12,-112 555.81,-102.82 552.05,-93.02 548.57,-84.91"/>
<polygon fill="midnightblue" stroke="midnightblue" points="551.73,-83.41 544.43,-75.73 545.35,-86.29 551.73,-83.41"/>
</g>
<!-- Node16&#45;&gt;Node2 -->
<g id="edge31" class="edge">
<title>Node16&#45;&gt;Node2</title>
<path fill="none" stroke="midnightblue" d="M611.93,-336.46C625.39,-318.69 654.12,-275.98 654.12,-235 654.12,-235 654.12,-235 654.12,-121 654.12,-38.61 531.85,-17.9 466.39,-12.71"/>
<polygon fill="midnightblue" stroke="midnightblue" points="466.62,-9.22 456.39,-12.01 466.12,-16.21 466.62,-9.22"/>
</g>
<!-- Node16&#45;&gt;Node3 -->
<g id="edge32" class="edge">
<title>Node16&#45;&gt;Node3</title>
<path fill="none" stroke="midnightblue" d="M583.62,-336.37C535.3,-316.97 417.97,-269.87 361.92,-247.37"/>
<polygon fill="midnightblue" stroke="midnightblue" points="363.1,-244.07 352.52,-243.59 360.49,-250.57 363.1,-244.07"/>
</g>
<!-- Node16&#45;&gt;Node15 -->
<g id="edge33" class="edge">
<title>Node16&#45;&gt;Node15</title>
<path fill="none" stroke="midnightblue" d="M600.66,-336.08C596.96,-328.69 591.59,-317.95 587.02,-308.81"/>
<polygon fill="midnightblue" stroke="midnightblue" points="590.1,-307.13 582.49,-299.75 583.83,-310.26 590.1,-307.13"/>
</g>
</g>
</svg>
