<?xml version="1.0" encoding="UTF-8" standalone="no"?>
<!DOCTYPE svg PUBLIC "-//W3C//DTD SVG 1.1//EN"
 "http://www.w3.org/Graphics/SVG/1.1/DTD/svg11.dtd">
<!-- Generated by graphviz version 2.43.0 (0)
 -->
<!-- Title: src/rules.cpp Pages: 1 -->
<svg width="778pt" height="476pt"
 viewBox="0.00 0.00 778.00 476.00" xmlns="http://www.w3.org/2000/svg" xmlns:xlink="http://www.w3.org/1999/xlink">
<g id="graph0" class="graph" transform="scale(1 1) rotate(0) translate(4 472)">
<title>src/rules.cpp</title>
<polygon fill="white" stroke="transparent" points="-4,4 -4,-472 774,-472 774,4 -4,4"/>
<!-- Node1 -->
<g id="node1" class="node">
<title>Node1</title>
<g id="a_node1"><a xlink:title=" ">
<polygon fill="#bfbfbf" stroke="black" points="261,-448.5 261,-467.5 339,-467.5 339,-448.5 261,-448.5"/>
<text text-anchor="middle" x="300" y="-455.5" font-family="Helvetica,sans-Serif" font-size="10.00">src/rules.cpp</text>
</a>
</g>
</g>
<!-- Node2 -->
<g id="node2" class="node">
<title>Node2</title>
<g id="a_node2"><a xlink:href="rules_8h.html" target="_top" xlink:title=" ">
<polygon fill="white" stroke="black" points="325,-392.5 325,-411.5 375,-411.5 375,-392.5 325,-392.5"/>
<text text-anchor="middle" x="350" y="-399.5" font-family="Helvetica,sans-Serif" font-size="10.00">rules.h</text>
</a>
</g>
</g>
<!-- Node1&#45;&gt;Node2 -->
<g id="edge1" class="edge">
<title>Node1&#45;&gt;Node2</title>
<path fill="none" stroke="midnightblue" d="M308.26,-448.08C315.46,-440.3 326.11,-428.8 334.85,-419.37"/>
<polygon fill="midnightblue" stroke="midnightblue" points="337.67,-421.47 341.9,-411.75 332.53,-416.71 337.67,-421.47"/>
</g>
<!-- Node18 -->
<g id="node18" class="node">
<title>Node18</title>
<g id="a_node18"><a xlink:href="validate_8h.html" target="_top" xlink:title=" ">
<polygon fill="white" stroke="black" points="209.5,-336.5 209.5,-355.5 274.5,-355.5 274.5,-336.5 209.5,-336.5"/>
<text text-anchor="middle" x="242" y="-343.5" font-family="Helvetica,sans-Serif" font-size="10.00">validate.h</text>
</a>
</g>
</g>
<!-- Node1&#45;&gt;Node18 -->
<g id="edge35" class="edge">
<title>Node1&#45;&gt;Node18</title>
<path fill="none" stroke="midnightblue" d="M295.45,-448.37C285.96,-430.38 263.91,-388.55 251.29,-364.63"/>
<polygon fill="midnightblue" stroke="midnightblue" points="254.29,-362.8 246.53,-355.59 248.1,-366.07 254.29,-362.8"/>
</g>
<!-- Node3 -->
<g id="node3" class="node">
<title>Node3</title>
<g id="a_node3"><a xlink:title=" ">
<polygon fill="white" stroke="#bfbfbf" points="422,-0.5 422,-19.5 482,-19.5 482,-0.5 422,-0.5"/>
<text text-anchor="middle" x="452" y="-7.5" font-family="Helvetica,sans-Serif" font-size="10.00">iostream</text>
</a>
</g>
</g>
<!-- Node2&#45;&gt;Node3 -->
<g id="edge2" class="edge">
<title>Node2&#45;&gt;Node3</title>
<path fill="none" stroke="midnightblue" d="M375.02,-399.88C465.43,-395.16 770,-373.16 770,-291 770,-291 770,-291 770,-121 770,-62.89 577.94,-28.66 492.34,-16.3"/>
<polygon fill="midnightblue" stroke="midnightblue" points="492.6,-12.8 482.2,-14.86 491.61,-19.73 492.6,-12.8"/>
</g>
<!-- Node4 -->
<g id="node4" class="node">
<title>Node4</title>
<g id="a_node4"><a xlink:href="board_8h.html" target="_top" xlink:title=" ">
<polygon fill="white" stroke="black" points="323.5,-224.5 323.5,-243.5 376.5,-243.5 376.5,-224.5 323.5,-224.5"/>
<text text-anchor="middle" x="350" y="-231.5" font-family="Helvetica,sans-Serif" font-size="10.00">board.h</text>
</a>
</g>
</g>
<!-- Node2&#45;&gt;Node4 -->
<g id="edge3" class="edge">
<title>Node2&#45;&gt;Node4</title>
<path fill="none" stroke="midnightblue" d="M350,-392.08C350,-365.95 350,-289.21 350,-253.58"/>
<polygon fill="midnightblue" stroke="midnightblue" points="353.5,-253.57 350,-243.57 346.5,-253.57 353.5,-253.57"/>
</g>
<!-- Node16 -->
<g id="node16" class="node">
<title>Node16</title>
<g id="a_node16"><a xlink:href="player_8h.html" target="_top" xlink:title=" ">
<polygon fill="white" stroke="black" points="266,-280.5 266,-299.5 322,-299.5 322,-280.5 266,-280.5"/>
<text text-anchor="middle" x="294" y="-287.5" font-family="Helvetica,sans-Serif" font-size="10.00">player.h</text>
</a>
</g>
</g>
<!-- Node2&#45;&gt;Node16 -->
<g id="edge27" class="edge">
<title>Node2&#45;&gt;Node16</title>
<path fill="none" stroke="midnightblue" d="M345.61,-392.37C336.45,-374.38 315.15,-332.55 302.97,-308.63"/>
<polygon fill="midnightblue" stroke="midnightblue" points="306.03,-306.92 298.37,-299.59 299.79,-310.09 306.03,-306.92"/>
</g>
<!-- Node17 -->
<g id="node17" class="node">
<title>Node17</title>
<g id="a_node17"><a xlink:href="move_8h.html" target="_top" xlink:title=" ">
<polygon fill="white" stroke="black" points="378.5,-336.5 378.5,-355.5 431.5,-355.5 431.5,-336.5 378.5,-336.5"/>
<text text-anchor="middle" x="405" y="-343.5" font-family="Helvetica,sans-Serif" font-size="10.00">move.h</text>
</a>
</g>
</g>
<!-- Node2&#45;&gt;Node17 -->
<g id="edge31" class="edge">
<title>Node2&#45;&gt;Node17</title>
<path fill="none" stroke="midnightblue" d="M359.08,-392.08C367.17,-384.14 379.2,-372.34 388.91,-362.8"/>
<polygon fill="midnightblue" stroke="midnightblue" points="391.4,-365.25 396.09,-355.75 386.5,-360.26 391.4,-365.25"/>
</g>
<!-- Node4&#45;&gt;Node3 -->
<g id="edge4" class="edge">
<title>Node4&#45;&gt;Node3</title>
<path fill="none" stroke="midnightblue" d="M323.44,-230.3C276.13,-224.95 180.02,-211.44 157,-188 115.22,-145.46 93.89,-101.01 133,-56 168.65,-14.97 334.04,-10.3 411.62,-10.43"/>
<polygon fill="midnightblue" stroke="midnightblue" points="411.95,-13.94 421.96,-10.48 411.98,-6.94 411.95,-13.94"/>
</g>
<!-- Node5 -->
<g id="node5" class="node">
<title>Node5</title>
<g id="a_node5"><a xlink:title=" ">
<polygon fill="white" stroke="#bfbfbf" points="142.5,-56.5 142.5,-75.5 189.5,-75.5 189.5,-56.5 142.5,-56.5"/>
<text text-anchor="middle" x="166" y="-63.5" font-family="Helvetica,sans-Serif" font-size="10.00">vector</text>
</a>
</g>
</g>
<!-- Node4&#45;&gt;Node5 -->
<g id="edge5" class="edge">
<title>Node4&#45;&gt;Node5</title>
<path fill="none" stroke="midnightblue" d="M323.2,-230.15C278.1,-224.75 190.06,-211.43 171,-188 147.31,-158.87 154.24,-111.51 160.59,-85.52"/>
<polygon fill="midnightblue" stroke="midnightblue" points="164.07,-86.08 163.28,-75.51 157.31,-84.26 164.07,-86.08"/>
</g>
<!-- Node6 -->
<g id="node6" class="node">
<title>Node6</title>
<g id="a_node6"><a xlink:href="square_8h.html" target="_top" xlink:title=" ">
<polygon fill="white" stroke="black" points="644.5,-168.5 644.5,-187.5 703.5,-187.5 703.5,-168.5 644.5,-168.5"/>
<text text-anchor="middle" x="674" y="-175.5" font-family="Helvetica,sans-Serif" font-size="10.00">square.h</text>
</a>
</g>
</g>
<!-- Node4&#45;&gt;Node6 -->
<g id="edge6" class="edge">
<title>Node4&#45;&gt;Node6</title>
<path fill="none" stroke="midnightblue" d="M376.7,-229.09C426.58,-221.71 537.25,-204.93 630,-188 631.44,-187.74 632.9,-187.47 634.38,-187.19"/>
<polygon fill="midnightblue" stroke="midnightblue" points="635.06,-190.62 644.21,-185.27 633.73,-183.75 635.06,-190.62"/>
</g>
<!-- Node9 -->
<g id="node9" class="node">
<title>Node9</title>
<g id="a_node9"><a xlink:href="position_8h.html" target="_top" xlink:title=" ">
<polygon fill="white" stroke="black" points="450.5,-56.5 450.5,-75.5 515.5,-75.5 515.5,-56.5 450.5,-56.5"/>
<text text-anchor="middle" x="483" y="-63.5" font-family="Helvetica,sans-Serif" font-size="10.00">position.h</text>
</a>
</g>
</g>
<!-- Node4&#45;&gt;Node9 -->
<g id="edge14" class="edge">
<title>Node4&#45;&gt;Node9</title>
<path fill="none" stroke="midnightblue" d="M376.71,-232.27C434.7,-230.07 569.15,-221.39 597,-188 631.36,-146.81 555.74,-101.65 511.72,-80"/>
<polygon fill="midnightblue" stroke="midnightblue" points="513.13,-76.79 502.6,-75.62 510.1,-83.1 513.13,-76.79"/>
</g>
<!-- Node10 -->
<g id="node10" class="node">
<title>Node10</title>
<g id="a_node10"><a xlink:href="pawn_8h.html" target="_top" xlink:title=" ">
<polygon fill="white" stroke="black" points="396,-168.5 396,-187.5 448,-187.5 448,-168.5 396,-168.5"/>
<text text-anchor="middle" x="422" y="-175.5" font-family="Helvetica,sans-Serif" font-size="10.00">pawn.h</text>
</a>
</g>
</g>
<!-- Node4&#45;&gt;Node10 -->
<g id="edge15" class="edge">
<title>Node4&#45;&gt;Node10</title>
<path fill="none" stroke="midnightblue" d="M361.57,-224.32C372.42,-216.18 388.88,-203.84 401.88,-194.09"/>
<polygon fill="midnightblue" stroke="midnightblue" points="404.32,-196.63 410.22,-187.83 400.12,-191.03 404.32,-196.63"/>
</g>
<!-- Node11 -->
<g id="node11" class="node">
<title>Node11</title>
<g id="a_node11"><a xlink:href="queen_8h.html" target="_top" xlink:title=" ">
<polygon fill="white" stroke="black" points="466,-168.5 466,-187.5 522,-187.5 522,-168.5 466,-168.5"/>
<text text-anchor="middle" x="494" y="-175.5" font-family="Helvetica,sans-Serif" font-size="10.00">queen.h</text>
</a>
</g>
</g>
<!-- Node4&#45;&gt;Node11 -->
<g id="edge17" class="edge">
<title>Node4&#45;&gt;Node11</title>
<path fill="none" stroke="midnightblue" d="M372.82,-224.44C396.83,-215.44 434.83,-201.19 461.87,-191.05"/>
<polygon fill="midnightblue" stroke="midnightblue" points="463.16,-194.3 471.29,-187.52 460.7,-187.75 463.16,-194.3"/>
</g>
<!-- Node12 -->
<g id="node12" class="node">
<title>Node12</title>
<g id="a_node12"><a xlink:href="king_8h.html" target="_top" xlink:title=" ">
<polygon fill="white" stroke="black" points="540.5,-168.5 540.5,-187.5 587.5,-187.5 587.5,-168.5 540.5,-168.5"/>
<text text-anchor="middle" x="564" y="-175.5" font-family="Helvetica,sans-Serif" font-size="10.00">king.h</text>
</a>
</g>
</g>
<!-- Node4&#45;&gt;Node12 -->
<g id="edge19" class="edge">
<title>Node4&#45;&gt;Node12</title>
<path fill="none" stroke="midnightblue" d="M376.73,-226.55C410.29,-218.42 469.87,-203.83 530.49,-188.09"/>
<polygon fill="midnightblue" stroke="midnightblue" points="531.43,-191.46 540.22,-185.55 529.66,-184.69 531.43,-191.46"/>
</g>
<!-- Node13 -->
<g id="node13" class="node">
<title>Node13</title>
<g id="a_node13"><a xlink:href="rook_8h.html" target="_top" xlink:title=" ">
<polygon fill="white" stroke="black" points="180.5,-168.5 180.5,-187.5 227.5,-187.5 227.5,-168.5 180.5,-168.5"/>
<text text-anchor="middle" x="204" y="-175.5" font-family="Helvetica,sans-Serif" font-size="10.00">rook.h</text>
</a>
</g>
</g>
<!-- Node4&#45;&gt;Node13 -->
<g id="edge21" class="edge">
<title>Node4&#45;&gt;Node13</title>
<path fill="none" stroke="midnightblue" d="M326.87,-224.44C302.52,-215.44 263.99,-201.19 236.58,-191.05"/>
<polygon fill="midnightblue" stroke="midnightblue" points="237.62,-187.7 227.03,-187.52 235.19,-194.27 237.62,-187.7"/>
</g>
<!-- Node14 -->
<g id="node14" class="node">
<title>Node14</title>
<g id="a_node14"><a xlink:href="bishop_8h.html" target="_top" xlink:title=" ">
<polygon fill="white" stroke="black" points="246,-168.5 246,-187.5 304,-187.5 304,-168.5 246,-168.5"/>
<text text-anchor="middle" x="275" y="-175.5" font-family="Helvetica,sans-Serif" font-size="10.00">bishop.h</text>
</a>
</g>
</g>
<!-- Node4&#45;&gt;Node14 -->
<g id="edge23" class="edge">
<title>Node4&#45;&gt;Node14</title>
<path fill="none" stroke="midnightblue" d="M337.95,-224.32C326.54,-216.11 309.17,-203.6 295.57,-193.81"/>
<polygon fill="midnightblue" stroke="midnightblue" points="297.43,-190.84 287.27,-187.83 293.34,-196.52 297.43,-190.84"/>
</g>
<!-- Node15 -->
<g id="node15" class="node">
<title>Node15</title>
<g id="a_node15"><a xlink:href="knight_8h.html" target="_top" xlink:title=" ">
<polygon fill="white" stroke="black" points="322,-168.5 322,-187.5 378,-187.5 378,-168.5 322,-168.5"/>
<text text-anchor="middle" x="350" y="-175.5" font-family="Helvetica,sans-Serif" font-size="10.00">knight.h</text>
</a>
</g>
</g>
<!-- Node4&#45;&gt;Node15 -->
<g id="edge25" class="edge">
<title>Node4&#45;&gt;Node15</title>
<path fill="none" stroke="midnightblue" d="M350,-224.08C350,-217.01 350,-206.86 350,-197.99"/>
<polygon fill="midnightblue" stroke="midnightblue" points="353.5,-197.75 350,-187.75 346.5,-197.75 353.5,-197.75"/>
</g>
<!-- Node6&#45;&gt;Node3 -->
<g id="edge7" class="edge">
<title>Node6&#45;&gt;Node3</title>
<path fill="none" stroke="midnightblue" d="M676.99,-168.17C680.93,-154.83 686.13,-129.26 675,-112 634.51,-49.21 544.48,-25.03 492.04,-16.04"/>
<polygon fill="midnightblue" stroke="midnightblue" points="492.51,-12.57 482.08,-14.44 491.4,-19.48 492.51,-12.57"/>
</g>
<!-- Node7 -->
<g id="node7" class="node">
<title>Node7</title>
<g id="a_node7"><a xlink:title=" ">
<polygon fill="white" stroke="#bfbfbf" points="608,-112.5 608,-131.5 666,-131.5 666,-112.5 608,-112.5"/>
<text text-anchor="middle" x="637" y="-119.5" font-family="Helvetica,sans-Serif" font-size="10.00">memory</text>
</a>
</g>
</g>
<!-- Node6&#45;&gt;Node7 -->
<g id="edge8" class="edge">
<title>Node6&#45;&gt;Node7</title>
<path fill="none" stroke="midnightblue" d="M667.89,-168.08C662.72,-160.53 655.15,-149.49 648.81,-140.23"/>
<polygon fill="midnightblue" stroke="midnightblue" points="651.54,-138.02 643,-131.75 645.76,-141.98 651.54,-138.02"/>
</g>
<!-- Node8 -->
<g id="node8" class="node">
<title>Node8</title>
<g id="a_node8"><a xlink:href="piece_8h.html" target="_top" xlink:title=" ">
<polygon fill="white" stroke="black" points="396,-112.5 396,-131.5 448,-131.5 448,-112.5 396,-112.5"/>
<text text-anchor="middle" x="422" y="-119.5" font-family="Helvetica,sans-Serif" font-size="10.00">piece.h</text>
</a>
</g>
</g>
<!-- Node6&#45;&gt;Node8 -->
<g id="edge9" class="edge">
<title>Node6&#45;&gt;Node8</title>
<path fill="none" stroke="midnightblue" d="M644.1,-170.59C597.61,-160.63 508.12,-141.46 458.1,-130.74"/>
<polygon fill="midnightblue" stroke="midnightblue" points="458.56,-127.26 448.05,-128.58 457.1,-134.1 458.56,-127.26"/>
</g>
<!-- Node8&#45;&gt;Node3 -->
<g id="edge10" class="edge">
<title>Node8&#45;&gt;Node3</title>
<path fill="none" stroke="midnightblue" d="M424.35,-112.37C429.22,-94.54 440.46,-53.3 447.02,-29.27"/>
<polygon fill="midnightblue" stroke="midnightblue" points="450.4,-30.16 449.66,-19.59 443.65,-28.32 450.4,-30.16"/>
</g>
<!-- Node8&#45;&gt;Node5 -->
<g id="edge11" class="edge">
<title>Node8&#45;&gt;Node5</title>
<path fill="none" stroke="midnightblue" d="M395.57,-115.42C348.72,-105.54 251.2,-84.97 199.64,-74.1"/>
<polygon fill="midnightblue" stroke="midnightblue" points="200.17,-70.63 189.67,-71.99 198.73,-77.48 200.17,-70.63"/>
</g>
<!-- Node8&#45;&gt;Node9 -->
<g id="edge12" class="edge">
<title>Node8&#45;&gt;Node9</title>
<path fill="none" stroke="midnightblue" d="M431.8,-112.32C440.82,-104.34 454.41,-92.31 465.32,-82.65"/>
<polygon fill="midnightblue" stroke="midnightblue" points="467.85,-85.08 473.02,-75.83 463.21,-79.84 467.85,-85.08"/>
</g>
<!-- Node9&#45;&gt;Node3 -->
<g id="edge13" class="edge">
<title>Node9&#45;&gt;Node3</title>
<path fill="none" stroke="midnightblue" d="M477.88,-56.08C473.59,-48.61 467.34,-37.72 462.06,-28.52"/>
<polygon fill="midnightblue" stroke="midnightblue" points="465.04,-26.68 457.02,-19.75 458.97,-30.17 465.04,-26.68"/>
</g>
<!-- Node10&#45;&gt;Node8 -->
<g id="edge16" class="edge">
<title>Node10&#45;&gt;Node8</title>
<path fill="none" stroke="midnightblue" d="M422,-168.08C422,-161.01 422,-150.86 422,-141.99"/>
<polygon fill="midnightblue" stroke="midnightblue" points="425.5,-141.75 422,-131.75 418.5,-141.75 425.5,-141.75"/>
</g>
<!-- Node11&#45;&gt;Node8 -->
<g id="edge18" class="edge">
<title>Node11&#45;&gt;Node8</title>
<path fill="none" stroke="midnightblue" d="M482.43,-168.32C471.58,-160.18 455.12,-147.84 442.12,-138.09"/>
<polygon fill="midnightblue" stroke="midnightblue" points="443.88,-135.03 433.78,-131.83 439.68,-140.63 443.88,-135.03"/>
</g>
<!-- Node12&#45;&gt;Node8 -->
<g id="edge20" class="edge">
<title>Node12&#45;&gt;Node8</title>
<path fill="none" stroke="midnightblue" d="M541.5,-168.44C517.92,-159.48 480.68,-145.31 454.04,-135.18"/>
<polygon fill="midnightblue" stroke="midnightblue" points="454.99,-131.8 444.4,-131.52 452.5,-138.34 454.99,-131.8"/>
</g>
<!-- Node13&#45;&gt;Node8 -->
<g id="edge22" class="edge">
<title>Node13&#45;&gt;Node8</title>
<path fill="none" stroke="midnightblue" d="M227.77,-170.43C230.87,-169.6 234.01,-168.77 237,-168 288.64,-154.68 348.66,-140.28 386,-131.45"/>
<polygon fill="midnightblue" stroke="midnightblue" points="386.97,-134.81 395.9,-129.11 385.36,-128 386.97,-134.81"/>
</g>
<!-- Node14&#45;&gt;Node8 -->
<g id="edge24" class="edge">
<title>Node14&#45;&gt;Node8</title>
<path fill="none" stroke="midnightblue" d="M298.29,-168.44C322.81,-159.44 361.6,-145.19 389.2,-135.05"/>
<polygon fill="midnightblue" stroke="midnightblue" points="390.64,-138.25 398.82,-131.52 388.22,-131.68 390.64,-138.25"/>
</g>
<!-- Node15&#45;&gt;Node8 -->
<g id="edge26" class="edge">
<title>Node15&#45;&gt;Node8</title>
<path fill="none" stroke="midnightblue" d="M361.57,-168.32C372.42,-160.18 388.88,-147.84 401.88,-138.09"/>
<polygon fill="midnightblue" stroke="midnightblue" points="404.32,-140.63 410.22,-131.83 400.12,-135.03 404.32,-140.63"/>
</g>
<!-- Node16&#45;&gt;Node3 -->
<g id="edge28" class="edge">
<title>Node16&#45;&gt;Node3</title>
<path fill="none" stroke="midnightblue" d="M265.63,-289.43C198.97,-288.83 38,-277.2 38,-179 38,-179 38,-179 38,-121 38,-75.87 74.69,-74.15 116,-56 168.23,-33.05 334.07,-19.05 411.48,-13.61"/>
<polygon fill="midnightblue" stroke="midnightblue" points="412.06,-17.08 421.79,-12.9 411.57,-10.09 412.06,-17.08"/>
</g>
<!-- Node16&#45;&gt;Node4 -->
<g id="edge30" class="edge">
<title>Node16&#45;&gt;Node4</title>
<path fill="none" stroke="midnightblue" d="M303,-280.32C311.19,-272.42 323.51,-260.55 333.47,-250.94"/>
<polygon fill="midnightblue" stroke="midnightblue" points="336.07,-253.29 340.84,-243.83 331.21,-248.26 336.07,-253.29"/>
</g>
<!-- Node16&#45;&gt;Node5 -->
<g id="edge29" class="edge">
<title>Node16&#45;&gt;Node5</title>
<path fill="none" stroke="midnightblue" d="M273.5,-280.49C242.36,-266.36 183.92,-234.9 157,-188 138.45,-155.69 149.82,-110.29 158.63,-85.29"/>
<polygon fill="midnightblue" stroke="midnightblue" points="162.01,-86.23 162.26,-75.64 155.46,-83.77 162.01,-86.23"/>
</g>
<!-- Node17&#45;&gt;Node3 -->
<g id="edge32" class="edge">
<title>Node17&#45;&gt;Node3</title>
<path fill="none" stroke="midnightblue" d="M431.76,-341.86C509.86,-331.94 732,-298.19 732,-235 732,-235 732,-235 732,-121 732,-70.08 569.55,-32.91 492.12,-18.09"/>
<polygon fill="midnightblue" stroke="midnightblue" points="492.71,-14.64 482.23,-16.23 491.41,-21.52 492.71,-14.64"/>
</g>
<!-- Node17&#45;&gt;Node4 -->
<g id="edge33" class="edge">
<title>Node17&#45;&gt;Node4</title>
<path fill="none" stroke="midnightblue" d="M400.68,-336.37C391.69,-318.38 370.78,-276.55 358.81,-252.63"/>
<polygon fill="midnightblue" stroke="midnightblue" points="361.9,-250.97 354.3,-243.59 355.64,-254.1 361.9,-250.97"/>
</g>
<!-- Node17&#45;&gt;Node16 -->
<g id="edge34" class="edge">
<title>Node17&#45;&gt;Node16</title>
<path fill="none" stroke="midnightblue" d="M387.17,-336.32C369.28,-327.62 341.52,-314.12 320.95,-304.11"/>
<polygon fill="midnightblue" stroke="midnightblue" points="322.31,-300.88 311.79,-299.65 319.25,-307.18 322.31,-300.88"/>
</g>
<!-- Node18&#45;&gt;Node3 -->
<g id="edge36" class="edge">
<title>Node18&#45;&gt;Node3</title>
<path fill="none" stroke="midnightblue" d="M209.36,-344.65C143.31,-342.05 0,-325.92 0,-235 0,-235 0,-235 0,-121 0,-80.77 26.92,-73.79 63,-56 123.66,-26.09 324.98,-15.49 411.69,-12.25"/>
<polygon fill="midnightblue" stroke="midnightblue" points="412.06,-15.74 421.93,-11.88 411.81,-8.75 412.06,-15.74"/>
</g>
<!-- Node18&#45;&gt;Node4 -->
<g id="edge37" class="edge">
<title>Node18&#45;&gt;Node4</title>
<path fill="none" stroke="midnightblue" d="M241.74,-336.42C241.77,-322.95 243.71,-296.66 257,-280 271.16,-262.25 294.07,-251.05 313.6,-244.26"/>
<polygon fill="midnightblue" stroke="midnightblue" points="314.7,-247.58 323.15,-241.19 312.56,-240.92 314.7,-247.58"/>
</g>
<!-- Node18&#45;&gt;Node16 -->
<g id="edge38" class="edge">
<title>Node18&#45;&gt;Node16</title>
<path fill="none" stroke="midnightblue" d="M250.59,-336.08C258.16,-328.22 269.38,-316.57 278.51,-307.08"/>
<polygon fill="midnightblue" stroke="midnightblue" points="281.16,-309.38 285.57,-299.75 276.12,-304.53 281.16,-309.38"/>
</g>
</g>
</svg>
