<?xml version="1.0" encoding="UTF-8" standalone="no"?>
<!DOCTYPE svg PUBLIC "-//W3C//DTD SVG 1.1//EN"
 "http://www.w3.org/Graphics/SVG/1.1/DTD/svg11.dtd">
<!-- Generated by graphviz version 2.43.0 (0)
 -->
<!-- Title: src/tutorial.h Pages: 1 -->
<svg width="239pt" height="140pt"
 viewBox="0.00 0.00 239.00 140.00" xmlns="http://www.w3.org/2000/svg" xmlns:xlink="http://www.w3.org/1999/xlink">
<g id="graph0" class="graph" transform="scale(1 1) rotate(0) translate(4 136)">
<title>src/tutorial.h</title>
<polygon fill="white" stroke="transparent" points="-4,4 -4,-136 235,-136 235,4 -4,4"/>
<!-- Node1 -->
<g id="node1" class="node">
<title>Node1</title>
<g id="a_node1"><a xlink:title=" ">
<polygon fill="#bfbfbf" stroke="black" points="98.5,-112.5 98.5,-131.5 176.5,-131.5 176.5,-112.5 98.5,-112.5"/>
<text text-anchor="middle" x="137.5" y="-119.5" font-family="Helvetica,sans-Serif" font-size="10.00">src/tutorial.h</text>
</a>
</g>
</g>
<!-- Node2 -->
<g id="node2" class="node">
<title>Node2</title>
<g id="a_node2"><a xlink:href="menu_8h.html" target="_top" xlink:title=" ">
<polygon fill="white" stroke="black" points="53,-56.5 53,-75.5 124,-75.5 124,-56.5 53,-56.5"/>
<text text-anchor="middle" x="88.5" y="-63.5" font-family="Helvetica,sans-Serif" font-size="10.00">src/menu.h</text>
</a>
</g>
</g>
<!-- Node1&#45;&gt;Node2 -->
<g id="edge1" class="edge">
<title>Node1&#45;&gt;Node2</title>
<path fill="none" stroke="midnightblue" d="M122.47,-104.43C113.88,-94.97 103.46,-83.48 96.44,-75.75"/>
<polygon fill="midnightblue" stroke="midnightblue" points="120.1,-107.03 129.41,-112.08 125.28,-102.33 120.1,-107.03"/>
</g>
<!-- Node5 -->
<g id="node5" class="node">
<title>Node5</title>
<g id="a_node5"><a xlink:href="tutorial_8cpp.html" target="_top" xlink:title=" ">
<polygon fill="white" stroke="black" points="142,-56.5 142,-75.5 231,-75.5 231,-56.5 142,-56.5"/>
<text text-anchor="middle" x="186.5" y="-63.5" font-family="Helvetica,sans-Serif" font-size="10.00">src/tutorial.cpp</text>
</a>
</g>
</g>
<!-- Node1&#45;&gt;Node5 -->
<g id="edge4" class="edge">
<title>Node1&#45;&gt;Node5</title>
<path fill="none" stroke="midnightblue" d="M152.53,-104.43C161.12,-94.97 171.54,-83.48 178.56,-75.75"/>
<polygon fill="midnightblue" stroke="midnightblue" points="149.72,-102.33 145.59,-112.08 154.9,-107.03 149.72,-102.33"/>
</g>
<!-- Node3 -->
<g id="node3" class="node">
<title>Node3</title>
<g id="a_node3"><a xlink:href="main_8cpp.html" target="_top" xlink:title=" ">
<polygon fill="white" stroke="black" points="0,-0.5 0,-19.5 79,-19.5 79,-0.5 0,-0.5"/>
<text text-anchor="middle" x="39.5" y="-7.5" font-family="Helvetica,sans-Serif" font-size="10.00">src/main.cpp</text>
</a>
</g>
</g>
<!-- Node2&#45;&gt;Node3 -->
<g id="edge2" class="edge">
<title>Node2&#45;&gt;Node3</title>
<path fill="none" stroke="midnightblue" d="M73.47,-48.43C64.88,-38.97 54.46,-27.48 47.44,-19.75"/>
<polygon fill="midnightblue" stroke="midnightblue" points="71.1,-51.03 80.41,-56.08 76.28,-46.33 71.1,-51.03"/>
</g>
<!-- Node4 -->
<g id="node4" class="node">
<title>Node4</title>
<g id="a_node4"><a xlink:href="menu_8cpp.html" target="_top" xlink:title=" ">
<polygon fill="white" stroke="black" points="97.5,-0.5 97.5,-19.5 179.5,-19.5 179.5,-0.5 97.5,-0.5"/>
<text text-anchor="middle" x="138.5" y="-7.5" font-family="Helvetica,sans-Serif" font-size="10.00">src/menu.cpp</text>
</a>
</g>
</g>
<!-- Node2&#45;&gt;Node4 -->
<g id="edge3" class="edge">
<title>Node2&#45;&gt;Node4</title>
<path fill="none" stroke="midnightblue" d="M103.58,-48.72C112.39,-39.2 123.17,-27.56 130.4,-19.75"/>
<polygon fill="midnightblue" stroke="midnightblue" points="100.98,-46.37 96.76,-56.08 106.12,-51.12 100.98,-46.37"/>
</g>
</g>
</svg>
